<svg xmlns="http://www.w3.org/2000/svg" width="42" height="42" viewBox="0 0 42 42">
  <g id="Grupo_957391" data-name="Grupo 957391" transform="translate(0 0.148)">
    <rect id="Rectángulo_306999" data-name="Rectángulo 306999" width="42" height="42" transform="translate(0 -0.148)" fill="none"/>
    <g id="Grupo_957393" data-name="Grupo 957393" transform="translate(3.523 4.377)">
      <path id="Trazado_632211" data-name="Trazado 632211" d="M-248.542,612.2c-3.715,0-7.431,0-11.146-.007-.312,0-.411.051-.41.392.016,3.194.009,6.388.009,9.582a2.281,2.281,0,0,1,0,.306.5.5,0,0,1-.5.466.5.5,0,0,1-.516-.483,2.33,2.33,0,0,1,0-.238q0-6.32,0-12.64a3.491,3.491,0,0,1,3.051-3.579,10.973,10.973,0,0,1,1.56-.038c.725,0,1.45-.012,2.175.005.246.006.31-.071.292-.3-.02-.259-.009-.521,0-.781a1.432,1.432,0,0,1,1.427-1.461,1.415,1.415,0,0,1,1.427,1.453c0,.272.017.545,0,.815-.019.235.076.276.288.275,2.028-.007,4.055,0,6.083,0,1.178,0,2.356-.014,3.534.009.316.006.385-.093.358-.377a6.55,6.55,0,0,1,0-.781,1.415,1.415,0,0,1,1.388-1.389,1.422,1.422,0,0,1,1.46,1.353,7.547,7.547,0,0,1,0,.917c-.017.236.077.274.287.272,1.042-.01,2.084-.007,3.126,0A3.516,3.516,0,0,1-231,609.634q0,4.944,0,9.888c0,.247-.013.48-.254.622a.5.5,0,0,1-.761-.389,4.512,4.512,0,0,1-.007-.543c0-2.231-.005-4.462.007-6.693,0-.27-.072-.334-.334-.329-.838.017-1.676.011-2.515,0-.407,0-.678-.272-.606-.6a.513.513,0,0,1,.569-.424c.861.005,1.722-.007,2.582.007.236,0,.315-.055.3-.3a13.555,13.555,0,0,0-.066-1.931,2.461,2.461,0,0,0-2.364-1.971c-1.132-.017-2.265,0-3.4-.012-.207,0-.241.075-.233.254.013.283.01.566,0,.849a1.435,1.435,0,0,1-1.439,1.417,1.431,1.431,0,0,1-1.413-1.438c0-.272-.015-.545,0-.815.014-.206-.041-.275-.258-.267-.464.018-.929.006-1.393.006-2.753,0-5.505,0-8.258-.007-.274,0-.388.05-.354.345a5.6,5.6,0,0,1,0,.747,1.43,1.43,0,0,1-1.387,1.429,1.435,1.435,0,0,1-1.464-1.391c-.013-.305-.012-.612,0-.917.006-.163-.045-.21-.208-.209-1.178.009-2.357-.019-3.534.017a2.469,2.469,0,0,0-2.307,2.344c-.024.543,0,1.087-.011,1.631,0,.158.037.235.207.214a1.94,1.94,0,0,1,.238,0h22.19c.113,0,.227,0,.34,0a.465.465,0,0,1,.48.471.471.471,0,0,1-.421.528,1.858,1.858,0,0,1-.372.017Zm-4.472-5.761c0,.5,0,.994,0,1.491,0,.347.163.561.419.538.311-.028.4-.234.4-.522q-.01-1.491,0-2.982c0-.286-.079-.5-.4-.517-.267-.017-.416.179-.418.535C-253.016,605.463-253.014,605.949-253.014,606.435Zm13.923.01q0-.763,0-1.525c0-.276-.113-.473-.407-.474s-.409.189-.408.47c0,1.016,0,2.033,0,3.049,0,.277.1.466.388.5.248.028.423-.179.427-.494C-239.087,607.462-239.09,606.953-239.091,606.445Z" transform="translate(261.111 -603.416)" fill="#030303"/>
      <path id="Trazado_632212" data-name="Trazado 632212" d="M-117.185,734.3c.2.186.4.344.568.524a.51.51,0,0,1,.034.73.506.506,0,0,1-.755-.01c-.026-.022-.049-.047-.073-.071-.5-.488-.5-.487-.9.084a6.887,6.887,0,0,0-1.184,3.139c-.022.171.005.25.2.235a4.457,4.457,0,0,1,.611,0,.469.469,0,0,1,.482.47.489.489,0,0,1-.452.538,3.66,3.66,0,0,1-.645,0c-.2-.015-.216.07-.2.236a6.967,6.967,0,0,0,1.406,3.44c.147.192.248.265.422.037a2.351,2.351,0,0,1,.385-.381.48.48,0,0,1,.7.042.473.473,0,0,1,.006.675,5.346,5.346,0,0,1-.452.46c-.109.1-.113.161.01.259a6.923,6.923,0,0,0,3.547,1.489c.174.021.248-.02.233-.209a3.642,3.642,0,0,1,0-.577.5.5,0,0,1,.523-.507.5.5,0,0,1,.493.533c0,.034,0,.068,0,.1.012.711.013.719.725.584a6.876,6.876,0,0,0,3.26-1.588c-.2-.165-.408-.308-.584-.482a.507.507,0,0,1-.041-.753.508.508,0,0,1,.754.029,1.878,1.878,0,0,1,.286.29c.195.276.318.187.487-.04a6.953,6.953,0,0,0,1.364-3.35c.033-.264-.051-.306-.276-.285a3.016,3.016,0,0,1-.509,0,.519.519,0,0,1-.508-.53.509.509,0,0,1,.513-.484c.068,0,.136,0,.2,0,.649,0,.65,0,.52-.659-.039-.2-.085-.4-.127-.6a.5.5,0,0,1,.358-.659.494.494,0,0,1,.625.412,7.634,7.634,0,0,1-.393,5.139,7.825,7.825,0,0,1-8.037,4.649,7.864,7.864,0,0,1-6.852-6.507,7.815,7.815,0,0,1,7.014-9.051,7.637,7.637,0,0,1,7.244,3.473.541.541,0,0,1,.044.688.5.5,0,0,1-.814-.012c-.162-.2-.31-.417-.458-.631-.1-.14-.179-.173-.3-.024a4.01,4.01,0,0,1-.407.409.5.5,0,0,1-.728,0,.512.512,0,0,1,.019-.731,5.222,5.222,0,0,1,.408-.408c.116-.1.138-.168,0-.279a6.889,6.889,0,0,0-3.484-1.468c-.234-.029-.333.023-.3.276a2.825,2.825,0,0,1,0,.543.469.469,0,0,1-.486.468.456.456,0,0,1-.5-.409,3.876,3.876,0,0,1-.023-.676c0-.153-.024-.225-.2-.206A6.771,6.771,0,0,0-117.185,734.3Z" transform="translate(139.702 -714.162)" fill="#040404"/>
      <path id="Trazado_632213" data-name="Trazado 632213" d="M-250.472,763.473q-3.483,0-6.966,0a3.516,3.516,0,0,1-3.674-3.67c0-1.325,0-2.65,0-3.975a.531.531,0,0,1,.34-.567.483.483,0,0,1,.556.143.658.658,0,0,1,.128.478q0,1.937,0,3.873a2.508,2.508,0,0,0,2.685,2.7h14.17a1.272,1.272,0,0,1,.438.031.481.481,0,0,1,.358.515.473.473,0,0,1-.453.468,2.912,2.912,0,0,1-.306,0Z" transform="translate(261.115 -734.553)" fill="#030303"/>
      <path id="Trazado_632214" data-name="Trazado 632214" d="M-72.566,761.01c0,.113.008.227,0,.339a.9.9,0,0,0,.47,1.014,1.415,1.415,0,0,1,.526,1.685.336.336,0,0,0,.1.407c.473.455.933.924,1.4,1.389.324.325.361.611.117.85s-.532.181-.853-.139c-.457-.455-.916-.909-1.366-1.37a.346.346,0,0,0-.409-.112,1.563,1.563,0,0,1-1.936-.878,1.563,1.563,0,0,1,.742-2.02.32.32,0,0,0,.2-.337c-.01-.543-.007-1.086,0-1.63,0-.4.194-.628.507-.634s.508.221.514.619C-72.563,760.467-72.566,760.739-72.566,761.01Zm.05,2.568a.561.561,0,0,0-.555-.563.556.556,0,0,0-.556.56.558.558,0,0,0,.552.564A.564.564,0,0,0-72.516,763.578Z" transform="translate(100.049 -738.311)" fill="#050505"/>
      <path id="Trazado_632215" data-name="Trazado 632215" d="M-84.738,689.693c0,.373.012.747,0,1.12a.891.891,0,0,1-.857.924,17.606,17.606,0,0,1-2.407,0,.911.911,0,0,1-.883-.942q-.027-1.12,0-2.24a.916.916,0,0,1,.915-.948c.779-.03,1.562-.031,2.341,0a.9.9,0,0,1,.894.962c.012.373,0,.747,0,1.12Zm-1.042.018h.023c0-.294-.006-.589,0-.883,0-.156-.042-.222-.21-.219-.566.008-1.132.007-1.7,0-.159,0-.218.047-.216.213q.012.849,0,1.7c0,.16.045.224.21.218.294-.009.589.007.883,0,.335-.014.784.147.971-.071C-85.652,690.474-85.78,690.037-85.78,689.71Z" transform="translate(112.354 -676.124)" fill="#050505"/>
      <path id="Trazado_632216" data-name="Trazado 632216" d="M-156.687,735c-.351,0-.7,0-1.053,0a.949.949,0,0,1-1-.968q-.029-1.1,0-2.207a.952.952,0,0,1,1.031-.975q1.053-.007,2.105,0a.937.937,0,0,1,1.014.984q.024,1.086,0,2.173a.944.944,0,0,1-1.042.992C-155.985,735-156.336,735-156.687,735Zm0-1.02c.294,0,.587,0,.881,0,.132,0,.206-.014.2-.179-.009-.587-.007-1.174,0-1.761,0-.13-.036-.177-.171-.176q-.88.009-1.761,0c-.15,0-.192.051-.191.2q.01.863,0,1.727c0,.149.048.2.194.193C-157.255,733.975-156.973,733.981-156.691,733.982Z" transform="translate(172.696 -713.494)" fill="#040404"/>
      <path id="Trazado_632217" data-name="Trazado 632217" d="M-156.685,771.9c-.351,0-.7,0-1.053,0a.951.951,0,0,1-1-.969c-.02-.735-.018-1.471,0-2.206a.945.945,0,0,1,1-.973q1.086-.011,2.173,0a.92.92,0,0,1,.978.948q.029,1.12,0,2.24a.935.935,0,0,1-1,.96C-155.961,771.908-156.323,771.9-156.685,771.9Zm1.076-2.049c0-.282-.005-.565,0-.847,0-.155-.009-.247-.212-.241-.564.015-1.129.013-1.693,0-.192,0-.221.074-.218.239.008.553.011,1.106,0,1.659,0,.189.068.223.236.22.553-.008,1.107-.013,1.659,0,.209.006.239-.079.231-.255C-155.619,770.374-155.609,770.114-155.609,769.854Z" transform="translate(172.695 -745.37)" fill="#040404"/>
      <path id="Trazado_632218" data-name="Trazado 632218" d="M-123.692,689.682c0,.373.008.747,0,1.12a.9.9,0,0,1-.871.946,17.532,17.532,0,0,1-2.408,0,.912.912,0,0,1-.87-.953q-.02-1.1,0-2.207a.914.914,0,0,1,.9-.965c.79-.033,1.584-.034,2.375,0a.9.9,0,0,1,.88.972C-123.684,688.958-123.691,689.32-123.692,689.682Zm-2.119,1.063c.295,0,.589-.007.883,0,.157.005.222-.038.219-.208-.009-.566-.007-1.132,0-1.7,0-.151-.03-.226-.2-.223-.566.009-1.133.007-1.7,0-.156,0-.221.039-.219.208.009.566.011,1.133,0,1.7,0,.19.072.229.239.222C-126.332,690.738-126.071,690.745-125.811,690.745Z" transform="translate(146 -676.134)" fill="#050505"/>
      <path id="Trazado_632219" data-name="Trazado 632219" d="M-235.062,767.762c.374,0,.747-.007,1.12,0a.92.92,0,0,1,.951.939q.023,1.137,0,2.274a.922.922,0,0,1-.959.934q-1.1.014-2.207,0a.946.946,0,0,1-.978-.959q-.026-1.12,0-2.24a.944.944,0,0,1,.986-.948C-235.786,767.757-235.424,767.762-235.062,767.762ZM-234,769.9c0-.339-.008-.621,0-.9.006-.155-.031-.219-.2-.215q-.846.015-1.693,0c-.179,0-.23.051-.227.229q.017.83,0,1.659c0,.174.039.241.223.231.281-.015.564,0,.847,0,.337,0,.788.117.981-.053C-233.851,770.645-234.037,770.184-234,769.9Z" transform="translate(240.411 -745.38)" fill="#030303"/>
      <path id="Trazado_632220" data-name="Trazado 632220" d="M-235.061,734.993c-.362,0-.724.005-1.087,0a.945.945,0,0,1-.989-.946c-.019-.758-.02-1.517,0-2.274a.934.934,0,0,1,.971-.927q1.1-.013,2.207,0a.918.918,0,0,1,.963.927q.025,1.137,0,2.275a.927.927,0,0,1-.982.945C-234.336,735-234.7,734.993-235.061,734.993Zm1.054-2.018c0-.351,0-.644,0-.937,0-.128-.032-.179-.169-.178q-.881.009-1.761,0c-.15,0-.192.049-.19.195q.011.864,0,1.727c0,.146.04.2.19.195.293-.009.587,0,.88,0,.337,0,.788.116.98-.054C-233.855,733.723-234.039,733.262-234.007,732.974Z" transform="translate(240.414 -713.486)" fill="#030303"/>
      <path id="Trazado_632221" data-name="Trazado 632221" d="M-197.819,732.889c0-.373-.011-.747,0-1.12a.924.924,0,0,1,.931-.926q1.137-.018,2.275,0a.917.917,0,0,1,.933.891c.026.78.024,1.562,0,2.342a.924.924,0,0,1-.95.91q-1.12.016-2.241,0a.937.937,0,0,1-.952-.943c0-.023,0-.045,0-.068q0-.543,0-1.086Zm2.084,1.08c.282,0,.565-.009.847,0,.168.008.208-.055.205-.213q-.013-.846,0-1.693c0-.16-.042-.214-.207-.212-.564.009-1.129.011-1.694,0-.185,0-.224.06-.221.231q.015.83,0,1.66c0,.174.039.239.223.229C-196.3,733.958-196.018,733.969-195.736,733.969Z" transform="translate(206.442 -713.482)" fill="#020303"/>
      <path id="Trazado_632222" data-name="Trazado 632222" d="M-197.825,769.813c0-.373-.01-.747,0-1.12a.927.927,0,0,1,.954-.938c.736-.01,1.471-.008,2.207,0a.937.937,0,0,1,.985.947q.026,1.12,0,2.24a.943.943,0,0,1-.976.959q-1.1.014-2.207,0a.937.937,0,0,1-.964-.966C-197.834,770.56-197.826,770.186-197.825,769.813Zm3.134-.012c0-.26-.009-.52,0-.779.008-.177-.024-.261-.232-.256-.553.015-1.107.011-1.66,0-.172,0-.234.039-.23.222.012.553.009,1.107,0,1.66,0,.161.018.242.213.238q.846-.02,1.694,0c.2,0,.219-.078.213-.239C-194.7,770.366-194.692,770.083-194.692,769.8Z" transform="translate(206.447 -745.369)" fill="#020303"/>
      <path id="Trazado_632223" data-name="Trazado 632223" d="M-214.193,680.515c0,.34.008.68,0,1.019-.006.17.034.23.221.235.359.009.558.206.559.5a.5.5,0,0,1-.553.508c-.179.005-.236.055-.227.231a5.607,5.607,0,0,1,0,.713.49.49,0,0,1-.528.5.482.482,0,0,1-.482-.507,3.964,3.964,0,0,1,0-.645c.026-.251-.078-.3-.3-.29-.43.017-.861.011-1.291,0a.515.515,0,0,1-.477-.834c.572-.948,1.155-1.89,1.741-2.829a.7.7,0,0,1,.839-.347.716.716,0,0,1,.506.723c.011.339,0,.679,0,1.019Zm-1.79,1.251c.225,0,.383-.009.539,0s.247-.028.238-.218c-.015-.307,0-.615,0-.922l-.065-.016Z" transform="translate(223.345 -668.481)" fill="#040404"/>
      <path id="Trazado_632224" data-name="Trazado 632224" d="M-240.5,683.675c.436,0,.806,0,1.176,0s.594.194.6.5-.209.515-.577.517c-.69.005-1.38,0-2.071,0a.576.576,0,0,1-.565-.3.553.553,0,0,1,.089-.631c.485-.668.975-1.331,1.46-2a2.747,2.747,0,0,0,.412-.736.583.583,0,0,0-.331-.753.617.617,0,0,0-.795.325c-.023.051-.029.109-.05.161a.5.5,0,0,1-.642.341.512.512,0,0,1-.337-.65,1.641,1.641,0,0,1,2.423-1.017,1.581,1.581,0,0,1,.7,1.9,7.049,7.049,0,0,1-1.035,1.7C-240.176,683.235-240.319,683.423-240.5,683.675Z" transform="translate(244.733 -668.891)" fill="#040404"/>
      <path id="Trazado_632225" data-name="Trazado 632225" d="M-154.183,681.145h-1.182c-.136,0-.272.005-.407,0a.5.5,0,0,1-.536-.494.487.487,0,0,1,.508-.521c.8-.016,1.608-.022,2.411,0a.5.5,0,0,1,.45.75q-.932,2.16-1.891,4.309a.506.506,0,0,1-.691.3.516.516,0,0,1-.231-.744c.478-1.1.962-2.19,1.442-3.285C-154.27,681.371-154.236,681.278-154.183,681.145Z" transform="translate(170.581 -669.668)" fill="#050505"/>
      <path id="Trazado_632226" data-name="Trazado 632226" d="M-180.345,680.757a2.028,2.028,0,0,1-.06.208q-.853,2.153-1.709,4.305a.5.5,0,0,1-.543.367.488.488,0,0,1-.44-.365.455.455,0,0,1,.019-.33q.866-2.184,1.735-4.367a.481.481,0,0,1,.595-.323A.511.511,0,0,1-180.345,680.757Z" transform="translate(193.741 -669.774)" fill="#050505"/>
    </g>
  </g>
</svg>
