<svg xmlns="http://www.w3.org/2000/svg" width="73" height="73" viewBox="0 0 73 73">
  <g id="Grupo_957404" data-name="Grupo 957404" transform="translate(-202 -7053)">
    <rect id="Rectángulo_307000" data-name="Rectángulo 307000" width="73" height="73" transform="translate(202 7053)" fill="none"/>
    <g id="Grupo_957407" data-name="Grupo 957407" transform="translate(-183.746 6382.1)">
      <path id="Trazado_632364" data-name="Trazado 632364" d="M439.985,737.024c.054-.939.054-.947,1.012-.937a14.5,14.5,0,0,1,2.71.086,4.644,4.644,0,0,1,3.77,4.59c.018,3.263,0,6.526.005,9.789q0,10.241,0,20.483c0,.237-.159.55.35.566,2.69.088,3.83,1.587,3.233,4.2a6.546,6.546,0,0,1-6.4,5.145q-22.437.011-44.874,0a6.548,6.548,0,0,1-6.535-6.266,2.824,2.824,0,0,1,2.922-3.089c.808-.023.808-.023.808-.838q0-14.909,0-29.819a4.65,4.65,0,0,1,3.775-4.755,21.407,21.407,0,0,1,3.445-.094c.2-.005.266.07.26.264-.008.225.01.451.017.677a1.764,1.764,0,0,0-.016.394c.086.476-.149.556-.562.535-.6-.031-1.21.031-1.81-.015a2.976,2.976,0,0,0-3.253,3.24c.048,9.92.027,19.84.007,29.76,0,.566.162.663.688.663q22.69-.023,45.38,0c.606,0,.687-.187.686-.722q-.023-14.823-.012-29.647c0-.207,0-.415-.012-.622a2.785,2.785,0,0,0-2.767-2.665c-.622-.017-1.245,0-1.867,0C440.039,737.945,440.039,737.945,439.985,737.024Zm-24.253,42.04q8.121,0,16.241.009c.441,0,.585-.111.567-.563-.035-.923,0-1.848-.015-2.772,0-.266.036-.418.362-.415q2.433.019,4.867,0c.3,0,.392.11.385.4-.015.66,0,1.32,0,1.98,0,1.393,0,1.38,1.4,1.371.365,0,.491-.094.481-.473-.025-.961,0-1.924-.014-2.885,0-.294.09-.392.386-.39,1.6.011,3.207.016,4.81,0,.377,0,.432.161.427.476-.014.886.009,1.773-.011,2.659-.01.419.093.524.518.386a4.684,4.684,0,0,0,3.19-4.071c.061-.979-.238-1.3-1.233-1.3-5.923,0-11.846.007-17.769-.013-.506,0-.619.129-.613.621a2.821,2.821,0,0,1-3.152,3.131q-4.3,0-8.6,0a2.826,2.826,0,0,1-3.174-3.165c0-.475-.122-.586-.59-.585-5.9.017-11.808.011-17.712.011-1.109,0-1.389.3-1.3,1.387a3.751,3.751,0,0,0,.084.557A4.636,4.636,0,0,0,400,779.062Q407.866,779.073,415.732,779.064Zm6.5-5.591c-1.715,0-3.43,0-5.145,0-.161,0-.372-.1-.447.194a1.194,1.194,0,0,0,1.292,1.659q4.268,0,8.537,0c1.14,0,1.386-.27,1.391-1.4,0-.383-.125-.468-.483-.464C425.658,773.483,423.943,773.474,422.228,773.474Zm13.141,5.593c.9,0,.9,0,.9-.874,0-.981,0-.981-1.005-.981-.879,0-.879,0-.879.888C434.384,779.067,434.384,779.067,435.369,779.067Zm7.425,0c.95,0,.95,0,.95-.874,0-.98,0-.98-1-.98-.877,0-.877,0-.877.89C441.864,779.067,441.864,779.067,442.794,779.067Z" transform="translate(0 -44.567)" fill="#040404"/>
      <path id="Trazado_632365" data-name="Trazado 632365" d="M459.037,740.314c.054.921.054.921.974.921.622,0,1.245-.013,1.867,0a2.785,2.785,0,0,1,2.767,2.665c.013.207.012.415.012.622q0,14.823.012,29.647c0,.535-.08.723-.686.722q-22.69-.031-45.38,0c-.526,0-.689-.1-.688-.663.02-9.92.041-19.84-.007-29.76a2.976,2.976,0,0,1,3.253-3.24c.6.046,1.208-.016,1.81.015.413.021.648-.059.562-.535a1.764,1.764,0,0,1,.016-.394l1.838,0c.057.918.057.918.977.918,2.636,0,5.271.006,7.907-.008.353,0,.5.069.478.457-.037.789-.024,1.58-.032,2.37h-1.8c-.072-.933-.072-.933-1.041-.933q-4.979,0-9.958,0a1.887,1.887,0,0,0-2.129,2.115q0,12.813,0,25.627a1.917,1.917,0,0,0,2.154,2.164q19.349,0,38.7,0a1.919,1.919,0,0,0,2.155-2.163q0-12.814,0-25.627a1.888,1.888,0,0,0-2.129-2.116q-4.979,0-9.958,0c-.97,0-.97,0-1.041.933h-1.8c-.008-.771.012-1.544-.034-2.313-.027-.443.131-.519.537-.516,2.617.018,5.234.01,7.85.01.921,0,.921,0,.977-.918Z" transform="translate(-19.051 -47.857)" fill="#cbcfd6"/>
      <path id="Trazado_632366" data-name="Trazado 632366" d="M444.253,696.2c.008-.79-.005-1.581.032-2.37.018-.388-.125-.459-.478-.457-2.636.014-5.271.008-7.907.008-.92,0-.92,0-.977-.918.007-1.432,0-2.865.029-4.3.007-.365-.169-.385-.449-.383-1.245.009-2.49-.007-3.734.011-.365.005-.529-.052-.526-.482q.03-4.214,0-8.429c0-.382.114-.462.475-.461q5.149.02,10.3,0c.367,0,.471.089.469.463q-.024,4.214,0,8.429c0,.423-.152.488-.521.482-1.244-.02-2.49.005-3.734-.016-.352-.006-.447.1-.438.443.024.942.031,1.886,0,2.828-.015.419.144.483.515.481,2.716-.014,5.432.012,8.147-.023.593-.007.819.151.717.734a.816.816,0,0,0,.023.223q0,1.868,0,3.735-.013,3.053-.024,6.107c0,1.374,0,1.356-1.372,1.376-.421.006-.534-.1-.531-.527C444.28,700.839,444.261,698.521,444.253,696.2Zm-8.417-10.3c1.113,0,2.226-.012,3.339.007.332.006.455-.061.449-.428q-.033-2.376,0-4.753c0-.366-.123-.434-.454-.432q-3.282.02-6.564,0c-.365,0-.478.09-.473.466.021,1.565.023,3.131,0,4.7-.006.393.132.459.48.452C433.686,685.894,434.761,685.906,435.837,685.906Z" transform="translate(-28.589 -0.006)" fill="#040404"/>
      <path id="Trazado_632367" data-name="Trazado 632367" d="M552.712,692.464c-.057.918-.057.918-.978.918-2.617,0-5.234.009-7.85-.009-.406,0-.564.073-.537.516.046.769.026,1.542.034,2.313q-.011,3.082-.022,6.164c0,1.311,0,1.29-1.312,1.319-.465.01-.6-.108-.592-.584.019-2.3,0-4.6-.013-6.9v-3.735c.069-.942.069-.942,1.022-.942,2.584,0,5.168-.018,7.751.015.541.007.65-.165.629-.658-.038-.884-.028-1.773,0-2.658.01-.347-.086-.449-.437-.443-1.244.021-2.489,0-3.734.016-.369.006-.525-.058-.522-.481q.029-4.214,0-8.429c0-.374.1-.464.469-.463q5.148.022,10.3,0c.361,0,.478.078.476.461q-.026,4.214,0,8.429c0,.429-.16.488-.526.482-1.244-.019-2.489,0-3.734-.011-.28,0-.456.017-.45.382C552.709,689.6,552.705,691.032,552.712,692.464Zm-.973-6.558c1.113,0,2.226-.009,3.339.006.3,0,.426-.052.423-.393q-.027-2.4,0-4.81c0-.323-.094-.411-.413-.409q-3.311.019-6.621,0c-.329,0-.461.062-.456.43q.032,2.376,0,4.753c0,.365.113.436.448.43C549.551,685.893,550.646,685.906,551.74,685.906Z" transform="translate(-114.565 -0.005)" fill="#040404"/>
      <path id="Trazado_632368" data-name="Trazado 632368" d="M500.867,692.455c.008-1.432,0-2.864.032-4.3.007-.37-.174-.38-.449-.378-1.225.008-2.451-.011-3.676.012-.414.008-.588-.061-.584-.543q.039-4.156,0-8.314c0-.439.125-.521.536-.519q5.091.026,10.181,0c.411,0,.54.079.536.518q-.034,4.156,0,8.314c0,.482-.169.551-.584.543-1.225-.023-2.451,0-3.677-.012-.274,0-.456.007-.449.378.027,1.432.024,2.864.032,4.3V696.2q-.012,3.077-.024,6.155c0,1.328,0,1.305-1.351,1.331-.448.008-.514-.14-.512-.54.011-2.315-.007-4.63-.015-6.946Zm.948-12.152c-1.111,0-2.222.012-3.333-.007-.324-.006-.411.093-.408.411q.023,2.4,0,4.8c0,.329.1.4.413.4q3.332-.019,6.665,0c.317,0,.411-.083.408-.4q-.024-2.4,0-4.8c0-.325-.1-.411-.413-.406C504.037,680.314,502.926,680.3,501.815,680.3Z" transform="translate(-79.577 0)" fill="#050505"/>
      <path id="Trazado_632369" data-name="Trazado 632369" d="M504.245,740.3v3.741h-3.686q0-1.868,0-3.735Z" transform="translate(-82.955 -47.847)" fill="#caced4"/>
      <path id="Trazado_632370" data-name="Trazado 632370" d="M525.192,744.043V740.3l3.686.008v3.735Z" transform="translate(-102 -47.847)" fill="#caced4"/>
      <path id="Trazado_632371" data-name="Trazado 632371" d="M422.174,906.549q-7.866,0-15.732,0A4.636,4.636,0,0,1,401.7,902.9a3.743,3.743,0,0,1-.084-.557c-.085-1.091.195-1.387,1.3-1.387,5.9,0,11.808.006,17.712-.011.468,0,.595.11.59.585a2.826,2.826,0,0,0,3.174,3.165q4.3,0,8.6,0a2.821,2.821,0,0,0,3.152-3.131c-.006-.491.107-.622.613-.621,5.923.02,11.846.012,17.769.013,1,0,1.294.318,1.233,1.3a4.684,4.684,0,0,1-3.19,4.071c-.425.138-.528.033-.518-.386.021-.886,0-1.773.011-2.659,0-.315-.049-.481-.427-.476-1.6.018-3.207.014-4.81,0-.3,0-.391.1-.386.39.015.962-.012,1.924.014,2.885.01.379-.116.471-.481.473-1.4.009-1.4.021-1.4-1.371,0-.66-.01-1.321,0-1.981.006-.288-.083-.4-.385-.4q-2.434.017-4.867,0c-.326,0-.365.149-.362.415.01.924-.021,1.849.015,2.772.017.452-.127.564-.567.563Q430.294,906.537,422.174,906.549Z" transform="translate(-6.442 -172.052)" fill="#969ea8"/>
      <path id="Trazado_632372" data-name="Trazado 632372" d="M501.651,900.963c1.715,0,3.43.009,5.145-.007.357,0,.484.081.483.464,0,1.131-.25,1.4-1.391,1.4q-4.268,0-8.537,0a1.194,1.194,0,0,1-1.292-1.659c.075-.294.286-.193.447-.194C498.221,900.96,499.936,900.963,501.651,900.963Z" transform="translate(-79.423 -172.056)" fill="#ec8773"/>
      <path id="Trazado_632373" data-name="Trazado 632373" d="M575.521,919.339c-.984,0-.984,0-.984-.966,0-.888,0-.888.879-.888,1.005,0,1.005,0,1.005.981C576.421,919.34,576.421,919.34,575.521,919.339Z" transform="translate(-140.152 -184.839)" fill="#ec8773"/>
      <path id="Trazado_632374" data-name="Trazado 632374" d="M608.442,919.339c-.93,0-.93,0-.93-.965,0-.89,0-.89.877-.89,1,0,1,0,1,.98C609.392,919.339,609.392,919.339,608.442,919.339Z" transform="translate(-165.648 -184.839)" fill="#ec8773"/>
      <path id="Trazado_632375" data-name="Trazado 632375" d="M455.039,756.8h3.686c.008,2.3.032,4.6.013,6.9,0,.476.126.595.592.584,1.311-.029,1.309-.008,1.312-1.319q.008-3.082.022-6.164h1.8c.069.916.069.916,1,.916,3.225,0,6.451.011,9.676-.012.477,0,.587.129.585.593-.019,4.017-.011,8.034-.011,12.051,0,4.338-.006,8.675.009,13.013,0,.412-.088.556-.525.538-.885-.036-1.773-.032-2.659,0-.431.015-.585-.09-.575-.554.032-1.452,0-2.9.019-4.356,0-.339-.089-.5-.431-.591-.6-.156-1.186-.367-1.775-.562a4.185,4.185,0,0,1-1.1-2.409c.043-.1.1-.2.155-.3.268-.518.521-1.045.809-1.551a.4.4,0,0,0-.1-.575q-2.212-2.19-4.4-4.4a.437.437,0,0,0-.621-.106c-.558.311-1.137.586-1.7.887a.625.625,0,0,1-.579.068c-1.834-.716-1.836-.711-2.431-2.582-.04-.125-.089-.249-.117-.377-.062-.29-.234-.366-.524-.365-2.056.012-4.112.016-6.168,0a.477.477,0,0,0-.54.421c-.179.614-.384,1.22-.575,1.831a.585.585,0,0,1-.34.411c-1.811.8-1.81.8-3.6-.134a3.3,3.3,0,0,1-.3-.161.39.39,0,0,0-.578.071q-2.2,2.236-4.44,4.442a.4.4,0,0,0-.094.574c.321.575.6,1.17.912,1.753a.572.572,0,0,1,.066.522c-.7,1.855-.693,1.857-2.62,2.464a1.622,1.622,0,0,1-.267.089c-.354.045-.437.246-.433.585.018,1.452-.012,2.9.019,4.356.01.464-.144.569-.575.554-.885-.031-1.774-.035-2.659,0-.436.018-.525-.125-.525-.538q.018-12.56,0-25.121c0-.417.094-.538.526-.536,3.244.02,6.488.011,9.733.011.928,0,.928,0,1-.916h1.8c.008,2.318.027,4.637.012,6.955,0,.428.11.533.531.527,1.371-.02,1.368,0,1.372-1.375q.008-3.053.024-6.107h3.686c.008,2.315.026,4.631.015,6.946,0,.4.065.548.512.54,1.35-.025,1.347,0,1.351-1.331Q455.023,759.872,455.039,756.8Z" transform="translate(-31.847 -60.599)" fill="#83d2ee"/>
      <path id="Trazado_632376" data-name="Trazado 632376" d="M439.326,753.618c-.069.916-.069.916-1,.916-3.244,0-6.488.009-9.733-.011-.433,0-.527.119-.526.536q.019,12.56,0,25.121c0,.412.088.556.525.538.885-.036,1.773-.032,2.659,0,.431.015.585-.09.575-.554-.032-1.451,0-2.9-.019-4.356,0-.339.078-.54.433-.585a1.63,1.63,0,0,0,.267-.089c1.927-.607,1.923-.609,2.62-2.464a.572.572,0,0,0-.066-.522c-.307-.583-.591-1.177-.912-1.753a.4.4,0,0,1,.094-.574q2.232-2.209,4.44-4.442a.39.39,0,0,1,.578-.071,3.277,3.277,0,0,0,.3.161c1.792.935,1.79.931,3.6.134a.585.585,0,0,0,.34-.411c.191-.61.4-1.216.575-1.831a.477.477,0,0,1,.54-.421c2.056.019,4.112.015,6.168,0,.291,0,.462.074.524.365.027.128.077.252.117.377.594,1.871.6,1.866,2.431,2.582a.624.624,0,0,0,.579-.068c.565-.3,1.143-.576,1.7-.887a.437.437,0,0,1,.621.106q2.186,2.215,4.4,4.4a.4.4,0,0,1,.1.575c-.288.507-.541,1.033-.809,1.551-.052.1-.112.2-.155.3a4.185,4.185,0,0,0,1.1,2.409c.589.195,1.175.405,1.775.562.342.089.435.252.431.591-.018,1.452.012,2.9-.019,4.356-.01.464.144.569.575.554.885-.031,1.774-.035,2.659,0,.436.018.526-.125.525-.538-.015-4.338-.009-8.675-.009-13.013,0-4.017-.008-8.034.011-12.051,0-.465-.108-.6-.585-.593-3.225.022-6.451.012-9.676.012-.927,0-.927,0-1-.916.072-.933.072-.933,1.041-.933q4.979,0,9.958,0a1.888,1.888,0,0,1,2.129,2.116q0,12.813,0,25.627a1.919,1.919,0,0,1-2.155,2.163q-19.35,0-38.7,0a1.917,1.917,0,0,1-2.154-2.164q0-12.814,0-25.627a1.887,1.887,0,0,1,2.129-2.115q4.979,0,9.958,0C439.254,752.684,439.254,752.684,439.326,753.618Zm22.4,25.092c0-.038,0-.075,0-.113-.026-.618.24-1.387-.1-1.812-.315-.4-1.078-.454-1.657-.614a.744.744,0,0,1-.59-.578,5.278,5.278,0,0,0-.549-1.534,2.5,2.5,0,0,1,.088-3.254c.226-.289.1-.485-.131-.71-.668-.639-1.312-1.3-1.965-1.956-.708-.708-.746-.768-1.6-.23a1.739,1.739,0,0,1-2.237.015,1.811,1.811,0,0,0-.822-.358,2.4,2.4,0,0,1-2.222-2.359c-.04-.327-.237-.4-.55-.39-.962.022-1.924.008-2.886.008-.93,0-.985-.013-1.192.871-.22.938-.633,1.591-1.665,1.716a1.577,1.577,0,0,0-.734.279,2.455,2.455,0,0,1-3.294-.086c-.24-.186-.412-.124-.618.088-.747.773-1.493,1.55-2.285,2.276-.378.346-.444.622-.146,1.037a2.058,2.058,0,0,1,.088,2.784,1.339,1.339,0,0,0-.184.41c-.215.6-.267,1.368-.678,1.759a4.913,4.913,0,0,1-1.832.663c-.193.063-.31.144-.306.39.015,1.113.013,2.225,0,3.338,0,.267.079.364.352.361q1.585-.018,3.169,0c.3,0,.39-.084.34-.39a9.735,9.735,0,0,1,0-3.043,10.289,10.289,0,0,1,19.681-2.331,9.863,9.863,0,0,1,.665,5.317c-.054.356.033.456.393.449,1.018-.022,2.037-.019,3.055,0,.326.006.424-.1.41-.42C461.714,779.766,461.73,779.238,461.73,778.709Zm-9.707,2c1.211,0,2.378-.01,3.545.006.367,0,.364-.231.407-.477a8.395,8.395,0,1,0-16.556-.006c.066.384.206.495.579.485.961-.023,1.924-.033,2.885,0,.482.018.494-.108.362-.525a4.6,4.6,0,0,1,1.706-5.119,4.686,4.686,0,0,1,5.355-.1C452.131,776.206,452.749,778.209,452.022,780.707Zm-4.351,0c.565,0,1.132-.018,1.7.007a.7.7,0,0,0,.689-.37,2.794,2.794,0,1,0-4.77-.1.775.775,0,0,0,.8.474C446.614,780.677,447.143,780.707,447.671,780.707Z" transform="translate(-25.461 -57.421)" fill="#030403"/>
      <path id="Trazado_632377" data-name="Trazado 632377" d="M442.276,692.3c-1.075,0-2.151-.013-3.225.007-.348.007-.486-.059-.48-.452.025-1.565.022-3.131,0-4.7-.005-.376.108-.469.473-.466q3.282.025,6.564,0c.331,0,.459.066.454.432q-.031,2.376,0,4.753c.005.367-.117.434-.449.428C444.5,692.287,443.389,692.3,442.276,692.3Zm.022-1.856h.451c1.473,0,1.463,0,1.436-1.475-.006-.308-.071-.428-.4-.415-.657.026-1.316.008-1.974.008-1.429,0-1.42,0-1.386,1.462.007.31.08.441.41.426C441.32,690.426,441.809,690.443,442.3,690.443Z" transform="translate(-35.028 -6.398)" fill="#e9cfb5"/>
      <path id="Trazado_632378" data-name="Trazado 632378" d="M574.125,692.3c-1.094,0-2.188-.012-3.282.007-.335.006-.453-.065-.448-.43q.033-2.376,0-4.753c0-.368.127-.432.456-.43q3.31.019,6.621,0c.319,0,.416.086.413.409q-.023,2.4,0,4.81c0,.341-.123.4-.423.393C576.351,692.3,575.238,692.3,574.125,692.3Zm.045-1.856h.451c1.473,0,1.465,0,1.416-1.5-.01-.288-.078-.4-.38-.388-.752.019-1.5.006-2.256.006-1.12,0-1.12,0-1.12,1.093,0,.789,0,.789.761.789Z" transform="translate(-136.95 -6.403)" fill="#e9cfb5"/>
      <path id="Trazado_632379" data-name="Trazado 632379" d="M508.24,686.706c1.111,0,2.222.011,3.332-.007.318-.005.416.081.413.406q-.024,2.4,0,4.8c0,.321-.091.406-.408.4q-3.333-.019-6.665,0c-.31,0-.417-.071-.413-.4q.025-2.4,0-4.8c0-.318.084-.417.408-.411C506.018,686.719,507.129,686.706,508.24,686.706Zm0,3.742h.451c1.528,0,1.52,0,1.432-1.541-.015-.273-.1-.353-.362-.347-.658.015-1.316.005-1.974.005-1.536,0-1.529,0-1.432,1.528.017.264.092.367.362.359C507.227,690.438,507.735,690.449,508.243,690.449Z" transform="translate(-86.001 -6.403)" fill="#ead0b6"/>
      <path id="Trazado_632380" data-name="Trazado 632380" d="M487.193,820.064c0,.528-.016,1.057.006,1.584.014.316-.084.426-.41.42-1.018-.018-2.037-.021-3.055,0-.36.008-.447-.092-.393-.449a9.862,9.862,0,0,0-.665-5.317,10.289,10.289,0,0,0-19.681,2.331,9.733,9.733,0,0,0,0,3.042c.05.306-.037.394-.34.39q-1.584-.02-3.169,0c-.274,0-.355-.094-.352-.361.012-1.113.014-2.226,0-3.338,0-.245.113-.327.306-.39a4.912,4.912,0,0,0,1.832-.663c.412-.39.464-1.158.678-1.759a1.339,1.339,0,0,1,.184-.41,2.058,2.058,0,0,0-.088-2.784c-.3-.415-.232-.691.146-1.037.792-.725,1.538-1.5,2.285-2.276.206-.213.378-.274.618-.088a2.455,2.455,0,0,0,3.294.086,1.577,1.577,0,0,1,.734-.279c1.031-.125,1.445-.778,1.665-1.716.207-.884.262-.871,1.192-.871.962,0,1.924.014,2.886-.008.313-.007.51.063.55.39a2.4,2.4,0,0,0,2.222,2.36,1.81,1.81,0,0,1,.823.358,1.739,1.739,0,0,0,2.237-.015c.851-.538.889-.478,1.6.23.653.654,1.3,1.317,1.965,1.956.235.225.357.421.131.71a2.5,2.5,0,0,0-.088,3.254,5.28,5.28,0,0,1,.549,1.534.744.744,0,0,0,.59.578c.579.16,1.342.218,1.657.614.338.425.072,1.194.1,1.812C487.195,819.988,487.193,820.026,487.193,820.064Z" transform="translate(-50.924 -98.775)" fill="#f4c54e"/>
      <path id="Trazado_632381" data-name="Trazado 632381" d="M496.669,841.232c.726-2.5.109-4.5-1.716-5.738a4.686,4.686,0,0,0-5.355.1,4.6,4.6,0,0,0-1.706,5.119c.132.417.119.543-.362.525-.961-.036-1.924-.026-2.885,0-.373.009-.513-.1-.579-.485a8.395,8.395,0,1,1,16.556.006c-.043.246-.04.482-.407.477C499.047,841.222,497.88,841.232,496.669,841.232Z" transform="translate(-70.107 -117.945)" fill="#f3d57e"/>
      <path id="Trazado_632382" data-name="Trazado 632382" d="M511.431,860.314c-.528,0-1.057-.03-1.582.01a.775.775,0,0,1-.8-.474,2.794,2.794,0,1,1,4.77.1.7.7,0,0,1-.689.37C512.563,860.3,512,860.314,511.431,860.314Z" transform="translate(-89.221 -137.028)" fill="#82d1ed"/>
      <path id="Trazado_632383" data-name="Trazado 632383" d="M448.579,696.783c-.489,0-.978-.017-1.466.006-.33.015-.4-.115-.41-.426-.033-1.463-.043-1.462,1.386-1.462.658,0,1.317.018,1.974-.008.332-.013.4.107.4.415.028,1.476.037,1.475-1.436,1.475Z" transform="translate(-41.308 -12.738)" fill="#090807"/>
      <path id="Trazado_632384" data-name="Trazado 632384" d="M580.6,696.789h-1.128c-.761,0-.761,0-.761-.789,0-1.093,0-1.093,1.12-1.093.752,0,1.5.013,2.256-.006.3-.008.371.1.38.388.049,1.5.058,1.5-1.416,1.5Z" transform="translate(-143.38 -12.744)" fill="#090807"/>
      <path id="Trazado_632385" data-name="Trazado 632385" d="M514.459,696.793c-.508,0-1.016-.011-1.523,0-.27.008-.345-.095-.362-.359-.1-1.529-.1-1.528,1.432-1.528.658,0,1.316.01,1.974,0,.265-.006.347.074.362.347.088,1.542.1,1.541-1.432,1.541Z" transform="translate(-92.217 -12.748)" fill="#090807"/>
    </g>
  </g>
</svg>
