<svg xmlns="http://www.w3.org/2000/svg" width="73" height="73" viewBox="0 0 73 73">
  <g id="Grupo_957400" data-name="Grupo 957400" transform="translate(-202 -7053)">
    <rect id="Rectángulo_307000" data-name="Rectángulo 307000" width="73" height="73" transform="translate(202 7053)" fill="none"/>
    <g id="Grupo_957401" data-name="Grupo 957401" transform="translate(879.488 7035.01)">
      <path id="Trazado_632311" data-name="Trazado 632311" d="M-638.674,61.3h-19.791c-1.17,0-1.55-.377-1.55-1.539,0-5.265-.01-10.53.014-15.794,0-.528-.179-.58-.626-.585s-.616.113-.571.577a8.5,8.5,0,0,1,0,1.29,1.129,1.129,0,0,1-1.127,1.126q-3.788.027-7.576,0a1.138,1.138,0,0,1-1.152-1.222c-.015-1.018,0-2.035,0-3.053q0-8.073,0-16.146c0-1.136.386-1.529,1.5-1.529q3.435,0,6.871,0c1.088,0,1.489.4,1.493,1.481,0,.868,0,.868.9.868,5.638,0,11.275.017,16.913-.008a15.77,15.77,0,0,1,7.7,1.927c5.152,2.781,10.32,5.534,15.471,8.318a2.925,2.925,0,0,0,1.507.337c1.016-.016,1.442.408,1.443,1.4q0,10.568,0,21.137c0,1-.428,1.409-1.445,1.409Q-628.69,61.3-638.674,61.3Zm2.55-17.194c-.04-.042-.084-.075-.128-.009,0,.007.042.047.065.072a3.836,3.836,0,0,1-.069,3.809c-.176.294.031.417.178.59a3.116,3.116,0,0,1-.984,4.945,1.028,1.028,0,0,0-.569.595,1.094,1.094,0,0,1-1.962.236c-.28-.585-.748-.788-1.184-1.111a3.323,3.323,0,0,1-.526-.464,1.156,1.156,0,0,1-.017-1.639,1.166,1.166,0,0,1,1.64-.044,1.865,1.865,0,0,0,.574.4,1.153,1.153,0,0,0,1.246-.269.653.653,0,0,0,.2-.794,1.09,1.09,0,0,0-1.042-.629,2.225,2.225,0,0,0-.293-.007,4.736,4.736,0,0,1-2.386-.478c-.879-.379-1.767-.737-2.648-1.11-.269-.114-.43-.106-.479.245a5.85,5.85,0,0,0,5.433,6.737,5.816,5.816,0,0,0,6.167-6.747A5.41,5.41,0,0,0-636.123,44.107Zm-2.523,14.845q6.693,0,13.385.007c.373,0,.565-.054.684-.474a6.192,6.192,0,0,1,4.5-4.5c.366-.1.478-.24.475-.625q-.03-4.02,0-8.041a.563.563,0,0,0-.5-.668,6.14,6.14,0,0,1-4.465-4.463c-.13-.46-.341-.5-.726-.5q-8.219.013-16.438.006c-.1,0-.2,0-.294,0-.115,0-.255-.021-.31.108-.075.175.084.243.193.309.5.3,1.019.582,1.509.9a1.136,1.136,0,0,0,.885.183,7.158,7.158,0,0,1,2.967.143,8.237,8.237,0,0,1,6.237,9.038,8.245,8.245,0,0,1-7.963,7.167,8.2,8.2,0,0,1-8.211-9.986c.079-.387-.012-.5-.338-.629-1.233-.492-2.461-1-3.677-1.529a23.979,23.979,0,0,0-6.164-1.807c-.77-.113-.77-.114-.77.591,0,3.032.006,6.065-.007,9.1,0,.394.061.593.508.72a6.147,6.147,0,0,1,4.462,4.467c.115.4.277.494.672.493C-647.57,58.946-643.108,58.952-638.647,58.952Zm14.016-21.607c-.165-.12-.207-.158-.256-.184q-6.142-3.295-12.286-6.585a12.351,12.351,0,0,0-5.915-1.452q-8.778.006-17.555-.008c-.41,0-.563.057-.56.526q.035,5.43,0,10.859c0,.495.165.569.6.56a25.783,25.783,0,0,1,5.484.461,40.134,40.134,0,0,1,7.66,2.7q3.65,1.515,7.294,3.042a1.424,1.424,0,0,0,1.638-.183,1.369,1.369,0,0,0-.305-2.267c-1.468-.894-2.951-1.764-4.43-2.64a2.929,2.929,0,0,1-1.012-.872,2.407,2.407,0,0,1-.189-2.556,2.447,2.447,0,0,1,2.329-1.4q6.136,0,12.271,0ZM-663.539,35.4c0-2.717-.008-5.434.009-8.152,0-.382-.1-.492-.484-.486-1.407.023-2.816.017-4.223,0-.324,0-.48.032-.479.43q.022,8.21,0,16.42c0,.332.089.43.424.426,1.407-.018,2.816-.028,4.223,0,.452.011.541-.126.538-.553C-663.549,40.8-663.539,38.1-663.539,35.4Zm42.584,23.549c.292,0,.586-.018.876,0,.335.026.5-.053.478-.44a17.185,17.185,0,0,1,0-1.752c.023-.5-.2-.451-.521-.293a4.205,4.205,0,0,0-1.956,1.935c-.218.428-.13.6.366.55A7.353,7.353,0,0,1-620.955,58.952Zm-35.419,0c.312,0,.624-.016.934,0,.389.025.432-.136.287-.447a4,4,0,0,0-1.647-1.841c-.246-.141-.524-.412-.788-.259-.2.117-.056.467-.076.712-.014.174,0,.35,0,.525C-657.666,58.952-657.666,58.952-656.374,58.952Zm36.764-17.926c0-.311-.016-.624,0-.934s-.077-.416-.392-.4c-.622.021-1.246.018-1.868,0-.36-.009-.392.13-.264.418a4.06,4.06,0,0,0,2.039,2.074c.408.194.518.072.485-.338C-619.627,41.572-619.609,41.3-619.61,41.026Z" fill="#010101"/>
      <path id="Trazado_632312" data-name="Trazado 632312" d="M-626.87,197.625a4.163,4.163,0,0,1-.077-2.758,3.679,3.679,0,0,1,1.882-2.3c3.16-1.483,6.287-3.059,9.559-4.274a14.445,14.445,0,0,1,10.165.135c1.65.592,3.316,1.138,5.059,1.733,0-.758,0-1.468,0-2.178a1.2,1.2,0,0,1,1.366-1.37q3.582-.007,7.164,0a1.19,1.19,0,0,1,1.334,1.342q.005,9.629,0,19.257a1.2,1.2,0,0,1-1.38,1.358q-3.553.006-7.106,0a1.2,1.2,0,0,1-1.379-1.358c-.006-.861-.014-1.722.005-2.583.007-.326-.047-.433-.414-.372q-9.368,1.565-18.741,3.1-2.4.395-4.807.754A8.85,8.85,0,0,1-630.005,207q-6.018-3.4-11.994-6.872a4.443,4.443,0,0,1-2.062-5.149,4.5,4.5,0,0,1,4.533-3.2,4.968,4.968,0,0,1,2.11.643q4.644,2.426,9.3,4.835A2.01,2.01,0,0,0-626.87,197.625Zm26.587-.409c0-1.35-.017-2.7.011-4.05a.593.593,0,0,0-.492-.693c-1.891-.619-3.772-1.267-5.652-1.92a11.93,11.93,0,0,0-8.329-.036c-3.121,1.178-6.1,2.7-9.139,4.075a1.549,1.549,0,0,0-.842,1.073,1.648,1.648,0,0,0,.487,1.713,1.754,1.754,0,0,0,1.907.349q3.768-1.281,7.541-2.549a1.2,1.2,0,0,1,1.684.674,1.207,1.207,0,0,1-.9,1.537q-3.851,1.311-7.708,2.6a3.18,3.18,0,0,1-1.731.2,10.7,10.7,0,0,0-2.858-.168,6.012,6.012,0,0,1-3.085-.76c-3.074-1.62-6.162-3.213-9.249-4.809a2.131,2.131,0,0,0-2.989.783,2.124,2.124,0,0,0,.934,2.95q5.841,3.357,11.693,6.7a6.825,6.825,0,0,0,4.567.894q2.2-.352,4.4-.712,9.66-1.584,19.322-3.161c.358-.058.439-.181.435-.517C-600.293,199.994-600.283,198.6-600.283,197.215Zm2.35.377c0,2.718.008,5.435-.009,8.153,0,.379.093.493.481.486,1.407-.024,2.816-.017,4.224,0,.319,0,.482-.023.48-.426q-.022-8.212,0-16.423c0-.328-.086-.43-.42-.426-1.408.018-2.817.028-4.224,0-.448-.01-.544.118-.54.549C-597.923,192.2-597.933,194.894-597.933,197.593Z" transform="translate(-20.501 -124.019)" fill="#020202"/>
      <path id="Trazado_632313" data-name="Trazado 632313" d="M-595.145,108.546c-4.462,0-8.923-.005-13.385.01-.394,0-.556-.092-.672-.493a6.147,6.147,0,0,0-4.462-4.467c-.448-.127-.51-.325-.509-.72.013-3.032.007-6.065.007-9.1,0-.7,0-.7.77-.591a23.978,23.978,0,0,1,6.165,1.807c1.216.532,2.444,1.037,3.677,1.529.326.13.417.242.338.629A8.2,8.2,0,0,0-595,107.138a8.245,8.245,0,0,0,7.963-7.167,8.237,8.237,0,0,0-6.237-9.038,7.158,7.158,0,0,0-2.967-.143,1.136,1.136,0,0,1-.885-.183c-.49-.321-1.007-.6-1.509-.9-.108-.066-.268-.134-.193-.309.055-.129.2-.1.31-.108.1,0,.2,0,.294,0q8.219,0,16.438-.006c.385,0,.6.04.726.5a6.141,6.141,0,0,0,4.465,4.463.563.563,0,0,1,.5.668q-.029,4.02,0,8.041c0,.384-.109.52-.475.625a6.191,6.191,0,0,0-4.5,4.5c-.12.421-.311.475-.684.474Q-588.452,108.536-595.145,108.546Zm-12.191-8.451v0h1.173c.039,0,.078,0,.117-.005a1.186,1.186,0,0,0,1.12-1.142A1.152,1.152,0,0,0-606,97.769c-.9-.041-1.8-.043-2.7,0a1.118,1.118,0,0,0-1.047,1.193,1.135,1.135,0,0,0,1.118,1.127C-608.2,100.114-607.766,100.1-607.336,100.1Zm24.263,0c.43,0,.861.017,1.29,0a1.132,1.132,0,0,0,1.134-1.11,1.109,1.109,0,0,0-1.027-1.209,25.9,25.9,0,0,0-2.754,0,1.139,1.139,0,0,0-1.031,1.217,1.173,1.173,0,0,0,1.157,1.1C-583.894,100.112-583.483,100.1-583.073,100.1Z" transform="translate(-43.502 -49.594)" fill="#aedf6b"/>
      <path id="Trazado_632314" data-name="Trazado 632314" d="M-592.6,52.583h-5.234q-6.136,0-12.271,0a2.447,2.447,0,0,0-2.329,1.4,2.407,2.407,0,0,0,.189,2.556,2.929,2.929,0,0,0,1.012.872c1.479.876,2.961,1.746,4.43,2.64a1.369,1.369,0,0,1,.305,2.267,1.424,1.424,0,0,1-1.638.183q-3.642-1.532-7.294-3.042a40.131,40.131,0,0,0-7.66-2.7,25.782,25.782,0,0,0-5.484-.461c-.432.009-.6-.065-.6-.56q.037-5.429,0-10.859c0-.469.15-.527.56-.526q8.778.019,17.555.008a12.351,12.351,0,0,1,5.915,1.452q6.149,3.282,12.286,6.585C-592.806,52.425-592.765,52.463-592.6,52.583Zm-23.99-3.523q2,0,3.991,0c.938,0,1.505-.455,1.495-1.189-.01-.715-.566-1.158-1.466-1.158q-4.079,0-8.158,0c-.912,0-1.427.437-1.419,1.188s.524,1.158,1.448,1.159Q-618.643,49.063-616.589,49.06Zm-7.378-1.164a1.154,1.154,0,0,0-1.119-1.184,1.2,1.2,0,0,0-1.218,1.163,1.2,1.2,0,0,0,1.2,1.185A1.159,1.159,0,0,0-623.967,47.9Z" transform="translate(-32.032 -15.239)" fill="#f5cdaf"/>
      <path id="Trazado_632315" data-name="Trazado 632315" d="M-655.925,43.009c0,2.7-.01,5.4.01,8.093,0,.427-.086.564-.538.553-1.407-.033-2.816-.023-4.223,0-.335,0-.424-.094-.424-.426q.015-8.21,0-16.42c0-.4.156-.433.479-.43,1.408.014,2.816.02,4.223,0,.385-.006.486.1.484.486C-655.932,37.575-655.925,40.292-655.925,43.009Zm-2.562,4.5a1.149,1.149,0,0,0-1.2,1.167,1.192,1.192,0,0,0,1.154,1.172,1.194,1.194,0,0,0,1.2-1.186A1.148,1.148,0,0,0-658.486,47.509Z" transform="translate(-7.615 -7.606)" fill="#f0a248"/>
      <path id="Trazado_632316" data-name="Trazado 632316" d="M-550.037,108.06a5.412,5.412,0,0,1,3.213,4.324,5.816,5.816,0,0,1-6.167,6.747,5.85,5.85,0,0,1-5.433-6.738c.048-.351.21-.359.479-.245.881.373,1.769.732,2.648,1.11a4.736,4.736,0,0,0,2.386.478,2.221,2.221,0,0,1,.293.007,1.09,1.09,0,0,1,1.041.629.653.653,0,0,1-.2.794,1.154,1.154,0,0,1-1.246.269,1.865,1.865,0,0,1-.574-.4,1.166,1.166,0,0,0-1.64.044,1.156,1.156,0,0,0,.017,1.639,3.319,3.319,0,0,0,.526.464c.436.323.9.525,1.184,1.111a1.094,1.094,0,0,0,1.962-.236,1.028,1.028,0,0,1,.569-.595,3.116,3.116,0,0,0,.984-4.945c-.148-.174-.354-.3-.178-.59a3.836,3.836,0,0,0,.069-3.809C-550.079,108.1-550.058,108.082-550.037,108.06Z" transform="translate(-86.085 -63.954)" fill="#479f72"/>
      <path id="Trazado_632317" data-name="Trazado 632317" d="M-462.154,162.74a7.35,7.35,0,0,0-.759,0c-.5.052-.584-.123-.366-.55a4.206,4.206,0,0,1,1.956-1.935c.325-.157.544-.2.521.293a17.2,17.2,0,0,0,0,1.752c.021.387-.143.466-.478.44C-461.568,162.722-461.862,162.74-462.154,162.74Z" transform="translate(-158.801 -103.788)" fill="#489f72"/>
      <path id="Trazado_632318" data-name="Trazado 632318" d="M-612.945,162.74c-1.293,0-1.293,0-1.293-1.3,0-.175-.011-.351,0-.525.02-.245-.125-.6.076-.712.264-.153.542.118.788.259a4,4,0,0,1,1.647,1.841c.146.311.1.472-.287.447C-612.321,162.724-612.634,162.74-612.945,162.74Z" transform="translate(-43.428 -103.788)" fill="#489f72"/>
      <path id="Trazado_632319" data-name="Trazado 632319" d="M-460.824,90.617c0,.272-.017.546,0,.817.033.411-.077.533-.484.338a4.06,4.06,0,0,1-2.039-2.074c-.128-.288-.1-.428.264-.418.622.017,1.246.02,1.868,0,.314-.011.411.107.392.4S-460.824,90.305-460.824,90.617Z" transform="translate(-158.786 -49.591)" fill="#489f72"/>
      <path id="Trazado_632320" data-name="Trazado 632320" d="M-523.07,107.974c-.023-.025-.069-.065-.064-.072.044-.066.088-.032.128.009C-523.027,107.933-523.049,107.954-523.07,107.974Z" transform="translate(-113.116 -63.805)" fill="#479f72"/>
      <path id="Trazado_632321" data-name="Trazado 632321" d="M-592.651,207.526c0,1.389-.01,2.779.007,4.167,0,.336-.077.46-.435.517q-9.664,1.564-19.322,3.161-2.2.36-4.4.712a6.825,6.825,0,0,1-4.567-.894q-5.853-3.337-11.693-6.7a2.124,2.124,0,0,1-.934-2.95A2.131,2.131,0,0,1-631,204.76c3.087,1.6,6.175,3.188,9.249,4.809a6.012,6.012,0,0,0,3.085.76,10.7,10.7,0,0,1,2.858.168,3.18,3.18,0,0,0,1.73-.2q3.857-1.292,7.708-2.6a1.207,1.207,0,0,0,.9-1.537,1.2,1.2,0,0,0-1.684-.674q-3.773,1.267-7.541,2.549a1.754,1.754,0,0,1-1.907-.349,1.648,1.648,0,0,1-.487-1.713,1.549,1.549,0,0,1,.842-1.073c3.038-1.378,6.018-2.9,9.139-4.075a11.93,11.93,0,0,1,8.329.036c1.88.653,3.761,1.3,5.652,1.92a.593.593,0,0,1,.491.693C-592.668,204.826-592.651,206.176-592.651,207.526Z" transform="translate(-28.134 -134.33)" fill="#f5ccaf"/>
      <path id="Trazado_632322" data-name="Trazado 632322" d="M-447.456,205.195c0-2.7.01-5.4-.011-8.094,0-.431.092-.56.54-.549,1.407.032,2.816.022,4.224,0,.335,0,.421.1.421.426q-.014,8.212,0,16.423c0,.4-.161.429-.481.426-1.408-.013-2.816-.02-4.224,0-.388.006-.484-.107-.481-.486C-447.448,210.63-447.456,207.912-447.456,205.195Zm2.611-4.5a1.149,1.149,0,0,0,1.149-1.159,1.192,1.192,0,0,0-1.205-1.18,1.191,1.191,0,0,0-1.148,1.177A1.15,1.15,0,0,0-444.844,200.7Z" transform="translate(-170.979 -131.622)" fill="#69b8ef"/>
      <path id="Trazado_632323" data-name="Trazado 632323" d="M-592.95,127.576c-.43,0-.861.019-1.29,0a1.135,1.135,0,0,1-1.118-1.127,1.118,1.118,0,0,1,1.047-1.193c.9-.044,1.8-.043,2.7,0a1.152,1.152,0,0,1,1.074,1.182,1.186,1.186,0,0,1-1.12,1.142c-.039,0-.078.005-.117.005h-1.173Z" transform="translate(-57.888 -77.075)" fill="#020301"/>
      <path id="Trazado_632324" data-name="Trazado 632324" d="M-489.782,127.576c-.411,0-.822.016-1.231,0a1.173,1.173,0,0,1-1.157-1.1,1.139,1.139,0,0,1,1.031-1.217,25.905,25.905,0,0,1,2.754,0,1.109,1.109,0,0,1,1.027,1.209,1.132,1.132,0,0,1-1.134,1.11C-488.922,127.593-489.352,127.576-489.782,127.576Z" transform="translate(-136.792 -77.074)" fill="#020301"/>
      <path id="Trazado_632325" data-name="Trazado 632325" d="M-593.759,56.719q-2.054,0-4.109,0c-.925,0-1.44-.416-1.448-1.159s.507-1.187,1.419-1.188q4.079,0,8.158,0c.9,0,1.455.443,1.466,1.158.011.735-.557,1.188-1.495,1.189Q-591.764,56.721-593.759,56.719Z" transform="translate(-54.861 -22.897)" fill="#010101"/>
      <path id="Trazado_632326" data-name="Trazado 632326" d="M-614.65,55.558a1.159,1.159,0,0,1-1.141,1.164,1.2,1.2,0,0,1-1.2-1.185,1.2,1.2,0,0,1,1.218-1.163A1.154,1.154,0,0,1-614.65,55.558Z" transform="translate(-41.349 -22.9)" fill="#070605"/>
      <path id="Trazado_632327" data-name="Trazado 632327" d="M-653.881,90.2a1.148,1.148,0,0,1,1.154,1.153,1.194,1.194,0,0,1-1.2,1.186,1.192,1.192,0,0,1-1.154-1.172A1.149,1.149,0,0,1-653.881,90.2Z" transform="translate(-12.22 -50.297)" fill="#060402"/>
      <path id="Trazado_632328" data-name="Trazado 632328" d="M-440.238,206.568a1.15,1.15,0,0,1-1.2-1.162,1.191,1.191,0,0,1,1.148-1.177,1.192,1.192,0,0,1,1.205,1.18A1.149,1.149,0,0,1-440.238,206.568Z" transform="translate(-175.585 -137.492)" fill="#030506"/>
    </g>
  </g>
</svg>
