<svg xmlns="http://www.w3.org/2000/svg" width="73" height="73" viewBox="0 0 73 73">
  <g id="Grupo_957395" data-name="Grupo 957395" transform="translate(-202 -7053)">
    <rect id="Rectángulo_307000" data-name="Rectángulo 307000" width="73" height="73" transform="translate(202 7053)" fill="none"/>
    <g id="Grupo_957394" data-name="Grupo 957394" transform="translate(526.184 6695.585)">
      <path id="Trazado_632250" data-name="Trazado 632250" d="M-255.215,462.985l2.514-.006a5.606,5.606,0,0,0,5.439,3.091c3.554-.046,7.109,0,10.664-.026.611-.005.817.1.811.778-.037,4.49-.019,8.981-.019,13.471,0,1.07,0,1.07,1.028,1.119v2.781a3.582,3.582,0,0,0-2.775-.617c-.378.09-.291-.2-.293-.388q-.011-1.405,0-2.811a3.114,3.114,0,0,0-.3-1.359,3.084,3.084,0,0,0-3.451-1.7,3.043,3.043,0,0,0-2.38,2.947c-.017,3.172,0,6.345-.01,9.517a1.133,1.133,0,0,1-.09.7l-1.421-1.131c-.466-.371-.923-.755-1.4-1.112a3.349,3.349,0,0,0-4.19.127,3.083,3.083,0,0,0-.6,4c.037.069.061.145.112.269-4.883,0-9.713,0-14.543.006-.345,0-.37-.164-.367-.432.008-1.043.065-2.091-.014-3.128a2.973,2.973,0,0,1,.909-2.576c.4-.376.649-.9,1.154-1.32,0,.422,0,.72,0,1.017,0,.125-.011.284.167.286.574.009,1.149,0,1.724,0,.046,0,.129-.071.13-.11a6.631,6.631,0,0,0-.034-1.776c-.088-.328-.645-.083-.986-.139a4.64,4.64,0,0,0-.476-.025,3.792,3.792,0,0,0,.495-1.745c-.006-.241.13-.307.32-.271.687.129.774-.247.709-.794a3.3,3.3,0,0,1,0-.765c.046-.4-.1-.53-.5-.5a2.541,2.541,0,0,1-2.178-.593,1.684,1.684,0,0,0-.942-.348c-.426-.049-.487-.246-.486-.62q.017-7.122,0-14.244c0-.461.141-.558.575-.555,3.194.018,6.389.01,9.583.01C-255.263,464.014-255.263,464.014-255.215,462.985Zm12.771,7.936-.012-.008c-1.3,2.047-2.765,3.979-4.13,5.981-.218.32-.319.134-.412-.092-.3-.727-.605-1.452-.9-2.181-.182-.451-.4-.852-.952-.914-.581-.065-.885.294-1.172.72q-1.8,2.673-3.625,5.332a1.363,1.363,0,0,1-.471.541c-.384-.761-.754-1.475-1.1-2.2a1.152,1.152,0,0,0-.988-.792c-.544-.026-.835.324-1.08.756-1.144,2.017-2.3,4.026-3.448,6.04-.5.872-.494.874.382,1.372.9.513.9.511,1.415-.392.859-1.506,1.723-3.01,2.625-4.584.355.711.667,1.338.981,1.963.631,1.257,1.429,1.319,2.211.17q1.743-2.559,3.486-5.118c.125-.183.193-.432.5-.517.323.783.649,1.562.965,2.344.2.487.413.955,1.022,1.014.578.057.875-.333,1.164-.748q2.281-3.274,4.574-6.539c.129-.184.264-.362.4-.543-.035.626.262.759.781.694a5.244,5.244,0,0,1,.957,0c.3.018.414-.075.41-.391-.015-1.234.013-2.47-.016-3.7a.993.993,0,0,0-1.265-.987c-1.242.288-2.476.613-3.71.934-.122.032-.374,0-.328.212a6.352,6.352,0,0,0,.488,1.7c.155.284.616-.065.944-.077C-242.652,470.9-242.548,470.916-242.445,470.921Zm-15.379-.774h1.084c1.53,0,1.516,0,1.514-1.516,0-.405-.095-.552-.525-.539-1.019.031-2.04.01-3.061.01-1.573,0-1.559,0-1.546,1.547,0,.38.086.526.493.506C-259.185,470.122-258.5,470.147-257.823,470.147Zm-4.569-1.044c0-1,0-1-.741-1-1.3,0-1.3,0-1.3.757,0,1.287,0,1.287.837,1.288C-262.392,470.147-262.392,470.147-262.392,469.1Zm0,4.159c0-1.07,0-1.07-1.054-1.07a2.276,2.276,0,0,1-.381,0c-.517-.089-.687.142-.612.627a2.125,2.125,0,0,1,0,.318c0,1.1,0,1.1,1.085,1.1C-262.392,474.236-262.392,474.236-262.392,473.262Zm4.09,0c0-1.075,0-1.075-1.049-1.075a2.932,2.932,0,0,1-.445,0c-.452-.07-.622.117-.553.56a2.528,2.528,0,0,1,0,.382c0,1.106,0,1.106,1.081,1.106C-258.3,474.236-258.3,474.236-258.3,473.267Zm-5.161,5.059c1.071,0,1.071,0,1.071-1.053a2.285,2.285,0,0,1,0-.382c.089-.516-.142-.687-.627-.612a2.093,2.093,0,0,1-.318,0c-1.1,0-1.1,0-1.1,1.085C-264.437,478.325-264.437,478.325-263.463,478.325Zm1.071,11.272c0-1.048,0-1.048-.758-1.048-1.286,0-1.286,0-1.287.773,0,1.271,0,1.271.853,1.271C-262.392,490.593-262.392,490.593-262.392,489.6Zm3.046-1.048c-1,0-1,0-1,.742,0,1.3,0,1.3.757,1.3,1.287,0,1.287,0,1.287-.837C-258.3,488.549-258.3,488.549-259.346,488.549Zm3.089.965c0,1.08,0,1.08,1.108,1.08a2.493,2.493,0,0,1,.382,0c.445.069.628-.1.559-.554a2.964,2.964,0,0,1,0-.445c0-1.048,0-1.048-1.076-1.048C-256.257,488.549-256.257,488.549-256.257,489.513Z" transform="translate(-38.577 -74.219)" fill="#8fb24e"/>
      <path id="Trazado_632251" data-name="Trazado 632251" d="M-293.793,460.047c-.048,1.029-.048,1.029-1.119,1.029-3.194,0-6.389.008-9.583-.01-.434,0-.577.094-.575.555q.026,7.122,0,14.244c0,.374.06.571.486.62a1.683,1.683,0,0,1,.942.348,2.541,2.541,0,0,0,2.178.593c.4-.034.543.1.5.5a3.3,3.3,0,0,0,0,.765c.065.546-.022.922-.709.794-.191-.036-.326.03-.32.271a3.792,3.792,0,0,1-.495,1.745,4.622,4.622,0,0,1,.476.025c.341.056.9-.188.986.139a6.631,6.631,0,0,1,.034,1.776c0,.039-.084.109-.13.11-.574.009-1.149.013-1.724,0-.178,0-.166-.162-.167-.286,0-.3,0-.6,0-1.017-.5.422-.756.943-1.154,1.32a2.973,2.973,0,0,0-.909,2.576c.079,1.037.023,2.085.014,3.128,0,.268.023.432.367.432,4.83-.01,9.66-.006,14.543-.006-.051-.124-.075-.2-.112-.269a3.083,3.083,0,0,1,.6-4,3.349,3.349,0,0,1,4.19-.127c.477.357.934.741,1.4,1.112l1.421,1.131a1.133,1.133,0,0,0,.09-.7c.006-3.172-.007-6.345.01-9.517a3.044,3.044,0,0,1,2.38-2.947,3.084,3.084,0,0,1,3.451,1.7,3.115,3.115,0,0,1,.3,1.359q-.009,1.405,0,2.811c0,.187-.086.478.293.388a3.583,3.583,0,0,1,2.775.617,2.96,2.96,0,0,1,3.161-.439,1.6,1.6,0,0,0,1.958-.107,3.1,3.1,0,0,1,4.079,3.272q0,3.8,0,7.6a4.053,4.053,0,0,1-4.213,4.3c-4.663.034-9.327.008-13.99.014a1.586,1.586,0,0,1-1.092-.435c-1.317-1.145-2.651-2.271-3.968-3.416a1.118,1.118,0,0,0-.794-.306q-8.943.013-17.887,0a.47.47,0,0,0-.507.337,6.2,6.2,0,0,1-6,3.763q-2.236.007-4.472,0c-.914,0-1.271-.36-1.272-1.278,0-4.109-.045-8.218.01-12.326a11.758,11.758,0,0,1,5.741-10.271.774.774,0,0,0,.387-.774q-.013-3.9,0-7.792a4.093,4.093,0,0,1,4.348-4.361q6.484,0,12.968,0C-293.84,459.03-293.84,459.03-293.793,460.047Zm18.759,33.8c2.215,0,4.43.013,6.644,0a2.007,2.007,0,0,0,2.173-1.948c.031-2.725.018-5.45.007-8.176a1.037,1.037,0,0,0-1.006-1.1c-.55-.012-.926.353-1.032,1-.109.668-.452,1.009-1.017,1.013s-.922-.341-1.03-1-.461-1.013-1.018-1.015-.918.35-1.026,1.006-.458,1.006-1.022,1.007-.93-.341-1.019-1.005a1.018,1.018,0,0,0-.777-.971c-.654-.166-1.162.216-1.266.976a1.025,1.025,0,0,1-.719.953.971.971,0,0,1-1.053-.27,1.275,1.275,0,0,1-.282-.949c.005-1.937.009-3.875,0-5.812,0-.81-.547-1.312-1.241-1.152-.628.145-.8.609-.8,1.2q.011,4.727,0,9.453c0,.894.023,1.789-.008,2.682a1.013,1.013,0,0,1-1.649.817c-.176-.119-.335-.262-.5-.395-1.313-1.05-2.621-2.106-3.941-3.147a1.316,1.316,0,0,0-1.838.1c-.419.522-.3,1.109.339,1.656,1.811,1.551,3.627,3.1,5.427,4.659a1.587,1.587,0,0,0,1.141.43C-279.378,493.829-277.206,493.842-275.034,493.842Zm-37.184-19.719a9.787,9.787,0,0,0-4.06,7.654c-.1,3.852-.022,7.708-.037,11.563,0,.366.107.463.463.456,1.171-.021,2.343,0,3.514-.011a4.208,4.208,0,0,0,4.208-4.238c.012-.979.02-1.959,0-2.939a3.549,3.549,0,0,1,.842-2.41c.956-1.171,1.9-2.354,2.836-3.539a1.317,1.317,0,0,0,0-1.931c-.538-.452-1.12-.353-1.785.31q-2.058,2.053-4.112,4.11a1.048,1.048,0,0,1-1.2.342,1.056,1.056,0,0,1-.666-1.121c.012-.745,0-1.491,0-2.236C-312.218,478.182-312.218,476.23-312.218,474.123Zm2.046,5.965c.932-.937,1.711-1.786,2.564-2.552a1.507,1.507,0,0,0,.511-1.271c-.014-4.829-.008-9.657-.008-14.486,0-.149-.007-.3,0-.447.011-.19-.077-.234-.259-.262a2.235,2.235,0,0,0-2.808,2.353q0,7.977,0,15.953Z" transform="translate(0 -71.281)" fill="#020201"/>
      <path id="Trazado_632252" data-name="Trazado 632252" d="M-196.092,407.193c-1.028-.049-1.028-.049-1.028-1.119,0-4.491-.018-8.981.019-13.471.006-.677-.2-.783-.811-.778-3.555.029-7.11-.021-10.664.026a5.606,5.606,0,0,1-5.439-3.091,7.335,7.335,0,0,1-.5-2.864c.016-5.664.006-11.329.008-16.994a5.371,5.371,0,0,1,5.675-5.688q11.726,0,23.451,0a5.366,5.366,0,0,1,5.639,5.66q0,8.656,0,17.313a5.369,5.369,0,0,1-5.649,5.651c-.873,0-1.747.019-2.62-.009a1.3,1.3,0,0,0-.888.37,2.83,2.83,0,0,0-1.1,2.579c.073,3.768.028,7.538.028,11.307,0,1.055,0,1.055-1.02,1.107-1.026-.053-1.026-.053-1.026-1.1q0-5.014,0-10.028a.95.95,0,0,0-.1-.658c-.882.893-1.734,1.779-2.616,2.634a1.11,1.11,0,0,0-.36.891c.015,2.384.008,4.769.008,7.153C-195.075,407.144-195.075,407.144-196.092,407.193Zm1.017-11.716c.25-.238.4-.379.55-.526,1.507-1.505,3.026-3,4.511-4.526a1.927,1.927,0,0,1,1.58-.643c1.021.043,2.045.013,3.067.011a3.334,3.334,0,0,0,3.583-3.59q0-8.657,0-17.315a3.335,3.335,0,0,0-3.6-3.63q-11.727,0-23.454,0a3.332,3.332,0,0,0-3.616,3.617q0,8.657,0,17.315a3.336,3.336,0,0,0,3.633,3.6q6.231,0,12.462,0c.924,0,1.283.354,1.286,1.265C-195.071,392.485-195.075,393.909-195.075,395.476Z" transform="translate(-77.263)" fill="#010101"/>
      <path id="Trazado_632253" data-name="Trazado 632253" d="M-142.585,500.713c1.017-.049,1.017-.049,1.017-1.112,0-2.384.007-4.769-.008-7.153a1.11,1.11,0,0,1,.36-.891c.882-.855,1.734-1.741,2.616-2.634a.95.95,0,0,1,.1.658q.009,5.014,0,10.028c0,1.052,0,1.052,1.026,1.1l.008,2.234a1.6,1.6,0,0,1-1.958.107,2.96,2.96,0,0,0-3.161.439Q-142.586,502.1-142.585,500.713Z" transform="translate(-130.771 -93.52)" fill="#dededc"/>
      <path id="Trazado_632254" data-name="Trazado 632254" d="M-226.637,485.812c-.1-.005-.207-.018-.31-.015-.328.012-.789.361-.944.077a6.352,6.352,0,0,1-.488-1.7c-.045-.208.206-.179.328-.211,1.234-.321,2.467-.647,3.71-.934a.993.993,0,0,1,1.265.987c.028,1.234,0,2.47.016,3.7,0,.316-.114.408-.41.391a5.238,5.238,0,0,0-.957,0c-.519.065-.816-.068-.781-.694-.132.181-.267.36-.4.543q-2.289,3.268-4.574,6.539c-.289.415-.586.8-1.164.748-.609-.06-.825-.527-1.022-1.014-.316-.783-.642-1.561-.965-2.344-.308.086-.376.334-.5.517q-1.75,2.554-3.486,5.118c-.782,1.148-1.58,1.086-2.211-.17-.314-.626-.626-1.252-.981-1.963-.9,1.574-1.766,3.078-2.625,4.584-.515.9-.512.905-1.415.392-.876-.5-.879-.5-.382-1.372,1.148-2.014,2.3-4.024,3.448-6.04.245-.432.536-.782,1.08-.756a1.152,1.152,0,0,1,.988.792c.35.723.721,1.437,1.1,2.2a1.363,1.363,0,0,0,.471-.541q1.818-2.663,3.625-5.332c.287-.426.591-.785,1.172-.72.554.062.771.463.952.914.293.73.6,1.455.9,2.181.093.226.195.411.412.092,1.365-2,2.831-3.934,4.13-5.981a.23.23,0,0,0,.043-.029c0-.005,0-.02,0-.031Z" transform="translate(-54.385 -89.11)" fill="#020301"/>
      <path id="Trazado_632255" data-name="Trazado 632255" d="M-239.943,485c-.68,0-1.362-.025-2.04.009-.407.021-.489-.126-.493-.506-.013-1.548-.027-1.547,1.546-1.547,1.02,0,2.041.021,3.061-.01.43-.013.524.133.525.539,0,1.516.016,1.516-1.514,1.516Z" transform="translate(-56.458 -89.073)"/>
      <path id="Trazado_632256" data-name="Trazado 632256" d="M-256.36,483.988c0,1.044,0,1.044-1.208,1.043-.838,0-.838,0-.837-1.288,0-.758,0-.758,1.3-.757C-256.36,482.988-256.36,482.988-256.36,483.988Z" transform="translate(-44.609 -89.104)"/>
      <path id="Trazado_632257" data-name="Trazado 632257" d="M-256.416,499.964c0,.974,0,.974-.959.974-1.085,0-1.085,0-1.085-1.1a2.125,2.125,0,0,0,0-.318c-.075-.485.1-.716.612-.627a2.279,2.279,0,0,0,.381,0C-256.416,498.894-256.416,498.894-256.416,499.964Z" transform="translate(-44.554 -100.921)"/>
      <path id="Trazado_632258" data-name="Trazado 632258" d="M-240.439,499.98c0,.969,0,.969-.964.969-1.081,0-1.081,0-1.081-1.106a2.524,2.524,0,0,0,0-.382c-.068-.443.1-.63.553-.56a2.932,2.932,0,0,0,.445,0C-240.439,498.905-240.439,498.905-240.439,499.98Z" transform="translate(-56.441 -100.932)"/>
      <path id="Trazado_632259" data-name="Trazado 632259" d="M-257.431,516.915c-.974,0-.974,0-.974-.959,0-1.085,0-1.085,1.1-1.085a2.093,2.093,0,0,0,.318,0c.486-.075.716.1.627.612a2.282,2.282,0,0,0,0,.382C-256.36,516.915-256.36,516.915-257.431,516.915Z" transform="translate(-44.609 -112.808)"/>
      <path id="Trazado_632260" data-name="Trazado 632260" d="M-256.36,563.882c0,1,0,1-1.191,1-.854,0-.854,0-.853-1.271,0-.774,0-.774,1.287-.773C-256.36,562.834-256.36,562.834-256.36,563.882Z" transform="translate(-44.609 -148.504)"/>
      <path id="Trazado_632261" data-name="Trazado 632261" d="M-241.432,562.834c1.044,0,1.044,0,1.044,1.207,0,.838,0,.838-1.287.837-.759,0-.759,0-.757-1.3C-242.432,562.834-242.432,562.834-241.432,562.834Z" transform="translate(-56.492 -148.504)"/>
      <path id="Trazado_632262" data-name="Trazado 632262" d="M-226.46,563.8c0-.965,0-.965.969-.965,1.076,0,1.076,0,1.076,1.048a2.963,2.963,0,0,0,0,.445c.069.45-.114.624-.559.554a2.5,2.5,0,0,0-.382,0C-226.46,564.878-226.46,564.878-226.46,563.8Z" transform="translate(-68.374 -148.504)"/>
      <path id="Trazado_632263" data-name="Trazado 632263" d="M-188.844,544.214c-2.172,0-4.344-.013-6.516.011a1.588,1.588,0,0,1-1.141-.43c-1.8-1.564-3.616-3.108-5.427-4.659-.638-.546-.758-1.134-.339-1.655a1.316,1.316,0,0,1,1.838-.1c1.32,1.041,2.628,2.1,3.941,3.147.166.133.326.276.5.395a1.013,1.013,0,0,0,1.649-.817c.031-.893.008-1.788.008-2.682q0-4.727,0-9.453c0-.6.175-1.059.8-1.2.694-.16,1.237.342,1.241,1.152.01,1.937.006,3.875,0,5.813a1.275,1.275,0,0,0,.282.949.97.97,0,0,0,1.053.27,1.025,1.025,0,0,0,.719-.953c.1-.759.612-1.141,1.267-.976a1.018,1.018,0,0,1,.777.971c.089.664.455,1.006,1.019,1.005s.913-.344,1.022-1.007.466-1.009,1.026-1.006.91.354,1.018,1.015.464,1,1.03,1,.908-.346,1.017-1.013c.105-.647.482-1.013,1.032-1a1.037,1.037,0,0,1,1.006,1.1c.011,2.725.024,5.45-.007,8.176a2.007,2.007,0,0,1-2.173,1.948C-184.415,544.226-186.63,544.213-188.844,544.214Z" transform="translate(-86.189 -121.652)" fill="#f2c097"/>
      <path id="Trazado_632264" data-name="Trazado 632264" d="M-306.289,517.973c0,2.107,0,4.059,0,6.01,0,.745.009,1.491,0,2.236a1.056,1.056,0,0,0,.666,1.121,1.048,1.048,0,0,0,1.2-.342q2.054-2.058,4.112-4.11c.664-.663,1.247-.762,1.785-.31a1.317,1.317,0,0,1,0,1.931c-.939,1.184-1.88,2.367-2.836,3.539a3.549,3.549,0,0,0-.842,2.41c.022.979.015,1.959,0,2.939a4.207,4.207,0,0,1-4.208,4.238c-1.171.016-2.343-.01-3.514.011-.356.006-.465-.09-.463-.456.015-3.854-.06-7.711.037-11.563A9.787,9.787,0,0,1-306.289,517.973Z" transform="translate(-5.928 -115.131)" fill="#f2c097"/>
      <path id="Trazado_632265" data-name="Trazado 632265" d="M-286.358,485.892v-.712q0-7.977,0-15.953a2.235,2.235,0,0,1,2.808-2.353c.182.028.27.072.259.262-.008.148,0,.3,0,.447,0,4.828-.006,9.657.008,14.486a1.507,1.507,0,0,1-.511,1.271C-284.647,484.106-285.426,484.954-286.358,485.892Z" transform="translate(-23.814 -77.085)" fill="#dededc"/>
      <path id="Trazado_632266" data-name="Trazado 632266" d="M-189.112,401.418c0-1.567,0-2.992,0-4.416,0-.912-.362-1.265-1.286-1.265q-6.231,0-12.462,0a3.336,3.336,0,0,1-3.633-3.6q0-8.657,0-17.315a3.332,3.332,0,0,1,3.616-3.617q11.727,0,23.454,0a3.335,3.335,0,0,1,3.6,3.63q0,8.657,0,17.315a3.334,3.334,0,0,1-3.583,3.59c-1.022,0-2.046.032-3.067-.011a1.927,1.927,0,0,0-1.58.642c-1.484,1.527-3,3.02-4.511,4.526C-188.709,401.04-188.863,401.18-189.112,401.418Zm-2.046-7.727h10.8c1.486,0,1.459,0,1.489-1.477.01-.505-.158-.581-.61-.578-3.365.019-6.73,0-10.095.02-.436,0-.582-.09-.569-.552.034-1.3.046-2.6,0-3.9-.022-.573.144-.693.7-.688,3.109.029,6.219.016,9.328.012.714,0,1.151-.293,1.219-.869.357-3.042-1.271-4.941-3.688-5.241-.293-.036-.366-.117-.407-.407a4.053,4.053,0,0,0-3.647-3.679c-.312-.042-.4-.118-.445-.438a4.077,4.077,0,0,0-4.053-3.677,4.084,4.084,0,0,0-4.075,3.656c-.04.291-.08.415-.423.46A4.04,4.04,0,0,0-199.311,380c-.044.332-.147.4-.453.431a3.957,3.957,0,0,0-2.2.932,4.455,4.455,0,0,0-1.472,3.9c.045.915.366,1.27,1.285,1.273,1.491,0,2.982.015,4.472-.008A.61.61,0,0,1-197,387a4.04,4.04,0,0,0,3.432,2.593c.456.061,1.083-.209,1.325.14.221.318.026.907.071,1.371s-.125.558-.564.555c-3.088-.019-6.176-.01-9.264-.01-1.437,0-1.416,0-1.44,1.459-.008.471.1.6.59.6C-198.954,393.682-195.056,393.692-191.159,393.692Zm-10.253-18.4h.509c1.632,0,1.632,0,1.565-1.63a.355.355,0,0,1,0-.064c.042-.284-.092-.361-.362-.356-.721.015-1.442,0-2.163,0-1.632,0-1.632,0-1.565,1.63a.35.35,0,0,1,0,.064c-.041.285.092.364.362.356C-202.515,375.278-201.963,375.29-201.412,375.29Zm18.44-2.044h-.509c-1.588,0-1.588,0-1.542,1.589a.875.875,0,0,1,0,.127c-.028.243.071.334.322.332q1.718-.015,3.436,0c.238,0,.315-.07.34-.32.172-1.729.179-1.728-1.538-1.728Zm-19.888,4.089c-1.692,0-1.682,0-1.6,1.665.016.312.112.392.406.385.72-.017,1.442-.032,2.161,0,.428.022.521-.126.52-.531C-201.377,377.335-201.362,377.335-202.86,377.335Zm23.435,2.044c1.63,0,1.63,0,1.56-1.631a.328.328,0,0,1,0-.063c.041-.285-.094-.36-.363-.355-.741.014-1.484.029-2.224,0-.4-.019-.489.111-.49.5C-180.949,379.379-180.964,379.379-179.425,379.379Z" transform="translate(-83.226 -5.942)" fill="#cad958"/>
      <path id="Trazado_632267" data-name="Trazado 632267" d="M-172.554,493.8l.03-.068c0,.01.006.026,0,.031a.23.23,0,0,1-.043.029Z" transform="translate(-108.468 -97.094)" fill="#8fb24e"/>
      <path id="Trazado_632268" data-name="Trazado 632268" d="M-182.293,396.664c-3.9,0-7.795-.01-11.692.012-.486,0-.6-.127-.59-.6.025-1.459,0-1.459,1.44-1.459,3.088,0,6.176-.009,9.264.01.439,0,.609-.094.564-.555s.15-1.053-.071-1.371c-.242-.349-.869-.078-1.325-.14a4.04,4.04,0,0,1-3.432-2.593.61.61,0,0,0-.678-.472c-1.49.023-2.981.013-4.472.008-.919,0-1.24-.358-1.285-1.273a4.455,4.455,0,0,1,1.472-3.9,3.957,3.957,0,0,1,2.2-.932c.306-.03.409-.1.453-.431a4.04,4.04,0,0,1,3.665-3.657c.343-.045.383-.169.423-.46a4.084,4.084,0,0,1,4.075-3.656,4.077,4.077,0,0,1,4.053,3.677c.044.321.134.4.445.438a4.053,4.053,0,0,1,3.647,3.679c.041.289.115.37.407.407,2.417.3,4.045,2.2,3.688,5.241-.068.575-.505.868-1.219.869-3.109,0-6.219.017-9.328-.012-.553-.005-.719.114-.7.688.05,1.3.038,2.6,0,3.9-.012.462.134.554.569.552,3.365-.018,6.73,0,10.095-.02.452,0,.62.072.61.578-.029,1.477,0,1.477-1.489,1.477Zm4.6-9.2c1.82,0,3.579,0,5.338,0,.362,0,.288-.215.246-.426a2.121,2.121,0,0,0-2.285-1.62c-1.579,0-1.756-.181-1.761-1.75,0-.085,0-.17,0-.255a2.014,2.014,0,0,0-2.116-2.072c-1.694.05-2.049-.191-1.986-2a2.009,2.009,0,0,0-2.019-2.1,2,2,0,0,0-2.044,2.074c.06,1.784-.237,2.089-2.022,2.028a1.957,1.957,0,0,0-2.066,2.042c.063,1.774-.221,2.137-2.069,2.048a2,2,0,0,0-1.973,1.518c-.107.377-.052.524.391.521q4.15-.026,8.3,0c.379,0,.465-.131.454-.478-.023-.7-.007-1.4-.007-2.106,0-1.537,0-1.515,1.512-1.525.478,0,.553.171.542.589-.027,1.021.009,2.043-.017,3.064-.011.445.149.5.525.381a1.705,1.705,0,0,0,1.325-1.175c.158-.863.663-.859,1.3-.8a2.987,2.987,0,0,0,.574,0c.332-.035.4.125.362.413A6.305,6.305,0,0,1-177.7,387.462Zm-8.333,2.045a2.336,2.336,0,0,0,2.533,1.013c.379-.133.122-.474.176-.714.06-.271-.124-.3-.343-.3C-184.426,389.512-185.188,389.507-186.029,389.507Z" transform="translate(-92.092 -8.914)" fill="#010100"/>
      <path id="Trazado_632269" data-name="Trazado 632269" d="M-192.559,381.216c-.552,0-1.1-.011-1.654,0-.27.008-.4-.071-.362-.356a.347.347,0,0,0,0-.063c-.068-1.63-.068-1.63,1.565-1.63.721,0,1.442.01,2.163,0,.27-.005.4.071.362.356a.353.353,0,0,0,0,.064c.068,1.63.068,1.63-1.565,1.63Z" transform="translate(-92.079 -11.869)"/>
      <path id="Trazado_632270" data-name="Trazado 632270" d="M-120.623,379.187h.509c1.716,0,1.71,0,1.538,1.728-.025.25-.1.321-.34.32q-1.718-.013-3.436,0c-.25,0-.35-.089-.322-.332a.878.878,0,0,0,0-.127c-.047-1.589-.047-1.589,1.542-1.589Z" transform="translate(-145.575 -11.883)"/>
      <path id="Trazado_632271" data-name="Trazado 632271" d="M-197.025,395.157c1.5,0,1.484,0,1.487,1.523,0,.405-.092.553-.52.531-.719-.036-1.441-.022-2.161,0-.294.007-.39-.072-.406-.385C-198.706,395.156-198.717,395.157-197.025,395.157Z" transform="translate(-89.062 -23.764)"/>
      <path id="Trazado_632272" data-name="Trazado 632272" d="M-105.189,397.168c-1.538,0-1.524,0-1.517-1.557,0-.385.089-.515.49-.5.74.034,1.483.019,2.224,0,.269-.005.4.07.363.355a.328.328,0,0,0,0,.063C-103.559,397.168-103.559,397.168-105.189,397.168Z" transform="translate(-157.462 -23.731)"/>
      <path id="Trazado_632273" data-name="Trazado 632273" d="M-171.657,393.4a6.305,6.305,0,0,0,.5-1.633c.038-.288-.03-.449-.362-.413a2.992,2.992,0,0,1-.574,0c-.633-.055-1.138-.059-1.3.8a1.705,1.705,0,0,1-1.325,1.175c-.376.116-.537.064-.525-.381.026-1.021-.01-2.043.017-3.064.011-.418-.065-.592-.542-.589-1.512.011-1.512-.011-1.512,1.525,0,.7-.016,1.405.007,2.106.011.348-.075.48-.454.478q-4.15-.023-8.3,0c-.443,0-.5-.144-.391-.521a2,2,0,0,1,1.973-1.518c1.847.089,2.131-.274,2.069-2.048a1.957,1.957,0,0,1,2.066-2.042c1.786.06,2.083-.244,2.022-2.028a2,2,0,0,1,2.044-2.074,2.009,2.009,0,0,1,2.019,2.1c-.063,1.806.292,2.047,1.986,2a2.014,2.014,0,0,1,2.116,2.072c0,.085,0,.17,0,.255,0,1.569.181,1.745,1.761,1.75a2.121,2.121,0,0,1,2.285,1.62c.042.211.116.427-.246.426C-168.078,393.4-169.837,393.4-171.657,393.4Z" transform="translate(-98.13 -14.857)" fill="#8fb14e"/>
      <path id="Trazado_632274" data-name="Trazado 632274" d="M-161.189,431.077c.84,0,1.6,0,2.366,0,.219,0,.4.031.343.3-.053.24.2.581-.176.714A2.336,2.336,0,0,1-161.189,431.077Z" transform="translate(-116.932 -50.484)" fill="#c7d657"/>
    </g>
  </g>
</svg>
