<svg xmlns="http://www.w3.org/2000/svg" width="73" height="73" viewBox="0 0 73 73">
  <g id="Grupo_957397" data-name="Grupo 957397" transform="translate(-202 -7053)">
    <rect id="Rectángulo_307000" data-name="Rectángulo 307000" width="73" height="73" transform="translate(202 7053)" fill="none"/>
    <g id="Grupo_957408" data-name="Grupo 957408" transform="translate(200.028 6328.347)">
      <path id="Trazado_632386" data-name="Trazado 632386" d="M43.1,761.149c.086-.6.461-.818,1.039-.818,6.93,0,13.861-.005,20.791.009a2.7,2.7,0,0,1,2.785,2.833q.009,10.306,0,20.613a7.59,7.59,0,0,1-.393,1.578c-.1.46.452.9.4,1.474-.052.6,0,1.217-.016,1.826a1.777,1.777,0,0,1-1.744,1.753c-.152.006-.3,0-.457,0H11.473c-1.612,0-2.251-.634-2.251-2.235q0-1.742,0-3.483c0-.748.162-.945.91-1.142a1.031,1.031,0,0,1,.812,1.188c-.029,1.16,0,2.321-.016,3.481-.006.356.067.493.462.488,1.655-.023,3.311-.019,4.966,0,.337,0,.479-.061.45-.432-.035-.435-.011-.875-.008-1.312a1.836,1.836,0,0,1,2.045-2.041q2.911,0,5.823,0c.265,0,.467,0,.521-.343.314-1.989.644-3.975.975-5.961a.592.592,0,0,0-.066-.434c-.384-.631-.764-1.265-1.143-1.895-1.471.739-2.408.386-3.007-1.107Q20.666,772,19.391,768.8c-.44-1.1-.44-1.1-1.635-1.093a6.735,6.735,0,0,0-6.819,6.845c0,2.073-.01,4.147.005,6.22a.963.963,0,0,1-.813,1.115c-.7-.139-.905-.376-.907-1.073,0-2.15-.013-4.3,0-6.451a8.3,8.3,0,0,1,8.247-8.318c2.114.022,3.836-.9,5.694-1.554.239-.084.239-.253.238-.451,0-1.1-.011-2.208.005-3.311a.6.6,0,0,0-.3-.556,10.116,10.116,0,0,1-4.328-7.142c-.049-.36-.179-.48-.535-.448a3.818,3.818,0,0,1-1.36-.11,2.7,2.7,0,0,1-1.966-2.52c-.029-1.255-.019-2.512-.01-3.768a2.743,2.743,0,0,1,2.847-2.9c.934-.024.934-.024.934-.97,0-1.542-.007-3.083,0-4.624a5.567,5.567,0,0,1,5.764-5.748q4.54-.01,9.08,0a5.559,5.559,0,0,1,5.771,5.686c.028,1.712.022,3.425-.006,5.137-.007.442.129.563.545.525a3.42,3.42,0,0,1,1.3.122A2.759,2.759,0,0,1,43.1,746.19q.023,1.741,0,3.482a2.772,2.772,0,0,1-2.951,2.92,3.056,3.056,0,0,1-.4,0c-.337-.042-.473.049-.527.435a10.141,10.141,0,0,1-4.328,7.143.689.689,0,0,0-.318.66c.016.951.038,1.9-.006,2.854-.025.532.1.866.661.961a2.9,2.9,0,0,1,.492.193c0-.587,0-1.127,0-1.666a2.731,2.731,0,0,1,2.789-2.832c.609-.013,1.218.008,1.827-.005a.9.9,0,0,1,1.042.817c-.15.691-.379.892-1.085.911-.475.013-.952,0-1.428,0-1.143,0-1.432.3-1.432,1.462q0,9.96,0,19.921c0,1.173.313,1.484,1.49,1.484q12.248,0,24.5,0c.209,0,.418-.017.626-.026,1.378.134,1.975-.052,1.963-1.8C65.971,776.56,66,770.017,66,763.474c0-1.108-.309-1.412-1.428-1.407-.17,0-.341.016-.512.025-.246-.01-.492-.029-.738-.029q-8.717,0-17.435,0c-.589,0-1.178.015-1.766-.005C43.46,762.034,43.233,761.818,43.1,761.149ZM28.864,777.321a1.7,1.7,0,0,0,2.195-1c.522-1.108.609-1.067-.518-1.7-1.439-1.13-1.439-1.13-2.906-.151l-.189.128c-1.074.716-1.007.683-.435,1.828a1.44,1.44,0,0,0,1.8.906A.514.514,0,0,0,28.864,777.321Zm-.449,1.786c-.272-.029-.573-.154-.645.294q-.415,2.584-.852,5.164c-.044.262,0,.38.3.37.7-.024,1.4-.019,2.107-.026.491.007.984,0,1.475.025.294.014.331-.083.282-.36-.234-1.321-.427-2.649-.662-3.97C30.129,778.962,30.117,778.964,28.415,779.106Zm4-5.36c.5.343,1.013.665,1.491,1.035.329.255.433.111.549-.191.382-.989.781-1.972,1.167-2.96a1.252,1.252,0,0,0,.1-.436c.008-1.406,0-2.812.011-4.218a.344.344,0,0,0-.351-.4c-.33-.14-.667-.267-.989-.424-.24-.117-.366-.052-.5.167q-1.763,2.847-3.549,5.681c-.122.194-.151.319.071.459C31.084,772.879,31.747,773.316,32.413,773.746Zm-1.262-11.894a16.184,16.184,0,0,1-2.785.165,11.809,11.809,0,0,1-3.249-.714c0,1.093.005,2.136,0,3.179a1.03,1.03,0,0,0,.221.572q1.706,2.731,3.416,5.459c.076.12.108.292.329.31l2.09-3.442c.532-.829,1.065-1.657,1.592-2.489a.633.633,0,0,0,.1-.314c.008-1.077,0-2.155,0-3.266Zm33.133,24.814c-.247-.007-.494-.021-.74-.021H38.892c-1.455,0-1.427,0-1.466,1.428-.015.543.164.645.666.644q12.81-.022,25.621-.011c.19,0,.38-.013.57-.019.452.007.9,0,1.356.023.265.011.372-.083.362-.356-.085-2.128.46-1.661-1.661-1.7A.321.321,0,0,0,64.283,786.666Zm-28.446-49.03a.879.879,0,0,1,.633.858.828.828,0,0,1-.73.826c-.187.038-.214.163-.232.332-.139,1.3.326,1.8,1.622,1.777.345-.006.464-.1.458-.453-.02-1.216.014-2.434-.021-3.65a3.767,3.767,0,0,0-3.559-3.628c-3.346-.008-6.693-.068-10.038,0a3.733,3.733,0,0,0-3.541,3.481c-.062,1.29-.014,2.585-.027,3.877,0,.266.085.353.358.37,1.317.084,1.726-.3,1.715-1.616,0-.284-.054-.44-.358-.527a.772.772,0,0,1-.57-.927c.06-.5.393-.716,1.11-.716Q29.248,737.633,35.837,737.635Zm-4.684,22.387a8.427,8.427,0,0,0,6.385-7.516c.111-3,.04-6.01.063-9.016,0-.321-.125-.383-.4-.367a5.76,5.76,0,0,1-1.362-.079,2.828,2.828,0,0,1-2.019-3.073c.031-.54-.152-.643-.654-.638-2.777.024-5.554.031-8.33,0-.569-.007-.7.151-.662.687a2.753,2.753,0,0,1-1.334,2.711,3.175,3.175,0,0,1-1.977.4c-.382-.027-.468.105-.466.472.016,2.756.011,5.513.01,8.27a8.064,8.064,0,0,0,.718,3.315A8.546,8.546,0,0,0,31.153,760.022ZM27.12,788.705h7.188c1.419,0,1.386,0,1.433-1.406.019-.582-.181-.669-.7-.667-5.02.02-10.04.012-15.06.012-1.446,0-1.427,0-1.446,1.465-.006.471.122.612.6.608C21.8,788.693,24.458,788.705,27.12,788.705Zm-3.305-22.623a1.247,1.247,0,0,0-.121.034c-.932.373-1.86.754-2.8,1.117-.232.09-.2.215-.132.393q1.42,3.531,2.828,7.067c.113.285.224.279.446.129q1.745-1.177,3.5-2.336c.212-.14.267-.249.113-.492-1.2-1.89-2.377-3.791-3.563-5.688C24.024,766.2,23.978,766.056,23.815,766.082Zm11.91,9.862a2.1,2.1,0,0,1-1.8.731c-.342-.033-.615-.52-.95-.214a3.924,3.924,0,0,0-.573.909c-.138.227-.267.459-.414.68a.846.846,0,0,0-.145.643c.334,1.963.668,3.925.982,5.892.047.3.173.356.441.349.665-.016,1.332-.038,1.994.005.536.035.7-.1.51-.635a2.275,2.275,0,0,1-.039-.735C35.724,781.063,35.725,778.556,35.725,775.944Zm3.581-27.989c0,.836,0,1.672,0,2.508,0,.141-.056.306.124.4a1.41,1.41,0,0,0,1.948-1.054c.037-1.253.03-2.508,0-3.761a1.019,1.019,0,0,0-1.062-1.041c-.208-.016-.419.01-.627-.009-.3-.027-.4.095-.391.392C39.316,746.245,39.306,747.1,39.306,747.955Zm-20.616-.01c0-.8-.03-1.6.012-2.392.025-.469-.138-.611-.574-.551-.205.028-.42,0-.624.035a.941.941,0,0,0-.871.963q-.027,1.937,0,3.874a.946.946,0,0,0,.866.971c.277.05.568.013.852.036s.348-.115.345-.372C18.683,749.654,18.69,748.8,18.69,747.945Z" transform="translate(0 -0.027)" fill="#020202"/>
      <path id="Trazado_632387" data-name="Trazado 632387" d="M159.178,883.326c-.209.009-.417.026-.626.026q-12.248,0-24.5,0c-1.177,0-1.49-.312-1.49-1.484q0-9.96,0-19.921c0-1.165.29-1.46,1.432-1.462.476,0,.952.01,1.428,0,.706-.019.936-.22,1.085-.911a8.289,8.289,0,0,0,1.711,0c.137.669.364.885,1.023.907.588.02,1.177.005,1.766.005q8.717,0,17.435,0c.246,0,.492.019.738.029a14.107,14.107,0,0,1,.229,3.278q-.008,8.527,0,17.053A12.651,12.651,0,0,1,159.178,883.326Zm-12.355-3.952q4.169,0,8.337,0a1.761,1.761,0,0,0,1.987-1.952q.006-5.509,0-11.017a1.793,1.793,0,0,0-1.972-1.986q-8.337,0-16.674,0a1.783,1.783,0,0,0-1.957,1.942q-.007,5.537,0,11.074a1.75,1.75,0,0,0,1.943,1.938Q142.655,879.377,146.823,879.374Z" transform="translate(-95.126 -98.451)" fill="#7f7c82"/>
      <path id="Trazado_632388" data-name="Trazado 632388" d="M13.206,902.423a.963.963,0,0,0,.813-1.115c-.015-2.073-.009-4.147-.005-6.22a6.735,6.735,0,0,1,6.819-6.845c1.2-.008,1.2-.008,1.635,1.093q1.277,3.2,2.556,6.391c.6,1.494,1.536,1.846,3.007,1.107.38.63.759,1.263,1.143,1.895a.592.592,0,0,1,.066.434c-.331,1.986-.661,3.972-.975,5.961-.054.345-.256.344-.521.343q-2.911-.01-5.823,0a1.836,1.836,0,0,0-2.045,2.041c0,.438-.028.877.008,1.312.03.37-.112.435-.45.432-1.655-.017-3.311-.021-4.966,0-.394.005-.468-.132-.462-.488.02-1.16-.013-2.321.016-3.481a1.031,1.031,0,0,0-.812-1.188Z" transform="translate(-3.077 -120.561)" fill="#cbd9f8"/>
      <path id="Trazado_632389" data-name="Trazado 632389" d="M187.052,740.349c0,1.179.007,2.358,0,3.537a4.6,4.6,0,0,1-4.915,4.869,3.528,3.528,0,0,0-2.431.824c-1.461,1.183-3,2.264-4.5,3.4a1.84,1.84,0,0,1-3.107-1.527c.01-.647-.035-1.3.013-1.939.043-.575-.107-.788-.728-.754a4.52,4.52,0,0,1-3.572-1.337,4.379,4.379,0,0,1-1.368-3.158c-.014-2.605-.029-5.211,0-7.817a4.566,4.566,0,0,1,4.515-4.517q5.793-.044,11.586,0a4.541,4.541,0,0,1,4.478,4.308c.063,1.366.011,2.738.011,4.107Zm-13.206,10.527a1.932,1.932,0,0,0,.044.962l5.143-3.916a3.582,3.582,0,0,1,2.955-.866,2.345,2.345,0,0,0,.45-.043,2.748,2.748,0,0,0,2.858-2.589q.093-4.078,0-8.16a2.78,2.78,0,0,0-2.861-2.6c-3.859-.005-7.719-.038-11.577,0a2.813,2.813,0,0,0-2.7,2.789q-.037,3.905,0,7.811a2.856,2.856,0,0,0,2.207,2.71,5.755,5.755,0,0,0,1.191.089c1.63.01,2.254.638,2.261,2.284C173.815,749.852,173.835,750.364,173.846,750.876Z" transform="translate(-121.235)" fill="#030304"/>
      <path id="Trazado_632390" data-name="Trazado 632390" d="M68.835,784.908a8.546,8.546,0,0,1-10.029-4.841,8.065,8.065,0,0,1-.718-3.315c0-2.757.006-5.514-.01-8.27,0-.366.084-.5.466-.472a3.175,3.175,0,0,0,1.977-.4,2.753,2.753,0,0,0,1.334-2.711c-.039-.536.093-.694.662-.687,2.776.035,5.553.028,8.33,0,.5,0,.686.1.654.638a2.828,2.828,0,0,0,2.019,3.073c0,2.683-.01,5.367.008,8.05a11.067,11.067,0,0,1-.243,2.652,9.286,9.286,0,0,1-3.071,5.126A6.159,6.159,0,0,0,68.835,784.908Zm-2.191-4.846a3.633,3.633,0,0,0,3.141-1.708.857.857,0,1,0-1.395-.983,1.968,1.968,0,0,1-3.415.01.856.856,0,0,0-1.234-.292.846.846,0,0,0-.175,1.253A3.635,3.635,0,0,0,66.644,780.062Zm-4.6-7.739c0,.152-.009.3,0,.456a.857.857,0,0,0,.839.9.848.848,0,0,0,.866-.867c.015-.17.008-.342.008-.513,0-.855-.3-1.286-.873-1.275S62.038,771.452,62.04,772.323Zm7.576,0c0,.1,0,.19,0,.285.009.684.3,1.057.834,1.066s.871-.394.881-1.094c0-.076,0-.152,0-.228q0-1.349-.881-1.332C69.88,771.03,69.617,771.441,69.616,772.323Z" transform="translate(-37.682 -24.912)" fill="#f1e0c4"/>
      <path id="Trazado_632391" data-name="Trazado 632391" d="M73.521,743.425q-6.589,0-13.179,0c-.717,0-1.05.217-1.11.716a.772.772,0,0,0,.57.927c.3.086.355.243.358.527.011,1.314-.4,1.7-1.715,1.616-.273-.017-.36-.1-.358-.37.013-1.292-.036-2.587.027-3.877a3.733,3.733,0,0,1,3.541-3.481c3.345-.064,6.692,0,10.038,0a.739.739,0,0,0,.114.184A4.755,4.755,0,0,1,73.521,743.425Z" transform="translate(-37.684 -5.816)" fill="#7f7c82"/>
      <path id="Trazado_632392" data-name="Trazado 632392" d="M159.358,973.043c-.19.007-.38.019-.57.019q-12.81,0-25.621.011c-.5,0-.681-.1-.666-.644.039-1.428.011-1.428,1.466-1.428h24.651c.247,0,.494.014.74.021Z" transform="translate(-95.075 -184.384)" fill="#7f7c82"/>
      <path id="Trazado_632393" data-name="Trazado 632393" d="M84.746,866.328l-2.09,3.442c-.221-.018-.253-.189-.329-.31q-1.711-2.728-3.416-5.459a1.03,1.03,0,0,1-.221-.572c.01-1.043,0-2.086,0-3.179a11.811,11.811,0,0,0,3.249.714,16.183,16.183,0,0,0,2.785-.164Q84.737,863.563,84.746,866.328Z" transform="translate(-53.577 -98.974)" fill="#f0dfc2"/>
      <path id="Trazado_632394" data-name="Trazado 632394" d="M248.875,886.424a12.652,12.652,0,0,0,.238-2.479q-.017-8.527,0-17.053a14.107,14.107,0,0,0-.23-3.278c.17-.009.341-.024.512-.025,1.12,0,1.428.3,1.428,1.407,0,6.543-.027,13.085.018,19.628C250.85,886.372,250.253,886.558,248.875,886.424Z" transform="translate(-184.823 -101.549)" fill="#736e77"/>
      <path id="Trazado_632395" data-name="Trazado 632395" d="M58.512,973.025c-2.662,0-5.325-.012-7.987.011-.48,0-.609-.137-.6-.608.019-1.464,0-1.465,1.446-1.465,5.02,0,10.04.008,15.06-.012.523,0,.723.085.7.667-.046,1.4-.013,1.406-1.433,1.406Z" transform="translate(-31.392 -184.346)" fill="#736e77"/>
      <path id="Trazado_632396" data-name="Trazado 632396" d="M62.567,881.128c.164-.027.209.116.277.224,1.186,1.9,2.366,3.8,3.563,5.688.154.243.1.353-.113.492q-1.757,1.159-3.5,2.336c-.222.15-.333.156-.446-.129q-1.4-3.539-2.828-7.067c-.072-.178-.1-.3.132-.393.935-.364,1.864-.744,2.8-1.117A1.247,1.247,0,0,1,62.567,881.128Z" transform="translate(-38.752 -115.072)" fill="#ebf3fb"/>
      <path id="Trazado_632397" data-name="Trazado 632397" d="M111.925,924.239c0,2.612,0,5.119,0,7.625a2.275,2.275,0,0,0,.039.735c.19.534.025.67-.51.635-.662-.044-1.329-.021-1.994-.005-.268.007-.394-.052-.441-.349-.314-1.966-.648-3.929-.982-5.892a.846.846,0,0,1,.145-.643c.146-.221.276-.453.414-.68a3.924,3.924,0,0,1,.573-.909c.335-.305.608.181.95.214A2.1,2.1,0,0,0,111.925,924.239Z" transform="translate(-76.2 -148.322)" fill="#cbd9f8"/>
      <path id="Trazado_632398" data-name="Trazado 632398" d="M105.091,797.432a6.159,6.159,0,0,1,1.378-1.149,9.286,9.286,0,0,0,3.071-5.126,11.067,11.067,0,0,0,.243-2.652c-.018-2.683-.007-5.367-.008-8.05a5.76,5.76,0,0,0,1.362.079c.276-.015.4.047.4.367-.023,3.005.048,6.014-.063,9.016A8.427,8.427,0,0,1,105.091,797.432Z" transform="translate(-73.938 -37.437)" fill="#ebcfae"/>
      <path id="Trazado_632399" data-name="Trazado 632399" d="M103.3,888.84c-.666-.431-1.328-.867-2-1.289-.222-.139-.193-.265-.071-.459q1.783-2.835,3.549-5.681c.135-.219.261-.284.5-.167.322.156.659.284.989.424-.728,1.832-1.444,3.669-2.191,5.494A5.335,5.335,0,0,1,103.3,888.84Z" transform="translate(-70.885 -115.12)" fill="#ebf3fb"/>
      <path id="Trazado_632400" data-name="Trazado 632400" d="M110.6,890.459a5.334,5.334,0,0,0,.777-1.678c.746-1.825,1.463-3.662,2.191-5.494a.344.344,0,0,1,.351.4c-.014,1.406,0,2.812-.011,4.218a1.252,1.252,0,0,1-.1.436c-.386.988-.785,1.971-1.167,2.96-.117.3-.22.446-.549.191C111.609,891.125,111.095,890.8,110.6,890.459Z" transform="translate(-78.183 -116.74)" fill="#d7dfee"/>
      <path id="Trazado_632401" data-name="Trazado 632401" d="M140.7,791.938c0-.855.01-1.71-.005-2.565-.005-.3.091-.419.391-.392.208.019.419-.007.627.009a1.019,1.019,0,0,1,1.062,1.041c.03,1.253.037,2.508,0,3.761a1.41,1.41,0,0,1-1.948,1.054c-.18-.1-.124-.26-.124-.4C140.7,793.61,140.7,792.774,140.7,791.938Z" transform="translate(-101.397 -44.01)" fill="#e6d6bb"/>
      <path id="Trazado_632402" data-name="Trazado 632402" d="M119.4,743.538a4.755,4.755,0,0,0-1.714-3.754.739.739,0,0,1-.114-.184,3.767,3.767,0,0,1,3.559,3.628c.035,1.216,0,2.433.021,3.65.006.351-.113.448-.458.453-1.3.021-1.761-.478-1.622-1.777.018-.169.046-.295.232-.332a.828.828,0,0,0,.73-.826A.879.879,0,0,0,119.4,743.538Z" transform="translate(-83.561 -5.929)" fill="#736e77"/>
      <path id="Trazado_632403" data-name="Trazado 632403" d="M43.643,791.91c0,.855-.007,1.709,0,2.564,0,.257-.055.4-.345.372s-.575.014-.852-.036a.946.946,0,0,1-.866-.971q-.024-1.937,0-3.874a.941.941,0,0,1,.871-.963c.2-.036.418-.007.624-.035.435-.06.6.082.574.551C43.612,790.313,43.643,791.112,43.643,791.91Z" transform="translate(-24.953 -43.991)" fill="#f0dfc2"/>
      <path id="Trazado_632404" data-name="Trazado 632404" d="M93.123,937.865c1.7-.143,1.714-.145,2.006,1.5.235,1.321.428,2.649.662,3.97.049.277.012.374-.282.36-.491-.023-.983-.018-1.475-.025a3.11,3.11,0,0,0-.117-1.009C93.661,941.059,93.389,939.462,93.123,937.865Z" transform="translate(-64.708 -158.785)" fill="#afcfa5"/>
      <path id="Trazado_632405" data-name="Trazado 632405" d="M88.03,937.932c.266,1.6.538,3.194.795,4.793a3.11,3.11,0,0,1,.117,1.009c-.7.007-1.405,0-2.107.026-.3.01-.345-.108-.3-.37q.435-2.581.852-5.164C87.457,937.778,87.758,937.9,88.03,937.932Z" transform="translate(-59.615 -158.852)" fill="#c5dea5"/>
      <path id="Trazado_632406" data-name="Trazado 632406" d="M87.466,918.257a.515.515,0,0,1-.054.018,1.44,1.44,0,0,1-1.8-.906c-.573-1.144-.639-1.111.435-1.827l.189-.128c1.467-.979,1.467-.979,2.906.151A11.894,11.894,0,0,0,87.466,918.257Z" transform="translate(-58.602 -140.963)" fill="#c5dea5"/>
      <path id="Trazado_632407" data-name="Trazado 632407" d="M105.1,866.362q-.009-2.765-.017-5.529l1.719-.539c0,1.11,0,2.188,0,3.266a.633.633,0,0,1-.1.314C106.163,864.705,105.629,865.533,105.1,866.362Z" transform="translate(-73.929 -99.008)" fill="#ebcfae"/>
      <path id="Trazado_632408" data-name="Trazado 632408" d="M95.085,921.181a11.894,11.894,0,0,1,1.677-2.693c1.127.629,1.04.588.518,1.7A1.7,1.7,0,0,1,95.085,921.181Z" transform="translate(-66.221 -143.886)" fill="#afcfa5"/>
      <path id="Trazado_632409" data-name="Trazado 632409" d="M249.881,973.018V971a.321.321,0,0,1,.056-.008c2.121.034,1.576-.432,1.661,1.7.011.272-.1.367-.362.356C250.785,973.021,250.333,973.024,249.881,973.018Z" transform="translate(-185.598 -184.359)" fill="#736e77"/>
      <path id="Trazado_632410" data-name="Trazado 632410" d="M160.22,895.7q-4.168,0-8.337,0a1.75,1.75,0,0,1-1.943-1.938q-.006-5.537,0-11.074a1.783,1.783,0,0,1,1.957-1.942q8.337-.005,16.674,0a1.793,1.793,0,0,1,1.972,1.986q.005,5.508,0,11.017a1.761,1.761,0,0,1-1.987,1.952Q164.388,895.7,160.22,895.7Zm.022-1.714c2.684,0,5.368-.009,8.051.009.418,0,.549-.1.547-.534q-.027-5.251,0-10.5c0-.4-.123-.509-.518-.508q-8.08.018-16.16,0c-.4,0-.518.107-.516.51q.022,5.252,0,10.5c0,.438.131.535.548.532C154.874,893.978,157.558,893.986,160.242,893.986Z" transform="translate(-108.522 -114.778)" fill="#020202"/>
      <path id="Trazado_632411" data-name="Trazado 632411" d="M188.221,752.841a2.345,2.345,0,0,1-.45.043,3.582,3.582,0,0,0-2.955.866c-.484.023-.993-.14-1.433.205-.343.269-.679.548-1.037.795-.919.633-1.738,1.4-2.717,1.955-.011-.512-.031-1.024-.033-1.536-.007-1.646-.632-2.273-2.261-2.284a5.755,5.755,0,0,1-1.191-.089,2.856,2.856,0,0,1-2.207-2.71q-.032-3.905,0-7.811a2.813,2.813,0,0,1,2.7-2.789c3.859-.035,7.718,0,11.577,0a1.73,1.73,0,0,0,.216.456,3.811,3.811,0,0,1,.933,2.723c-.011,2.451,0,4.9,0,7.352a3.735,3.735,0,0,1-.618,2.035C188.574,752.319,188.234,752.475,188.221,752.841Zm-5.747-5.819c1.844,0,3.688,0,5.532,0,.686,0,1.039-.3,1.033-.858s-.379-.852-1.055-.853q-5.475-.006-10.95,0c-.663,0-1.045.336-1.039.873s.381.836,1.061.837Q179.764,747.026,182.474,747.022Zm.007-3.781q2.738,0,5.476,0c.718,0,1.094-.307,1.083-.868-.011-.536-.385-.842-1.063-.843q-5.447,0-10.894,0c-.705,0-1.1.325-1.088.878.01.529.391.831,1.068.833Q179.771,743.245,182.481,743.241Zm-3.756,7.566c.607,0,1.215.011,1.822,0a.843.843,0,0,0,.933-.849.832.832,0,0,0-.879-.851q-1.85-.036-3.7,0a.84.84,0,0,0-.9.885c.017.5.369.806.964.818S178.136,750.808,178.724,750.807Z" transform="translate(-127.018 -5.828)" fill="#ebf3fb"/>
      <path id="Trazado_632412" data-name="Trazado 632412" d="M236.406,752.9c.013-.366.354-.522.522-.789a3.735,3.735,0,0,0,.618-2.035c0-2.451-.006-4.9,0-7.352a3.811,3.811,0,0,0-.933-2.723,1.729,1.729,0,0,1-.216-.456,2.78,2.78,0,0,1,2.861,2.6q.094,4.078,0,8.16A2.748,2.748,0,0,1,236.406,752.9Z" transform="translate(-175.204 -5.892)" fill="#d7dfee"/>
      <path id="Trazado_632413" data-name="Trazado 632413" d="M198.733,804.776c.979-.55,1.8-1.321,2.717-1.955.358-.247.695-.526,1.037-.795.44-.345.949-.182,1.433-.205l-5.143,3.916A1.932,1.932,0,0,1,198.733,804.776Z" transform="translate(-146.123 -53.9)" fill="#d7dfee"/>
      <path id="Trazado_632414" data-name="Trazado 632414" d="M84.48,822.929a3.635,3.635,0,0,1-3.077-1.72.846.846,0,0,1,.175-1.253.856.856,0,0,1,1.234.292,1.968,1.968,0,0,0,3.415-.01.857.857,0,1,1,1.395.983A3.633,3.633,0,0,1,84.48,822.929Z" transform="translate(-55.518 -67.78)" fill="#030304"/>
      <path id="Trazado_632415" data-name="Trazado 632415" d="M75.382,795.262c0-.871.271-1.292.842-1.3s.871.42.873,1.275c0,.171.007.343-.008.513a.848.848,0,0,1-.866.867.857.857,0,0,1-.839-.9C75.373,795.567,75.382,795.414,75.382,795.262Z" transform="translate(-51.024 -47.851)" fill="#030304"/>
      <path id="Trazado_632416" data-name="Trazado 632416" d="M108.5,795.261c0-.882.264-1.293.835-1.3q.881-.016.881,1.332c0,.076,0,.152,0,.228-.011.7-.336,1.1-.881,1.094s-.825-.382-.834-1.066C108.5,795.452,108.5,795.357,108.5,795.261Z" transform="translate(-76.57 -47.85)" fill="#030304"/>
      <path id="Trazado_632417" data-name="Trazado 632417" d="M165.993,899.741c-2.684,0-5.368-.009-8.051.009-.417,0-.55-.095-.548-.532q.027-5.252,0-10.5c0-.4.121-.51.516-.51q8.08.018,16.16,0c.394,0,.519.1.518.508q-.022,5.252,0,10.5c0,.436-.129.537-.547.534C171.36,899.732,168.677,899.741,165.993,899.741Z" transform="translate(-114.273 -120.532)" fill="#7f7c82"/>
      <path id="Trazado_632418" data-name="Trazado 632418" d="M189.466,766.7q-2.709,0-5.418,0c-.68,0-1.056-.306-1.061-.837s.376-.872,1.039-.873q5.475-.007,10.95,0c.676,0,1.049.314,1.055.853s-.348.856-1.033.858C193.154,766.706,191.31,766.7,189.466,766.7Z" transform="translate(-134.01 -25.508)" fill="#030304"/>
      <path id="Trazado_632419" data-name="Trazado 632419" d="M189.473,750.182q-2.709,0-5.418,0c-.677,0-1.057-.3-1.068-.833-.011-.553.383-.878,1.088-.878q5.447,0,10.894,0c.678,0,1.052.306,1.063.843.011.561-.365.867-1.083.868Q192.211,750.185,189.473,750.182Z" transform="translate(-134.01 -12.769)" fill="#020202"/>
      <path id="Trazado_632420" data-name="Trazado 632420" d="M185.716,783.227c-.588,0-1.177.01-1.765,0s-.948-.321-.964-.818a.84.84,0,0,1,.9-.885q1.85-.032,3.7,0a.832.832,0,0,1,.879.851.843.843,0,0,1-.933.849C186.931,783.238,186.324,783.227,185.716,783.227Z" transform="translate(-134.01 -38.247)" fill="#030304"/>
    </g>
  </g>
</svg>
