<svg xmlns="http://www.w3.org/2000/svg" width="454" height="230" viewBox="0 0 454 230">
  <g id="Grupo_968871" data-name="Grupo 968871" transform="translate(-810 -10404)">
    <rect id="Rectángulo_307077" data-name="Rectángulo 307077" width="454" height="230" rx="12" transform="translate(810 10404)" fill="#fff"/>
    <g id="Grupo_963177" data-name="Grupo 963177" transform="translate(-7.435 586.276)">
      <g id="Grupo_963175" data-name="Grupo 963175">
        <path id="Trazado_634732" data-name="Trazado 634732" d="M-8019.893-1698h312.263" transform="translate(8959 11678)" fill="none" stroke="#636363" stroke-width="1"/>
        <path id="Trazado_634733" data-name="Trazado 634733" d="M-8019.893-1698h312.263" transform="translate(8959 11656)" fill="none" stroke="#636363" stroke-width="1"/>
        <path id="Trazado_634734" data-name="Trazado 634734" d="M-8019.893-1698h312.263" transform="translate(8959 11634)" fill="none" stroke="#636363" stroke-width="1"/>
        <path id="Trazado_634735" data-name="Trazado 634735" d="M-8019.893-1698h312.263" transform="translate(8959 11612)" fill="none" stroke="#636363" stroke-width="1"/>
        <path id="Trazado_634736" data-name="Trazado 634736" d="M-8019.893-1698h312.263" transform="translate(8959 11590)" fill="none" stroke="#636363" stroke-width="1"/>
        <path id="Trazado_634737" data-name="Trazado 634737" d="M-8019.893-1698h312.263" transform="translate(8959 11568)" fill="none" stroke="#636363" stroke-width="1"/>
        <path id="Trazado_634738" data-name="Trazado 634738" d="M-8019.893-1698h312.263" transform="translate(8959 11542)" fill="none" stroke="#636363" stroke-width="1"/>
      </g>
      <path id="Trazado_637121" data-name="Trazado 637121" d="M13.626,15H7.1v-.909l3.445-3.828a8.185,8.185,0,0,0,1.056-1.412A2.356,2.356,0,0,0,11.9,7.727a1.786,1.786,0,0,0-.472-1.278,1.649,1.649,0,0,0-1.258-.5A1.953,1.953,0,0,0,8.7,6.486a2.05,2.05,0,0,0-.523,1.494H6.913A2.936,2.936,0,0,1,7.8,5.758a3.282,3.282,0,0,1,2.369-.848,3.153,3.153,0,0,1,2.194.728,2.483,2.483,0,0,1,.807,1.938q0,1.47-1.873,3.5L8.629,13.968h5Zm7.581-4.245a5.784,5.784,0,0,1-.759,3.3,2.7,2.7,0,0,1-2.372,1.08,2.718,2.718,0,0,1-2.358-1.056,5.49,5.49,0,0,1-.793-3.155V9.237a5.655,5.655,0,0,1,.759-3.261A2.719,2.719,0,0,1,18.063,4.91a2.744,2.744,0,0,1,2.365,1.029,5.458,5.458,0,0,1,.779,3.175ZM19.942,9.025a4.634,4.634,0,0,0-.451-2.341,1.553,1.553,0,0,0-1.429-.735,1.532,1.532,0,0,0-1.415.731,4.525,4.525,0,0,0-.458,2.249v2.023a4.708,4.708,0,0,0,.468,2.382,1.55,1.55,0,0,0,1.418.769,1.529,1.529,0,0,0,1.391-.725,4.538,4.538,0,0,0,.475-2.283ZM26.983,15H25.712V6.571l-2.55.937V6.359L26.785,5h.2Zm9.741-7.355a2.311,2.311,0,0,1-.393,1.326,2.674,2.674,0,0,1-1.063.909,2.853,2.853,0,0,1,1.234.978,2.46,2.46,0,0,1,.455,1.456,2.6,2.6,0,0,1-.872,2.058,3.821,3.821,0,0,1-4.594,0,2.613,2.613,0,0,1-.865-2.054,2.533,2.533,0,0,1,.441-1.456,2.744,2.744,0,0,1,1.22-.984,2.608,2.608,0,0,1-1.046-.909,2.344,2.344,0,0,1-.383-1.319,2.573,2.573,0,0,1,.807-2,3.425,3.425,0,0,1,4.249,0A2.567,2.567,0,0,1,36.725,7.645Zm-1.032,4.642a1.834,1.834,0,0,0-.53-1.36,1.879,1.879,0,0,0-1.384-.526,1.78,1.78,0,0,0-1.887,1.887,1.767,1.767,0,0,0,.5,1.333,2.245,2.245,0,0,0,2.792,0A1.763,1.763,0,0,0,35.692,12.286Zm-1.9-6.337a1.632,1.632,0,0,0-1.207.461,1.7,1.7,0,0,0-.461,1.254,1.687,1.687,0,0,0,.455,1.227,1.806,1.806,0,0,0,2.427,0,1.687,1.687,0,0,0,.455-1.227,1.687,1.687,0,0,0-.472-1.237A1.609,1.609,0,0,0,33.792,5.949Z" transform="translate(948.5 10010.974)" fill="#12263f"/>
      <path id="Trazado_637120" data-name="Trazado 637120" d="M20.667,12.437a1.423,1.423,0,0,0-.441-1.06,3.944,3.944,0,0,0-1.487-.779,4.766,4.766,0,0,1-2.123-1.159,2.555,2.555,0,0,1-.667-1.815A2.628,2.628,0,0,1,16.6,5.785,2.774,2.774,0,0,1,18.4,4.931v-1.5h1.019v1.5A2.635,2.635,0,0,1,21.2,5.9a3.464,3.464,0,0,1,.639,2.208H20.585a2.381,2.381,0,0,0-.458-1.536A1.5,1.5,0,0,0,18.89,6a1.707,1.707,0,0,0-1.244.421A1.567,1.567,0,0,0,17.215,7.6a1.432,1.432,0,0,0,.455,1.113,4.188,4.188,0,0,0,1.5.753,6.3,6.3,0,0,1,1.627.746,2.617,2.617,0,0,1,.861.947,2.737,2.737,0,0,1,.277,1.265,2.534,2.534,0,0,1-.694,1.859,3.077,3.077,0,0,1-1.945.834v1.306H18.281V15.116a2.948,2.948,0,0,1-1.993-.906,3.056,3.056,0,0,1-.721-2.143h1.265a2.012,2.012,0,0,0,.5,1.463,1.884,1.884,0,0,0,1.415.513,2.123,2.123,0,0,0,1.408-.431A1.454,1.454,0,0,0,20.667,12.437ZM29.93,5.758,25.808,15H24.481L28.59,6.086H23.2V5.047H29.93Zm7.677,5a5.784,5.784,0,0,1-.759,3.3,2.7,2.7,0,0,1-2.372,1.08,2.718,2.718,0,0,1-2.358-1.056,5.49,5.49,0,0,1-.793-3.155V9.237a5.655,5.655,0,0,1,.759-3.261A2.719,2.719,0,0,1,34.462,4.91a2.744,2.744,0,0,1,2.365,1.029,5.458,5.458,0,0,1,.779,3.175ZM36.342,9.025a4.634,4.634,0,0,0-.451-2.341,1.553,1.553,0,0,0-1.429-.735,1.532,1.532,0,0,0-1.415.731,4.525,4.525,0,0,0-.458,2.249v2.023a4.708,4.708,0,0,0,.468,2.382,1.55,1.55,0,0,0,1.418.769,1.529,1.529,0,0,0,1.391-.725,4.538,4.538,0,0,0,.475-2.283Zm3.042,5.312a.792.792,0,0,1,.195-.547.742.742,0,0,1,.584-.219.765.765,0,0,1,.591.219.776.776,0,0,1,.2.547.734.734,0,0,1-.2.526.778.778,0,0,1-.591.212.7.7,0,0,1-.779-.738Zm9.769-3.582a5.784,5.784,0,0,1-.759,3.3,3.153,3.153,0,0,1-4.73.024,5.49,5.49,0,0,1-.793-3.155V9.237a5.655,5.655,0,0,1,.759-3.261,3.21,3.21,0,0,1,4.744-.038,5.458,5.458,0,0,1,.779,3.175ZM47.888,9.025a4.634,4.634,0,0,0-.451-2.341,1.553,1.553,0,0,0-1.429-.735,1.532,1.532,0,0,0-1.415.731,4.525,4.525,0,0,0-.458,2.249v2.023a4.708,4.708,0,0,0,.468,2.382,1.55,1.55,0,0,0,1.418.769,1.529,1.529,0,0,0,1.391-.725,4.538,4.538,0,0,0,.475-2.283Zm9.126,1.729a5.784,5.784,0,0,1-.759,3.3,3.153,3.153,0,0,1-4.73.024,5.49,5.49,0,0,1-.793-3.155V9.237a5.655,5.655,0,0,1,.759-3.261,3.21,3.21,0,0,1,4.744-.038,5.458,5.458,0,0,1,.779,3.175ZM55.749,9.025A4.634,4.634,0,0,0,55.3,6.684a1.553,1.553,0,0,0-1.429-.735,1.532,1.532,0,0,0-1.415.731A4.525,4.525,0,0,0,52,8.93v2.023a4.708,4.708,0,0,0,.468,2.382,1.55,1.55,0,0,0,1.418.769,1.529,1.529,0,0,0,1.391-.725,4.538,4.538,0,0,0,.475-2.283Zm9.126,1.729a5.784,5.784,0,0,1-.759,3.3,3.153,3.153,0,0,1-4.73.024,5.49,5.49,0,0,1-.793-3.155V9.237a5.655,5.655,0,0,1,.759-3.261A3.21,3.21,0,0,1,64.1,5.939a5.458,5.458,0,0,1,.779,3.175ZM63.61,9.025a4.634,4.634,0,0,0-.451-2.341,1.553,1.553,0,0,0-1.429-.735,1.532,1.532,0,0,0-1.415.731,4.525,4.525,0,0,0-.458,2.249v2.023a4.708,4.708,0,0,0,.468,2.382,1.55,1.55,0,0,0,1.418.769,1.529,1.529,0,0,0,1.391-.725A4.538,4.538,0,0,0,63.61,11.1Zm2.974,7.957-.718-.492a3.3,3.3,0,0,0,.67-1.846V13.5h1.237v.991a3.114,3.114,0,0,1-.338,1.381A3.233,3.233,0,0,1,66.584,16.982Zm8.9-6.228a5.784,5.784,0,0,1-.759,3.3,3.153,3.153,0,0,1-4.73.024,5.49,5.49,0,0,1-.793-3.155V9.237a5.655,5.655,0,0,1,.759-3.261,3.21,3.21,0,0,1,4.744-.038,5.458,5.458,0,0,1,.779,3.175ZM74.22,9.025a4.634,4.634,0,0,0-.451-2.341,1.553,1.553,0,0,0-1.429-.735,1.532,1.532,0,0,0-1.415.731,4.525,4.525,0,0,0-.458,2.249v2.023a4.708,4.708,0,0,0,.468,2.382,1.55,1.55,0,0,0,1.418.769,1.529,1.529,0,0,0,1.391-.725A4.538,4.538,0,0,0,74.22,11.1Zm9.126,1.729a5.784,5.784,0,0,1-.759,3.3,3.153,3.153,0,0,1-4.73.024,5.49,5.49,0,0,1-.793-3.155V9.237a5.655,5.655,0,0,1,.759-3.261,3.21,3.21,0,0,1,4.744-.038,5.458,5.458,0,0,1,.779,3.175ZM82.081,9.025a4.634,4.634,0,0,0-.451-2.341A1.553,1.553,0,0,0,80.2,5.949a1.532,1.532,0,0,0-1.415.731,4.525,4.525,0,0,0-.458,2.249v2.023a4.708,4.708,0,0,0,.468,2.382,1.55,1.55,0,0,0,1.418.769,1.529,1.529,0,0,0,1.391-.725,4.538,4.538,0,0,0,.475-2.283Zm9.126,1.729a5.784,5.784,0,0,1-.759,3.3,3.153,3.153,0,0,1-4.73.024,5.49,5.49,0,0,1-.793-3.155V9.237a5.655,5.655,0,0,1,.759-3.261,3.21,3.21,0,0,1,4.744-.038,5.458,5.458,0,0,1,.779,3.175ZM89.942,9.025a4.634,4.634,0,0,0-.451-2.341,1.553,1.553,0,0,0-1.429-.735,1.532,1.532,0,0,0-1.415.731,4.525,4.525,0,0,0-.458,2.249v2.023a4.708,4.708,0,0,0,.468,2.382,1.55,1.55,0,0,0,1.418.769,1.529,1.529,0,0,0,1.391-.725,4.538,4.538,0,0,0,.475-2.283ZM20.667,34.437a1.423,1.423,0,0,0-.441-1.06,3.944,3.944,0,0,0-1.487-.779,4.766,4.766,0,0,1-2.123-1.159,2.555,2.555,0,0,1-.667-1.815,2.628,2.628,0,0,1,.653-1.839,2.774,2.774,0,0,1,1.794-.854v-1.5h1.019v1.5A2.635,2.635,0,0,1,21.2,27.9a3.464,3.464,0,0,1,.639,2.208H20.585a2.381,2.381,0,0,0-.458-1.536A1.5,1.5,0,0,0,18.89,28a1.707,1.707,0,0,0-1.244.421,1.567,1.567,0,0,0-.431,1.174,1.432,1.432,0,0,0,.455,1.113,4.188,4.188,0,0,0,1.5.753,6.3,6.3,0,0,1,1.627.746,2.617,2.617,0,0,1,.861.947,2.737,2.737,0,0,1,.277,1.265,2.534,2.534,0,0,1-.694,1.859,3.077,3.077,0,0,1-1.945.834v1.306H18.281V37.116a2.948,2.948,0,0,1-1.993-.906,3.056,3.056,0,0,1-.721-2.143h1.265a2.012,2.012,0,0,0,.5,1.463,1.884,1.884,0,0,0,1.415.513,2.123,2.123,0,0,0,1.408-.431A1.454,1.454,0,0,0,20.667,34.437Zm7.8-7.4v1.073h-.232a3.33,3.33,0,0,0-2.352.875,3.641,3.641,0,0,0-1.012,2.386,2.7,2.7,0,0,1,2.146-.9,2.581,2.581,0,0,1,2.075.916,4.014,4.014,0,0,1-.062,4.826,2.883,2.883,0,0,1-2.246.923,2.841,2.841,0,0,1-2.317-1.1,4.348,4.348,0,0,1-.889-2.827v-.485a6.552,6.552,0,0,1,1.172-4.2,4.306,4.306,0,0,1,3.49-1.487Zm-1.661,4.484a2.125,2.125,0,0,0-1.955,1.367v.465a3.265,3.265,0,0,0,.554,1.982,1.659,1.659,0,0,0,1.381.752,1.608,1.608,0,0,0,1.343-.629,3.021,3.021,0,0,0-.007-3.305A1.589,1.589,0,0,0,26.806,31.524Zm10.8,1.23a5.784,5.784,0,0,1-.759,3.3,2.7,2.7,0,0,1-2.372,1.08,2.718,2.718,0,0,1-2.358-1.056,5.49,5.49,0,0,1-.793-3.155V31.237a5.655,5.655,0,0,1,.759-3.261,2.719,2.719,0,0,1,2.379-1.066,2.744,2.744,0,0,1,2.365,1.029,5.458,5.458,0,0,1,.779,3.175Zm-1.265-1.729a4.634,4.634,0,0,0-.451-2.341,1.553,1.553,0,0,0-1.429-.735,1.532,1.532,0,0,0-1.415.731,4.525,4.525,0,0,0-.458,2.249v2.023a4.708,4.708,0,0,0,.468,2.382,1.55,1.55,0,0,0,1.418.769,1.529,1.529,0,0,0,1.391-.725,4.538,4.538,0,0,0,.475-2.283Zm3.042,5.312a.792.792,0,0,1,.195-.547.742.742,0,0,1,.584-.219.765.765,0,0,1,.591.219.776.776,0,0,1,.2.547.734.734,0,0,1-.2.526.778.778,0,0,1-.591.212.7.7,0,0,1-.779-.738Zm9.769-3.582a5.784,5.784,0,0,1-.759,3.3,3.153,3.153,0,0,1-4.73.024,5.49,5.49,0,0,1-.793-3.155V31.237a5.655,5.655,0,0,1,.759-3.261,3.21,3.21,0,0,1,4.744-.038,5.458,5.458,0,0,1,.779,3.175Zm-1.265-1.729a4.634,4.634,0,0,0-.451-2.341,1.553,1.553,0,0,0-1.429-.735,1.532,1.532,0,0,0-1.415.731,4.525,4.525,0,0,0-.458,2.249v2.023a4.708,4.708,0,0,0,.468,2.382,1.55,1.55,0,0,0,1.418.769,1.529,1.529,0,0,0,1.391-.725,4.538,4.538,0,0,0,.475-2.283Zm9.126,1.729a5.784,5.784,0,0,1-.759,3.3,3.153,3.153,0,0,1-4.73.024,5.49,5.49,0,0,1-.793-3.155V31.237a5.655,5.655,0,0,1,.759-3.261,3.21,3.21,0,0,1,4.744-.038,5.458,5.458,0,0,1,.779,3.175Zm-1.265-1.729a4.634,4.634,0,0,0-.451-2.341,1.553,1.553,0,0,0-1.429-.735,1.532,1.532,0,0,0-1.415.731A4.525,4.525,0,0,0,52,30.93v2.023a4.708,4.708,0,0,0,.468,2.382,1.55,1.55,0,0,0,1.418.769,1.529,1.529,0,0,0,1.391-.725,4.538,4.538,0,0,0,.475-2.283Zm9.126,1.729a5.784,5.784,0,0,1-.759,3.3,3.153,3.153,0,0,1-4.73.024,5.49,5.49,0,0,1-.793-3.155V31.237a5.655,5.655,0,0,1,.759-3.261,3.21,3.21,0,0,1,4.744-.038,5.458,5.458,0,0,1,.779,3.175ZM63.61,31.025a4.634,4.634,0,0,0-.451-2.341,1.553,1.553,0,0,0-1.429-.735,1.532,1.532,0,0,0-1.415.731,4.525,4.525,0,0,0-.458,2.249v2.023a4.708,4.708,0,0,0,.468,2.382,1.55,1.55,0,0,0,1.418.769,1.529,1.529,0,0,0,1.391-.725A4.538,4.538,0,0,0,63.61,33.1Zm2.974,7.957-.718-.492a3.3,3.3,0,0,0,.67-1.846V35.5h1.237v.991a3.114,3.114,0,0,1-.338,1.381A3.233,3.233,0,0,1,66.584,38.982Zm8.9-6.228a5.784,5.784,0,0,1-.759,3.3,3.153,3.153,0,0,1-4.73.024,5.49,5.49,0,0,1-.793-3.155V31.237a5.655,5.655,0,0,1,.759-3.261,3.21,3.21,0,0,1,4.744-.038,5.458,5.458,0,0,1,.779,3.175ZM74.22,31.025a4.634,4.634,0,0,0-.451-2.341,1.553,1.553,0,0,0-1.429-.735,1.532,1.532,0,0,0-1.415.731,4.525,4.525,0,0,0-.458,2.249v2.023a4.708,4.708,0,0,0,.468,2.382,1.55,1.55,0,0,0,1.418.769,1.529,1.529,0,0,0,1.391-.725A4.538,4.538,0,0,0,74.22,33.1Zm9.126,1.729a5.784,5.784,0,0,1-.759,3.3,3.153,3.153,0,0,1-4.73.024,5.49,5.49,0,0,1-.793-3.155V31.237a5.655,5.655,0,0,1,.759-3.261,3.21,3.21,0,0,1,4.744-.038,5.458,5.458,0,0,1,.779,3.175Zm-1.265-1.729a4.634,4.634,0,0,0-.451-2.341,1.553,1.553,0,0,0-1.429-.735,1.532,1.532,0,0,0-1.415.731,4.525,4.525,0,0,0-.458,2.249v2.023a4.708,4.708,0,0,0,.468,2.382,1.55,1.55,0,0,0,1.418.769,1.529,1.529,0,0,0,1.391-.725,4.538,4.538,0,0,0,.475-2.283Zm9.126,1.729a5.784,5.784,0,0,1-.759,3.3,3.153,3.153,0,0,1-4.73.024,5.49,5.49,0,0,1-.793-3.155V31.237a5.655,5.655,0,0,1,.759-3.261,3.21,3.21,0,0,1,4.744-.038,5.458,5.458,0,0,1,.779,3.175Zm-1.265-1.729a4.634,4.634,0,0,0-.451-2.341,1.553,1.553,0,0,0-1.429-.735,1.532,1.532,0,0,0-1.415.731,4.525,4.525,0,0,0-.458,2.249v2.023a4.708,4.708,0,0,0,.468,2.382,1.55,1.55,0,0,0,1.418.769,1.529,1.529,0,0,0,1.391-.725,4.538,4.538,0,0,0,.475-2.283ZM20.667,56.437a1.423,1.423,0,0,0-.441-1.06,3.944,3.944,0,0,0-1.487-.779,4.766,4.766,0,0,1-2.123-1.159,2.555,2.555,0,0,1-.667-1.815,2.628,2.628,0,0,1,.653-1.839,2.774,2.774,0,0,1,1.794-.854v-1.5h1.019v1.5A2.635,2.635,0,0,1,21.2,49.9a3.464,3.464,0,0,1,.639,2.208H20.585a2.381,2.381,0,0,0-.458-1.536A1.5,1.5,0,0,0,18.89,50a1.707,1.707,0,0,0-1.244.421,1.567,1.567,0,0,0-.431,1.174,1.432,1.432,0,0,0,.455,1.113,4.188,4.188,0,0,0,1.5.753,6.3,6.3,0,0,1,1.627.746,2.617,2.617,0,0,1,.861.947,2.737,2.737,0,0,1,.277,1.265,2.534,2.534,0,0,1-.694,1.859,3.077,3.077,0,0,1-1.945.834v1.306H18.281V59.116a2.948,2.948,0,0,1-1.993-.906,3.056,3.056,0,0,1-.721-2.143h1.265a2.012,2.012,0,0,0,.5,1.463,1.884,1.884,0,0,0,1.415.513,2.123,2.123,0,0,0,1.408-.431A1.454,1.454,0,0,0,20.667,56.437Zm3.418-2.427.506-4.963h5.1v1.169H25.664l-.3,2.714a3.212,3.212,0,0,1,1.661-.431,2.746,2.746,0,0,1,2.16.9,3.523,3.523,0,0,1,.8,2.43,3.4,3.4,0,0,1-.831,2.423,3.027,3.027,0,0,1-2.321.885,3.146,3.146,0,0,1-2.153-.731,2.919,2.919,0,0,1-.95-2.023h1.2a2.009,2.009,0,0,0,.608,1.289,1.892,1.892,0,0,0,1.3.434,1.706,1.706,0,0,0,1.384-.6,2.515,2.515,0,0,0,.5-1.661,2.308,2.308,0,0,0-.543-1.6,1.849,1.849,0,0,0-1.446-.6,2.085,2.085,0,0,0-1.3.362l-.335.273Zm13.521.745a5.784,5.784,0,0,1-.759,3.3,2.7,2.7,0,0,1-2.372,1.08,2.718,2.718,0,0,1-2.358-1.056,5.49,5.49,0,0,1-.793-3.155V53.237a5.655,5.655,0,0,1,.759-3.261,2.719,2.719,0,0,1,2.379-1.066,2.744,2.744,0,0,1,2.365,1.029,5.458,5.458,0,0,1,.779,3.175Zm-1.265-1.729a4.634,4.634,0,0,0-.451-2.341,1.553,1.553,0,0,0-1.429-.735,1.532,1.532,0,0,0-1.415.731,4.525,4.525,0,0,0-.458,2.249v2.023a4.708,4.708,0,0,0,.468,2.382,1.55,1.55,0,0,0,1.418.769,1.529,1.529,0,0,0,1.391-.725,4.538,4.538,0,0,0,.475-2.283Zm3.042,5.312a.792.792,0,0,1,.195-.547.742.742,0,0,1,.584-.219.765.765,0,0,1,.591.219.776.776,0,0,1,.2.547.734.734,0,0,1-.2.526.778.778,0,0,1-.591.212.7.7,0,0,1-.779-.738Zm9.769-3.582a5.784,5.784,0,0,1-.759,3.3,3.153,3.153,0,0,1-4.73.024,5.49,5.49,0,0,1-.793-3.155V53.237a5.655,5.655,0,0,1,.759-3.261,3.21,3.21,0,0,1,4.744-.038,5.458,5.458,0,0,1,.779,3.175Zm-1.265-1.729a4.634,4.634,0,0,0-.451-2.341,1.553,1.553,0,0,0-1.429-.735,1.532,1.532,0,0,0-1.415.731,4.525,4.525,0,0,0-.458,2.249v2.023a4.708,4.708,0,0,0,.468,2.382,1.55,1.55,0,0,0,1.418.769,1.529,1.529,0,0,0,1.391-.725,4.538,4.538,0,0,0,.475-2.283Zm9.126,1.729a5.784,5.784,0,0,1-.759,3.3,3.153,3.153,0,0,1-4.73.024,5.49,5.49,0,0,1-.793-3.155V53.237a5.655,5.655,0,0,1,.759-3.261,3.21,3.21,0,0,1,4.744-.038,5.458,5.458,0,0,1,.779,3.175Zm-1.265-1.729a4.634,4.634,0,0,0-.451-2.341,1.553,1.553,0,0,0-1.429-.735,1.532,1.532,0,0,0-1.415.731A4.525,4.525,0,0,0,52,52.93v2.023a4.708,4.708,0,0,0,.468,2.382,1.55,1.55,0,0,0,1.418.769,1.529,1.529,0,0,0,1.391-.725,4.538,4.538,0,0,0,.475-2.283Zm9.126,1.729a5.784,5.784,0,0,1-.759,3.3,3.153,3.153,0,0,1-4.73.024,5.49,5.49,0,0,1-.793-3.155V53.237a5.655,5.655,0,0,1,.759-3.261,3.21,3.21,0,0,1,4.744-.038,5.458,5.458,0,0,1,.779,3.175ZM63.61,53.025a4.634,4.634,0,0,0-.451-2.341,1.553,1.553,0,0,0-1.429-.735,1.532,1.532,0,0,0-1.415.731,4.525,4.525,0,0,0-.458,2.249v2.023a4.708,4.708,0,0,0,.468,2.382,1.55,1.55,0,0,0,1.418.769,1.529,1.529,0,0,0,1.391-.725A4.538,4.538,0,0,0,63.61,55.1Zm2.974,7.957-.718-.492a3.3,3.3,0,0,0,.67-1.846V57.5h1.237v.991a3.114,3.114,0,0,1-.338,1.381A3.233,3.233,0,0,1,66.584,60.982Zm8.9-6.228a5.784,5.784,0,0,1-.759,3.3,3.153,3.153,0,0,1-4.73.024,5.49,5.49,0,0,1-.793-3.155V53.237a5.655,5.655,0,0,1,.759-3.261,3.21,3.21,0,0,1,4.744-.038,5.458,5.458,0,0,1,.779,3.175ZM74.22,53.025a4.634,4.634,0,0,0-.451-2.341,1.553,1.553,0,0,0-1.429-.735,1.532,1.532,0,0,0-1.415.731,4.525,4.525,0,0,0-.458,2.249v2.023a4.708,4.708,0,0,0,.468,2.382,1.55,1.55,0,0,0,1.418.769,1.529,1.529,0,0,0,1.391-.725A4.538,4.538,0,0,0,74.22,55.1Zm9.126,1.729a5.784,5.784,0,0,1-.759,3.3,3.153,3.153,0,0,1-4.73.024,5.49,5.49,0,0,1-.793-3.155V53.237a5.655,5.655,0,0,1,.759-3.261,3.21,3.21,0,0,1,4.744-.038,5.458,5.458,0,0,1,.779,3.175Zm-1.265-1.729a4.634,4.634,0,0,0-.451-2.341,1.553,1.553,0,0,0-1.429-.735,1.532,1.532,0,0,0-1.415.731,4.525,4.525,0,0,0-.458,2.249v2.023a4.708,4.708,0,0,0,.468,2.382,1.55,1.55,0,0,0,1.418.769,1.529,1.529,0,0,0,1.391-.725,4.538,4.538,0,0,0,.475-2.283Zm9.126,1.729a5.784,5.784,0,0,1-.759,3.3,3.153,3.153,0,0,1-4.73.024,5.49,5.49,0,0,1-.793-3.155V53.237a5.655,5.655,0,0,1,.759-3.261,3.21,3.21,0,0,1,4.744-.038,5.458,5.458,0,0,1,.779,3.175Zm-1.265-1.729a4.634,4.634,0,0,0-.451-2.341,1.553,1.553,0,0,0-1.429-.735,1.532,1.532,0,0,0-1.415.731,4.525,4.525,0,0,0-.458,2.249v2.023a4.708,4.708,0,0,0,.468,2.382,1.55,1.55,0,0,0,1.418.769,1.529,1.529,0,0,0,1.391-.725,4.538,4.538,0,0,0,.475-2.283ZM20.667,78.437a1.423,1.423,0,0,0-.441-1.06,3.944,3.944,0,0,0-1.487-.779,4.766,4.766,0,0,1-2.123-1.159,2.555,2.555,0,0,1-.667-1.815,2.628,2.628,0,0,1,.653-1.839,2.774,2.774,0,0,1,1.794-.854v-1.5h1.019v1.5A2.635,2.635,0,0,1,21.2,71.9a3.464,3.464,0,0,1,.639,2.208H20.585a2.381,2.381,0,0,0-.458-1.536A1.5,1.5,0,0,0,18.89,72a1.707,1.707,0,0,0-1.244.421,1.567,1.567,0,0,0-.431,1.174,1.432,1.432,0,0,0,.455,1.113,4.188,4.188,0,0,0,1.5.753,6.3,6.3,0,0,1,1.627.746,2.617,2.617,0,0,1,.861.947,2.737,2.737,0,0,1,.277,1.265,2.534,2.534,0,0,1-.694,1.859,3.077,3.077,0,0,1-1.945.834v1.306H18.281V81.116a2.948,2.948,0,0,1-1.993-.906,3.056,3.056,0,0,1-.721-2.143h1.265a2.012,2.012,0,0,0,.5,1.463,1.884,1.884,0,0,0,1.415.513,2.123,2.123,0,0,0,1.408-.431A1.454,1.454,0,0,0,20.667,78.437Zm8.176-.779h1.381v1.032H28.843V81H27.571V78.689H23.039v-.745l4.457-6.9h1.347Zm-4.368,0h3.1V72.776l-.15.273Zm13.132-.9a5.784,5.784,0,0,1-.759,3.3,2.7,2.7,0,0,1-2.372,1.08,2.718,2.718,0,0,1-2.358-1.056,5.49,5.49,0,0,1-.793-3.155V75.237a5.655,5.655,0,0,1,.759-3.261,2.719,2.719,0,0,1,2.379-1.066,2.744,2.744,0,0,1,2.365,1.029,5.458,5.458,0,0,1,.779,3.175Zm-1.265-1.729a4.634,4.634,0,0,0-.451-2.341,1.553,1.553,0,0,0-1.429-.735,1.532,1.532,0,0,0-1.415.731,4.525,4.525,0,0,0-.458,2.249v2.023a4.708,4.708,0,0,0,.468,2.382,1.55,1.55,0,0,0,1.418.769,1.529,1.529,0,0,0,1.391-.725,4.538,4.538,0,0,0,.475-2.283Zm3.042,5.312a.792.792,0,0,1,.195-.547.742.742,0,0,1,.584-.219.765.765,0,0,1,.591.219.776.776,0,0,1,.2.547.734.734,0,0,1-.2.526.778.778,0,0,1-.591.212.7.7,0,0,1-.779-.738Zm9.769-3.582a5.784,5.784,0,0,1-.759,3.3,3.153,3.153,0,0,1-4.73.024,5.49,5.49,0,0,1-.793-3.155V75.237a5.655,5.655,0,0,1,.759-3.261,3.21,3.21,0,0,1,4.744-.038,5.458,5.458,0,0,1,.779,3.175Zm-1.265-1.729a4.634,4.634,0,0,0-.451-2.341,1.553,1.553,0,0,0-1.429-.735,1.532,1.532,0,0,0-1.415.731,4.525,4.525,0,0,0-.458,2.249v2.023a4.708,4.708,0,0,0,.468,2.382,1.55,1.55,0,0,0,1.418.769,1.529,1.529,0,0,0,1.391-.725,4.538,4.538,0,0,0,.475-2.283Zm9.126,1.729a5.784,5.784,0,0,1-.759,3.3,3.153,3.153,0,0,1-4.73.024,5.49,5.49,0,0,1-.793-3.155V75.237a5.655,5.655,0,0,1,.759-3.261,3.21,3.21,0,0,1,4.744-.038,5.458,5.458,0,0,1,.779,3.175Zm-1.265-1.729a4.634,4.634,0,0,0-.451-2.341,1.553,1.553,0,0,0-1.429-.735,1.532,1.532,0,0,0-1.415.731A4.525,4.525,0,0,0,52,74.93v2.023a4.708,4.708,0,0,0,.468,2.382,1.55,1.55,0,0,0,1.418.769,1.529,1.529,0,0,0,1.391-.725,4.538,4.538,0,0,0,.475-2.283Zm9.126,1.729a5.784,5.784,0,0,1-.759,3.3,3.153,3.153,0,0,1-4.73.024,5.49,5.49,0,0,1-.793-3.155V75.237a5.655,5.655,0,0,1,.759-3.261,3.21,3.21,0,0,1,4.744-.038,5.458,5.458,0,0,1,.779,3.175ZM63.61,75.025a4.634,4.634,0,0,0-.451-2.341,1.553,1.553,0,0,0-1.429-.735,1.532,1.532,0,0,0-1.415.731,4.525,4.525,0,0,0-.458,2.249v2.023a4.708,4.708,0,0,0,.468,2.382,1.55,1.55,0,0,0,1.418.769,1.529,1.529,0,0,0,1.391-.725A4.538,4.538,0,0,0,63.61,77.1Zm2.974,7.957-.718-.492a3.3,3.3,0,0,0,.67-1.846V79.5h1.237v.991a3.114,3.114,0,0,1-.338,1.381A3.233,3.233,0,0,1,66.584,82.982Zm8.9-6.228a5.784,5.784,0,0,1-.759,3.3,3.153,3.153,0,0,1-4.73.024,5.49,5.49,0,0,1-.793-3.155V75.237a5.655,5.655,0,0,1,.759-3.261,3.21,3.21,0,0,1,4.744-.038,5.458,5.458,0,0,1,.779,3.175ZM74.22,75.025a4.634,4.634,0,0,0-.451-2.341,1.553,1.553,0,0,0-1.429-.735,1.532,1.532,0,0,0-1.415.731,4.525,4.525,0,0,0-.458,2.249v2.023a4.708,4.708,0,0,0,.468,2.382,1.55,1.55,0,0,0,1.418.769,1.529,1.529,0,0,0,1.391-.725A4.538,4.538,0,0,0,74.22,77.1Zm9.126,1.729a5.784,5.784,0,0,1-.759,3.3,3.153,3.153,0,0,1-4.73.024,5.49,5.49,0,0,1-.793-3.155V75.237a5.655,5.655,0,0,1,.759-3.261,3.21,3.21,0,0,1,4.744-.038,5.458,5.458,0,0,1,.779,3.175Zm-1.265-1.729a4.634,4.634,0,0,0-.451-2.341,1.553,1.553,0,0,0-1.429-.735,1.532,1.532,0,0,0-1.415.731,4.525,4.525,0,0,0-.458,2.249v2.023a4.708,4.708,0,0,0,.468,2.382,1.55,1.55,0,0,0,1.418.769,1.529,1.529,0,0,0,1.391-.725,4.538,4.538,0,0,0,.475-2.283Zm9.126,1.729a5.784,5.784,0,0,1-.759,3.3,3.153,3.153,0,0,1-4.73.024,5.49,5.49,0,0,1-.793-3.155V75.237a5.655,5.655,0,0,1,.759-3.261,3.21,3.21,0,0,1,4.744-.038,5.458,5.458,0,0,1,.779,3.175Zm-1.265-1.729a4.634,4.634,0,0,0-.451-2.341,1.553,1.553,0,0,0-1.429-.735,1.532,1.532,0,0,0-1.415.731,4.525,4.525,0,0,0-.458,2.249v2.023a4.708,4.708,0,0,0,.468,2.382,1.55,1.55,0,0,0,1.418.769,1.529,1.529,0,0,0,1.391-.725,4.538,4.538,0,0,0,.475-2.283ZM20.667,100.437a1.423,1.423,0,0,0-.441-1.06,3.944,3.944,0,0,0-1.487-.779,4.766,4.766,0,0,1-2.123-1.159,2.555,2.555,0,0,1-.667-1.815,2.628,2.628,0,0,1,.653-1.839,2.774,2.774,0,0,1,1.794-.854v-1.5h1.019v1.5A2.635,2.635,0,0,1,21.2,93.9a3.464,3.464,0,0,1,.639,2.208H20.585a2.381,2.381,0,0,0-.458-1.536A1.5,1.5,0,0,0,18.89,94a1.707,1.707,0,0,0-1.244.421,1.567,1.567,0,0,0-.431,1.174,1.432,1.432,0,0,0,.455,1.113,4.188,4.188,0,0,0,1.5.753,6.3,6.3,0,0,1,1.627.746,2.617,2.617,0,0,1,.861.947,2.737,2.737,0,0,1,.277,1.265,2.534,2.534,0,0,1-.694,1.859,3.077,3.077,0,0,1-1.945.834v1.306H18.281v-1.306a2.948,2.948,0,0,1-1.993-.906,3.056,3.056,0,0,1-.721-2.143h1.265a2.012,2.012,0,0,0,.5,1.463,1.884,1.884,0,0,0,1.415.513,2.123,2.123,0,0,0,1.408-.431A1.454,1.454,0,0,0,20.667,100.437Zm4.676-3.028h.95a2.088,2.088,0,0,0,1.408-.472,1.576,1.576,0,0,0,.513-1.237,1.544,1.544,0,0,0-1.743-1.75,1.813,1.813,0,0,0-1.309.468,1.639,1.639,0,0,0-.489,1.241H23.408a2.539,2.539,0,0,1,.865-1.965,3.15,3.15,0,0,1,2.2-.783,3.113,3.113,0,0,1,2.208.745,2.692,2.692,0,0,1,.8,2.071,2.185,2.185,0,0,1-.42,1.258,2.538,2.538,0,0,1-1.145.909,2.446,2.446,0,0,1,1.268.861,2.392,2.392,0,0,1,.448,1.47,2.715,2.715,0,0,1-.875,2.126,3.277,3.277,0,0,1-2.276.786,3.363,3.363,0,0,1-2.28-.759,2.517,2.517,0,0,1-.878-2h1.271a1.627,1.627,0,0,0,.513,1.258,1.95,1.95,0,0,0,1.374.472,1.914,1.914,0,0,0,1.4-.479,1.844,1.844,0,0,0,.485-1.374,1.673,1.673,0,0,0-.533-1.333,2.323,2.323,0,0,0-1.538-.479h-.95Zm12.264,1.347a5.784,5.784,0,0,1-.759,3.3,2.7,2.7,0,0,1-2.372,1.08,2.718,2.718,0,0,1-2.358-1.056,5.49,5.49,0,0,1-.793-3.155V97.237a5.655,5.655,0,0,1,.759-3.261,2.719,2.719,0,0,1,2.379-1.066,2.744,2.744,0,0,1,2.365,1.029,5.458,5.458,0,0,1,.779,3.175Zm-1.265-1.729a4.634,4.634,0,0,0-.451-2.341,1.553,1.553,0,0,0-1.429-.735,1.532,1.532,0,0,0-1.415.731,4.525,4.525,0,0,0-.458,2.249v2.023a4.708,4.708,0,0,0,.468,2.382,1.55,1.55,0,0,0,1.418.769,1.529,1.529,0,0,0,1.391-.725,4.538,4.538,0,0,0,.475-2.283Zm3.042,5.312a.792.792,0,0,1,.195-.547.742.742,0,0,1,.584-.219.765.765,0,0,1,.591.219.776.776,0,0,1,.2.547.734.734,0,0,1-.2.526.778.778,0,0,1-.591.212.7.7,0,0,1-.779-.738Zm9.769-3.582a5.784,5.784,0,0,1-.759,3.3,3.153,3.153,0,0,1-4.73.024,5.49,5.49,0,0,1-.793-3.155V97.237a5.655,5.655,0,0,1,.759-3.261,3.21,3.21,0,0,1,4.744-.038,5.458,5.458,0,0,1,.779,3.175Zm-1.265-1.729a4.634,4.634,0,0,0-.451-2.341,1.553,1.553,0,0,0-1.429-.735,1.532,1.532,0,0,0-1.415.731,4.525,4.525,0,0,0-.458,2.249v2.023a4.708,4.708,0,0,0,.468,2.382,1.55,1.55,0,0,0,1.418.769,1.529,1.529,0,0,0,1.391-.725,4.538,4.538,0,0,0,.475-2.283Zm9.126,1.729a5.784,5.784,0,0,1-.759,3.3,3.153,3.153,0,0,1-4.73.024,5.49,5.49,0,0,1-.793-3.155V97.237a5.655,5.655,0,0,1,.759-3.261,3.21,3.21,0,0,1,4.744-.038,5.458,5.458,0,0,1,.779,3.175Zm-1.265-1.729a4.634,4.634,0,0,0-.451-2.341,1.553,1.553,0,0,0-1.429-.735,1.532,1.532,0,0,0-1.415.731A4.525,4.525,0,0,0,52,96.93v2.023a4.708,4.708,0,0,0,.468,2.382,1.55,1.55,0,0,0,1.418.769,1.529,1.529,0,0,0,1.391-.725,4.538,4.538,0,0,0,.475-2.283Zm9.126,1.729a5.784,5.784,0,0,1-.759,3.3,3.153,3.153,0,0,1-4.73.024,5.49,5.49,0,0,1-.793-3.155V97.237a5.655,5.655,0,0,1,.759-3.261,3.21,3.21,0,0,1,4.744-.038,5.458,5.458,0,0,1,.779,3.175ZM63.61,97.025a4.634,4.634,0,0,0-.451-2.341,1.553,1.553,0,0,0-1.429-.735,1.532,1.532,0,0,0-1.415.731,4.525,4.525,0,0,0-.458,2.249v2.023a4.708,4.708,0,0,0,.468,2.382,1.55,1.55,0,0,0,1.418.769,1.529,1.529,0,0,0,1.391-.725A4.538,4.538,0,0,0,63.61,99.1Zm2.974,7.957-.718-.492a3.3,3.3,0,0,0,.67-1.846V101.5h1.237v.991a3.114,3.114,0,0,1-.338,1.381A3.233,3.233,0,0,1,66.584,104.982Zm8.9-6.228a5.784,5.784,0,0,1-.759,3.3,3.153,3.153,0,0,1-4.73.024,5.49,5.49,0,0,1-.793-3.155V97.237a5.655,5.655,0,0,1,.759-3.261,3.21,3.21,0,0,1,4.744-.038,5.458,5.458,0,0,1,.779,3.175ZM74.22,97.025a4.634,4.634,0,0,0-.451-2.341,1.553,1.553,0,0,0-1.429-.735,1.532,1.532,0,0,0-1.415.731,4.525,4.525,0,0,0-.458,2.249v2.023a4.708,4.708,0,0,0,.468,2.382,1.55,1.55,0,0,0,1.418.769,1.529,1.529,0,0,0,1.391-.725A4.538,4.538,0,0,0,74.22,99.1Zm9.126,1.729a5.784,5.784,0,0,1-.759,3.3,3.153,3.153,0,0,1-4.73.024,5.49,5.49,0,0,1-.793-3.155V97.237a5.655,5.655,0,0,1,.759-3.261,3.21,3.21,0,0,1,4.744-.038,5.458,5.458,0,0,1,.779,3.175Zm-1.265-1.729a4.634,4.634,0,0,0-.451-2.341,1.553,1.553,0,0,0-1.429-.735,1.532,1.532,0,0,0-1.415.731,4.525,4.525,0,0,0-.458,2.249v2.023a4.708,4.708,0,0,0,.468,2.382,1.55,1.55,0,0,0,1.418.769,1.529,1.529,0,0,0,1.391-.725,4.538,4.538,0,0,0,.475-2.283Zm9.126,1.729a5.784,5.784,0,0,1-.759,3.3,3.153,3.153,0,0,1-4.73.024,5.49,5.49,0,0,1-.793-3.155V97.237a5.655,5.655,0,0,1,.759-3.261,3.21,3.21,0,0,1,4.744-.038,5.458,5.458,0,0,1,.779,3.175Zm-1.265-1.729a4.634,4.634,0,0,0-.451-2.341,1.553,1.553,0,0,0-1.429-.735,1.532,1.532,0,0,0-1.415.731,4.525,4.525,0,0,0-.458,2.249v2.023a4.708,4.708,0,0,0,.468,2.382,1.55,1.55,0,0,0,1.418.769,1.529,1.529,0,0,0,1.391-.725,4.538,4.538,0,0,0,.475-2.283ZM20.667,122.437a1.423,1.423,0,0,0-.441-1.06,3.944,3.944,0,0,0-1.487-.779,4.766,4.766,0,0,1-2.123-1.159,2.555,2.555,0,0,1-.667-1.815,2.628,2.628,0,0,1,.653-1.839,2.774,2.774,0,0,1,1.794-.854v-1.5h1.019v1.5a2.635,2.635,0,0,1,1.788.964,3.464,3.464,0,0,1,.639,2.208H20.585a2.381,2.381,0,0,0-.458-1.536A1.5,1.5,0,0,0,18.89,116a1.707,1.707,0,0,0-1.244.421,1.567,1.567,0,0,0-.431,1.174,1.432,1.432,0,0,0,.455,1.113,4.188,4.188,0,0,0,1.5.753,6.3,6.3,0,0,1,1.627.746,2.617,2.617,0,0,1,.861.947,2.737,2.737,0,0,1,.277,1.265,2.534,2.534,0,0,1-.694,1.859,3.077,3.077,0,0,1-1.945.834v1.306H18.281v-1.306a2.948,2.948,0,0,1-1.993-.906,3.056,3.056,0,0,1-.721-2.143h1.265a2.012,2.012,0,0,0,.5,1.463,1.884,1.884,0,0,0,1.415.513,2.123,2.123,0,0,0,1.408-.431A1.454,1.454,0,0,0,20.667,122.437ZM30.025,125H23.5v-.909l3.445-3.828a8.185,8.185,0,0,0,1.056-1.412,2.356,2.356,0,0,0,.291-1.125,1.786,1.786,0,0,0-.472-1.278,1.649,1.649,0,0,0-1.258-.5,1.953,1.953,0,0,0-1.466.537,2.05,2.05,0,0,0-.523,1.494H23.313a2.936,2.936,0,0,1,.885-2.222,3.282,3.282,0,0,1,2.369-.848,3.153,3.153,0,0,1,2.194.728,2.483,2.483,0,0,1,.807,1.938q0,1.47-1.873,3.5l-2.666,2.892h5Zm7.581-4.245a5.784,5.784,0,0,1-.759,3.3,2.7,2.7,0,0,1-2.372,1.08,2.718,2.718,0,0,1-2.358-1.056,5.49,5.49,0,0,1-.793-3.155v-1.688a5.655,5.655,0,0,1,.759-3.261,2.719,2.719,0,0,1,2.379-1.066,2.744,2.744,0,0,1,2.365,1.029,5.458,5.458,0,0,1,.779,3.175Zm-1.265-1.729a4.634,4.634,0,0,0-.451-2.341,1.553,1.553,0,0,0-1.429-.735,1.532,1.532,0,0,0-1.415.731,4.525,4.525,0,0,0-.458,2.249v2.023a4.708,4.708,0,0,0,.468,2.382,1.55,1.55,0,0,0,1.418.769,1.529,1.529,0,0,0,1.391-.725,4.538,4.538,0,0,0,.475-2.283Zm3.042,5.312a.792.792,0,0,1,.195-.547.742.742,0,0,1,.584-.219.765.765,0,0,1,.591.219.776.776,0,0,1,.2.547.734.734,0,0,1-.2.526.778.778,0,0,1-.591.212.7.7,0,0,1-.779-.738Zm9.769-3.582a5.784,5.784,0,0,1-.759,3.3,3.153,3.153,0,0,1-4.73.024,5.49,5.49,0,0,1-.793-3.155v-1.688a5.655,5.655,0,0,1,.759-3.261,3.21,3.21,0,0,1,4.744-.038,5.458,5.458,0,0,1,.779,3.175Zm-1.265-1.729a4.634,4.634,0,0,0-.451-2.341,1.553,1.553,0,0,0-1.429-.735,1.532,1.532,0,0,0-1.415.731,4.525,4.525,0,0,0-.458,2.249v2.023a4.708,4.708,0,0,0,.468,2.382,1.55,1.55,0,0,0,1.418.769,1.529,1.529,0,0,0,1.391-.725,4.538,4.538,0,0,0,.475-2.283Zm9.126,1.729a5.784,5.784,0,0,1-.759,3.3,3.153,3.153,0,0,1-4.73.024,5.49,5.49,0,0,1-.793-3.155v-1.688a5.655,5.655,0,0,1,.759-3.261,3.21,3.21,0,0,1,4.744-.038,5.458,5.458,0,0,1,.779,3.175Zm-1.265-1.729a4.634,4.634,0,0,0-.451-2.341,1.553,1.553,0,0,0-1.429-.735,1.532,1.532,0,0,0-1.415.731A4.525,4.525,0,0,0,52,118.93v2.023a4.708,4.708,0,0,0,.468,2.382,1.55,1.55,0,0,0,1.418.769,1.529,1.529,0,0,0,1.391-.725,4.538,4.538,0,0,0,.475-2.283Zm9.126,1.729a5.784,5.784,0,0,1-.759,3.3,3.153,3.153,0,0,1-4.73.024,5.49,5.49,0,0,1-.793-3.155v-1.688a5.655,5.655,0,0,1,.759-3.261,3.21,3.21,0,0,1,4.744-.038,5.458,5.458,0,0,1,.779,3.175Zm-1.265-1.729a4.634,4.634,0,0,0-.451-2.341,1.553,1.553,0,0,0-1.429-.735,1.532,1.532,0,0,0-1.415.731,4.525,4.525,0,0,0-.458,2.249v2.023a4.708,4.708,0,0,0,.468,2.382,1.55,1.55,0,0,0,1.418.769,1.529,1.529,0,0,0,1.391-.725,4.538,4.538,0,0,0,.475-2.283Zm2.974,7.957-.718-.492a3.3,3.3,0,0,0,.67-1.846V123.5h1.237v.991a3.114,3.114,0,0,1-.338,1.381A3.233,3.233,0,0,1,66.584,126.982Zm8.9-6.228a5.784,5.784,0,0,1-.759,3.3,3.153,3.153,0,0,1-4.73.024,5.49,5.49,0,0,1-.793-3.155v-1.688a5.655,5.655,0,0,1,.759-3.261,3.21,3.21,0,0,1,4.744-.038,5.458,5.458,0,0,1,.779,3.175Zm-1.265-1.729a4.634,4.634,0,0,0-.451-2.341,1.553,1.553,0,0,0-1.429-.735,1.532,1.532,0,0,0-1.415.731,4.525,4.525,0,0,0-.458,2.249v2.023a4.708,4.708,0,0,0,.468,2.382,1.55,1.55,0,0,0,1.418.769,1.529,1.529,0,0,0,1.391-.725,4.538,4.538,0,0,0,.475-2.283Zm9.126,1.729a5.784,5.784,0,0,1-.759,3.3,3.153,3.153,0,0,1-4.73.024,5.49,5.49,0,0,1-.793-3.155v-1.688a5.655,5.655,0,0,1,.759-3.261,3.21,3.21,0,0,1,4.744-.038,5.458,5.458,0,0,1,.779,3.175Zm-1.265-1.729a4.634,4.634,0,0,0-.451-2.341,1.553,1.553,0,0,0-1.429-.735,1.532,1.532,0,0,0-1.415.731,4.525,4.525,0,0,0-.458,2.249v2.023a4.708,4.708,0,0,0,.468,2.382,1.55,1.55,0,0,0,1.418.769,1.529,1.529,0,0,0,1.391-.725,4.538,4.538,0,0,0,.475-2.283Zm9.126,1.729a5.784,5.784,0,0,1-.759,3.3,3.153,3.153,0,0,1-4.73.024,5.49,5.49,0,0,1-.793-3.155v-1.688a5.655,5.655,0,0,1,.759-3.261,3.21,3.21,0,0,1,4.744-.038,5.458,5.458,0,0,1,.779,3.175Zm-1.265-1.729a4.634,4.634,0,0,0-.451-2.341,1.553,1.553,0,0,0-1.429-.735,1.532,1.532,0,0,0-1.415.731,4.525,4.525,0,0,0-.458,2.249v2.023a4.708,4.708,0,0,0,.468,2.382,1.55,1.55,0,0,0,1.418.769,1.529,1.529,0,0,0,1.391-.725,4.538,4.538,0,0,0,.475-2.283ZM20.667,144.437a1.423,1.423,0,0,0-.441-1.06,3.944,3.944,0,0,0-1.487-.779,4.766,4.766,0,0,1-2.123-1.159,2.555,2.555,0,0,1-.667-1.815,2.628,2.628,0,0,1,.653-1.839,2.774,2.774,0,0,1,1.794-.854v-1.5h1.019v1.5a2.634,2.634,0,0,1,1.788.964,3.464,3.464,0,0,1,.639,2.208H20.585a2.381,2.381,0,0,0-.458-1.536A1.5,1.5,0,0,0,18.89,138a1.707,1.707,0,0,0-1.244.421,1.567,1.567,0,0,0-.431,1.174,1.432,1.432,0,0,0,.455,1.113,4.188,4.188,0,0,0,1.5.753,6.3,6.3,0,0,1,1.627.746,2.617,2.617,0,0,1,.861.947,2.737,2.737,0,0,1,.277,1.265,2.534,2.534,0,0,1-.694,1.859,3.077,3.077,0,0,1-1.945.834v1.306H18.281v-1.306a2.948,2.948,0,0,1-1.993-.906,3.056,3.056,0,0,1-.721-2.143h1.265a2.012,2.012,0,0,0,.5,1.463,1.884,1.884,0,0,0,1.415.513,2.123,2.123,0,0,0,1.408-.431A1.454,1.454,0,0,0,20.667,144.437ZM27.66,147H26.389v-8.429l-2.55.937v-1.148L27.462,137h.2Zm9.946-4.245a5.784,5.784,0,0,1-.759,3.3,2.7,2.7,0,0,1-2.372,1.08,2.718,2.718,0,0,1-2.358-1.056,5.49,5.49,0,0,1-.793-3.155v-1.688a5.655,5.655,0,0,1,.759-3.261,2.719,2.719,0,0,1,2.379-1.066,2.744,2.744,0,0,1,2.365,1.029,5.458,5.458,0,0,1,.779,3.175Zm-1.265-1.729a4.634,4.634,0,0,0-.451-2.341,1.553,1.553,0,0,0-1.429-.735,1.532,1.532,0,0,0-1.415.731,4.525,4.525,0,0,0-.458,2.249v2.023a4.708,4.708,0,0,0,.468,2.382,1.55,1.55,0,0,0,1.418.769,1.529,1.529,0,0,0,1.391-.725,4.538,4.538,0,0,0,.475-2.283Zm3.042,5.312a.792.792,0,0,1,.195-.547.742.742,0,0,1,.584-.219.765.765,0,0,1,.591.219.776.776,0,0,1,.2.547.734.734,0,0,1-.2.526.778.778,0,0,1-.591.212.7.7,0,0,1-.779-.738Zm9.769-3.582a5.784,5.784,0,0,1-.759,3.3,3.153,3.153,0,0,1-4.73.024,5.49,5.49,0,0,1-.793-3.155v-1.688a5.655,5.655,0,0,1,.759-3.261,3.21,3.21,0,0,1,4.744-.038,5.458,5.458,0,0,1,.779,3.175Zm-1.265-1.729a4.634,4.634,0,0,0-.451-2.341,1.553,1.553,0,0,0-1.429-.735,1.532,1.532,0,0,0-1.415.731,4.525,4.525,0,0,0-.458,2.249v2.023a4.708,4.708,0,0,0,.468,2.382,1.55,1.55,0,0,0,1.418.769,1.529,1.529,0,0,0,1.391-.725,4.538,4.538,0,0,0,.475-2.283Zm9.126,1.729a5.784,5.784,0,0,1-.759,3.3,3.153,3.153,0,0,1-4.73.024,5.49,5.49,0,0,1-.793-3.155v-1.688a5.655,5.655,0,0,1,.759-3.261,3.21,3.21,0,0,1,4.744-.038,5.458,5.458,0,0,1,.779,3.175Zm-1.265-1.729a4.634,4.634,0,0,0-.451-2.341,1.553,1.553,0,0,0-1.429-.735,1.532,1.532,0,0,0-1.415.731A4.525,4.525,0,0,0,52,140.93v2.023a4.708,4.708,0,0,0,.468,2.382,1.55,1.55,0,0,0,1.418.769,1.529,1.529,0,0,0,1.391-.725,4.538,4.538,0,0,0,.475-2.283Zm9.126,1.729a5.784,5.784,0,0,1-.759,3.3,3.153,3.153,0,0,1-4.73.024,5.49,5.49,0,0,1-.793-3.155v-1.688a5.655,5.655,0,0,1,.759-3.261,3.21,3.21,0,0,1,4.744-.038,5.458,5.458,0,0,1,.779,3.175Zm-1.265-1.729a4.634,4.634,0,0,0-.451-2.341,1.553,1.553,0,0,0-1.429-.735,1.532,1.532,0,0,0-1.415.731,4.525,4.525,0,0,0-.458,2.249v2.023a4.708,4.708,0,0,0,.468,2.382,1.55,1.55,0,0,0,1.418.769,1.529,1.529,0,0,0,1.391-.725,4.538,4.538,0,0,0,.475-2.283Zm2.974,7.957-.718-.492a3.3,3.3,0,0,0,.67-1.846V145.5h1.237v.991a3.114,3.114,0,0,1-.338,1.381A3.233,3.233,0,0,1,66.584,148.982Zm8.9-6.228a5.784,5.784,0,0,1-.759,3.3,3.153,3.153,0,0,1-4.73.024,5.49,5.49,0,0,1-.793-3.155v-1.688a5.655,5.655,0,0,1,.759-3.261,3.21,3.21,0,0,1,4.744-.038,5.458,5.458,0,0,1,.779,3.175Zm-1.265-1.729a4.634,4.634,0,0,0-.451-2.341,1.553,1.553,0,0,0-1.429-.735,1.532,1.532,0,0,0-1.415.731,4.525,4.525,0,0,0-.458,2.249v2.023a4.708,4.708,0,0,0,.468,2.382,1.55,1.55,0,0,0,1.418.769,1.529,1.529,0,0,0,1.391-.725,4.538,4.538,0,0,0,.475-2.283Zm9.126,1.729a5.784,5.784,0,0,1-.759,3.3,3.153,3.153,0,0,1-4.73.024,5.49,5.49,0,0,1-.793-3.155v-1.688a5.655,5.655,0,0,1,.759-3.261,3.21,3.21,0,0,1,4.744-.038,5.458,5.458,0,0,1,.779,3.175Zm-1.265-1.729a4.634,4.634,0,0,0-.451-2.341,1.553,1.553,0,0,0-1.429-.735,1.532,1.532,0,0,0-1.415.731,4.525,4.525,0,0,0-.458,2.249v2.023a4.708,4.708,0,0,0,.468,2.382,1.55,1.55,0,0,0,1.418.769,1.529,1.529,0,0,0,1.391-.725,4.538,4.538,0,0,0,.475-2.283Zm9.126,1.729a5.784,5.784,0,0,1-.759,3.3,3.153,3.153,0,0,1-4.73.024,5.49,5.49,0,0,1-.793-3.155v-1.688a5.655,5.655,0,0,1,.759-3.261,3.21,3.21,0,0,1,4.744-.038,5.458,5.458,0,0,1,.779,3.175Zm-1.265-1.729a4.634,4.634,0,0,0-.451-2.341,1.553,1.553,0,0,0-1.429-.735,1.532,1.532,0,0,0-1.415.731,4.525,4.525,0,0,0-.458,2.249v2.023a4.708,4.708,0,0,0,.468,2.382,1.55,1.55,0,0,0,1.418.769,1.529,1.529,0,0,0,1.391-.725,4.538,4.538,0,0,0,.475-2.283Zm-7.813,25.411a1.423,1.423,0,0,0-.441-1.06A3.944,3.944,0,0,0,80.2,164.6a4.766,4.766,0,0,1-2.123-1.159,2.555,2.555,0,0,1-.667-1.815,2.628,2.628,0,0,1,.653-1.839,2.774,2.774,0,0,1,1.794-.854v-1.5h1.019v1.5a2.634,2.634,0,0,1,1.788.964,3.464,3.464,0,0,1,.639,2.208H82.047a2.381,2.381,0,0,0-.458-1.536A1.5,1.5,0,0,0,80.352,160a1.707,1.707,0,0,0-1.244.421,1.567,1.567,0,0,0-.431,1.174,1.432,1.432,0,0,0,.455,1.113,4.188,4.188,0,0,0,1.5.753,6.3,6.3,0,0,1,1.627.746,2.617,2.617,0,0,1,.861.947,2.737,2.737,0,0,1,.277,1.265,2.534,2.534,0,0,1-.694,1.859,3.077,3.077,0,0,1-1.945.834v1.306H79.743v-1.306a2.948,2.948,0,0,1-1.993-.906,3.056,3.056,0,0,1-.721-2.143h1.265a2.012,2.012,0,0,0,.5,1.463,1.884,1.884,0,0,0,1.415.513,2.123,2.123,0,0,0,1.408-.431A1.454,1.454,0,0,0,82.129,166.437Zm9.078-1.682a5.784,5.784,0,0,1-.759,3.3,3.153,3.153,0,0,1-4.73.024,5.49,5.49,0,0,1-.793-3.155v-1.688a5.655,5.655,0,0,1,.759-3.261,3.21,3.21,0,0,1,4.744-.038,5.458,5.458,0,0,1,.779,3.175Zm-1.265-1.729a4.634,4.634,0,0,0-.451-2.341,1.553,1.553,0,0,0-1.429-.735,1.532,1.532,0,0,0-1.415.731,4.525,4.525,0,0,0-.458,2.249v2.023a4.708,4.708,0,0,0,.468,2.382,1.55,1.55,0,0,0,1.418.769,1.529,1.529,0,0,0,1.391-.725,4.538,4.538,0,0,0,.475-2.283Z" transform="translate(837.5 9835.474)" fill="#12263f"/>
      <path id="Trazado_637122" data-name="Trazado 637122" d="M13.626,15H7.1v-.909l3.445-3.828a8.185,8.185,0,0,0,1.056-1.412A2.356,2.356,0,0,0,11.9,7.727a1.786,1.786,0,0,0-.472-1.278,1.649,1.649,0,0,0-1.258-.5A1.953,1.953,0,0,0,8.7,6.486a2.05,2.05,0,0,0-.523,1.494H6.913A2.936,2.936,0,0,1,7.8,5.758a3.282,3.282,0,0,1,2.369-.848,3.153,3.153,0,0,1,2.194.728,2.483,2.483,0,0,1,.807,1.938q0,1.47-1.873,3.5L8.629,13.968h5Zm7.581-4.245a5.784,5.784,0,0,1-.759,3.3,2.7,2.7,0,0,1-2.372,1.08,2.718,2.718,0,0,1-2.358-1.056,5.49,5.49,0,0,1-.793-3.155V9.237a5.655,5.655,0,0,1,.759-3.261A2.719,2.719,0,0,1,18.063,4.91a2.744,2.744,0,0,1,2.365,1.029,5.458,5.458,0,0,1,.779,3.175ZM19.942,9.025a4.634,4.634,0,0,0-.451-2.341,1.553,1.553,0,0,0-1.429-.735,1.532,1.532,0,0,0-1.415.731,4.525,4.525,0,0,0-.458,2.249v2.023a4.708,4.708,0,0,0,.468,2.382,1.55,1.55,0,0,0,1.418.769,1.529,1.529,0,0,0,1.391-.725,4.538,4.538,0,0,0,.475-2.283ZM26.983,15H25.712V6.571l-2.55.937V6.359L26.785,5h.2Zm8.552-4.375a3.094,3.094,0,0,1-.947.759,2.569,2.569,0,0,1-1.207.287,2.652,2.652,0,0,1-1.5-.424,2.755,2.755,0,0,1-.988-1.193,4.067,4.067,0,0,1-.349-1.7,4.143,4.143,0,0,1,.379-1.8A2.787,2.787,0,0,1,32,5.334a3.07,3.07,0,0,1,1.627-.424,2.78,2.78,0,0,1,2.328,1.1,4.815,4.815,0,0,1,.851,3.011v.369a6.434,6.434,0,0,1-1.148,4.242,4.412,4.412,0,0,1-3.466,1.371h-.246V13.934h.267a3.482,3.482,0,0,0,2.406-.815A3.5,3.5,0,0,0,35.535,10.625Zm-1.948,0a1.953,1.953,0,0,0,1.172-.39,2.3,2.3,0,0,0,.783-.964V8.766A3.48,3.48,0,0,0,35,6.742a1.651,1.651,0,0,0-2.707-.14,2.637,2.637,0,0,0-.506,1.685,2.744,2.744,0,0,0,.489,1.678A1.548,1.548,0,0,0,33.587,10.625Z" transform="translate(1010 10010.974)" fill="#12263f"/>
      <path id="Trazado_637123" data-name="Trazado 637123" d="M13.626,15H7.1v-.909l3.445-3.828a8.185,8.185,0,0,0,1.056-1.412A2.356,2.356,0,0,0,11.9,7.727a1.786,1.786,0,0,0-.472-1.278,1.649,1.649,0,0,0-1.258-.5A1.953,1.953,0,0,0,8.7,6.486a2.05,2.05,0,0,0-.523,1.494H6.913A2.936,2.936,0,0,1,7.8,5.758a3.282,3.282,0,0,1,2.369-.848,3.153,3.153,0,0,1,2.194.728,2.483,2.483,0,0,1,.807,1.938q0,1.47-1.873,3.5L8.629,13.968h5Zm7.581-4.245a5.784,5.784,0,0,1-.759,3.3,2.7,2.7,0,0,1-2.372,1.08,2.718,2.718,0,0,1-2.358-1.056,5.49,5.49,0,0,1-.793-3.155V9.237a5.655,5.655,0,0,1,.759-3.261A2.719,2.719,0,0,1,18.063,4.91a2.744,2.744,0,0,1,2.365,1.029,5.458,5.458,0,0,1,.779,3.175ZM19.942,9.025a4.634,4.634,0,0,0-.451-2.341,1.553,1.553,0,0,0-1.429-.735,1.532,1.532,0,0,0-1.415.731,4.525,4.525,0,0,0-.458,2.249v2.023a4.708,4.708,0,0,0,.468,2.382,1.55,1.55,0,0,0,1.418.769,1.529,1.529,0,0,0,1.391-.725,4.538,4.538,0,0,0,.475-2.283ZM29.349,15H22.827v-.909l3.445-3.828a8.185,8.185,0,0,0,1.056-1.412,2.356,2.356,0,0,0,.291-1.125,1.786,1.786,0,0,0-.472-1.278,1.649,1.649,0,0,0-1.258-.5,1.953,1.953,0,0,0-1.466.537A2.05,2.05,0,0,0,23.9,7.979H22.636a2.936,2.936,0,0,1,.885-2.222A3.282,3.282,0,0,1,25.89,4.91a3.153,3.153,0,0,1,2.194.728,2.483,2.483,0,0,1,.807,1.938q0,1.47-1.873,3.5l-2.666,2.892h5Zm7.581-4.245a5.784,5.784,0,0,1-.759,3.3,2.7,2.7,0,0,1-2.372,1.08,2.718,2.718,0,0,1-2.358-1.056,5.49,5.49,0,0,1-.793-3.155V9.237a5.655,5.655,0,0,1,.759-3.261A2.719,2.719,0,0,1,33.785,4.91,2.744,2.744,0,0,1,36.15,5.939a5.458,5.458,0,0,1,.779,3.175ZM35.665,9.025a4.634,4.634,0,0,0-.451-2.341,1.553,1.553,0,0,0-1.429-.735,1.532,1.532,0,0,0-1.415.731,4.525,4.525,0,0,0-.458,2.249v2.023a4.708,4.708,0,0,0,.468,2.382A1.55,1.55,0,0,0,33.8,14.1a1.529,1.529,0,0,0,1.391-.725,4.538,4.538,0,0,0,.475-2.283Z" transform="translate(1073.5 10010.974)" fill="#12263f"/>
      <path id="Trazado_637124" data-name="Trazado 637124" d="M13.626,15H7.1v-.909l3.445-3.828a8.185,8.185,0,0,0,1.056-1.412A2.356,2.356,0,0,0,11.9,7.727a1.786,1.786,0,0,0-.472-1.278,1.649,1.649,0,0,0-1.258-.5A1.953,1.953,0,0,0,8.7,6.486a2.05,2.05,0,0,0-.523,1.494H6.913A2.936,2.936,0,0,1,7.8,5.758a3.282,3.282,0,0,1,2.369-.848,3.153,3.153,0,0,1,2.194.728,2.483,2.483,0,0,1,.807,1.938q0,1.47-1.873,3.5L8.629,13.968h5Zm7.581-4.245a5.784,5.784,0,0,1-.759,3.3,2.7,2.7,0,0,1-2.372,1.08,2.718,2.718,0,0,1-2.358-1.056,5.49,5.49,0,0,1-.793-3.155V9.237a5.655,5.655,0,0,1,.759-3.261A2.719,2.719,0,0,1,18.063,4.91a2.744,2.744,0,0,1,2.365,1.029,5.458,5.458,0,0,1,.779,3.175ZM19.942,9.025a4.634,4.634,0,0,0-.451-2.341,1.553,1.553,0,0,0-1.429-.735,1.532,1.532,0,0,0-1.415.731,4.525,4.525,0,0,0-.458,2.249v2.023a4.708,4.708,0,0,0,.468,2.382,1.55,1.55,0,0,0,1.418.769,1.529,1.529,0,0,0,1.391-.725,4.538,4.538,0,0,0,.475-2.283ZM29.349,15H22.827v-.909l3.445-3.828a8.185,8.185,0,0,0,1.056-1.412,2.356,2.356,0,0,0,.291-1.125,1.786,1.786,0,0,0-.472-1.278,1.649,1.649,0,0,0-1.258-.5,1.953,1.953,0,0,0-1.466.537A2.05,2.05,0,0,0,23.9,7.979H22.636a2.936,2.936,0,0,1,.885-2.222A3.282,3.282,0,0,1,25.89,4.91a3.153,3.153,0,0,1,2.194.728,2.483,2.483,0,0,1,.807,1.938q0,1.47-1.873,3.5l-2.666,2.892h5Zm5.5,0H33.573V6.571l-2.55.937V6.359L34.646,5h.2Z" transform="translate(1135 10010.974)" fill="#12263f"/>
      <path id="Trazado_637125" data-name="Trazado 637125" d="M13.626,15H7.1v-.909l3.445-3.828a8.185,8.185,0,0,0,1.056-1.412A2.356,2.356,0,0,0,11.9,7.727a1.786,1.786,0,0,0-.472-1.278,1.649,1.649,0,0,0-1.258-.5A1.953,1.953,0,0,0,8.7,6.486a2.05,2.05,0,0,0-.523,1.494H6.913A2.936,2.936,0,0,1,7.8,5.758a3.282,3.282,0,0,1,2.369-.848,3.153,3.153,0,0,1,2.194.728,2.483,2.483,0,0,1,.807,1.938q0,1.47-1.873,3.5L8.629,13.968h5Zm7.581-4.245a5.784,5.784,0,0,1-.759,3.3,2.7,2.7,0,0,1-2.372,1.08,2.718,2.718,0,0,1-2.358-1.056,5.49,5.49,0,0,1-.793-3.155V9.237a5.655,5.655,0,0,1,.759-3.261A2.719,2.719,0,0,1,18.063,4.91a2.744,2.744,0,0,1,2.365,1.029,5.458,5.458,0,0,1,.779,3.175ZM19.942,9.025a4.634,4.634,0,0,0-.451-2.341,1.553,1.553,0,0,0-1.429-.735,1.532,1.532,0,0,0-1.415.731,4.525,4.525,0,0,0-.458,2.249v2.023a4.708,4.708,0,0,0,.468,2.382,1.55,1.55,0,0,0,1.418.769,1.529,1.529,0,0,0,1.391-.725,4.538,4.538,0,0,0,.475-2.283ZM29.349,15H22.827v-.909l3.445-3.828a8.185,8.185,0,0,0,1.056-1.412,2.356,2.356,0,0,0,.291-1.125,1.786,1.786,0,0,0-.472-1.278,1.649,1.649,0,0,0-1.258-.5,1.953,1.953,0,0,0-1.466.537A2.05,2.05,0,0,0,23.9,7.979H22.636a2.936,2.936,0,0,1,.885-2.222A3.282,3.282,0,0,1,25.89,4.91a3.153,3.153,0,0,1,2.194.728,2.483,2.483,0,0,1,.807,1.938q0,1.47-1.873,3.5l-2.666,2.892h5Zm7.861,0H30.688v-.909l3.445-3.828A8.185,8.185,0,0,0,35.19,8.851a2.356,2.356,0,0,0,.291-1.125,1.786,1.786,0,0,0-.472-1.278,1.649,1.649,0,0,0-1.258-.5,1.953,1.953,0,0,0-1.466.537,2.05,2.05,0,0,0-.523,1.494H30.5a2.936,2.936,0,0,1,.885-2.222,3.282,3.282,0,0,1,2.369-.848,3.153,3.153,0,0,1,2.194.728,2.483,2.483,0,0,1,.807,1.938q0,1.47-1.873,3.5l-2.666,2.892h5Z" transform="translate(1196.5 10010.974)" fill="#12263f"/>
      <g id="Grupo_963176" data-name="Grupo 963176">
        <g id="Grupo_963174" data-name="Grupo 963174">
          <rect id="Rectángulo_307072" data-name="Rectángulo 307072" width="33" height="67" transform="translate(953 9935)" fill="#f0bd51"/>
          <rect id="Rectángulo_307073" data-name="Rectángulo 307073" width="33" height="88" transform="translate(1016 9914)" fill="#f0bd51"/>
          <rect id="Rectángulo_307074" data-name="Rectángulo 307074" width="33" height="101" transform="translate(1079 9901)" fill="#f0bd51"/>
          <rect id="Rectángulo_307075" data-name="Rectángulo 307075" width="33" height="110" transform="translate(1142 9892)" fill="#f0bd51"/>
          <rect id="Rectángulo_307076" data-name="Rectángulo 307076" width="33" height="132" transform="translate(1205 9870)" fill="#f0bd51"/>
        </g>
        <path id="Trazado_634739" data-name="Trazado 634739" d="M-8019.893-1698h312.263" transform="translate(8959 11700)" fill="none" stroke="#636363" stroke-width="1"/>
      </g>
    </g>
  </g>
</svg>
