<svg xmlns="http://www.w3.org/2000/svg" width="72.948" height="70.64" viewBox="0 0 72.948 70.64">
  <g id="Grupo_957410" data-name="Grupo 957410" transform="translate(364.599 -12.128)">
    <path id="Trazado_632438" data-name="Trazado 632438" d="M-339.254,87.1h-3.12c-.2-.883-.484-1.113-1.434-1.113q-6.188,0-12.376,0c-.925,0-.926,0-.926-.943q0-32.249,0-64.5c0-.92,0-.921.948-.921q18.955,0,37.91,0c.236,0,.472.02.708.031q0,6.148,0,12.295c0,.27.11.576-.159.8a2.264,2.264,0,0,0-1.107-.171q-9.1,0-18.191,0a4.247,4.247,0,0,0-.638.017.971.971,0,0,0-.876.886,1,1,0,0,0,.586,1.107,1.721,1.721,0,0,0,.833.127q9.167,0,18.333.005a2.055,2.055,0,0,0,1.207-.323q.007,2.861.014,5.723c-.1.054-.206.114-.314.16a22.336,22.336,0,0,0-7.959,5.576,1.53,1.53,0,0,1-1.272.554c-3.389-.021-6.778-.007-10.167-.014-.644,0-1.12.209-1.255.888-.145.725.37,1.247,1.24,1.249,2.868.007,5.735,0,8.6.008.193,0,.418-.1.611.112a22.513,22.513,0,0,0-3.781,11.144c-.026.407-.229.431-.547.429q-2.417-.015-4.835,0c-.821,0-1.318.416-1.322,1.068s.476,1.061,1.307,1.064q2.417.008,4.835,0c.313,0,.537,0,.556.419a25.445,25.445,0,0,0,1.234,6.246c-.377.571-.009,1.138.059,1.686.138,1.114.411,2.211.628,3.315q-3.51.017-7.021.037a3.434,3.434,0,0,0-.842.079.953.953,0,0,0-.743,1.066.955.955,0,0,0,.874.961,5.9,5.9,0,0,0,.779.027q3.97.025,7.94.047a21.72,21.72,0,0,0,7.024,8.733c.419.313,1.036.4,1.238.988-.26.009-.52.026-.781.026q-8.183,0-16.366,0C-338.774,85.983-339.059,86.213-339.254,87.1ZM-353.182,29.39c0,.877-.017,1.755,0,2.631a2.576,2.576,0,0,0,2.69,2.686q2.6.03,5.193,0a2.586,2.586,0,0,0,2.72-2.726q.017-2.027,0-4.054c-.007-.8-.078-1.574.712-2.156a.884.884,0,0,0,.046-1.289A.872.872,0,0,0-343,24.139a1.341,1.341,0,0,1-1.459.06,2.622,2.622,0,0,0-.907-.126q-2.525-.017-5.051,0a2.588,2.588,0,0,0-2.76,2.759C-353.194,27.682-353.182,28.536-353.182,29.39Zm5.324,19.143c.854,0,1.708.006,2.562,0a2.569,2.569,0,0,0,2.72-2.716q.018-2.027,0-4.054c-.007-.8-.085-1.578.709-2.159a.876.876,0,0,0,.046-1.286c-.276-.367-.74-.633-1.113-.362a1.5,1.5,0,0,1-1.655.04,1.5,1.5,0,0,0-.56-.089c-1.826-.006-3.653-.044-5.478.009a2.51,2.51,0,0,0-2.546,2.6c-.032,1.825-.036,3.652.005,5.477a2.529,2.529,0,0,0,2.606,2.538C-349.661,48.545-348.759,48.532-347.858,48.533Zm5.283,22.321c0-.9.015-1.8,0-2.7a2.519,2.519,0,0,0-2.573-2.559c-1.8-.017-3.6-.014-5.4,0a2.493,2.493,0,0,0-2.61,2.516q-.063,2.772,0,5.545a2.478,2.478,0,0,0,2.532,2.522q2.773.049,5.547,0a2.506,2.506,0,0,0,2.51-2.548C-342.559,72.7-342.575,71.778-342.575,70.854Zm0-13.784c0-.948.022-1.9-.005-2.844a2.439,2.439,0,0,0-2.308-2.438q-2.983-.1-5.971,0a2.364,2.364,0,0,0-2.284,2.3q-.089,2.948,0,5.9a2.443,2.443,0,0,0,2.465,2.358q2.809.041,5.618,0a2.508,2.508,0,0,0,2.485-2.5C-342.558,58.919-342.577,57.995-342.578,57.07ZM-335.8,70.1c-.544,0-1.089-.021-1.632.005a1.058,1.058,0,0,0-1.108,1.049,1.047,1.047,0,0,0,1.089,1.07c1.111.031,2.224.033,3.334,0a1.025,1.025,0,0,0,1.066-1.084A1.046,1.046,0,0,0-334.17,70.1C-334.713,70.08-335.258,70.1-335.8,70.1Zm-.005-11.718v.006h1.562c.047,0,.095,0,.142,0a1.008,1.008,0,0,0,1.044-.953.98.98,0,0,0-.914-1.14c-1.2-.057-2.412-.056-3.616-.007a1,1,0,0,0-.944,1.122.989.989,0,0,0,1.023.973C-336.944,58.4-336.375,58.383-335.807,58.383Zm.04-13.823h1.491c.047,0,.095,0,.142,0a1.061,1.061,0,0,0,1.08-1,1.037,1.037,0,0,0-1.029-1.121c-1.135-.034-2.271-.032-3.406,0a1.045,1.045,0,0,0-1.049,1.108,1.038,1.038,0,0,0,1.068,1.008C-336.9,44.575-336.335,44.557-335.767,44.559Zm-.022-15.953c-.544,0-1.089-.013-1.632,0a1.055,1.055,0,0,0-1.12,1.034,1.05,1.05,0,0,0,1.073,1.087q1.667.041,3.335,0a1.044,1.044,0,0,0,1.08-1.075,1.052,1.052,0,0,0-1.1-1.046C-334.7,28.592-335.245,28.606-335.789,28.606Z" transform="translate(-5.354 -5.355)" fill="#f5f1ef"/>
    <path id="Trazado_632439" data-name="Trazado 632439" d="M-284.18,104.723q-3.97-.023-7.94-.047a5.9,5.9,0,0,1-.779-.027.955.955,0,0,1-.874-.961.954.954,0,0,1,.743-1.066,3.435,3.435,0,0,1,.842-.079q3.51-.025,7.021-.037h1.9a27.738,27.738,0,0,1-2.592-5,25.443,25.443,0,0,1-1.234-6.246c-.019-.417-.244-.421-.556-.419q-2.417.014-4.835,0c-.831,0-1.312-.4-1.307-1.064s.5-1.064,1.322-1.068q2.417-.011,4.835,0c.318,0,.52-.021.547-.429A22.512,22.512,0,0,1-283.3,77.14c-.194-.209-.418-.111-.611-.112-2.868-.008-5.735,0-8.6-.008-.87,0-1.385-.524-1.24-1.249.135-.679.611-.889,1.255-.888,3.389.007,6.778-.007,10.167.014a1.53,1.53,0,0,0,1.272-.554,22.336,22.336,0,0,1,7.959-5.576c.108-.045.21-.106.314-.16a24.88,24.88,0,0,1,3.6-1.053c.487-.084.588-.287.582-.741-.024-1.989-.015-3.978-.008-5.968,0-.891.248-1.179,1.1-1.369a1.12,1.12,0,0,1,1.036,1.28c-.012,1.9.017,3.794-.017,5.689-.01.54.125.665.669.639a21.95,21.95,0,0,1,18.1,7.253c5.874,6.45,7.649,14.056,4.976,22.363-2.707,8.41-8.68,13.5-17.3,15.423a18.317,18.317,0,0,1-5.8.348c-.485-.048-.686.062-.639.583a7.849,7.849,0,0,1-.014,1.349,2.4,2.4,0,0,1-2.232,2.191c-.212.015-.427.012-.64.012q-11.844,0-23.688,0c-.97,0-1.188-.161-1.43-1.021.194-.884.48-1.113,1.432-1.113q8.183,0,16.366,0c.26,0,.52-.017.781-.026,1.848.009,3.7.046,5.545.021,2.084-.029,1.7.45,1.759-1.886a.447.447,0,0,0-.421-.527,22.4,22.4,0,0,1-12.327-7.117.667.667,0,0,0-.549-.262C-282.666,104.7-283.423,104.708-284.18,104.723Zm23.091,5.353,0,.011c.258-.025.521-.031.775-.079a20.658,20.658,0,0,0,16.528-19.278,20.184,20.184,0,0,0-9.023-17.983,18.2,18.2,0,0,0-8.448-3.293,18.81,18.81,0,0,0-6.642.018,20.662,20.662,0,0,0-16.939,22.936,20.193,20.193,0,0,0,12.182,16.252,19.018,19.018,0,0,0,11.108,1.506C-261.384,110.181-261.22,110.214-261.089,110.076Z" transform="translate(-50.11 -33.845)" fill="#030304"/>
    <path id="Trazado_632440" data-name="Trazado 632440" d="M-322.9,14.3c-.236-.011-.472-.031-.708-.031q-18.955,0-37.91,0c-.947,0-.948,0-.948.921q0,32.249,0,64.5c0,.942,0,.943.926.943q6.188,0,12.376,0c.95,0,1.236.23,1.434,1.113a1.131,1.131,0,0,1-1.29,1.027c-4.339-.011-8.679,0-13.018-.01a2.428,2.428,0,0,1-2.561-2.607q0-32.717,0-65.434a2.43,2.43,0,0,1,2.584-2.583q21.413-.009,42.826,0A2.407,2.407,0,0,1-316.6,14.7c.019,2.157-.011,4.315.014,6.472a1.219,1.219,0,0,1-1.045,1.371c-.9-.28-1.1-.528-1.1-1.462,0-2.052-.011-4.105.006-6.158,0-.471-.123-.687-.638-.67C-320.539,14.295-321.718,14.287-322.9,14.3Z" transform="translate(0 0)" fill="#020202"/>
    <path id="Trazado_632441" data-name="Trazado 632441" d="M-218.778,19.629c1.179-.011,2.358,0,3.536-.04.515-.017.641.2.638.67-.017,2.052-.01,4.105-.006,6.158,0,.934.2,1.182,1.1,1.462q0,1.542,0,3.085c-.855.19-1.1.477-1.1,1.369-.008,1.989-.016,3.979.008,5.968.006.454-.095.658-.582.741a24.879,24.879,0,0,0-3.6,1.053q-.007-2.861-.014-5.723a1.19,1.19,0,0,0-.147-1.65c.268-.222.158-.529.159-.8Q-218.772,25.777-218.778,19.629Z" transform="translate(-104.12 -5.332)" fill="#e3e0e4"/>
    <path id="Trazado_632442" data-name="Trazado 632442" d="M-343.353,40.4c0-.854-.012-1.707,0-2.561a2.588,2.588,0,0,1,2.76-2.759q2.526-.018,5.051,0a2.622,2.622,0,0,1,.907.126,1.341,1.341,0,0,0,1.459-.06.872.872,0,0,1,1.184.346.884.884,0,0,1-.046,1.289c-.79.582-.719,1.354-.712,2.156q.018,2.027,0,4.054a2.586,2.586,0,0,1-2.72,2.726q-2.6.026-5.193,0a2.576,2.576,0,0,1-2.69-2.686C-343.37,42.156-343.353,41.279-343.353,40.4Zm5.6-3.16c-.922-.009-1.845-.006-2.767-.03-.532-.014-.7.243-.7.739q.019,2.449,0,4.9c0,.5.171.755.7.743.922-.021,1.845-.022,2.767-.031.734.01,1.469.022,2.2.029.376,0,.661-.118.663-.557,0-1.056,0-2.112,0-3.3-1.071.91-1.834,1.949-2.869,2.693a1.142,1.142,0,0,1-1-.222c-.367-.33-.716-.682-1.062-1.035-.57-.579-.648-1.137-.24-1.617.429-.5,1.029-.518,1.662.036.317.278.476.189.648-.108l2.1-2.241Z" transform="translate(-15.183 -16.367)" fill="#030304"/>
    <path id="Trazado_632443" data-name="Trazado 632443" d="M-338.051,94.208c-.9,0-1.8.012-2.7,0a2.529,2.529,0,0,1-2.606-2.538c-.041-1.825-.037-3.652-.005-5.477a2.51,2.51,0,0,1,2.546-2.6c1.825-.053,3.652-.015,5.478-.009a1.5,1.5,0,0,1,.56.089,1.5,1.5,0,0,0,1.655-.04c.373-.271.836,0,1.113.362a.876.876,0,0,1-.046,1.286c-.794.581-.716,1.357-.709,2.159q.017,2.027,0,4.054a2.569,2.569,0,0,1-2.72,2.716C-336.344,94.214-337.2,94.208-338.051,94.208Zm.283-3.279a1.287,1.287,0,0,1-1.116-.316c-.332-.337-.674-.663-1-1a1.079,1.079,0,0,1-.134-1.622,1.032,1.032,0,0,1,1.565.061c.32.3.5.264.7-.084l2.08-2.224h-2.1l-2.765-.035c-.458-.006-.7.182-.7.675q.017,2.519,0,5.038c0,.488.224.671.7.658.922-.024,1.844-.019,2.766-.027l2.26.023c.317,0,.588-.093.593-.454.016-1.091.006-2.182.006-3.381C-335.982,89.143-336.749,90.172-337.769,90.929Z" transform="translate(-15.16 -51.031)" fill="#020202"/>
    <path id="Trazado_632444" data-name="Trazado 632444" d="M-332.769,186.057c0,.925.016,1.849,0,2.773a2.506,2.506,0,0,1-2.51,2.548q-2.772.054-5.547,0a2.478,2.478,0,0,1-2.532-2.522q-.059-2.772,0-5.545a2.493,2.493,0,0,1,2.61-2.516c1.8-.013,3.6-.016,5.4,0a2.519,2.519,0,0,1,2.573,2.559C-332.754,184.255-332.769,185.156-332.769,186.057Zm-5-3.1c-.946-.01-1.892-.011-2.838-.033-.41-.009-.628.151-.628.572q0,2.591,0,5.182c0,.372.172.575.559.57l2.907-.036c.757.012,1.514.023,2.271.037.413.008.6-.183.6-.6q-.013-2.559,0-5.117c0-.415-.172-.611-.6-.6C-336.255,182.945-337.013,182.949-337.77,182.958Z" transform="translate(-15.16 -120.558)" fill="#030304"/>
    <path id="Trazado_632445" data-name="Trazado 632445" d="M-332.758,137.575c0,.925.02,1.849,0,2.773a2.508,2.508,0,0,1-2.485,2.5q-2.809.041-5.618,0a2.443,2.443,0,0,1-2.465-2.358q-.086-2.948,0-5.9a2.364,2.364,0,0,1,2.284-2.3q2.983-.095,5.971,0a2.439,2.439,0,0,1,2.308,2.438C-332.736,135.678-332.758,136.627-332.758,137.575Zm-5,3.118c.757.009,1.514.014,2.27.029.421.009.6-.191.6-.6q-.009-2.556,0-5.113c0-.421-.189-.615-.6-.61-.756.008-1.513.023-2.269.034-.945-.013-1.89-.023-2.835-.04-.447-.008-.637.206-.635.649q.012,2.519,0,5.038c0,.434.164.659.629.648C-339.648,140.7-338.7,140.7-337.756,140.693Z" transform="translate(-15.173 -85.86)" fill="#030304"/>
    <path id="Trazado_632446" data-name="Trazado 632446" d="M-258.32,218.005c.757-.015,1.513-.025,2.27-.05a.667.667,0,0,1,.549.262,22.4,22.4,0,0,0,12.327,7.117.447.447,0,0,1,.421.527c-.054,2.336.325,1.857-1.759,1.886-1.848.025-3.7-.011-5.545-.021-.2-.587-.819-.676-1.238-.988A21.72,21.72,0,0,1-258.32,218.005Z" transform="translate(-75.97 -147.127)" fill="#e1dee2"/>
    <path id="Trazado_632447" data-name="Trazado 632447" d="M-271.141,65.212a1.19,1.19,0,0,1,.147,1.65,2.055,2.055,0,0,1-1.207.323q-9.167-.013-18.333-.005a1.721,1.721,0,0,1-.833-.127,1,1,0,0,1-.586-1.107.971.971,0,0,1,.876-.886,4.246,4.246,0,0,1,.638-.017q9.1,0,18.191,0A2.264,2.264,0,0,1-271.141,65.212Z" transform="translate(-51.918 -37.821)" fill="#030304"/>
    <path id="Trazado_632448" data-name="Trazado 632448" d="M-289.263,196.607c.544,0,1.089-.02,1.632,0a1.046,1.046,0,0,1,1.118,1.034,1.025,1.025,0,0,1-1.066,1.084c-1.111.035-2.224.033-3.334,0a1.047,1.047,0,0,1-1.089-1.07,1.058,1.058,0,0,1,1.108-1.049C-290.352,196.586-289.807,196.608-289.263,196.607Z" transform="translate(-51.893 -131.863)" fill="#070707"/>
    <path id="Trazado_632449" data-name="Trazado 632449" d="M-289.264,150.188c-.568,0-1.136.015-1.7,0a.989.989,0,0,1-1.023-.973,1,1,0,0,1,.944-1.122c1.2-.049,2.413-.05,3.616.007a.98.98,0,0,1,.914,1.14,1.008,1.008,0,0,1-1.044.953c-.047,0-.094,0-.142,0h-1.562Z" transform="translate(-51.897 -97.161)" fill="#070707"/>
    <path id="Trazado_632450" data-name="Trazado 632450" d="M-289.222,101.686c-.568,0-1.136.017-1.7-.006a1.038,1.038,0,0,1-1.068-1.008,1.045,1.045,0,0,1,1.049-1.108c1.135-.031,2.272-.033,3.406,0a1.037,1.037,0,0,1,1.029,1.121,1.061,1.061,0,0,1-1.08,1c-.047,0-.094,0-.142,0Z" transform="translate(-51.899 -62.483)" fill="#030304"/>
    <path id="Trazado_632451" data-name="Trazado 632451" d="M-289.246,51.115c.544,0,1.089-.015,1.632,0a1.052,1.052,0,0,1,1.1,1.046,1.044,1.044,0,0,1-1.08,1.075q-1.667.039-3.335,0A1.05,1.05,0,0,1-292,52.152a1.055,1.055,0,0,1,1.12-1.034C-290.335,51.1-289.79,51.115-289.246,51.115Z" transform="translate(-51.897 -27.864)" fill="#020202"/>
    <path id="Trazado_632452" data-name="Trazado 632452" d="M-264.611,192.821a27.736,27.736,0,0,0,2.592,5h-1.9c-.217-1.1-.49-2.2-.628-3.315C-264.62,193.959-264.988,193.392-264.611,192.821Z" transform="translate(-71.354 -129.162)" fill="#e1dee2"/>
    <path id="Trazado_632453" data-name="Trazado 632453" d="M-237.832,134.454a19.018,19.018,0,0,1-11.108-1.506A20.193,20.193,0,0,1-261.122,116.7,20.662,20.662,0,0,1-244.183,93.76a18.812,18.812,0,0,1,6.642-.018c.254.362.7.378,1.05.54a21.786,21.786,0,0,1,7.983,6.2,3.581,3.581,0,0,1,1.129,1.881c-.071-.062-.149-.117-.213-.185a17.5,17.5,0,0,0-15.944-5.553,17.72,17.72,0,0,0-14.513,14.216c-.154.938,0,1.223.862,1.585a9.87,9.87,0,0,0-.005,3.1c-.835.322-1.061.664-.936,1.421a17.711,17.711,0,0,0,24.267,13.45,19.175,19.175,0,0,0,6.3-4.4c.214.373-.121.583-.284.8a22.54,22.54,0,0,1-8.707,7.106c-.283.129-.681.09-.825.473l0-.013A.385.385,0,0,0-237.832,134.454Z" transform="translate(-73.824 -58.133)" fill="#608fcd"/>
    <path id="Trazado_632454" data-name="Trazado 632454" d="M-167.77,103.084A3.578,3.578,0,0,0-168.9,101.2a21.786,21.786,0,0,0-7.983-6.2c-.354-.163-.8-.179-1.05-.54a18.2,18.2,0,0,1,8.448,3.293,20.184,20.184,0,0,1,9.023,17.983,20.658,20.658,0,0,1-16.528,19.278c-.254.048-.517.054-.775.079.144-.382.541-.343.825-.472a22.54,22.54,0,0,0,8.707-7.106c.163-.216.5-.426.284-.8a.056.056,0,0,1,.07.05c.171-.028.189-.147.171-.287l-.017,0c.1,0,.15-.027.06-.122.067-.1.129-.2.2-.286A17.423,17.423,0,0,0-164,110.146a17.957,17.957,0,0,0-3.412-6.637l-.15-.2.007.014c0-.131-.016-.25-.173-.284Z" transform="translate(-133.433 -58.855)" fill="#3273c2"/>
    <path id="Trazado_632455" data-name="Trazado 632455" d="M-178.953,236.906a.385.385,0,0,1,.457-.091C-178.627,236.954-178.792,236.921-178.953,236.906Z" transform="translate(-132.703 -160.585)" fill="#3273c2"/>
    <path id="Trazado_632456" data-name="Trazado 632456" d="M-332.377,49.036c-.922.009-1.845.01-2.767.031-.526.012-.7-.246-.7-.743q.021-2.449,0-4.9c0-.5.166-.753.7-.739.922.025,1.845.022,2.767.03q0,1.121.006,2.241c-.173.3-.331.386-.648.108-.633-.554-1.233-.541-1.662-.036-.408.48-.329,1.037.24,1.617.346.352.695.7,1.062,1.035a1.142,1.142,0,0,0,1,.222Z" transform="translate(-20.557 -21.844)" fill="#5eb8c3"/>
    <path id="Trazado_632457" data-name="Trazado 632457" d="M-323.7,55.366V54.235c1.035-.744,1.8-1.783,2.869-2.693,0,1.184,0,2.24,0,3.3,0,.438-.287.56-.663.557C-322.23,55.388-322.964,55.376-323.7,55.366Z" transform="translate(-29.235 -28.173)" fill="#4ea4b1"/>
    <path id="Trazado_632458" data-name="Trazado 632458" d="M-323.685,45.036q0-1.121-.006-2.241h2.11Z" transform="translate(-29.242 -21.921)" fill="#4ea4b1"/>
    <path id="Trazado_632459" data-name="Trazado 632459" d="M-332.361,93.448c-.2.347-.377.382-.7.084a1.032,1.032,0,0,0-1.565-.061,1.079,1.079,0,0,0,.134,1.622c.327.341.67.667,1,1a1.287,1.287,0,0,0,1.116.316l0,1.122c-.922.007-1.845,0-2.766.027-.475.012-.7-.171-.7-.658q.012-2.519,0-5.038c0-.493.238-.681.7-.675l2.765.035Z" transform="translate(-20.558 -56.513)" fill="#5eb8c3"/>
    <path id="Trazado_632460" data-name="Trazado 632460" d="M-323.684,103.881l0-1.122c1.02-.757,1.787-1.786,2.857-2.69,0,1.2.01,2.29-.006,3.381-.005.361-.276.457-.593.454Z" transform="translate(-29.247 -62.861)" fill="#4ea4b1"/>
    <path id="Trazado_632461" data-name="Trazado 632461" d="M-323.687,93.535q-.009-1.112-.018-2.224h2.1Z" transform="translate(-29.232 -56.601)" fill="#4ea4b1"/>
    <path id="Trazado_632462" data-name="Trazado 632462" d="M-332.365,194.578l-2.907.037c-.387.005-.559-.2-.559-.57q0-2.591,0-5.182c0-.421.218-.581.628-.572.946.021,1.892.023,2.838.033Q-332.366,191.451-332.365,194.578Z" transform="translate(-20.563 -125.923)" fill="#f9e079"/>
    <path id="Trazado_632463" data-name="Trazado 632463" d="M-323.679,194.582q0-3.127,0-6.254c.757-.01,1.515-.013,2.272-.031.423-.01.6.186.6.6q-.01,2.559,0,5.117c0,.421-.183.612-.6.6C-322.165,194.6-322.922,194.594-323.679,194.582Z" transform="translate(-29.25 -125.927)" fill="#f6d255"/>
    <path id="Trazado_632464" data-name="Trazado 632464" d="M-332.37,146.071c-.946.009-1.892.009-2.837.032-.465.011-.631-.214-.629-.648q.008-2.519,0-5.038c0-.443.188-.657.635-.649.945.017,1.89.027,2.835.04Q-332.368,142.939-332.37,146.071Z" transform="translate(-20.56 -91.238)" fill="#efa74b"/>
    <path id="Trazado_632465" data-name="Trazado 632465" d="M-323.679,146.085q0-3.132,0-6.263c.756-.012,1.513-.026,2.269-.035.407,0,.6.189.6.61q-.014,2.556,0,5.113c0,.413-.174.613-.6.6C-322.165,146.1-322.922,146.094-323.679,146.085Z" transform="translate(-29.251 -91.252)" fill="#ea8c3f"/>
    <path id="Trazado_632466" data-name="Trazado 632466" d="M-247.144,128.231a9.876,9.876,0,0,1,.006-3.1c.831-.016,1.122-.545,1.261-1.27a14.989,14.989,0,0,1,6.128-9.648,14.972,14.972,0,0,1,12.395-2.6.387.387,0,0,0,.247.315,16.44,16.44,0,0,1,5.389,4.378,9.359,9.359,0,0,1,1.907,3.181,1.149,1.149,0,0,0-.976.593.985.985,0,0,0,.186,1.227,1.118,1.118,0,0,0,1.478.094c.364.026.36.353.424.577a11.939,11.939,0,0,1,.6,3.683c-.8.143-1.153.479-1.153,1.088s.357.946,1.153,1.088c-.028.49-.011.978-.074,1.473-.135,1.056-.551,2.039-.7,3.085-.664-.651-1.286-.7-1.768-.164a1.09,1.09,0,0,0,.847,1.793,1.181,1.181,0,0,1-.178.673,17.041,17.041,0,0,1-6.643,6.65c-.257.139-.667.16-.72.579a12.906,12.906,0,0,1-6.532.04c-6.548-1.63-10.575-5.768-12.022-12.371C-246.058,128.866-246.265,128.265-247.144,128.231Zm17.641-7.689c0-.83,0-1.659,0-2.489-.006-.891-.392-1.363-1.093-1.355-.683.008-1.037.449-1.04,1.318,0,1.612-.019,3.224.01,4.835a.791.791,0,0,1-.518.852,3.241,3.241,0,0,0-1.91,2.937,3.319,3.319,0,0,0,1.789,3.16,1.681,1.681,0,0,1,.64.629c.735,1.242,1.469,2.485,2.23,3.711a1.8,1.8,0,0,0,2.576.671c.457-.249.9-.519,1.345-.792a1.854,1.854,0,0,0,.718-2.834c-.707-1.2-1.433-2.4-2.15-3.593a1.465,1.465,0,0,1-.273-.784,3.268,3.268,0,0,0-1.95-3.122.6.6,0,0,1-.376-.655C-229.493,122.2-229.5,121.371-229.5,120.541Zm6.186-4.54a1.039,1.039,0,0,0-1.083-1.052,1.085,1.085,0,0,0-1.045,1.038,1.081,1.081,0,0,0,1.06,1.095A1.069,1.069,0,0,0-223.317,116Zm-1.06,20.419a1.085,1.085,0,0,0-1.07,1.087,1.085,1.085,0,0,0,1.109,1.046,1.036,1.036,0,0,0,1.02-1.045A1.066,1.066,0,0,0-224.377,136.42Zm-15.94-3.511a1.1,1.1,0,0,0-1.113-1.047,1.069,1.069,0,0,0-1.025,1.124,1.04,1.04,0,0,0,1.062,1A1.081,1.081,0,0,0-240.317,132.908Zm4.535,4.571a1.1,1.1,0,0,0-1.1-1.058,1.062,1.062,0,0,0-1.029,1.115,1.03,1.03,0,0,0,1.045,1.018A1.1,1.1,0,0,0-235.782,137.479Zm-6.2-10.763a1.055,1.055,0,0,0-1.114-1.029,1.1,1.1,0,0,0-1.028,1.065,1.1,1.1,0,0,0,1.1,1.065A1.053,1.053,0,0,0-241.984,126.716Zm.59-5.072a1.1,1.1,0,0,0,1.077-1.087,1.078,1.078,0,0,0-1.043-1.038,1.027,1.027,0,0,0-1.095,1.034A1.07,1.07,0,0,0-241.394,121.643Zm10.819,16.448a1.072,1.072,0,0,0-1.061,1.091,1.026,1.026,0,0,0,1.013,1.047,1.07,1.07,0,0,0,1.114-1.035A1.112,1.112,0,0,0-230.575,138.091Zm-6.253-21.007a1.1,1.1,0,0,0,1.045-1.118,1.107,1.107,0,0,0-1.143-1.017,1.033,1.033,0,0,0-.99,1.073A1.068,1.068,0,0,0-236.828,117.084Zm7.225-2.789a1.021,1.021,0,0,0-1.1-1.021,1.066,1.066,0,0,0-1.018,1.058,1.11,1.11,0,0,0,1.09,1.078A1.07,1.07,0,0,0-229.6,114.3Z" transform="translate(-83.873 -70.838)" fill="#f5f1ef"/>
    <path id="Trazado_632467" data-name="Trazado 632467" d="M-229.479,106.314a14.972,14.972,0,0,0-12.395,2.6A14.989,14.989,0,0,0-248,118.559c-.139.725-.43,1.254-1.261,1.27-.862-.362-1.016-.647-.862-1.585a17.72,17.72,0,0,1,14.513-14.216,17.5,17.5,0,0,1,15.944,5.553c.064.068.142.123.213.185l.046-.04c-.04.154.061.222.172.284l-.007-.014.15.2a17.956,17.956,0,0,1,3.412,6.637,17.423,17.423,0,0,1-3.464,15.932c-.073.091-.135.191-.2.286l-.06.122.017,0c-.124.056-.252.109-.171.287a.056.056,0,0,0-.07-.05,19.187,19.187,0,0,1-6.3,4.4,17.711,17.711,0,0,1-24.267-13.45c-.125-.756.1-1.1.936-1.421.879.034,1.086.635,1.246,1.366,1.447,6.6,5.474,10.742,12.022,12.371a12.906,12.906,0,0,0,6.532-.04,6.179,6.179,0,0,0,.627-.1,15.53,15.53,0,0,0,9.069-23.594A14.874,14.874,0,0,0-229.479,106.314Z" transform="translate(-81.748 -65.537)" fill="#030304"/>
    <path id="Trazado_632468" data-name="Trazado 632468" d="M-141.988,124.829c-.112-.062-.212-.13-.172-.284C-142,124.58-141.987,124.7-141.988,124.829Z" transform="translate(-158.996 -80.357)" fill="#608fcd"/>
    <path id="Trazado_632469" data-name="Trazado 632469" d="M-142.741,207.028c-.081-.178.048-.231.171-.287C-142.553,206.881-142.57,207-142.741,207.028Z" transform="translate(-158.569 -139.112)" fill="#608fcd"/>
    <path id="Trazado_632470" data-name="Trazado 632470" d="M-141.409,125.687l-.15-.2Z" transform="translate(-159.433 -81.034)" fill="#608fcd"/>
    <path id="Trazado_632471" data-name="Trazado 632471" d="M-142.136,206.443l.06-.122C-141.986,206.416-142.035,206.442-142.136,206.443Z" transform="translate(-159.02 -138.812)" fill="#608fcd"/>
    <path id="Trazado_632472" data-name="Trazado 632472" d="M-177.451,112.583a14.874,14.874,0,0,1,9.707,6.619,15.53,15.53,0,0,1-9.069,23.594,6.179,6.179,0,0,1-.627.1c.052-.42.463-.44.72-.579a17.041,17.041,0,0,0,6.643-6.65,1.181,1.181,0,0,0,.178-.673c.953-.3,1.139-.626.921-1.629.153-1.046.569-2.029.7-3.085.063-.5.047-.983.074-1.473a1.089,1.089,0,0,0,.978-1.052,1.088,1.088,0,0,0-.978-1.123,11.939,11.939,0,0,0-.6-3.683c-.064-.224-.06-.551-.424-.577.631-.949.39-1.62-.688-1.914a9.36,9.36,0,0,0-1.907-3.181A16.44,16.44,0,0,0-177.2,112.9.387.387,0,0,1-177.451,112.583Z" transform="translate(-133.777 -71.806)" fill="#e1dee2"/>
    <path id="Trazado_632473" data-name="Trazado 632473" d="M-196.4,134.248c0,.83.01,1.66-.005,2.489a.6.6,0,0,0,.376.655,3.268,3.268,0,0,1,1.95,3.122,1.465,1.465,0,0,0,.273.784c.717,1.2,1.443,2.39,2.15,3.593a1.854,1.854,0,0,1-.718,2.834c-.443.273-.889.543-1.345.792a1.8,1.8,0,0,1-2.576-.671c-.761-1.226-1.494-2.469-2.23-3.711a1.68,1.68,0,0,0-.64-.629,3.319,3.319,0,0,1-1.789-3.16,3.241,3.241,0,0,1,1.91-2.937.791.791,0,0,0,.518-.852c-.029-1.611-.015-3.223-.01-4.835,0-.87.357-1.31,1.04-1.318.7-.008,1.087.464,1.093,1.355C-196.4,132.589-196.4,133.419-196.4,134.248Zm.189,6.287a1.3,1.3,0,0,0-1.238-1.369,1.306,1.306,0,0,0-1.37,1.237,1.317,1.317,0,0,0,1.274,1.4A1.308,1.308,0,0,0-196.214,140.535Zm.905,2.635a5.623,5.623,0,0,0-.888.589c-.048.044.174.4.29.6.37.631.762,1.248,1.119,1.886.269.481.511.121.729-.015s.649-.165.35-.631c-.459-.714-.878-1.452-1.321-2.177C-195.1,143.31-195.127,143.134-195.309,143.17Z" transform="translate(-116.973 -84.546)" fill="#030304"/>
    <path id="Trazado_632474" data-name="Trazado 632474" d="M-152.823,184.123c.218,1,.032,1.332-.921,1.629a1.09,1.09,0,0,1-.847-1.793C-154.109,183.422-153.487,183.472-152.823,184.123Z" transform="translate(-149.932 -122.565)" fill="#070707"/>
    <path id="Trazado_632475" data-name="Trazado 632475" d="M-168.63,125.324a1.069,1.069,0,0,1-1.069,1.08,1.081,1.081,0,0,1-1.06-1.095,1.085,1.085,0,0,1,1.046-1.038A1.039,1.039,0,0,1-168.63,125.324Z" transform="translate(-138.56 -80.162)" fill="#070707"/>
    <path id="Trazado_632476" data-name="Trazado 632476" d="M-169.692,199.561a1.066,1.066,0,0,1,1.059,1.088,1.036,1.036,0,0,1-1.02,1.045,1.085,1.085,0,0,1-1.109-1.046A1.085,1.085,0,0,1-169.692,199.561Z" transform="translate(-138.558 -133.98)" fill="#070707"/>
    <path id="Trazado_632477" data-name="Trazado 632477" d="M-228.264,184.622a1.081,1.081,0,0,1-1.076,1.081,1.04,1.04,0,0,1-1.062-1,1.069,1.069,0,0,1,1.025-1.124A1.1,1.1,0,0,1-228.264,184.622Z" transform="translate(-95.926 -122.552)" fill="#070707"/>
    <path id="Trazado_632478" data-name="Trazado 632478" d="M-212.348,200.621a1.1,1.1,0,0,1-1.087,1.075,1.03,1.03,0,0,1-1.046-1.018,1.062,1.062,0,0,1,1.029-1.115A1.1,1.1,0,0,1-212.348,200.621Z" transform="translate(-107.307 -133.981)" fill="#070707"/>
    <path id="Trazado_632479" data-name="Trazado 632479" d="M-234.115,162.951a1.053,1.053,0,0,1-1.042,1.1,1.1,1.1,0,0,1-1.1-1.065,1.1,1.1,0,0,1,1.028-1.065A1.055,1.055,0,0,1-234.115,162.951Z" transform="translate(-91.742 -107.074)" fill="#070707"/>
    <path id="Trazado_632480" data-name="Trazado 632480" d="M-229.339,142.421a1.07,1.07,0,0,1-1.061-1.091,1.027,1.027,0,0,1,1.095-1.034,1.078,1.078,0,0,1,1.043,1.038A1.1,1.1,0,0,1-229.339,142.421Z" transform="translate(-95.928 -91.616)" fill="#070707"/>
    <path id="Trazado_632481" data-name="Trazado 632481" d="M-191.4,205.421a1.112,1.112,0,0,1,1.066,1.1,1.07,1.07,0,0,1-1.114,1.035,1.026,1.026,0,0,1-1.013-1.047A1.072,1.072,0,0,1-191.4,205.421Z" transform="translate(-123.046 -138.168)" fill="#070707"/>
    <path id="Trazado_632482" data-name="Trazado 632482" d="M-213.394,126.4a1.068,1.068,0,0,1-1.087-1.063,1.033,1.033,0,0,1,.99-1.073,1.107,1.107,0,0,1,1.143,1.017A1.1,1.1,0,0,1-213.394,126.4Z" transform="translate(-107.307 -80.158)" fill="#070707"/>
    <path id="Trazado_632483" data-name="Trazado 632483" d="M-190.657,119.418a1.07,1.07,0,0,1-1.033,1.115,1.11,1.11,0,0,1-1.09-1.078,1.066,1.066,0,0,1,1.018-1.058A1.021,1.021,0,0,1-190.657,119.418Z" transform="translate(-122.819 -75.961)" fill="#070707"/>
    <path id="Trazado_632484" data-name="Trazado 632484" d="M-147.9,161.844a1.088,1.088,0,0,1,.978,1.123,1.089,1.089,0,0,1-.978,1.052c-.8-.142-1.152-.479-1.153-1.088S-148.7,161.987-147.9,161.844Z" transform="translate(-154.076 -107.019)" fill="#070707"/>
    <path id="Trazado_632485" data-name="Trazado 632485" d="M-153.783,140.2c1.078.295,1.319.965.688,1.914a1.118,1.118,0,0,1-1.478-.094.985.985,0,0,1-.186-1.227A1.149,1.149,0,0,1-153.783,140.2Z" transform="translate(-149.9 -91.544)" fill="#070707"/>
    <path id="Trazado_632486" data-name="Trazado 632486" d="M-190.864,162.492a1.308,1.308,0,0,1-1.334,1.273,1.317,1.317,0,0,1-1.274-1.4,1.306,1.306,0,0,1,1.37-1.237A1.3,1.3,0,0,1-190.864,162.492Z" transform="translate(-122.323 -106.502)" fill="#ea8c3f"/>
    <path id="Trazado_632487" data-name="Trazado 632487" d="M-183.389,175.155c.182-.036.212.14.279.248.443.724.862,1.463,1.321,2.177.3.466-.139.5-.35.631s-.46.5-.729.015c-.356-.638-.749-1.255-1.119-1.886-.117-.2-.338-.552-.29-.6A5.623,5.623,0,0,1-183.389,175.155Z" transform="translate(-128.893 -116.53)" fill="#f9e079"/>
  </g>
</svg>
