<svg xmlns="http://www.w3.org/2000/svg" width="85" height="85" viewBox="0 0 85 85">
  <g id="Grupo_956657" data-name="Grupo 956657" transform="translate(-180 -6099)">
    <rect id="Rectángulo_34178" data-name="Rectángulo 34178" width="85" height="85" transform="translate(180 6099)" fill="none"/>
    <g id="Grupo_957412" data-name="Grupo 957412" transform="translate(586.875 6073.253)">
      <path id="Trazado_632520" data-name="Trazado 632520" d="M-361.422,71.149a1.006,1.006,0,0,1,1.152-.9c3.775.009,7.551-.015,11.326.013a3.737,3.737,0,0,1,3.888,3.4c.064.441.226.493.6.489,1.574-.019,3.15-.016,4.724-.006a1.881,1.881,0,0,1,1.932,2.671q-3.266,9.82-6.546,19.636a3.8,3.8,0,0,1-3.908,2.81q-15.717,0-31.435,0a3.838,3.838,0,0,1-4.061-4.062q-.007-12.387,0-24.774a3.81,3.81,0,0,1,3.945-4.055c2.765-.038,5.532-.012,8.3-.007a3.941,3.941,0,0,1,2.963,1.286c.584.615,1.195,1.2,1.8,1.8a3.631,3.631,0,0,0,.5.439c.248.168.549.4.825.276.3-.134.119-.506.122-.766.017-1.555,0-3.109.015-4.664,0-.374-.044-.631-.445-.8a2.137,2.137,0,0,1-1.136-1.127.708.708,0,0,0-.785-.465q-7.965.019-15.929.006a2.858,2.858,0,0,1-3.08-3.106c0-.727-.033-1.456.011-2.18.029-.473-.135-.565-.575-.556-1.372.029-2.745.014-4.118.01a1.9,1.9,0,0,1-2.109-2.08q0-7.571,0-15.143a1.9,1.9,0,0,1,2.077-2.061c2.423,0,4.845.007,7.268-.008a1.453,1.453,0,0,1,1.131.45q2.233,2.264,4.5,4.5a1.392,1.392,0,0,1,.438,1.073c-.011,3.756,0,7.511-.009,11.267a1.848,1.848,0,0,1-1.991,2c-1.433.008-2.867.015-4.3-.007-.388-.006-.528.088-.51.5.034.766,0,1.534.012,2.3.009.82.368,1.216,1.165,1.218,5.411.008,10.821,0,16.232.01a.467.467,0,0,0,.5-.315,2.524,2.524,0,0,1,1.285-1.309.537.537,0,0,0,.369-.6,10.607,10.607,0,0,1,0-1.332c.025-.375-.1-.482-.478-.477-1.413.021-2.826.012-4.24.007a1.9,1.9,0,0,1-2.092-2.1q-.008-7.541,0-15.082a1.915,1.915,0,0,1,2.107-2.1c2.423,0,4.845.008,7.268-.008a1.46,1.46,0,0,1,1.127.464q2.214,2.24,4.453,4.455a1.541,1.541,0,0,1,.479,1.186c-.009,3.675,0,7.35-.007,11.024a1.915,1.915,0,0,1-2.155,2.164c-1.393,0-2.786.013-4.179-.008-.375-.006-.519.106-.474.478a2.361,2.361,0,0,1,0,.544c-.085.738,0,1.355.825,1.678a1.431,1.431,0,0,1,.738.854c.158.428.44.475.835.475q7.843-.016,15.687-.008c1.166,0,1.467-.3,1.468-1.466,0-.707-.019-1.414.008-2.12.013-.357-.117-.437-.45-.434-1.433.016-2.867.011-4.3.006a1.868,1.868,0,0,1-2.051-2.068q-.006-7.571,0-15.143a1.884,1.884,0,0,1,2.055-2.073c2.443,0,4.886.006,7.329-.008a1.4,1.4,0,0,1,1.074.441q2.236,2.26,4.5,4.5a1.4,1.4,0,0,1,.457,1.067c-.011,3.756,0,7.511-.008,11.266a1.878,1.878,0,0,1-2.048,2.019c-1.413.006-2.827.014-4.24-.007-.382-.006-.532.077-.512.493.035.745.012,1.494.009,2.241a2.86,2.86,0,0,1-3.081,3.106q-7.9.013-15.808,0c-.434,0-.746.043-.943.513a2.318,2.318,0,0,1-1.2,1.146c-.189.091-.343.166-.34.428.021,2.24.029,4.48.041,6.72-.014.886-.021,1.771-.045,2.657-.009.331.184.339.428.339q7.9,0,15.8.005c.432,0,.45-.163.363-.512a2.033,2.033,0,0,0-2.209-1.571c-3.692-.006-7.385,0-11.077,0C-361.016,72.068-361.209,71.919-361.422,71.149Zm-18.469-18.406c.009-2.823.014-5.646.033-8.47,0-.29-.083-.381-.375-.374-.827.018-1.654.012-2.481,0a1.9,1.9,0,0,1-2-2.015c-.009-.807-.013-1.614,0-2.42.006-.293-.041-.427-.385-.422-1.492.025-2.984.021-4.477.027-.564-.006-1.129,0-1.692-.024-.3-.013-.372.094-.372.379q.011,7.44,0,14.881c0,.262.034.4.352.4q5.535-.015,11.069,0c.249,0,.368-.055.355-.333C-379.884,53.831-379.882,53.287-379.891,52.743Zm32.959-13.668c-.524-.007-1.049.006-1.572-.027-.338-.021-.394.121-.393.419q.011,7.416,0,14.832c0,.314.082.411.4.41q5.479-.016,10.957,0c.3,0,.44-.057.419-.394-.032-.523-.021-1.048-.027-1.572.007-2.822.008-5.645.029-8.466,0-.357-.154-.379-.433-.375-.826.013-1.653.012-2.48,0a1.865,1.865,0,0,1-1.945-1.934c-.01-.847-.013-1.694,0-2.54.006-.283-.069-.384-.367-.38C-343.868,39.069-345.4,39.068-346.932,39.075Zm-21.32,0c-.443-.007-.89.016-1.33-.027-.528-.053-.713.089-.71.673q.04,7.174,0,14.349c0,.563.172.66.68.648,1.432-.033,2.865-.012,4.3-.012,2.1,0,4.2-.01,6.3.009.411,0,.585-.093.545-.531-.044-.48-.033-.965-.046-1.447q.018-4.262.041-8.525c0-.3-.163-.309-.385-.308q-1.21.008-2.419,0A1.883,1.883,0,0,1-363.34,41.9c-.015-.806-.01-1.613,0-2.42,0-.275-.013-.438-.377-.431C-365.228,39.074-366.74,39.067-368.252,39.074Zm-11.635,29.152a1.975,1.975,0,0,0-2.041,2.237q0,10.683,0,21.367v.618l.114.016,2.03-6.168q1.532-4.574,3.063-9.15a3.858,3.858,0,0,1,4.131-3q2.874,0,5.747,0c1.612,0,1.6,0,1.562-1.629-.008-.312-.07-.469-.42-.507a3.571,3.571,0,0,1-2.161-1.106c-.655-.656-1.324-1.3-1.964-1.971a2.31,2.31,0,0,0-1.778-.75c-.847.008-1.694,0-2.541,0Q-377.017,68.2-379.887,68.226Zm33.95,27.174a1.852,1.852,0,0,0,.1-.213q3.117-9.338,6.24-18.674c.175-.519,0-.553-.441-.553q-16.316.013-32.633.008a2.028,2.028,0,0,0-2.278,1.647q-1.383,4.122-2.754,8.248c-.7,2.12-1.388,4.245-2.081,6.368-.438,1.271-.88,2.54-1.313,3.813-.3.883-.112,1.2.831,1.367a4.052,4.052,0,0,0,.723.034q15.544,0,31.089,0C-346.93,97.446-346.292,96.926-345.937,95.4Zm-17.422-33.963a1.027,1.027,0,0,0-1.049-1.015A1.027,1.027,0,0,0-365.4,61.5a1,1,0,0,0,1.017.971A1,1,0,0,0-363.359,61.436Zm-17.976-19.362-1.507-1.6c-.222,1.641-.222,1.641,1.333,1.612C-381.434,42.086-381.359,42.076-381.336,42.074Zm41.178-1.618c0,.46.005.88,0,1.3,0,.2.013.346.281.336.447-.017.9,0,1.364,0Zm-21.312.065c-.208,1.576-.208,1.577,1.277,1.562.089,0,.2.049.243-.02Z" transform="translate(0 0)" fill="#040404"/>
      <path id="Trazado_632521" data-name="Trazado 632521" d="M-267.915,176.966c.213.77.406.919,1.25.92,3.693,0,7.385,0,11.077,0a2.033,2.033,0,0,1,2.209,1.571c.087.349.068.513-.363.512q-7.9-.016-15.8-.005c-.244,0-.438-.008-.428-.339.024-.885.031-1.771.045-2.657Z" transform="translate(-93.507 -105.817)" fill="#efd6a1"/>
      <path id="Trazado_632522" data-name="Trazado 632522" d="M-337.145,213.055c.693-2.123,1.379-4.248,2.081-6.368q1.367-4.127,2.754-8.248a2.028,2.028,0,0,1,2.278-1.647q16.316,0,32.633-.008c.439,0,.616.034.441.553q-3.138,9.331-6.24,18.674a1.846,1.846,0,0,1-.1.213c-.3,0-.605-.01-.908-.01q-14.291,0-28.582-.013a4.471,4.471,0,0,1-3.393-1.709C-336.573,214.048-336.657,213.419-337.145,213.055Zm28.536-3.516c-1.068,0-2.135,0-3.2,0-.729,0-1.108.313-1.11.9s.393.918,1.1.92q3.2.009,6.405,0c.68,0,1.113-.389,1.1-.94-.017-.535-.425-.87-1.087-.874C-306.474,209.534-307.542,209.539-308.609,209.539Zm-1.968,3.881c-1.068,0-2.135,0-3.2,0-.709,0-1.1.34-1.083.924.012.551.4.888,1.067.89q3.233.01,6.465,0a.949.949,0,0,0,1.071-.9c.007-.538-.407-.9-1.054-.909C-308.4,213.415-309.49,213.42-310.577,213.42Z" transform="translate(-42.638 -120.824)" fill="#e4bd8a"/>
      <path id="Trazado_632523" data-name="Trazado 632523" d="M-337.612,164.785q2.871-.021,5.741-.042c.847-.005,1.694.005,2.541,0a2.31,2.31,0,0,1,1.778.75c.64.671,1.308,1.315,1.964,1.971a3.571,3.571,0,0,0,2.161,1.106c.35.038.412.2.42.507.042,1.629.05,1.629-1.562,1.629q-2.873,0-5.747,0a3.858,3.858,0,0,0-4.131,3q-1.529,4.576-3.063,9.15c-.176-.213-.1-.466-.1-.7Q-337.614,173.469-337.612,164.785Z" transform="translate(-42.275 -96.559)" fill="#f7dea5"/>
      <path id="Trazado_632524" data-name="Trazado 632524" d="M-289.75,44.74c1.512-.006,3.024,0,4.535-.028.365-.007.381.156.377.431-.01.807-.015,1.613,0,2.42a1.883,1.883,0,0,0,2.059,2.008q1.21.005,2.419,0c.222,0,.386,0,.384.308q-.03,4.262-.041,8.525c-2.25,0-4.5.042-6.75-.01a2.136,2.136,0,0,1-2.135-1.045c1.61,0,3.221,0,4.831-.014.622,0,.967-.281,1.026-.791.069-.6-.347-1.017-1.053-1.022-1.51-.011-3.02,0-4.529-.008a1.224,1.224,0,0,0-.987.481,7.165,7.165,0,0,1-.015-3.036,1.136,1.136,0,0,0,1.027.5c1.49-.018,2.98,0,4.47-.008.7,0,1.107-.347,1.1-.916s-.428-.9-1.128-.9c-1.45-.005-2.9.01-4.35-.008a1.27,1.27,0,0,0-1.1.489c-.2-.147-.135-.365-.135-.557Q-289.755,48.15-289.75,44.74Z" transform="translate(-78.502 -5.666)" fill="#e9e8ea"/>
      <path id="Trazado_632525" data-name="Trazado 632525" d="M-201.872,44.753c1.532-.007,3.063-.006,4.6-.026.3,0,.372.1.367.38-.016.847-.014,1.694,0,2.54a1.865,1.865,0,0,0,1.945,1.934c.827.009,1.653.01,2.48,0,.278,0,.435.017.433.375-.022,2.822-.022,5.644-.029,8.466-2.2,0-4.4,0-6.6.006a3.586,3.586,0,0,1-1.464-.312c-.332-.145-.738-.277-.78-.751,1.573-.005,3.145-.016,4.718-.011a1.011,1.011,0,0,0,.951-.4.841.841,0,0,0,.049-.916.985.985,0,0,0-.96-.5c-1.512,0-3.025.007-4.537,0a1.171,1.171,0,0,0-1.016.538,10.765,10.765,0,0,1-.144-2.8.314.314,0,0,1,.154-.305,1.168,1.168,0,0,0,1.077.519c1.468-.022,2.936-.006,4.4-.009.708,0,1.122-.332,1.132-.887.01-.57-.428-.928-1.162-.93-1.448,0-2.9.008-4.344-.007a1.163,1.163,0,0,0-1.085.508c-.263-.162-.177-.427-.177-.655Q-201.878,48.123-201.872,44.753Z" transform="translate(-145.059 -5.678)" fill="#e9e8ea"/>
      <path id="Trazado_632526" data-name="Trazado 632526" d="M-377.517,44.744c1.492-.006,2.985,0,4.477-.027.344-.006.391.129.385.422-.016.806-.013,1.614,0,2.42a1.9,1.9,0,0,0,2,2.015c.827.007,1.654.013,2.481,0,.291-.006.377.084.375.374-.018,2.823-.024,5.646-.033,8.47-2.233,0-4.466.025-6.7-.012a2.132,2.132,0,0,1-2.135-1.046c1.572-.005,3.144-.008,4.716-.016.718,0,1.108-.328,1.106-.9s-.4-.91-1.111-.913c-1.472-.007-2.943,0-4.414-.006a1.1,1.1,0,0,0-1.094.6,22.6,22.6,0,0,1-.012-3.251,1.094,1.094,0,0,0,1.084.6c1.468-.02,2.937-.005,4.405-.008.751,0,1.157-.335,1.143-.926-.014-.565-.413-.888-1.129-.891-1.468-.005-2.937.006-4.405-.006a1.089,1.089,0,0,0-1.086.6c-.018-.22-.051-.441-.051-.661Q-377.522,48.16-377.517,44.744Z" transform="translate(-12.056 -5.671)" fill="#e9e8ea"/>
      <path id="Trazado_632527" data-name="Trazado 632527" d="M-341.649,263.812c.488.364.572.994.962,1.436a4.471,4.471,0,0,0,3.393,1.709q14.291.035,28.582.013c.3,0,.605.007.908.01-.355,1.526-.992,2.046-2.515,2.046q-15.545,0-31.089,0a4.052,4.052,0,0,1-.723-.034c-.943-.172-1.131-.484-.831-1.367C-342.529,266.352-342.087,265.083-341.649,263.812Z" transform="translate(-38.133 -171.581)" fill="#d9a97d"/>
      <path id="Trazado_632528" data-name="Trazado 632528" d="M-295.883,52.929a7.166,7.166,0,0,0,.015,3.036c-.146.822-.016,1.068.713,1.353a2.136,2.136,0,0,0,2.135,1.045c2.249.052,4.5.013,6.75.01.013.483,0,.968.046,1.447.041.438-.134.534-.545.531-2.1-.019-4.2-.009-6.3-.009-1.433,0-2.866-.022-4.3.012-.508.012-.683-.085-.68-.648q.04-7.175,0-14.349c0-.584.182-.725.71-.673.44.044.886.021,1.33.027q0,3.41,0,6.819c0,.192-.065.41.135.557A2,2,0,0,0-295.883,52.929Z" transform="translate(-72.248 -5.638)" fill="#d4d2d5"/>
      <path id="Trazado_632529" data-name="Trazado 632529" d="M-383.064,57.362a2.132,2.132,0,0,0,2.135,1.046c2.233.038,4.466.012,6.7.012.009.544.006,1.088.032,1.631.013.278-.106.334-.355.333q-5.535-.009-11.069,0c-.318,0-.352-.137-.352-.4q.008-7.441,0-14.881c0-.285.076-.392.372-.379.563.025,1.128.018,1.692.024q0,3.416,0,6.832c0,.22.033.441.051.661l-.011.628a22.6,22.6,0,0,0,.012,3.251C-383.944,56.865-383.776,57.126-383.064,57.362Z" transform="translate(-5.66 -5.677)" fill="#d9d7da"/>
      <path id="Trazado_632530" data-name="Trazado 632530" d="M-207.947,44.745q0,3.37,0,6.741c0,.228-.086.493.177.655a1.5,1.5,0,0,0-.022.8.314.314,0,0,0-.154.305,10.765,10.765,0,0,0,.144,2.8c-.084.837.055,1.065.794,1.3.042.474.449.606.78.751a3.586,3.586,0,0,0,1.464.312c2.2-.011,4.4-.006,6.6-.006.007.524,0,1.049.027,1.572.021.338-.121.395-.419.394q-5.479-.012-10.957,0c-.322,0-.4-.1-.4-.41q.013-7.416,0-14.832c0-.3.055-.44.393-.419C-209,44.75-208.471,44.738-207.947,44.745Z" transform="translate(-138.985 -5.67)" fill="#d9d7da"/>
      <path id="Trazado_632531" data-name="Trazado 632531" d="M-343.945,164.922q0,8.685.006,17.37c0,.234-.08.487.1.7l-2.03,6.168-.114-.016v-.618q0-10.684,0-21.367A1.975,1.975,0,0,1-343.945,164.922Z" transform="translate(-35.943 -96.696)" fill="#e9cb94"/>
      <path id="Trazado_632532" data-name="Trazado 632532" d="M-275.842,133.782a1,1,0,0,1-1.019,1.031,1,1,0,0,1-1.017-.971,1.027,1.027,0,0,1,.987-1.075A1.027,1.027,0,0,1-275.842,133.782Z" transform="translate(-87.517 -72.347)" fill="#b0adb2"/>
      <path id="Trazado_632533" data-name="Trazado 632533" d="M-348.57,52.2c-.024,0-.1.011-.173.013-1.556.029-1.556.029-1.333-1.612Z" transform="translate(-32.765 -10.125)" fill="#d4d2d5"/>
      <path id="Trazado_632534" data-name="Trazado 632534" d="M-173.917,50.524l1.642,1.631c-.469,0-.917-.012-1.364,0-.268.01-.284-.134-.281-.336C-173.912,51.4-173.917,50.984-173.917,50.524Z" transform="translate(-166.241 -10.068)" fill="#d4d2d5"/>
      <path id="Trazado_632535" data-name="Trazado 632535" d="M-262.008,50.793l1.521,1.542c-.044.069-.154.019-.243.02C-262.216,52.37-262.216,52.369-262.008,50.793Z" transform="translate(-99.462 -10.272)" fill="#d9d7da"/>
      <path id="Trazado_632536" data-name="Trazado 632536" d="M-233.044,249.323c1.067,0,2.135,0,3.2,0,.662,0,1.07.339,1.087.874.017.551-.416.938-1.1.94q-3.2.011-6.405,0c-.708,0-1.1-.344-1.1-.92s.38-.893,1.11-.9C-235.179,249.32-234.111,249.323-233.044,249.323Z" transform="translate(-118.204 -160.608)" fill="#030202"/>
      <path id="Trazado_632537" data-name="Trazado 632537" d="M-241.068,265.312c1.087,0,2.175-.005,3.263,0,.647,0,1.061.371,1.054.909a.949.949,0,0,1-1.071.9q-3.233.011-6.465,0c-.669,0-1.055-.339-1.067-.89-.012-.584.374-.92,1.083-.924C-243.2,265.308-242.136,265.312-241.068,265.312Z" transform="translate(-112.147 -172.716)" fill="#020201"/>
      <path id="Trazado_632538" data-name="Trazado 632538" d="M-288.537,91.041c-.729-.285-.859-.531-.713-1.353a1.223,1.223,0,0,1,.987-.481c1.51.011,3.02,0,4.529.008.707.005,1.122.426,1.053,1.022-.059.51-.4.787-1.026.791C-285.316,91.037-286.926,91.037-288.537,91.041Z" transform="translate(-78.867 -39.361)" fill="#040404"/>
      <path id="Trazado_632539" data-name="Trazado 632539" d="M-289.263,74.533a2,2,0,0,1,.013-.841,1.27,1.27,0,0,1,1.1-.489c1.45.018,2.9,0,4.35.008.7,0,1.12.345,1.128.9s-.4.913-1.1.916c-1.49,0-2.98-.01-4.47.008A1.136,1.136,0,0,1-289.263,74.533Z" transform="translate(-78.867 -27.242)" fill="#030202"/>
      <path id="Trazado_632540" data-name="Trazado 632540" d="M-200.482,91.046c-.739-.235-.879-.464-.794-1.3a1.171,1.171,0,0,1,1.016-.538c1.512.01,3.025,0,4.537,0a.985.985,0,0,1,.96.5.841.841,0,0,1-.049.916,1.011,1.011,0,0,1-.951.4C-197.337,91.03-198.909,91.041-200.482,91.046Z" transform="translate(-145.509 -39.361)" fill="#040404"/>
      <path id="Trazado_632541" data-name="Trazado 632541" d="M-201.3,74.521a1.5,1.5,0,0,1,.022-.8,1.163,1.163,0,0,1,1.085-.508c1.448.014,2.9,0,4.344.007.734,0,1.172.359,1.162.93-.009.555-.424.885-1.132.887-1.468,0-2.936-.012-4.4.009A1.168,1.168,0,0,1-201.3,74.521Z" transform="translate(-145.472 -27.245)" fill="#040404"/>
      <path id="Trazado_632542" data-name="Trazado 632542" d="M-376.527,91.045c-.712-.236-.88-.5-.8-1.239a1.1,1.1,0,0,1,1.094-.6c1.471.011,2.943,0,4.414.006.71,0,1.109.343,1.111.913s-.389.9-1.106.9C-373.383,91.038-374.955,91.04-376.527,91.045Z" transform="translate(-12.197 -39.361)" fill="#040404"/>
      <path id="Trazado_632543" data-name="Trazado 632543" d="M-377.314,74.442l.011-.628a1.089,1.089,0,0,1,1.086-.6c1.468.013,2.937,0,4.405.006.716,0,1.115.326,1.129.891.015.59-.392.924-1.143.926-1.468,0-2.937-.012-4.405.008A1.094,1.094,0,0,1-377.314,74.442Z" transform="translate(-12.22 -27.247)" fill="#040404"/>
    </g>
  </g>
</svg>
