<svg xmlns="http://www.w3.org/2000/svg" width="75.213" height="66.143" viewBox="0 0 75.213 66.143">
  <g id="Grupo_957411" data-name="Grupo 957411" transform="translate(434.515 -317.596)">
    <path id="Trazado_632488" data-name="Trazado 632488" d="M-395.881,387.959h-2.9c-.207-.929-.5-1.15-1.554-1.15q-8.479,0-16.958,0a9.383,9.383,0,0,1-9.717-9.7q0-25.464,0-50.928c0-1.088,0-1.09,1.122-1.09q20.813,0,41.625,0c.244,0,.487.021.731.032,0,1.277.006,2.555,0,3.832,0,.253.091.541-.182.731a3.633,3.633,0,0,0-2.213-.609c-2.765.024-5.531.009-8.3.009q-13.069,0-26.138,0a2.582,2.582,0,0,0-2.84,2.81c-.006,1.468,0,2.936,0,4.4,0,2.075.967,3.031,3.064,3.031q17.107,0,34.214.01a3.541,3.541,0,0,0,2.38-.762v5.237a1.578,1.578,0,0,0-.218-.03q-7.735-.01-15.469-.011a1.1,1.1,0,0,0-1.171,1.138,1.1,1.1,0,0,0,1.178,1.053c1.613.015,3.226.009,4.839.005q5.424-.013,10.849-.033,0,.968.007,1.937l-15.686-.025q-.073,0-.147.006a1.029,1.029,0,0,0-1.028,1.037,1.024,1.024,0,0,0,.865,1.109,3.077,3.077,0,0,0,.727.047q7.184,0,14.368,0c.291,0,.582-.042.874-.064-.047.634.244,1.3-.189,1.9-.1,0-.2.006-.293.006-2.543,0-5.087-.009-7.631,0-1.045,0-1.63.705-1.3,1.507a1.165,1.165,0,0,0,1.244.7c2.642,0,5.283.006,7.924.011.358.2.27.545.27.851.005,2.763-.026,5.527.009,8.289.066,5.056-.186,10.114.137,15.167a10.424,10.424,0,0,0,2.772,6.224,29.572,29.572,0,0,0,2.665,2.141c-.268.01-.536.029-.8.029q-7.815,0-15.631,0C-395.349,386.811-395.627,387.033-395.881,387.959Zm-7.138-35.911a2.8,2.8,0,0,0-.573.042c-.568.142-.713-.064-.666-.623a7.5,7.5,0,0,0-.278-2.394,9.738,9.738,0,0,0-10.249-7.325,9.711,9.711,0,0,0-8.854,9.49,9.665,9.665,0,0,0,11.2,9.741c.371-.051.533-.012.535.411a7.05,7.05,0,0,0,.148,1.307,8.958,8.958,0,0,0,9.657,7.164,8.959,8.959,0,0,0,7.985-9.638A9,9,0,0,0-403.018,352.048Zm.248,27.462h.808q8.113,0,16.226,0c.915,0,1.439-.412,1.437-1.1s-.532-1.09-1.443-1.109c-.073,0-.147,0-.22,0q-16.85,0-33.7,0a3.55,3.55,0,0,0-.8.062.992.992,0,0,0-.829,1.124.985.985,0,0,0,.9.989,5.091,5.091,0,0,0,.805.031Q-411.177,379.511-402.77,379.51Zm1.468,1.935q-8.407,0-16.814,0a4.326,4.326,0,0,0-.877.046.982.982,0,0,0-.833.976.982.982,0,0,0,.693,1.083,2.773,2.773,0,0,0,.867.1q16.924.007,33.848,0c1.037,0,1.585-.386,1.588-1.108s-.535-1.095-1.585-1.1H-401.3Zm-2.631-6.062q8.186,0,16.373,0a5.91,5.91,0,0,0,.879-.036,1,1,0,0,0,.9-1.005,1,1,0,0,0-.789-1.091,3.166,3.166,0,0,0-.8-.072q-16.556,0-33.113,0a2.965,2.965,0,0,0-.727.057,1,1,0,0,0-.816,1.137.989.989,0,0,0,.914.98,5.44,5.44,0,0,0,.806.032Q-412.12,375.384-403.933,375.383ZM-416.12,363.1a1,1,0,0,0-1.048.985c-.023.379-.091.536-.523.558a1.047,1.047,0,0,0-1.046,1.1,1.052,1.052,0,0,0,1.076,1.072c.316.014.487.054.483.436a1.007,1.007,0,0,0,1.03,1.1A1.058,1.058,0,0,0-415,367.268c.035-.33.089-.453.453-.463a1,1,0,0,0,1.067-1.06,1,1,0,0,0-1.02-1.108c-.362-.029-.478-.105-.5-.488A1.05,1.05,0,0,0-416.12,363.1Zm26.132,6.8c.636,0,1.273.01,1.909,0a1.1,1.1,0,0,0,1.218-1.081,1.086,1.086,0,0,0-1.186-1.113q-1.909-.025-3.819,0a1.112,1.112,0,0,0-1.195,1.117,1.129,1.129,0,0,0,1.236,1.077C-391.213,369.908-390.6,369.9-389.988,369.9Z" transform="translate(-5.297 -5.288)" fill="#d4d8ed"/>
    <path id="Trazado_632489" data-name="Trazado 632489" d="M-388.828,319.834c-.244-.011-.487-.031-.731-.031q-20.813,0-41.625,0c-1.12,0-1.121,0-1.122,1.09q0,25.464,0,50.928a9.383,9.383,0,0,0,9.717,9.7q8.479.007,16.958,0c1.056,0,1.348.221,1.554,1.15a1.174,1.174,0,0,1-1.336,1.058c-5.924-.012-11.849.04-17.772-.025a11.505,11.505,0,0,1-11.317-11.44q-.038-25.914-.007-51.827a2.668,2.668,0,0,1,2.854-2.839q23.9-.008,47.808,0a2.655,2.655,0,0,1,2.821,2.866c.01,2.569.023,5.139-.013,7.708-.008.6.13.769.752.766,5.973-.026,11.946-.017,17.919-.015a2.746,2.746,0,0,1,3.063,3.083q0,19.93,0,39.861a11.6,11.6,0,0,1-10.127,11.77,11.243,11.243,0,0,1-1.685.082q-14.247.007-28.494,0c-1.069,0-1.25-.125-1.569-1.054.253-.925.532-1.148,1.5-1.148q7.815,0,15.631,0c.268,0,.536-.019.8-.029h4.752a11.547,11.547,0,0,1-4.719-9.328c-.04-9.458-.015-18.916-.012-28.375,0-.908.259-1.213,1.138-1.413a1.18,1.18,0,0,1,1.069,1.4c-.028.952,0,1.9-.011,2.857,0,.319.061.5.438.5,3.028-.021,6.057-.029,9.085-.041.9.013,1.8.021,2.7.041.469.011.658-.221.658-.67q0-4.607,0-9.214c0-.445-.177-.683-.653-.672-.9.02-1.8.023-2.7.032q-4.063-.015-8.127-.028c-1.39,0-1.422,0-1.384,1.356a1.333,1.333,0,0,1-1.078,1.567c-.9-.267-1.135-.563-1.136-1.5q0-6.918,0-13.836c0-1.2-.012-2.392.006-3.587.007-.506-.145-.781-.7-.773C-385.559,319.822-387.194,319.823-388.828,319.834Zm21.737,51.559q-5.978-.011-11.955-.021c-2.118,0-2.118,0-1.854,2.151a9.4,9.4,0,0,0,8.378,7.939,11.467,11.467,0,0,0,3.072-.05,9.383,9.383,0,0,0,7.943-9.471q.008-19.849,0-39.7c0-.122-.006-.245,0-.367.029-.525-.21-.757-.742-.75-1.614.02-3.228.021-4.843.03q-6.743-.013-13.487-.032c-.36,0-.461.127-.449.468a14.729,14.729,0,0,1-.007,1.9c-.066.683.113.9.852.894,3.714-.044,7.428-.014,11.142-.027a4.415,4.415,0,0,1,1.784.311,3.023,3.023,0,0,1,1.315,2.756q-.043,4.422,0,8.844a3.021,3.021,0,0,1-1.331,2.748,4.631,4.631,0,0,1-1.786.309c-3.762-.014-7.525.005-11.287-.02-.544,0-.729.125-.69.684a16.5,16.5,0,0,1,0,2.269c-.046.648.124.883.826.863,1.831-.053,3.664-.013,5.5-.019q3.809-.013,7.618-.039c.638.116,1.113.433,1.118,1.131s-.491,1.006-1.11,1.15c-.267-.012-.535-.034-.8-.034q-5.938,0-11.876,0c-1.294,0-1.276,0-1.266,1.273,0,.4.1.545.526.543,4.471-.022,8.943-.024,13.415-.032.665.084,1.114.44,1.114,1.122s-.455,1.034-1.114,1.128c-4.47-.007-8.94-.009-13.41-.031-.422,0-.528.127-.531.538-.011,1.267-.029,1.267,1.269,1.267,1.075,0,2.15,0,3.225,0q4.725-.014,9.451-.032c.62.143,1.117.447,1.111,1.149s-.46,1.029-1.116,1.121l-12.686-.032c-1.281,0-1.267,0-1.251,1.289,0,.386.069.566.517.563,4.474-.025,8.947-.029,13.42-.039a1.094,1.094,0,0,1,1.113,1.043c.046.741-.458,1.068-1.109,1.22l-12.675-.029c-1.3,0-1.28,0-1.269,1.264,0,.413.115.538.534.536,4.469-.022,8.938-.025,13.408-.033.656.1,1.115.446,1.114,1.13A1.1,1.1,0,0,1-367.092,371.392Z" transform="translate(0 0)" fill="#020203"/>
    <path id="Trazado_632490" data-name="Trazado 632490" d="M-279.9,325.111c1.635-.011,3.269-.012,4.9-.037.559-.009.711.267.7.773-.018,1.2-.006,2.391-.006,3.587q0,6.918,0,13.836c0,.939.233,1.235,1.136,1.5q0,1.441,0,2.881c-.88.2-1.138.5-1.138,1.413,0,9.458-.028,18.916.012,28.375a11.547,11.547,0,0,0,4.719,9.328h-4.752a29.558,29.558,0,0,1-2.665-2.141,10.424,10.424,0,0,1-2.772-6.224c-.323-5.053-.071-10.111-.137-15.167-.036-2.762,0-5.526-.009-8.289,0-.306.088-.653-.27-.851a1.124,1.124,0,0,0,.962-1.05,1.175,1.175,0,0,0-.906-1.177c.433-.6.142-1.263.189-1.9.961-.661.97-1.375.027-2.11q0-.968-.007-1.937c.944-.706.941-1.439-.008-2.122v-5.237a3.512,3.512,0,0,0,.732-2.391q-.052-2.017,0-4.037a3.219,3.219,0,0,0-.9-2.466c.272-.19.18-.478.182-.731C-279.894,327.666-279.9,326.389-279.9,325.111Z" transform="translate(-108.928 -5.278)" fill="#bec6e7"/>
    <path id="Trazado_632491" data-name="Trazado 632491" d="M-374.588,339.245a3.219,3.219,0,0,1,.9,2.466q-.051,2.018,0,4.037a3.512,3.512,0,0,1-.732,2.391,3.541,3.541,0,0,1-2.38.762q-17.107-.022-34.214-.01c-2.1,0-3.062-.956-3.064-3.031,0-1.468,0-2.936,0-4.4a2.582,2.582,0,0,1,2.84-2.81q13.069-.006,26.138,0c2.766,0,5.531.015,8.3-.009A3.633,3.633,0,0,1-374.588,339.245Zm-5.114,7.412c1.048.011,2.1.016,3.145.037.464.009.666-.193.663-.657q-.013-2.269,0-4.537c0-.457-.184-.669-.657-.658-1.048.023-2.1.021-3.146.03q-6.569-.012-13.139-.023c-6.069,0-12.137.007-18.206-.013-.641,0-.861.19-.84.838.042,1.319.012,2.641.013,3.962,0,1.05,0,1.051,1.045,1.051q15.159,0,30.319,0C-380.238,346.686-379.97,346.667-379.7,346.657Z" transform="translate(-14.424 -14.848)" fill="#020203"/>
    <path id="Trazado_632492" data-name="Trazado 632492" d="M-394.932,391.881a9,9,0,0,1,8.909,8.177,8.959,8.959,0,0,1-7.985,9.638,8.957,8.957,0,0,1-9.657-7.164,7.052,7.052,0,0,1-.148-1.307c0-.423-.164-.462-.535-.411a9.665,9.665,0,0,1-11.2-9.741,9.711,9.711,0,0,1,8.854-9.49,9.738,9.738,0,0,1,10.249,7.325,7.493,7.493,0,0,1,.278,2.394c-.047.558.1.765.666.623A2.806,2.806,0,0,1-394.932,391.881Zm-.782,2.3a1,1,0,0,0-1.193.758c-.3.876-.708,1.048-1.621.87a1.349,1.349,0,0,1-.38-1.812A7.331,7.331,0,0,0-401,385.576a6.816,6.816,0,0,0-5.74-1.7,7.112,7.112,0,0,0-.868.1,7.479,7.479,0,0,0-5.731,7.82,7.456,7.456,0,0,0,6.589,6.864,6.937,6.937,0,0,0,4.481-.847,1.276,1.276,0,0,1,1.76.2c.251.967.151,1.228-.7,1.733a.668.668,0,0,0-.408.534A6.669,6.669,0,0,0-395.9,407.4a4.713,4.713,0,0,0,2.31-.012,6.746,6.746,0,0,0,5.327-7.535A6.666,6.666,0,0,0-395.714,394.179Z" transform="translate(-13.383 -45.121)" fill="#030303"/>
    <path id="Trazado_632493" data-name="Trazado 632493" d="M-389.067,504.736q-8.406,0-16.813,0a5.1,5.1,0,0,1-.805-.031.985.985,0,0,1-.9-.989.992.992,0,0,1,.829-1.124,3.549,3.549,0,0,1,.8-.061q16.85,0,33.7,0c.073,0,.147,0,.22,0,.911.019,1.44.427,1.443,1.109s-.522,1.1-1.437,1.1q-8.113,0-16.226,0Z" transform="translate(-19 -130.514)" fill="#060606"/>
    <path id="Trazado_632494" data-name="Trazado 632494" d="M-384.083,516.613H-367.2c1.05.005,1.588.379,1.585,1.1s-.551,1.108-1.588,1.108q-16.924,0-33.848,0a2.775,2.775,0,0,1-.867-.1.982.982,0,0,1-.693-1.083.982.982,0,0,1,.833-.976,4.328,4.328,0,0,1,.877-.046Q-392.489,516.612-384.083,516.613Z" transform="translate(-22.517 -140.456)" fill="#060606"/>
    <path id="Trazado_632495" data-name="Trazado 632495" d="M-391.992,490.715q-8.187,0-16.373,0a5.444,5.444,0,0,1-.806-.032.989.989,0,0,1-.915-.98,1,1,0,0,1,.816-1.137,2.965,2.965,0,0,1,.727-.057q16.556,0,33.113,0a3.166,3.166,0,0,1,.8.072,1,1,0,0,1,.789,1.091,1,1,0,0,1-.9,1.005,5.906,5.906,0,0,1-.879.036Q-383.806,490.717-391.992,490.715Z" transform="translate(-17.238 -120.62)" fill="#060606"/>
    <path id="Trazado_632496" data-name="Trazado 632496" d="M-319.692,402.461c.943.734.934,1.448-.027,2.109-.291.022-.582.064-.874.064q-7.184.006-14.368,0a3.077,3.077,0,0,1-.727-.047,1.024,1.024,0,0,1-.865-1.109,1.028,1.028,0,0,1,1.027-1.037q.073-.007.147-.006Z" transform="translate(-69.136 -59.876)" fill="#030303"/>
    <path id="Trazado_632497" data-name="Trazado 632497" d="M-319.733,388.627c.949.682.952,1.415.008,2.122q-5.424.017-10.849.033c-1.613,0-3.226.01-4.839-.005a1.1,1.1,0,0,1-1.178-1.053,1.1,1.1,0,0,1,1.171-1.138q7.734-.008,15.469.011A1.576,1.576,0,0,1-319.733,388.627Z" transform="translate(-69.109 -50.1)" fill="#020203"/>
    <path id="Trazado_632498" data-name="Trazado 632498" d="M-302.325,416.137a1.175,1.175,0,0,1,.906,1.177,1.124,1.124,0,0,1-.962,1.05c-2.641,0-5.282-.014-7.924-.011a1.165,1.165,0,0,1-1.244-.7c-.33-.8.255-1.5,1.3-1.507,2.543-.011,5.087,0,7.631,0C-302.52,416.143-302.422,416.139-302.325,416.137Z" transform="translate(-86.719 -69.545)" fill="#060606"/>
    <path id="Trazado_632499" data-name="Trazado 632499" d="M-396.288,454.256a1.05,1.05,0,0,1,1.112,1.052c.026.383.142.46.5.488a1,1,0,0,1,1.02,1.108,1,1,0,0,1-1.067,1.06c-.363.011-.418.133-.453.463a1.058,1.058,0,0,1-1.144,1.075,1.007,1.007,0,0,1-1.03-1.1c0-.383-.167-.423-.483-.436A1.052,1.052,0,0,1-398.9,456.9a1.046,1.046,0,0,1,1.045-1.1c.432-.022.5-.179.523-.558A1,1,0,0,1-396.288,454.256Z" transform="translate(-25.13 -96.448)" fill="#030303"/>
    <path id="Trazado_632500" data-name="Trazado 632500" d="M-308.563,472.071c-.612,0-1.224.01-1.836,0a1.129,1.129,0,0,1-1.236-1.077,1.112,1.112,0,0,1,1.195-1.117q1.909-.026,3.819,0a1.086,1.086,0,0,1,1.186,1.113,1.1,1.1,0,0,1-1.218,1.081C-307.29,472.081-307.927,472.071-308.563,472.071Z" transform="translate(-86.723 -107.461)" fill="#020203"/>
    <path id="Trazado_632501" data-name="Trazado 632501" d="M-218.408,395.8c.656-.092,1.111-.428,1.116-1.121s-.491-1.005-1.111-1.149l0-1.741c.659-.093,1.114-.446,1.114-1.128s-.449-1.038-1.114-1.122q0-.874,0-1.748c.619-.144,1.115-.447,1.11-1.15s-.479-1.015-1.118-1.131c0-1.125.007-2.251,0-3.376,0-.236.066-.5-.182-.672a3.021,3.021,0,0,0,1.331-2.748q-.045-4.422,0-8.844a3.023,3.023,0,0,0-1.315-2.756c.237-.179.165-.44.166-.674.005-.948,0-1.9,0-2.844,1.615-.009,3.229-.01,4.843-.03.532-.007.771.225.742.75-.006.122,0,.245,0,.367q0,19.849,0,39.7a9.383,9.383,0,0,1-7.943,9.471,11.47,11.47,0,0,1-3.072.05c.23-.177.451-.364.689-.528a11.338,11.338,0,0,0,2.731-2.611,10.2,10.2,0,0,0,2.011-6.929,1.1,1.1,0,0,0,1.115-1.121c0-.684-.458-1.032-1.114-1.13q0-.869,0-1.738c.651-.152,1.155-.479,1.109-1.22a1.094,1.094,0,0,0-1.113-1.043Z" transform="translate(-148.685 -32.446)" fill="#8996d4"/>
    <path id="Trazado_632502" data-name="Trazado 632502" d="M-238.787,500.369A10.2,10.2,0,0,1-240.8,507.3a11.338,11.338,0,0,1-2.731,2.611c-.238.165-.46.352-.689.529A9.4,9.4,0,0,1-252.6,502.5c-.264-2.152-.264-2.154,1.854-2.151Q-244.765,500.356-238.787,500.369Z" transform="translate(-128.304 -128.977)" fill="#a3afdf"/>
    <path id="Trazado_632503" data-name="Trazado 632503" d="M-256.345,387.888q0-1.441,0-2.881a1.333,1.333,0,0,0,1.077-1.567c-.039-1.355-.006-1.359,1.384-1.356q4.064.011,8.127.028l0,10.483c-3.028.012-6.057.02-9.085.042-.377,0-.443-.177-.438-.5.012-.952-.017-1.905.011-2.857A1.18,1.18,0,0,0-256.345,387.888Z" transform="translate(-125.741 -45.512)" fill="#3753bd"/>
    <path id="Trazado_632504" data-name="Trazado 632504" d="M-239.015,424.39c.247.173.181.436.182.672,0,1.125,0,2.251,0,3.376q-3.809.02-7.618.039c-1.832.006-3.666-.034-5.5.019-.7.02-.872-.215-.826-.863a16.5,16.5,0,0,0,0-2.269c-.038-.56.146-.688.69-.684,3.762.025,7.525.006,11.287.02A4.63,4.63,0,0,0-239.015,424.39Z" transform="translate(-128.256 -75.37)" fill="#a3afdf"/>
    <path id="Trazado_632505" data-name="Trazado 632505" d="M-238.85,363.6c0,.948.006,1.9,0,2.844,0,.234.071.495-.166.674a4.416,4.416,0,0,0-1.784-.311c-3.714.013-7.429-.017-11.142.027-.739.009-.918-.211-.852-.894a14.727,14.727,0,0,0,.007-1.9c-.012-.341.089-.469.449-.468Q-245.593,363.592-238.85,363.6Z" transform="translate(-128.241 -32.442)" fill="#a3afdf"/>
    <path id="Trazado_632506" data-name="Trazado 632506" d="M-220.376,392.585l0-10.483c.9-.01,1.8-.012,2.7-.032.475-.011.653.228.653.672q0,4.607,0,9.214c0,.449-.189.681-.658.67C-218.574,392.606-219.475,392.6-220.376,392.585Z" transform="translate(-151.129 -45.502)" fill="#2c45a4"/>
    <path id="Trazado_632507" data-name="Trazado 632507" d="M-238.82,473.039v1.782c-4.473.01-8.947.014-13.42.039-.448,0-.512-.177-.517-.563-.016-1.29-.03-1.292,1.251-1.289Z" transform="translate(-128.274 -109.681)" fill="#a3afdf"/>
    <path id="Trazado_632508" data-name="Trazado 632508" d="M-238.813,445.814q0,.874,0,1.748c-4.472.008-8.943.01-13.415.032-.428,0-.523-.139-.526-.543-.01-1.274-.028-1.273,1.266-1.273q5.938,0,11.876,0C-239.349,445.78-239.081,445.8-238.813,445.814Z" transform="translate(-128.273 -90.464)" fill="#a3afdf"/>
    <path id="Trazado_632509" data-name="Trazado 632509" d="M-238.819,459.411q0,.87,0,1.741-4.726.017-9.451.032c-1.075,0-2.15,0-3.225,0-1.3,0-1.279,0-1.269-1.267,0-.41.109-.539.531-.538C-247.759,459.4-243.289,459.4-238.819,459.411Z" transform="translate(-128.272 -100.064)" fill="#a3afdf"/>
    <path id="Trazado_632510" data-name="Trazado 632510" d="M-238.818,486.8q0,.869,0,1.738c-4.469.008-8.938.011-13.408.033-.418,0-.53-.123-.534-.536-.011-1.264-.03-1.266,1.269-1.264Z" transform="translate(-128.271 -119.392)" fill="#a3afdf"/>
    <path id="Trazado_632511" data-name="Trazado 632511" d="M-374.441,351.937c-.268.01-.537.03-.805.03q-15.159,0-30.319,0c-1.044,0-1.044,0-1.045-1.051,0-1.321.029-2.643-.013-3.962-.021-.648.2-.84.84-.838,6.069.02,12.137.009,18.206.013q6.569,0,13.139.023Q-374.439,349.045-374.441,351.937Z" transform="translate(-19.685 -20.128)" fill="#64ccb3"/>
    <path id="Trazado_632512" data-name="Trazado 632512" d="M-297.253,351.949l0-5.784c1.049-.009,2.1-.007,3.146-.03.473-.011.659.2.657.658q-.012,2.269,0,4.537c0,.463-.2.666-.663.657C-295.156,351.966-296.2,351.961-297.253,351.949Z" transform="translate(-96.873 -20.141)" fill="#54ae9a"/>
    <path id="Trazado_632513" data-name="Trazado 632513" d="M-401.455,404.284a7.456,7.456,0,0,1-6.589-6.864,7.479,7.479,0,0,1,5.731-7.82,7.12,7.12,0,0,1,.868-.1c.149.224.4.258.627.339a7.526,7.526,0,0,1,3.35,2.364,7.456,7.456,0,0,1-2.448,11.326C-400.429,403.774-401.052,403.814-401.455,404.284Zm3.674-10.314a1.872,1.872,0,0,0-1.2-1.346.775.775,0,0,1-.54-.677.953.953,0,0,0-1-.883.968.968,0,0,0-1.094.864.9.9,0,0,1-.589.732,2.466,2.466,0,0,0-1.449,1.98c-.134,1.263.454,2.082,1.884,2.593.688.246,1.4.427,2.1.65.237.076.458.207.49.489a.692.692,0,0,1-.388.656,1.712,1.712,0,0,1-2.447-.588,1.071,1.071,0,0,0-1.45-.591,1.1,1.1,0,0,0-.559,1.481,2.979,2.979,0,0,0,1.729,1.791.96.96,0,0,1,.71.794.946.946,0,0,0,1.016.781.964.964,0,0,0,1.043-.841c.056-.415.272-.556.61-.7a3,3,0,0,0,1.885-2.1c.355-1.5-.382-2.689-2.058-3.308-.662-.245-1.35-.419-2.026-.626-.141-.043-.331-.094-.3-.258a.5.5,0,0,1,.294-.294,1.353,1.353,0,0,1,1.495.261,1.044,1.044,0,0,0,1.226.174A1.116,1.116,0,0,0-397.782,393.97Z" transform="translate(-18.674 -50.743)" fill="#70e8aa"/>
    <path id="Trazado_632514" data-name="Trazado 632514" d="M-385.625,404.047c.4-.47,1.026-.51,1.54-.759a7.456,7.456,0,0,0,2.448-11.326,7.526,7.526,0,0,0-3.35-2.364c-.229-.081-.478-.115-.627-.339a6.816,6.816,0,0,1,5.741,1.7,7.331,7.331,0,0,1,2.086,8.419,1.349,1.349,0,0,0,.38,1.812,8.641,8.641,0,0,1-1.976,2.212,1.276,1.276,0,0,0-1.76-.2A6.936,6.936,0,0,1-385.625,404.047Z" transform="translate(-34.504 -50.506)" fill="#63ca95"/>
    <path id="Trazado_632515" data-name="Trazado 632515" d="M-367.192,428.337a8.642,8.642,0,0,0,1.976-2.212c.913.178,1.321.006,1.622-.87a1,1,0,0,1,1.193-.758c.221.094.445.182.663.283a4.671,4.671,0,0,1,2.551,1.833c-2.575-.75-4.836.676-5.04,3.222-.049.612.053,1.153-.583,1.612-.443.32-.308.933.088,1.373a1.77,1.77,0,0,0,.853.4c-.242.315-.415.583-.63.812a1.212,1.212,0,0,0-.349,1.4,1.217,1.217,0,0,0,1.279.658c1.319-.011,2.639.009,3.958.017a5.118,5.118,0,0,1-2.978,1.61A6.669,6.669,0,0,1-368.3,430.6a.668.668,0,0,1,.408-.534C-367.041,429.565-366.941,429.3-367.192,428.337Z" transform="translate(-46.697 -75.439)" fill="#e66d73"/>
    <path id="Trazado_632516" data-name="Trazado 632516" d="M-345.371,426.46a4.671,4.671,0,0,0-2.551-1.833c-.218-.1-.442-.189-.663-.283a6.666,6.666,0,0,1,7.45,5.673,6.746,6.746,0,0,1-5.327,7.535,4.713,4.713,0,0,1-2.31.012,5.116,5.116,0,0,0,2.978-1.61c1.206-.09,1.593-.563,1.344-1.64a1.51,1.51,0,0,0,.28-.322,6.466,6.466,0,0,0,.364-5.078,3.155,3.155,0,0,0-1.02-1.781A1.94,1.94,0,0,0-345.371,426.46Z" transform="translate(-60.512 -75.286)" fill="#e4575d"/>
    <path id="Trazado_632517" data-name="Trazado 632517" d="M-388.345,397.729a1.116,1.116,0,0,1-.626,1.037,1.044,1.044,0,0,1-1.226-.174,1.353,1.353,0,0,0-1.495-.261.5.5,0,0,0-.294.294c-.028.164.162.215.3.258.676.207,1.364.381,2.026.626,1.676.619,2.413,1.8,2.058,3.308a3,3,0,0,1-1.885,2.1c-.338.145-.554.285-.61.7a.964.964,0,0,1-1.042.841.946.946,0,0,1-1.016-.782.96.96,0,0,0-.71-.794,2.979,2.979,0,0,1-1.729-1.791,1.1,1.1,0,0,1,.559-1.481,1.071,1.071,0,0,1,1.45.591,1.712,1.712,0,0,0,2.447.588.693.693,0,0,0,.388-.656c-.032-.282-.253-.413-.49-.489-.7-.223-1.407-.4-2.1-.65-1.431-.512-2.019-1.331-1.884-2.593a2.466,2.466,0,0,1,1.449-1.98.9.9,0,0,0,.589-.732.968.968,0,0,1,1.094-.864.953.953,0,0,1,1,.883.775.775,0,0,0,.54.677A1.872,1.872,0,0,1-388.345,397.729Z" transform="translate(-28.111 -54.503)" fill="#030303"/>
    <path id="Trazado_632518" data-name="Trazado 632518" d="M-350.439,439.084c.249,1.077-.138,1.55-1.344,1.64-1.319-.008-2.639-.027-3.958-.017a1.217,1.217,0,0,1-1.279-.658,1.212,1.212,0,0,1,.349-1.4c.215-.228.388-.5.63-.812a1.77,1.77,0,0,1-.853-.4c-.4-.44-.531-1.053-.088-1.373.636-.459.534-1,.583-1.612.2-2.546,2.465-3.972,5.04-3.222a1.94,1.94,0,0,1,.544.672c.023,1.106-.411,1.481-1.531,1.325a1.519,1.519,0,0,0-1.823,1.821c.082.365.236.554.64.525a10.235,10.235,0,0,1,1.246,0,1.087,1.087,0,0,1,1.13,1.095,1.077,1.077,0,0,1-1.121,1.1,4.287,4.287,0,0,1-.732,0c-.513-.059-.786.137-.795.734.7,0,1.4.019,2.1-.007A1.359,1.359,0,0,1-350.439,439.084Z" transform="translate(-54.524 -80.057)" fill="#020203"/>
    <path id="Trazado_632519" data-name="Trazado 632519" d="M-343.131,441.176a1.359,1.359,0,0,0-1.26-.591c-.7.026-1.4.007-2.1.007.009-.6.282-.793.795-.734a4.288,4.288,0,0,0,.732,0,1.077,1.077,0,0,0,1.121-1.1,1.087,1.087,0,0,0-1.13-1.095,10.234,10.234,0,0,0-1.246,0c-.4.029-.558-.16-.64-.525a1.519,1.519,0,0,1,1.823-1.821c1.12.156,1.554-.22,1.531-1.325a3.154,3.154,0,0,1,1.02,1.781,6.465,6.465,0,0,1-.364,5.078A1.512,1.512,0,0,1-343.131,441.176Z" transform="translate(-61.833 -82.148)" fill="#e66d73"/>
  </g>
</svg>
