<svg xmlns="http://www.w3.org/2000/svg" width="85.864" height="85.875" viewBox="0 0 85.864 85.875">
  <g id="Grupo_956606" data-name="Grupo 956606" transform="translate(-1222 -2167.789)">
    <g id="Grupo_951896" data-name="Grupo 951896" transform="translate(1222 2168)">
      <path id="Trazado_621807" data-name="Trazado 621807" d="M42.832,0A42.832,42.832,0,1,1,0,42.832,42.832,42.832,0,0,1,42.832,0Z" fill="#ef8b53"/>
      <g id="Grupo_957417" data-name="Grupo 957417" transform="translate(94.972 -580.529)">
        <path id="Trazado_632578" data-name="Trazado 632578" d="M-16.34,702.65c-.8.74-1.118,1.819-1.826,2.627-.217.247-.392.531-.585.8-1.119-.548-1.678-.49-2.467.352a21.917,21.917,0,0,1-12.973,6.9c-1.265.2-1.683.747-1.686,2.07-.005,2.04-.02,4.08.011,6.12.008.525-.147.662-.658.651-1.508-.032-3.018-.039-4.526,0-.684.018-.711-.235-.429-.72a5.517,5.517,0,0,0,.642-3.146c-.046-.92,0-1.844-.011-2.766-.013-1.358-.59-1.947-1.936-1.953-2.264-.01-4.528.031-6.79-.01-4.018-.074-8.044.245-12.054-.3a1.592,1.592,0,0,0-1.908,1.775c-.017,2.151-.021,4.3.006,6.455.006.5-.111.677-.644.664q-2.262-.055-4.526,0c-.664.015-.678-.21-.444-.728a4.849,4.849,0,0,0,.642-2.055q-.035-3.688,0-7.378a1.9,1.9,0,0,0-1-1.792,18.874,18.874,0,0,1-2.437-1.771,21.985,21.985,0,0,1-6.637-9.594,5.116,5.116,0,0,0-3.774-3.458,8.021,8.021,0,0,0-2.087-.106c-.371.006-.554-.068-.55-.5.018-2.124.011-4.248.005-6.372,0-.282.041-.436.388-.49,3.361-.526,5.5-2.5,6.886-5.561a21.125,21.125,0,0,1,8.762-9.642,22.238,22.238,0,0,1,12.315-3.008,8.716,8.716,0,0,0-.019,4.76c.119.42-.113.464-.442.459-.643-.01-1.286-.02-1.928,0-1.178.042-1.876.691-1.864,1.7s.714,1.645,1.91,1.646q11.359.013,22.718,0c1.2,0,1.911-.625,1.936-1.622.025-1.037-.7-1.7-1.925-1.729-.977-.022-1.956-.01-2.934,0-.357,0-.584-.008-.444-.5a8.437,8.437,0,0,0,.1-4.144c-.088-.4-.057-.589.449-.6,6.367-.2,12.039,1.585,16.7,6.034a21.461,21.461,0,0,1,6.844,17.248c-.073,1.553.149,1.946,1.336,2.445a12.226,12.226,0,0,1-.649,3.214c-.071.292-.133.586-.2.879a1.722,1.722,0,0,0-2.232.883C-17.669,701.248-17.343,702.03-16.34,702.65Zm-31.79-7.893c-.117-.17-.171-.235-.21-.308-3.5-6.406-10.861-9.074-17.924-7.107a1.846,1.846,0,0,0-1.469,1.324c-1.629,6.13-.575,11.643,4.153,16.045,4.119,3.834,9.108,4.713,14.51,3.407a3.531,3.531,0,0,1,1.871,0,15.181,15.181,0,0,0,6.393.4c9.8-1.453,14.9-10.8,12.275-19.8a1.756,1.756,0,0,0-1.276-1.309,15.746,15.746,0,0,0-13.678,2.039A14.639,14.639,0,0,0-48.13,694.756Zm-23.7-10.38a1.666,1.666,0,0,0-1.735-1.638,1.657,1.657,0,0,0-1.589,1.7,1.677,1.677,0,0,0,1.648,1.65A1.685,1.685,0,0,0-71.829,684.376Z" transform="translate(-6.625 -59.32)" fill="#b3dec8"/>
        <path id="Trazado_632579" data-name="Trazado 632579" d="M-20.829,682.123c-1.187-.5-1.408-.892-1.336-2.445a21.461,21.461,0,0,0-6.844-17.248c-4.657-4.449-10.328-6.231-16.7-6.034-.505.016-.536.2-.449.6a8.436,8.436,0,0,1-.1,4.144c-.14.5.087.506.444.5.978-.007,1.957-.019,2.934,0,1.228.027,1.95.692,1.925,1.729-.025,1-.737,1.62-1.936,1.622q-11.359.012-22.718,0c-1.2,0-1.9-.636-1.91-1.646s.686-1.661,1.864-1.7c.642-.023,1.285-.013,1.928,0,.329.005.561-.039.442-.459a8.716,8.716,0,0,1,.019-4.76,22.238,22.238,0,0,0-12.315,3.008,21.125,21.125,0,0,0-8.762,9.641c-1.381,3.06-3.525,5.036-6.886,5.562-.347.054-.389.208-.388.49.005,2.124.013,4.248-.005,6.372,0,.431.179.505.55.5a8.021,8.021,0,0,1,2.087.106,5.117,5.117,0,0,1,3.774,3.458,21.985,21.985,0,0,0,6.637,9.593,18.87,18.87,0,0,0,2.437,1.771,1.9,1.9,0,0,1,1,1.792q-.032,3.689,0,7.378a4.849,4.849,0,0,1-.642,2.055c-.234.518-.22.743.444.728q2.262-.05,4.526,0c.533.013.65-.16.644-.664-.027-2.152-.023-4.3-.006-6.455a1.592,1.592,0,0,1,1.908-1.775c4.01.545,8.036.226,12.054.3,2.263.042,4.527,0,6.79.01,1.346.006,1.923.6,1.936,1.953.009.922-.034,1.846.011,2.766a5.517,5.517,0,0,1-.642,3.146c-.282.485-.254.738.429.72,1.508-.04,3.018-.033,4.526,0,.511.011.666-.126.658-.651-.031-2.04-.016-4.08-.011-6.12,0-1.323.421-1.875,1.686-2.07a21.918,21.918,0,0,0,12.973-6.9c.789-.841,1.348-.9,2.467-.352a1.778,1.778,0,0,1-.109,2.728,24.133,24.133,0,0,1-5.723,4.6,1.147,1.147,0,0,0-.687,1.161c.033,2.934.017,5.869.014,8.8,0,1.576-.552,2.138-2.1,2.139q-6.917,0-13.834,0c-3,0-4.659-2.469-3.428-5.2a7.377,7.377,0,0,0,.417-2.942c.014-.409-.185-.439-.507-.438-2.543.008-5.086.017-7.629-.006-.493,0-.6.161-.6.623.023,1.956.014,3.913.008,5.869,0,1.517-.568,2.091-2.058,2.092q-6.958,0-13.917,0a3.522,3.522,0,0,1-3.408-5.169,5.049,5.049,0,0,0,.447-2.179c-.036-1.62-.025-3.242,0-4.863a1.008,1.008,0,0,0-.493-.953,25.073,25.073,0,0,1-9.307-12.172,1.9,1.9,0,0,0-2.175-1.538c-.7-.005-1.4.02-2.1-.006A2.313,2.313,0,0,1-94.96,682.9q-.024-4.528,0-9.055a2.234,2.234,0,0,1,2.3-2.452,5.445,5.445,0,0,0,5.29-3.746,21.286,21.286,0,0,1,3.932-5.993,1.09,1.09,0,0,0,.205-1.383c-1.166-2.651-2.291-5.321-3.417-7.989-.641-1.517.091-2.6,1.752-2.609a22.318,22.318,0,0,1,5.5.356,13.405,13.405,0,0,1,6.648,3.831c.267.282.488.469.923.326a28.516,28.516,0,0,1,9.684-1.121,1.544,1.544,0,0,0,1.24-.5,8.724,8.724,0,0,1,12.288.005,1.567,1.567,0,0,0,1.243.5,34.291,34.291,0,0,1,10.135.945,25.373,25.373,0,0,1,12.858,8.48c.158.193.323.379.489.566.011.013.05,0,.139,0a5.266,5.266,0,0,1,1.987-3.759,5.031,5.031,0,0,1,3.175-1.114c2.706-.017,4.424,1.539,5.307,4.82a3.333,3.333,0,0,0,.825-2.221c.078-1.235.732-1.936,1.764-1.889a1.7,1.7,0,0,1,1.58,2.052,7.887,7.887,0,0,1-4.318,6.723,1.874,1.874,0,0,0-.836.761,7.4,7.4,0,0,1-4.616,3.738c-.45.129-.6.26-.475.784a24.991,24.991,0,0,1,.539,7.16C-18.9,681.527-19.389,682.032-20.829,682.123Zm-33.938-20.476c1.339,0,2.678-.023,4.016.012a.922.922,0,0,0,1.016-.631,5.505,5.505,0,0,0-1.673-6.475,5.444,5.444,0,0,0-6.74.007,5.477,5.477,0,0,0-1.646,6.474.862.862,0,0,0,.928.626C-57.5,661.622-56.133,661.647-54.767,661.647Zm19.529,40.5c-1.247.337-2.42.664-3.6.968-.292.076-.314.257-.314.5,0,1.59.008,3.18,0,4.77,0,.333.064.511.454.5,1-.021,2.008-.014,3.012,0,.3,0,.456-.071.455-.414C-35.243,706.373-35.238,704.285-35.238,702.143Zm-31.576,3.963c0,.751.019,1.5-.007,2.253-.014.4.121.531.521.521.945-.025,1.892-.028,2.837,0,.432.013.579-.113.571-.558-.026-1.363-.022-2.727,0-4.09.006-.409-.081-.593-.545-.59-.972.006-1.946-.031-2.916-.1-.4-.027-.468.14-.462.473C-66.805,704.715-66.814,705.41-66.814,706.106Zm-13.5-47.489a27.642,27.642,0,0,1,4.246-2.728c.379-.191.23-.343,0-.53a10.1,10.1,0,0,0-6.118-2.33c-.435-.022-.463.146-.318.483C-81.773,655.192-81.055,656.875-80.31,658.617Zm59.938,4.753a1.856,1.856,0,0,0,1.849,1.864,1.924,1.924,0,0,0,1.845-1.9,1.853,1.853,0,0,0-1.834-1.8A1.8,1.8,0,0,0-20.372,663.37Zm-.506,4.679c.354,1.261.612,1.327,1.849.463A5.839,5.839,0,0,1-20.878,668.049Z" transform="translate(0 -46.038)" fill="#020202"/>
        <path id="Trazado_632580" data-name="Trazado 632580" d="M28.494,597.961a8.821,8.821,0,1,1,8.866-8.8A8.789,8.789,0,0,1,28.494,597.961Zm.074-3.357a5.465,5.465,0,1,0-5.494-5.439A5.46,5.46,0,0,0,28.568,594.6Z" transform="translate(-76.147 0)" fill="#030302"/>
        <path id="Trazado_632581" data-name="Trazado 632581" d="M117.12,761.415c-1-.619-1.328-1.4-.944-2.268a1.722,1.722,0,0,1,2.232-.884c.914.7,1.171,1.365.839,2.179S118.263,761.547,117.12,761.415Z" transform="translate(-140.085 -118.085)" fill="#050606"/>
        <path id="Trazado_632582" data-name="Trazado 632582" d="M-15.444,728.418a14.639,14.639,0,0,1,4.644-5.305,15.746,15.746,0,0,1,13.678-2.039,1.756,1.756,0,0,1,1.276,1.309c2.629,9-2.475,18.349-12.275,19.8a15.184,15.184,0,0,1-6.393-.4,3.528,3.528,0,0,0-1.871,0c-5.4,1.306-10.391.427-14.51-3.407-4.729-4.4-5.782-9.915-4.153-16.044A1.846,1.846,0,0,1-33.579,721c7.064-1.967,14.425.7,17.924,7.107C-15.615,728.183-15.561,728.249-15.444,728.418Zm4.144,10.456a3.433,3.433,0,0,0,.509.105c8.537.187,13.53-7.114,12.016-14.465-.079-.384-.27-.486-.6-.558a11.756,11.756,0,0,0-13.94,8.209,10.949,10.949,0,0,0-.359,4.433c.508-.543.879-.959,1.271-1.355.983-.992,1.959-1.993,2.97-2.956a1.65,1.65,0,0,1,2.337-.023,1.669,1.669,0,0,1,.054,2.341c-.2.234-.427.441-.644.658C-8.866,736.443-10.047,737.622-11.3,738.874Zm-5.941-2.328a4.991,4.991,0,0,0,.1-.536c.2-8.084-6.523-13.539-14.447-12.047a.643.643,0,0,0-.575.6c-1.038,5.579,1.371,10.852,6.247,13.206a12.064,12.064,0,0,0,6.169,1.17c-.07-.38-.335-.517-.521-.706-1.177-1.193-2.372-2.369-3.544-3.566a1.6,1.6,0,0,1-.308-2,1.587,1.587,0,0,1,1.758-.847,1.956,1.956,0,0,1,1.122.68Z" transform="translate(-39.311 -92.982)" fill="#020302"/>
        <path id="Trazado_632583" data-name="Trazado 632583" d="M-52.388,710.2a1.685,1.685,0,0,1-1.676,1.708,1.677,1.677,0,0,1-1.648-1.65,1.657,1.657,0,0,1,1.589-1.7A1.666,1.666,0,0,1-52.388,710.2Z" transform="translate(-26.066 -85.148)" fill="#040504"/>
        <path id="Trazado_632584" data-name="Trazado 632584" d="M13.846,669.013c-1.366,0-2.734-.024-4.1.012a.862.862,0,0,1-.928-.626,5.472,5.472,0,1,1,10.058-.006.922.922,0,0,1-1.016.631C16.524,668.99,15.185,669.013,13.846,669.013Z" transform="translate(-68.613 -53.405)" fill="#f5ca86"/>
        <path id="Trazado_632585" data-name="Trazado 632585" d="M75.04,805.834c0,2.141-.005,4.23.005,6.319,0,.344-.152.418-.455.414-1-.011-2.008-.018-3.012,0-.391.008-.456-.169-.454-.5.011-1.59.006-3.18,0-4.77,0-.239.022-.42.314-.5C72.62,806.5,73.793,806.171,75.04,805.834Z" transform="translate(-110.278 -149.729)" fill="#8ccbaa"/>
        <path id="Trazado_632586" data-name="Trazado 632586" d="M-11.2,812.563c0-.7.009-1.391,0-2.087-.006-.332.057-.5.462-.473.97.066,1.944.1,2.916.1.464,0,.551.18.545.59-.019,1.363-.024,2.727,0,4.09.009.446-.139.572-.571.558-.945-.029-1.892-.026-2.837,0-.4.01-.535-.12-.521-.521C-11.182,814.066-11.2,813.314-11.2,812.563Z" transform="translate(-55.613 -152.495)" fill="#8cccaa"/>
        <path id="Trazado_632587" data-name="Trazado 632587" d="M-55.818,665.27c-.745-1.742-1.463-3.424-2.186-5.105-.145-.337-.117-.5.318-.483a10.1,10.1,0,0,1,6.118,2.33c.227.187.375.339,0,.53A27.633,27.633,0,0,0-55.818,665.27Z" transform="translate(-24.492 -52.691)" fill="#8ac8a7"/>
        <path id="Trazado_632588" data-name="Trazado 632588" d="M35.2,601.234a5.465,5.465,0,0,1-.12-10.929,5.465,5.465,0,1,1,.12,10.929Z" transform="translate(-82.778 -6.631)" fill="#f4ca86"/>
        <path id="Trazado_632589" data-name="Trazado 632589" d="M32.176,745.413c1.253-1.252,2.434-2.431,3.614-3.611.217-.217.447-.424.644-.658a1.669,1.669,0,0,0-.054-2.341,1.65,1.65,0,0,0-2.337.023c-1.011.963-1.987,1.964-2.97,2.956-.392.4-.763.811-1.271,1.355a10.95,10.95,0,0,1,.359-4.433,11.756,11.756,0,0,1,13.94-8.209c.33.072.521.174.6.558,1.514,7.351-3.479,14.652-12.016,14.465A3.425,3.425,0,0,1,32.176,745.413Z" transform="translate(-82.787 -99.52)" fill="#e2eca8"/>
        <path id="Trazado_632590" data-name="Trazado 632590" d="M-10.6,743.173l-4-4.041a1.956,1.956,0,0,0-1.122-.68,1.587,1.587,0,0,0-1.758.847,1.6,1.6,0,0,0,.308,2c1.173,1.2,2.368,2.373,3.544,3.566.186.188.451.325.521.706a12.063,12.063,0,0,1-6.169-1.17c-4.875-2.354-7.284-7.628-6.247-13.206a.643.643,0,0,1,.575-.6c7.924-1.492,14.642,3.963,14.447,12.047A4.988,4.988,0,0,1-10.6,743.173Z" transform="translate(-45.948 -99.608)" fill="#e2eca8"/>
      </g>
    </g>
  </g>
</svg>
