<svg xmlns="http://www.w3.org/2000/svg" width="82" height="82" viewBox="0 0 82 82">
  <g id="Grupo_968850" data-name="Grupo 968850" transform="translate(-193 -19655)">
    <g id="Grupo_962219" data-name="Grupo 962219" transform="translate(200 19662)">
      <path id="Trazado_633765" data-name="Trazado 633765" d="M652.3,17.091c-.382.922-.863,1.2-1.775,1.026A35.131,35.131,0,0,1,634.8,10.841c-.337-.273-.654-.571-.99-.865-.148.13-.065.315-.065.473q-.008,10.513-.013,21.027a.735.735,0,0,0,.466.789,3.8,3.8,0,0,1,2.168,3.488c.023.854.017,1.709,0,2.563a1.3,1.3,0,0,1-1.405,1.391q-5.16.015-10.321,0a1.312,1.312,0,0,1-1.417-1.447q-.016-1.215,0-2.431a3.831,3.831,0,0,1,2.218-3.589.643.643,0,0,0,.417-.686q-.014-12.123,0-24.246a.861.861,0,0,0-.321-.726,6.474,6.474,0,0,1-1.629-7.862,6.544,6.544,0,0,1,6.821-3.645,6.705,6.705,0,0,1,5.61,5.8,5.526,5.526,0,0,1-.174,2.342c-.107.348-.024.41.32.372a4.107,4.107,0,0,1,3.2,1.074c9.007,7.624,22.906,8.132,32.574,1.4.664-.462,1.3-.963,1.925-1.481a3.9,3.9,0,0,1,3.028-.992c.539.062.428-.141.348-.5a6.629,6.629,0,0,1,5.282-7.972,6.478,6.478,0,0,1,6.92,3.427,6.407,6.407,0,0,1-1.2,7.718,1.927,1.927,0,0,0-.658,1.575q.032,11.761,0,23.523a.882.882,0,0,0,.537.947,3.751,3.751,0,0,1,2.1,3.4c.03.853.016,1.708,0,2.562a1.313,1.313,0,0,1-1.422,1.442q-5.16.014-10.32,0a1.3,1.3,0,0,1-1.4-1.4q-.023-1.248,0-2.5a3.844,3.844,0,0,1,2.23-3.584.6.6,0,0,0,.406-.626q-.017-10.71-.009-21.421a2.4,2.4,0,0,0-.029-.239,32.637,32.637,0,0,1-6.538,4.569,35.4,35.4,0,0,1-10.218,3.606,1.379,1.379,0,0,1-1.773-1.027c.047-1.033.344-1.374,1.385-1.576a32.534,32.534,0,0,0,14.488-6.733c.886-.717,1.061-1.467.5-2.122s-1.279-.608-2.133.072c-.65.518-1.3,1.044-1.984,1.511a29.387,29.387,0,0,1-18.71,5.074,29.238,29.238,0,0,1-13.541-4.141,31.632,31.632,0,0,1-3.622-2.6,1.312,1.312,0,0,0-2.225.737c-.116.686.326,1.09.8,1.472a32.635,32.635,0,0,0,14.489,6.733C651.951,15.717,652.252,16.06,652.3,17.091Zm-21.188,2.837V14.475c0-1.993-.008-3.986.007-5.978,0-.371-.063-.507-.47-.4a2.931,2.931,0,0,1-1.5.024c-.683-.19-.675.125-.675.633q.017,10.511.013,21.023c0,.67-.291,1.565.128,1.944.365.331,1.25.059,1.9.114.5.042.611-.116.608-.606C631.1,27.462,631.111,23.695,631.111,19.928ZM682.654,8.034v.795q0,10.511,0,21.023c0,.632-.222,1.48.1,1.838.367.412,1.236.06,1.879.142.57.072.666-.151.664-.68q-.027-11.234-.012-22.468c0-.109-.009-.22,0-.328.027-.273-.087-.335-.344-.28A5.935,5.935,0,0,1,682.654,8.034ZM629.8-2.347a3.951,3.951,0,0,0-3.949,3.9,3.942,3.942,0,1,0,7.885.015A3.955,3.955,0,0,0,629.8-2.347Zm54.138,0a3.951,3.951,0,0,0-3.915,3.935,3.942,3.942,0,1,0,7.884-.053A3.957,3.957,0,0,0,683.942-2.347ZM629.8,37.081h2.755c1.24,0,1.24,0,1.185-1.252a1.3,1.3,0,0,0-1.292-1.366q-2.656-.036-5.312,0a1.28,1.28,0,0,0-1.279,1.309c-.015.283.02.571-.01.852-.041.384.119.471.479.465C627.483,37.068,628.642,37.081,629.8,37.081Zm54.154,0h2.82c1.167,0,1.167,0,1.138-1.168a1.313,1.313,0,0,0-1.34-1.453q-2.623-.03-5.247,0a1.284,1.284,0,0,0-1.3,1.292c-.016.261.019.527-.01.786-.046.412.077.566.525.552C681.68,37.058,682.818,37.081,683.955,37.081Z" transform="translate(-623.216 16.27)" fill="#020101"/>
      <path id="Trazado_633766" data-name="Trazado 633766" d="M684.835,126.782q-11.012,0-22.023.007a1.486,1.486,0,0,1-1.449-.695,1.507,1.507,0,0,1,.125-1.551q3.965-7.9,7.919-15.815c1.642-3.28,3.294-6.556,4.917-9.846a1.642,1.642,0,0,1,1.65-1.025q8.875.028,17.75,0a1.65,1.65,0,0,1,1.661,1.01q6.416,12.864,12.857,25.717c.648,1.3.077,2.2-1.383,2.2ZM664.753,124.1h40.275c-.069-.162-.105-.262-.153-.356q-5.7-11.408-11.4-22.821c-.2-.4-.457-.433-.828-.432q-7.788.012-15.577-.006a.845.845,0,0,0-.89.55q-5.6,11.241-11.219,22.468C664.869,123.691,664.7,123.86,664.753,124.1Z" transform="translate(-651.191 -59.499)" fill="#010001"/>
      <path id="Trazado_633767" data-name="Trazado 633767" d="M729.745-38.146a2.928,2.928,0,0,1-.806,1.89c-.944,1.006-1.886,2.015-2.847,3a.864.864,0,0,0-.258.818c.2,1.275.366,2.555.544,3.833a3.006,3.006,0,0,1-1.182,2.954,2.961,2.961,0,0,1-3.157.389q-1.8-.779-3.551-1.682a1.22,1.22,0,0,0-1.272.028c-1.025.536-2.084,1.008-3.119,1.525a3.092,3.092,0,0,1-3.459-.251,3.042,3.042,0,0,1-1.177-3.136c.2-1.274.328-2.56.516-3.837a.727.727,0,0,0-.251-.686c-.889-.907-1.763-1.829-2.649-2.739a3.068,3.068,0,0,1-.826-3.312,3.125,3.125,0,0,1,2.611-2.118c1.248-.224,2.493-.462,3.743-.675a.868.868,0,0,0,.7-.506c.567-1.108,1.164-2.2,1.744-3.3a3.1,3.1,0,0,1,2.82-1.826,3.1,3.1,0,0,1,2.9,1.806c.606,1.112,1.216,2.223,1.8,3.345a.885.885,0,0,0,.745.519c1.232.183,2.457.419,3.683.644A3.23,3.23,0,0,1,729.745-38.146ZM712.031-28.133c.01.453.379.624.946.355,1.322-.628,2.65-1.247,3.95-1.919a1.89,1.89,0,0,1,1.865-.012c1.348.674,2.719,1.3,4.079,1.953.248.119.5.2.734,0,.208-.178.186-.411.149-.664-.211-1.472-.374-2.952-.621-4.417a1.819,1.819,0,0,1,.566-1.711c1.056-1.081,2.089-2.183,3.122-3.286.488-.521.368-.9-.338-1.034-1.439-.272-2.881-.537-4.328-.765a1.893,1.893,0,0,1-1.53-1.07c-.678-1.322-1.412-2.615-2.123-3.92-.136-.249-.249-.534-.6-.523s-.455.3-.588.548c-.7,1.311-1.4,2.619-2.093,3.936a1.642,1.642,0,0,1-1.26.928c-1.486.258-2.966.555-4.448.837-.3.056-.644.04-.764.4-.131.4.2.594.415.824.862.9,1.682,1.854,2.611,2.682a2.561,2.561,0,0,1,.828,2.639C712.348-30.973,712.219-29.576,712.031-28.133Z" transform="translate(-684.246 47.777)" fill="#030302"/>
      <path id="Trazado_633768" data-name="Trazado 633768" d="M686.951,48.423c-.047-1.031-.348-1.374-1.385-1.577a32.634,32.634,0,0,1-14.489-6.733c-.473-.383-.915-.786-.8-1.472A1.312,1.312,0,0,1,672.5,37.9a31.639,31.639,0,0,0,3.622,2.6,30.294,30.294,0,0,0,32.251-.933c.687-.467,1.334-.994,1.984-1.511.854-.68,1.586-.714,2.133-.072s.384,1.4-.5,2.122A32.534,32.534,0,0,1,697.5,46.847c-1.04.2-1.338.543-1.385,1.576l-3.249.273c-.2-.863-.677-1.316-1.365-1.3-.665.018-1.112.463-1.3,1.3Z" transform="translate(-657.868 -15.062)" fill="#ea687d"/>
      <path id="Trazado_633769" data-name="Trazado 633769" d="M745.973,76.29c.19-.834.636-1.279,1.3-1.3.688-.019,1.165.435,1.365,1.3-.192.926-.591,1.321-1.334,1.321S746.159,77.208,745.973,76.29Z" transform="translate(-713.64 -42.656)" fill="#060404"/>
      <path id="Trazado_633770" data-name="Trazado 633770" d="M645.579,56.47c0,3.766-.01,7.533.012,11.3,0,.49-.111.648-.608.606-.65-.055-1.534.217-1.9-.114-.42-.379-.127-1.275-.128-1.944q-.013-10.511-.013-21.023c0-.508-.008-.823.675-.633a2.931,2.931,0,0,0,1.5-.024c.407-.106.473.029.47.4-.014,1.993-.007,3.986-.007,5.978Z" transform="translate(-637.684 -20.271)" fill="#f8d998"/>
      <path id="Trazado_633771" data-name="Trazado 633771" d="M848.675,44.5a5.935,5.935,0,0,0,2.286.042c.257-.055.371.007.344.28-.011.108,0,.219,0,.328q0,11.234.012,22.468c0,.528-.094.752-.664.68-.643-.082-1.512.27-1.879-.142-.319-.358-.1-1.207-.1-1.838q0-10.511,0-21.023Z" transform="translate(-789.237 -20.195)" fill="#f8d998"/>
      <path id="Trazado_633772" data-name="Trazado 633772" d="M637.181,5.087A3.956,3.956,0,0,1,641.117,9a3.942,3.942,0,1,1-7.885-.015A3.951,3.951,0,0,1,637.181,5.087Z" transform="translate(-630.594 8.837)" fill="#f3c05c"/>
      <path id="Trazado_633773" data-name="Trazado 633773" d="M842.82,5.087a3.957,3.957,0,0,1,3.969,3.882,3.942,3.942,0,1,1-7.884.053A3.951,3.951,0,0,1,842.82,5.087Z" transform="translate(-782.094 8.837)" fill="#f3c05c"/>
      <path id="Trazado_633774" data-name="Trazado 633774" d="M637.14,147.409c-1.159,0-2.317-.013-3.476.008-.359.006-.52-.081-.479-.465.03-.281,0-.568.01-.852a1.28,1.28,0,0,1,1.279-1.309q2.656-.036,5.312,0a1.3,1.3,0,0,1,1.292,1.366c.055,1.252.055,1.252-1.185,1.252Z" transform="translate(-630.555 -94.057)" fill="#f4c05c"/>
      <path id="Trazado_633775" data-name="Trazado 633775" d="M842.787,147.409c-1.137,0-2.274-.023-3.41.011-.449.014-.572-.14-.525-.552.029-.259-.006-.524.01-.786a1.284,1.284,0,0,1,1.3-1.292q2.623-.033,5.247,0a1.313,1.313,0,0,1,1.34,1.453c.028,1.168.028,1.168-1.138,1.168Z" transform="translate(-782.048 -94.058)" fill="#f4c05c"/>
      <path id="Trazado_633776" data-name="Trazado 633776" d="M674.681,131.449c-.052-.24.116-.409.21-.6q5.611-11.233,11.219-22.468a.845.845,0,0,1,.89-.55q7.788.026,15.577.006c.371,0,.628.031.828.432q5.683,11.418,11.4,22.821c.047.094.083.194.153.356Z" transform="translate(-661.118 -66.847)" fill="#ec687e"/>
      <path id="Trazado_633777" data-name="Trazado 633777" d="M719.433-20.773c.188-1.442.317-2.84.568-4.215a2.561,2.561,0,0,0-.828-2.639c-.929-.828-1.749-1.779-2.611-2.682-.219-.23-.546-.428-.415-.824.12-.362.468-.345.764-.4,1.482-.282,2.962-.58,4.448-.837a1.642,1.642,0,0,0,1.26-.928c.689-1.317,1.394-2.625,2.093-3.936.133-.25.241-.538.588-.548s.466.274.6.523c.711,1.305,1.445,2.6,2.123,3.92a1.893,1.893,0,0,0,1.53,1.07c1.447.228,2.888.493,4.328.765.706.134.826.513.338,1.034-1.032,1.1-2.066,2.205-3.122,3.286a1.819,1.819,0,0,0-.566,1.711c.247,1.466.41,2.946.621,4.417.036.253.059.487-.149.664-.237.2-.486.117-.734,0-1.36-.651-2.731-1.28-4.079-1.953a1.89,1.89,0,0,0-1.865.012c-1.3.672-2.628,1.291-3.95,1.919C719.812-20.148,719.443-20.32,719.433-20.773Z" transform="translate(-691.648 40.416)" fill="#f4c05c"/>
    </g>
    <rect id="Rectángulo_307292" data-name="Rectángulo 307292" width="82" height="82" transform="translate(193 19655)" fill="none"/>
  </g>
</svg>
