<svg xmlns="http://www.w3.org/2000/svg" width="95.717" height="95.717" viewBox="0 0 95.717 95.717">
  <g id="Grupo_956611" data-name="Grupo 956611" transform="translate(0)">
    <ellipse id="Elipse_7650" data-name="Elipse 7650" cx="47.858" cy="47.859" rx="47.858" ry="47.859" transform="translate(0)" fill="#ef8b53"/>
    <g id="Grupo_962208" data-name="Grupo 962208" transform="translate(0.001 0.033)">
      <path id="Trazado_633696" data-name="Trazado 633696" d="M776.452,108.545a38.607,38.607,0,0,1-.033,4.867,7.878,7.878,0,0,1-8.108,6.977q-14.1.019-28.208,0-17.393,0-34.787,0c-5.19,0-8.549-3.345-8.554-8.51q0-4.335,0-8.67c0-1.375.566-1.943,1.921-1.954,1.263-.01,2.526-.021,3.788.007.487.011.764-.081.674-.641a3.761,3.761,0,0,1-.005-.6V27.177c0-2.088.385-2.466,2.509-2.466h68.477c1.964,0,2.382.421,2.382,2.4q0,20.579-.022,41.158c0,.9.219,1.138,1.122,1.12,2.889-.058,4.96,1.651,5.257,4.217A4.816,4.816,0,0,1,778,78.93c-1.489.02-1.489.02-1.489,1.5q0,4.933,0,9.866A3.783,3.783,0,0,0,778,92.48c.308.091.391-.189.561-.318a1.577,1.577,0,0,1,2.389.121c3.158,3.138,6.336,6.256,9.428,9.458a7.328,7.328,0,0,1,1.414,8.217,7.029,7.029,0,0,1-6.862,4.034,7.612,7.612,0,0,1-5.039-2.316c-1.074-1.072-2.139-2.154-3.208-3.232Zm-40.2-51.94h-1.11q-8.622,0-17.244,0c-1.265,0-1.985-.582-1.993-1.582s.712-1.605,1.969-1.6q11.163.014,22.326.052a1.786,1.786,0,0,0,.921-.3,21.751,21.751,0,0,1,5.819-2.249c.691-.155.884-.391.878-1.095-.037-4.484-.021-8.969-.018-13.454,0-1.567.523-2.092,2.084-2.093q5.831-.005,11.662,0c1.7,0,2.2.491,2.2,2.177,0,5.216.012,10.431-.014,15.647a1.29,1.29,0,0,0,.734,1.323,23.762,23.762,0,0,1,8.388,8.059c.1.16.113.47.462.4,0-11.1-.012-22.2.022-33.291,0-.857-.46-.69-.932-.69q-32.595,0-65.19-.021c-.769,0-.9.212-.9.932q.03,35.778,0,71.556c0,.772.217.906.934.9,7.077-.028,14.155-.014,21.232-.02,1.09,0,2.57.385,3.167-.167.682-.63.186-2.124.2-3.24.027-2.772.208-2.969,3.013-2.969h5.5a29.715,29.715,0,0,1-6.913-6.374c0,.474,0,.671,0,.868-.009,1.889-.444,2.316-2.364,2.317q-7.376,0-14.753,0c-1.454,0-2.018-.544-2.021-1.957q-.01-6.029,0-12.059c0-1.361.574-1.921,1.947-1.928,1.828-.009,3.655-.017,5.482.007.558.008.8,0,.654-.731a4.554,4.554,0,0,1,1.936-4.787,5.21,5.21,0,0,1,3.7-.859c.812.068,1.226-.123,1.385-1.029a23.132,23.132,0,0,1,1.965-5.36h-2.9c-3.622,0-7.243.01-10.865-.008a1.577,1.577,0,0,1-1.705-1.565,1.6,1.6,0,0,1,1.659-1.614c.232-.012.465,0,.7,0,4.752,0,9.5-.017,14.254.018a1.744,1.744,0,0,0,1.573-.765C734.714,58.234,735.447,57.5,736.255,56.6Zm25.916,60.6c-1.528-2.022-1.682-4.207-1.621-6.459.049-1.825-.014-3.653.023-5.478.013-.618-.112-.838-.8-.837q-29.538.031-59.077,0c-.625,0-.772.165-.762.772.038,2.191.015,4.383.015,6.574,0,3.523,1.889,5.425,5.391,5.426h56.828Zm4.768-43A14.353,14.353,0,1,0,752.674,88.5,14.377,14.377,0,0,0,766.939,74.2Zm-9.824,27.05c1.554,0,3.041,0,4.527,0,1.575,0,2.105.521,2.107,2.07,0,3.022-.017,6.043.008,9.065a4.778,4.778,0,1,0,9.557.054,35.426,35.426,0,0,1,.037-3.98,5.484,5.484,0,0,0-2.39-5.72,1.7,1.7,0,0,1-.283-.279,1.526,1.526,0,0,1-.076-2.3c.392-.438.339-.65-.046-1.024-1.5-1.458-2.986-2.932-4.435-4.44-.412-.429-.674-.414-1.159-.113a21.3,21.3,0,0,1-6.764,2.787c-.737.159-.875.465-.84,1.124A7.2,7.2,0,0,1,757.115,101.255Zm28.422,9.576a3.72,3.72,0,0,0,3.4-2.342,4,4,0,0,0-.91-4.588c-2.582-2.669-5.245-5.261-7.855-7.9-.375-.38-.592-.354-.951.013q-2.366,2.418-4.786,4.782c-.394.383-.326.6.028.951,2.617,2.589,5.209,5.2,7.821,7.8A4.527,4.527,0,0,0,785.537,110.831ZM723.875,88.5c1.891,0,3.782-.02,5.672.012.557.01.717-.145.723-.712.026-2.78.1-5.551-.956-8.216-.2-.5-.355-.664-.865-.661q-5.125.028-10.25,0c-.566,0-.72.16-.714.719q.041,4.079,0,8.158c-.006.565.159.725.719.715C720.093,88.477,721.984,88.5,723.875,88.5Zm27.117-44.431c.286-.053.48-.087.674-.124a4.814,4.814,0,0,1,5.706,4.407c.057.8-.389,1.826.246,2.351a6.434,6.434,0,0,0,2.348.708.878.878,0,0,1,.1.023c.415.158.5-.033.5-.417q-.012-6.52,0-13.04c0-.385-.121-.515-.51-.513-2.854.012-5.708.008-8.562,0-.293,0-.509.022-.507.41C751,39.927,750.992,41.977,750.992,44.067Zm21.7,25.249a5.016,5.016,0,0,0-.092-.509,20.74,20.74,0,0,0-14.241-14.582c-.869-.284-1.119-.072-1,.793a2.672,2.672,0,0,1-.245,1.459c-.268.58-.01.757.484.886a14.105,14.105,0,0,1,3.218,1.3,17.447,17.447,0,0,1,8.552,10.413c.09.288.054.857.646.6A8.433,8.433,0,0,1,772.7,69.316ZM747.74,94.287a8.326,8.326,0,0,1,.293-2.418c.28-.6.051-.783-.5-.958a17.324,17.324,0,0,1-11.467-10.89c-.176-.462-.2-1.082-.526-1.36-.37-.316-.9.192-1.384.223a3.966,3.966,0,0,1-.793.038c-.912-.129-.93.26-.7.994A21.131,21.131,0,0,0,738.172,89,20.623,20.623,0,0,0,747.74,94.287Zm9.669-.074a.79.79,0,0,0,.24.024,20.662,20.662,0,0,0,14.93-14.616c.206-.667-.041-.734-.574-.694a3.567,3.567,0,0,1-1.758-.254c-.6-.272-.746.02-.879.5a16.114,16.114,0,0,1-2.235,4.747,17.463,17.463,0,0,1-9.395,6.992c-.288.091-.9.018-.7.576A9.788,9.788,0,0,1,757.409,94.213ZM732.439,69.3a8.49,8.49,0,0,1,2.417.294c.6.278.784.063.96-.5a17.307,17.307,0,0,1,10.89-11.467c.462-.176,1.082-.2,1.362-.524.32-.37-.193-.9-.222-1.383a4.823,4.823,0,0,1-.037-.893c.105-.814-.241-.823-.893-.628a20.92,20.92,0,0,0-9.051,5.386A20.584,20.584,0,0,0,732.439,69.3Zm15.637,31.956a5.216,5.216,0,0,1-.262-2.356c.075-.739-.227-.855-.891-.848-3.188.034-6.377.015-9.565.015-2.349,0-2.324,0-2.333,2.38,0,.644.159.834.817.824,2.59-.039,5.181-.016,7.771-.016Zm2.914-49.429c0,.993-.014,1.986,0,2.978a1.617,1.617,0,0,0,1.571,1.794,1.6,1.6,0,0,0,1.609-1.756q.03-3.028,0-6.056a1.594,1.594,0,0,0-1.62-1.744,1.618,1.618,0,0,0-1.56,1.8C750.977,49.84,750.99,50.833,750.99,51.826ZM730.244,72.551c-.993,0-1.986-.014-2.979,0a1.6,1.6,0,1,0-.028,3.181q3.029.029,6.057,0a1.594,1.594,0,1,0,.028-3.177C732.3,72.533,731.271,72.552,730.244,72.551Zm44.65,3.187c1.059,0,2.119.027,3.177-.008a1.585,1.585,0,1,0-.01-3.168q-3.127-.045-6.255,0a1.589,1.589,0,1,0,.01,3.173C772.841,75.762,773.868,75.74,774.894,75.738Zm-23.9,20.633c0,1.026-.013,2.052,0,3.077a1.618,1.618,0,0,0,1.566,1.8,1.6,1.6,0,0,0,1.615-1.75q.03-3.028,0-6.056a1.6,1.6,0,0,0-1.615-1.749,1.616,1.616,0,0,0-1.566,1.8C750.977,94.452,750.99,95.412,750.99,96.371ZM775.7,94.977c0-.326-.217-.451-.374-.61-.863-.872-1.715-1.757-2.608-2.6-.667-.63-1.237-1.829-2.013-1.746-.727.078-1.328,1.179-2.023,1.786-.408.356-.377.6-.006.953.981.942,1.93,1.917,2.892,2.879,1.765,1.763,1.765,1.763,3.552-.044C775.325,95.385,775.521,95.165,775.7,94.977Zm-2.39-8.643c-.308.421-1.06.845,0,1.311Z" transform="translate(-696.759 -24.711)" fill="#010101"/>
      <path id="Trazado_633697" data-name="Trazado 633697" d="M750.616,61.371c-.808.9-1.541,1.629-2.165,2.442a1.744,1.744,0,0,1-1.573.765c-4.751-.034-9.5-.018-14.254-.018-.232,0-.466-.009-.7,0a1.6,1.6,0,0,0-1.659,1.614,1.577,1.577,0,0,0,1.705,1.565c3.622.018,7.243.008,10.865.008h2.9a23.144,23.144,0,0,0-1.965,5.36c-.159.906-.573,1.1-1.385,1.029a5.211,5.211,0,0,0-3.7.859,4.554,4.554,0,0,0-1.936,4.787c.146.733-.1.738-.654.731-1.827-.024-3.655-.016-5.482-.007-1.372.007-1.944.567-1.947,1.928q-.012,6.03,0,12.059c0,1.412.567,1.955,2.021,1.957q7.377.007,14.753,0c1.92,0,2.355-.427,2.364-2.317,0-.2,0-.394,0-.868a29.714,29.714,0,0,0,6.913,6.374h-5.505c-2.8,0-2.986.2-3.013,2.969-.011,1.116.485,2.61-.2,3.24-.6.552-2.077.167-3.167.167-7.077.005-14.155-.008-21.232.02-.717,0-.934-.131-.934-.9q.037-35.779,0-71.556c0-.72.136-.933.9-.932q32.595.037,65.19.021c.472,0,.935-.167.932.69-.034,11.094-.022,22.189-.022,33.291-.349.072-.361-.238-.462-.4a23.761,23.761,0,0,0-8.388-8.059,1.29,1.29,0,0,1-.734-1.323c.026-5.215.016-10.431.014-15.647,0-1.686-.5-2.176-2.2-2.177q-5.831,0-11.662,0c-1.561,0-2.083.526-2.084,2.093,0,4.485-.019,8.97.018,13.454.006.7-.187.94-.878,1.095a21.749,21.749,0,0,0-5.819,2.249,1.786,1.786,0,0,1-.921.3q-11.162-.046-22.326-.052c-1.257,0-1.977.6-1.968,1.6s.728,1.581,1.993,1.582q8.622.006,17.244,0Zm-7.49-15.947q-5.425,0-10.851,0c-1.271,0-1.987.567-2.006,1.563s.7,1.623,1.947,1.624q10.8.007,21.6,0c1.244,0,1.972-.614,1.958-1.614s-.734-1.571-2-1.572Q748.452,45.418,743.126,45.423Zm6.252,9.569c1.525,0,3.049.011,4.574,0a1.623,1.623,0,0,0,1.825-1.544c.031-.97-.685-1.635-1.827-1.639q-4.524-.017-9.049,0c-1.169,0-1.874.62-1.874,1.592s.709,1.584,1.875,1.593C746.395,55,747.886,54.993,749.378,54.993ZM738.236,42.236c.994,0,1.988.013,2.981,0a1.618,1.618,0,0,0,1.8-1.567,1.593,1.593,0,0,0-1.748-1.615q-3.031-.028-6.062,0a1.59,1.59,0,0,0-1.749,1.613,1.612,1.612,0,0,0,1.8,1.569C736.248,42.248,737.242,42.236,738.236,42.236Zm12.662,0c1.027,0,2.054.013,3.081,0a1.616,1.616,0,0,0,1.8-1.569,1.594,1.594,0,0,0-1.75-1.613q-3.031-.028-6.062,0a1.59,1.59,0,0,0-1.747,1.615,1.613,1.613,0,0,0,1.8,1.567C748.976,42.248,749.937,42.236,750.9,42.236ZM735.081,54.991c1.027,0,2.054.023,3.081-.006a1.59,1.59,0,1,0-.018-3.175q-3.081-.035-6.161,0A1.595,1.595,0,1,0,732,54.987C733.027,55.01,734.054,54.993,735.081,54.991Z" transform="translate(-711.121 -29.477)" fill="#e9edf0"/>
      <path id="Trazado_633698" data-name="Trazado 633698" d="M766.948,237.046H710.12c-3.5,0-5.39-1.9-5.391-5.425,0-2.191.023-4.383-.015-6.574-.01-.607.137-.772.762-.772q29.538.028,59.077,0c.685,0,.809.219.8.837-.038,1.825.026,3.653-.023,5.478C765.266,232.839,765.419,235.024,766.948,237.046Z" transform="translate(-701.536 -144.555)" fill="#d9dbdd"/>
      <path id="Trazado_633699" data-name="Trazado 633699" d="M829.288,126.948a14.353,14.353,0,1,1-14.245-14.41A14.389,14.389,0,0,1,829.288,126.948Zm-14.347-8.04a1.6,1.6,0,0,0-1.579,1.388,2.751,2.751,0,0,0-.018.794c.086.807,0,1.466-.937,1.774a1.972,1.972,0,0,0-1.17,1.04c-.529,1.3-1.476,1.51-2.736,1.424a1.487,1.487,0,0,0-1.536,1.6,1.6,1.6,0,0,0,1.522,1.546,2.227,2.227,0,0,0,.5.005c.919-.118,1.672,0,2.006,1.061a1.654,1.654,0,0,0,.772.883,2.71,2.71,0,0,1,1.634,3.046c-.08.785.6,1.313,1.431,1.373s1.68-.437,1.585-1.16c-.239-1.819.756-2.737,2.047-3.577a.182.182,0,0,0,.064-.076,2.512,2.512,0,0,1,2.945-1.6,1.436,1.436,0,0,0,1.429-1.59,1.525,1.525,0,0,0-1.421-1.531,5.045,5.045,0,0,0-1.292-.01.9.9,0,0,1-1.047-.644,3.448,3.448,0,0,0-1.752-1.836,1.261,1.261,0,0,1-.863-1.522,3.482,3.482,0,0,0-.016-.993A1.6,1.6,0,0,0,814.941,118.909Z" transform="translate(-759.109 -77.454)" fill="#e8ecef"/>
      <path id="Trazado_633700" data-name="Trazado 633700" d="M847.852,205.973a7.2,7.2,0,0,0,.242-2.759c-.035-.659.1-.965.84-1.124A21.3,21.3,0,0,0,855.7,199.3c.485-.3.747-.316,1.159.113,1.449,1.508,2.935,2.982,4.435,4.44.385.375.438.586.046,1.024a1.526,1.526,0,0,0,.076,2.3,1.7,1.7,0,0,0,.283.279,5.484,5.484,0,0,1,2.39,5.72,35.426,35.426,0,0,0-.037,3.98,4.778,4.778,0,1,1-9.557-.054c-.025-3.022,0-6.043-.008-9.065,0-1.549-.532-2.066-2.107-2.07C850.893,205.97,849.406,205.973,847.852,205.973Z" transform="translate(-787.496 -129.429)" fill="#e8ecef"/>
      <path id="Trazado_633701" data-name="Trazado 633701" d="M901.908,217.589a4.527,4.527,0,0,1-3.254-1.291c-2.612-2.594-5.2-5.207-7.821-7.8-.354-.351-.422-.568-.028-.951q2.423-2.36,4.786-4.782c.359-.366.576-.393.951-.013,2.61,2.642,5.272,5.234,7.855,7.9a4,4,0,0,1,.91,4.588A3.72,3.72,0,0,1,901.908,217.589Z" transform="translate(-813.13 -131.469)" fill="#4e96e0"/>
      <path id="Trazado_633702" data-name="Trazado 633702" d="M755.032,169.99c-1.891,0-3.782-.02-5.672.012-.56.01-.725-.149-.719-.715q.042-4.079,0-8.158c-.006-.559.148-.723.714-.719q5.124.038,10.25,0c.511,0,.666.159.865.661,1.057,2.666.983,5.436.956,8.216-.005.566-.166.721-.723.712C758.814,169.97,756.923,169.99,755.032,169.99Z" transform="translate(-727.916 -106.204)" fill="#c2c5c6"/>
      <path id="Trazado_633703" data-name="Trazado 633703" d="M832.516,63.237c0-2.09.006-4.14-.005-6.19,0-.388.214-.41.507-.41,2.854,0,5.708.008,8.563,0,.389,0,.51.128.51.513q-.015,6.52,0,13.04c0,.383-.086.575-.5.417a.869.869,0,0,0-.1-.023,6.433,6.433,0,0,1-2.348-.708c-.636-.526-.189-1.549-.246-2.351a4.814,4.814,0,0,0-5.706-4.407C833,63.151,832.8,63.185,832.516,63.237Z" transform="translate(-778.283 -43.881)" fill="#c2c5c6"/>
      <path id="Trazado_633704" data-name="Trazado 633704" d="M863.274,113.509a8.434,8.434,0,0,0-2.68.368c-.592.255-.556-.315-.646-.6a17.447,17.447,0,0,0-8.552-10.413,14.1,14.1,0,0,0-3.218-1.3c-.494-.129-.752-.306-.484-.886a2.673,2.673,0,0,0,.245-1.459c-.116-.864.133-1.077,1-.793A20.741,20.741,0,0,1,863.182,113,5.088,5.088,0,0,1,863.274,113.509Z" transform="translate(-787.336 -68.904)" fill="#3d76b0"/>
      <path id="Trazado_633705" data-name="Trazado 633705" d="M801.529,175.237a20.622,20.622,0,0,1-9.568-5.283,21.13,21.13,0,0,1-5.511-9.089c-.228-.734-.211-1.122.7-.994a3.967,3.967,0,0,0,.793-.038c.483-.031,1.014-.539,1.384-.223.325.278.351.9.526,1.36a17.324,17.324,0,0,0,11.466,10.89c.551.175.781.355.5.958A8.324,8.324,0,0,0,801.529,175.237Z" transform="translate(-750.548 -105.661)" fill="#3d76b0"/>
      <path id="Trazado_633706" data-name="Trazado 633706" d="M847.965,175.18a9.794,9.794,0,0,0-.375-2.727c-.2-.558.417-.485.7-.576a17.462,17.462,0,0,0,9.395-6.992,16.116,16.116,0,0,0,2.235-4.747c.133-.477.283-.769.879-.5a3.567,3.567,0,0,0,1.758.254c.533-.04.78.027.574.694A20.662,20.662,0,0,1,848.2,175.2.791.791,0,0,1,847.965,175.18Z" transform="translate(-787.315 -105.678)" fill="#3d76b0"/>
      <path id="Trazado_633707" data-name="Trazado 633707" d="M786.079,113.479a20.584,20.584,0,0,1,5.427-9.71,20.92,20.92,0,0,1,9.051-5.386c.652-.2,1-.187.893.628a4.839,4.839,0,0,0,.037.893c.029.483.542,1.012.222,1.383-.28.324-.9.348-1.362.524a17.307,17.307,0,0,0-10.89,11.467c-.176.558-.363.773-.96.5A8.491,8.491,0,0,0,786.079,113.479Z" transform="translate(-750.399 -68.891)" fill="#3d76b0"/>
      <path id="Trazado_633708" data-name="Trazado 633708" d="M805.6,211.511h-4.463c-2.59,0-5.181-.023-7.771.016-.659.01-.82-.181-.817-.824.009-2.38-.016-2.38,2.333-2.38,3.189,0,6.377.019,9.565-.015.664-.007.966.109.891.848A5.212,5.212,0,0,0,805.6,211.511Z" transform="translate(-754.287 -134.967)" fill="#c2c5c6"/>
      <path id="Trazado_633709" data-name="Trazado 633709" d="M832.511,85.4c0-.993-.013-1.986,0-2.978a1.618,1.618,0,0,1,1.56-1.8,1.594,1.594,0,0,1,1.62,1.744q.032,3.028,0,6.056a1.6,1.6,0,0,1-1.609,1.756,1.617,1.617,0,0,1-1.572-1.794C832.5,87.383,832.511,86.39,832.511,85.4Z" transform="translate(-778.28 -58.283)" fill="#4e94de"/>
      <path id="Trazado_633710" data-name="Trazado 633710" d="M773.419,144.463c1.026,0,2.052-.018,3.078.006a1.594,1.594,0,1,1-.028,3.177q-3.028.032-6.057,0a1.6,1.6,0,1,1,.028-3.18C771.433,144.449,772.426,144.463,773.419,144.463Z" transform="translate(-739.934 -96.623)" fill="#4e94de"/>
      <path id="Trazado_633711" data-name="Trazado 633711" d="M885.208,147.644c-1.026,0-2.053.023-3.078-.006a1.589,1.589,0,1,1-.01-3.173q3.127-.038,6.255,0a1.585,1.585,0,1,1,.01,3.168C887.327,147.67,886.267,147.643,885.208,147.644Z" transform="translate(-807.073 -96.616)" fill="#4e94de"/>
      <path id="Trazado_633712" data-name="Trazado 633712" d="M832.512,197.07c0-.96-.013-1.92,0-2.879a1.616,1.616,0,0,1,1.566-1.8,1.6,1.6,0,0,1,1.615,1.749q.031,3.028,0,6.056a1.6,1.6,0,0,1-1.615,1.75,1.618,1.618,0,0,1-1.566-1.8C832.5,199.122,832.512,198.1,832.512,197.07Z" transform="translate(-778.281 -125.409)" fill="#4e94de"/>
      <path id="Trazado_633713" data-name="Trazado 633713" d="M883.375,193.156c-.176.188-.372.408-.579.618-1.787,1.808-1.788,1.807-3.552.044-.962-.962-1.911-1.936-2.892-2.879-.371-.356-.4-.6.006-.953.695-.607,1.3-1.708,2.023-1.786.776-.083,1.346,1.117,2.013,1.746.892.842,1.744,1.727,2.608,2.6C883.158,192.7,883.38,192.83,883.375,193.156Z" transform="translate(-804.438 -122.89)" fill="#2b6099"/>
      <path id="Trazado_633714" data-name="Trazado 633714" d="M887.562,178.975v1.311C886.5,179.82,887.254,179.4,887.562,178.975Z" transform="translate(-811.015 -117.352)" fill="#d9dbdd"/>
      <path id="Trazado_633715" data-name="Trazado 633715" d="M757.55,64.63q5.326,0,10.652,0c1.265,0,1.985.577,2,1.572s-.714,1.613-1.958,1.614q-10.8.007-21.6,0c-1.248,0-1.967-.614-1.947-1.624s.735-1.561,2.006-1.563Q752.125,64.625,757.55,64.63Z" transform="translate(-725.545 -48.683)" fill="#010101"/>
      <path id="Trazado_633716" data-name="Trazado 633716" d="M782.984,83.783c-1.492,0-2.983.009-4.475,0-1.166-.009-1.875-.623-1.875-1.593s.7-1.589,1.874-1.592q4.524-.014,9.049,0c1.141,0,1.858.669,1.827,1.639a1.623,1.623,0,0,1-1.825,1.544C786.033,83.793,784.509,83.783,782.984,83.783Z" transform="translate(-744.727 -58.267)" fill="#030203"/>
      <path id="Trazado_633717" data-name="Trazado 633717" d="M757.455,51.841c-.994,0-1.988.013-2.982,0a1.612,1.612,0,0,1-1.8-1.569,1.59,1.59,0,0,1,1.749-1.613q3.031-.028,6.062,0a1.593,1.593,0,0,1,1.748,1.615,1.618,1.618,0,0,1-1.8,1.567C759.443,51.853,758.449,51.841,757.455,51.841Z" transform="translate(-730.339 -39.082)" fill="#030303"/>
      <path id="Trazado_633718" data-name="Trazado 633718" d="M789.3,51.84c-.961,0-1.922.013-2.882,0a1.613,1.613,0,0,1-1.8-1.567,1.59,1.59,0,0,1,1.747-1.615q3.031-.028,6.062,0a1.594,1.594,0,0,1,1.75,1.613,1.616,1.616,0,0,1-1.8,1.569C791.353,51.853,790.326,51.84,789.3,51.84Z" transform="translate(-749.522 -39.082)" fill="#030303"/>
      <path id="Trazado_633719" data-name="Trazado 633719" d="M749.5,83.774c-1.027,0-2.054.018-3.081,0a1.595,1.595,0,1,1-.018-3.179q3.08-.031,6.161,0a1.59,1.59,0,1,1,.018,3.175C751.557,83.8,750.53,83.774,749.5,83.774Z" transform="translate(-725.543 -58.259)" fill="#030303"/>
      <path id="Trazado_633720" data-name="Trazado 633720" d="M824.538,128.486a1.6,1.6,0,0,1,1.566,1.4,3.484,3.484,0,0,1,.016.993,1.261,1.261,0,0,0,.863,1.522,3.446,3.446,0,0,1,1.752,1.836.9.9,0,0,0,1.047.644,5.047,5.047,0,0,1,1.292.01,1.525,1.525,0,0,1,1.42,1.531,1.436,1.436,0,0,1-1.428,1.59,2.512,2.512,0,0,0-2.945,1.6.181.181,0,0,1-.064.076c-1.291.84-2.287,1.758-2.047,3.577.1.723-.751,1.22-1.585,1.16s-1.511-.587-1.431-1.373A2.71,2.71,0,0,0,821.36,140a1.654,1.654,0,0,1-.772-.883c-.333-1.065-1.087-1.179-2.006-1.061a2.228,2.228,0,0,1-.5-.005,1.6,1.6,0,0,1-1.522-1.546,1.487,1.487,0,0,1,1.536-1.6c1.26.087,2.208-.123,2.736-1.424a1.972,1.972,0,0,1,1.17-1.04c.936-.308,1.022-.967.937-1.774a2.751,2.751,0,0,1,.018-.794A1.6,1.6,0,0,1,824.538,128.486Zm-.014,9.572a1.593,1.593,0,1,0-1.586-1.574A1.605,1.605,0,0,0,824.524,138.058Z" transform="translate(-768.706 -87.032)" fill="#030203"/>
      <path id="Trazado_633721" data-name="Trazado 633721" d="M834.108,147.658a1.593,1.593,0,1,1,1.6-1.562A1.6,1.6,0,0,1,834.108,147.658Z" transform="translate(-778.29 -96.632)" fill="#ce4c44"/>
    </g>
  </g>
</svg>
