<svg xmlns="http://www.w3.org/2000/svg" width="95" height="95" viewBox="0 0 95 95">
  <g id="Grupo_956646" data-name="Grupo 956646" transform="translate(-580 -17151.51)">
    <g id="Grupo_956612" data-name="Grupo 956612" transform="translate(580 17151.51)">
      <path id="Trazado_626457" data-name="Trazado 626457" d="M47.5,0A47.5,47.5,0,1,1,0,47.5,47.5,47.5,0,0,1,47.5,0Z" fill="#449c6e"/>
      <g id="Grupo_962203" data-name="Grupo 962203" transform="translate(-586.766 -320.714)">
        <path id="Trazado_633589" data-name="Trazado 633589" d="M591.211,410.362a4.054,4.054,0,0,1-.211.6,1.313,1.313,0,0,1-1.449.754,1.211,1.211,0,0,1-1.116-1.063,6.74,6.74,0,0,1-.064-1.107q-.005-7.139,0-14.279c0-.53.071-.983-.705-1.119-.621-.109-.891-.717-.891-1.366,0-5.254-.042-10.509.036-15.762.04-2.687,1.831-4.756,4.606-5.605,3.477-1.064,6.959-2.117,10.451-3.13.65-.188.784-.49.845-1.137a4.948,4.948,0,0,0-1.823-4.631,13.825,13.825,0,0,1-4.434-9.02,1.117,1.117,0,0,0-.739-1,4.487,4.487,0,0,1-1.392-7.1,1.583,1.583,0,0,0,.413-1.162c-.01-2.472-.04-4.946.015-7.418a12.36,12.36,0,0,1,11.456-11.949,140.915,140.915,0,0,1,14.367,0,5.6,5.6,0,0,1,5.049,3.768,2.953,2.953,0,0,0,.862,1.156,7.378,7.378,0,0,1,2.779,5.724c.033,2.874.023,5.748.007,8.623a1.818,1.818,0,0,0,.479,1.325,4.484,4.484,0,0,1-1.369,6.99,1.288,1.288,0,0,0-.85,1.231,5.591,5.591,0,0,1-.363,1.805c-.412.961-.059,1.354.815,1.761,2.375,1.105,4.708,2.3,7.036,3.506a1.883,1.883,0,0,0,1.64.034,3.148,3.148,0,0,0,2.405-3.584c-.094-2.588.121-5.188.2-7.783a18.852,18.852,0,0,1,37.5-2.086,66.064,66.064,0,0,1,.3,6.846q.326,8.8,1.47,17.539c.156,1.186-.564,1.737-1.406,2.258a32.455,32.455,0,0,1-9.115,3.743l-.993.256c.192.347.567.366.867.487,3.2,1.293,6.406,2.565,9.606,3.858a6.15,6.15,0,0,1,4.259,6.272c.005,2.349-.008,4.7.006,7.047,0,.889-.212,1.593-1.212,1.785-.565.109-.381.563-.382.9-.011,3.647-.007,7.294-.007,10.941,0,.216,0,.433,0,.649-.017,1.154-.365,1.688-1.174,1.807-.827.121-1.277-.247-1.659-1.354.015-4.107.025-8.214.052-12.321,0-.452-.17-.59-.6-.578q-1.2.034-2.41,0c-.441-.013-.584.141-.581.588.023,4.108.027,8.216.036,12.324-.125.785-.52,1.332-1.365,1.362-.911.033-1.285-.582-1.479-1.361.01-.37.029-.74.029-1.11q0-7.965.005-15.931c0-1.592.906-2.147,2.358-1.487a2.649,2.649,0,0,1,.414,2.026c-.031.578.123.83.762.806,1.231-.047,2.467-.038,3.7,0,.559.016.746-.155.736-.727-.033-1.848,0-3.7-.019-5.547a2.675,2.675,0,0,0-.381-1.587,2.5,2.5,0,0,0-1.276-1.49,12.846,12.846,0,0,0-2.784-1.128,6.612,6.612,0,0,0-.647-.327c-.744-.284-1.557-.863-2.225-.731-.6.12-.631,1.231-.984,1.87-.015.027-.027.055-.042.083a14.093,14.093,0,0,1-21.218,4.579c-.5-.385-.977-.808-1.528-1.265a18.084,18.084,0,0,1-1.387,3.223A11.505,11.505,0,0,1,643.241,395a2.336,2.336,0,0,0-1.231,2.564.908.908,0,0,0,.749.955q2.248.7,4.473,1.484a6.116,6.116,0,0,1,4.308,6.031c.019,1.45.021,2.9.03,4.35-.125.784-.518,1.327-1.363,1.359-.911.034-1.279-.587-1.486-1.355.005-1.573.079-3.148,0-4.716-.089-1.684-1.211-2.5-2.678-3.177-1.253-.576-1.535.323-2.1.922a10.893,10.893,0,0,1-16.762-.712c-.158-.2-.246-.492-.616-.477a3.919,3.919,0,0,0-3.6,3.619c-.057,1.509,0,3.022.012,4.533-.177.794-.572,1.391-1.472,1.363-.843-.026-1.236-.583-1.371-1.362q.013-2.085.026-4.169a6.16,6.16,0,0,1,4.514-6.267c1.4-.484,2.806-.943,4.206-1.422.328-.113.85-.106.777-.613-.111-.778.486-1.746-.385-2.319a12.464,12.464,0,0,1-5.91-10.24c-.028-.515-.256-.589-.668-.63a3.589,3.589,0,0,1-2.489-1.092c-.6-.715-1.085-.59-1.8-.275a15.058,15.058,0,0,1-13.24-.2,15.241,15.241,0,0,1-8.217-9.751c-.146-.5-.286-.7-.867-.5-1.252.433-2.541.755-3.8,1.162a3.361,3.361,0,0,0-1.971,1.286,3.017,3.017,0,0,0-.741,2.125c-.021,4.472,0,8.944-.022,13.415,0,.5.173.623.641.618,1.82-.021,3.641-.028,5.46,0,.565.009.638-.234.653-.716.156-5.113.162-5.113-2.626-9.354-.034-.052-.066-.1-.1-.154a1.6,1.6,0,0,1-.085-2.046c1.1-.652,1.689-.536,2.41.511.613.889,1.175,1.814,1.806,2.69a7.5,7.5,0,0,1,1.389,4.6c-.034,6.332-.016,12.664-.011,19,0,1.451.026,2.9.04,4.352-.158.74-.5,1.314-1.344,1.355-.948.046-1.306-.6-1.532-1.375q.02-7.737.047-15.473c0-.5-.2-.631-.663-.623q-1.9.032-3.8,0c-.457-.007-.671.116-.668.62Q591.2,402.626,591.211,410.362Zm49.008-10.012a3.237,3.237,0,0,1-.961-2.6c.067-.695-.2-.72-.788-.585a11.472,11.472,0,0,1-5.227,0c-.616-.144-.842-.07-.785.6a3.263,3.263,0,0,1-.972,2.6,7.526,7.526,0,0,1-1.794.86,1.232,1.232,0,0,0,.5.7,8.128,8.128,0,0,0,11.138.184c.838-.764.834-.756-.146-1.21C640.848,400.737,640.539,400.532,640.219,400.35Zm-4.085-35.843c-.4-.315-.7.023-1.007.174-2.486,1.229-4.962,2.478-7.448,3.708-.632.313-1.3.707-2.008.29-.539-.317-.73-.093-.983.349a14.279,14.279,0,0,0-1.725,5.691c-.062.586.1.844.742.8a66.466,66.466,0,0,0,7.416-.789,36.906,36.906,0,0,0,11.691-3.554,1.543,1.543,0,0,1,1.894.042,1.569,1.569,0,0,1,.319,1.863c-.42.252-.827.529-1.261.752a43.338,43.338,0,0,1-12.693,3.794c-2.6.344-5.207.615-7.832.713a1.837,1.837,0,0,0-1.755,2.437,1.947,1.947,0,0,0,2.078,1.213c2.4.025,2.563.18,2.544,2.6a9.447,9.447,0,0,0,1.54,5.525,9.282,9.282,0,0,0,8.661,4.487c4.093.12,8.346-3.533,9.1-7.794a18.472,18.472,0,0,0,.178-3.044c.016-1.294.5-1.758,1.81-1.78a9.55,9.55,0,0,0,1.475-.072,1.649,1.649,0,0,0,1.393-1.307,1.544,1.544,0,0,0-.625-1.79,2.057,2.057,0,0,1-.924-1.8,13.549,13.549,0,0,0-1.768-8.08c-.18-.295-.308-.635-.76-.328a1.6,1.6,0,0,1-1.749-.049c-1.624-.821-3.244-1.649-4.884-2.437A25.548,25.548,0,0,0,636.134,364.507ZM652.5,377.871c1.606,3.272.167,5.954-3.749,6.963a1.093,1.093,0,0,0,.1.247,11.344,11.344,0,0,0,19.46-1.582c.79-1.545.742-1.571-.834-2.2-.314-.126-.623-.269-.944-.373a5.032,5.032,0,0,1-3.264-3.034,9.415,9.415,0,0,1-.194-2.573c.071-.742-.149-.88-.863-.67a15.25,15.25,0,0,1-6.588.357,21.442,21.442,0,0,1-4.088-1.18C651.615,375.313,651.219,376.79,652.5,377.871ZM605.708,338.93c.367-.038.732-.1,1.1-.112a48.638,48.638,0,0,0,10.937-1.63c1.165-.323,2.267-.79,3.393-1.2a1.272,1.272,0,0,1,1.625.69,1.161,1.161,0,0,1-.276,1.58c-.2.185-.43.34-.646.509-.9.312-1.784.648-2.688.932-4.378,1.375-8.917,1.719-13.452,2.088a10.8,10.8,0,0,1-1.2-.009c-.789-.09-1.165.261-1.353,1.011-.209.834-.555,1.633-.79,2.462a1.7,1.7,0,0,1-1.894,1.376,12.289,12.289,0,0,0-3.136.1,1.694,1.694,0,0,0-1.385,1.72,1.715,1.715,0,0,0,1.347,1.669c1.669.444,1.782.581,1.869,2.323a12.538,12.538,0,0,0,1.376,5.045c2.323,4.629,7.822,7.642,12.585,6.9a7.8,7.8,0,0,0,.92-.041,12.876,12.876,0,0,0,10.818-11.792c.133-1.9.134-1.9,1.948-2.446a1.748,1.748,0,0,0,.009-3.359,5.958,5.958,0,0,0-1.652-.127c-1.415-.019-1.838-.461-1.8-1.886a2.224,2.224,0,0,1,2.348-.909c.507.031.8-.065.792-.688-.031-2.53.032-5.063-.038-7.592a4.54,4.54,0,0,0-1.954-3.7,3.493,3.493,0,0,1-1.391-1.887,2.98,2.98,0,0,0-2.8-2.309,84.394,84.394,0,0,0-10.721.016,20.515,20.515,0,0,0-3.973.077,9.729,9.729,0,0,0-8.086,9.812c0,1.759-.015,3.518.01,5.276.005.366-.25,1.037.464.955.7-.081,1.661.587,2.061-.567.3-.873.576-1.756.871-2.632a1.936,1.936,0,0,1,2.181-1.579Q604.413,338.965,605.708,338.93Zm53.971,33.384c.365-.049.733-.081,1.094-.15a12.969,12.969,0,0,0,10.156-13.989,5.18,5.18,0,0,0-3.014-4.342,18.738,18.738,0,0,0-4.223-1.31,47.568,47.568,0,0,1-9.26-2.489c-.587-.255-1.309-.9-1.7-.738-.5.215-.719,1.068-1.06,1.647a10.747,10.747,0,0,1-6.265,3.64,1.361,1.361,0,0,1-1.365-1.36c-.04-.822.477-1.219,1.174-1.458.408-.14.828-.252,1.225-.418a5.766,5.766,0,0,0,3.928-4.522c.214-1.347,1.257-1.81,2.351-.992a19.72,19.72,0,0,0,7.733,3.162,56.336,56.336,0,0,1,7.63,1.873c2.92,1.1,5.018,3.014,5.476,6.2.93,6.465-1.362,11.655-6.673,15.412a2.344,2.344,0,0,0-1.054,2.371c.016.445.184.519.573.424a34.986,34.986,0,0,0,8.548-3.212,1.13,1.13,0,0,0,.661-1.326,170.625,170.625,0,0,1-1.347-18.282,24.27,24.27,0,0,0-.909-7.6A16.2,16.2,0,0,0,655.64,334.12c-6.7,1.005-12.539,6.705-13.387,13.41-.42,3.314-.21,6.664-.431,9.99-.045.682.256.514.641.337a13.1,13.1,0,0,1,2.951-1.307,1.546,1.546,0,0,1,1.372,1.768c-.009,1.726.011,3.451-.01,5.177a1.478,1.478,0,0,0,.448,1.147,15.054,15.054,0,0,1,3.147,4.846,1.556,1.556,0,0,0,.6.777A12.78,12.78,0,0,0,659.679,372.314Zm-54.165-6.38c0,1.194-.017,2.3,0,3.4a6.475,6.475,0,0,0,5.022,6.107,6.691,6.691,0,0,0,7.141-3.105c1.024-1.745.778-3.629.846-5.495.027-.745-.135-.9-.87-.616a15.288,15.288,0,0,1-6.887,1.008A18.888,18.888,0,0,1,605.514,365.935Zm14.758,7.735c-.252.017-.292.232-.388.378a8.934,8.934,0,0,1-8.017,4.319,9.1,9.1,0,0,1-8.28-5.3c-.359-.691-.165-1.876-1.028-2.02-.738-.123-1.574.438-2.385.62-.655.148-.75.479-.56,1.05a14.8,14.8,0,0,0,2.341,4.379,12.933,12.933,0,0,0,15.276,3.775c.79-.367,1.581-.682,1.519-1.811a1.617,1.617,0,0,1,.462-1.083,4.183,4.183,0,0,0,.99-3.4A7.554,7.554,0,0,1,620.272,373.67Zm1.065-4.6a21.1,21.1,0,0,1,3.411-4.725.652.652,0,0,0,.182-.4c.015-1.057.008-2.115.008-3.426A17.235,17.235,0,0,1,621.58,364c-.265.2-.244.469-.243.747Q621.34,366.91,621.338,369.072Zm17.637-6.359,4.536,2.265c.228.114.481.278.482-.182,0-1.491,0-2.983,0-4.591ZM627.758,365.2l4.977-2.5-4.977-2.473Z" transform="translate(0)" fill="#030302"/>
        <path id="Trazado_633590" data-name="Trazado 633590" d="M596.306,456.754a3.362,3.362,0,0,1,1.971-1.286c1.261-.407,2.551-.729,3.8-1.162.581-.2.721.006.867.5a15.241,15.241,0,0,0,8.217,9.751,15.058,15.058,0,0,0,13.24.2c.712-.314,1.2-.439,1.8.275a3.588,3.588,0,0,0,2.489,1.092c.412.041.64.115.668.63a12.465,12.465,0,0,0,5.91,10.24c.872.573.274,1.541.385,2.319.072.507-.449.5-.777.613-1.4.479-2.807.938-4.206,1.422a6.16,6.16,0,0,0-4.514,6.267q-.013,2.085-.026,4.169l-21.012.007c-.014-1.451-.039-2.9-.04-4.352,0-6.332-.022-12.664.011-19a7.5,7.5,0,0,0-1.389-4.6c-.631-.875-1.193-1.8-1.806-2.69-.721-1.047-1.308-1.163-2.41-.511A19.983,19.983,0,0,1,596.306,456.754Z" transform="translate(-5.995 -81.409)" fill="#48a7e8"/>
        <path id="Trazado_633591" data-name="Trazado 633591" d="M767.926,484.858a12.846,12.846,0,0,1,2.784,1.129,2.5,2.5,0,0,1,1.276,1.49c-.292.268-.589.531-.876.8-1.461,1.393-2.792,2.92-4.335,4.228-1.453-.66-2.355-.105-2.358,1.487q-.015,7.966-.005,15.931c0,.37-.019.74-.029,1.11H744.969c-.009-1.45-.011-2.9-.03-4.35a6.116,6.116,0,0,0-4.308-6.031q-2.222-.785-4.473-1.484a.908.908,0,0,1-.749-.955,2.335,2.335,0,0,1,1.231-2.564,11.5,11.5,0,0,0,3.256-3.365,17.723,17.723,0,0,0,2.587,1.92,17.444,17.444,0,0,0,22.8-4.226A12.168,12.168,0,0,0,767.926,484.858Z" transform="translate(-93.399 -100.657)" fill="#eb5d7d"/>
        <path id="Trazado_633592" data-name="Trazado 633592" d="M684.157,541.515c-.009-1.511-.07-3.024-.012-4.533a3.919,3.919,0,0,1,3.6-3.619c.37-.015.457.276.616.477a10.893,10.893,0,0,0,16.761.712c.561-.6.844-1.5,2.1-.922,1.467.674,2.589,1.493,2.678,3.177.083,1.568.009,3.144,0,4.716Z" transform="translate(-61.179 -131.138)" fill="#f8da76"/>
        <path id="Trazado_633593" data-name="Trazado 633593" d="M598.646,528.046q-.021-7.736-.049-15.472c0-.5.211-.627.668-.62q1.9.03,3.8,0c.462-.008.666.123.663.623q-.038,7.736-.047,15.473Z" transform="translate(-7.435 -117.684)" fill="#ab8668"/>
        <path id="Trazado_633594" data-name="Trazado 633594" d="M821,533.469c-.009-4.108-.012-8.216-.036-12.324,0-.447.141-.6.582-.588q1.2.036,2.41,0c.43-.012.6.126.6.578-.027,4.107-.037,8.214-.052,12.321Z" transform="translate(-147.176 -123.09)" fill="#f2d5a9"/>
        <path id="Trazado_633595" data-name="Trazado 633595" d="M738.515,372.2a13.1,13.1,0,0,0-2.951,1.306c-.386.177-.686.345-.641-.337.221-3.327.011-6.676.431-9.99.848-6.7,6.684-12.4,13.388-13.41a16.2,16.2,0,0,1,17.724,10.734,24.27,24.27,0,0,1,.909,7.6,170.656,170.656,0,0,0,1.347,18.282,1.13,1.13,0,0,1-.661,1.326,34.993,34.993,0,0,1-8.548,3.212c-.389.1-.557.021-.573-.424a2.344,2.344,0,0,1,1.054-2.371c5.312-3.757,7.6-8.947,6.673-15.412-.458-3.181-2.556-5.1-5.476-6.2a56.315,56.315,0,0,0-7.63-1.873,19.721,19.721,0,0,1-7.733-3.162c-1.094-.818-2.137-.354-2.351.992A5.766,5.766,0,0,1,739.546,367c-.4.166-.817.278-1.225.418-.7.239-1.215.636-1.174,1.458a1.36,1.36,0,0,0,1.365,1.36Q738.513,371.22,738.515,372.2Z" transform="translate(-93.101 -15.654)" fill="#cb9e6b"/>
        <path id="Trazado_633596" data-name="Trazado 633596" d="M655.376,368.536c-.033,1.425.39,1.867,1.8,1.886a5.955,5.955,0,0,1,1.652.127,1.748,1.748,0,0,1-.009,3.359c-1.814.55-1.815.547-1.948,2.446a12.876,12.876,0,0,1-10.818,11.792,7.81,7.81,0,0,1-.92.041c-.022-.382-.365-.491-.608-.64a14.493,14.493,0,0,1-3.1-2.564,13.586,13.586,0,0,1-3.707-9.748,1.537,1.537,0,0,0,1.33-1.793c-.022-.336-.007-.675,0-1.012a1.36,1.36,0,0,0-1.324-1.552q0-2.641,0-5.281c4.535-.369,9.074-.714,13.452-2.088.9-.284,1.793-.62,2.689-.932.188,1.241.35,2.486.573,3.721A3.74,3.74,0,0,0,655.376,368.536ZM644,383.149a5.631,5.631,0,0,0,4.124-1.94,1.372,1.372,0,0,0,.051-1.992,1.352,1.352,0,0,0-1.984.027c-.234.2-.441.438-.691.615-1.166.826-2.235.659-3.561-.539a1.358,1.358,0,0,0-2.051-.113,1.4,1.4,0,0,0,.089,2.059A5.588,5.588,0,0,0,644,383.149ZM649.019,373c0,.276-.013.553,0,.829a1.3,1.3,0,0,0,1.259,1.345,1.285,1.285,0,0,0,1.449-1.128,4.824,4.824,0,0,0,.064-1.006c.007-1.481-.437-2.178-1.385-2.2S649.011,371.508,649.019,373Z" transform="translate(-32.018 -23.813)" fill="#ba9676"/>
        <path id="Trazado_633597" data-name="Trazado 633597" d="M761.448,392.523c.34-.579.562-1.432,1.06-1.647.386-.167,1.109.482,1.7.738a47.57,47.57,0,0,0,9.26,2.489,18.733,18.733,0,0,1,4.224,1.31,5.18,5.18,0,0,1,3.014,4.342,12.969,12.969,0,0,1-10.156,13.989c-.361.07-.729.1-1.094.15a16.633,16.633,0,0,1-4.561-3.642,14.734,14.734,0,0,1-3.411-9.29c1.248-.395,1.451-.7,1.453-2.185,0-1.582-.183-1.872-1.453-2.278Q761.464,394.511,761.448,392.523Zm6.538,16.325a5.416,5.416,0,0,0,3.768-1.694c.789-.825.9-1.637.264-2.252s-1.351-.521-2.186.254a2.514,2.514,0,0,1-3.833.06c-.135-.126-.264-.261-.41-.373a1.3,1.3,0,0,0-1.837.07,1.327,1.327,0,0,0-.045,1.909A5.541,5.541,0,0,0,767.986,408.848Zm7.635-10.136c0-.123,0-.246,0-.369-.018-1.147-.535-1.811-1.4-1.8s-1.363.685-1.387,1.834c0,.092,0,.184,0,.276,0,1.534.463,2.27,1.427,2.254C775.2,400.9,775.621,400.217,775.621,398.712Z" transform="translate(-109.773 -41.58)" fill="#f7dfb7"/>
        <path id="Trazado_633598" data-name="Trazado 633598" d="M723.649,458.867a2.057,2.057,0,0,0,.924,1.8,1.544,1.544,0,0,1,.625,1.79,1.649,1.649,0,0,1-1.393,1.307,9.557,9.557,0,0,1-1.475.072c-1.312.022-1.794.486-1.81,1.779a18.472,18.472,0,0,1-.178,3.044c-.758,4.26-5.011,7.914-9.1,7.794-.806-.772-1.641-1.516-2.408-2.324a4.912,4.912,0,0,1-1.47-2.371c.161.09.326.173.482.271a5.249,5.249,0,0,0,6.89-.844c.726-.759.793-1.6.174-2.192-.574-.547-1.377-.459-2.125.232-1.391,1.285-2.583,1.289-3.971.015-.906-.831-1.443-.834-2.393-.013-.612-1.354-.3-2.789-.369-4.19.821-.132,1.36-.555,1.346-1.439-.014-.851-.553-1.222-1.345-1.3L706,459.484a43.337,43.337,0,0,0,12.693-3.794c.435-.223.842-.5,1.262-.753a3.623,3.623,0,0,1,.378,1.016C720.614,457.92,721.609,458.784,723.649,458.867Zm-6.791,4.817a1.354,1.354,0,0,0-2.705-.128,1.354,1.354,0,1,0,2.705.128Z" transform="translate(-74.93 -81.855)" fill="#e6bf8d"/>
        <path id="Trazado_633599" data-name="Trazado 633599" d="M655.353,349.443a3.739,3.739,0,0,1-.945-2.239c-.222-1.234-.385-2.48-.573-3.721.216-.169.445-.325.647-.509a1.161,1.161,0,0,0,.276-1.58,1.272,1.272,0,0,0-1.625-.69c-1.127.414-2.228.882-3.393,1.2a48.638,48.638,0,0,1-10.937,1.63c-.368.016-.734.074-1.1.113,0-1.26-.049-2.522,0-3.78a9.159,9.159,0,0,1,2.17-5.538c.548-.679,1.48-1.02,1.713-1.961a84.4,84.4,0,0,1,10.721-.016,2.98,2.98,0,0,1,2.8,2.309,3.491,3.491,0,0,0,1.391,1.887,4.54,4.54,0,0,1,1.954,3.7c.07,2.529.007,5.062.038,7.592.007.622-.285.719-.792.688A2.224,2.224,0,0,0,655.353,349.443Z" transform="translate(-31.996 -4.721)" fill="#5f473e"/>
        <path id="Trazado_633600" data-name="Trazado 633600" d="M768.092,467.842a5.032,5.032,0,0,0,3.264,3.034c.321.1.63.247.944.373,1.575.632,1.624.657.834,2.2a11.344,11.344,0,0,1-19.46,1.582,1.1,1.1,0,0,1-.1-.247c3.917-1.009,5.355-3.691,3.749-6.963.572.1,1.152.162,1.716.3a16.216,16.216,0,0,0,4.176.439A20.438,20.438,0,0,0,768.092,467.842Z" transform="translate(-104.822 -89.952)" fill="#f2d5a9"/>
        <path id="Trazado_633601" data-name="Trazado 633601" d="M621.211,370.665q0,2.64,0,5.281c-1.052.175-1.416.584-1.463,1.642-.085,1.913.158,2.364,1.46,2.714a13.586,13.586,0,0,0,3.707,9.748,14.493,14.493,0,0,0,3.1,2.564c.243.149.586.258.608.64-4.763.747-10.262-2.267-12.585-6.9a12.537,12.537,0,0,1-1.376-5.045c-.086-1.742-.2-1.879-1.869-2.323a1.715,1.715,0,0,1-1.347-1.669,1.694,1.694,0,0,1,1.385-1.72,12.291,12.291,0,0,1,3.135-.1,1.7,1.7,0,0,0,1.894-1.376c.235-.829.581-1.628.79-2.462.188-.751.563-1.1,1.353-1.011A10.8,10.8,0,0,0,621.211,370.665Z" transform="translate(-15.511 -28.882)" fill="#ab8668"/>
        <path id="Trazado_633602" data-name="Trazado 633602" d="M775.542,483.036a12.168,12.168,0,0,1-2.643,5.126,17.443,17.443,0,0,1-22.8,4.226,17.724,17.724,0,0,1-2.587-1.92,18.083,18.083,0,0,0,1.388-3.223c.55.457,1.024.88,1.528,1.265a14.092,14.092,0,0,0,21.218-4.579c.015-.027.027-.056.042-.083.353-.639.38-1.75.984-1.87.668-.132,1.48.447,2.225.731A6.613,6.613,0,0,1,775.542,483.036Z" transform="translate(-101.015 -98.835)" fill="#c04869"/>
        <path id="Trazado_633603" data-name="Trazado 633603" d="M723.732,444.363c-2.04-.084-3.035-.947-3.314-2.913a3.623,3.623,0,0,0-.378-1.016,1.569,1.569,0,0,0-.32-1.863,1.543,1.543,0,0,0-1.894-.042,36.915,36.915,0,0,1-11.691,3.555c.059-.483.117-.966.178-1.448a13.421,13.421,0,0,1,1.505-4.581,16.583,16.583,0,0,1,3.33-4.2,25.547,25.547,0,0,1,3.425,1.611c1.64.788,3.261,1.616,4.884,2.437a1.6,1.6,0,0,0,1.749.049c.452-.307.58.033.76.328A13.548,13.548,0,0,1,723.732,444.363Z" transform="translate(-75.013 -67.35)" fill="#5f473e"/>
        <path id="Trazado_633604" data-name="Trazado 633604" d="M627.744,332.573c-.234.941-1.165,1.282-1.713,1.961a9.158,9.158,0,0,0-2.17,5.538c-.047,1.258,0,2.52,0,3.78q-1.295.032-2.59.064a1.936,1.936,0,0,0-2.181,1.579c-.295.876-.568,1.759-.871,2.632-.4,1.154-1.364.486-2.061.567-.714.082-.459-.589-.464-.955-.025-1.758-.015-3.517-.01-5.276a9.729,9.729,0,0,1,8.086-9.812A20.52,20.52,0,0,1,627.744,332.573Z" transform="translate(-18.154 -4.922)" fill="#503732"/>
        <path id="Trazado_633605" data-name="Trazado 633605" d="M750.854,395.354q.016,1.988.032,3.976c-1.241.472-1.338.642-1.335,2.324,0,1.484.127,1.684,1.336,2.14a14.734,14.734,0,0,0,3.411,9.29,16.633,16.633,0,0,0,4.561,3.642,12.78,12.78,0,0,1-8.706-2.05,1.556,1.556,0,0,1-.6-.777,15.054,15.054,0,0,0-3.147-4.846,1.478,1.478,0,0,1-.448-1.147c.022-1.725,0-3.451.01-5.177a1.546,1.546,0,0,0-1.372-1.768q0-.984,0-1.968A10.748,10.748,0,0,0,750.854,395.354Z" transform="translate(-99.178 -44.411)" fill="#f2d5a9"/>
        <path id="Trazado_633606" data-name="Trazado 633606" d="M637.21,435.7a18.89,18.89,0,0,0,5.256,1.3,15.288,15.288,0,0,0,6.887-1.008c.734-.288.9-.129.87.616-.068,1.866.178,3.749-.846,5.495a6.691,6.691,0,0,1-7.141,3.105,6.474,6.474,0,0,1-5.022-6.107C637.193,438,637.21,436.894,637.21,435.7Z" transform="translate(-31.696 -69.765)" fill="#ab8668"/>
        <path id="Trazado_633607" data-name="Trazado 633607" d="M689.6,467.173l.045,2.817a1.245,1.245,0,0,0-1.348,1.3c-.026.887.525,1.308,1.348,1.438.073,1.4-.243,2.837.369,4.19-.582,1.179.31,1.807.945,2.531a4.913,4.913,0,0,0,1.47,2.371c.767.809,1.6,1.552,2.408,2.324a9.282,9.282,0,0,1-8.661-4.487,9.448,9.448,0,0,1-1.54-5.525c.019-2.419-.144-2.573-2.544-2.6a1.947,1.947,0,0,1-2.078-1.213,1.837,1.837,0,0,1,1.755-2.437C684.4,467.788,687,467.517,689.6,467.173Z" transform="translate(-58.53 -89.543)" fill="#dbae7e"/>
        <path id="Trazado_633608" data-name="Trazado 633608" d="M641.854,452.054a7.579,7.579,0,0,0-.071.91,4.182,4.182,0,0,1-.99,3.4,1.618,1.618,0,0,0-.462,1.083c.062,1.13-.729,1.444-1.519,1.811a12.933,12.933,0,0,1-15.277-3.775A14.805,14.805,0,0,1,621.2,451.1c-.19-.571-.1-.9.56-1.05.81-.182,1.647-.743,2.385-.62.864.144.669,1.329,1.028,2.02a9.1,9.1,0,0,0,8.28,5.3,8.934,8.934,0,0,0,8.017-4.319C641.562,452.286,641.6,452.071,641.854,452.054Z" transform="translate(-21.582 -78.384)" fill="#3e92d2"/>
        <path id="Trazado_633609" data-name="Trazado 633609" d="M595.015,461.024a19.979,19.979,0,0,0,3.178,3.89,1.6,1.6,0,0,0,.085,2.046c.036.049.068.1.1.154,2.788,4.242,2.781,4.242,2.626,9.354-.015.482-.088.726-.653.716-1.82-.031-3.64-.024-5.46,0-.467.005-.643-.119-.641-.617.018-4.472,0-8.944.022-13.415A3.017,3.017,0,0,1,595.015,461.024Z" transform="translate(-4.705 -85.679)" fill="#3e92d2"/>
        <path id="Trazado_633610" data-name="Trazado 633610" d="M697.33,431.637a16.583,16.583,0,0,0-3.33,4.2,13.421,13.421,0,0,0-1.505,4.581c-.061.483-.119.966-.178,1.448a66.533,66.533,0,0,1-7.416.789c-.645.041-.8-.217-.742-.8a14.279,14.279,0,0,1,1.725-5.691c.253-.442.444-.666.983-.349.708.417,1.376.022,2.008-.29,2.486-1.23,4.961-2.479,7.448-3.708C696.629,431.66,696.931,431.321,697.33,431.637Z" transform="translate(-61.195 -67.13)" fill="#503732"/>
        <path id="Trazado_633611" data-name="Trazado 633611" d="M772.808,461a20.437,20.437,0,0,1-4.88.716,16.215,16.215,0,0,1-4.176-.439c-.564-.133-1.144-.2-1.716-.3-1.279-1.082-.882-2.558-.96-4.047a21.439,21.439,0,0,0,4.088,1.18,15.25,15.25,0,0,0,6.588-.357c.714-.21.934-.072.863.67A9.419,9.419,0,0,0,772.808,461Z" transform="translate(-109.538 -83.107)" fill="#e6bf8d"/>
        <path id="Trazado_633612" data-name="Trazado 633612" d="M712.815,528.317c.32.182.629.387.961.541.98.453.984.445.146,1.209a8.128,8.128,0,0,1-11.138-.183,1.231,1.231,0,0,1-.5-.7,7.516,7.516,0,0,0,1.794-.86c1.1-.017,2.153.373,3.263.389A29.326,29.326,0,0,0,712.815,528.317Z" transform="translate(-72.595 -127.967)" fill="#dbae7e"/>
        <path id="Trazado_633613" data-name="Trazado 633613" d="M819.851,496.936c1.543-1.309,2.874-2.835,4.335-4.228.287-.273.584-.537.876-.8a2.674,2.674,0,0,1,.381,1.587c.016,1.849-.014,3.7.019,5.547.01.573-.177.743-.736.727-1.232-.035-2.467-.044-3.7,0-.639.024-.793-.228-.762-.806A2.649,2.649,0,0,0,819.851,496.936Z" transform="translate(-146.474 -105.085)" fill="#c04869"/>
        <path id="Trazado_633614" data-name="Trazado 633614" d="M715.849,522.822a29.321,29.321,0,0,1-5.471.4c-1.109-.017-2.159-.407-3.263-.389a3.263,3.263,0,0,0,.972-2.6c-.057-.67.169-.744.785-.6a11.47,11.47,0,0,0,5.227,0c.587-.135.855-.11.788.585A3.238,3.238,0,0,0,715.849,522.822Z" transform="translate(-75.629 -122.472)" fill="#cb9e6b"/>
        <path id="Trazado_633615" data-name="Trazado 633615" d="M727.27,422.786l5.02-2.509c0,1.608,0,3.1,0,4.591,0,.461-.254.3-.482.182Z" transform="translate(-88.295 -60.073)" fill="#f8da76"/>
        <path id="Trazado_633616" data-name="Trazado 633616" d="M697.082,425.325v-4.971l4.977,2.473Z" transform="translate(-69.324 -60.122)" fill="#f8da76"/>
        <path id="Trazado_633617" data-name="Trazado 633617" d="M646.988,410.569a5.588,5.588,0,0,1-4.023-1.884,1.4,1.4,0,0,1-.089-2.059,1.358,1.358,0,0,1,2.051.113c1.326,1.2,2.395,1.366,3.561.54.25-.177.457-.414.691-.615a1.352,1.352,0,0,1,1.984-.027,1.372,1.372,0,0,1-.051,1.992A5.631,5.631,0,0,1,646.988,410.569Z" transform="translate(-35.001 -51.233)" fill="#030302"/>
        <path id="Trazado_633618" data-name="Trazado 633618" d="M668.125,386.983c-.008-1.493.434-2.176,1.389-2.157s1.392.716,1.385,2.2a4.824,4.824,0,0,1-.064,1.006,1.285,1.285,0,0,1-1.449,1.128,1.3,1.3,0,0,1-1.258-1.345C668.112,387.536,668.125,387.259,668.125,386.983Z" transform="translate(-51.124 -37.795)" fill="#030302"/>
        <path id="Trazado_633619" data-name="Trazado 633619" d="M635.225,389.271c-1.3-.35-1.545-.8-1.46-2.714.047-1.058.411-1.467,1.463-1.642a1.36,1.36,0,0,1,1.323,1.552c0,.337-.018.676,0,1.012A1.537,1.537,0,0,1,635.225,389.271Z" transform="translate(-29.526 -37.851)" fill="#030302"/>
        <path id="Trazado_633620" data-name="Trazado 633620" d="M771.158,431.929a5.541,5.541,0,0,1-4.28-2.025,1.327,1.327,0,0,1,.045-1.909,1.3,1.3,0,0,1,1.837-.07c.146.112.275.247.41.373a2.514,2.514,0,0,0,3.833-.06q1.253-1.163,2.186-.254c.632.615.525,1.427-.264,2.252A5.415,5.415,0,0,1,771.158,431.929Z" transform="translate(-112.945 -64.661)" fill="#030302"/>
        <path id="Trazado_633621" data-name="Trazado 633621" d="M794.88,408.35c0,1.5-.42,2.186-1.358,2.2-.964.016-1.43-.72-1.427-2.254,0-.092,0-.184,0-.276.024-1.149.531-1.819,1.387-1.834s1.378.648,1.4,1.8C794.881,408.1,794.88,408.227,794.88,408.35Z" transform="translate(-129.032 -51.218)" fill="#030302"/>
        <path id="Trazado_633622" data-name="Trazado 633622" d="M759.276,410.518c-1.209-.456-1.333-.656-1.336-2.14,0-1.681.095-1.851,1.335-2.324,1.269.406,1.455.7,1.453,2.278C760.727,409.819,760.524,410.124,759.276,410.518Z" transform="translate(-107.568 -51.136)" fill="#030302"/>
        <path id="Trazado_633623" data-name="Trazado 633623" d="M707.741,494.9c-.635-.724-1.527-1.352-.945-2.531.951-.821,1.488-.818,2.394.013,1.389,1.274,2.581,1.27,3.971-.015.748-.691,1.551-.779,2.125-.232.619.59.553,1.433-.174,2.192a5.249,5.249,0,0,1-6.89.844C708.067,495.072,707.9,494.989,707.741,494.9Z" transform="translate(-75.31 -104.991)" fill="#030302"/>
        <path id="Trazado_633624" data-name="Trazado 633624" d="M730.638,476.09a1.354,1.354,0,1,1-2.705-.128,1.354,1.354,0,0,1,2.705.128Z" transform="translate(-88.71 -94.261)" fill="#030302"/>
        <path id="Trazado_633625" data-name="Trazado 633625" d="M703.84,477.493c-.822-.131-1.374-.552-1.348-1.438a1.245,1.245,0,0,1,1.348-1.3c.792.079,1.332.45,1.346,1.3C705.2,476.939,704.661,477.362,703.84,477.493Z" transform="translate(-72.724 -94.307)" fill="#030302"/>
      </g>
    </g>
  </g>
</svg>
