<svg xmlns="http://www.w3.org/2000/svg" xmlns:xlink="http://www.w3.org/1999/xlink" width="820" height="363.641" viewBox="0 0 820 363.641">
  <defs>
    <linearGradient id="linear-gradient" x1="0.603" y1="1.116" x2="1.008" y2="2.242" gradientUnits="objectBoundingBox">
      <stop offset="0.044" stop-color="#fff5d4"/>
      <stop offset="0.227" stop-color="#faf2d2"/>
      <stop offset="0.411" stop-color="#eeebcd"/>
      <stop offset="0.597" stop-color="#dae0c5"/>
      <stop offset="0.783" stop-color="#bed0ba"/>
      <stop offset="0.968" stop-color="#9abcac"/>
      <stop offset="1" stop-color="#93b8aa"/>
    </linearGradient>
    <linearGradient id="linear-gradient-2" x1="0.581" y1="0.961" x2="0.923" y2="2.097" xlink:href="#linear-gradient"/>
    <linearGradient id="linear-gradient-3" x1="0.583" y1="0.818" x2="0.915" y2="1.924" xlink:href="#linear-gradient"/>
    <linearGradient id="linear-gradient-4" x1="0.536" y1="0.77" x2="0.868" y2="1.877" xlink:href="#linear-gradient"/>
    <linearGradient id="linear-gradient-5" x1="0.531" y1="0.919" x2="0.873" y2="2.054" xlink:href="#linear-gradient"/>
    <linearGradient id="linear-gradient-6" x1="0.54" y1="1.04" x2="0.945" y2="2.166" xlink:href="#linear-gradient"/>
    <linearGradient id="linear-gradient-7" x1="0.48" y1="0.959" x2="0.885" y2="2.085" xlink:href="#linear-gradient"/>
    <linearGradient id="linear-gradient-8" x1="0.483" y1="0.858" x2="0.825" y2="1.992" xlink:href="#linear-gradient"/>
    <linearGradient id="linear-gradient-9" x1="0.492" y1="0.744" x2="0.824" y2="1.85" xlink:href="#linear-gradient"/>
    <linearGradient id="linear-gradient-10" x1="0.453" y1="0.733" x2="0.785" y2="1.84" xlink:href="#linear-gradient"/>
    <linearGradient id="linear-gradient-11" x1="0.444" y1="0.849" x2="0.786" y2="1.986" xlink:href="#linear-gradient"/>
    <linearGradient id="linear-gradient-12" x1="0.43" y1="0.944" x2="0.835" y2="2.07" xlink:href="#linear-gradient"/>
    <linearGradient id="linear-gradient-13" x1="-0.534" y1="-0.65" x2="0.802" y2="1.289" xlink:href="#linear-gradient"/>
    <linearGradient id="linear-gradient-14" x1="0.066" y1="-0.098" x2="1.075" y2="2.141" xlink:href="#linear-gradient"/>
    <linearGradient id="linear-gradient-15" x1="0.068" y1="-0.292" x2="0.827" y2="2.037" xlink:href="#linear-gradient"/>
    <linearGradient id="linear-gradient-16" x1="-0.012" y1="-0.02" x2="0.935" y2="1.019" gradientUnits="objectBoundingBox">
      <stop offset="0" stop-color="#f5ebcb"/>
      <stop offset="0.142" stop-color="#eee6c8"/>
      <stop offset="0.34" stop-color="#dcdac0"/>
      <stop offset="0.569" stop-color="#bfc7b4"/>
      <stop offset="0.821" stop-color="#96aca3"/>
      <stop offset="1" stop-color="#759696"/>
    </linearGradient>
    <linearGradient id="linear-gradient-17" x1="1.826" y1="0.472" x2="0.067" y2="0.594" xlink:href="#linear-gradient-16"/>
    <linearGradient id="linear-gradient-18" x1="0.136" y1="0.008" x2="0.748" y2="1.101" gradientUnits="objectBoundingBox">
      <stop offset="0" stop-color="#63d9e6"/>
      <stop offset="0.453" stop-color="#a3dada"/>
      <stop offset="1" stop-color="#eddccd"/>
    </linearGradient>
    <linearGradient id="linear-gradient-19" x1="0.031" y1="0.085" x2="0.902" y2="0.943" gradientUnits="objectBoundingBox">
      <stop offset="0" stop-color="#92d8e8"/>
      <stop offset="0.508" stop-color="#46b6db"/>
      <stop offset="1" stop-color="#1b71a6"/>
    </linearGradient>
    <linearGradient id="linear-gradient-20" x1="0.44" y1="-0.303" x2="0.518" y2="1.285" gradientUnits="objectBoundingBox">
      <stop offset="0" stop-color="#f5ecbd"/>
      <stop offset="0.096" stop-color="#efe6b8"/>
      <stop offset="0.224" stop-color="#ded6ab"/>
      <stop offset="0.37" stop-color="#c2bb96"/>
      <stop offset="0.529" stop-color="#9c9678"/>
      <stop offset="0.698" stop-color="#6a6652"/>
      <stop offset="0.874" stop-color="#2f2d24"/>
      <stop offset="1"/>
    </linearGradient>
    <linearGradient id="linear-gradient-21" x1="0.939" y1="1.151" x2="0.307" y2="0.432" gradientUnits="objectBoundingBox">
      <stop offset="0" stop-color="#bdb7a3"/>
      <stop offset="0.379" stop-color="#706c60"/>
      <stop offset="0.805" stop-color="#1f1e1b"/>
      <stop offset="1"/>
    </linearGradient>
    <linearGradient id="linear-gradient-22" x1="0.686" y1="-0.139" x2="0.336" y2="1.054" xlink:href="#linear-gradient-20"/>
    <linearGradient id="linear-gradient-23" x1="0.923" y1="1.636" x2="0.141" y2="-0.074" gradientUnits="objectBoundingBox">
      <stop offset="0" stop-color="#8a8677"/>
      <stop offset="0.171" stop-color="#706d60"/>
      <stop offset="0.74" stop-color="#1f1e1b"/>
      <stop offset="1"/>
    </linearGradient>
    <linearGradient id="linear-gradient-24" x1="-0.095" y1="-0.065" x2="0.927" y2="1.114" gradientUnits="objectBoundingBox">
      <stop offset="0" stop-color="#e66abf"/>
      <stop offset="0.253" stop-color="#e784af"/>
      <stop offset="1" stop-color="#edce85"/>
    </linearGradient>
    <linearGradient id="linear-gradient-25" x1="0.2" y1="0.554" x2="2.193" y2="1.734" xlink:href="#linear-gradient-16"/>
    <linearGradient id="linear-gradient-26" x1="0.76" y1="0.648" x2="3.059" y2="1.652" xlink:href="#linear-gradient-16"/>
    <linearGradient id="linear-gradient-27" x1="0.085" y1="0.152" x2="1.105" y2="1.191" xlink:href="#linear-gradient-16"/>
    <linearGradient id="linear-gradient-28" x1="-0.069" y1="0.41" x2="1.257" y2="0.801" gradientUnits="objectBoundingBox">
      <stop offset="0" stop-color="#f5ebcb"/>
      <stop offset="0.238" stop-color="#d5d6be"/>
      <stop offset="1" stop-color="#759696"/>
    </linearGradient>
    <linearGradient id="linear-gradient-29" x1="1.351" y1="1.138" x2="-0.06" y2="0.238" xlink:href="#linear-gradient-20"/>
    <linearGradient id="linear-gradient-30" x1="1.016" y1="1.063" x2="0.288" y2="0.348" xlink:href="#linear-gradient-20"/>
    <linearGradient id="linear-gradient-31" x1="1.132" y1="0.933" x2="0.242" y2="0.3" gradientUnits="objectBoundingBox">
      <stop offset="0.005" stop-color="#22567d"/>
      <stop offset="1" stop-color="#131f49"/>
    </linearGradient>
    <linearGradient id="linear-gradient-32" x1="1.105" y1="1.717" x2="-0.406" y2="-1.449" gradientUnits="objectBoundingBox">
      <stop offset="0.005" stop-color="#22567d"/>
      <stop offset="0.255" stop-color="#1f4e75"/>
      <stop offset="0.63" stop-color="#1a3962"/>
      <stop offset="1" stop-color="#131f49"/>
    </linearGradient>
    <linearGradient id="linear-gradient-33" x1="-0.038" y1="-0.299" x2="1.133" y2="1.425" xlink:href="#linear-gradient-32"/>
    <linearGradient id="linear-gradient-34" x1="1.523" y1="0.249" x2="-0.136" y2="0.575" xlink:href="#linear-gradient-23"/>
    <linearGradient id="linear-gradient-35" x1="0.052" y1="0.478" x2="0.977" y2="0.526" xlink:href="#linear-gradient-32"/>
    <linearGradient id="linear-gradient-36" x1="0.125" y1="0.458" x2="1.255" y2="0.609" xlink:href="#linear-gradient-32"/>
    <linearGradient id="linear-gradient-37" x1="-0.265" y1="-0.956" x2="1.442" y2="2.135" xlink:href="#linear-gradient-32"/>
    <linearGradient id="linear-gradient-38" x1="1.427" y1="1.239" x2="0.009" y2="0.119" xlink:href="#linear-gradient-23"/>
    <linearGradient id="linear-gradient-39" x1="0.741" y1="-0.175" x2="0.279" y2="1.11" xlink:href="#linear-gradient-23"/>
    <linearGradient id="linear-gradient-40" x1="1.002" y1="-0.192" x2="-0.028" y2="1.12" xlink:href="#linear-gradient-23"/>
    <linearGradient id="linear-gradient-41" x1="0.904" y1="1.279" x2="0.067" y2="-0.301" xlink:href="#linear-gradient-21"/>
    <linearGradient id="linear-gradient-42" x1="0.255" y1="0.486" x2="0.604" y2="0.506" xlink:href="#linear-gradient-32"/>
    <linearGradient id="linear-gradient-43" x1="-0.04" y1="0.452" x2="0.95" y2="0.517" gradientUnits="objectBoundingBox">
      <stop offset="0.044" stop-color="#ffefbc"/>
      <stop offset="0.183" stop-color="#fdeaba"/>
      <stop offset="0.324" stop-color="#f9deb4"/>
      <stop offset="0.466" stop-color="#f3caaa"/>
      <stop offset="0.607" stop-color="#eaae9d"/>
      <stop offset="0.643" stop-color="#e8a699"/>
      <stop offset="0.716" stop-color="#e49a91"/>
      <stop offset="0.889" stop-color="#dc8482"/>
      <stop offset="1" stop-color="#da7d7d"/>
    </linearGradient>
    <linearGradient id="linear-gradient-44" x1="-0.226" y1="-0.201" x2="1.309" y2="1.249" xlink:href="#linear-gradient-43"/>
    <linearGradient id="linear-gradient-45" x1="0.088" y1="0.195" x2="1.134" y2="0.974" xlink:href="#linear-gradient-43"/>
    <linearGradient id="linear-gradient-46" x1="0.902" y1="1.111" x2="-0.004" y2="-0.272" xlink:href="#linear-gradient-43"/>
    <linearGradient id="linear-gradient-47" x1="-0.204" y1="0.015" x2="1.112" y2="0.907" xlink:href="#linear-gradient-43"/>
    <linearGradient id="linear-gradient-48" x1="0.098" y1="-0.129" x2="1.42" y2="1.871" xlink:href="#linear-gradient-43"/>
    <linearGradient id="linear-gradient-49" x1="0.753" y1="0.74" x2="0.133" y2="0.162" xlink:href="#linear-gradient-21"/>
    <linearGradient id="linear-gradient-50" x1="0.71" y1="0.764" x2="0.124" y2="0.068" xlink:href="#linear-gradient-21"/>
    <linearGradient id="linear-gradient-51" x1="0.501" y1="1.837" x2="0.498" y2="-2.509" xlink:href="#linear-gradient-21"/>
    <linearGradient id="linear-gradient-52" x1="0.694" y1="-0.13" x2="0.269" y2="1.06" xlink:href="#linear-gradient-21"/>
    <linearGradient id="linear-gradient-53" x1="0.933" y1="-0.046" x2="0.107" y2="0.994" xlink:href="#linear-gradient-23"/>
    <linearGradient id="linear-gradient-54" x1="0.537" y1="1.598" x2="0.443" y2="-0.882" xlink:href="#linear-gradient-21"/>
  </defs>
  <g id="Grupo_956700" data-name="Grupo 956700" transform="translate(0.066 -27.988)">
    <g id="Grupo_956690" data-name="Grupo 956690" transform="translate(377.567 198.103)">
      <path id="Trazado_631473" data-name="Trazado 631473" d="M292.675,263.019c1.282.849,2,1.909,1.84,3-.333,2.139-3.945,3.537-8.071,3.121-.077,0-.152-.022-.229-.025-3.856-.44-6.728-2.332-6.656-4.346a1.442,1.442,0,0,0,.138.276,3.8,3.8,0,0,0,1.1,1.2,2.368,2.368,0,0,0,.4.29,3.232,3.232,0,0,0,.459.267,10.044,10.044,0,0,0,1,.475c.025,0,.037.016.049.016a12.327,12.327,0,0,0,2.518.648c.227.039.456.064.7.089,3.885.391,7.289-.917,7.6-2.916a1.02,1.02,0,0,0,.023-.19,1.667,1.667,0,0,0-.018-.359,1.709,1.709,0,0,0-.083-.362c-.034-.091-.067-.17-.1-.26a1.045,1.045,0,0,0-.128-.225,2.949,2.949,0,0,0-.332-.465A1.668,1.668,0,0,0,292.675,263.019Zm9.365,16.939c-.331-.018-.661-.049-.965-.091s-.608-.084-.885-.15a5.053,5.053,0,0,1-.781-.208c-.037,0-.063-.017-.088-.018a5,5,0,0,1-.65-.252,4.828,4.828,0,0,1-1.163-.676,3.329,3.329,0,0,1-.763-.757c.526,1.574,2.578,2.821,5.887,3,3.971.217,8.216-1.083,8.361-3.743.054-1.006-.643-1.8-1.773-2.382a2.059,2.059,0,0,1,.182.176.791.791,0,0,1,.168.188,2.388,2.388,0,0,1,.284.424,1.256,1.256,0,0,1,.078.2l.064.233c.011.039.02.09.03.142a2.712,2.712,0,0,1,.008.332C309.9,278.918,305.832,280.164,302.04,279.958Zm-11.223-5.8c.084.094.155.188.227.28a.868.868,0,0,1,.141.225,1.82,1.82,0,0,1,.116.211,1.849,1.849,0,0,1,.123.338,1.163,1.163,0,0,1,.06.284,1.486,1.486,0,0,1,.02.333,1.012,1.012,0,0,1-.023.19c-.3,1.937-3.6,3.212-7.367,2.827a8.268,8.268,0,0,1-1.164-.178,3.214,3.214,0,0,1-.505-.1,10.742,10.742,0,0,1-1.956-.656c-.174-.073-.323-.158-.484-.243l-.3-.17a3.263,3.263,0,0,1-.359-.224,3.062,3.062,0,0,1-.318-.247,2.586,2.586,0,0,1-.292-.259,1.7,1.7,0,0,1-.253-.268,2.579,2.579,0,0,1-.531-.821c-.083,2,2.827,3.868,6.674,4.257,4,.4,7.495-.957,7.812-3.033.159-1.051-.525-2.085-1.769-2.905Zm-19.145-2.626a1.159,1.159,0,0,1,.1.273,1.369,1.369,0,0,1,.1.453.171.171,0,0,1,.008.077,2.008,2.008,0,0,1,.011.282,2.746,2.746,0,0,1-.111.619c-.556,1.757-2.757,2.582-5.682,2.141a6.186,6.186,0,0,1-1.071-.262c-.15-.059-.288-.1-.425-.164a7.086,7.086,0,0,1-.981-.5,3.781,3.781,0,0,1-.444-.28,7.236,7.236,0,0,1-1.34-1.2c-.1-.094-.167-.2-.252-.294a4.611,4.611,0,0,1-.4-.609,2.741,2.741,0,0,1-.184-.38c-.045-.1-.09-.209-.123-.313-.054,1.925,2.784,4.658,5.7,5.084,3.14.465,5.512-.427,6.1-2.348.4-1.33-.266-2.618-1.683-3.551A3.077,3.077,0,0,1,271.671,271.537Zm.682-10.865a2.859,2.859,0,0,1,.666,1.122c.034.1.053.207.073.3a2.527,2.527,0,0,1-.067,1.235c-.574,1.87-2.919,2.738-6.034,2.275a6.489,6.489,0,0,1-1.083-.264c-.152-.046-.3-.1-.451-.165a7.443,7.443,0,0,1-1.192-.614c-.136-.084-.272-.167-.407-.265a7.846,7.846,0,0,1-1.4-1.25,1.7,1.7,0,0,1-.276-.333,4.421,4.421,0,0,1-.743-1.355c-.06,2.039,2.946,4.947,6.062,5.4,3.329.5,5.845-.448,6.48-2.494.448-1.418-.295-2.8-1.81-3.788A1.438,1.438,0,0,1,272.354,260.672Zm2.7-7.6c-.619,2-3.121,2.932-6.439,2.444a5.517,5.517,0,0,1-1.007-.234c-.076-.03-.164-.048-.238-.077-.164-.06-.326-.12-.475-.193a2.362,2.362,0,0,1-.261-.116c-.162-.073-.324-.146-.473-.23a8.013,8.013,0,0,1-3.122-2.9,3.573,3.573,0,0,1-.353-.785c-.055,2.18,3.158,5.279,6.476,5.765,3.546.526,6.243-.489,6.911-2.661.465-1.506-.311-2.978-1.912-4.036A2.917,2.917,0,0,1,275.052,253.072Zm20.05-.171a3.028,3.028,0,0,1,.655,1.121,2.363,2.363,0,0,1,.071.324,1.943,1.943,0,0,1,.018.383.949.949,0,0,1-.024.191c-.318,2.1-3.9,3.476-8,3.074a14.051,14.051,0,0,1-2.123-.384,5.067,5.067,0,0,1-.642-.189,6.529,6.529,0,0,1-3.79-2.58,1.28,1.28,0,0,1-.137-.3l-.012-.013c-.088,2.088,2.843,4.061,6.822,4.584.14.02.292.028.444.049,4.341.441,8.149-1.036,8.489-3.291.178-1.139-.578-2.265-1.934-3.156A1.131,1.131,0,0,1,295.1,252.9Zm10.52,16.594c-.343-.019-.661-.049-.977-.091s-.633-.1-.924-.153c-.24-.051-.466-.114-.679-.177a8.411,8.411,0,0,1-.927-.344,4.644,4.644,0,0,1-1.925-1.445c.55,1.613,2.649,2.9,6.048,3.087,4.073.221,8.435-1.111,8.584-3.847.057-1.044-.666-1.849-1.832-2.461a2.9,2.9,0,0,1,.53.591,3.2,3.2,0,0,1,.163.289c.023.053.034.091.057.143a1.458,1.458,0,0,1,.081.388,1.594,1.594,0,0,1,.019.345C313.7,268.428,309.529,269.707,305.623,269.494Zm2.53-10.572c-.344-.018-.674-.049-.991-.091-.2-.024-.38-.06-.569-.1-.165-.022-.317-.055-.468-.089l-.189-.049a3.349,3.349,0,0,1-.528-.143.047.047,0,0,1-.037-.016,5.864,5.864,0,0,1-.713-.268,4.645,4.645,0,0,1-1.987-1.474c.549,1.626,2.686,2.929,6.109,3.116,4.125.225,8.538-1.13,8.689-3.891.057-1.043-.664-1.862-1.819-2.473a2.417,2.417,0,0,1,.35.376,1.382,1.382,0,0,1,.248.372.954.954,0,0,1,.09.208,1.168,1.168,0,0,1,.1.3v.012c.01.052.02.09.03.142a3.31,3.31,0,0,1,.007.345C316.329,257.85,312.11,259.139,308.152,258.922Zm1.6-10.38c-.344-.019-.674-.049-.991-.093l-.051,0c-.318-.043-.608-.1-.885-.164-.038,0-.076-.017-.1-.018a5.824,5.824,0,0,1-.717-.193c-.013,0-.025-.013-.037-.014a6.008,6.008,0,0,1-.714-.268,4.655,4.655,0,0,1-1.987-1.474c.549,1.626,2.674,2.928,6.111,3.116,4.11.224,8.525-1.131,8.675-3.892a2.753,2.753,0,0,0-1.805-2.473,2.532,2.532,0,0,1,.349.377.881.881,0,0,1,.213.318.961.961,0,0,1,.126.25,1.092,1.092,0,0,1,.1.311v.013c.01.052.02.09.03.142a3.02,3.02,0,0,1,.007.345C317.929,247.469,313.7,248.758,309.752,248.543Zm-13.13-6.192a2.838,2.838,0,0,1,.605,1.068,2.182,2.182,0,0,1,.072.323,1.957,1.957,0,0,1,.017.384.848.848,0,0,1-.023.19c-.319,2.1-3.9,3.476-8,3.062a14.174,14.174,0,0,1-1.822-.3,4.1,4.1,0,0,1-.554-.144c-.189-.049-.365-.11-.539-.17a3.6,3.6,0,0,1-.514-.182,9.666,9.666,0,0,1-.946-.434c-.112-.057-.224-.114-.323-.171a7.9,7.9,0,0,1-.886-.61c-.1-.082-.183-.163-.268-.244a3.446,3.446,0,0,1-.853-1.2c-.087,2.051,2.743,4,6.632,4.562l.634.073c4.342.427,8.149-1.037,8.489-3.291.177-1.14-.579-2.253-1.922-3.143A1.129,1.129,0,0,1,296.622,242.35Zm-19.87-3.6a2.571,2.571,0,0,1,.392.519c.012.027.024.04.035.066a1.012,1.012,0,0,1,.163.3,1.67,1.67,0,0,1,.123.313,2.633,2.633,0,0,1,0,1.634c-.62,2-3.122,2.931-6.439,2.431-.215-.037-.43-.075-.644-.124-.176-.048-.353-.1-.515-.156a6.232,6.232,0,0,1-1.135-.483,2.852,2.852,0,0,1-.508-.283,4.065,4.065,0,0,1-.444-.28,7.775,7.775,0,0,1-1.943-1.828c-.072-.094-.143-.2-.2-.292a4.4,4.4,0,0,1-.528-1.075c-.055,2.192,3.147,5.264,6.464,5.752,3.559.526,6.244-.49,6.911-2.661.479-1.519-.308-3-1.935-4.063C276.62,238.6,276.692,238.672,276.753,238.753Z" transform="translate(-255.457 -155.245)" fill="#49616e"/>
      <path id="Trazado_631474" data-name="Trazado 631474" d="M286.771,276.32v.918a71.762,71.762,0,0,0-11.2-1.121l-1.092,2.008c-.4-.111-.805-.235-1.193-.371l1.474-2.7q3.519.076,7.007.5C283.444,275.756,285.116,276.012,286.771,276.32Z" transform="translate(-252.93 -147.809)" fill="#29618f"/>
      <path id="Trazado_631475" data-name="Trazado 631475" d="M286.571,277.059l-.017,2.182a45.031,45.031,0,0,1-5.5-.083c-.215-.024-.432-.036-.634-.06-.483-.052-.939-.1-1.395-.165-.279-.028-.57-.082-.862-.124a31.634,31.634,0,0,1-3.884-.863l1.092-2.008A71.758,71.758,0,0,1,286.571,277.059Z" transform="translate(-252.729 -147.629)" fill="#46b6db"/>
      <path id="Trazado_631476" data-name="Trazado 631476" d="M271.911,267.537a2.748,2.748,0,0,1-.111.619c-.556,1.757-2.757,2.582-5.682,2.141a6.183,6.183,0,0,1-1.071-.262c-.138-.046-.288-.1-.425-.164a7.092,7.092,0,0,1-.981-.5c-.149-.085-.3-.183-.444-.28a7.236,7.236,0,0,1-1.34-1.2c-.084-.094-.169-.188-.252-.294a4.624,4.624,0,0,1-.4-.609,2.744,2.744,0,0,1-.184-.38c-.045-.1-.09-.209-.123-.313a1.932,1.932,0,0,1-.045-1.063c.527-1.936,4.03-2.039,6.98-1.355a6.626,6.626,0,0,1,3.181,1.6c-.025-.014-.061-.042-.087-.055a3.234,3.234,0,0,1,.761,1.024,2.345,2.345,0,0,1,.1.273,1.945,1.945,0,0,1,.1.453.171.171,0,0,1,.008.077A2.3,2.3,0,0,1,271.911,267.537Z" transform="translate(-255.473 -150.161)" fill="url(#linear-gradient)"/>
      <path id="Trazado_631477" data-name="Trazado 631477" d="M288.64,270.211a1.012,1.012,0,0,1-.023.19c-.3,1.937-3.6,3.212-7.367,2.827a8.268,8.268,0,0,1-1.164-.178,3.215,3.215,0,0,1-.506-.1,10.742,10.742,0,0,1-1.956-.656,4.543,4.543,0,0,1-.484-.243l-.3-.17c-.124-.07-.247-.154-.359-.224s-.22-.165-.318-.247a1.986,1.986,0,0,1-.292-.259,1.7,1.7,0,0,1-.253-.268,3.063,3.063,0,0,1-.531-.821v-.013a1.806,1.806,0,0,1-.124-1c.3-1.95,3.6-3.212,7.366-2.828.229.025.457.051.673.088a8.445,8.445,0,0,1,4.945,2.235c.084.094.155.188.227.28.047.066.094.146.141.225a1.108,1.108,0,0,1,.116.211,1.849,1.849,0,0,1,.123.338,1.046,1.046,0,0,1,.06.284A1.377,1.377,0,0,1,288.64,270.211Z" transform="translate(-252.594 -149.622)" fill="url(#linear-gradient-2)"/>
      <path id="Trazado_631478" data-name="Trazado 631478" d="M304.045,270.241a2.711,2.711,0,0,1,.008.332c-.14,2.546-4.2,3.791-8,3.585-.343-.019-.661-.049-.965-.091s-.608-.084-.885-.15-.543-.131-.781-.208c-.037,0-.063-.017-.088-.018-.225-.089-.45-.165-.65-.252a6.166,6.166,0,0,1-1.163-.676,4.121,4.121,0,0,1-.785-.834.186.186,0,0,1,.022.077,2.578,2.578,0,0,1-.5-1.648c.106-1.922,2.644-3.532,6.437-3.325,2.66.144,5.245.733,6.525,1.837l.012.013a2.064,2.064,0,0,1,.182.176,1.132,1.132,0,0,1,.168.188,2.391,2.391,0,0,1,.284.424c.022.065.057.131.078.2l.064.234C304.026,270.137,304.036,270.189,304.045,270.241Z" transform="translate(-249.476 -149.445)" fill="url(#linear-gradient-3)"/>
      <path id="Trazado_631479" data-name="Trazado 631479" d="M307.258,261.475a1.592,1.592,0,0,1,.019.345c-.142,2.609-4.31,3.889-8.217,3.676-.343-.019-.661-.049-.977-.091s-.633-.1-.924-.153c-.24-.051-.466-.114-.679-.177a8.411,8.411,0,0,1-.927-.344,4.608,4.608,0,0,1-1.946-1.524.2.2,0,0,1,.022.078,2.612,2.612,0,0,1-.508-1.687c.107-1.973,2.712-3.63,6.606-3.418,2.724.149,5.385.753,6.7,1.885a2.9,2.9,0,0,1,.53.591,1.319,1.319,0,0,1,.162.289,1.216,1.216,0,0,0,.057.143A1.456,1.456,0,0,1,307.258,261.475Z" transform="translate(-248.894 -151.247)" fill="url(#linear-gradient-4)"/>
      <path id="Trazado_631480" data-name="Trazado 631480" d="M290.391,260.805a1.667,1.667,0,0,1,.018.359,1.023,1.023,0,0,1-.023.19c-.313,2-3.717,3.307-7.6,2.916-.241-.025-.469-.051-.7-.089a12.472,12.472,0,0,1-2.518-.648c-.012,0-.024-.014-.049-.016a10.041,10.041,0,0,1-1-.475c-.149-.084-.31-.17-.459-.267a2.371,2.371,0,0,1-.4-.29,3.8,3.8,0,0,1-1.1-1.2,1.518,1.518,0,0,1-.137-.3,1.832,1.832,0,0,1-.135-1.041c.313-2,3.717-3.307,7.6-2.917.242.026.471.052.7.089a9.1,9.1,0,0,1,4.95,2.147,1.668,1.668,0,0,1,.2.227,2.952,2.952,0,0,1,.332.465,1.279,1.279,0,0,1,.128.225c.034.09.067.169.1.26A1.169,1.169,0,0,1,290.391,260.805Z" transform="translate(-252.324 -151.492)" fill="url(#linear-gradient-5)"/>
      <path id="Trazado_631481" data-name="Trazado 631481" d="M273.016,258.735a2.528,2.528,0,0,1-.067,1.235c-.574,1.87-2.919,2.738-6.034,2.275a6.486,6.486,0,0,1-1.083-.264c-.152-.046-.3-.1-.451-.165a7.44,7.44,0,0,1-1.192-.614,3.2,3.2,0,0,1-.407-.265,7.846,7.846,0,0,1-1.4-1.25,3.506,3.506,0,0,1-.276-.333,4.421,4.421,0,0,1-.743-1.355,2.045,2.045,0,0,1-.054-1.127c.56-2.076,4.293-2.178,7.419-1.447a6.937,6.937,0,0,1,3.368,1.69.294.294,0,0,0-.073-.055c.084.082.169.176.254.256a3.45,3.45,0,0,1,.666,1.122C272.963,258.541,273,258.631,273.016,258.735Z" transform="translate(-255.381 -151.889)" fill="url(#linear-gradient-6)"/>
      <path id="Trazado_631482" data-name="Trazado 631482" d="M273.773,248.411a2.981,2.981,0,0,1,.993,3.092c-.619,2-3.121,2.932-6.439,2.444a5.517,5.517,0,0,1-1.007-.233c-.076-.03-.164-.048-.238-.077-.164-.06-.326-.12-.475-.193a2.365,2.365,0,0,1-.261-.116c-.162-.073-.324-.146-.473-.23a8.013,8.013,0,0,1-3.122-2.9,2.7,2.7,0,0,1-.4-1.987c.592-2.215,4.581-2.316,7.922-1.547a7.292,7.292,0,0,1,3.6,1.817A.632.632,0,0,0,273.773,248.411Z" transform="translate(-255.17 -153.677)" fill="url(#linear-gradient-7)"/>
      <path id="Trazado_631483" data-name="Trazado 631483" d="M292.432,252.355a1.943,1.943,0,0,1,.018.383.946.946,0,0,1-.024.191c-.318,2.1-3.9,3.476-8,3.074a14.056,14.056,0,0,1-2.123-.384,6.058,6.058,0,0,1-.642-.189,6.529,6.529,0,0,1-3.79-2.58,1.583,1.583,0,0,1-.137-.3l-.012-.013a2.143,2.143,0,0,1-.132-1.093c.332-2.1,3.918-3.476,8.006-3.074a9.717,9.717,0,0,1,6.115,2.542,3.028,3.028,0,0,1,.655,1.121A1.5,1.5,0,0,1,292.432,252.355Z" transform="translate(-252.061 -153.255)" fill="url(#linear-gradient-8)"/>
      <path id="Trazado_631484" data-name="Trazado 631484" d="M309.487,252.662a3.336,3.336,0,0,1,.007.345c-.145,2.648-4.364,3.937-8.322,3.72-.344-.018-.674-.049-.991-.091-.2-.024-.38-.06-.569-.1-.165-.022-.316-.055-.468-.089l-.189-.049a4.043,4.043,0,0,1-.528-.143.047.047,0,0,1-.037-.016,5.847,5.847,0,0,1-.713-.268,4.659,4.659,0,0,1-2.021-1.565c.011.025.022.065.034.09a2.658,2.658,0,0,1-.519-1.726c.108-1.985,2.739-3.667,6.685-3.452,2.762.15,5.447.769,6.776,1.914a3.825,3.825,0,0,1,.388.391,2.4,2.4,0,0,1,.248.372.954.954,0,0,1,.09.208,1.169,1.169,0,0,1,.1.3v.012C309.467,252.572,309.477,252.61,309.487,252.662Z" transform="translate(-248.477 -153.05)" fill="url(#linear-gradient-9)"/>
      <path id="Trazado_631485" data-name="Trazado 631485" d="M310.816,244.038a3.013,3.013,0,0,1,.007.345c-.144,2.647-4.376,3.936-8.321,3.72-.344-.019-.674-.049-.991-.093l-.051,0c-.318-.043-.608-.1-.885-.164-.038,0-.076-.017-.1-.018-.253-.052-.491-.129-.717-.193-.013,0-.025-.013-.037-.014a6.011,6.011,0,0,1-.714-.268,4.685,4.685,0,0,1-2.021-1.566c.012.026.022.065.034.091a2.657,2.657,0,0,1-.519-1.726c.108-2,2.727-3.668,6.686-3.452,2.761.15,5.446.769,6.776,1.914a2.821,2.821,0,0,1,.386.391,1.812,1.812,0,0,1,.213.318.962.962,0,0,1,.126.25,1.42,1.42,0,0,1,.1.311v.013C310.8,243.934,310.806,243.986,310.816,244.038Z" transform="translate(-248.206 -154.806)" fill="url(#linear-gradient-10)"/>
      <path id="Trazado_631486" data-name="Trazado 631486" d="M293.655,243.545a1.957,1.957,0,0,1,.017.384.848.848,0,0,1-.023.19c-.319,2.1-3.9,3.476-8,3.062a14.174,14.174,0,0,1-1.822-.3,4.1,4.1,0,0,1-.554-.144c-.189-.049-.365-.11-.539-.17s-.351-.122-.514-.182a9.673,9.673,0,0,1-.946-.434c-.112-.057-.224-.114-.323-.171a7.9,7.9,0,0,1-.886-.61c-.1-.082-.183-.162-.268-.244a3.446,3.446,0,0,1-.853-1.2,2.157,2.157,0,0,1-.131-1.1c.331-2.1,3.916-3.476,8-3.061a9.982,9.982,0,0,1,5.947,2.354.012.012,0,0,1,.012.013c.073.067.132.147.2.227a2.838,2.838,0,0,1,.605,1.068A1.43,1.43,0,0,1,293.655,243.545Z" transform="translate(-251.812 -155.049)" fill="url(#linear-gradient-11)"/>
      <path id="Trazado_631487" data-name="Trazado 631487" d="M276.77,240.328a2.633,2.633,0,0,1,0,1.634c-.62,2-3.122,2.931-6.439,2.431-.215-.037-.43-.075-.644-.124-.176-.048-.353-.1-.515-.156a6.234,6.234,0,0,1-1.135-.483c-.174-.087-.348-.185-.508-.283a5.135,5.135,0,0,1-.444-.28,7.775,7.775,0,0,1-1.943-1.828c-.072-.094-.13-.2-.2-.292a4.394,4.394,0,0,1-.528-1.075v-.013a2.211,2.211,0,0,1-.063-1.2c.593-2.2,4.582-2.316,7.922-1.547a7.526,7.526,0,0,1,3.579,1.791c-.025-.014-.037-.028-.061-.042.1.1.182.177.266.271q.215.26.392.519c.012.027.024.04.035.066.058.1.117.2.163.3A3.172,3.172,0,0,1,276.77,240.328Z" transform="translate(-254.762 -155.621)" fill="url(#linear-gradient-12)"/>
      <path id="Trazado_631488" data-name="Trazado 631488" d="M276.217,227.314a53.32,53.32,0,0,1-4.645,7.7,3.889,3.889,0,0,1-.433-.266,53.611,53.611,0,0,0,4.18-7.355,35.416,35.416,0,0,1-6.139-7.036,40.794,40.794,0,0,0-6.449,4.257c-.042-.155-.1-.325-.14-.48a32.134,32.134,0,0,1,6.872-4.527A33.565,33.565,0,0,0,276.217,227.314Z" transform="translate(-255.108 -159.096)" fill="#759696"/>
      <path id="Trazado_631489" data-name="Trazado 631489" d="M322.079,230.318c-.108.123-.229.231-.337.339a43.358,43.358,0,0,0-6.151-7.037,88.387,88.387,0,0,1-9.561,5.849c1.14,2.5,2.577,5.183,4.16,8-.144.057-.288.112-.444.167a77.592,77.592,0,0,1-4.67-8.462,60.777,60.777,0,0,0,10.536-6.408A39.919,39.919,0,0,1,322.079,230.318Z" transform="translate(-246.46 -158.453)" fill="#759696"/>
      <path id="Trazado_631490" data-name="Trazado 631490" d="M301.933,239.556c-.218.013-.449.04-.679.053a60.212,60.212,0,0,0-1.551-9.722,101.538,101.538,0,0,1-19.332-1.756,80.453,80.453,0,0,0-2.677,9.287c-.189-.048-.365-.108-.54-.17a46.077,46.077,0,0,1,2.793-9.779,112.283,112.283,0,0,0,20.4,1.84C300.985,232.14,301.479,235.715,301.933,239.556Z" transform="translate(-252.144 -157.495)" fill="#759696"/>
      <path id="Trazado_631491" data-name="Trazado 631491" d="M315.429,223.476a43.355,43.355,0,0,1,6.151,7.037,32,32,0,0,1-11.553,6.812c-1.583-2.818-3.02-5.5-4.16-8A88.376,88.376,0,0,0,315.429,223.476Z" transform="translate(-246.299 -158.308)" fill="url(#linear-gradient-13)"/>
      <path id="Trazado_631492" data-name="Trazado 631492" d="M275.3,227.265a53.61,53.61,0,0,1-4.18,7.355c-4.044-2.608-7.038-5.988-8.408-10.134a40.8,40.8,0,0,1,6.449-4.257A35.417,35.417,0,0,0,275.3,227.265Z" transform="translate(-255.085 -158.969)" fill="url(#linear-gradient-14)"/>
      <path id="Trazado_631493" data-name="Trazado 631493" d="M299.611,229.775a60.209,60.209,0,0,1,1.551,9.722,67.7,67.7,0,0,1-13.813-.2,55.251,55.251,0,0,1-9.746-1.987,80.447,80.447,0,0,1,2.677-9.287A101.538,101.538,0,0,0,299.611,229.775Z" transform="translate(-252.053 -157.383)" fill="url(#linear-gradient-15)"/>
      <path id="Trazado_631494" data-name="Trazado 631494" d="M300.905,219.533l-1.669,4.632-18.379-1.691-.017-5.069Z" transform="translate(-251.394 -159.544)" fill="#759696"/>
      <path id="Trazado_631495" data-name="Trazado 631495" d="M308.853,173.64l-.712,1.825-12.6-.686.225-1.571A22.436,22.436,0,0,1,308.853,173.64Z" transform="translate(-248.401 -168.697)" fill="#546b6b"/>
      <path id="Trazado_631496" data-name="Trazado 631496" d="M309.227,173.232l-.223.562a22.436,22.436,0,0,0-13.086-.432l-.225,1.571-.892-.049.349-2.419A22.3,22.3,0,0,1,309.227,173.232Z" transform="translate(-248.552 -168.852)" fill="#759696"/>
      <path id="Trazado_631497" data-name="Trazado 631497" d="M326.65,203.272a126.231,126.231,0,0,0,1.692-21.671,133.155,133.155,0,0,0-41.24-2.644c-7.35,11.419-11.564,24.567-14.049,38.767q3.418,1.24,6.848,2.237-4.336-1.233-8.649-2.91c2.455-14.6,6.7-28.1,14.232-39.791a133.526,133.526,0,0,1,42.854,2.988A123.3,123.3,0,0,1,326.65,203.272Z" transform="translate(-253.345 -167.836)" fill="#759696"/>
      <path id="Trazado_631498" data-name="Trazado 631498" d="M339.393,176.8c2.541,10.99,1.189,32.5-2.169,48.44a81.208,81.208,0,0,1-3.3,11.832,18.7,18.7,0,0,1-3.085,4.12,39.919,39.919,0,0,0-6.468-7.551,60.776,60.776,0,0,1-10.536,6.408,77.59,77.59,0,0,0,4.67,8.462,58.716,58.716,0,0,1-13.5,2.877c-.454-3.842-.948-7.416-1.586-10.247a112.282,112.282,0,0,1-20.4-1.84,46.075,46.075,0,0,0-2.794,9.779,36.787,36.787,0,0,1-8.547-3.836,53.323,53.323,0,0,0,4.645-7.7,33.565,33.565,0,0,1-6.753-7.708,32.134,32.134,0,0,0-6.872,4.527,16.707,16.707,0,0,1-.664-4.428c3.465-23.515,10.8-45.236,22.428-58.082Q315.783,165.006,339.393,176.8Zm-10.868,27.962a123.307,123.307,0,0,0,1.689-23.024,133.527,133.527,0,0,0-42.854-2.988c-7.531,11.691-11.777,25.194-14.232,39.791q4.313,1.672,8.649,2.91,1.715.495,3.435.915,2.587.657,5.185,1.125a91.573,91.573,0,0,0,17.361,1.61l.639,0c1.583,0,3.181-.057,4.783-.16a98.74,98.74,0,0,0,11.329-1.311l.537-2.115c.7-2.821,1.353-5.619,1.926-8.4l.42-2.083c.28-1.389.546-2.766.775-4.145.128-.7.241-1.378.342-2.062A.116.116,0,0,1,328.525,204.767Zm-12.852-30.494.223-.562a22.3,22.3,0,0,0-14.077-.768l-.349,2.419.892.049,12.6.686Zm-12.61,59.678,1.669-4.631-20.066-2.128.017,5.068Z" transform="translate(-255.221 -169.33)" fill="url(#linear-gradient-16)"/>
      <path id="Trazado_631499" data-name="Trazado 631499" d="M338.586,191.239c1.395,13.262.321,28.037-2.559,43.185-2.872-4.458-5.936-7.255-11.519-10.445,3.358-15.939,4.71-37.45,2.169-48.44A47.061,47.061,0,0,1,338.586,191.239Zm-2.476,17.3c.188-3.436-.652-6.291-1.874-6.357a1.423,1.423,0,0,0-1.14.768,11.085,11.085,0,0,0-1.415,5.347c-.153,2.813.379,5.228,1.253,6.055a1.009,1.009,0,0,0,.622.289C334.778,214.711,335.923,211.978,336.11,208.542Z" transform="translate(-242.504 -168.066)" fill="url(#linear-gradient-17)"/>
      <path id="Trazado_631500" data-name="Trazado 631500" d="M332.811,197.678c1.222.066,2.062,2.921,1.874,6.357s-1.332,6.169-2.554,6.1a1.009,1.009,0,0,1-.622-.289c1.649-3.56,1.953-9.135.162-11.4A1.423,1.423,0,0,1,332.811,197.678Z" transform="translate(-241.079 -163.56)" fill="#759696"/>
      <path id="Trazado_631501" data-name="Trazado 631501" d="M331.888,198.316c1.791,2.268,1.486,7.842-.162,11.4-.874-.827-1.406-3.242-1.253-6.055A11.084,11.084,0,0,1,331.888,198.316Z" transform="translate(-241.295 -163.43)" fill="#131f49"/>
      <path id="Trazado_631502" data-name="Trazado 631502" d="M293.29,285.837l-.634,3.437c-7.722-.012-14.36-.719-20.907-2.838l-.634-2.893a68.935,68.935,0,0,0,10.94,1.873c2.348.23,4.754.361,7.214.419C290.595,285.856,291.948,285.866,293.29,285.837Z" transform="translate(-253.373 -146.081)" fill="#131f49"/>
      <path id="Trazado_631503" data-name="Trazado 631503" d="M338.284,215.787c5.583,3.189,8.648,5.987,11.519,10.445-5.154,27.316-16.128,55.821-28.913,78.676-21.363,9.264-48.137,4.205-56.227-2.849-3.963-5.284-6.729-10.732-7.826-16.395,7.073,4.661,16.637,7.889,27.28,8.878a76.886,76.886,0,0,0,31.668-3.711c8.358-15.628,15.737-42.811,19.2-63.211A81.216,81.216,0,0,0,338.284,215.787Zm-42.722,87.28.634-3.437c-1.342.029-2.695.019-4.021,0-2.447-.057-4.866-.189-7.214-.419a70.7,70.7,0,0,1-10.951-1.9l.011.026c-.515-.13-1.018-.273-1.521-.415l1.015,4.562c6.8,2.209,13.705,2.892,21.813,2.849Z" transform="translate(-256.28 -159.874)" fill="#29618f"/>
      <path id="Trazado_631504" data-name="Trazado 631504" d="M328.037,181.312a126.228,126.228,0,0,1-1.692,21.671.116.116,0,0,0-.017.064c-.113.682-.227,1.366-.342,2.062-.241,1.378-.495,2.756-.775,4.145l-.42,2.083q-.877,4.163-1.926,8.4l-.537,2.115A98.74,98.74,0,0,1,311,223.159c-1.6.091-3.187.144-4.783.16l-.639,0a92.673,92.673,0,0,1-17.361-1.61q-2.6-.486-5.185-1.125-1.719-.439-3.435-.915-3.43-.991-6.848-2.237c2.485-14.2,6.7-27.347,14.049-38.767A133.155,133.155,0,0,1,328.037,181.312Z" transform="translate(-253.041 -167.548)" fill="url(#linear-gradient-18)"/>
      <path id="Trazado_631505" data-name="Trazado 631505" d="M292.913,289.345l-.235,1.264c-8.108.043-15.014-.64-21.813-2.849L269.85,283.2c.5.142,1.006.285,1.521.415l.634,2.893C278.553,288.626,285.191,289.333,292.913,289.345Z" transform="translate(-253.631 -146.151)" fill="#1d4d75"/>
      <path id="Trazado_631506" data-name="Trazado 631506" d="M331.993,230.945c-.108.123-.229.231-.337.339A32,32,0,0,1,320.1,238.1c-.144.057-.288.112-.444.167a58.715,58.715,0,0,1-13.5,2.877c-.218.013-.449.04-.679.053a67.79,67.79,0,0,1-13.813-.2A55.252,55.252,0,0,1,281.925,239c-.189-.048-.365-.108-.54-.17A36.787,36.787,0,0,1,272.838,235a3.891,3.891,0,0,1-.433-.266c-4.044-2.608-7.038-5.988-8.408-10.134-.042-.155-.1-.325-.14-.48a16.708,16.708,0,0,1-.664-4.428c-5.41,21.724-7.609,40.983-6.567,63.314.081.631.174,1.248.306,1.868,7.073,4.661,16.637,7.889,27.28,8.878a76.886,76.886,0,0,0,31.668-3.711c8.358-15.628,15.737-42.811,19.2-63.211A18.7,18.7,0,0,1,331.993,230.945Zm-58.4,47.008c-.59,1.921-2.962,2.813-6.1,2.348-2.913-.427-5.751-3.159-5.7-5.084a1.932,1.932,0,0,1-.045-1.063c.527-1.937,4.03-2.04,6.979-1.355a6.627,6.627,0,0,1,3.181,1.6C273.331,275.335,274,276.623,273.6,277.953Zm1.3-9.86c-.635,2.046-3.151,2.994-6.48,2.494-3.116-.451-6.123-3.359-6.062-5.4a2.04,2.04,0,0,1-.054-1.125c.56-2.076,4.293-2.178,7.419-1.447a6.937,6.937,0,0,1,3.368,1.69C274.606,265.295,275.348,266.675,274.9,268.093Zm2.086-10.175c-.667,2.172-3.364,3.187-6.91,2.661-3.318-.486-6.532-3.585-6.476-5.765a3.6,3.6,0,0,0,.353.785,2.7,2.7,0,0,1-.4-1.987c.592-2.215,4.581-2.316,7.922-1.547a7.292,7.292,0,0,1,3.6,1.817C276.677,254.94,277.452,256.412,276.986,257.918Zm-4.5-8.835c-3.317-.487-6.52-3.56-6.464-5.752v-.013a2.211,2.211,0,0,1-.063-1.2c.593-2.2,4.582-2.316,7.922-1.547a7.526,7.526,0,0,1,3.579,1.791c1.627,1.059,2.414,2.544,1.935,4.063C278.734,248.593,276.049,249.609,272.49,249.083ZM284.7,290.608l-.19-.01c-.153-.022-.3-.03-.444-.051-.483-.052-.939-.1-1.395-.165-.292-.029-.584-.07-.862-.124a31.646,31.646,0,0,1-3.884-.863c-.4-.111-.805-.235-1.193-.371l1.474-2.7q3.519.076,7.007.5c1.673.206,3.345.462,5,.77v.918l-.017,2.182A45.043,45.043,0,0,1,284.7,290.608Zm.845-6.834c-3.847-.389-6.757-2.258-6.674-4.257V279.5a1.806,1.806,0,0,1-.124-1c.3-1.95,3.6-3.212,7.366-2.828.229.025.457.051.673.088A8.445,8.445,0,0,1,291.734,278l-.144-.161c1.244.821,1.928,1.855,1.769,2.905C293.041,282.817,289.546,284.172,285.546,283.774Zm1.815-10.8c-.077,0-.152-.022-.229-.025-3.856-.44-6.728-2.332-6.656-4.346v-.025a1.832,1.832,0,0,1-.135-1.041c.313-2,3.717-3.307,7.6-2.917.242.026.471.052.7.089a9.1,9.1,0,0,1,4.95,2.147c1.282.849,2,1.909,1.84,3C295.1,271.99,291.487,273.389,287.361,272.972ZM297.786,259.7c-.341,2.254-4.149,3.731-8.49,3.291-.152-.022-.3-.029-.444-.049-3.979-.524-6.91-2.5-6.822-4.584a2.142,2.142,0,0,1-.132-1.093c.332-2.1,3.918-3.476,8.006-3.074a9.717,9.717,0,0,1,6.115,2.542,1.133,1.133,0,0,0-.168-.188C297.207,257.438,297.963,258.564,297.786,259.7Zm-7.018-7.313-.634-.073c-3.889-.557-6.718-2.511-6.632-4.562a2.157,2.157,0,0,1-.131-1.1c.331-2.1,3.916-3.476,8-3.061a9.982,9.982,0,0,1,5.947,2.354.012.012,0,0,1,.012.013c1.343.889,2.1,2,1.922,3.143C298.918,251.353,295.111,252.817,290.768,252.39Zm12.781,32.251c-3.309-.181-5.361-1.427-5.887-3a2.579,2.579,0,0,1-.5-1.648c.1-1.922,2.644-3.532,6.437-3.325,2.66.144,5.245.733,6.525,1.837l.012.013c1.13.585,1.827,1.376,1.773,2.382C311.765,283.558,307.52,284.858,303.549,284.641Zm3.607-10.436c-3.4-.185-5.5-1.474-6.048-3.087a2.619,2.619,0,0,1-.508-1.687c.107-1.973,2.712-3.63,6.606-3.418,2.724.149,5.385.753,6.7,1.885,1.166.613,1.888,1.418,1.832,2.461C315.591,273.094,311.229,274.426,307.156,274.2Zm2.541-10.559c-3.423-.187-5.56-1.49-6.111-3.116a2.663,2.663,0,0,1-.518-1.726c.108-1.985,2.739-3.667,6.685-3.452,2.762.15,5.447.769,6.776,1.914.013,0,.025.014.037.016,1.154.611,1.875,1.43,1.819,2.473C318.235,262.516,313.821,263.871,309.7,263.646Zm1.6-10.38c-3.436-.188-5.562-1.49-6.111-3.116a2.657,2.657,0,0,1-.519-1.726c.108-2,2.727-3.668,6.686-3.452,2.761.15,5.446.769,6.776,1.914.012,0,.024.014.037.014a2.753,2.753,0,0,1,1.805,2.473C319.822,252.135,315.408,253.49,311.3,253.266Z" transform="translate(-256.374 -159.079)" fill="url(#linear-gradient-19)"/>
      <path id="Trazado_631507" data-name="Trazado 631507" d="M340.261,182.332a46.353,46.353,0,0,0-.868-5.528q-23.594-11.856-54.926-4.947c-11.626,12.846-18.963,34.566-22.428,58.082a16.707,16.707,0,0,0,.664,4.428,32.134,32.134,0,0,1,6.872-4.527,33.149,33.149,0,0,0,6.556,7.525q4.268-4.01,8.543-7.946l-.007-2.228,2.187.231q2.1-1.919,4.2-3.819c-.218-.04-.436-.067-.654-.108q-2.6-.468-5.185-1.125-1.721-.419-3.435-.915-4.336-1.233-8.649-2.91c2.455-14.6,6.7-28.1,14.232-39.791a133.527,133.527,0,0,1,42.854,2.988c.083,2.812.041,5.658-.11,8.536Q335.172,186.236,340.261,182.332Zm-24.588-8.059-.712,1.825-12.6-.687-.892-.048.349-2.419a22.3,22.3,0,0,1,14.077.768Z" transform="translate(-255.221 -169.33)" fill="url(#linear-gradient-20)" style="mix-blend-mode: screen;isolation: isolate"/>
      <path id="Trazado_631508" data-name="Trazado 631508" d="M282.726,271.583c-1.417-.812-2.289-1.874-2.249-2.982v-.025a1.832,1.832,0,0,1-.135-1.041c.313-2,3.717-3.307,7.6-2.917.242.026.471.052.7.089s.419.075.625.117c.592-.591,1.2-1.171,1.793-1.757a14.885,14.885,0,0,1-1.763-.072c-.152-.022-.3-.029-.444-.049-3.979-.524-6.91-2.5-6.822-4.584a2.142,2.142,0,0,1-.132-1.093c.332-2.1,3.918-3.476,8.006-3.074a9.717,9.717,0,0,1,6.115,2.542,1.133,1.133,0,0,0-.168-.188,5.9,5.9,0,0,1,1.076.9q4.03-3.757,8.207-7.383a2.651,2.651,0,0,1-.466-1.638c.107-1.962,2.641-3.6,6.479-3.452q4.091-3.378,8.309-6.645a58.891,58.891,0,0,1-13.293,2.813c-.218.013-.449.04-.679.053a67.79,67.79,0,0,1-13.813-.2A55.252,55.252,0,0,1,281.925,239c-.189-.048-.365-.108-.54-.17A36.787,36.787,0,0,1,272.838,235a3.891,3.891,0,0,1-.433-.266c-4.044-2.608-7.038-5.988-8.408-10.134-.042-.155-.1-.325-.14-.48a16.708,16.708,0,0,1-.664-4.428c-5.41,21.724-7.609,40.983-6.567,63.314.081.631.174,1.248.306,1.868a50.222,50.222,0,0,0,9.947,4.964Q274.432,280.38,282.726,271.583Zm8.65-27.994a9.982,9.982,0,0,1,5.947,2.354.012.012,0,0,1,.012.013c1.343.889,2.1,2,1.922,3.143-.339,2.253-4.146,3.718-8.489,3.291l-.634-.073c-3.889-.557-6.718-2.511-6.632-4.562a2.157,2.157,0,0,1-.131-1.1C283.7,244.549,287.288,243.174,291.376,243.59Zm-25.412-1.476c.593-2.2,4.582-2.316,7.922-1.547a7.526,7.526,0,0,1,3.579,1.791c1.627,1.059,2.414,2.544,1.935,4.063-.667,2.171-3.352,3.187-6.911,2.661-3.317-.487-6.52-3.56-6.464-5.752v-.013A2.211,2.211,0,0,1,265.964,242.114Zm-2.413,11.5c.592-2.215,4.581-2.316,7.922-1.547a7.292,7.292,0,0,1,3.6,1.817c1.6,1.058,2.377,2.53,1.911,4.036-.667,2.172-3.364,3.187-6.91,2.661-3.318-.486-6.532-3.585-6.476-5.765a3.6,3.6,0,0,0,.353.785A2.7,2.7,0,0,1,263.551,253.612ZM262.3,264.062c.56-2.076,4.293-2.178,7.419-1.447a6.937,6.937,0,0,1,3.368,1.69c1.515.989,2.258,2.37,1.81,3.788-.635,2.046-3.151,2.994-6.48,2.494-3.116-.451-6.123-3.359-6.062-5.4A2.04,2.04,0,0,1,262.3,264.062Zm-.55,10.092c.527-1.937,4.03-2.04,6.979-1.355a6.627,6.627,0,0,1,3.181,1.6c1.417.933,2.087,2.221,1.683,3.551-.59,1.921-2.962,2.813-6.1,2.348-2.913-.427-5.751-3.159-5.7-5.084A1.932,1.932,0,0,1,261.754,274.154Z" transform="translate(-256.374 -159.079)" fill="url(#linear-gradient-21)" style="mix-blend-mode: screen;isolation: isolate"/>
      <path id="Trazado_631509" data-name="Trazado 631509" d="M331.527,203.194a6.043,6.043,0,0,1,.735-1.53,1.423,1.423,0,0,1,1.14-.768c1.222.066,2.062,2.921,1.874,6.357s-1.332,6.169-2.554,6.1a1.009,1.009,0,0,1-.622-.289,6.578,6.578,0,0,1-1.237-3.96c-.673,5.583-1.443,11.147-2.259,16.81a26.31,26.31,0,0,1,5.384,5.473c1.81-13.636,3.658-28.547,2.742-43.552a46.8,46.8,0,0,0-3.815-5.968C332.751,189.244,332.25,196.284,331.527,203.194Z" transform="translate(-241.67 -166.778)" fill="url(#linear-gradient-22)" style="mix-blend-mode: screen;isolation: isolate"/>
      <path id="Trazado_631510" data-name="Trazado 631510" d="M287.42,178.186c-5.458,9.9-9.408,22.686-12.822,36.509l15.846,3.623L325.8,188.63l.454-8.326A134.626,134.626,0,0,0,287.42,178.186Z" transform="translate(-252.664 -167.647)" fill="url(#linear-gradient-23)" style="mix-blend-mode: screen;isolation: isolate"/>
    </g>
    <g id="Grupo_956691" data-name="Grupo 956691" transform="translate(524.568 164.178)">
      <path id="Trazado_631511" data-name="Trazado 631511" d="M427.5,164.261c-1.585,22.786-4.509,46.366-8.555,70.59-17.483-2.745-33.631-5.916-47.224-9.916a665.759,665.759,0,0,1,5.613-68.881A473.335,473.335,0,0,1,427.5,164.261Z" transform="translate(-330.315 -138.108)" fill="#759696"/>
      <path id="Trazado_631512" data-name="Trazado 631512" d="M418,233.582c-18.677-2.96-33.568-6.082-45.465-9.536A658.859,658.859,0,0,1,378,156.927a474.537,474.537,0,0,1,48.324,7.916C424.8,186.328,422,209.445,418,233.582Z" transform="translate(-330.151 -137.931)" fill="url(#linear-gradient-24)"/>
      <path id="Trazado_631513" data-name="Trazado 631513" d="M406,264.518l3.191,2.784q-.206.444-.408.851l-3.234-2.556c.033-.088.077-.173.11-.26C405.766,265.063,405.889,264.791,406,264.518Z" transform="translate(-323.43 -116.029)" fill="#759696"/>
      <path id="Trazado_631514" data-name="Trazado 631514" d="M406.2,264.592c-.11.273-.232.545-.342.818-.033.087-.077.172-.11.26l-1.188-.525a9.8,9.8,0,0,1,.395-.993Z" transform="translate(-323.631 -116.103)" fill="#759696"/>
      <path id="Trazado_631515" data-name="Trazado 631515" d="M404.96,264.978l1.188.525c-1.7,4.051-3.029,7.313-2.543,8.321l-1.009-1.035a51.027,51.027,0,0,1,2.352-7.811Z" transform="translate(-324.031 -115.935)" fill="#fff6db"/>
      <path id="Trazado_631516" data-name="Trazado 631516" d="M408.785,258.1l1.571.349c-1.043-.054-2.521,3.274-4.223,7.377l-1.244-.439A40.505,40.505,0,0,1,408.785,258.1Z" transform="translate(-323.564 -117.335)" fill="#fff6db"/>
      <path id="Trazado_631517" data-name="Trazado 631517" d="M405.994,265.414l3.234,2.556c-1.932,3.919-4.5,6.462-5.5,6.041l-.273-.276C402.965,272.727,404.3,269.465,405.994,265.414Z" transform="translate(-323.877 -115.846)" fill="url(#linear-gradient-25)"/>
      <path id="Trazado_631518" data-name="Trazado 631518" d="M410.309,258.426c.83.344.982,2.911.177,6.149a24.019,24.019,0,0,1-1.14,3.429c-.078.185-.156.372-.233.545l-3.191-2.784c1.7-4.1,3.18-7.431,4.223-7.377Z" transform="translate(-323.354 -117.277)" fill="url(#linear-gradient-26)"/>
      <path id="Trazado_631519" data-name="Trazado 631519" d="M362.082,301.228a1.291,1.291,0,0,1-.06.289c-.469,1.319-3.788,1.581-7.122.87a11.007,11.007,0,0,1-3.764-1.445,1.212,1.212,0,0,1-.124-.9c.391-1.3,3.937-1.532,7.271-.821a10.873,10.873,0,0,1,3.665,1.4,1.034,1.034,0,0,1,.1.315A.8.8,0,0,1,362.082,301.228Z" transform="translate(-334.54 -109.046)" fill="#49616e"/>
      <path id="Trazado_631520" data-name="Trazado 631520" d="M408.99,152.665l-.339,4.512-18.894-2.864,1.059-4.228v-.012a20.675,20.675,0,0,1,3.776-.407c.32-.014.654-.028.984-.016a6.514,6.514,0,0,1,.7.014A32,32,0,0,1,408.99,152.665Z" transform="translate(-326.644 -139.413)" fill="#49616e"/>
      <path id="Trazado_631521" data-name="Trazado 631521" d="M408.844,157.1l-.076,1L388.807,155l1.149-4.746c.338-.089.691-.178,1.053-.241l-1.059,4.228Z" transform="translate(-326.838 -139.339)" fill="#759696"/>
      <path id="Trazado_631522" data-name="Trazado 631522" d="M362.13,300.8a10.872,10.872,0,0,0-3.665-1.4c-3.334-.711-6.88-.479-7.271.821a1.212,1.212,0,0,0,.124.9c-.95-.634-1.382-1.344-1.193-1.994.392-1.3,3.937-1.532,7.271-.821C359.951,298.848,361.666,299.833,362.13,300.8Z" transform="translate(-334.721 -109.23)" fill="#759696"/>
      <path id="Trazado_631523" data-name="Trazado 631523" d="M411.156,228.663l-3.138,8.583-.521-.2,2.708-7.8-35.431-7.33.212-.431C386.547,223.285,398.554,225.773,411.156,228.663Z" transform="translate(-329.694 -124.789)" fill="#759696"/>
      <path id="Trazado_631524" data-name="Trazado 631524" d="M422.184,238.016c2.62,3.737,1.792,8.98.258,13.913-1.77,5.7-3.713,11.3-5.9,16.7-7.493,18.571-17.763,34.8-33.3,44.406-15.108,9.346-41.105,11.533-45.928-14.42a37.3,37.3,0,0,0,1.294,9.811c4.738,17.561,28.506,24.448,50.517,15.43,13.913-5.689,30.51-28.382,37.837-54.418a102.486,102.486,0,0,0,2.787-12.764C430.923,248.949,427.23,243.483,422.184,238.016Zm1.128,34.136c-.078.185-.156.372-.232.545q-.208.444-.409.851c-1.932,3.919-4.5,6.462-5.5,6.041a.482.482,0,0,1-.273-.276l-1.009-1.035a51.032,51.032,0,0,1,2.352-7.811h.012a9.8,9.8,0,0,1,.395-.993,40.581,40.581,0,0,1,3.9-7.286l1.572.349.164.037c.83.343.982,2.911.177,6.149A24.012,24.012,0,0,1,423.311,272.152Z" transform="translate(-337.319 -121.424)" fill="#759696"/>
      <path id="Trazado_631525" data-name="Trazado 631525" d="M436.482,170.464c2.679,21.151.123,43.75-6.092,65.727-3.557,12.617-12.392,19.469-21.454,20.641-.982-1.39-2.826-3.038-6.54-4.135,10.235,2.253,15.448-3.158,17.482-13.372,6.043-24.79,9.383-51.023,7.189-78.273-.544-6.714-4.661-11.79-11.237-15.467C426.524,149.9,434.891,157.959,436.482,170.464Z" transform="translate(-324.071 -140.24)" fill="#759696"/>
      <path id="Trazado_631526" data-name="Trazado 631526" d="M434.69,161.956c2.194,27.25-1.146,53.483-7.189,78.273-2.034,10.213-7.247,15.625-17.482,13.372l3.138-8.583c-12.6-2.891-24.609-5.379-36.17-7.18l-.212.431-3.122,6.336c-5-4.581-7.93-10.809-8.37-18.895-1.2-21.819.658-43.946,8.183-65.314,2.714-7.709,7.32-14.57,14.993-17.342,10.865-3.913,23.223-1.335,34.994,3.436C430.028,150.166,434.146,155.243,434.69,161.956Zm-14.363,75.931c4.046-24.224,6.97-47.8,8.555-70.59a473.336,473.336,0,0,0-50.166-8.207,665.759,665.759,0,0,0-5.613,68.881C386.7,231.971,402.843,235.141,420.326,237.887ZM413.7,158.907l.339-4.512a32,32,0,0,0-12.71-3,6.282,6.282,0,0,0-.7-.014c-.331-.012-.664,0-.985.016a20.676,20.676,0,0,0-3.776.407v.012c-.362.063-.715.152-1.053.241l-1.149,4.746,19.961,3.111Z" transform="translate(-331.694 -141.144)" fill="url(#linear-gradient-27)"/>
      <path id="Trazado_631527" data-name="Trazado 631527" d="M422.184,241.309c2.62,3.737,1.792,8.98.258,13.913-1.77,5.7-3.713,11.3-5.9,16.7-7.493,18.571-17.763,34.8-33.3,44.406-15.108,9.346-41.105,11.533-45.928-14.42a38.33,38.33,0,0,1,1.464-10.46c5.928-21.041,13.491-39.518,28.114-56.863,2.749-3.245,8.235-6.334,12.381-6.405l3.122-6.336,35.431,7.33-2.708,7.8.521.2C419.358,238.271,421.2,239.919,422.184,241.309Zm-12.5,22.554q2.127-4.826,4.015-9.707c-5.593-1.609-11.116-3.111-16.589-4.456q-8.167-2.033-16.127-3.616-7.16-1.421-14.131-2.469-2.325,4.158-4.487,8.342-3.611,6.976-6.7,13.99-2.842,6.44-5.213,12.889-2.116,5.707-3.826,11.446c-.2.625-.386,1.236-.562,1.862a36.66,36.66,0,0,0,5.621,15.519c.172.255.331.524.5.779a71.515,71.515,0,0,0,16.015,4.093c.164.025.314.061.48.075h.025V312.6a52.185,52.185,0,0,0,19-9.973c.029-.049.058-.085.087-.135q4.326-6.27,8.213-12.676,3.39-5.573,6.429-11.224c.164-.295.3-.591.462-.873Q406.566,270.862,409.687,263.862ZM364.8,317.188a1.291,1.291,0,0,0,.06-.289.8.8,0,0,0-.029-.3.775.775,0,0,0-.1-.315c-.463-.968-2.178-1.953-4.734-2.49-3.334-.711-6.878-.479-7.271.821-.189.65.243,1.36,1.193,1.994a11.007,11.007,0,0,0,3.764,1.445C361.014,318.769,364.332,318.507,364.8,317.188Z" transform="translate(-337.319 -124.716)" fill="url(#linear-gradient-28)"/>
      <path id="Trazado_631528" data-name="Trazado 631528" d="M413.655,250.018l-1-.289c-5.272-1.516-10.044-2.806-14.554-3.943l.006-.014-.947-.225h0l-1.119-.278-.763-.213-.011.025c-4.831-1.193-9.6-2.263-14.218-3.2l0,0-.361-.07v0l-.83-.165c-4.866-.965-9.635-1.8-14.174-2.476l-.654-.1-.323.575c-1.391,2.488-2.654,4.826-3.849,7.115l0,0-.615,1.189-.036.07-.007.014c-.234.45-.45.915-.681,1.366l-.294.579h0c-1.888,3.73-3.708,7.525-5.411,11.346l-.014,0-.071.169-.253.569c-1.826,4.138-3.5,8.258-4.98,12.268h0l-.241.649-.011.03-.244.688-.118.317h0l-.064.182h0c-1.121,3.091-2.176,6.245-3.142,9.423l-.012,0-.134.461c-.026.09-.058.181-.085.271l-.046.144c-.2.635-.394,1.259-.573,1.9l-.053.191.026.2a38.067,38.067,0,0,0,5.486,15.456l-.011.023.3.445c.083.123.413.644.5.778l.034.03.525.367a71.118,71.118,0,0,0,14.372,3.808l-.01.02.986.149,1.479.221.26.014.006,0,.351-.2a53.274,53.274,0,0,0,18.676-9.825l.138.037.3-.449.034-.049.011-.016.046-.07c2.676-3.878,5.2-7.767,7.538-11.581l.006.006.684-1.124h0c2.177-3.578,4.214-7.14,6.091-10.612h0l.355-.643.029-.053.557-1.038.495-.868-.046-.011c2.089-3.965,4.034-7.941,5.8-11.856l.011.007.437-.991c.125-.283.238-.563.361-.846l.091-.2-.006,0c1.281-2.942,2.494-5.867,3.585-8.7Z" transform="translate(-336.004 -121.21)" fill="#759696"/>
      <path id="Trazado_631529" data-name="Trazado 631529" d="M356.324,282.743l-6.117,13.345a36.659,36.659,0,0,1-5.621-15.519c.176-.626.362-1.237.562-1.862h.013c-.087.3-.187.6-.273.912Z" transform="translate(-335.839 -113.14)" fill="#fff6db"/>
      <path id="Trazado_631530" data-name="Trazado 631530" d="M371.621,286.467l-6.409,13.68c.164.025.314.063.479.088a71.514,71.514,0,0,1-16.015-4.093c.049.017.112.034.162.051l6.39-13.925Z" transform="translate(-334.803 -112.416)" fill="#fff6db"/>
      <path id="Trazado_631531" data-name="Trazado 631531" d="M382.492,289.439c-.029.049-.058.085-.087.135a52.186,52.186,0,0,1-19,9.973l6.363-13.582Z" transform="translate(-332.009 -111.663)" fill="#fff6db"/>
      <path id="Trazado_631532" data-name="Trazado 631532" d="M389.547,278.915l.012.013q-3.874,6.4-8.213,12.676c.188-.279.374-.56.562-.839l-12.876-3.512,5.587-11.927Z" transform="translate(-330.863 -113.829)" fill="#fff6db"/>
      <path id="Trazado_631533" data-name="Trazado 631533" d="M376.429,275.767l-5.573,11.9-15.394-4.187,5.261-11.492Z" transform="translate(-333.626 -114.507)" fill="#fff6db"/>
      <path id="Trazado_631534" data-name="Trazado 631534" d="M361.9,272.336l-5.258,11.453-11.573-3.145h-.013q1.717-5.737,3.826-11.446h.013Z" transform="translate(-335.744 -115.076)" fill="#fff6db"/>
      <path id="Trazado_631535" data-name="Trazado 631535" d="M366.649,262.754l-5,10.872-13.057-3.141c-.112.3-.236.6-.348.894h-.013q2.365-6.456,5.213-12.889h.013c-.125.3-.262.593-.388.891Z" transform="translate(-335.097 -117.256)" fill="#fff6db"/>
      <path id="Trazado_631536" data-name="Trazado 631536" d="M380.9,266.161l-5.024,10.717-15.705-3.788,4.983-10.861Z" transform="translate(-332.666 -116.495)" fill="#fff6db"/>
      <path id="Trazado_631537" data-name="Trazado 631537" d="M394.973,269.667q-3.033,5.658-6.429,11.224l-.012-.013c.174-.28.35-.574.513-.856L374.017,276.4l5.01-10.718Z" transform="translate(-329.848 -115.792)" fill="#fff6db"/>
      <path id="Trazado_631538" data-name="Trazado 631538" d="M401.275,257.283l.024.014q-3.116,7.012-6.781,13.857l-16-3.99,6.135-13.074,16.221,4.07C401.014,257.863,401.138,257.579,401.275,257.283Z" transform="translate(-328.931 -118.152)" fill="#fff6db"/>
      <path id="Trazado_631539" data-name="Trazado 631539" d="M386.527,254.565l-6.121,13.076-15.759-3.92,6.036-13.133Z" transform="translate(-331.756 -118.865)" fill="#fff6db"/>
      <path id="Trazado_631540" data-name="Trazado 631540" d="M372.188,251.108l-6.023,13.135-13.588-3.387h-.013q3.1-7.014,6.7-13.99l.012.013c-.149.283-.3.579-.449.874Z" transform="translate(-334.216 -119.623)" fill="#fff6db"/>
      <path id="Trazado_631541" data-name="Trazado 631541" d="M376.75,242.4v.013l-.97-.189-4.311,9.4-13.324-3.341-.012-.013q2.156-4.19,4.487-8.342Q369.6,240.975,376.75,242.4Z" transform="translate(-333.082 -121.033)" fill="#fff6db"/>
      <path id="Trazado_631542" data-name="Trazado 631542" d="M390.462,245.6l-4.6,9.828-15.87-3.979L374.334,242v-.013Q382.288,243.56,390.462,245.6Z" transform="translate(-330.668 -120.616)" fill="#fff6db"/>
      <path id="Trazado_631543" data-name="Trazado 631543" d="M404.207,249.444q-1.881,4.882-4.015,9.707l-.024-.014-16.207-4.083,4.6-9.828c-.314-.075-.628-.149-.941-.237C393.091,246.332,398.614,247.834,404.207,249.444Z" transform="translate(-327.824 -120.004)" fill="#fff6db"/>
      <path id="Trazado_631544" data-name="Trazado 631544" d="M408.132,259.777c-.137.3-.261.58-.4.877l-16.22-4.07-6.135,13.074,16,3.99c-.161.282-.3.578-.462.873l-15.946-3.985-5.01,10.718,15.028,3.623c-.162.282-.338.575-.513.856l-14.928-3.589-5.587,11.927,12.876,3.512c-.188.279-.374.56-.562.839l-12.725-3.475-6.363,13.582c-.013,0-.014.011-.026.011-.166-.013-.317-.049-.48-.075s-.315-.063-.479-.088l6.409-13.68-15.392-4.2-6.39,13.925c-.051-.017-.113-.034-.163-.051-.173-.255-.332-.524-.5-.779l6.117-13.345-11.435-3.122c.087-.313.187-.613.273-.912l11.573,3.145,5.258-11.453-13.006-3.138c.112-.3.236-.6.348-.894l13.057,3.141,5-10.872-13.577-3.374c.125-.3.262-.593.388-.891l13.588,3.387,6.023-13.135-13.36-3.357c.149-.295.3-.591.449-.874l13.323,3.341,4.311-9.4.97.189-4.341,9.452,15.87,3.979,4.6-9.828c.313.088.627.162.941.237l-4.6,9.828Zm-23.695,9.645,6.121-13.077-15.844-3.978L368.678,265.5ZM379,281.029l5.024-10.717L368.28,266.38,363.3,277.24Zm-5.984,12.779,5.572-11.9-15.707-3.776-5.261,11.492Z" transform="translate(-335.788 -120.646)" fill="#759696"/>
      <path id="Trazado_631545" data-name="Trazado 631545" d="M423.454,146.489c-11.772-4.771-24.13-7.349-34.995-3.437-7.673,2.773-12.279,9.635-14.993,17.343-7.525,21.368-9.381,43.494-8.183,65.314.439,8.086,3.371,14.314,8.37,18.895l3.122-6.336.212-.431q4.2.654,8.483,1.43c10.376-19.156,34.086-65.825,44.956-87.3A25.892,25.892,0,0,0,423.454,146.489ZM413.7,158.908l-.076,1L393.664,156.8l1.149-4.746c.338-.089.691-.178,1.053-.241V151.8a20.675,20.675,0,0,1,3.776-.407c.32-.014.654-.028.985-.016a6.282,6.282,0,0,1,.7.014,32.025,32.025,0,0,1,12.71,3Z" transform="translate(-331.694 -141.144)" fill="url(#linear-gradient-29)" style="mix-blend-mode: screen;isolation: isolate"/>
      <path id="Trazado_631546" data-name="Trazado 631546" d="M415.644,237.173l-.521-.2,2.708-7.8-35.431-7.33-3.122,6.336c-4.146.071-9.632,3.161-12.381,6.405-14.623,17.345-22.187,35.822-28.114,56.863a38.33,38.33,0,0,0-1.464,10.46,29.676,29.676,0,0,0,4.04,10.717l8.459-8.167a38.2,38.2,0,0,1-3.752-12.309c.176-.626.362-1.237.562-1.862q1.717-5.737,3.826-11.446,2.365-6.456,5.213-12.889,3.1-7.014,6.7-13.99,2.156-4.19,4.487-8.342,6.978,1.042,14.131,2.469,7.953,1.576,16.127,3.616c2.462.605,4.938,1.252,7.422,1.915l13.852-13.376A17.015,17.015,0,0,0,415.644,237.173Z" transform="translate(-337.319 -124.716)" fill="url(#linear-gradient-30)" style="mix-blend-mode: screen;isolation: isolate"/>
      <path id="Trazado_631547" data-name="Trazado 631547" d="M393.838,231.966a1.757,1.757,0,0,0-.733-.775,4.248,4.248,0,0,0-1.814-.466,8.9,8.9,0,0,0-1.793.088,12.36,12.36,0,0,1,1.745.248,4.041,4.041,0,0,1,1.53.633.939.939,0,0,1,.378,1.16,3.3,3.3,0,0,1-.945,1.2,12.408,12.408,0,0,1-2.884,1.751,21.279,21.279,0,0,1-3.233,1.173,19.9,19.9,0,0,1-2.753.6,18.214,18.214,0,0,0,6.852-3.477,4.658,4.658,0,1,0-8.444,3.64,8.347,8.347,0,0,1-2.336-.183,1.635,1.635,0,0,1-1.113-.732,1.457,1.457,0,0,1,.295-1.324,9.942,9.942,0,0,1,2.538-2.347,8.206,8.206,0,0,0-3.021,1.981,3.082,3.082,0,0,0-.519.847,1.7,1.7,0,0,0-.055,1.116,1.8,1.8,0,0,0,.676.9,3.4,3.4,0,0,0,.906.472,6.871,6.871,0,0,0,1.868.359,13.458,13.458,0,0,0,1.721,0,4.649,4.649,0,0,0,7.377-2.107,11.245,11.245,0,0,0,2.783-1.968,5.429,5.429,0,0,0,.62-.745,2.8,2.8,0,0,0,.438-.929A1.652,1.652,0,0,0,393.838,231.966Z" transform="translate(-329.147 -122.938)" fill="#759696"/>
      <path id="Trazado_631548" data-name="Trazado 631548" d="M391.658,254.352a20.5,20.5,0,0,0,6.085-2.982,4.345,4.345,0,0,0-.3-1.584,4.473,4.473,0,0,0-.908-1.255l-1.665.816.826,1.585-.112.116a8.261,8.261,0,0,1-3.223,1.6l-.207.067-1.425-1.332-1.659.814a3.861,3.861,0,0,0,.985,1.216,6.03,6.03,0,0,0,1.448.881C391.563,254.314,391.616,254.335,391.658,254.352Z" transform="translate(-326.785 -119.283)" fill="#d9e021"/>
      <path id="Trazado_631549" data-name="Trazado 631549" d="M369.82,244.062a24.528,24.528,0,0,0-7.13-.971,4.963,4.963,0,0,0-1.009,1.341,3.605,3.605,0,0,0-.274,1.414l1.951.266.6-1.618.179-.027a9.922,9.922,0,0,1,3.79.5l.214.059.072,1.742,1.943.265a3,3,0,0,0,.183-1.425,4.067,4.067,0,0,0-.444-1.418C369.866,244.14,369.842,244.1,369.82,244.062Z" transform="translate(-332.415 -120.391)" fill="#e88572"/>
      <path id="Trazado_631550" data-name="Trazado 631550" d="M383.812,250.157l-9.3-2.16.179-2.558,10.417,2.116Z" transform="translate(-329.748 -119.913)" fill="#e8a699"/>
      <path id="Trazado_631551" data-name="Trazado 631551" d="M360.631,256.577l-.559-.221,2.006-5.061.56.221Z" transform="translate(-332.687 -118.721)" fill="#759696"/>
      <path id="Trazado_631552" data-name="Trazado 631552" d="M377.52,260.8l-7.641-1.495,1.614-3.369,6.91,1.459.9-1.983-6.7-1.373.12-.59,7.436,1.526-1.407,3.109-6.919-1.461-1.073,2.24,6.877,1.347Z" transform="translate(-330.691 -118.281)" fill="#759696"/>
      <path id="Trazado_631553" data-name="Trazado 631553" d="M392.555,264.748l-8.81-2.277.15-.583,8.321,2.15,2.431-5.353-8.128-1.835.132-.588,8.849,2Z" transform="translate(-327.868 -117.709)" fill="#759696"/>
      <rect id="Rectngulo_306931" data-name="Rectngulo 306931" width="0.601" height="6.324" transform="translate(59.718 142.288) rotate(-75.039)" fill="#759696"/>
      <path id="Trazado_631554" data-name="Trazado 631554" d="M358.924,266.279l-6.581-1.308,1.765-3.314.531.282-1.385,2.6,5.786,1.151Z" transform="translate(-334.26 -116.611)" fill="#759696"/>
      <path id="Trazado_631555" data-name="Trazado 631555" d="M357.25,268.175l-.531-.282,2.54-4.768.531.282Z" transform="translate(-333.37 -116.313)" fill="#759696"/>
      <path id="Trazado_631556" data-name="Trazado 631556" d="M372.192,271.794l-8.082-2.066.148-.583,7.609,1.946.994-2.018-7.9-1.886,1.538-2.717,8,2-.146.583-7.556-1.885-.92,1.624,7.853,1.877Z" transform="translate(-331.865 -116.039)" fill="#759696"/>
      <path id="Trazado_631557" data-name="Trazado 631557" d="M386.664,274.917l-8.969-1.881,2.509-5.06,8.033,2.038-.148.583-7.562-1.917-.879,1.769,7.994,1.829ZM378.58,272.6l7.7,1.616.56-1.509-7.387-1.69.076-.332Z" transform="translate(-329.1 -115.325)" fill="#759696"/>
      <path id="Trazado_631558" data-name="Trazado 631558" d="M350.884,276.14l-.273-.536,4.759-2.43-5.964-1.389.136-.585,7.567,1.761Z" transform="translate(-334.858 -114.669)" fill="#759696"/>
      <path id="Trazado_631559" data-name="Trazado 631559" d="M369.643,281.116l-9.82-2.6,2.174-4.7,10.055,2.292Zm-8.974-3,8.648,2.289,1.866-3.879-8.845-2.012Z" transform="translate(-332.738 -114.136)" fill="#759696"/>
      <path id="Trazado_631560" data-name="Trazado 631560" d="M370.284,278.4l-9.242-2.52.157-.581,9.242,2.52Z" transform="translate(-332.49 -113.834)" fill="#759696"/>
      <path id="Trazado_631561" data-name="Trazado 631561" d="M381.425,284.116l-7.325-1.985.158-.581,6.85,1.856.788-1.577-7.867-1.968,1.07-2.887,8.744,2.3Zm-6.6-4.676,7.345,1.838.8-1.607-7.5-1.976Z" transform="translate(-329.846 -113.493)" fill="#759696"/>
      <path id="Trazado_631562" data-name="Trazado 631562" d="M365.509,292.174l-11.528-3.084,2.127-4.364,11.107,2.778ZM354.842,288.7l10.292,2.754,1.287-3.525-9.986-2.5Z" transform="translate(-333.927 -111.915)" fill="#759696"/>
      <path id="Trazado_631563" data-name="Trazado 631563" d="M354.581,288.632l-.049-.6,11.971-1,.049.6Z" transform="translate(-333.815 -111.445)" fill="#759696"/>
      <path id="Trazado_631564" data-name="Trazado 631564" d="M347.085,284.83l-.517-.308,1.669-2.81.517.308Z" transform="translate(-335.436 -112.529)" fill="#759696"/>
      <path id="Trazado_631565" data-name="Trazado 631565" d="M349.486,286.068l-.524-.3,1.808-3.21.524.3Z" transform="translate(-334.949 -112.356)" fill="#759696"/>
      <rect id="Rectngulo_306932" data-name="Rectngulo 306932" width="0.601" height="7.329" transform="translate(10.719 169.81) rotate(-70.621)" fill="#759696"/>
      <rect id="Rectngulo_306933" data-name="Rectngulo 306933" width="0.602" height="6.503" transform="translate(10.329 171.024) rotate(-69.597)" fill="#759696"/>
      <rect id="Rectngulo_306934" data-name="Rectngulo 306934" width="0.603" height="7.247" transform="matrix(0.58, -0.815, 0.815, 0.58, 37.698, 177.133)" fill="#759696"/>
      <rect id="Rectngulo_306935" data-name="Rectngulo 306935" width="9.578" height="0.603" transform="translate(36.275 179.602) rotate(-9.421)" fill="#759696"/>
      <path id="Trazado_631566" data-name="Trazado 631566" d="M370.969,291.832l-.531-.282,1.575-2.958.531.282Z" transform="translate(-330.577 -111.128)" fill="#759696"/>
    </g>
    <g id="Grupo_956692" data-name="Grupo 956692" transform="translate(688.348 173.587)">
      <path id="Trazado_631567" data-name="Trazado 631567" d="M530,156.245a3.871,3.871,0,0,1,3.7,4.43,4.683,4.683,0,0,1-4.4,4.416,3.866,3.866,0,0,1-3.7-4.416A4.685,4.685,0,0,1,530,156.245Zm2.963,4.581a2.809,2.809,0,0,0-2.679-3.2,3.379,3.379,0,0,0-3.173,3.2,2.806,2.806,0,0,0,2.664,3.2A3.4,3.4,0,0,0,532.96,160.826Z" transform="translate(-431.386 -147.479)" fill="#131f49"/>
      <path id="Trazado_631568" data-name="Trazado 631568" d="M530.024,157.389a2.809,2.809,0,0,1,2.679,3.2,3.4,3.4,0,0,1-3.188,3.2,2.806,2.806,0,0,1-2.664-3.2A3.379,3.379,0,0,1,530.024,157.389Z" transform="translate(-431.13 -147.246)" fill="#22567d"/>
      <path id="Trazado_631569" data-name="Trazado 631569" d="M515.23,297.078l-1.512,4.46-12.947-2.35.688-4.236Z" transform="translate(-436.437 -119.242)" fill="#00ebaa"/>
      <path id="Trazado_631570" data-name="Trazado 631570" d="M468.333,288.887l-1.272,3.757-10.9-1.976.569-3.562Z" transform="translate(-445.517 -120.84)" fill="#00ebaa"/>
      <path id="Trazado_631571" data-name="Trazado 631571" d="M575.88,164.114a6.866,6.866,0,0,1,2.649,6.616L549.8,346.745a6.231,6.231,0,0,1-7.484,5.089l-84.635-18.41-8.981-9.054a4.895,4.895,0,0,0,2.246,1.107L533.1,341.731a4.853,4.853,0,0,0,5.748-4.072l2.379-16.733,21.254-149.418,1.84-12.931a4.8,4.8,0,0,0-1.84-4.5v-.016Zm-10.837,55.962,7.26-45.216-3.188-1.84h-1.721l-6.437,47.056,2.964.749Z" transform="translate(-447.036 -147.924)" fill="#131f49"/>
      <path id="Trazado_631572" data-name="Trazado 631572" d="M553.058,171.653,545.8,216.869l-2.559-.763,6.63-46.294Z" transform="translate(-427.792 -144.717)" fill="#22567d"/>
      <path id="Trazado_631573" data-name="Trazado 631573" d="M550.128,169.813l-6.63,46.294,2.559.763-1.122.748-2.964-.748,6.436-47.057Z" transform="translate(-428.05 -144.717)" fill="#35709c"/>
      <path id="Trazado_631574" data-name="Trazado 631574" d="M558.814,155.109a4.8,4.8,0,0,1,1.84,4.5l-1.84,12.931-92.079-9.789,1.423-9.653a4.846,4.846,0,0,1,5.1-4.132l82.888,5.119A4.7,4.7,0,0,1,558.814,155.109Zm-13.142,7.049a3.871,3.871,0,0,0-3.7-4.43,4.685,4.685,0,0,0-4.4,4.43,3.866,3.866,0,0,0,3.7,4.416A4.683,4.683,0,0,0,545.672,162.158Zm-15.161-2.619.2-.839-33.977-2.619-.838,4.341.9.089,32.733,3.218Z" transform="translate(-443.366 -148.961)" fill="#22567d"/>
      <path id="Trazado_631575" data-name="Trazado 631575" d="M562.406,170.212,541.152,319.63l-92.063-15.057,21.238-144.149Z" transform="translate(-446.958 -146.628)" fill="url(#linear-gradient-31)"/>
      <path id="Trazado_631576" data-name="Trazado 631576" d="M541.513,295.249l-2.379,16.733a4.854,4.854,0,0,1-5.748,4.072L451.231,299.8a4.895,4.895,0,0,1-2.246-1.107l-.029-.03a4.814,4.814,0,0,1-1.587-4.326l2.081-14.144Zm-16.913,9.3,1.512-4.46-13.77-2.125-.689,4.235Zm-27.21-.928,2.9-10.073-20.864-3.248-1.272,9.938Zm-28.528-9.565,1.272-3.756-11.6-1.781-.568,3.563Z" transform="translate(-447.318 -122.247)" fill="#22567d"/>
      <path id="Trazado_631577" data-name="Trazado 631577" d="M525.774,157.5l-.195.838-33.048-2.529-.673,3.5-.9-.09.838-4.341Z" transform="translate(-438.434 -147.757)" fill="#131f49"/>
      <path id="Trazado_631578" data-name="Trazado 631578" d="M525.427,158.178l-.988,4.191-32.733-3.218.674-3.5Z" transform="translate(-438.282 -147.6)" fill="url(#linear-gradient-32)"/>
      <path id="Trazado_631579" data-name="Trazado 631579" d="M495.077,291.834l-2.9,10.073-19.233-3.383,1.272-9.938Zm-3.428,9.219,2.47-8.605-19.263-2.995-1.077,8.457Z" transform="translate(-442.102 -120.538)" fill="#131f49"/>
      <path id="Trazado_631580" data-name="Trazado 631580" d="M493.978,292.3l-2.47,8.606-17.871-3.143,1.078-8.456Z" transform="translate(-441.961 -120.392)" fill="url(#linear-gradient-33)"/>
      <path id="Trazado_631581" data-name="Trazado 631581" d="M477.213,148.972a4.846,4.846,0,0,0-5.1,4.132l-1.423,9.653-21.238,144.15-2.081,14.144a4.814,4.814,0,0,0,1.587,4.326l.029.03a4.894,4.894,0,0,0,2.246,1.107l21.4,4.233,84.782-176.822Zm-8.352,171.793-10.9-1.975.568-3.563,11.6,1.781Zm65.6-161.226-.988,4.191-32.733-3.218-.9-.089.838-4.341,33.977,2.619Zm10.761,7.035a3.866,3.866,0,0,1-3.7-4.416,4.686,4.686,0,0,1,4.4-4.43,3.871,3.871,0,0,1,3.7,4.43A4.683,4.683,0,0,1,545.224,166.574Z" transform="translate(-447.318 -148.961)" fill="url(#linear-gradient-34)" style="mix-blend-mode: screen;isolation: isolate"/>
    </g>
    <g id="Grupo_956695" data-name="Grupo 956695" transform="translate(213.374 122.461)">
      <g id="Grupo_956693" data-name="Grupo 956693">
        <path id="Trazado_631582" data-name="Trazado 631582" d="M184.093,223.1l1.133,2.181h-1.1l-1.158-2.218Z" transform="translate(-144.829 -82.75)" fill="#b0544f"/>
        <path id="Trazado_631583" data-name="Trazado 631583" d="M201.673,223.64l.573,2.169h-1.121l-.646-2.206Z" transform="translate(-141.266 -82.64)" fill="#b0544f"/>
        <path id="Trazado_631584" data-name="Trazado 631584" d="M185.69,214.09l-1.6,10.834v.012l-1.121-.037,1.548-10.833Z" transform="translate(-144.829 -84.582)" fill="#d97973"/>
        <path id="Trazado_631585" data-name="Trazado 631585" d="M203.2,214.535v.012l-1.523,10.943-1.194-.037,1.3-10.943Z" transform="translate(-141.266 -84.491)" fill="#d97973"/>
        <path id="Trazado_631586" data-name="Trazado 631586" d="M198.922,276.692l2.34-15.708-18.047-.975-1.8,15.611Zm2.511-16.914,2.292-15.33-18.658-.475-1.719,14.818Zm22.691-16.026-.207,1.3-.122-.1-18.853-.475-2.29,15.355,18.778,1.023-.243,1.524-.207-.33-18.5-1-2.352,15.708,18.6,1.134.025.012-.232,1.45-.3-.28-18.254-1.108-2.035,13.611H196.7l2.034-13.685-17.475-1.06-1.693,14.7.012.048h-1.243l1.707-14.818-16.939-1.035.183-1.207,16.9,1.024,1.8-15.611-16.245-.877.195-1.206,16.183.877,1.719-14.782-15.636-.4.195-1.206,15.574.39,1.524-13.113,1.218.049-1.51,13.1,18.681.475,1.9-12.747,1.23.049-1.9,12.723Z" transform="translate(-148.873 -81.416)" fill="#d97973"/>
        <path id="Trazado_631587" data-name="Trazado 631587" d="M216.153,243.215l-.207,1.4-2.315-1.95.207-1.3h.122Z" transform="translate(-138.588 -79.025)" fill="#b0544f"/>
        <path id="Trazado_631588" data-name="Trazado 631588" d="M211.85,255.59l1.986,3.144-.268,1.84-2.206-3.473.244-1.523Z" transform="translate(-139.05 -76.131)" fill="#b0544f"/>
        <path id="Trazado_631589" data-name="Trazado 631589" d="M211.851,272.058l-.219,1.462-2.486-2.327.232-1.45Z" transform="translate(-139.501 -73.248)" fill="#b0544f"/>
        <path id="Trazado_631590" data-name="Trazado 631590" d="M177.008,281.1l.792,2.632-1.279-.024-.768-2.547.012-.061Z" transform="translate(-146.299 -70.935)" fill="#b0544f"/>
        <path id="Trazado_631591" data-name="Trazado 631591" d="M192.228,281.2v2.925l-1.206-.037V281.1h1.219Z" transform="translate(-143.191 -70.935)" fill="#b0544f"/>
        <path id="Trazado_631592" data-name="Trazado 631592" d="M178.754,281.164l.768,2.547-16.33-.353-2.181-2.254h17.755Z" transform="translate(-149.3 -70.935)" fill="#d97973"/>
        <path id="Trazado_631593" data-name="Trazado 631593" d="M193.917,281.1v2.986l-16.33-.353L176.8,281.1Z" transform="translate(-146.087 -70.935)" fill="#d97973"/>
        <path id="Trazado_631594" data-name="Trazado 631594" d="M210.705,283.171l1.925-12.223,2.486,2.327-2.023,13.368-21.07-.451v-2.925l.012-.1Z" transform="translate(-142.987 -73.003)" fill="#d97973"/>
        <path id="Trazado_631595" data-name="Trazado 631595" d="M211.775,256.844l2.206,3.473-2.169,14.367-2.474-2.315Z" transform="translate(-139.462 -75.874)" fill="#d97973"/>
        <path id="Trazado_631596" data-name="Trazado 631596" d="M216.367,244.4,213.8,261.408l-1.986-3.144-.244-.012,2.486-15.805Z" transform="translate(-139.009 -78.805)" fill="#d97973"/>
        <path id="Trazado_631597" data-name="Trazado 631597" d="M217.934,233.32l-1.816,11.991-2.194-1.852H213.8l1.95-12.393Z" transform="translate(-138.553 -81.121)" fill="#d97973"/>
        <path id="Trazado_631598" data-name="Trazado 631598" d="M185.555,223.147l1.158,2.218-14.246-.439-2.181-2.255Z" transform="translate(-147.412 -82.83)" fill="#d97973"/>
        <path id="Trazado_631599" data-name="Trazado 631599" d="M203.852,223.706l.646,2.206-20.5-.634h1.036L183.9,223.1Z" transform="translate(-144.64 -82.743)" fill="#d97973"/>
        <path id="Trazado_631600" data-name="Trazado 631600" d="M223.567,217.18l-1.743,11.029-20.668-.634h.95l-.573-2.169,18.109.561,1.73-11.041Z" transform="translate(-141.128 -84.407)" fill="#d97973"/>
        <path id="Trazado_631601" data-name="Trazado 631601" d="M212.629,271.183,210.7,283.406H192.034l2.035-13.612,18.255,1.109Z" transform="translate(-142.985 -73.238)" fill="#fff6db"/>
        <path id="Trazado_631602" data-name="Trazado 631602" d="M195.955,269.912,193.919,283.6H176.8l-.012-.049,1.694-14.7Z" transform="translate(-146.089 -73.429)" fill="#fff6db"/>
        <path id="Trazado_631603" data-name="Trazado 631603" d="M180.472,268.966l-1.706,14.818H161.011l2.522-15.854Z" transform="translate(-149.3 -73.617)" fill="#fff6db"/>
        <path id="Trazado_631604" data-name="Trazado 631604" d="M181.964,254.957l-1.8,15.61-16.9-1.024,2.462-15.464Z" transform="translate(-148.842 -76.436)" fill="#fff6db"/>
        <path id="Trazado_631605" data-name="Trazado 631605" d="M198.166,255.844l-2.34,15.708-17.511-1.072,1.8-15.611Z" transform="translate(-145.777 -76.276)" fill="#fff6db"/>
        <path id="Trazado_631606" data-name="Trazado 631606" d="M214.924,257.068l-2.437,15.525-.024-.012-18.6-1.133,2.352-15.708,18.5,1Z" transform="translate(-142.612 -76.098)" fill="#fff6db"/>
        <path id="Trazado_631607" data-name="Trazado 631607" d="M217.227,242.543l-2.486,15.805-18.779-1.024,2.291-15.354,18.852.475Z" transform="translate(-142.185 -78.902)" fill="#fff6db"/>
        <path id="Trazado_631608" data-name="Trazado 631608" d="M200.3,242.02l-2.291,15.33-18.084-.987,1.718-14.818Z" transform="translate(-145.45 -78.988)" fill="#fff6db"/>
        <path id="Trazado_631609" data-name="Trazado 631609" d="M183.367,241.593l-1.718,14.782-16.183-.877,2.267-14.307Z" transform="translate(-148.393 -79.06)" fill="#fff6db"/>
        <path id="Trazado_631610" data-name="Trazado 631610" d="M184.608,229.727l-1.523,13.112-15.574-.39,2.12-13.368Z" transform="translate(-147.977 -81.525)" fill="#fff6db"/>
        <path id="Trazado_631611" data-name="Trazado 631611" d="M203.287,230.535l-1.231-.049-1.9,12.747-18.681-.475,1.511-13.1Z" transform="translate(-145.134 -81.408)" fill="#fff6db"/>
        <path id="Trazado_631612" data-name="Trazado 631612" d="M218.966,231.2l-1.95,12.393-19-.487,1.9-12.722Z" transform="translate(-141.767 -81.259)" fill="#fff6db"/>
        <path id="Trazado_631613" data-name="Trazado 631613" d="M221.31,215l-1.73,11.041-18.109-.561,1.523-10.943Z" transform="translate(-141.064 -84.485)" fill="#fff6db"/>
        <path id="Trazado_631614" data-name="Trazado 631614" d="M205.156,214.6l-1.3,10.943-19.949-.609v-.012l1.6-10.834Z" transform="translate(-144.64 -84.578)" fill="#fff6db"/>
        <path id="Trazado_631615" data-name="Trazado 631615" d="M187.1,214.131l-1.548,10.833-15.269-.475,1.706-10.748Z" transform="translate(-147.412 -84.648)" fill="#fff6db"/>
        <path id="Trazado_631616" data-name="Trazado 631616" d="M236.842,172.044l-6.7,42.6-52.413-1.633,6.715-42.335Z" transform="translate(-145.897 -93.414)" fill="#8fd94e"/>
        <path id="Trazado_631617" data-name="Trazado 631617" d="M173.407,287.33h26.1l-.329,1.962H175.661L175,293.265l-2.571-.073Z" transform="translate(-146.975 -69.668)" fill="#131f49"/>
        <path id="Trazado_631618" data-name="Trazado 631618" d="M182.325,167.855l55.581,1.45-.524,3.315-52.4-1.365-6.715,42.335-3.193-.1Z" transform="translate(-146.437 -93.989)" fill="#131f49"/>
        <path id="Trazado_631619" data-name="Trazado 631619" d="M191.568,147.481l7.775-34.8s-1.791-2.73-1.17-5.142,8.25-.391,8.018,3.118S203,113.6,203,113.6l-6.629,35.62a5.667,5.667,0,0,0-4.8-1.731Z" transform="translate(-143.08 -106.482)" fill="url(#linear-gradient-35)"/>
        <path id="Trazado_631620" data-name="Trazado 631620" d="M198.979,143.752l-.938,21.656-14.623-.537,8.3-24.129a11.714,11.714,0,0,1,1.51-.183,5.667,5.667,0,0,1,4.8,1.731A6.317,6.317,0,0,1,198.979,143.752Z" transform="translate(-144.739 -99.548)" fill="url(#linear-gradient-36)"/>
        <path id="Trazado_631621" data-name="Trazado 631621" d="M198.746,288.96l-.768,4.631-23.41-.658.658-3.973Z" transform="translate(-146.54 -69.336)" fill="url(#linear-gradient-37)"/>
        <path id="Trazado_631622" data-name="Trazado 631622" d="M244.005,312.453l-79.454-1.864-13.271-13.478,78.2,2.279Z" transform="translate(-151.281 -67.677)" fill="#131f49"/>
        <path id="Trazado_631623" data-name="Trazado 631623" d="M239.894,162.681l12.04,14.94-21.155,162.2-14.526-13.064Z" transform="translate(-138.055 -95.042)" fill="#131f49"/>
        <path id="Trazado_631624" data-name="Trazado 631624" d="M253.121,163.137,229.479,327.21l-78.2-2.278L179.7,160.443l10.262.378,14.623.537Zm-10.895,10.992.524-3.315-55.581-1.45L179.919,215l3.192.1,52.413,1.633,6.715-42.6Zm-8.506,54.142-2.194-2.254-18.316-.463v-.012l-1.413-.036v.012l-19.657-.512-1.17-.037v.012l-15.111-.39-1.707,10.749,2.182,2.254,14.245.438h.061l20.5.634h.171l20.668.633ZM230.661,247.7l-2.181-2.254-19.048-.816-20.3-.877-1.218-.049-14.977-.645-2.121,13.368-.195,1.206-2.266,14.307-.195,1.206L165.7,288.6l-.183,1.207-2.523,15.853,2.181,2.254,16.33.354,1.279.024,16.33.354,1.206.036,21.07.451,2.023-13.368.219-1.462L225.8,279.94l.268-1.84,2.572-17.011.207-1.4Zm-27.175,67.426.33-1.962h-26.1l-.975,5.861,2.571.073,23.411.658Z" transform="translate(-151.281 -95.498)" fill="#22567d"/>
        <path id="Trazado_631625" data-name="Trazado 631625" d="M189.96,160.821l-10.262-.378L151.281,324.932l14.933.434,11.156-17.182-12.2-.265-2.181-2.254,2.523-15.853.183-1.207,2.461-15.465.195-1.206,2.266-14.307.195-1.206,2.121-13.368,14.977.645,1.218.049,20.3.877,8.95.384,3.9-6.007-10.971-.336h-.171l-20.5-.634h-.061l-14.245-.438-2.182-2.254,1.707-10.749,15.111.39v-.012l1.17.037,19.657.512v-.012l1.413.036v.012l17.514.443,17.144-26.407,5.252-36.452-48.537-1.779Zm52.278,13.308-6.715,42.6L183.111,215.1l-3.192-.1,7.25-45.637,55.581,1.45-.524,3.315Z" transform="translate(-151.281 -95.498)" fill="url(#linear-gradient-38)" style="mix-blend-mode: screen;isolation: isolate"/>
        <path id="Trazado_631626" data-name="Trazado 631626" d="M192.595,141.291l-7.614,23.5,5.9.216,3.737-23.714Z" transform="translate(-144.421 -99.396)" fill="url(#linear-gradient-39)" style="mix-blend-mode: screen;isolation: isolate"/>
        <path id="Trazado_631627" data-name="Trazado 631627" d="M192.4,147.326l7.711-35.138s-1.045-2.425-.856-3.655c.311-2.023,2.956-.856,2.956-.856s1.244,1.322.933,2.1-1.4,3.111-1.4,3.111l-7.909,34.684Z" transform="translate(-142.911 -106.307)" fill="url(#linear-gradient-40)" style="mix-blend-mode: screen;isolation: isolate"/>
        <path id="Trazado_631628" data-name="Trazado 631628" d="M185.112,171.731l-5.051,36.092,53.36-26.336,1.4-8.511Z" transform="translate(-145.422 -93.2)" fill="url(#linear-gradient-41)" style="mix-blend-mode: screen;isolation: isolate"/>
        <path id="Trazado_631629" data-name="Trazado 631629" d="M208.7,223.243a19.365,19.365,0,0,0,5.636-4.06,6.064,6.064,0,0,0-.406-1.84,5.181,5.181,0,0,0-.964-1.4l-1.542,1.111.909,1.8-.1.147a7.849,7.849,0,0,1-2.984,2.169l-.194.1-1.467-1.444-1.536,1.106a4.363,4.363,0,0,0,1.035,1.347,5.466,5.466,0,0,0,1.456.911Z" transform="translate(-140.13 -84.2)" fill="#d9e021"/>
        <path id="Trazado_631630" data-name="Trazado 631630" d="M181.5,217.325a19.38,19.38,0,0,0-6.927-.513,6.082,6.082,0,0,0-.873,1.672,5.2,5.2,0,0,0-.162,1.692l1.9.14.459-1.959.171-.049a7.865,7.865,0,0,1,3.679.256l.211.051.2,2.05,1.887.14a4.359,4.359,0,0,0,.073-1.7,5.518,5.518,0,0,0-.53-1.634C181.545,217.413,181.518,217.363,181.5,217.325Z" transform="translate(-146.753 -84.046)" fill="#e88572"/>
        <path id="Trazado_631631" data-name="Trazado 631631" d="M198.809,221.128l-10.21-.347-.357-3.337h11.369Z" transform="translate(-143.757 -83.894)" fill="#e8a699"/>
      </g>
      <g id="Grupo_956694" data-name="Grupo 956694" transform="translate(18.656 151.038)">
        <rect id="Rectngulo_306936" data-name="Rectngulo 306936" width="7.688" height="0.903" transform="translate(9.505 7.658) rotate(-84.921)" fill="#e8a699"/>
        <path id="Trazado_631632" data-name="Trazado 631632" d="M194.244,240.4h-6.328l.538-5.036h4.5l.249-2.185H188.86v-.9h5.36l-.456,3.99h-4.5l-.345,3.231h5.324Z" transform="translate(-162.479 -231.914)" fill="#e8a699"/>
        <path id="Trazado_631633" data-name="Trazado 631633" d="M209.941,240.54H204.1v-.9h5.106l1.063-5.166h-5.186v-.9h6.293Z" transform="translate(-159.185 -231.65)" fill="#e8a699"/>
        <rect id="Rectngulo_306937" data-name="Rectngulo 306937" width="3.649" height="0.903" transform="translate(47.161 4.511)" fill="#e8a699"/>
        <path id="Trazado_631634" data-name="Trazado 631634" d="M176.108,249.583h-5.835l1.658-5.393.863.266-1.3,4.224h4.613Z" transform="translate(-166.071 -229.488)" fill="#e8a699"/>
        <rect id="Rectngulo_306938" data-name="Rectngulo 306938" width="7.007" height="0.902" transform="matrix(0.068, -0.998, 0.998, 0.068, 8.806, 23.006)" fill="#e8a699"/>
        <path id="Trazado_631635" data-name="Trazado 631635" d="M191.213,252.928h-6.139v-.9H190.5l.768-3.217h-5.244l.58-4.389h5.931v.9H187.4l-.341,2.583h5.358Z" transform="translate(-163.058 -229.441)" fill="#e8a699"/>
        <path id="Trazado_631636" data-name="Trazado 631636" d="M208.987,253.08h-6.872l1.06-7.894h5.4v.9h-4.608l-.348,2.594h5.758Zm-5.841-.9h5.014l.23-2.592H203.5Z" transform="translate(-159.589 -229.285)" fill="#e8a699"/>
        <path id="Trazado_631637" data-name="Trazado 631637" d="M174.506,265.543l-.884-.186,1.657-7.909H170.1v-.9h6.293Z" transform="translate(-166.106 -226.973)" fill="#e8a699"/>
        <path id="Trazado_631638" data-name="Trazado 631638" d="M190.494,267.295l-6.156-.54.1-9.078h7.434Zm-5.244-1.366,4.471.392,1.107-7.743h-5.5Z" transform="translate(-163.207 -226.742)" fill="#e8a699"/>
        <rect id="Rectngulo_306939" data-name="Rectngulo 306939" width="0.902" height="5.65" transform="translate(21.7 35.819) rotate(-84.808)" fill="#e8a699"/>
        <path id="Trazado_631639" data-name="Trazado 631639" d="M205.722,268.379l-6.233-.693.1-.9,5.322.591.29-2.992-5.987-.6.641-5.393,6.76.738Zm-5.5-5.4,5.069.508.343-3.555-4.984-.545Z" transform="translate(-160.179 -226.596)" fill="#e8a699"/>
        <path id="Trazado_631640" data-name="Trazado 631640" d="M188.509,280.3l-6.234-.3v-8.021l7.1.408Zm-5.332-1.159,4.528.215.673-6.12-5.2-.3Z" transform="translate(-163.627 -223.831)" fill="#e8a699"/>
        <rect id="Rectngulo_306940" data-name="Rectngulo 306940" width="9.14" height="0.904" transform="translate(18.762 55.429) rotate(-47.64)" fill="#e8a699"/>
        <rect id="Rectngulo_306941" data-name="Rectngulo 306941" width="0.902" height="9.522" transform="translate(36.433 49.652) rotate(-50.537)" fill="#e8a699"/>
        <rect id="Rectngulo_306942" data-name="Rectngulo 306942" width="9.492" height="0.902" transform="translate(36.254 53.691) rotate(-27.03)" fill="#e8a699"/>
        <rect id="Rectngulo_306943" data-name="Rectngulo 306943" width="6.64" height="0.902" transform="translate(40.075 55.239) rotate(-87.607)" fill="#e8a699"/>
        <rect id="Rectngulo_306944" data-name="Rectngulo 306944" width="7.532" height="0.902" transform="matrix(0.151, -0.989, 0.989, 0.151, 1.185, 54.167)" fill="#e8a699"/>
        <rect id="Rectngulo_306945" data-name="Rectngulo 306945" width="6.955" height="0.903" transform="matrix(0.138, -0.99, 0.99, 0.138, 4.596, 54.174)" fill="#e8a699"/>
        <rect id="Rectngulo_306946" data-name="Rectngulo 306946" width="0.904" height="8.712" transform="matrix(0.045, -0.999, 0.999, 0.045, 0.003, 49.358)" fill="#e8a699"/>
        <rect id="Rectngulo_306947" data-name="Rectngulo 306947" width="0.901" height="8.109" transform="translate(0 52.074) rotate(-87.068)" fill="#e8a699"/>
      </g>
    </g>
    <g id="Grupo_956699" data-name="Grupo 956699" transform="translate(-0.066 27.988)">
      <g id="Grupo_956697" data-name="Grupo 956697">
        <path id="Trazado_631641" data-name="Trazado 631641" d="M120.366,184.732l-2.436,14.74L74.973,196.98,77.9,181.939Z" transform="translate(-22.395 3.351)" fill="#8fd94e"/>
        <path id="Trazado_631642" data-name="Trazado 631642" d="M71.619,265.595l1.218,2.738H71.664l-1.185-2.794,1.14.045Z" transform="translate(-23.31 20.369)" fill="#b0544f"/>
        <path id="Trazado_631643" data-name="Trazado 631643" d="M84.522,266.158l1.162,3.062-.883-.056-1.129-3.039Z" transform="translate(-20.624 20.488)" fill="#b0544f"/>
        <path id="Trazado_631644" data-name="Trazado 631644" d="M101.795,254.181l-.145.916L98.3,252.873l.156-.872h.067Z" transform="translate(-17.647 17.613)" fill="#b0544f"/>
        <path id="Trazado_631645" data-name="Trazado 631645" d="M104,240.6l-.145.916-3.174-2.168.156-.872.067.011Z" transform="translate(-17.162 14.859)" fill="#b0544f"/>
        <path id="Trazado_631646" data-name="Trazado 631646" d="M106.412,225.836l-.156.927-2.973-2.19.156-.872.078.011Z" transform="translate(-16.632 11.852)" fill="#b0544f"/>
        <path id="Trazado_631647" data-name="Trazado 631647" d="M112.259,227.308l-.156.871-.067-.045-14.292-1.051L95,243.847l14.125,1.241-.156.871-.067-.045-14.047-1.229-2.57,15.756,13.969.928-.156.871-.057-.045-13.89-.928L89.35,278.4l-.85-.034,2.772-17.153-14.416-.95-3.094,17.443-1.141-.045,3.085-17.477-15.745-1.04.156-.838,15.734,1.051L78.7,243.265l-15.388-1.341v-.011l.167-.827,15.366,1.352L81.761,225.9l-15.108-1.106.156-.828,15.1,1.107,3.375-19.087,1.14.1-3.364,19.075,13.892,1.017,3.062-18.931.96.078-3.1,18.931ZM94.1,243.768l2.715-16.751-13.9-1.028-2.928,16.55Zm-2.694,16.618,2.559-15.779-14.125-1.241L77,259.424Z" transform="translate(-25.451 8.246)" fill="#d97973"/>
        <path id="Trazado_631648" data-name="Trazado 631648" d="M109.4,210.766,106.385,229l-2.894-2.123-.078-.011,3.3-18.729Z" transform="translate(-16.606 8.685)" fill="#d97973"/>
        <path id="Trazado_631649" data-name="Trazado 631649" d="M106.915,225.689l-3.084,18.684.145-.916-3.1-2.112-.067-.011,2.973-16.908,2.973,2.19Z" transform="translate(-17.135 12)" fill="#d97973"/>
        <path id="Trazado_631650" data-name="Trazado 631650" d="M104.316,241.366l-2.548,15.421-3.274-2.179h-.067l2.715-15.41Z" transform="translate(-17.621 15.007)" fill="#d97973"/>
        <path id="Trazado_631651" data-name="Trazado 631651" d="M104.482,254.95l-2.973,17.958-15.969-.961-1.162-3.062,13.8.615,2.95-16.774Z" transform="translate(-20.48 17.761)" fill="#d97973"/>
        <path id="Trazado_631652" data-name="Trazado 631652" d="M86.166,266.234l1.129,3.039-15.8-.95h1.151l-1.218-2.738Z" transform="translate(-23.117 20.378)" fill="#d97973"/>
        <path id="Trazado_631653" data-name="Trazado 631653" d="M73.209,265.66l1.185,2.794-14.639-.883-2.682-2.626Z" transform="translate(-26.039 20.248)" fill="#d97973"/>
        <path id="Trazado_631654" data-name="Trazado 631654" d="M76.293,260.4l-3.085,17.477-16.136-.715,3.464-17.8h.012Zm1.151.078L74.349,277.92v.011l14.739.649,2.772-17.153Zm15.3,1-2.8,17.132,13.8.615,2.95-16.774-.057-.045Zm16.751-15.354L95.447,244.9l-2.57,15.756,13.969.928,2.715-15.41ZM80.427,243.58l-2.838,16.058,14.4.962,2.559-15.779ZM63.9,242.138l-3.2,16.383,15.734,1.051,2.849-16.093Zm3.341-17.13L64.067,241.3l15.366,1.352,2.916-16.538Zm16.26,1.2-2.928,16.55,14.114,1.229L97.4,227.231Zm29.121,2.146L98.33,227.3,95.592,244.06l14.125,1.241,2.973-16.908ZM101.559,207.54l-3.1,18.931,14.383,1.051,3.3-18.73ZM87.01,206.3l-3.364,19.075,13.892,1.017,3.062-18.931Zm-15.857-1.364L67.4,224.18l15.1,1.107L85.87,206.2Z" transform="translate(-26.039 8.032)" fill="#fff6db"/>
        <path id="Trazado_631655" data-name="Trazado 631655" d="M162.444,28.613c3.62-2.28,9,2.235,8.426,4.7s-4.045,3.665-4.045,3.665L152.232,112.86a5.882,5.882,0,0,0-5.487-1.5l15.7-75.9S158.835,30.892,162.444,28.613Z" transform="translate(-7.785 -27.988)" fill="url(#linear-gradient-42)"/>
        <path id="Trazado_631656" data-name="Trazado 631656" d="M155.016,101.153l-6.76,51.639-10.907-21.747,9.588-33.033a4.971,4.971,0,0,1,1.721-.726,5.882,5.882,0,0,1,5.487,1.5A3.52,3.52,0,0,1,155.016,101.153Z" transform="translate(-9.698 -13.911)" fill="url(#linear-gradient-43)"/>
        <path id="Trazado_631657" data-name="Trazado 631657" d="M158.441,150.121l5.14,10.27L127.073,374.881l-39.76-36.687v-4.28l20.45-17.165,21.489-126.88-2.47-7.789L138.46,110.26l9.074,18.115Z" transform="translate(-19.883 -11.241)" fill="#b0544f"/>
        <path id="Trazado_631658" data-name="Trazado 631658" d="M142.257,110.757l-11.677,71.82-61.92-5.14,6.28-69.619ZM129.4,129.486a7.879,7.879,0,0,0-6.627-8.392,152.59,152.59,0,0,0-31.379-1.531,7.838,7.838,0,0,0-7.13,5.878A136.245,136.245,0,0,0,80.024,161.7a7.872,7.872,0,0,0,6.65,7.61,184.327,184.327,0,0,0,28.641,2.011,7.889,7.889,0,0,0,7.566-5.687A171.137,171.137,0,0,0,129.4,129.486Z" transform="translate(-23.68 -11.738)" fill="url(#linear-gradient-44)"/>
        <path id="Trazado_631659" data-name="Trazado 631659" d="M130.58,170.8l2.47,7.789L72.66,174.032l-4-8.37Z" transform="translate(-23.68 0.037)" fill="#d97973"/>
        <path id="Trazado_631660" data-name="Trazado 631660" d="M136.635,177.176l-21.49,126.88-25.713-1.643-38.387-2.448,25.2-127.348Zm-11.4,9.454.325-1.979-44.187-2.905-3.318,17.03,1.787.1,42.956,2.491Zm-8.19,49.6L120.062,218l-2.692-2.626-14.584-1.252-.96-.078L88.236,212.88l-1.14-.1-14.717-1.263-3.755,19.243-.156.828L65.294,247.88h-.011l-.156.827v.011l-3.2,16.383-.168.838L58.3,283.74l2.683,2.626,14.639.882h.022l15.8.95.882.057,15.969.96,2.973-17.957.146-.917,2.548-15.421Z" transform="translate(-27.266 1.453)" fill="url(#linear-gradient-45)"/>
        <path id="Trazado_631661" data-name="Trazado 631661" d="M138.4,337.191l-62.211-6.973-44.51-34.81,66.96,5.1Z" transform="translate(-31.209 26.449)" fill="#d97973"/>
        <path id="Trazado_631662" data-name="Trazado 631662" d="M120.85,119.147a7.879,7.879,0,0,1,6.627,8.392,171.137,171.137,0,0,1-6.515,36.152,7.889,7.889,0,0,1-7.566,5.687,184.327,184.327,0,0,1-28.641-2.011,7.872,7.872,0,0,1-6.65-7.61,136.245,136.245,0,0,1,4.235-36.262,7.838,7.838,0,0,1,7.13-5.878A152.59,152.59,0,0,1,120.85,119.147ZM115.217,132.9a5.98,5.98,0,0,0,.1-1.71,3.421,3.421,0,0,0-.067-.48,2.826,2.826,0,0,0-1.956-2.481c-1.542-.325-3.162,1.252-3.631,3.519a4.526,4.526,0,0,0,.916,4.135.9.9,0,0,0,.167.134.972.972,0,0,0,.19.135.3.3,0,0,0,.112.066.73.73,0,0,0,.212.1,1.618,1.618,0,0,0,.325.1C113.117,136.748,114.748,135.172,115.217,132.9Zm-4.906,23.009a4.912,4.912,0,0,0,.1-1.318,1.45,1.45,0,0,0-.034-.313,2.476,2.476,0,0,0-1.677-2.3c-1.3-.268-2.66,1.062-3.051,2.961-.345,1.7.19,3.286,1.23,3.789a1.964,1.964,0,0,0,.391.134C108.557,159.13,109.92,157.812,110.311,155.912Zm-5.487-12.628a6.152,6.152,0,0,0,.1-1.732,3.1,3.1,0,0,0-.067-.469,2.827,2.827,0,0,0-1.956-2.47c-1.542-.324-3.162,1.252-3.631,3.52a4.5,4.5,0,0,0,.916,4.123v.011h.011a.86.86,0,0,0,.156.135,1.058,1.058,0,0,0,.19.134,1.724,1.724,0,0,0,.649.268C102.724,147.117,104.355,145.542,104.824,143.284Zm-7.2-11.655a5.5,5.5,0,0,0,.1-1.7,3.374,3.374,0,0,0-.066-.491,2.843,2.843,0,0,0-1.956-2.482c-1.531-.313-3.163,1.263-3.632,3.52A4.484,4.484,0,0,0,93,134.612a1.752,1.752,0,0,0,.469.336.908.908,0,0,0,.212.1,1.544,1.544,0,0,0,.325.1C95.539,135.473,97.159,133.9,97.628,131.629ZM95.1,153.543c.134-1.654-.56-3.062-1.71-3.3-1.285-.268-2.649,1.062-3.04,2.961a3.673,3.673,0,0,0,.883,3.565,1.847,1.847,0,0,0,.726.357c1.3.268,2.66-1.051,3.051-2.95a4.5,4.5,0,0,0,.078-.525C95.091,153.611,95.1,153.577,95.1,153.543Z" transform="translate(-21.761 -9.791)" fill="url(#linear-gradient-46)"/>
        <path id="Trazado_631663" data-name="Trazado 631663" d="M120.992,183.108l-.324,1.978L78.2,182.292l-2.928,15.041-1.788-.1,3.319-17.03Z" transform="translate(-22.698 2.997)" fill="#d97973"/>
        <path id="Trazado_631664" data-name="Trazado 631664" d="M109.837,129.038a5.98,5.98,0,0,1-.1,1.71c-.469,2.269-2.1,3.844-3.631,3.52a1.617,1.617,0,0,1-.325-.1.915.915,0,0,1-.212-.1.3.3,0,0,1-.112-.066.731.731,0,0,1-.19-.135.9.9,0,0,1-.167-.134,5.866,5.866,0,0,1,.034-2.2c.469-2.258,2.089-3.833,3.631-3.52a2.032,2.032,0,0,1,1.006.548A3.421,3.421,0,0,1,109.837,129.038Z" transform="translate(-16.281 -7.635)" fill="#b0544f"/>
        <path id="Trazado_631665" data-name="Trazado 631665" d="M109.932,128.885a2.032,2.032,0,0,0-1.006-.548c-1.542-.313-3.162,1.263-3.631,3.52a5.866,5.866,0,0,0-.034,2.2,4.526,4.526,0,0,1-.916-4.135c.469-2.268,2.089-3.844,3.631-3.519A2.826,2.826,0,0,1,109.932,128.885Z" transform="translate(-16.443 -7.963)" fill="#d97973"/>
        <path id="Trazado_631666" data-name="Trazado 631666" d="M105.607,148.421a4.912,4.912,0,0,1-.1,1.318c-.391,1.9-1.755,3.218-3.039,2.95a1.965,1.965,0,0,1-.391-.134,3.151,3.151,0,0,1-.336-.235,4.666,4.666,0,0,1,.057-1.62c.391-1.9,1.754-3.218,3.05-2.962a1.87,1.87,0,0,1,.727.369Z" transform="translate(-16.956 -3.618)" fill="#b0544f"/>
        <path id="Trazado_631667" data-name="Trazado 631667" d="M105.734,148.435a1.87,1.87,0,0,0-.727-.369c-1.3-.256-2.659,1.062-3.05,2.962a4.666,4.666,0,0,0-.057,1.62,3.15,3.15,0,0,0,.336.235c-1.04-.5-1.575-2.089-1.23-3.789.391-1.9,1.755-3.229,3.051-2.961A2.476,2.476,0,0,1,105.734,148.435Z" transform="translate(-17.117 -3.945)" fill="#d97973"/>
        <path id="Trazado_631668" data-name="Trazado 631668" d="M101.2,137.641a6.152,6.152,0,0,1-.1,1.732c-.469,2.258-2.1,3.833-3.631,3.52a1.724,1.724,0,0,1-.649-.268,1.254,1.254,0,0,1-.19-.134.86.86,0,0,1-.156-.135.011.011,0,0,1-.011-.011,5.807,5.807,0,0,1,.034-2.191c.469-2.257,2.089-3.832,3.632-3.519a2.1,2.1,0,0,1,1,.536C101.158,137.328,101.179,137.484,101.2,137.641Z" transform="translate(-18.038 -5.879)" fill="#b0544f"/>
        <path id="Trazado_631669" data-name="Trazado 631669" d="M101.3,137.5a2.1,2.1,0,0,0-1-.536c-1.543-.313-3.163,1.263-3.632,3.519a5.807,5.807,0,0,0-.034,2.191,4.5,4.5,0,0,1-.916-4.123c.469-2.269,2.089-3.844,3.631-3.52A2.827,2.827,0,0,1,101.3,137.5Z" transform="translate(-18.2 -6.207)" fill="#d97973"/>
        <path id="Trazado_631670" data-name="Trazado 631670" d="M95.222,127.991a5.5,5.5,0,0,1-.1,1.7c-.469,2.269-2.089,3.844-3.62,3.52a1.545,1.545,0,0,1-.325-.1.728.728,0,0,1-.212-.1,1.752,1.752,0,0,1-.469-.336,5.638,5.638,0,0,1,.023-2.2c.469-2.257,2.1-3.832,3.631-3.52a2.128,2.128,0,0,1,1.006.549A3.373,3.373,0,0,1,95.222,127.991Z" transform="translate(-19.255 -7.851)" fill="#b0544f"/>
        <path id="Trazado_631671" data-name="Trazado 631671" d="M95.318,127.826a2.128,2.128,0,0,0-1.006-.549c-1.531-.312-3.162,1.264-3.631,3.52a5.638,5.638,0,0,0-.023,2.2,4.484,4.484,0,0,1-.928-4.134c.469-2.258,2.1-3.833,3.632-3.52A2.843,2.843,0,0,1,95.318,127.826Z" transform="translate(-19.418 -8.178)" fill="#d97973"/>
        <path id="Trazado_631672" data-name="Trazado 631672" d="M91.337,144.694c1.151.235,1.844,1.643,1.71,3.3a4.908,4.908,0,0,0-.034-.994,1.714,1.714,0,0,0-.727-.359c-1.285-.267-2.648,1.051-3.039,2.951a4.763,4.763,0,0,0-.067,1.631,3.673,3.673,0,0,1-.883-3.565C88.688,145.755,90.051,144.425,91.337,144.694Z" transform="translate(-19.705 -4.238)" fill="#d97973"/>
        <path id="Trazado_631673" data-name="Trazado 631673" d="M92.852,146.667a4.908,4.908,0,0,1,.034.994c0,.034-.012.067-.012.112a4.5,4.5,0,0,1-.078.525c-.391,1.9-1.754,3.218-3.051,2.95a1.847,1.847,0,0,1-.726-.357,4.762,4.762,0,0,1,.067-1.631c.391-1.9,1.754-3.218,3.039-2.951A1.713,1.713,0,0,1,92.852,146.667Z" transform="translate(-19.544 -3.909)" fill="#b0544f"/>
        <path id="Trazado_631674" data-name="Trazado 631674" d="M98.718,296.931v4.28l-66.96-5.1-.469-4.179,47.907,3.553Z" transform="translate(-31.288 25.743)" fill="url(#linear-gradient-47)"/>
        <path id="Trazado_631675" data-name="Trazado 631675" d="M93.455,280.874l-38.387-2.448-23.78,16.26,47.907,3.553,19.523,1.442,20.45-17.164ZM56.711,293.646l-2.95-.235,13.376-11.734,5.553.347-2.178,1.911L59.2,293.847Zm10.091.827-2.95-.246,13.589-11.9,5.553.347-2.178,1.91L69.305,294.675Zm24.317-9.241L79.4,295.5l-2.491-.2-2.95-.247,13.789-12.08,5.554.347Z" transform="translate(-31.288 22.992)" fill="url(#linear-gradient-48)"/>
        <path id="Trazado_631676" data-name="Trazado 631676" d="M86.081,282.552,83.9,284.463l-2.548-.156L69.688,294.531l-2.95-.246,13.79-12.08Z" transform="translate(-24.072 23.762)" fill="#d97973"/>
        <path id="Trazado_631677" data-name="Trazado 631677" d="M83.4,284.107l-11.723,10.27-2.492-.2,11.667-10.225Z" transform="translate(-23.573 24.117)" fill="#b0544f"/>
        <path id="Trazado_631678" data-name="Trazado 631678" d="M77.487,282.013l-2.179,1.911-2.548-.156L61.294,293.814l-2.95-.246,13.589-11.9Z" transform="translate(-25.78 23.652)" fill="#d97973"/>
        <path id="Trazado_631679" data-name="Trazado 631679" d="M74.809,283.569,63.3,293.66l-2.5-.2,11.466-10.046Z" transform="translate(-25.281 24.007)" fill="#b0544f"/>
        <path id="Trazado_631680" data-name="Trazado 631680" d="M68.89,281.475l-2.179,1.911-2.537-.156L52.91,293.1l-2.95-.235,13.376-11.734Z" transform="translate(-27.487 23.542)" fill="#d97973"/>
        <path id="Trazado_631681" data-name="Trazado 631681" d="M66.212,283.03,54.9,292.942l-2.492-.2,11.264-9.867Z" transform="translate(-26.988 23.898)" fill="#b0544f"/>
        <g id="Grupo_956696" data-name="Grupo 956696" transform="translate(94.104 314.951)">
          <path id="Trazado_631682" data-name="Trazado 631682" d="M121.589,295.468l-1.193-1.045-5.623,30.456,1.616,1.566Z" transform="translate(-108.397 -288.702)" fill="#823e3a"/>
          <path id="Trazado_631683" data-name="Trazado 631683" d="M112.337,322.478l1.784,1.729,5.162-30.751-1.367-1.2Z" transform="translate(-108.893 -289.142)" fill="#823e3a"/>
          <path id="Trazado_631684" data-name="Trazado 631684" d="M116.892,291.38l-1.954-1.71-5.463,30,1.426,1.382Z" transform="translate(-109.475 -289.67)" fill="#823e3a"/>
          <path id="Trazado_631685" data-name="Trazado 631685" d="M122.733,296.464l-5.664,30.679,1.606,1.556,5.518-30.957Z" transform="translate(-107.93 -288.287)" fill="#823e3a"/>
        </g>
        <path id="Trazado_631686" data-name="Trazado 631686" d="M129.232,131.481l12.906-19.99.119-.734L74.94,107.818l-6.28,69.619,29.33,2.435,5.707-8.839a163.032,163.032,0,0,1-17.023-1.72,7.872,7.872,0,0,1-6.65-7.61,136.245,136.245,0,0,1,4.235-36.262,7.838,7.838,0,0,1,7.13-5.878,152.59,152.59,0,0,1,31.379,1.531,7.879,7.879,0,0,1,6.627,8.392C129.35,130.15,129.285,130.816,129.232,131.481Z" transform="translate(-23.68 -11.738)" fill="url(#linear-gradient-49)" style="mix-blend-mode: screen;isolation: isolate"/>
        <path id="Trazado_631687" data-name="Trazado 631687" d="M76.246,172.617l-25.2,127.348,13.647.87,9.075-13.7-12.787-.77L58.3,283.74l3.464-17.8.168-.838,3.2-16.383v-.011l.156-.827h.011l3.174-16.293.156-.828,3.755-19.243L87.1,212.779l1.14.1,13.589,1.161.96.078,14.584,1.252,2.393,2.335,13.445-20.3,3.428-20.234ZM122.8,201.369l-42.956-2.491-1.787-.1,3.318-17.03,44.187,2.905-.325,1.979Z" transform="translate(-27.266 1.453)" fill="url(#linear-gradient-50)" style="mix-blend-mode: screen;isolation: isolate"/>
        <path id="Trazado_631688" data-name="Trazado 631688" d="M55.068,278.426l-23.78,16.26,17.973,1.332,15.033-2.177,13.148-11.515,5.553.347-2.178,1.91L71.438,292.8l6.091-.882,10.215-8.949,5.554.347-2.18,1.911-6.457,5.657,29.65-4.3,4.856-4.075-25.713-1.643Zm15.444,5.51L59.2,293.847l-2.493-.2-2.95-.235,13.376-11.734,5.553.347Z" transform="translate(-31.288 22.992)" fill="url(#linear-gradient-51)" style="mix-blend-mode: screen;isolation: isolate"/>
        <path id="Trazado_631689" data-name="Trazado 631689" d="M145.963,150.244l7.1-51.594-1.053-.855-9.344,45.875Z" transform="translate(-8.615 -13.778)" fill="#d97973"/>
        <path id="Trazado_631690" data-name="Trazado 631690" d="M147.587,98.257l-9.711,33.92,3.629,7.235,8.46-41.617Z" transform="translate(-9.59 -13.778)" fill="url(#linear-gradient-52)" style="mix-blend-mode: screen;isolation: isolate"/>
        <path id="Trazado_631691" data-name="Trazado 631691" d="M147.92,108.651l14.955-73.392s-1.9-3.518-1.046-4.945,4.09-1.331,4.09-1.331a6.028,6.028,0,0,1,0,3.424,24.878,24.878,0,0,1-1.713,3.708l-14,73.06Z" transform="translate(-7.546 -27.786)" fill="url(#linear-gradient-53)" style="mix-blend-mode: screen;isolation: isolate"/>
      </g>
      <path id="Trazado_631692" data-name="Trazado 631692" d="M77.985,182.73,76.6,191.072l40.951.4,1.522-6.083Z" transform="translate(-22.064 3.512)" fill="url(#linear-gradient-54)" style="mix-blend-mode: screen;isolation: isolate"/>
      <g id="Grupo_956698" data-name="Grupo 956698" transform="translate(37.647 218.489)">
        <rect id="Rectngulo_306948" data-name="Rectngulo 306948" width="8.771" height="0.902" transform="translate(12.364 8.718) rotate(-83.72)" fill="#e8a699"/>
        <path id="Trazado_631693" data-name="Trazado 631693" d="M88.84,220.22l-5.277-.246.692-5.6,3.7.17.338-2.615-3.5-.161.041-.9,4.482.208-.57,4.411-3.7-.17-.47,3.8,4.3.2Z" transform="translate(-58.293 -209.25)" fill="#e8a699"/>
        <path id="Trazado_631694" data-name="Trazado 631694" d="M101.491,220.457l-5.435-.252.042-.9,4.657.216,1.334-6.822-4.768-.22.041-.9,5.814.269Z" transform="translate(-55.75 -209.105)" fill="#e8a699"/>
        <rect id="Rectngulo_306949" data-name="Rectngulo 306949" width="0.904" height="3.368" transform="translate(42.582 6.743) rotate(-87.34)" fill="#e8a699"/>
        <path id="Trazado_631695" data-name="Trazado 631695" d="M72.857,230.7,68,230.474l1.617-5.978.871.235-1.323,4.892,3.734.172Z" transform="translate(-61.461 -206.475)" fill="#e8a699"/>
        <path id="Trazado_631696" data-name="Trazado 631696" d="M71.9,233.864l-.9-.085.758-7.965.9.085Z" transform="translate(-60.851 -206.207)" fill="#e8a699"/>
        <path id="Trazado_631697" data-name="Trazado 631697" d="M85.205,235.095l-5.135-.237.041-.9,4.375.2.829-3.773-4.319-.2.69-4.86,4.962.229-.041.9-4.143-.191-.435,3.064,4.4.2Z" transform="translate(-59.004 -206.307)" fill="#e8a699"/>
        <path id="Trazado_631698" data-name="Trazado 631698" d="M99.128,235.944l-5.806-.267,1.27-8.846,4.524.209-.042.9-3.706-.172-.441,3.076,4.738.219Zm-4.772-1.123,3.968.183.339-3.08-3.865-.179Z" transform="translate(-56.307 -206)" fill="#e8a699"/>
        <path id="Trazado_631699" data-name="Trazado 631699" d="M68.913,248.984l-.885-.176,1.8-9.071-4.194-.193.041-.9,5.242.242Z" transform="translate(-61.943 -203.596)" fill="#e8a699"/>
        <path id="Trazado_631700" data-name="Trazado 631700" d="M83.384,250.627l-5.2-.877.551-10.228,6.266.289Zm-4.252-1.634,3.5.591,1.336-8.917-4.371-.2Z" transform="translate(-59.387 -203.416)" fill="#e8a699"/>
        <rect id="Rectngulo_306950" data-name="Rectngulo 306950" width="0.902" height="4.668" transform="translate(19.545 41.575) rotate(-80.171)" fill="#e8a699"/>
        <path id="Trazado_631701" data-name="Trazado 631701" d="M96.6,251.161l-5.2-1.051.178-.883,4.237.856.408-3.511-4.947-.486.771-5.826,5.765.449Zm-4.3-5.882,4.032.4.481-4.14-3.977-.311Z" transform="translate(-56.723 -203.266)" fill="#e8a699"/>
        <path id="Trazado_631702" data-name="Trazado 631702" d="M81.334,263.47l-5.273-.6.416-9.03,5.973.756ZM77,262.072l3.549.4.892-7.093-4.108-.52Z" transform="translate(-59.82 -200.501)" fill="#e8a699"/>
        <rect id="Rectngulo_306951" data-name="Rectngulo 306951" width="9.236" height="0.902" transform="translate(16.346 61.707) rotate(-54.118)" fill="#e8a699"/>
        <rect id="Rectngulo_306952" data-name="Rectngulo 306952" width="0.903" height="9.191" transform="translate(31.479 55.498) rotate(-38.531)" fill="#e8a699"/>
        <rect id="Rectngulo_306953" data-name="Rectngulo 306953" width="8.529" height="0.902" transform="translate(31.121 60.293) rotate(-32.657)" fill="#e8a699"/>
        <path id="Trazado_631703" data-name="Trazado 631703" d="M91.879,262.488l-.9-.068.582-7.565.9.068Z" transform="translate(-56.784 -200.295)" fill="#e8a699"/>
        <path id="Trazado_631704" data-name="Trazado 631704" d="M64.119,262.17l-.892-.139,1.323-8.459.892.139Z" transform="translate(-62.433 -200.556)" fill="#e8a699"/>
        <rect id="Rectngulo_306954" data-name="Rectngulo 306954" width="7.914" height="0.903" transform="translate(3.595 61.608) rotate(-81.615)" fill="#e8a699"/>
        <rect id="Rectngulo_306955" data-name="Rectngulo 306955" width="0.903" height="7.178" transform="translate(0.147 55.846) rotate(-83.739)" fill="#e8a699"/>
        <rect id="Rectngulo_306956" data-name="Rectngulo 306956" width="0.902" height="6.684" transform="translate(0 58.948) rotate(-83.274)" fill="#e8a699"/>
      </g>
    </g>
  </g>
</svg>
