<svg xmlns="http://www.w3.org/2000/svg" width="95.717" height="95.717" viewBox="0 0 95.717 95.717">
  <g id="Grupo_956613" data-name="Grupo 956613" transform="translate(0)">
    <ellipse id="Elipse_7652" data-name="Elipse 7652" cx="47.858" cy="47.859" rx="47.858" ry="47.859" transform="translate(0 0.001)" fill="#ef8b53"/>
    <g id="Grupo_962207" data-name="Grupo 962207" transform="translate(4.496 0)">
      <path id="Trazado_633665" data-name="Trazado 633665" d="M764.392,492.746l-33.663,6.7-31.431-6.7V447.738h65.095Z" transform="translate(-687.825 -414.135)" fill="#f7f8f9"/>
      <path id="Trazado_633666" data-name="Trazado 633666" d="M745.108,463.334c-1.125-.337-1.393-.693-1.394-1.947-.005-5.233-.026-10.466.021-15.7.008-.882-.257-1.059-1.081-1.047-3.331.047-6.664.024-10,.016-.989,0-1.584-.47-1.671-1.264a1.372,1.372,0,0,1,1.4-1.53c3.83-.023,7.662-.043,11.492.015a2.744,2.744,0,0,1,2.622,2.777c.038.619.218.767.808.752,1.587-.04,3.176-.022,4.765-.012a3.132,3.132,0,0,1,3.313,3.26q.014,24.483-.013,48.965a8.527,8.527,0,0,1-8.6,8.526q-34.757.034-69.513,0a8.517,8.517,0,0,1-8.559-8.464q-.069-24.53-.016-49.059a3.114,3.114,0,0,1,3.251-3.225c1.682-.015,3.364-.023,5.045.008.531.01.733-.078.772-.687a2.854,2.854,0,0,1,3.122-2.866q5.326-.014,10.651,0c1.084,0,1.739.534,1.752,1.388s-.641,1.41-1.715,1.421c-1.525.016-3.05.022-4.575.033-1.805-.011-3.612.027-5.414-.055-.87-.04-1.062.23-1.06,1.071q.04,20.647.019,41.295a3.941,3.941,0,0,1,0,.467c-.053.444.122.6.576.589,1.96-.033,3.921-.035,5.881-.048,1.18.012,2.359.021,3.538.037,1.141.015,1.525.334,1.782,1.466a1.531,1.531,0,0,1-1.787,1.35c-1.176-.031-2.354.015-3.531.027-1.96-.012-3.921-.006-5.88-.049-.568-.012-.58.282-.576.694.011,1.339,0,2.678,0,4.017,0,1.317.131,1.447,1.432,1.447h26.806c2.1,0,2.119-.034,1.179-1.94-.025-.051-.084-.085-.127-.128a6.8,6.8,0,0,0-5.23-3.908,45.211,45.211,0,0,0-7.268-.152c-1.02-.007-1.674-.338-1.918-1.35.36-1.212.685-1.47,1.9-1.473,1.931-.005,3.861-.009,5.791,0a10.384,10.384,0,0,1,7.481,3.1c.271-.263.129-.589.13-.872q.016-8.174.008-16.349c0-.218-.007-.436,0-.654a1.4,1.4,0,0,1,1.4-1.53,1.376,1.376,0,0,1,1.4,1.52c.017,2.3.006,4.609.006,6.913v11.078a10.858,10.858,0,0,1,5.117-2.906,11.969,11.969,0,0,1,2.681-.3c7.161,0,14.323-.009,21.484.018.719,0,.924-.166.92-.907-.032-6.259-.02-12.519-.016-18.778,0-1.336.211-1.618,1.387-1.956,1.153.309,1.426.629,1.426,1.832q.01,13.829,0,27.659a3.588,3.588,0,0,1-3.908,3.891q-30.5,0-61.008,0a4.735,4.735,0,0,1-1.11-.1c-1.833-.446-2.779-1.847-2.779-4.092q0-22.613,0-45.226c0-2.278,0-2.278-2.326-2.15-.934-.011-1.872.036-2.8-.049s-1.129.279-1.127,1.153q.036,23.74.018,47.479c0,4.185,2.35,6.538,6.532,6.538h68.032c4.188,0,6.533-2.347,6.533-6.538q0-23.693,0-47.386a4.618,4.618,0,0,1,0-.467c.056-.551-.149-.8-.738-.772-.994.043-1.992.031-2.988.042a9.759,9.759,0,0,1-1.3-.042c-.892-.144-1.05.254-1.042,1.066.039,4.01.02,8.02.016,12.031C746.529,462.636,746.329,462.913,745.108,463.334Zm-30.685,31.6a2.347,2.347,0,0,0-.485.987c-.388,1.077-.376,1.081.79,1.081h15.306c4.169,0,8.338-.013,12.506.011.84,0,1.222-.323,1.174-1.154-.018-.307-.041-.615-.062-.922.02-1.181.025-2.362.067-3.542.017-.491-.231-.545-.631-.544-7.441.011-14.884-.051-22.324.048A6.854,6.854,0,0,0,714.423,494.93Z" transform="translate(-668.669 -410.447)" fill="#020203"/>
      <path id="Trazado_633667" data-name="Trazado 633667" d="M732.6,377.736a1.5,1.5,0,0,1-1.188-1.812c.567-7.965,7.057-15.4,15.16-17.329a20.091,20.091,0,0,1,24.641,16.543,19.532,19.532,0,0,1-2.974,13.827q-4.339,6.8-8.737,13.566a2.373,2.373,0,0,0-.44,1.476,3.636,3.636,0,0,1-1.768,3.648c-.354.2-.3.5-.305.806-.023.777.014,1.562-.078,2.331a4.39,4.39,0,0,1-4.194,3.912,24.821,24.821,0,0,1-2.707,0,4.436,4.436,0,0,1-4.224-4,5.4,5.4,0,0,1-.05-.745c.021-1.163.136-2.256-1.144-3.048a2.846,2.846,0,0,1-.93-2.714,2.909,2.909,0,0,0-.542-1.82q-4.341-6.69-8.637-13.407a20.126,20.126,0,0,1-2.589-5.955c-.284-1.114-.08-1.555.942-2.124,1.184.058,1.5.312,1.8,1.479a17.042,17.042,0,0,0,2.18,5.019c2.876,4.47,5.731,8.953,8.647,13.4a4.862,4.862,0,0,1,1.017,3.377.88.88,0,0,0,.593,1.094c-.227-3.37-.444-6.609-.662-9.847-.069-1.582-.15-3.163-.2-4.745-.013-.415-.188-.539-.57-.515a10.151,10.151,0,0,1-2.407-.168c-2.747-1.461-3.467-3.493-2.252-6.349.182-.211.355-.43.546-.632a3.988,3.988,0,0,1,4.093-1.183,3.92,3.92,0,0,1,2.943,2.96,7.788,7.788,0,0,1,.2,1.851c.009.551.168.771.757.73.806-.055,1.618-.013,2.428-.013,1.753,0,1.753,0,1.894-1.705a4.143,4.143,0,0,1,8.258-.257,4.165,4.165,0,0,1-3.452,4.685,7.849,7.849,0,0,1-1.674.073c-.483-.018-.632.148-.658.632-.245,4.6-.518,9.2-.766,13.8-.012.224-.24.643.188.669.346.02.482-.354.5-.682a12.477,12.477,0,0,0,.01-1.308,2.556,2.556,0,0,1,.453-1.575c2.971-4.6,5.9-9.219,8.892-13.8a17.651,17.651,0,0,0,2.9-11.883,17.278,17.278,0,0,0-15.907-15.093.972.972,0,0,0-.179-.048,17.272,17.272,0,0,0-18.167,15.136C734.1,377.239,733.792,377.563,732.6,377.736Zm19.417,34.115c1.514.053,2.1-.472,2.155-1.95.014-.4-.032-.794-.05-1.192.183-.5-.076-.591-.5-.588-1.491.009-2.984.021-4.475-.006-.508-.009-.619.194-.627.658-.039,2.33.1,3.33,3.039,3.133C751.711,411.895,751.864,411.87,752.018,411.851Zm-.376-6.561c.422-.046,1.031.352,1.079-.53q.383-6.981.806-13.96c.035-.567-.175-.668-.674-.653-1.056.032-2.115.05-3.169-.005-.622-.033-.718.2-.674.748.1,1.269.138,2.544.221,3.815.157,2.415.328,4.83.494,7.245.014.549.025,1.1.044,1.647C749.83,405.385,749.831,405.385,751.642,405.29Zm-6.579-17.939c.264-.112.838.238.882-.263a3.244,3.244,0,0,0-.283-1.989,1.222,1.222,0,0,0-1.364-.564,1.238,1.238,0,0,0-1.049,1.04C743.013,386.648,743.709,387.34,745.063,387.351Zm12.318,0c.232,0,.387.011.541,0a1.379,1.379,0,0,0,1.385-1.524,1.31,1.31,0,0,0-1.287-1.315c-.794-.026-1.278.468-1.378,1.411a4.164,4.164,0,0,1-.045.462C756.435,387.106,756.575,387.554,757.381,387.347Z" transform="translate(-707.905 -358.029)" fill="#040303"/>
      <path id="Trazado_633668" data-name="Trazado 633668" d="M686.6,458.785c2.327-.127,2.327-.127,2.327,2.15q0,22.613,0,45.226c0,2.246.945,3.646,2.779,4.092a4.734,4.734,0,0,0,1.11.1q30.5.007,61.008,0a3.588,3.588,0,0,0,3.908-3.891q.023-13.829,0-27.659c0-1.2-.273-1.523-1.426-1.832q0-1.543.008-3.087c1.22-.421,1.421-.7,1.422-2.047,0-4.01.023-8.021-.016-12.031-.008-.812.15-1.21,1.042-1.066a9.761,9.761,0,0,0,1.3.042q0,24.017-.007,48.035a5.835,5.835,0,0,1-1.538,3.888c-1.489,1.74-3.487,2.06-5.567,2.062q-28.032.029-56.063,0-2.419,0-4.839-.125a6.147,6.147,0,0,1-5.463-5.923Q686.632,482.756,686.6,458.785Z" transform="translate(-679.872 -421)" fill="#98d4e2"/>
      <path id="Trazado_633669" data-name="Trazado 633669" d="M706.759,492.673c-1.96.013-3.921.015-5.881.048-.454.007-.629-.145-.576-.589a3.98,3.98,0,0,0,0-.467q0-20.647-.019-41.295c0-.841.19-1.111,1.06-1.071,1.8.082,3.609.044,5.415.055q0,6.509,0,13.017c-.808.011-1.616.007-2.424.037a1.4,1.4,0,1,0,0,2.792c.807.027,1.616.025,2.424.036q0,2.129,0,4.259c-.778.2-1.381.578-1.35,1.5.03.859.575,1.24,1.351,1.382q0,2,0,3.992c-.78.137-1.323.521-1.351,1.379-.03.916.563,1.3,1.349,1.495q0,1.964,0,3.928c-.764.22-1.383.576-1.352,1.5.03.866.578,1.239,1.353,1.384Z" transform="translate(-688.443 -415.11)" fill="#f0eceb"/>
      <path id="Trazado_633670" data-name="Trazado 633670" d="M734.6,382.39c1.192-.173,1.5-.5,1.639-1.742A17.272,17.272,0,0,1,754.4,365.512a.945.945,0,0,1,.179.049,19.334,19.334,0,0,0-8.849,7.4,20.734,20.734,0,0,0-3.281,12.926,4.3,4.3,0,0,0,.524,2.407c-1.216,2.856-.5,4.888,2.251,6.349.647,1.165,1.239,2.364,1.96,3.481.415.643.563,1.457,1.217,1.948.218,3.238.435,6.476.662,9.847a.88.88,0,0,1-.593-1.094,4.862,4.862,0,0,0-1.017-3.377c-2.916-4.444-5.771-8.927-8.647-13.4a17.035,17.035,0,0,1-2.18-5.019c-.3-1.167-.614-1.421-1.8-1.479Q734.717,383.97,734.6,382.39Z" transform="translate(-709.903 -362.683)" fill="#f4df81"/>
      <path id="Trazado_633671" data-name="Trazado 633671" d="M725.95,569.121c.245,1.013.9,1.344,1.918,1.35a45.2,45.2,0,0,1,7.268.152,6.8,6.8,0,0,1,5.23,3.908c-6.277,0-12.554-.012-18.83.022-2.134.012-4.3-1.924-4.008-4.063,1.177-.012,2.355-.058,3.531-.027a1.531,1.531,0,0,0,1.787-1.35Z" transform="translate(-699.21 -490.046)" fill="#eee8e5"/>
      <path id="Trazado_633672" data-name="Trazado 633672" d="M815.555,542.649c-2.457,0-4.914,0-7.37,0-1.111,0-1.742-.5-1.768-1.35-.027-.884.644-1.456,1.776-1.458q7.417-.012,14.834,0c1.169,0,1.775.534,1.746,1.466-.028.9-.592,1.338-1.754,1.342C820.53,542.654,818.042,542.649,815.555,542.649Z" transform="translate(-754.819 -471.733)" fill="#070707"/>
      <path id="Trazado_633673" data-name="Trazado 633673" d="M715.305,542.615c-.775-.145-1.324-.518-1.353-1.384-.031-.927.587-1.284,1.352-1.5q7.424.021,14.849.045a4.821,4.821,0,0,1,1.109.092,1.26,1.26,0,0,1,1.028,1.368,1.287,1.287,0,0,1-1.2,1.32,7.032,7.032,0,0,1-.932.03Q722.731,542.6,715.305,542.615Z" transform="translate(-696.99 -471.668)" fill="#070707"/>
      <path id="Trazado_633674" data-name="Trazado 633674" d="M815.562,506.123c-2.457,0-4.914.005-7.371,0-1.1,0-1.742-.5-1.772-1.348-.032-.89.64-1.465,1.767-1.466q7.417-.01,14.835,0c1.154,0,1.779.54,1.752,1.463-.026.893-.6,1.348-1.747,1.352C820.538,506.129,818.05,506.123,815.562,506.123Z" transform="translate(-754.821 -448.886)" fill="#040404"/>
      <path id="Trazado_633675" data-name="Trazado 633675" d="M815.639,521.646c2.488,0,4.976-.006,7.464,0,1.1,0,1.691.523,1.674,1.424-.017.847-.622,1.377-1.646,1.378q-7.51.012-15.021,0c-1.059,0-1.711-.578-1.691-1.443.019-.824.649-1.356,1.663-1.359C810.6,521.64,813.12,521.646,815.639,521.646Z" transform="translate(-754.822 -460.358)" fill="#040404"/>
      <path id="Trazado_633676" data-name="Trazado 633676" d="M715.312,506.1c-.776-.142-1.321-.523-1.351-1.382-.031-.921.572-1.294,1.35-1.5q5.65.016,11.3.031c1.339,0,2.678-.012,4.016,0,1.055.013,1.71.6,1.681,1.462-.028.824-.652,1.348-1.678,1.35q-7.146.012-14.291.005C716,506.075,715.654,506.093,715.312,506.1Z" transform="translate(-696.995 -448.836)" fill="#040404"/>
      <path id="Trazado_633677" data-name="Trazado 633677" d="M715.312,524.443c-.786-.195-1.379-.578-1.349-1.495.028-.857.57-1.242,1.351-1.379l14.756.03c.311,0,.625-.017.933.013a1.389,1.389,0,0,1,.179,2.746,3.937,3.937,0,0,1-.928.048Q722.783,524.428,715.312,524.443Z" transform="translate(-696.997 -460.312)" fill="#040404"/>
      <path id="Trazado_633678" data-name="Trazado 633678" d="M826.095,487.087c-2.176,0-4.351,0-6.527,0-1.079,0-1.71-.534-1.7-1.408s.639-1.392,1.724-1.394q6.573-.007,13.146,0c1.09,0,1.733.513,1.758,1.368.025.889-.641,1.433-1.777,1.435Q829.4,487.092,826.095,487.087Z" transform="translate(-761.98 -436.989)" fill="#010101"/>
      <path id="Trazado_633679" data-name="Trazado 633679" d="M711.032,487.069c-.808-.01-1.616-.009-2.423-.036a1.4,1.4,0,1,1,0-2.792c.807-.03,1.615-.026,2.423-.037,3.665.01,7.33.025,11,.024a1.541,1.541,0,0,1,1.559.788c.517,1-.2,2.015-1.465,2.019-3.355.012-6.71,0-10.066.006C711.714,487.042,711.372,487.06,711.032,487.069Z" transform="translate(-692.715 -436.943)" fill="#010101"/>
      <path id="Trazado_633680" data-name="Trazado 633680" d="M712.941,403.928a1.461,1.461,0,0,1-.592,1.159c-.935.815-1.854,1.65-2.8,2.452a1.4,1.4,0,0,1-2.074,0,1.386,1.386,0,0,1,.243-2.116c.966-.874,1.949-1.729,2.94-2.575a1.287,1.287,0,0,1,1.556-.174A1.341,1.341,0,0,1,712.941,403.928Z" transform="translate(-692.696 -385.834)" fill="#040404"/>
      <path id="Trazado_633681" data-name="Trazado 633681" d="M851.046,408a1.726,1.726,0,0,1-1.006-.433c-.952-.843-1.92-1.668-2.862-2.523a1.426,1.426,0,0,1-.209-2.065,1.343,1.343,0,0,1,1.992-.091c1.026.853,2.02,1.744,3.007,2.641a1.315,1.315,0,0,1,.39,1.6A1.412,1.412,0,0,1,851.046,408Z" transform="translate(-779.963 -385.835)" fill="#040404"/>
      <path id="Trazado_633682" data-name="Trazado 633682" d="M712.9,375.822a1.32,1.32,0,0,1-.684,1.234,1.224,1.224,0,0,1-1.481-.062c-1.118-.933-2.228-1.882-3.282-2.885a1.375,1.375,0,0,1,1.78-2.077c1.142.9,2.208,1.9,3.3,2.867A1.205,1.205,0,0,1,712.9,375.822Z" transform="translate(-692.654 -366.601)" fill="#040404"/>
      <path id="Trazado_633683" data-name="Trazado 633683" d="M848.129,377.269a1.477,1.477,0,0,1-1.392-.777,1.214,1.214,0,0,1,.142-1.478c1.1-1.04,2.233-2.06,3.419-3a1.229,1.229,0,0,1,1.757.223,1.2,1.2,0,0,1,.064,1.763c-1.108,1.077-2.309,2.06-3.483,3.069A.864.864,0,0,1,848.129,377.269Z" transform="translate(-779.924 -366.6)" fill="#040404"/>
      <path id="Trazado_633684" data-name="Trazado 633684" d="M680.062,458.8q0,23.971-.014,47.941a6.147,6.147,0,0,0,5.463,5.923q2.422.12,4.84.125,28.032.019,56.063,0c2.079,0,4.077-.323,5.567-2.063a5.835,5.835,0,0,0,1.538-3.888q.012-24.018.007-48.035c1-.011,1.993,0,2.988-.042.589-.026.793.222.738.772a4.621,4.621,0,0,0,0,.467q0,23.693,0,47.386c0,4.191-2.344,6.538-6.532,6.538H682.685c-4.182,0-6.532-2.353-6.532-6.538q0-23.74-.018-47.479c0-.874.2-1.238,1.127-1.153S679.128,458.79,680.062,458.8Z" transform="translate(-673.339 -421.016)" fill="#bbe2ea"/>
      <path id="Trazado_633685" data-name="Trazado 633685" d="M790.818,576.741a6.854,6.854,0,0,1,6.341-4.036c7.441-.1,14.883-.037,22.324-.048.4,0,.648.052.631.544-.042,1.18-.047,2.361-.067,3.542Z" transform="translate(-745.064 -492.257)" fill="#eee7e4"/>
      <path id="Trazado_633686" data-name="Trazado 633686" d="M706.79,572.706c-.291,2.139,1.874,4.075,4.008,4.063,6.276-.034,12.553-.018,18.83-.022.043.042.1.077.127.128.94,1.905.918,1.94-1.179,1.94H701.77c-1.3,0-1.429-.129-1.432-1.447,0-1.339.006-2.678,0-4.017,0-.412.008-.706.577-.694C702.869,572.7,704.83,572.693,706.79,572.706Z" transform="translate(-688.473 -492.262)" fill="#e8dfdb"/>
      <path id="Trazado_633687" data-name="Trazado 633687" d="M789.627,583.574l29.23,0c.021.308.044.615.062.922.047.831-.335,1.159-1.174,1.154-4.169-.024-8.338-.011-12.506-.011H789.933c-1.167,0-1.178,0-.79-1.081A2.348,2.348,0,0,1,789.627,583.574Z" transform="translate(-743.874 -499.091)" fill="#e8dfdb"/>
      <path id="Trazado_633688" data-name="Trazado 633688" d="M756.005,388.442a4.3,4.3,0,0,1-.524-2.407,20.734,20.734,0,0,1,3.281-12.926,19.333,19.333,0,0,1,8.849-7.4A17.278,17.278,0,0,1,783.519,380.8a17.651,17.651,0,0,1-2.9,11.883c-2.989,4.585-5.921,9.207-8.892,13.8a2.556,2.556,0,0,0-.453,1.576,12.511,12.511,0,0,1-.01,1.308c-.017.327-.153.7-.5.682-.428-.025-.2-.445-.188-.669.248-4.6.521-9.2.766-13.8.025-.484.174-.65.658-.632a7.852,7.852,0,0,0,1.674-.073,4.228,4.228,0,0,0-.663-8.39,4.122,4.122,0,0,0-4.143,3.962c-.141,1.705-.141,1.705-1.894,1.705-.81,0-1.622-.041-2.428.013-.589.04-.748-.18-.757-.73a7.787,7.787,0,0,0-.2-1.851,3.92,3.92,0,0,0-2.943-2.96,3.987,3.987,0,0,0-4.093,1.182C756.36,388.012,756.187,388.231,756.005,388.442Z" transform="translate(-722.931 -362.834)" fill="#f6e597"/>
      <path id="Trazado_633689" data-name="Trazado 633689" d="M779.109,455.564c-.165-2.415-.336-4.829-.494-7.245-.083-1.271-.12-2.546-.221-3.815-.043-.543.052-.781.674-.748,1.054.055,2.113.037,3.169.005.5-.015.709.086.674.653q-.43,6.978-.806,13.96c-.048.882-.657.484-1.079.53A21.058,21.058,0,0,0,779.109,455.564Z" transform="translate(-737.288 -411.643)" fill="#f6e597"/>
      <path id="Trazado_633690" data-name="Trazado 633690" d="M784.759,493.287c.019.4.064.8.051,1.192-.052,1.478-.641,2-2.155,1.95-.057-.465-.5-.414-.779-.541a2.578,2.578,0,0,1-1.387-1.544c-.258-.708-.014-1.071.741-1.079C782.406,493.251,783.583,493.277,784.759,493.287Z" transform="translate(-738.542 -442.606)" fill="#a29ba4"/>
      <path id="Trazado_633691" data-name="Trazado 633691" d="M782.692,492.337c-1.177-.01-2.353-.036-3.53-.023-.755.008-1,.371-.741,1.079a2.58,2.58,0,0,0,1.387,1.544c.278.127.723.076.779.541-.154.018-.306.044-.46.054-2.94.2-3.078-.8-3.038-3.133.008-.464.119-.667.627-.658,1.491.028,2.983.016,4.475.006C782.616,491.746,782.875,491.842,782.692,492.337Z" transform="translate(-736.475 -441.657)" fill="#877e89"/>
      <path id="Trazado_633692" data-name="Trazado 633692" d="M766.156,448.774c-.654-.49-.8-1.3-1.217-1.948-.721-1.117-1.314-2.316-1.96-3.481a10.155,10.155,0,0,0,2.407.168c.382-.024.556.1.57.515C766.006,445.611,766.087,447.192,766.156,448.774Z" transform="translate(-727.653 -411.388)" fill="#f6e597"/>
      <path id="Trazado_633693" data-name="Trazado 633693" d="M764.767,431.56c-1.355-.011-2.051-.7-1.814-1.776a1.238,1.238,0,0,1,1.049-1.04,1.222,1.222,0,0,1,1.364.564,3.244,3.244,0,0,1,.283,1.989C765.605,431.8,765.032,431.448,764.767,431.56Z" transform="translate(-727.609 -402.238)" fill="#f6e597"/>
      <path id="Trazado_633694" data-name="Trazado 633694" d="M799.349,431.553c-.806.208-.946-.241-.784-.967a4.18,4.18,0,0,0,.045-.462c.1-.943.584-1.438,1.378-1.411a1.31,1.31,0,0,1,1.287,1.315,1.379,1.379,0,0,1-1.385,1.524C799.736,431.564,799.58,431.553,799.349,431.553Z" transform="translate(-749.872 -402.236)" fill="#f6e597"/>
      <path id="Trazado_633695" data-name="Trazado 633695" d="M780.317,475.285a21.06,21.06,0,0,1,1.917,3.34c-1.812.1-1.813.1-1.874-1.693C780.342,476.383,780.331,475.834,780.317,475.285Z" transform="translate(-738.497 -431.364)" fill="#f4df81"/>
    </g>
  </g>
</svg>
