<svg xmlns="http://www.w3.org/2000/svg" width="82" height="82" viewBox="0 0 82 82">
  <g id="Grupo_968851" data-name="Grupo 968851" transform="translate(-193 -19655)">
    <rect id="Rectángulo_307292" data-name="Rectángulo 307292" width="82" height="82" transform="translate(193 19655)" fill="none"/>
    <g id="Grupo_968852" data-name="Grupo 968852" transform="translate(201.636 19665.361)">
      <path id="Trazado_633821" data-name="Trazado 633821" d="M980.862,867.013a16.651,16.651,0,0,1,7.323-3.731,15.694,15.694,0,1,1,5.931,30.817,15.174,15.174,0,0,1-12.828-3.484c-.161-.133-.327-.26-.491-.39a19.47,19.47,0,0,1-2.993-3.754,15.943,15.943,0,0,1-2-9.251,16.436,16.436,0,0,1,2.014-6.421A19.427,19.427,0,0,1,980.862,867.013Zm10.36-2.134a6.584,6.584,0,0,0-2.008.145c-5.485,1.079-9.291,4.23-10.935,9.564a13.155,13.155,0,0,0,3.715,14.087,12.753,12.753,0,0,0,8.977,3.721,7.439,7.439,0,0,0,1.951-.023,13.826,13.826,0,0,0,11.287-18.978C1002.072,868.167,996.568,864.558,991.222,864.88Z" transform="translate(-942.434 -833.088)" fill="#040403"/>
      <path id="Trazado_633822" data-name="Trazado 633822" d="M870.6,772.394a16.706,16.706,0,0,1-7.321,3.733,15.695,15.695,0,0,1-6.622-30.683,15.258,15.258,0,0,1,12,2.2,1.093,1.093,0,0,1,.542,1.383c-.594.616-.888.647-1.63.176a13,13,0,0,0-6.827-2.185,8.635,8.635,0,0,0-2.2.018,13.817,13.817,0,0,0-10.949,19.723c2.385,4.935,7.766,8.173,12.9,7.765l.249,0,.126,0a11.94,11.94,0,0,0,3.572-.682,13.8,13.8,0,0,0,6.423-21.606,1.239,1.239,0,0,1-.257-1.54c.716-.486,1.133-.443,1.648.241.5.665.958,1.363,1.434,2.046.083.169.162.34.248.508a15.738,15.738,0,0,1,1.742,8.384,16.4,16.4,0,0,1-2.034,6.739A19.327,19.327,0,0,1,870.6,772.394Z" transform="translate(-844.297 -745.042)" fill="#040403"/>
      <path id="Trazado_633823" data-name="Trazado 633823" d="M879.7,899.58c-.22.773-.457.975-1.239.975-7.222,0-14.444.054-21.666-.015a12.57,12.57,0,0,1-2.107-24.969,15.726,15.726,0,0,1,2.264-.161q10.707,0,21.413,0c.908,0,1.081.126,1.333.926-.232.81-.45.969-1.367.969q-10.637,0-21.274,0a10.4,10.4,0,0,0-8.868,4.344,10.12,10.12,0,0,0-1.47,9.847,1.453,1.453,0,0,0,.048.242,10.739,10.739,0,0,0,10.313,6.923q10.642.017,21.284,0C879.273,898.661,879.438,898.778,879.7,899.58Z" transform="translate(-844.157 -842.412)" fill="#050505"/>
      <path id="Trazado_633824" data-name="Trazado 633824" d="M959.495,758.352c.216-.77.455-.974,1.238-.974,7.222,0,14.444-.055,21.664.016a12.488,12.488,0,0,1,12.417,10.382,12.616,12.616,0,0,1-10.37,14.592,15.187,15.187,0,0,1-2.138.153q-10.769.007-21.538,0c-.845,0-1.023-.138-1.272-.924.225-.809.448-.973,1.364-.973h21.094a11.893,11.893,0,0,0,2.389-.166,10.371,10.371,0,0,0,7.144-4.92,10.134,10.134,0,0,0,1.164-8.638,10.658,10.658,0,0,0-10.547-7.626q-10.637-.016-21.274,0C959.918,759.271,959.753,759.154,959.495,758.352Z" transform="translate(-930.303 -754.239)" fill="#050505"/>
      <path id="Trazado_633825" data-name="Trazado 633825" d="M906.323,756.524a1.239,1.239,0,0,0,.257,1.54,13.8,13.8,0,0,1-6.423,21.606,11.936,11.936,0,0,1-3.572.682c-.044-.06-.086-.056-.126,0l-.249,0c-.033-.261-.272-.289-.446-.385a15.328,15.328,0,0,1-1.524-.846c-.693-.495-1.532-.831-1.951-1.652a12.487,12.487,0,0,0,5.738.27,11.377,11.377,0,0,0,1.153-22,11.847,11.847,0,0,0-7.018.012,2.782,2.782,0,0,1,.91-.907,21.162,21.162,0,0,1,3.387-2,13,13,0,0,1,6.827,2.185c.742.471,1.036.44,1.63-.176a.076.076,0,0,1,.015.085c.029.19.207.236.319.349C905.634,755.679,906.145,755.958,906.323,756.524Z" transform="translate(-880.012 -750.874)" fill="#e8c7c5"/>
      <path id="Trazado_633826" data-name="Trazado 633826" d="M958.027,761.29c.258.8.423.919,1.335.919q10.637,0,21.274,0a10.658,10.658,0,0,1,10.547,7.626,10.135,10.135,0,0,1-1.164,8.638.537.537,0,0,0-.386.176,10.86,10.86,0,0,1-4.138,2.253c-.33.1-.676.388-1.052.09.184-.1.369-.195.551-.3a8.542,8.542,0,0,0,4.734-7.465,8.658,8.658,0,0,0-8.634-9.1c-6.5-.094-13.012-.03-19.517-.027-.739,0-.99.233-1.167.97l-.355.02-.237-.038a5.8,5.8,0,0,0-.97-1.866,19.209,19.209,0,0,1-1.319-1.876Z" transform="translate(-928.835 -757.178)" fill="#e7c5c3"/>
      <path id="Trazado_633827" data-name="Trazado 633827" d="M852.305,894.229a10.12,10.12,0,0,1,1.47-9.847,10.4,10.4,0,0,1,8.868-4.344q10.637.022,21.274,0c.917,0,1.135-.159,1.367-.969l.5.014c-.029.586-.586.82-.848,1.256a8.822,8.822,0,0,0-1.437,2.505l-.239.043-.359-.032c-.207-.762-.412-.92-1.26-.921q-5.492,0-10.984,0a1.8,1.8,0,0,0-.5.034c-.441.131-.786.366-.792.893l-2.09,0a1,1,0,0,0-1.136-.926c-1.452.018-2.907-.034-4.357.035a8.77,8.77,0,0,0-8.043,10.509,9.079,9.079,0,0,0,4.054,5.776,1.514,1.514,0,0,1-.9-.219,10.71,10.71,0,0,1-2.725-1.883C853.523,895.53,852.922,894.871,852.305,894.229Z" transform="translate(-849.746 -845.149)" fill="#e6efdd"/>
      <path id="Trazado_633828" data-name="Trazado 633828" d="M854.268,938.957c.617.642,1.218,1.3,1.857,1.922a10.71,10.71,0,0,0,2.725,1.883,1.514,1.514,0,0,0,.9.219,9.327,9.327,0,0,0,4.44,1.24q9.753.016,19.505.007c.735,0,.982-.23,1.164-.973l.358-.021,1.859.026a19.474,19.474,0,0,0,2.993,3.754l-2.824.031c-.257-.8-.422-.919-1.335-.919q-10.642,0-21.284,0a10.739,10.739,0,0,1-10.313-6.923A1.454,1.454,0,0,1,854.268,938.957Z" transform="translate(-851.709 -889.877)" fill="#dae9cc"/>
      <path id="Trazado_633829" data-name="Trazado 633829" d="M977.384,831.712c.376.3.722.005,1.052-.09a10.862,10.862,0,0,0,4.138-2.253.537.537,0,0,1,.386-.176,10.371,10.371,0,0,1-7.144,4.92,11.9,11.9,0,0,1-2.389.166H952.333c-.916,0-1.139.164-1.364.973l-2.891-.007a19.324,19.324,0,0,0,3.046-3.784l2.228,0c.213.777.413.921,1.326.921,5.958,0,11.917-.013,17.875.01A12.544,12.544,0,0,0,977.384,831.712Z" transform="translate(-921.775 -807.894)" fill="#e2b3b0"/>
      <path id="Trazado_633830" data-name="Trazado 633830" d="M946.388,761.19a19.2,19.2,0,0,0,1.319,1.876,5.8,5.8,0,0,1,.97,1.866l-1.59.056c-.476-.683-.933-1.381-1.434-2.046-.516-.684-.932-.727-1.649-.241-.177-.567-.689-.846-1.073-1.232-.112-.113-.29-.159-.319-.349Z" transform="translate(-917.693 -757.051)" fill="#e2b3b0"/>
      <path id="Trazado_633831" data-name="Trazado 633831" d="M977.506,882.853a8.822,8.822,0,0,1,1.437-2.505c.262-.436.819-.669.848-1.256l2.392-.012a19.426,19.426,0,0,0-3.047,3.786Z" transform="translate(-943.755 -845.155)" fill="#dae9cc"/>
      <path id="Trazado_633832" data-name="Trazado 633832" d="M1027.907,870.592c5.346-.321,10.85,3.288,12.987,8.516a13.826,13.826,0,0,1-11.287,18.978,7.441,7.441,0,0,1-1.951.023c-.247-.574-.864-.736-1.268-1.134-.54-.532-1.23-.93-1.519-1.688.164.037.328.075.492.111,4.58.984,8.511-.2,11.5-3.809a10.8,10.8,0,0,0,1.627-11.878,11.321,11.321,0,0,0-13.635-6.261c0-.282.194-.445.366-.629A20.884,20.884,0,0,1,1027.907,870.592Z" transform="translate(-979.119 -838.8)" fill="#dae9cc"/>
      <path id="Trazado_633833" data-name="Trazado 633833" d="M993.639,895.263c.289.759.979,1.156,1.519,1.688.4.4,1.021.56,1.268,1.134a12.753,12.753,0,0,1-8.977-3.721,13.155,13.155,0,0,1-3.715-14.087c1.645-5.334,5.451-8.485,10.936-9.564a6.585,6.585,0,0,1,2.008-.145,20.9,20.9,0,0,0-2.688,2.227c-.171.184-.368.348-.366.629-.138.05-.274.1-.413.15a11.389,11.389,0,0,0-5.408,17.6c.52.682.789.765,1.551.476.607.4,1.053,1.025,1.772,1.268-.285.846-.17,1.177.623,1.554C992.366,894.761,993.008,895,993.639,895.263Z" transform="translate(-947.89 -838.777)" fill="#cce1b6"/>
      <path id="Trazado_633834" data-name="Trazado 633834" d="M971.494,893.988l1.63.013a16.434,16.434,0,0,0-2.014,6.421,15.942,15.942,0,0,0,2,9.251l-1.859-.026a2.467,2.467,0,0,0-.136-.479,15.725,15.725,0,0,1-1.613-6.1,16.673,16.673,0,0,1,1-7.106,14.308,14.308,0,0,0,.745-1.931Z" transform="translate(-937.743 -856.29)" fill="#add18c"/>
      <path id="Trazado_633835" data-name="Trazado 633835" d="M862.088,777.285c.419.822,1.258,1.158,1.951,1.653a15.34,15.34,0,0,0,1.524.846c.174.1.412.124.446.385-5.135.408-10.516-2.831-12.9-7.765a13.817,13.817,0,0,1,10.949-19.723,8.632,8.632,0,0,1,2.2-.018,21.171,21.171,0,0,0-3.387,2,2.782,2.782,0,0,0-.91.907c-.093.043-.183.092-.278.127a11.386,11.386,0,0,0-5.2,17.59A11.959,11.959,0,0,0,862.088,777.285Z" transform="translate(-849.811 -750.686)" fill="#e2b3b0"/>
      <path id="Trazado_633836" data-name="Trazado 633836" d="M960.158,776.237l1.59-.056.237.038a1.513,1.513,0,0,0,.243.706,16.81,16.81,0,0,1,1.532,6.557,18,18,0,0,1-1,6.417c-.123.368-.3.758.045,1.115a1.2,1.2,0,0,0-.46.857l-2.228,0a16.405,16.405,0,0,0,2.034-6.739,15.738,15.738,0,0,0-1.742-8.384C960.321,776.578,960.241,776.407,960.158,776.237Z" transform="translate(-930.765 -768.3)" fill="#d58580"/>
      <path id="Trazado_633837" data-name="Trazado 633837" d="M909.136,861.385c.041-.059.083-.063.126,0Z" transform="translate(-892.69 -831.904)" fill="#e2b3b0"/>
      <path id="Trazado_633838" data-name="Trazado 633838" d="M869.271,784.47a11.959,11.959,0,0,1-5.605-4,11.386,11.386,0,0,1,5.2-17.59c.1-.034.186-.084.278-.127a11.847,11.847,0,0,1,7.018-.012,11.377,11.377,0,0,1-1.153,22A12.487,12.487,0,0,1,869.271,784.47Zm-3.954-5.027a.263.263,0,0,0,.169.218,8.99,8.99,0,0,0,6.778,3.4,9.478,9.478,0,0,0,5.348-17.586c-3.957-2.424-9.478-1.485-12.134,2.063l-.181.215.017.049-.019-.049a8.688,8.688,0,0,0-2.024,5.107,8.886,8.886,0,0,0,2.053,6.594Z" transform="translate(-856.994 -757.871)" fill="#040303"/>
      <path id="Trazado_633839" data-name="Trazado 633839" d="M968.324,791.069c-.344-.358-.167-.747-.045-1.115a18,18,0,0,0,1-6.417,16.809,16.809,0,0,0-1.532-6.557,1.513,1.513,0,0,1-.243-.706l.355-.02c.208.768.409.921,1.258.921,6.314,0,12.628.033,18.941-.009a6.9,6.9,0,1,1,.074,13.782q-9.376.014-18.752,0A3.258,3.258,0,0,0,968.324,791.069Zm7.252-10.79a3.8,3.8,0,1,0,3.752,3.792A3.807,3.807,0,0,0,975.576,780.279Zm5.069,3.82c0,.9-.008,1.806,0,2.709a.961.961,0,0,0,.922,1.058.974.974,0,0,0,.967-1.026c.019-.419-.135-.934.057-1.234.22-.343.776-.073,1.18-.133a.956.956,0,0,0,.875-.982.913.913,0,0,0-.883-.9,2.467,2.467,0,0,0-.629,0c-.521.084-.593-.159-.616-.624-.03-.613.115-.906.775-.78a2.128,2.128,0,0,0,.5,0,.959.959,0,0,0,1.029-.956.938.938,0,0,0-1.036-.934c-.672-.012-1.344-.009-2.016,0-.807.008-1.124.333-1.129,1.16C980.64,782.335,980.644,783.217,980.645,784.1Zm5.549-.04c0,.925-.01,1.851,0,2.776a.952.952,0,0,0,.886,1.03.975.975,0,0,0,1-.995c.026-.419-.134-.933.057-1.238.237-.379.807-.08,1.222-.166a.9.9,0,0,0,.818-.961.88.88,0,0,0-.86-.914,2.346,2.346,0,0,0-.63,0c-.518.082-.6-.154-.621-.624-.031-.619.123-.9.779-.781a2.2,2.2,0,0,0,.567,0,.961.961,0,0,0,.964-.963.936.936,0,0,0-.991-.923c-.715-.017-1.431-.014-2.146,0a.93.93,0,0,0-1.046,1.051C986.184,782.25,986.193,783.154,986.194,784.058Z" transform="translate(-936.287 -768.354)" fill="#dc9b98"/>
      <path id="Trazado_633840" data-name="Trazado 633840" d="M969.373,788.135a3.261,3.261,0,0,1,1.06-.12q9.376,0,18.752,0a6.9,6.9,0,1,0-.074-13.782c-6.313.042-12.627.011-18.941.009-.849,0-1.05-.153-1.258-.921.177-.737.428-.969,1.167-.97,6.506,0,13.013-.068,19.517.027a8.658,8.658,0,0,1,8.634,9.1,8.542,8.542,0,0,1-4.734,7.465c-.182.1-.367.2-.551.3a12.544,12.544,0,0,1-4.831.684c-5.958-.023-11.917-.008-17.875-.01-.913,0-1.113-.144-1.326-.921A1.2,1.2,0,0,1,969.373,788.135Z" transform="translate(-937.336 -765.421)" fill="#040403"/>
      <path id="Trazado_633841" data-name="Trazado 633841" d="M894.526,894.064A14.322,14.322,0,0,1,893.78,896a16.674,16.674,0,0,0-1,7.106,15.726,15.726,0,0,0,1.612,6.1,2.462,2.462,0,0,1,.136.479l-.358.021c-.2-.763-.409-.918-1.258-.918q-9.314,0-18.628,0c-.42,0-.842-.017-1.26-.055a6.861,6.861,0,0,1,.312-13.694c1.324-.05,2.652-.014,3.977-.025.8-.007,1.041-.207,1.229-.972l2.09,0a1.091,1.091,0,0,0,1.184.973c3.733-.007,7.466,0,11.2-.007.736,0,.985-.233,1.154-.971Zm-8.973,7.425-.111.045q-.854-1.234-1.708-2.468c-.337-.49-.651-1.047-1.388-.8-.691.23-.662.832-.66,1.412.005,1.576,0,3.152,0,4.728a3.137,3.137,0,0,0,.049.689.925.925,0,0,0,1.8-.02,4.969,4.969,0,0,0,.047-.878c.006-.589,0-1.178,0-1.767a30.134,30.134,0,0,1,2.067,2.766.962.962,0,0,0,1.8-.584c-.009-1.765,0-3.531-.006-5.3,0-.69-.359-1.1-.928-1.112-.594-.008-.957.416-.965,1.146C885.547,900.061,885.553,900.775,885.553,901.489ZM876.7,905.8a3.8,3.8,0,0,0,.065-7.6,3.8,3.8,0,1,0-.065,7.6Z" transform="translate(-861.014 -856.322)" fill="#bed9a0"/>
      <path id="Trazado_633842" data-name="Trazado 633842" d="M872.887,891.3c-.188.765-.432.965-1.229.972-1.326.011-2.653-.025-3.977.025a6.861,6.861,0,0,0-.312,13.695c.419.037.84.055,1.26.055q9.314,0,18.628,0c.849,0,1.054.155,1.258.918-.182.743-.429.972-1.164.973q-9.753.005-19.505-.007a9.327,9.327,0,0,1-4.44-1.24,9.079,9.079,0,0,1-4.054-5.776,8.77,8.77,0,0,1,8.043-10.509c1.449-.069,2.9-.017,4.357-.035A1,1,0,0,1,872.887,891.3Z" transform="translate(-855.363 -853.587)" fill="#040403"/>
      <path id="Trazado_633843" data-name="Trazado 633843" d="M935.192,891.309c-.17.738-.419.97-1.154.971-3.733.008-7.466,0-11.2.007a1.091,1.091,0,0,1-1.184-.973c.005-.526.351-.762.792-.893a1.8,1.8,0,0,1,.5-.034q5.492,0,10.984,0C934.78,890.389,934.985,890.547,935.192,891.309Z" transform="translate(-902.04 -853.599)" fill="#050505"/>
      <path id="Trazado_633844" data-name="Trazado 633844" d="M1000.947,902.389c-.631-.263-1.273-.5-1.89-.794-.793-.377-.908-.707-.622-1.554l.253-.235a1.307,1.307,0,0,1,1.258.119,8.807,8.807,0,0,0,3.3.973,9.481,9.481,0,0,0,5.9-17.52,9.375,9.375,0,0,0-11.124.944c-.177.146-.367.279-.529.441a9.44,9.44,0,0,0-.906,12.342c.574.782.582.983.07,1.669-.762.289-1.031.206-1.551-.476a11.388,11.388,0,0,1,5.408-17.6c.139-.047.276-.1.413-.15a11.321,11.321,0,0,1,13.635,6.261,10.8,10.8,0,0,1-1.627,11.878c-2.989,3.605-6.92,4.792-11.5,3.809C1001.274,902.464,1001.111,902.426,1000.947,902.389Z" transform="translate(-955.197 -845.903)" fill="#040403"/>
      <path id="Trazado_633845" data-name="Trazado 633845" d="M1002.24,911.286c.513-.687.5-.887-.07-1.669a9.44,9.44,0,0,1,.906-12.342c.161-.162.352-.294.529-.441a.828.828,0,0,1-.125.479,16.523,16.523,0,0,0-.377,12.362c.327.912.864,1.724,1.163,2.643l-.253.235C1003.293,912.311,1002.847,911.685,1002.24,911.286Z" transform="translate(-960.776 -858.415)" fill="#add18c"/>
      <path id="Trazado_633846" data-name="Trazado 633846" d="M874.007,773.153c2.656-3.548,8.177-4.487,12.134-2.063a9.478,9.478,0,0,1-5.348,17.586,8.99,8.99,0,0,1-6.778-3.4c-.007-.112-.038-.2-.169-.218l.007.007a.8.8,0,0,0-.094-.544,14.176,14.176,0,0,1-.995-5.213,14,14,0,0,1,1-5.4.62.62,0,0,0,.057-.542l.02.049-.017-.049C873.987,773.381,874,773.272,874.007,773.153Z" transform="translate(-865.523 -763.49)" fill="#de9c99"/>
      <path id="Trazado_633847" data-name="Trazado 633847" d="M870.9,784.068a.62.62,0,0,1-.057.542,14,14,0,0,0-1,5.4,14.175,14.175,0,0,0,.995,5.213.8.8,0,0,1,.094.544,8.885,8.885,0,0,1-2.053-6.594A8.687,8.687,0,0,1,870.9,784.068Z" transform="translate(-862.595 -774.19)" fill="#d58580"/>
      <path id="Trazado_633848" data-name="Trazado 633848" d="M877.041,830.271c.131.015.163.107.169.218A.263.263,0,0,1,877.041,830.271Z" transform="translate(-868.718 -808.699)" fill="#d58580"/>
      <path id="Trazado_633849" data-name="Trazado 633849" d="M877.143,783.22c0,.118-.02.227-.181.215Z" transform="translate(-868.659 -773.557)" fill="#d58580"/>
      <path id="Trazado_633850" data-name="Trazado 633850" d="M987.948,792.156a3.8,3.8,0,1,1-.118,7.6,3.8,3.8,0,1,1,.118-7.6Zm1.849,3.8a1.894,1.894,0,0,0-1.924-1.9,1.92,1.92,0,0,0-1.9,1.869,1.95,1.95,0,0,0,1.9,1.941A1.914,1.914,0,0,0,989.8,795.953Z" transform="translate(-948.659 -780.231)" fill="#040303"/>
      <path id="Trazado_633851" data-name="Trazado 633851" d="M1019.4,796c0-.882,0-1.764,0-2.646.005-.827.322-1.151,1.129-1.16.672-.007,1.345-.011,2.017,0a.938.938,0,0,1,1.036.935.958.958,0,0,1-1.029.956,2.13,2.13,0,0,1-.5,0c-.659-.125-.8.167-.774.78.023.465.1.707.616.624a2.47,2.47,0,0,1,.629,0,.913.913,0,0,1,.883.9.956.956,0,0,1-.875.982c-.405.06-.961-.209-1.18.133-.192.3-.038.815-.057,1.234a.974.974,0,0,1-.967,1.026.961.961,0,0,1-.922-1.058C1019.4,797.8,1019.4,796.9,1019.4,796Z" transform="translate(-975.047 -780.253)" fill="#040303"/>
      <path id="Trazado_633852" data-name="Trazado 633852" d="M1041.325,795.952c0-.9-.01-1.809,0-2.713a.93.93,0,0,1,1.046-1.051c.715-.012,1.431-.015,2.146,0a.936.936,0,0,1,.991.923.961.961,0,0,1-.964.963,2.2,2.2,0,0,1-.567,0c-.656-.121-.81.161-.779.781.024.469.1.705.62.624a2.343,2.343,0,0,1,.63,0,.88.88,0,0,1,.86.914.9.9,0,0,1-.818.961c-.415.086-.985-.213-1.222.166-.191.3-.031.819-.057,1.238a.974.974,0,0,1-1,.995.952.952,0,0,1-.886-1.03C1041.316,797.8,1041.325,796.878,1041.325,795.952Z" transform="translate(-991.419 -780.248)" fill="#040303"/>
      <path id="Trazado_633853" data-name="Trazado 633853" d="M929.7,913.793c0-.714-.006-1.428,0-2.142.008-.729.371-1.153.965-1.146.569.008.925.422.928,1.112.006,1.765,0,3.531.006,5.3a.962.962,0,0,1-1.8.584,30.134,30.134,0,0,0-2.067-2.766c0,.589,0,1.178,0,1.767a4.969,4.969,0,0,1-.047.878.925.925,0,0,1-1.8.02,3.136,3.136,0,0,1-.049-.689c0-1.576,0-3.152,0-4.728,0-.58-.031-1.183.66-1.412.737-.245,1.051.313,1.388.8q.851,1.236,1.708,2.468Z" transform="translate(-905.158 -868.626)" fill="#040403"/>
      <path id="Trazado_633854" data-name="Trazado 633854" d="M894.977,918.1a3.8,3.8,0,1,1,3.833-3.766A3.8,3.8,0,0,1,894.977,918.1Zm.053-1.9a1.906,1.906,0,0,0-.01-3.812,1.906,1.906,0,1,0,.01,3.812Z" transform="translate(-879.291 -868.623)" fill="#040303"/>
      <path id="Trazado_633855" data-name="Trazado 633855" d="M1009.543,905.436c-.3-.919-.836-1.731-1.163-2.643a16.523,16.523,0,0,1,.377-12.362.827.827,0,0,0,.125-.479,9.375,9.375,0,0,1,11.124-.944,9.481,9.481,0,0,1-5.9,17.52,8.807,8.807,0,0,1-3.3-.973A1.307,1.307,0,0,0,1009.543,905.436Z" transform="translate(-966.053 -851.534)" fill="#bfdba1"/>
      <path id="Trazado_633856" data-name="Trazado 633856" d="M995.392,801.549a1.915,1.915,0,0,1-1.924,1.91,1.95,1.95,0,0,1-1.9-1.941,1.92,1.92,0,0,1,1.9-1.869A1.894,1.894,0,0,1,995.392,801.549Z" transform="translate(-954.255 -785.827)" fill="#dc9b98"/>
      <path id="Trazado_633857" data-name="Trazado 633857" d="M900.625,921.8a1.906,1.906,0,1,1,1.883-1.94A1.889,1.889,0,0,1,900.625,921.8Z" transform="translate(-884.886 -874.217)" fill="#bed9a0"/>
    </g>
  </g>
</svg>
