<svg xmlns="http://www.w3.org/2000/svg" width="82" height="82" viewBox="0 0 82 82">
  <g id="Grupo_968857" data-name="Grupo 968857" transform="translate(-193 -19655)">
    <rect id="Rectángulo_307292" data-name="Rectángulo 307292" width="82" height="82" transform="translate(193 19655)" fill="none"/>
    <g id="Grupo_968858" data-name="Grupo 968858" transform="translate(-977.254 19654.949)">
      <path id="Trazado_633750" data-name="Trazado 633750" d="M1180.566,104.335q0-.978,0-1.956c.847-.228,1.033-.47,1.035-1.368,0-1.319.055-2.64-.011-3.956-.12-2.414.713-2.785,2.753-2.768A75.7,75.7,0,0,0,1200,92.9a94.945,94.945,0,0,0,10.171-2.873,10.108,10.108,0,0,1,5.13-.62,19.653,19.653,0,0,1,2.779.74,70.809,70.809,0,0,0,23.7,4.143c.959,0,1.918.046,2.877.071q0,15.113,0,30.227a5.437,5.437,0,0,1-.011.67c-.127,1.015-.569,1.572-1.327,1.573-2.762,0-5.514.146-8.265.4q-2.854.26-5.671.748a74.22,74.22,0,0,0-9.546,2.484,2.361,2.361,0,0,1-.03-.265q0-14.041-.011-28.082c0-.411.13-.564.526-.683a77.821,77.821,0,0,1,21.607-3.072,11.469,11.469,0,0,0,1.536-.077.884.884,0,0,0,.781-.943.906.906,0,0,0-.759-.965,4.1,4.1,0,0,0-.865-.063,80.454,80.454,0,0,1-20.734-2.645,1.166,1.166,0,0,0-1.523.575c-.719-.052-1.336-.5-2.06-.533.069-.839-.108-1.157-.888-1.413-3.924-1.292-2.978-1.357-6.67-.09a74.7,74.7,0,0,1-18.58,3.817c-2.41.186-4.821.262-7.236.287a1.226,1.226,0,0,0-1.171.5c-.462.747.1,1.532,1.147,1.536a89.89,89.89,0,0,1,12.365.852,70.252,70.252,0,0,1,10.326,2.256c.243.073.467.112.465.454-.009,1.987,0,3.974,0,6-.229-.056-.4-.084-.57-.14a69.028,69.028,0,0,0-22.288-3.394c-1.1,0-1.58.3-1.589.993s.489,1.033,1.563,1.034a73.743,73.743,0,0,1,13.341,1.126,63.833,63.833,0,0,1,9.054,2.386c.254.087.5.133.5.511-.018,1.383-.007,2.767-.007,4.19-.227-.054-.4-.081-.566-.137a69.1,69.1,0,0,0-22.355-3.395c-1.041,0-1.515.306-1.527.988-.013.7.488,1.037,1.559,1.039a73.751,73.751,0,0,1,13.341,1.126,63.83,63.83,0,0,1,9.054,2.385c.252.086.505.128.5.507-.018,1.383-.007,2.767-.007,4.221-.293-.091-.522-.159-.749-.232-1.571-.51-3.157-.969-4.76-1.369a73.051,73.051,0,0,0-17.675-1.957,2.156,2.156,0,0,0-.466.038.926.926,0,0,0-.791.944.9.9,0,0,0,.748.973,3.937,3.937,0,0,0,.865.068,75,75,0,0,1,12.549,1,64.064,64.064,0,0,1,9.781,2.511c.29.1.511.178.506.574-.029,2.189-.03,4.38-.04,6.569-.618-.182-1.242-.348-1.854-.55a59.113,59.113,0,0,0-12.683-2.645,75.124,75.124,0,0,0-8.724-.429c-1.049.016-2.1,0-3.148,0-.008-.267-.023-.534-.023-.8q0-10.166,0-20.331C1181.6,104.806,1181.414,104.565,1180.566,104.335Z" transform="translate(-2.683 -60.254)" fill="#d79483"/>
      <path id="Trazado_633751" data-name="Trazado 633751" d="M1177.9,109.791c.847.23,1.034.47,1.035,1.364q0,10.165,0,20.331c0,.267.015.534.023.8a1.614,1.614,0,0,0,1.776,1.66c2.3.048,4.6.061,6.894.194A65.234,65.234,0,0,1,1203.9,137.1c1.585.51,1.586.506,1.463-1.185.01-2.19.011-4.38.04-6.569.005-.4-.217-.476-.506-.574a64.063,64.063,0,0,0-9.78-2.511,74.993,74.993,0,0,0-12.549-1,3.932,3.932,0,0,1-.865-.068.9.9,0,0,1-.749-.973.926.926,0,0,1,.791-.944,2.155,2.155,0,0,1,.466-.038,73.053,73.053,0,0,1,17.675,1.957c1.6.4,3.188.859,4.759,1.369.228.074.457.142.75.232,0-1.454-.011-2.838.007-4.221,0-.38-.249-.421-.5-.507a63.83,63.83,0,0,0-9.054-2.385,73.748,73.748,0,0,0-13.341-1.126c-1.071,0-1.572-.338-1.559-1.039.012-.683.486-.989,1.527-.988a69.1,69.1,0,0,1,22.355,3.395c.164.056.339.083.566.137,0-1.423-.011-2.807.007-4.19,0-.377-.242-.424-.5-.511a63.838,63.838,0,0,0-9.054-2.386,73.745,73.745,0,0,0-13.341-1.126c-1.074,0-1.573-.334-1.563-1.034s.486-.994,1.589-.993a69.027,69.027,0,0,1,22.288,3.394c.166.056.341.085.57.14,0-2.024,0-4.011,0-6,0-.343-.222-.381-.465-.454a70.25,70.25,0,0,0-10.326-2.256,89.885,89.885,0,0,0-12.365-.852c-1.045,0-1.61-.789-1.147-1.536a1.226,1.226,0,0,1,1.171-.5c2.415-.024,4.826-.1,7.236-.287a74.7,74.7,0,0,0,18.58-3.817c3.692-1.267,2.746-1.2,6.67.09.78.257.957.574.888,1.413a20.746,20.746,0,0,0-2.009,3.47c-.34.736-.848.982-1.417.734-.59-.258-.752-.834-.395-1.6.329-.707.7-1.4,1.073-2.082.135-.248.15-.392-.151-.5a3.542,3.542,0,0,0-2.584-.146,71.208,71.208,0,0,1-11.647,3.267c-.743.139-1.486.275-2.322.429.147.107.177.148.214.153a73.708,73.708,0,0,1,13.824,3.643,2.984,2.984,0,0,0,2.137-.017,75.667,75.667,0,0,1,11.061-3.139c.946-.185,1.894-.355,2.857-.535-.083-.208-.208-.179-.307-.2a72.633,72.633,0,0,1-7.254-1.575c-.874-.244-1.026-.452-1.02-1.374a1.166,1.166,0,0,1,1.522-.575,80.456,80.456,0,0,0,20.734,2.645,4.1,4.1,0,0,1,.865.063.906.906,0,0,1,.759.965.884.884,0,0,1-.781.943,11.465,11.465,0,0,1-1.536.077,77.822,77.822,0,0,0-21.607,3.072c-.4.119-.526.272-.526.683q.017,14.041.011,28.082a2.332,2.332,0,0,0,.03.265c-.01.267-.028.534-.029.8,0,.861,0,.862.849.581a67.181,67.181,0,0,1,19.644-3.271c.881-.02,1.1.151,1.333.973-.206.835-.457,1.016-1.441,1.043a64.567,64.567,0,0,0-16.455,2.428c-1.775.52-3.553,1.044-5.291,1.672a13.209,13.209,0,0,1-9.169-.043,68.207,68.207,0,0,0-12.876-3.306,83.4,83.4,0,0,0-11.293-.8c-.715,0-1.433.012-2.145-.042a3.6,3.6,0,0,1-3.367-3.535c-.023-7.154-.009-14.308-.014-21.462A1.094,1.094,0,0,1,1177.9,109.791Zm29.54,26.773c-.012.423-.018.846-.04,1.269-.016.3.117.425.4.514a9.75,9.75,0,0,0,5.849.306c1.59-.469,1.6-.421,1.453-2.089.009-.089.025-.178.025-.266q0-14.016.011-28.032c0-.492-.115-.545-.564-.4-3.732,1.247-2.862,1.253-6.417.063-.745-.249-.743-.26-.743.534q0,13.715,0,27.429C1207.412,136.118,1207.429,136.341,1207.439,136.564Z" transform="translate(-0.015 -65.709)" fill="#030202"/>
      <path id="Trazado_633752" data-name="Trazado 633752" d="M1241.982,87.1c-.959-.025-1.918-.068-2.877-.071a70.812,70.812,0,0,1-23.7-4.143,19.651,19.651,0,0,0-2.779-.74,10.109,10.109,0,0,0-5.13.62,94.937,94.937,0,0,1-10.17,2.873,75.7,75.7,0,0,1-15.661,1.391c-2.04-.018-2.874.353-2.753,2.768.065,1.316.014,2.637.011,3.956,0,.9-.188,1.14-1.035,1.368a1.141,1.141,0,0,1-.986-1.29c.024-1.676,0-3.353.01-5.03a3.628,3.628,0,0,1,3.51-3.744c1.27-.08,2.547-.05,3.821-.067a67.71,67.71,0,0,0,21.727-3.85c.986-.347,2.007-.6,3.02-.864a10.792,10.792,0,0,1,6.7.614,4.2,4.2,0,0,0,4.219-.261,10.977,10.977,0,0,1,3.379-1.23,1.031,1.031,0,0,1,1.344.656,1.017,1.017,0,0,1-.778,1.275,18.806,18.806,0,0,0-3.04,1.077,8.187,8.187,0,0,0,1.731.542,70.4,70.4,0,0,0,17.721,2.076c.559,0,1.119-.018,1.676.014a3.67,3.67,0,0,1,3.664,3.879q.006,13.748,0,27.5c0,1.1.02,2.191-.009,3.286a3.656,3.656,0,0,1-3.375,3.538c-.807.062-1.1-.155-1.332-.975a1.075,1.075,0,0,1,.918-1c1.472-.313,1.784-.716,1.784-2.242q0-14.881,0-29.762c0-.2.008-.4-.007-.6A1.6,1.6,0,0,0,1241.982,87.1Z" transform="translate(0 -52.996)" fill="#030303"/>
      <path id="Trazado_633753" data-name="Trazado 633753" d="M1351.437,108.182a1.6,1.6,0,0,1,1.6,1.553c.015.2.007.4.007.6q0,14.881,0,29.762c0,1.526-.312,1.93-1.784,2.242a1.075,1.075,0,0,0-.918,1l-1.932.017c-.228-.822-.452-.993-1.333-.973a67.178,67.178,0,0,0-19.644,3.271c-.85.281-.853.28-.849-.581,0-.267.018-.534.029-.8a74.217,74.217,0,0,1,9.546-2.484q2.82-.485,5.671-.748c2.751-.251,5.5-.395,8.265-.4.759,0,1.2-.558,1.327-1.573a5.461,5.461,0,0,0,.011-.669Q1351.435,123.3,1351.437,108.182Z" transform="translate(-109.455 -74.078)" fill="#cf826b"/>
      <path id="Trazado_633754" data-name="Trazado 633754" d="M1314.522,9.157a4.846,4.846,0,0,1,3.135-2.225A2.764,2.764,0,0,1,1321,8.885a2.854,2.854,0,0,1-1.141,2.832,16.057,16.057,0,0,1-1.415.99c1.962,1.9,1.262,4.939-1.626,5.834a7.9,7.9,0,0,1-4.424.051c-2.9-.764-3.877-3.8-1.792-5.914a10.153,10.153,0,0,1-1.54-1.049,2.825,2.825,0,0,1-.833-3.32,2.931,2.931,0,0,1,3.284-1.341A4.954,4.954,0,0,1,1314.522,9.157Zm1.843,4.7a5.033,5.033,0,0,0-4.074.151,1.2,1.2,0,0,0-.517,1.882,1.243,1.243,0,0,0,.7.584,5.531,5.531,0,0,0,3.972.047,1.354,1.354,0,0,0-.082-2.664Zm-3.033-2.486a3.4,3.4,0,0,0-2.228-2.433c-.366-.1-.8-.124-1.024.258-.237.409.084.719.366.966A5.545,5.545,0,0,0,1313.332,11.37Zm2.411-.062a3.864,3.864,0,0,0,1.707-.436,3.112,3.112,0,0,0,1.4-1c.36-.507.172-.9-.451-.966a1.745,1.745,0,0,0-1.144.3A3.675,3.675,0,0,0,1315.743,11.308Z" transform="translate(-95.849 0)" fill="#030303"/>
      <path id="Trazado_633755" data-name="Trazado 633755" d="M1361.112,34.063a11.735,11.735,0,0,1,5.444,1.847c.674.484.826,1.068.434,1.585-.38.5-.93.532-1.591.062a9.253,9.253,0,0,0-3.86-1.4c-.241-.043-.489-.065-.723-.131a.961.961,0,0,1-.73-1.175A.973.973,0,0,1,1361.112,34.063Z" transform="translate(-133.931 -19.88)" fill="#050505"/>
      <path id="Trazado_633756" data-name="Trazado 633756" d="M1375.511,62.251a1.4,1.4,0,0,1-.2.507,7.517,7.517,0,0,1-4.186,3.636,1,1,0,0,1-.724-1.859,8.294,8.294,0,0,0,2.137-1.347,5.255,5.255,0,0,0,1.072-1.519.935.935,0,0,1,1.187-.492C1375.259,61.307,1375.478,61.651,1375.511,62.251Z" transform="translate(-141.026 -39.668)" fill="#050505"/>
      <path id="Trazado_633757" data-name="Trazado 633757" d="M1270.134,105.432c-.006.923.146,1.13,1.02,1.374a72.622,72.622,0,0,0,7.254,1.575c.1.017.224-.012.307.2-.963.18-1.912.351-2.857.535a75.658,75.658,0,0,0-11.061,3.139,2.984,2.984,0,0,1-2.137.017,73.7,73.7,0,0,0-13.824-3.643c-.036-.006-.067-.046-.214-.153.836-.155,1.58-.29,2.323-.429a71.209,71.209,0,0,0,11.647-3.267,3.542,3.542,0,0,1,2.584.146c.3.107.287.251.151.5-.374.685-.743,1.375-1.073,2.082-.357.765-.195,1.341.4,1.6.568.249,1.077,0,1.416-.734a20.754,20.754,0,0,1,2.009-3.47C1268.8,104.933,1269.415,105.38,1270.134,105.432Z" transform="translate(-52.447 -71.452)" fill="#9f6a55"/>
      <path id="Trazado_633758" data-name="Trazado 633758" d="M1210.917,232.61c.123,1.691.122,1.695-1.464,1.185a65.231,65.231,0,0,0-16.275-2.956c-2.3-.133-4.6-.145-6.894-.194a1.614,1.614,0,0,1-1.776-1.66c1.049,0,2.1.016,3.148,0a75.12,75.12,0,0,1,8.723.429,59.116,59.116,0,0,1,12.683,2.645C1209.675,232.263,1210.3,232.428,1210.917,232.61Z" transform="translate(-5.566 -162.409)" fill="#ce816b"/>
      <path id="Trazado_633759" data-name="Trazado 633759" d="M1290.4,166.614c-.009-.223-.026-.446-.026-.669q0-13.714,0-27.429c0-.794,0-.783.743-.534,3.556,1.19,2.686,1.184,6.417-.063.449-.15.564-.1.564.4q-.019,14.016-.011,28.032c0,.089-.016.178-.025.266A10.629,10.629,0,0,1,1290.4,166.614Z" transform="translate(-82.979 -95.76)" fill="#d0826c"/>
      <path id="Trazado_633760" data-name="Trazado 633760" d="M1290.365,244.917a10.63,10.63,0,0,0,7.661,0c.151,1.669.137,1.62-1.453,2.089a9.75,9.75,0,0,1-5.848-.306c-.282-.089-.414-.218-.4-.514C1290.348,245.764,1290.353,245.34,1290.365,244.917Z" transform="translate(-82.941 -174.063)" fill="#96634f"/>
      <path id="Trazado_633761" data-name="Trazado 633761" d="M1321.395,33.908a1.2,1.2,0,0,1,.517-1.882,5.033,5.033,0,0,1,4.074-.151c-.128.892-.814,1.28-1.521,1.6A7.1,7.1,0,0,1,1321.395,33.908Z" transform="translate(-105.471 -18.02)" fill="#8b808d"/>
      <path id="Trazado_633762" data-name="Trazado 633762" d="M1322.1,34.879a7.1,7.1,0,0,0,3.071-.433c.707-.321,1.393-.708,1.521-1.6a1.354,1.354,0,0,1,.082,2.664,5.531,5.531,0,0,1-3.972-.047A1.243,1.243,0,0,1,1322.1,34.879Z" transform="translate(-106.179 -18.991)" fill="#766c76"/>
      <path id="Trazado_633763" data-name="Trazado 633763" d="M1318.829,16.811a5.543,5.543,0,0,1-2.886-1.209c-.283-.247-.6-.557-.367-.966.221-.382.659-.355,1.025-.258A3.4,3.4,0,0,1,1318.829,16.811Z" transform="translate(-101.347 -5.441)" fill="#e9e7ea"/>
      <path id="Trazado_633764" data-name="Trazado 633764" d="M1336.873,16.8a3.677,3.677,0,0,1,1.51-2.1,1.746,1.746,0,0,1,1.144-.3c.623.064.81.459.451.966a3.113,3.113,0,0,1-1.4,1A3.863,3.863,0,0,1,1336.873,16.8Z" transform="translate(-116.979 -5.497)" fill="#d5e7ea"/>
    </g>
  </g>
</svg>
