<svg xmlns="http://www.w3.org/2000/svg" width="1328" height="235.362" viewBox="0 0 1328 235.362">
  <g id="Grupo_968872" data-name="Grupo 968872" transform="translate(-136 -2845.82)">
    <rect id="Rectángulo_306930" data-name="Rectángulo 306930" width="1328" height="209.48" transform="translate(136 2871.701)" fill="#fff9ed"/>
    <path id="Trazado_631709" data-name="Trazado 631709" d="M2765.633,2362.63a6.727,6.727,0,0,1,1.09-3.313q2.275-4.589,4.557-9.176c2.929-5.876,1.393-9.552-4.85-11.59-3.358-1.1-6.72-2.179-10.076-3.284-2.774-.913-4.26-2.71-4.226-5.767.068-6.151.045-12.3.01-18.454a5.27,5.27,0,0,1,3.966-5.565c3.357-1.1,6.7-2.25,10.055-3.349,6.493-2.127,8.067-5.744,5.075-11.774-1.572-3.167-3.157-6.327-4.781-9.467-1.3-2.5-1.1-4.747.939-6.776q6.788-6.762,13.559-13.542a5.088,5.088,0,0,1,6.468-.94c3.358,1.707,6.74,3.369,10.114,5.047,5.468,2.719,9.2,1.154,11.134-4.676q1.665-5.032,3.29-10.076c.983-3.064,2.912-4.628,6.276-4.56,5.912.117,11.83.1,17.743.006a5.671,5.671,0,0,1,6.064,4.337c1.1,3.36,2.374,6.675,3.22,10.1a7.479,7.479,0,0,0,5.633,5.957,5,5,0,0,0,4.223-.316c3.732-2,7.575-3.791,11.342-5.73a5.428,5.428,0,0,1,7.038,1.178c4.225,4.305,8.475,8.589,12.8,12.793,2.394,2.327,2.705,4.727,1.1,7.634-1.651,2.988-3.085,6.1-4.6,9.162-2.91,5.9-1.4,9.474,4.892,11.574q5.029,1.679,10.071,3.319a5.465,5.465,0,0,1,4.188,5.789c-.063,6.032-.09,12.067.011,18.1a5.668,5.668,0,0,1-4.346,6.058q-5.871,1.926-11.74,3.858a6.893,6.893,0,0,0-3.933,9.183c1.881,3.8,3.76,7.6,5.693,11.372a5.454,5.454,0,0,1-1.189,7.043q-6.45,6.347-12.788,12.807c-2.323,2.379-4.74,2.695-7.645,1.083-2.986-1.656-6.1-3.087-9.157-4.612-5.864-2.923-9.53-1.377-11.581,4.887q-1.65,5.037-3.291,10.077a5.437,5.437,0,0,1-5.777,4.186c-6.15-.074-12.3-.057-18.453-.007a5.247,5.247,0,0,1-5.557-3.967c-1.1-3.354-2.632-6.627-3.255-10.066-1.06-5.846-7.029-8.513-12.219-4.978-2.8,1.909-6.066,3.137-9.1,4.713-2.5,1.3-4.753,1.092-6.781-.941-4.511-4.523-9.04-9.028-13.536-13.564A4.864,4.864,0,0,1,2765.633,2362.63Zm96.468-41.984c.212-19.012-15.57-35.154-34.627-35.416-19.024-.261-35.179,15.458-35.5,34.537-.317,19.165,15.584,35.428,34.8,35.586A35.426,35.426,0,0,0,2862.1,2320.647Z" transform="translate(-2467.128 660.593)" fill="#faebcd"/>
    <path id="Trazado_631710" data-name="Trazado 631710" d="M2762.79,2337.945a5.309,5.309,0,0,1,.86-2.616q1.8-3.623,3.6-7.244c2.312-4.639,1.1-7.541-3.829-9.15-2.65-.865-5.305-1.72-7.955-2.593a4.33,4.33,0,0,1-3.336-4.553c.054-4.856.036-9.712.007-14.569a4.16,4.16,0,0,1,3.131-4.394c2.65-.869,5.288-1.776,7.938-2.644,5.126-1.68,6.369-4.535,4.007-9.3-1.241-2.5-2.492-5-3.774-7.474a4.158,4.158,0,0,1,.741-5.35q5.358-5.339,10.7-10.691a4.016,4.016,0,0,1,5.106-.742c2.651,1.348,5.321,2.659,7.985,3.984,4.317,2.147,7.266.912,8.79-3.692q1.315-3.973,2.6-7.955a4.609,4.609,0,0,1,4.955-3.6c4.667.093,9.339.08,14.008,0a4.476,4.476,0,0,1,4.788,3.424c.865,2.653,1.874,5.269,2.542,7.971a5.9,5.9,0,0,0,4.447,4.7,3.947,3.947,0,0,0,3.334-.249c2.946-1.579,5.98-2.994,8.954-4.524a4.286,4.286,0,0,1,5.557.931c3.335,3.4,6.69,6.78,10.106,10.1a4.473,4.473,0,0,1,.869,6.027c-1.3,2.359-2.437,4.813-3.63,7.233-2.3,4.659-1.105,7.479,3.862,9.138q3.97,1.326,7.951,2.62a4.314,4.314,0,0,1,3.306,4.57c-.05,4.763-.071,9.527.009,14.288a4.475,4.475,0,0,1-3.432,4.783q-4.635,1.521-9.268,3.046a5.442,5.442,0,0,0-3.105,7.25c1.485,3,2.969,6,4.5,8.978a4.307,4.307,0,0,1-.938,5.561q-5.093,5.01-10.1,10.111a4.486,4.486,0,0,1-6.036.855c-2.357-1.308-4.814-2.437-7.229-3.641-4.63-2.308-7.524-1.087-9.144,3.858q-1.3,3.976-2.6,7.956a4.292,4.292,0,0,1-4.561,3.3c-4.855-.058-9.712-.045-14.569,0a4.142,4.142,0,0,1-4.387-3.132c-.87-2.648-2.079-5.231-2.57-7.947-.837-4.615-5.549-6.721-9.646-3.931a68.8,68.8,0,0,1-7.185,3.721,4.162,4.162,0,0,1-5.354-.743c-3.562-3.57-7.137-7.127-10.687-10.708A3.84,3.84,0,0,1,2762.79,2337.945Zm76.161-33.146a27.683,27.683,0,1,0-27.891,27.4A27.994,27.994,0,0,0,2838.951,2304.8Z" transform="translate(-1591.273 600.454)" fill="#faebcd"/>
  </g>
</svg>
