<svg xmlns="http://www.w3.org/2000/svg" width="82.008" height="82" viewBox="0 0 82.008 82">
  <g id="Grupo_956675" data-name="Grupo 956675" transform="translate(-302.992 -3929)">
    <g id="Grupo_951854" data-name="Grupo 951854" transform="translate(303 3929)">
      <path id="Trazado_621807" data-name="Trazado 621807" d="M41,0A41,41,0,1,1,0,41,41,41,0,0,1,41,0Z" fill="#ef8b53"/>
    </g>
    <g id="Grupo_962306" data-name="Grupo 962306" transform="translate(-26.729 3311.514)">
      <path id="Trazado_634278" data-name="Trazado 634278" d="M403.58,676.88c1.05.3,1.3.65,1.218,1.72a15.34,15.34,0,0,1-1.659,6.041.621.621,0,0,0,.187.919c2.287,2.006,4.571,4.016,6.824,6.06a4.464,4.464,0,1,1-6.042,6.565q-3.528-3.14-7.032-6.308a.817.817,0,0,0-1.091-.155,15.569,15.569,0,0,1-18.312-3.453,1.381,1.381,0,0,0-1.159-.515c-1.334.035-2.669.029-4,0-.425-.009-.54.122-.531.537.027,1.147.014,2.295.008,3.442a2.05,2.05,0,0,1-2.283,2.345q-18.859.009-37.717,0a2.017,2.017,0,0,1-2.265-2.272q0-29.664,0-59.327a2.07,2.07,0,0,1,2.322-2.314c1.121-.009,2.243-.034,3.363.011.551.022.662-.175.647-.677-.034-1.147-.028-2.3-.006-3.443a2.006,2.006,0,0,1,2.243-2.217c1.094-.018,2.192-.053,3.282.014.7.043.845-.2.81-.847-.055-1.011-.016-2.028-.014-3.042,0-1.755.721-2.48,2.464-2.48h40.44q1.642,0,3.283,0c1.747,0,2.49.732,2.491,2.464q0,8.287,0,16.573c0,8.22.009,16.44-.017,24.66,0,.628.16.838.778.957a15.39,15.39,0,0,1,11.965,9.839c.393.958.274,1.281-.58,1.882a1.386,1.386,0,0,1-1.661-1c-2.5-6.008-7.821-9.237-14.245-8.427a12.479,12.479,0,0,0-9.55,6.489,11.983,11.983,0,0,0-1.657,8.95A13.235,13.235,0,0,0,390.833,690.8a9.57,9.57,0,0,0,4.069-1.273,12.906,12.906,0,0,0,7.49-11.1C402.469,677.6,402.744,677.062,403.58,676.88ZM374.219,682.5c-.017-.894-.441-1.281-1.348-1.118a6.4,6.4,0,0,1-.873.04c-.319-.012-.638-.033-.958-.033q-13.405,0-26.81,0c-1.578,0-1.858-.279-1.858-1.854v-52.25c0-1.1,0-1.1-1.116-1a3.033,3.033,0,0,0-.394-.043c-.77.013-1.766-.252-2.248.13-.513.406-.158,1.447-.159,2.208q-.018,17.374-.009,34.748c0,1.223-.175,1.47-1.2,1.744-1.024-.275-1.2-.518-1.2-1.742q0-14.85,0-29.7c0-.187-.014-.375,0-.56.033-.374-.107-.55-.5-.5-.237.028-.478.027-.717.04a17.067,17.067,0,0,1-1.837-.046c-.769-.1-.893.223-.892.919q.027,28.661,0,57.322c0,.735.19.9.908.9q17.816-.035,35.633-.016c.16,0,.321-.012.48,0,.339.03.476-.1.462-.454-.029-.772-.025-1.546-.035-2.319.074-1.148.074-1.148-1.076-1.148H360.4q-10.964,0-21.928,0c-1.566,0-2.4-.707-2.4-2.145-.022-5.494-.008-10.989-.011-16.483a1.251,1.251,0,0,1,1.2-1.414c.991.249,1.193.517,1.194,1.658,0,5.012.018,10.024-.016,15.036-.005.744.138.975.939.972q16.479-.046,32.957-.022c.266,0,.532-.019.8-.029h2.311Zm28.853,6.083c-.366-.343-.753-.666-1.092-1.033s-.53-.241-.8.087a14.813,14.813,0,0,1-1.249,1.337c-1.305,1.249-1.312,1.242.2,2.359,1.936,1.75,3.848,3.528,5.819,5.239a2.038,2.038,0,1,0,2.686-3.065C406.807,691.841,404.93,690.226,403.072,688.588Zm-30.588-17.294c-.313-.01-.626-.024-.939-.03-.964-.02-1.3-.285-1.519-1.223.244-.944.524-1.164,1.5-1.18l2.394-.037a8.669,8.669,0,0,1,1.035.047,1.767,1.767,0,0,0,1.831-.887,15.458,15.458,0,0,1,10.142-5.955c.564-.092,1.372.137,1.634-.312s.057-1.187.056-1.8c.01-.186.028-.371.028-.557q0-19.377,0-38.755c0-.186-.017-.372-.025-.557.035-.112-.013-.147-.119-.129a1.934,1.934,0,0,0-.237-.028q-21.453,0-42.905-.016c-.528,0-.593.177-.593.636q.016,28.932,0,57.863c0,.472.084.64.6.63,1.867-.036,3.735.005,5.6-.021a6.2,6.2,0,0,0,6.009-5.105,23.126,23.126,0,0,0,.121-3.592c.03-1,.419-1.417,1.407-1.422,2.428-.011,4.856.007,7.284-.01a1.277,1.277,0,0,1,1.457,1.153c-.207.963-.54,1.248-1.527,1.253-1.811.008-3.623.025-5.433-.011-.592-.012-.859.1-.8.763a8.653,8.653,0,0,1-.062,1.751,8.846,8.846,0,0,1-2.542,5.2h14.635c.5.01,1.01,0,1.512.036.4.029.494-.118.462-.5a13.52,13.52,0,0,1,.037-2.307,16.772,16.772,0,0,1,1.238-4.891Z" transform="translate(0 0)" fill="#020202"/>
      <path id="Trazado_634279" data-name="Trazado 634279" d="M504.189,775.959c-.836.182-1.111.715-1.187,1.551a12.906,12.906,0,0,1-7.49,11.1c-.173-.2-.378-.126-.591-.087a12.233,12.233,0,0,1-1.565.254,14.288,14.288,0,0,1-9.725-2.9,13.968,13.968,0,0,1-5.749-11.139,24.866,24.866,0,0,1,.467-4.738,12.479,12.479,0,0,1,9.55-6.489c6.424-.81,11.748,2.419,14.245,8.427a1.386,1.386,0,0,0,1.661,1A22.431,22.431,0,0,1,504.189,775.959Zm-14.4,10.954a10.261,10.261,0,1,0-.141-20.522,10.357,10.357,0,0,0-10.135,10.268A10.244,10.244,0,0,0,489.785,786.913Z" transform="translate(-100.61 -99.079)" fill="#4266b8"/>
      <path id="Trazado_634280" data-name="Trazado 634280" d="M405.753,673.881l-2.394.037c-.976.015-1.256.236-1.5,1.18l-2.778-.032a1.277,1.277,0,0,0-1.457-1.153c-2.428.017-4.856,0-7.284.01-.988,0-1.377.427-1.407,1.422a23.127,23.127,0,0,1-.121,3.592,6.2,6.2,0,0,1-6.009,5.105c-1.867.026-3.736-.016-5.6.021-.518.01-.6-.158-.6-.63q.017-28.932,0-57.863c0-.458.065-.636.593-.635q21.453.026,42.905.016a1.924,1.924,0,0,1,.237.029l.119.129c.009.186.025.372.025.557q0,19.377,0,38.755c0,.186-.018.371-.028.557a17.831,17.831,0,0,0-5.8,1.161,17.48,17.48,0,0,0-6.973,4.875A8.687,8.687,0,0,0,405.753,673.881ZM402.1,639.438a1.326,1.326,0,0,0-1.132,1.494c.017,1.2-.019,2.4.013,3.6a1.964,1.964,0,0,0,2.084,2.047q6.239.022,12.479,0a1.934,1.934,0,0,0,2.1-2.089q.026-6.279,0-12.557a1.911,1.911,0,0,0-2.054-2.054q-6.279-.029-12.559,0a1.963,1.963,0,0,0-2.055,2.075c-.025.852.016,1.707-.012,2.559a1.387,1.387,0,0,0,1.131,1.586Q402.095,637.77,402.1,639.438Zm-9.184,28.667q5.841,0,11.683,0a4.439,4.439,0,0,0,.954-.066,1.062,1.062,0,0,0,.883-1.085,1.084,1.084,0,0,0-.851-1.191,3.031,3.031,0,0,0-.791-.078q-11.843-.006-23.686,0a3.2,3.2,0,0,0-.869.092,1.178,1.178,0,0,0,.042,2.254,4.147,4.147,0,0,0,.952.074Q387.072,668.11,392.913,668.106Zm-2.547-6.708q4.563,0,9.126,0a3.651,3.651,0,0,0,.95-.089,1.179,1.179,0,0,0-.058-2.275,3.167,3.167,0,0,0-.715-.057q-9.327,0-18.653,0a3.763,3.763,0,0,0-.559.026,1.109,1.109,0,0,0-1.036,1.13,1.1,1.1,0,0,0,.943,1.205,4.418,4.418,0,0,0,.875.062Q385.8,661.4,390.366,661.4Zm8.18-6.584c2.694,0,5.388.01,8.082-.006.87-.006,1.386-.5,1.367-1.231-.018-.688-.522-1.135-1.345-1.186-.16-.01-.32,0-.48,0q-7.642,0-15.284,0a3.66,3.66,0,0,0-.95.087,1.178,1.178,0,0,0,.054,2.273,4.059,4.059,0,0,0,.874.061Q394.705,654.819,398.546,654.814Zm-9.705-15.372c2.615,0,5.23.008,7.845,0,.93,0,1.491-.476,1.5-1.2s-.564-1.2-1.474-1.224c-.107,0-.214,0-.32,0q-7.605,0-15.21,0a3.914,3.914,0,0,0-.949.091,1.048,1.048,0,0,0-.792.908,1.144,1.144,0,0,0,.418,1.14,1.759,1.759,0,0,0,1.219.283Q384.958,639.443,388.841,639.442Zm-.058,5.208q3.962,0,7.925,0c.924,0,1.485-.468,1.48-1.2s-.574-1.2-1.5-1.2q-7.885-.006-15.77,0c-.94,0-1.487.438-1.507,1.175-.021.774.532,1.225,1.524,1.227Q384.86,644.654,388.782,644.649Zm-.05-10.433c2.695,0,5.389.008,8.084,0a1.25,1.25,0,0,0,1.367-1.168,1.187,1.187,0,0,0-1.285-1.227q-8.125-.015-16.249,0A1.162,1.162,0,0,0,379.413,633a1.226,1.226,0,0,0,1.236,1.21c.186.014.374,0,.56,0Zm22.181,24.756c-1.813,0-3.627-.015-5.44.006-.944.01-1.455.57-1.339,1.389.094.668.575,1.025,1.479,1.027q5.28.014,10.56,0c.987,0,1.567-.464,1.574-1.208s-.57-1.21-1.555-1.214C414.433,658.966,412.673,658.972,410.913,658.972Z" transform="translate(-31.833 -5.057)" fill="#dfe8ec"/>
      <path id="Trazado_634281" data-name="Trazado 634281" d="M353.181,683.435c1.021-.274,1.2-.521,1.2-1.744q0-17.374.009-34.748c0-.76-.355-1.8.159-2.208.482-.381,1.478-.116,2.248-.13a3.015,3.015,0,0,1,.394.043q0,27.3,0,54.6a2.166,2.166,0,0,0,.009.479c.128.55.408,1.031,1,1.108a13.836,13.836,0,0,0,1.818.2q12.891-.024,25.782-.01a9.088,9.088,0,0,0,2.3-.159c.052,0,.1.007.157.012,0,1.017.7,1.834.8,2.82-.266.01-.531.029-.8.029q-16.478,0-32.957.022c-.8,0-.944-.228-.939-.972.034-5.012.02-10.024.016-15.036,0-1.141-.2-1.409-1.194-1.658Z" transform="translate(-15.931 -18.364)" fill="#dde6ea"/>
      <path id="Trazado_634282" data-name="Trazado 634282" d="M374.6,720.765c.01.773.006,1.547.035,2.319.013.354-.124.484-.462.453-.159-.014-.32,0-.48,0q-17.816,0-35.633.017c-.718,0-.908-.166-.908-.9q.034-28.66,0-57.322c0-.7.123-1.017.892-.919a17.067,17.067,0,0,0,1.837.046c0,.373.008.747.008,1.121q0,26.574,0,53.147c0,1.58.46,2.035,2.046,2.035Z" transform="translate(-5.049 -31.854)" fill="#e1eaee"/>
      <path id="Trazado_634283" data-name="Trazado 634283" d="M380.387,720.8l-32.662-.006c-1.586,0-2.046-.455-2.046-2.035q0-26.573,0-53.147c0-.374,0-.747-.008-1.121.239-.012.479-.012.717-.039.393-.046.533.13.5.5-.016.185,0,.373,0,.56q0,14.85,0,29.7c0,1.225.172,1.468,1.2,1.742l0,2.649a1.251,1.251,0,0,0-1.2,1.414c0,5.494-.011,10.989.011,16.483.006,1.438.839,2.144,2.4,2.145q10.964.006,21.928,0h8.083C380.46,719.653,380.46,719.653,380.387,720.8Z" transform="translate(-10.831 -31.89)" fill="#ccdadd"/>
      <path id="Trazado_634284" data-name="Trazado 634284" d="M424.731,781.152l2.778.032c.223.938.555,1.2,1.519,1.223.313.006.626.02.939.03a2.067,2.067,0,0,1-.055.55A17.8,17.8,0,0,0,429,790.1H414.369a8.845,8.845,0,0,0,2.542-5.2,8.652,8.652,0,0,0,.062-1.751c-.061-.664.205-.775.8-.764,1.811.036,3.622.019,5.433.011C424.191,782.4,424.525,782.115,424.731,781.152Z" transform="translate(-57.483 -111.144)" fill="#d4e2e5"/>
      <path id="Trazado_634285" data-name="Trazado 634285" d="M396.543,701.039a9.085,9.085,0,0,1-2.3.159q-12.891,0-25.782.01a13.814,13.814,0,0,1-1.818-.2c-.593-.077-.873-.558-1-1.108a2.166,2.166,0,0,1-.009-.479q0-27.3,0-54.6c1.116-.1,1.116-.1,1.116,1v52.25c0,1.575.28,1.854,1.858,1.854q13.405,0,26.81,0c.319,0,.639.022.958.033A3.135,3.135,0,0,0,396.543,701.039Z" transform="translate(-24.381 -18.537)" fill="#d3e0e3"/>
      <path id="Trazado_634286" data-name="Trazado 634286" d="M475.332,783.989a24.877,24.877,0,0,0-.467,4.738,13.968,13.968,0,0,0,5.749,11.139,14.289,14.289,0,0,0,9.725,2.9,12.257,12.257,0,0,0,1.565-.254c.213-.04.418-.11.591.087a9.571,9.571,0,0,1-4.069,1.273,13.235,13.235,0,0,1-14.751-10.935A11.983,11.983,0,0,1,475.332,783.989Z" transform="translate(-97.593 -113.07)" fill="#365698"/>
      <path id="Trazado_634287" data-name="Trazado 634287" d="M552.067,839.048c1.857,1.638,3.735,3.253,5.563,4.923a2.038,2.038,0,1,1-2.686,3.065c-1.97-1.711-3.883-3.488-5.819-5.239a7.917,7.917,0,0,0,1.37-1.076C551.08,840.215,551.422,839.49,552.067,839.048Z" transform="translate(-148.995 -150.46)" fill="#edd255"/>
      <path id="Trazado_634288" data-name="Trazado 634288" d="M467.45,758.616a8.686,8.686,0,0,1,1.926-2.87,17.479,17.479,0,0,1,6.973-4.875,17.83,17.83,0,0,1,5.8-1.161c0,.611.21,1.343-.056,1.8s-1.07.22-1.634.312a15.458,15.458,0,0,0-10.142,5.955,1.766,1.766,0,0,1-1.831.887A8.668,8.668,0,0,0,467.45,758.616Z" transform="translate(-93.53 -89.792)" fill="#ccdadd"/>
      <path id="Trazado_634289" data-name="Trazado 634289" d="M459.929,792.825a17.8,17.8,0,0,1,.909-7.116,2.065,2.065,0,0,0,.055-.55h2.285a16.776,16.776,0,0,0-1.238,4.891,13.533,13.533,0,0,0-.037,2.307c.032.385-.062.532-.462.5C460.939,792.825,460.433,792.835,459.929,792.825Z" transform="translate(-88.408 -113.865)" fill="#b8cfd4"/>
      <path id="Trazado_634290" data-name="Trazado 634290" d="M549.62,836.392c-.645.442-.987,1.167-1.572,1.673a7.926,7.926,0,0,1-1.37,1.076c-1.51-1.116-1.5-1.11-.2-2.359a14.836,14.836,0,0,0,1.249-1.336c.268-.328.462-.452.8-.087S549.254,836.049,549.62,836.392Z" transform="translate(-146.548 -147.804)" fill="#e3c350"/>
      <path id="Trazado_634291" data-name="Trazado 634291" d="M463.265,822.921c-.107-.986-.808-1.8-.8-2.82l1.9-.009,1.215,2.829Z" transform="translate(-90.143 -137.587)" fill="#d3e0e3"/>
      <path id="Trazado_634292" data-name="Trazado 634292" d="M463.66,817.649l-1.9.009c-.052-.005-.1-.009-.157-.012a3.126,3.126,0,0,1-.165-1.075,6.414,6.414,0,0,0,.873-.04C463.219,816.368,463.643,816.756,463.66,817.649Z" transform="translate(-89.442 -135.145)" fill="#b8cfd4"/>
      <path id="Trazado_634293" data-name="Trazado 634293" d="M513,625.19l-.119-.129C512.992,625.044,513.04,625.078,513,625.19Z" transform="translate(-124.385 -5.142)" fill="#ccdadd"/>
      <path id="Trazado_634294" data-name="Trazado 634294" d="M493.243,793.273a10.244,10.244,0,0,1-10.276-10.255,10.244,10.244,0,0,1,20.488-.062A10.245,10.245,0,0,1,493.243,793.273Zm-5.656-15.618a7.673,7.673,0,0,0-1.291,9.052c2.4,4.573,8.82,5.644,12.214,2.039a7.789,7.789,0,1,0-10.923-11.092Z" transform="translate(-104.067 -105.439)" fill="#020203"/>
      <path id="Trazado_634295" data-name="Trazado 634295" d="M453.651,646.54a1.387,1.387,0,0,1-1.131-1.586c.028-.852-.013-1.707.012-2.559a1.963,1.963,0,0,1,2.055-2.075q6.279-.032,12.559,0a1.911,1.911,0,0,1,2.054,2.054q.028,6.278,0,12.557a1.934,1.934,0,0,1-2.1,2.089q-6.24.019-12.479,0a1.964,1.964,0,0,1-2.084-2.047c-.032-1.2,0-2.4-.013-3.6a1.325,1.325,0,0,1,1.132-1.494c1.018.2,1.267.5,1.276,1.549,0,.423,0,.845,0,1.268,0,2.026,0,2.026,2.066,1.893,3.1.01,6.191.017,9.287.037.349,0,.529-.055.528-.471q-.021-5.485,0-10.969c0-.33-.084-.477-.446-.474-3.122.023-6.244.03-9.366.042-2.064-.158-2.064-.158-2.065,1.826,0,.133,0,.265,0,.4C454.921,646.026,454.694,646.3,453.651,646.54Z" transform="translate(-83.39 -15.495)" fill="#040402"/>
      <path id="Trazado_634296" data-name="Trazado 634296" d="M398.886,754.329q-5.841,0-11.683,0a4.147,4.147,0,0,1-.952-.074,1.178,1.178,0,0,1-.042-2.254,3.2,3.2,0,0,1,.869-.092q11.843-.007,23.686,0a3.029,3.029,0,0,1,.791.078,1.083,1.083,0,0,1,.851,1.191,1.062,1.062,0,0,1-.883,1.085,4.428,4.428,0,0,1-.954.066Q404.728,754.333,398.886,754.329Z" transform="translate(-37.806 -91.281)" fill="#060707"/>
      <path id="Trazado_634297" data-name="Trazado 634297" d="M396.342,733.427q-4.563,0-9.126,0a4.422,4.422,0,0,1-.875-.062,1.1,1.1,0,0,1-.943-1.205,1.109,1.109,0,0,1,1.036-1.13,3.77,3.77,0,0,1,.559-.026q9.327,0,18.653,0a3.159,3.159,0,0,1,.715.057,1.179,1.179,0,0,1,.058,2.275,3.653,3.653,0,0,1-.95.089Q400.9,733.432,396.342,733.427Z" transform="translate(-37.808 -77.086)" fill="#060707"/>
      <path id="Trazado_634298" data-name="Trazado 634298" d="M424.99,712.907q-3.841,0-7.682,0a4.059,4.059,0,0,1-.874-.061,1.178,1.178,0,0,1-.054-2.273,3.66,3.66,0,0,1,.95-.087q7.642-.007,15.284,0c.16,0,.32-.007.48,0,.823.051,1.327.5,1.345,1.186.019.727-.5,1.226-1.367,1.231C430.378,712.917,427.684,712.907,424.99,712.907Z" transform="translate(-58.277 -63.151)" fill="#060707"/>
      <path id="Trazado_634299" data-name="Trazado 634299" d="M394.809,665.007q-3.883,0-7.765,0a1.758,1.758,0,0,1-1.219-.283,1.144,1.144,0,0,1-.418-1.141,1.048,1.048,0,0,1,.792-.908,3.923,3.923,0,0,1,.949-.091q7.6-.008,15.21,0c.107,0,.213,0,.32,0,.911.024,1.483.5,1.474,1.224s-.569,1.193-1.5,1.2C400.039,665.015,397.424,665.007,394.809,665.007Z" transform="translate(-37.801 -30.623)" fill="#060707"/>
      <path id="Trazado_634300" data-name="Trazado 634300" d="M394.741,681.282q-3.922,0-7.845,0c-.992,0-1.545-.453-1.524-1.227.02-.737.568-1.174,1.507-1.174q7.885,0,15.77,0c.922,0,1.491.468,1.5,1.2s-.556,1.2-1.48,1.2Q398.7,681.288,394.741,681.282Z" transform="translate(-37.791 -41.69)" fill="#020202"/>
      <path id="Trazado_634301" data-name="Trazado 634301" d="M394.691,648.768h-7.524c-.187,0-.375.01-.56,0a1.226,1.226,0,0,1-1.236-1.21,1.163,1.163,0,0,1,1.237-1.184q8.125-.017,16.249,0a1.187,1.187,0,0,1,1.285,1.227,1.25,1.25,0,0,1-1.367,1.168C400.08,648.775,397.386,648.768,394.691,648.768Z" transform="translate(-37.791 -19.608)" fill="#020203"/>
      <path id="Trazado_634302" data-name="Trazado 634302" d="M469.15,730.991c1.76,0,3.52-.005,5.28,0,.985,0,1.563.465,1.555,1.213s-.587,1.206-1.574,1.208q-5.28.012-10.56,0c-.9,0-1.385-.359-1.479-1.027-.116-.819.4-1.379,1.339-1.389C465.523,730.977,467.337,730.991,469.15,730.991Z" transform="translate(-90.07 -77.077)" fill="#060707"/>
      <path id="Trazado_634303" data-name="Trazado 634303" d="M456.047,651.588c1.043-.237,1.27-.514,1.279-1.566,0-.133,0-.265,0-.4,0-1.984,0-1.984,2.065-1.826v11.836c-2.066.133-2.066.133-2.066-1.893,0-.423,0-.845,0-1.268-.009-1.05-.258-1.351-1.276-1.549Q456.049,653.256,456.047,651.588Z" transform="translate(-85.786 -20.543)" fill="#e3c350"/>
      <path id="Trazado_634304" data-name="Trazado 634304" d="M496.983,782.73a7.29,7.29,0,0,1,7.777-2.16,7.819,7.819,0,0,1,3.147,13.251,7.781,7.781,0,0,0-.8.023,8.716,8.716,0,0,1-8.664-3.729A9.411,9.411,0,0,1,496.983,782.73Z" transform="translate(-113.463 -110.513)" fill="#e1eaee"/>
      <path id="Trazado_634305" data-name="Trazado 634305" d="M492.7,788.034a9.412,9.412,0,0,0,1.461,7.386,8.716,8.716,0,0,0,8.664,3.729,7.763,7.763,0,0,1,.8-.023c-3.394,3.6-9.81,2.533-12.214-2.039A7.673,7.673,0,0,1,492.7,788.034Z" transform="translate(-109.18 -115.817)" fill="#d3e0e3"/>
      <path id="Trazado_634306" data-name="Trazado 634306" d="M466.47,659.675V647.839c3.122-.012,6.244-.02,9.366-.042.362,0,.447.145.446.474q-.012,5.485,0,10.969c0,.416-.178.474-.528.471C472.661,659.692,469.566,659.685,466.47,659.675Z" transform="translate(-92.864 -20.584)" fill="#edd255"/>
    </g>
  </g>
</svg>
