<svg xmlns="http://www.w3.org/2000/svg" width="82" height="82" viewBox="0 0 82 82">
  <g id="Grupo_968859" data-name="Grupo 968859" transform="translate(-193 -19655)">
    <rect id="Rectángulo_307292" data-name="Rectángulo 307292" width="82" height="82" transform="translate(193 19655)" fill="none"/>
    <g id="Grupo_968860" data-name="Grupo 968860" transform="translate(-1131.613 19041.576)">
      <path id="Trazado_633797" data-name="Trazado 633797" d="M1373.919,805.79c-.14.169-.336.138-.518.138q-13.4,0-26.8,0a.729.729,0,0,1-.123-.021,1.221,1.221,0,0,0,.6-1.142c-.014-2.011,0-4.023-.008-6.034,0-.764-.319-1.151-.909-1.166-.617-.015-.964.391-.967,1.175-.007,1.99.005,3.981-.007,5.972a1.244,1.244,0,0,0,.613,1.2c-2,.007-4.005.02-6.008.015a2.772,2.772,0,0,1-.654-.164,1.379,1.379,0,0,0,.366-1.014c-.006-2.269,0-4.539-.005-6.809,0-.769-.189-.994-.95-1.223q0-1.225,0-2.45c.727-.172.942-.414.952-1.149.016-1.223-.021-2.448.023-3.669a6.379,6.379,0,0,1,4.773-6.043c1.857-.5,3.739-.913,5.6-1.407a.715.715,0,0,1,.908.338,10.24,10.24,0,0,0,16.14.7,4.031,4.031,0,0,1,1.165.12,8.631,8.631,0,0,1,5.968,4.33c.578,1.026,1.106,2.08,1.693,3.1a4.047,4.047,0,0,0,.886,1.176,3.756,3.756,0,0,0,3.842.609,1.9,1.9,0,0,0,2.829-.465c1.924-2.2,3.859-4.383,5.766-6.593.318-.369.495-.359.8-.011.477.543,1,1.044,1.507,1.563a2.763,2.763,0,0,0-.824.744c-.526.581-1.028,1.184-1.543,1.775-.909,1.042-1.824,2.08-2.732,3.123q-2.013,2.31-4.021,4.625c-1.028,1.184-2.029,2.393-3.091,3.545-.446.483-.786,1.135-1.532,1.272-.607-.592-1.2-1.2-1.827-1.77a1.089,1.089,0,0,1-.422-1.026,3.117,3.117,0,0,0,0-.5c-.014-.7-.34-1.08-.917-1.086s-.945.387-.948,1.064c-.009,2.071,0,4.143-.008,6.214A1.431,1.431,0,0,0,1373.919,805.79Z" transform="translate(-2.87 -119.642)" fill="#e68e97"/>
      <path id="Trazado_633798" data-name="Trazado 633798" d="M1364.07,663.388a10.24,10.24,0,0,1-16.14-.7.715.715,0,0,0-.908-.338c-1.86.494-3.742.9-5.6,1.407a6.379,6.379,0,0,0-4.773,6.043c-.044,1.222-.007,2.446-.023,3.669-.01.735-.225.977-.952,1.149-.506-.073-.9-.325-.895-.863a26.636,26.636,0,0,1,.152-5.337,8.071,8.071,0,0,1,5.418-6.273.7.7,0,0,0,.542-.792q-.019-11.636-.005-23.273a15.354,15.354,0,0,1,26.89-10.3c.635.732.652.922.155,1.745a1.234,1.234,0,0,1-1.526-.447,12.912,12.912,0,0,0-7.821-4.4,10.843,10.843,0,0,0-4.868.007,13.294,13.294,0,0,0-10.449,9.556c-.691,2.179-.464,4.431-.516,6.662-.012.509.106.616.578.4a2.035,2.035,0,0,1,.848-.158c.4.007.487-.169.474-.525a2.44,2.44,0,0,1,.853-1.986,17.354,17.354,0,0,1,2.689-2c2.825-1.679,5.672-2.07,8.6-.214a15.88,15.88,0,0,0,8.972,2.479,3.481,3.481,0,0,1,1.151.234,1.793,1.793,0,0,1,.869,1.361c.005.457.114.684.62.662.445-.02,1.056.432,1.259.189.24-.287.094-.9.1-1.377a17.178,17.178,0,0,0-.918-6.836,1.229,1.229,0,0,1,.322-1.6c.932-.054,1.1.052,1.432.921a15.961,15.961,0,0,1,1.018,5.84q0,11.29-.01,22.58a.982.982,0,0,0,.561,1.017,9.666,9.666,0,0,1,3.838,4.043c.925,1.749,1.866,3.49,2.8,5.236.264-.089.371-.3.517-.47,1.712-1.945,3.412-3.9,5.133-5.839a1.364,1.364,0,0,0,.38-.99q-.027-6.5-.02-13c0-1.2.415-1.938,1.284-2.043,1.5-.18,2.529-.176,3,1.22a1.035,1.035,0,0,0,1.042.742,1.105,1.105,0,0,0,1.04-.754,2.539,2.539,0,0,1,3.566-.967,1.758,1.758,0,0,1,.711,1.568c-.01,3.069,0,6.137-.01,9.206a1.649,1.649,0,0,0,.313,1.025,4.747,4.747,0,0,1-.361,5.863q-5.919,6.8-11.867,13.582c-1.037,1.186-2.08,2.367-3.111,3.558a4.117,4.117,0,0,1-6.493.262c-.433-.432-.859-.872-1.4-1.418,0,.883,0,1.6,0,2.317,0,1.082-.473,1.432-1.489,1.113a1.432,1.432,0,0,1-.384-.948c.011-2.071,0-4.142.008-6.214,0-.677.372-1.07.948-1.064s.9.391.917,1.086a3.12,3.12,0,0,1,0,.5,1.09,1.09,0,0,0,.422,1.026c.627.57,1.22,1.178,1.827,1.77.123.137.241.281.371.411,1.4,1.4,2.61,1.364,3.9-.111q2.376-2.713,4.75-5.428c2.17-2.481,4.333-4.967,6.513-7.437.269-.3.333-.494-.005-.8-.618-.55-1.193-1.146-1.786-1.723-.505-.519-1.03-1.02-1.507-1.563-.306-.348-.483-.358-.8.011-1.907,2.211-3.842,4.4-5.766,6.593a1.9,1.9,0,0,1-2.829.465c-.2-.311-.424-.611-.6-.936-.926-1.711-1.832-3.432-2.76-5.142a7.773,7.773,0,0,0-5.073-3.986c-.88-.226-1.806-.271-2.684-.5-.987-.259-1.766-.19-2.192.876A1.88,1.88,0,0,1,1364.07,663.388Zm25.612,2.255c.664.677,1.331,1.352,1.989,2.034.152.158.255.226.432.015.7-.837,1.479-1.621,2.125-2.5a2.669,2.669,0,0,0,.129-3.038,2.591,2.591,0,0,0-2.546-1.419,2.429,2.429,0,0,0-1.931.8c-.638.671-1.225,1.39-1.849,2.075-.163.179-.153.282.017.442C1388.6,664.575,1389.14,665.112,1389.683,665.643Zm1.145-6.735a5.355,5.355,0,0,1,2.271.092c.378.128.5.043.5-.377-.017-2.5-.006-5-.013-7.506,0-.181.1-.436-.238-.469a.463.463,0,0,0-.529.31,3.016,3.016,0,0,1-1.995,1.637,2.962,2.962,0,0,1-3.327-1.58c-.151-.279-.3-.441-.613-.361-.337.087-.182.38-.183.574q-.016,5.22,0,10.439c0,.15-.073.327.122.493C1387.984,660.864,1388.987,659.358,1390.828,658.908Zm-24.066-6.628a12.316,12.316,0,0,1-4.016,4.657.773.773,0,0,0-.287.311,1.918,1.918,0,0,0,1.451,2.615c1,.182,2,.307,3.006.456.73.136,1.466.244,2.187.417.539.129.68-.033.677-.57-.018-3.836-.01-7.671-.01-11.507,0-.909,0-.9-.857-.734a4.379,4.379,0,0,1-.744.048c-.209,0-.357.044-.374.3A13.038,13.038,0,0,1,1366.761,652.28Zm-4.887,10.626a5.058,5.058,0,0,0,.975-1.028c.147-.177.168-.278-.1-.393a3.346,3.346,0,0,1-2.2-3.028c-.016-.25-.074-.33-.334-.224a16.26,16.26,0,0,1-2.508.649,12.422,12.422,0,0,1-5.712-.754,3.6,3.6,0,0,1-2.191,3.494c-.317.14-.165.274-.046.406a13.6,13.6,0,0,0,.941.991C1353.854,665.891,1359.053,665.835,1361.875,662.905Zm-6.855-5.958a.688.688,0,0,0,.169.069,9.69,9.69,0,0,0,10.616-8.067,68.99,68.99,0,0,0,.151-7.818c.009-.305-.153-.318-.386-.327-.786-.033-1.571-.084-2.356-.129-.81-.163-1.628-.3-2.429-.493a18.759,18.759,0,0,1-5.26-2.316,5.325,5.325,0,0,0-5.058-.3,13.407,13.407,0,0,0-3.52,2.3,1.135,1.135,0,0,0-.438.963c.017,2.176,0,4.353.01,6.53a8.969,8.969,0,0,0,.742,3.688A9.42,9.42,0,0,0,1355.019,656.947Zm-4.921.979c.009-.39.037-.73-.381-1.02a11.124,11.124,0,0,1-4.845-7.448c-.163-.939-.287-1.69-1.471-1.578a.244.244,0,0,1-.118-.037c-.383-.185-.531-.108-.53.357q.021,6.345,0,12.69c0,.456.111.572.574.451,1.682-.438,3.375-.831,5.062-1.252C1349.756,659.749,1350.1,659.308,1350.1,657.926Zm17.72-13.334c0,.371.024.744-.006,1.113s.127.448.467.418a1.564,1.564,0,0,0,1.464-1.549,1.59,1.59,0,0,0-1.542-1.548c-.3-.01-.4.1-.387.392C1367.833,643.809,1367.819,644.2,1367.819,644.593Zm-23.17.005c0-.414-.008-.828,0-1.241.006-.23-.063-.326-.315-.33a1.573,1.573,0,0,0-1.565,1.322,1.547,1.547,0,0,0,1.161,1.736c.637.141.714.082.716-.556C1344.65,645.218,1344.649,644.908,1344.649,644.6Z" transform="translate(0 0)" fill="#030303"/>
      <path id="Trazado_633799" data-name="Trazado 633799" d="M1441,637.933a1.229,1.229,0,0,0-.322,1.6,17.18,17.18,0,0,1,.919,6.836c0,.474.142,1.091-.1,1.378-.2.243-.814-.208-1.259-.189-.507.022-.615-.2-.62-.662a1.794,1.794,0,0,0-.869-1.361,16.881,16.881,0,0,0-.246-4.012,14.4,14.4,0,0,0-7.1-9.78c-.339-.2-.782-.264-.989-.664a12.916,12.916,0,0,1,7.821,4.4,1.233,1.233,0,0,0,1.526.447A7.057,7.057,0,0,1,1441,637.933Z" transform="translate(-71.833 -6.395)" fill="#38576e"/>
      <path id="Trazado_633800" data-name="Trazado 633800" d="M1335.773,841.157c.761.229.948.454.95,1.223.006,2.269,0,4.539.005,6.809a1.378,1.378,0,0,1-.366,1.014c-.946.373-1.5.021-1.508-.981-.01-2.294.006-4.589-.009-6.883A1.046,1.046,0,0,1,1335.773,841.157Z" transform="translate(-0.092 -164.088)" fill="#070405"/>
      <path id="Trazado_633801" data-name="Trazado 633801" d="M1365.8,852.912a1.244,1.244,0,0,1-.613-1.2c.012-1.991,0-3.981.007-5.972,0-.785.35-1.19.967-1.175.59.014.906.4.909,1.166.007,2.011-.006,4.023.008,6.034a1.222,1.222,0,0,1-.6,1.142Z" transform="translate(-22.867 -166.649)" fill="#070405"/>
      <path id="Trazado_633802" data-name="Trazado 633802" d="M1509.117,801.653c.593.577,1.169,1.174,1.786,1.723.338.3.275.49.005.8q-3.271,3.706-6.513,7.437l-4.75,5.428c-1.292,1.475-2.507,1.51-3.9.111-.13-.131-.248-.274-.371-.411.745-.138,1.086-.789,1.531-1.272,1.063-1.152,2.064-2.361,3.091-3.545q2.009-2.314,4.021-4.625c.909-1.043,1.823-2.081,2.732-3.123.515-.591,1.017-1.194,1.543-1.774A2.76,2.76,0,0,1,1509.117,801.653Z" transform="translate(-120.59 -134.435)" fill="#de7882"/>
      <path id="Trazado_633803" data-name="Trazado 633803" d="M1452.413,782.214a1.882,1.882,0,0,0,.244-.353c.426-1.067,1.205-1.135,2.192-.877.878.23,1.8.276,2.684.5a7.774,7.774,0,0,1,5.073,3.986c.928,1.709,1.834,3.431,2.76,5.142.176.325.4.625.6.936a3.756,3.756,0,0,1-3.842-.609,4.039,4.039,0,0,1-.885-1.176c-.587-1.021-1.116-2.075-1.693-3.1a8.632,8.632,0,0,0-5.968-4.33A4.037,4.037,0,0,0,1452.413,782.214Z" transform="translate(-88.342 -118.826)" fill="#de7882"/>
      <path id="Trazado_633804" data-name="Trazado 633804" d="M1390.5,700.624a9.42,9.42,0,0,1-7.758-5.9,8.971,8.971,0,0,1-.742-3.688c-.006-2.176.007-4.353-.01-6.53a1.135,1.135,0,0,1,.438-.963,13.411,13.411,0,0,1,3.52-2.3,5.325,5.325,0,0,1,5.058.3,18.757,18.757,0,0,0,5.26,2.316c.8.2,1.619.331,2.43.493-.007.724,0,1.449-.025,2.173-.062,1.982.071,3.963-.1,5.948A9.011,9.011,0,0,1,1390.5,700.624Zm1.184-3.759a5.091,5.091,0,0,0,2.395-.564.937.937,0,0,0,.547-1.274.917.917,0,0,0-1.313-.418,3.51,3.51,0,0,1-3.17,0,.893.893,0,0,0-1.312.406.918.918,0,0,0,.524,1.276A4.936,4.936,0,0,0,1391.682,696.865Zm-4.183-8.479c0-.373.023-.748-.005-1.118a.85.85,0,0,0-.884-.858.819.819,0,0,0-.923.739,9.458,9.458,0,0,0,0,2.416.817.817,0,0,0,.927.735.843.843,0,0,0,.882-.857C1387.519,689.092,1387.5,688.739,1387.5,688.387Zm10.3-.038c0-.332.015-.664,0-.995a.93.93,0,0,0-.938-.952.919.919,0,0,0-.919.966q-.027.994,0,1.99a.907.907,0,0,0,.933.949.924.924,0,0,0,.925-.963C1397.811,689.013,1397.8,688.68,1397.8,688.349Z" transform="translate(-35.479 -43.677)" fill="#f5cdbf"/>
      <path id="Trazado_633805" data-name="Trazado 633805" d="M1382.755,630.256c.208.4.651.468.989.664a14.4,14.4,0,0,1,7.1,9.78,16.861,16.861,0,0,1,.246,4.012,3.483,3.483,0,0,0-1.151-.234,15.881,15.881,0,0,1-8.971-2.479c-2.933-1.856-5.779-1.465-8.6.214a17.351,17.351,0,0,0-2.689,2,2.44,2.44,0,0,0-.853,1.986c.013.357-.072.532-.474.525a2.037,2.037,0,0,0-.849.158c-.472.213-.589.106-.578-.4.052-2.231-.175-4.483.516-6.662a13.294,13.294,0,0,1,10.449-9.556A10.845,10.845,0,0,1,1382.755,630.256Z" transform="translate(-24.169 -5.573)" fill="#3e5e7b"/>
      <path id="Trazado_633806" data-name="Trazado 633806" d="M1374.274,733.758c0,1.381-.342,1.823-1.707,2.163-1.687.421-3.38.814-5.062,1.252-.463.121-.576,0-.574-.451q.017-6.345,0-12.69c0-.466.147-.542.53-.357a.245.245,0,0,0,.118.037c1.184-.112,1.308.639,1.472,1.578a11.124,11.124,0,0,0,4.844,7.448C1374.311,733.027,1374.283,733.368,1374.274,733.758Z" transform="translate(-24.175 -75.831)" fill="#3d5e7b"/>
      <path id="Trazado_633807" data-name="Trazado 633807" d="M1406.711,769.976c-2.822,2.929-8.02,2.986-11.174.114a13.608,13.608,0,0,1-.941-.991c-.118-.132-.271-.267.046-.406a3.6,3.6,0,0,0,2.191-3.494,12.421,12.421,0,0,0,5.712.754c0,.391,0,.782.007,1.173a2.715,2.715,0,0,0,1.973,2.545C1405.241,769.831,1405.982,769.878,1406.711,769.976Z" transform="translate(-44.836 -107.071)" fill="#f4cdbf"/>
      <path id="Trazado_633808" data-name="Trazado 633808" d="M1416.116,711.482a9.011,9.011,0,0,0,8.067-8.151c.175-1.986.041-3.966.1-5.948.023-.724.017-1.449.025-2.173.785.044,1.57.1,2.356.129.233.01.395.022.386.327a68.989,68.989,0,0,1-.151,7.818,9.691,9.691,0,0,1-10.617,8.067A.692.692,0,0,1,1416.116,711.482Z" transform="translate(-61.097 -54.535)" fill="#f1b1a0"/>
      <path id="Trazado_633809" data-name="Trazado 633809" d="M1463.2,728.377a13.03,13.03,0,0,0,1.033-4.006c.017-.256.165-.3.374-.3a4.38,4.38,0,0,0,.744-.048c.859-.167.857-.174.857.734,0,3.836-.009,7.672.01,11.507,0,.537-.138.7-.677.57-.721-.173-1.457-.281-2.187-.418q.006-3.739.011-7.478C1463.369,728.739,1463.415,728.519,1463.2,728.377Z" transform="translate(-96.443 -76.098)" fill="#37566d"/>
      <path id="Trazado_633810" data-name="Trazado 633810" d="M1547.182,743.42c-1.84.45-2.843,1.955-4.011,3.252-.195-.166-.121-.343-.122-.493q-.008-5.219,0-10.439c0-.194-.154-.487.183-.574.309-.08.462.082.613.361a2.962,2.962,0,0,0,3.328,1.58Q1547.179,740.263,1547.182,743.42Z" transform="translate(-156.354 -84.511)" fill="#89acdc"/>
      <path id="Trazado_633811" data-name="Trazado 633811" d="M1449.828,741.747c.211.142.164.361.164.562q0,3.739-.011,7.478c-1-.15-2.009-.274-3.006-.456a1.918,1.918,0,0,1-1.451-2.615.775.775,0,0,1,.287-.311A12.314,12.314,0,0,0,1449.828,741.747Z" transform="translate(-83.067 -89.467)" fill="#3d5e7b"/>
      <path id="Trazado_633812" data-name="Trazado 633812" d="M1559.7,743.451q0-3.156-.005-6.313a3.016,3.016,0,0,0,1.994-1.637.464.464,0,0,1,.53-.31c.339.033.238.288.238.469.006,2.5,0,5,.013,7.506,0,.42-.121.5-.5.377A5.358,5.358,0,0,0,1559.7,743.451Z" transform="translate(-168.873 -84.543)" fill="#5e8ed0"/>
      <path id="Trazado_633813" data-name="Trazado 633813" d="M1557.255,775.639a2.591,2.591,0,0,1,2.546,1.419,2.669,2.669,0,0,1-.129,3.038c-.647.878-1.421,1.663-2.125,2.5-.177.211-.28.143-.432-.015-.658-.683-1.325-1.357-1.989-2.034a7.037,7.037,0,0,0,1.968-2.57A2.981,2.981,0,0,0,1557.255,775.639Z" transform="translate(-165.442 -114.904)" fill="#f1b1a0"/>
      <path id="Trazado_633814" data-name="Trazado 633814" d="M1431.07,770.154c-.73-.1-1.47-.146-2.186-.305a2.715,2.715,0,0,1-1.973-2.545c-.01-.391-.005-.782-.007-1.173a16.262,16.262,0,0,0,2.508-.649c.261-.106.318-.026.334.224a3.347,3.347,0,0,0,2.2,3.028c.268.115.248.216.1.393A5.062,5.062,0,0,1,1431.07,770.154Z" transform="translate(-69.195 -107.248)" fill="#f1b1a0"/>
      <path id="Trazado_633815" data-name="Trazado 633815" d="M1551.936,775.646a2.981,2.981,0,0,1-.162,2.338,7.04,7.04,0,0,1-1.968,2.57c-.543-.531-1.082-1.068-1.633-1.59-.17-.16-.18-.263-.017-.442.624-.685,1.212-1.4,1.849-2.075A2.43,2.43,0,0,1,1551.936,775.646Z" transform="translate(-160.123 -114.911)" fill="#f4cdbf"/>
      <path id="Trazado_633816" data-name="Trazado 633816" d="M1467.414,706.2c0-.392.014-.784,0-1.175-.014-.292.083-.4.386-.392a1.59,1.59,0,0,1,1.542,1.548,1.564,1.564,0,0,1-1.464,1.549c-.341.03-.5-.039-.467-.418S1467.414,706.572,1467.414,706.2Z" transform="translate(-99.595 -61.609)" fill="#edc7b9"/>
      <path id="Trazado_633817" data-name="Trazado 633817" d="M1368.835,706.211c0,.31,0,.62,0,.931,0,.637-.079.7-.716.556a1.547,1.547,0,0,1-1.161-1.736,1.573,1.573,0,0,1,1.565-1.322c.252,0,.321.1.315.33C1368.828,705.383,1368.835,705.8,1368.835,706.211Z" transform="translate(-24.187 -61.613)" fill="#f1b1a0"/>
      <path id="Trazado_633818" data-name="Trazado 633818" d="M1411.967,738.213a4.947,4.947,0,0,1-2.33-.571.918.918,0,0,1-.523-1.276.893.893,0,0,1,1.312-.405,3.511,3.511,0,0,0,3.17,0,.917.917,0,0,1,1.313.418.937.937,0,0,1-.547,1.274A5.1,5.1,0,0,1,1411.967,738.213Z" transform="translate(-55.765 -85.024)" fill="#070405"/>
      <path id="Trazado_633819" data-name="Trazado 633819" d="M1398.4,705.434c0,.352.02.706,0,1.056a.843.843,0,0,1-.882.857.817.817,0,0,1-.927-.735,9.458,9.458,0,0,1,0-2.416.819.819,0,0,1,.923-.739.85.85,0,0,1,.884.858C1398.418,704.687,1398.4,705.061,1398.4,705.434Z" transform="translate(-46.376 -60.725)" fill="#070405"/>
      <path id="Trazado_633820" data-name="Trazado 633820" d="M1439.742,705.376c0,.332.013.664,0,.995a.924.924,0,0,1-.925.963.907.907,0,0,1-.933-.949q-.029-.994,0-1.99a.919.919,0,0,1,.919-.966.93.93,0,0,1,.938.952C1439.757,704.712,1439.742,705.045,1439.742,705.376Z" transform="translate(-77.424 -60.705)" fill="#030303"/>
    </g>
  </g>
</svg>
