<svg xmlns="http://www.w3.org/2000/svg" width="82" height="82.004" viewBox="0 0 82 82.004">
  <g id="Grupo_962303" data-name="Grupo 962303" transform="translate(-1020 -23413.452)">
    <g id="Grupo_956688" data-name="Grupo 956688" transform="translate(717 19484.457)">
      <g id="Grupo_951854" data-name="Grupo 951854" transform="translate(303 3929)">
        <path id="Trazado_621807" data-name="Trazado 621807" d="M41,0A41,41,0,1,1,0,41,41,41,0,0,1,41,0Z" fill="#ef8b53"/>
      </g>
      <g id="Grupo_962302" data-name="Grupo 962302" transform="translate(-304.708 3287.621)">
        <path id="Trazado_634204" data-name="Trazado 634204" d="M625.136,642.663c.149-.555.343-1.077.979-1.249a1.172,1.172,0,0,1,1.443.919,5.248,5.248,0,0,1,.047.957q0,18.012-.017,36.025c0,.774.185.988.963.963,1.92-.061,3.844-.052,5.765,0,.663.017.773-.209.769-.806-.026-3.576-.014-7.152-.012-10.727,0-1.9.825-2.724,2.723-2.728,1.548,0,3.1-.028,4.644.014.581.016.7-.182.7-.722-.022-3.576-.013-7.152-.011-10.727,0-2.012.8-2.817,2.8-2.818q6.366,0,12.733,0,8.178,0,16.356,0c1.955,0,2.772.815,2.778,2.763,0,.908.013,1.815,0,2.722-.016.944-.286,1.257-1.223,1.483-1.058-.276-1.161-.49-1.188-2.067-.014-.816.368-1.934-.166-2.364-.509-.409-1.583-.094-2.406-.142-.472-.028-.582.149-.571.591.029,1.093.021,2.187.006,3.281a1.622,1.622,0,0,1-2.308,1.664,3.681,3.681,0,0,0-2.757-.01,1.637,1.637,0,0,1-2.391-1.649c-.03-.853-.007-1.707-.007-2.56,0-1.367,0-1.367-1.357-1.272a7.656,7.656,0,0,1-.875-.043c-.722-.115-.917.157-.908.889.042,3.409.033,6.819,0,10.229,0,.586.123.76.738.755,4-.031,7.994-.016,11.991-.016,1.072,0,1.072,0,.968-1.1.015-.638.067-1.279.037-1.915a1.369,1.369,0,0,1,1.183-1.614c1.011.31,1.223.592,1.231,1.66.005.8.026,1.6-.009,2.4-.021.47.155.581.6.575,1.547-.023,3.094-.01,4.642-.009,2.044,0,2.824.792,2.824,2.865,0,3.547.015,7.094-.014,10.641,0,.591.127.767.74.754q3.04-.064,6.082,0c.676.015.834-.189.833-.845q-.029-17.841-.014-35.683c0-.267,0-.533,0-.8.012-.958.342-1.481,1.034-1.549.815-.081,1.21.407,1.4,1.128-.008.185-.023.371-.023.557q0,39.1,0,78.2c0,.319.015.638.023.957-.19.721-.586,1.21-1.4,1.129-.692-.069-1.02-.592-1.033-1.553-.015-1.06-.015-1.06-1.061-1.06q-31.913,0-63.826-.02c-.807,0-1.118.185-.992,1a1.53,1.53,0,0,1-.14,1.015,1.14,1.14,0,0,1-1.122.626,1.281,1.281,0,0,1-1.163-1.135c.008-.132.024-.265.024-.4q0-39.193,0-78.387C625.193,643.191,625.156,642.927,625.136,642.663Zm42.132,36.356c.012-3.381.02-6.762.042-10.144,0-.342-.1-.472-.45-.46-.692.023-1.386.032-2.077,0-.446-.022-.6.111-.583.572q.047,1.676,0,3.355a1.624,1.624,0,0,1-2.222,1.641,3.969,3.969,0,0,0-2.98,0,1.643,1.643,0,0,1-2.281-1.654c-.028-.851-.006-1.7-.006-2.557,0-1.414,0-1.414-1.458-1.315a6,6,0,0,1-.8-.042c-.726-.131-.867.179-.86.865.037,3.44.028,6.88.006,10.32,0,.523.136.677.667.675q6.2-.032,12.4,0c.476,0,.709-.106.634-.616C667.278,679.446,667.281,679.231,667.268,679.019Zm16.15,0,0-10.409c.022-.1,0-.173-.128-.151-.8-.011-1.6,0-2.4-.043-.444-.022-.6.111-.591.575.03,1.119.033,2.24,0,3.359a1.6,1.6,0,0,1-2.219,1.625,3.964,3.964,0,0,0-2.98.019,1.63,1.63,0,0,1-2.244-1.689c-.016-.853,0-1.707,0-2.56,0-1.381,0-1.381-1.421-1.289a7.128,7.128,0,0,1-.875-.042c-.717-.12-.879.17-.872.868.039,3.436.028,6.873.007,10.31,0,.509.116.688.659.686q6.236-.033,12.472,0c.485,0,.7-.118.623-.62A6.1,6.1,0,0,1,683.418,679.017ZM647.4,654.2c-.4-.012-.8.006-1.2-.044-.587-.073-.7.188-.693.723q.033,5.2,0,10.393c0,.589.137.766.748.762,4-.029,8-.015,11.995-.015,1.033,0,1.033,0,.977-1.1.008-3.415.008-6.831.034-10.246,0-.444-.157-.534-.553-.517-.666.028-1.336.033-2,0-.455-.023-.595.127-.583.582.029,1.12.038,2.243,0,3.362a1.613,1.613,0,0,1-2.308,1.592,3.73,3.73,0,0,0-2.832.02,1.634,1.634,0,0,1-2.313-1.674c-.015-.881,0-1.762,0-2.642C648.673,654.118,648.673,654.118,647.4,654.2Zm3.771,24.813c.012-3.355.017-6.709.044-10.063,0-.43-.145-.551-.552-.536-.692.026-1.386.03-2.077,0-.428-.019-.543.137-.534.549.025,1.118.022,2.237,0,3.355a1.6,1.6,0,0,1-2.182,1.665,4.05,4.05,0,0,0-3.056.015,1.6,1.6,0,0,1-2.2-1.574c-.041-.85-.014-1.7-.015-2.556,0-1.515,0-1.515-1.535-1.413a6.636,6.636,0,0,1-.8-.042c-.683-.117-.825.169-.819.823.035,3.443.022,6.886.009,10.329,0,.458.025.717.622.713,4.165-.028,8.33-.022,12.495-.005.48,0,.7-.119.633-.623C651.188,679.44,651.189,679.226,651.176,679.014ZM684.7,712.332c.009-1.079.056-2.16.014-3.238a1.471,1.471,0,0,1,1.142-1.717c1.217.448,1.274.535,1.275,1.917,0,1.2.028,2.4-.013,3.6-.017.509.144.618.625.609,1.628-.03,3.258-.057,4.884.009.74.03.863-.213.861-.891q-.036-12.089,0-24.179c0-.755-.152-.963-.942-.962q-31.994.038-63.988.02a2.631,2.631,0,0,1-.4,0c-.473-.072-.571.148-.571.585q.017,12.409,0,24.819c0,.536.2.611.657.6,1.04-.027,2.085-.054,3.122.008.64.038.729-.2.725-.765-.027-3.069-.014-6.138-.012-9.207,0-1.158.15-1.369,1.206-1.76,1.042.36,1.192.561,1.194,1.683,0,3.067.021,6.134-.015,9.2-.008.655.151.85.827.848q11.363-.036,22.726,0c.732,0,.871-.208.867-.891-.03-4.72-.021-9.44-.013-14.16,0-1.539.663-2.2,2.189-2.21,1.014-.01,2.028-.02,3.041.006.449.012.644-.131.583-.589-.028-.21-.025-.424-.036-.636.011-.639,0-1.279.038-1.916.023-.411-.112-.557-.537-.556q-4.6.021-9.2,0c-.424,0-.544.132-.536.545.023,1.252.012,2.5.007,3.757-.008,2.026-1.358,3.052-3.219,2.307a4.14,4.14,0,0,0-3.272.008c-1.838.716-3.176-.276-3.194-2.258-.012-1.252-.008-2.5,0-3.757,0-.35,0-.609-.487-.6-2.051.035-4.1.038-6.152.053-.979-.015-1.96,0-2.936-.057-.583-.034-.708.2-.7.73.031,1.43-.011,2.862.019,4.293a1.35,1.35,0,0,1-1.209,1.574c-.978-.307-1.193-.579-1.2-1.6-.009-1.6,0-3.2,0-4.8a2.458,2.458,0,0,1,1-2.156,3.226,3.226,0,0,1,1.995-.43H664.07c.214,0,.428,0,.641.01a2.345,2.345,0,0,1,2.376,2.472c.016.934.052,1.871-.013,2.8-.048.692.193.822.843.818,5.659-.027,11.318-.019,16.977-.013,1.571,0,2.237.68,2.241,2.246q.006,2.322,0,4.643c0,1.057-.231,1.342-1.263,1.612a1.384,1.384,0,0,1-1.149-1.567c.035-1.306-.014-2.614.021-3.919.013-.49-.12-.63-.617-.624-2.08.029-4.161.033-6.241,0-.567-.01-.662.206-.651.7.027,1.279.017,2.56.007,3.839-.012,1.563-1.049,2.345-2.487,1.73a4.091,4.091,0,0,0-3.487-.007c-1.461.63-2.523-.179-2.533-1.779q-.011-1.96,0-3.92c0-.312.021-.566-.437-.556-1.571.036-3.143.039-4.715.054-.531-.015-1.066,0-1.594-.054-.546-.053-.727.117-.725.694q.036,6.72,0,13.439c0,.533.1.728.687.726q11.082-.031,22.165,0c.482,0,.7-.106.615-.613A4.632,4.632,0,0,1,684.7,712.332Zm-24.17,6.024h31.39c1.561,0,1.514,0,1.579-1.533.033-.782-.2-.958-.966-.958q-31.67.034-63.339.018c-1.6,0-1.563,0-1.618,1.566-.026.738.189.926.925.924Q644.52,718.335,660.535,718.355Zm.091-35.691H629.07c-1.463,0-1.413,0-1.482,1.455-.038.8.176,1,.993,1q31.676-.039,63.351-.021c1.545,0,1.507,0,1.559-1.529.025-.72-.164-.925-.909-.923Q676.6,682.687,660.626,682.665ZM649.64,692.57c-.614,0-1.231.036-1.841-.01-.56-.043-.679.2-.664.7.029.96.04,1.923,0,2.882-.029.655.162.829.761.53a3.646,3.646,0,0,1,3.38-.006,2.767,2.767,0,0,0,.3.116c.36.126.466-.022.461-.378q-.021-1.681,0-3.362c0-.345-.132-.476-.47-.469C650.922,692.58,650.281,692.572,649.64,692.57Zm21.5,9.853a3.644,3.644,0,0,1,3.337-.169c.378.186.355-.164.356-.392.005-.9,0-1.809.006-2.713,0-.314-.067-.5-.437-.493-.931.015-1.863.017-2.794,0-.411-.008-.478.2-.474.545C671.147,700.235,671.139,701.272,671.139,702.423Zm-1.3-45.284c0-.932,0-1.78,0-2.627,0-.295-.165-.322-.4-.35-2.244-.261-2.262-.249-2.262,1.948,0,.187.009.374,0,.56-.018.366.135.5.48.356A2.81,2.81,0,0,1,669.842,657.14ZM651.077,655.6v.48c0,.976,0,.974.968.809.157-.027.319-.024.476-.05.406-.069.9.455,1.148.073.209-.324.065-.877.074-1.329a5.044,5.044,0,0,1,.005-.639c.1-.64-.173-.877-.8-.781a3.2,3.2,0,0,1-.479,0C651.077,654.166,651.077,654.166,651.077,655.6Zm8.039,14.252v.4c0,1.058,0,1.056,1.044.877a5,5,0,0,1,.553-.035c.361-.021.8.405,1.015.118.194-.265.066-.766.078-1.164,0-.106,0-.213,0-.319,0-1.309,0-1.309-1.287-1.309C659.117,668.421,659.117,668.421,659.117,669.853Zm-13.458.132q0-.56,0-1.121c0-.219.007-.45-.311-.437-.741.031-1.6-.259-2.186.125-.406.264-.087,1.1-.137,1.671-.007.08.009.161,0,.24-.107.75.123,1.043.89.695a1.343,1.343,0,0,1,.787-.054c.958.164.96.157.96-.8C645.659,670.2,645.659,670.092,645.658,669.985Zm29.6-.114a3.726,3.726,0,0,1,0,.556c-.117.77.1,1.091.9.729a2.245,2.245,0,0,1,.546-.084c.4-.067.864.481,1.133.073.2-.3.051-.822.057-1.246,0-.106,0-.212,0-.318,0-1.158,0-1.158-1.189-1.158C675.263,668.423,675.263,668.423,675.263,669.871Z" transform="translate(-11.835)" fill="#050404"/>
        <path id="Trazado_634205" data-name="Trazado 634205" d="M845.621,724.6c-.008-.319-.023-.638-.023-.957q0-39.1,0-78.2c0-.186.015-.372.023-.557l3.211-.035c.005.08.015.159.015.239q0,37.132,0,74.264c0,1.76-.007,3.52-.012,5.28Z" transform="translate(-161.546 -2.361)" fill="#b0abb2"/>
        <path id="Trazado_634206" data-name="Trazado 634206" d="M618.38,645.356c.02.264.057.528.058.792q0,39.193,0,78.387c0,.133-.015.265-.024.4l-3.211.035a1.377,1.377,0,0,1-.017-.159q0-39.376.007-78.752c0-.239.025-.478.038-.716Z" transform="translate(-5.079 -2.692)" fill="#b0abb2"/>
        <path id="Trazado_634207" data-name="Trazado 634207" d="M855.677,722.311c0-1.76.012-3.52.012-5.28q0-37.132,0-74.264c0-.08-.01-.159-.015-.239a1.184,1.184,0,0,1,1.332-1.1c.677.042,1.064.584,1.085,1.434,0,.187,0,.373,0,.56v77.983c0,.187,0,.374,0,.56-.021.851-.406,1.393-1.083,1.436A1.185,1.185,0,0,1,855.677,722.311Z" transform="translate(-168.391 -0.036)" fill="#030303"/>
        <path id="Trazado_634208" data-name="Trazado 634208" d="M610.154,642.657c-.013.239-.038.477-.038.716q-.006,39.376-.007,78.752a1.406,1.406,0,0,0,.017.159,1.187,1.187,0,0,1-1.333,1.095c-.677-.042-1.063-.585-1.082-1.435,0-.187,0-.374,0-.56V643.4c0-.16,0-.32,0-.48.012-.919.385-1.443,1.082-1.522S609.944,641.749,610.154,642.657Z" transform="translate(0 -0.01)" fill="#030303"/>
        <path id="Trazado_634209" data-name="Trazado 634209" d="M744.445,681.1c1.357-.1,1.357-.1,1.357,1.272,0,.853-.023,1.708.007,2.56a1.637,1.637,0,0,0,2.391,1.649,3.68,3.68,0,0,1,2.757.01,1.622,1.622,0,0,0,2.308-1.664c.014-1.093.022-2.188-.006-3.28-.012-.442.1-.619.571-.591.823.048,1.9-.268,2.406.141.534.429.152,1.548.166,2.364.027,1.576.13,1.79,1.188,2.067q0,1.331-.005,2.661A1.369,1.369,0,0,0,756.4,689.9c.03.636-.022,1.276-.037,1.915-3.54,0-7.08,0-10.62.012a1.027,1.027,0,0,1-1.169-1.007,9.434,9.434,0,0,1-.132-1.5Q744.447,685.212,744.445,681.1Z" transform="translate(-92.854 -26.898)" fill="#f1dcb9"/>
        <path id="Trazado_634210" data-name="Trazado 634210" d="M665.561,800.919c2.051-.015,4.1-.018,6.152-.053.484-.008.489.251.486.6-.009,1.252-.013,2.5,0,3.757.018,1.982,1.356,2.974,3.194,2.258a4.14,4.14,0,0,1,3.272-.008c1.86.745,3.211-.28,3.218-2.307,0-1.252.016-2.505-.007-3.757-.008-.413.112-.547.536-.545q4.6.024,9.2,0c.424,0,.559.144.537.555-.036.637-.027,1.277-.038,1.916l-3.684.005a3.113,3.113,0,0,0-3.311,3.3c0,4.164-.012,8.328.011,12.492,0,.627-.117.887-.824.883-5.794-.028-11.587-.013-17.381-.017-1.081,0-1.354-.287-1.354-1.383Q665.561,809.767,665.561,800.919Z" transform="translate(-39.287 -108.306)" fill="#f1d7a9"/>
        <path id="Trazado_634211" data-name="Trazado 634211" d="M767.228,825.922q-.005,1.314-.01,2.627a1.471,1.471,0,0,0-1.142,1.717c.042,1.078-.006,2.158-.014,3.238H746.154c-1.131,0-1.212-.084-1.212-1.244q0-6.194,0-12.389c1.572-.015,3.144-.018,4.715-.055.457-.011.438.244.437.556q-.009,1.96,0,3.92c.009,1.6,1.071,2.409,2.533,1.779a4.091,4.091,0,0,1,3.487.007c1.437.616,2.474-.167,2.487-1.73.01-1.28.02-2.56-.007-3.839-.011-.492.084-.708.651-.7,2.08.035,4.161.031,6.241,0,.5-.007.63.133.617.623-.035,1.306.014,2.614-.021,3.919A1.384,1.384,0,0,0,767.228,825.922Z" transform="translate(-93.192 -121.172)" fill="#f3ddba"/>
        <path id="Trazado_634212" data-name="Trazado 634212" d="M665.7,875.978q-16.015,0-32.03.017c-.736,0-.951-.186-.925-.924.055-1.565.015-1.566,1.618-1.566q31.67,0,63.339-.018c.769,0,1,.175.966.958-.065,1.531-.018,1.533-1.579,1.533Z" transform="translate(-17.003 -157.623)" fill="#ead67b"/>
        <path id="Trazado_634213" data-name="Trazado 634213" d="M665.806,770q15.978,0,31.956-.018c.746,0,.934.2.91.923-.053,1.528-.014,1.529-1.559,1.529q-31.676,0-63.351.021c-.816,0-1.031-.2-.993-1,.069-1.452.019-1.455,1.482-1.455Z" transform="translate(-17.015 -87.332)" fill="#f4e081"/>
        <path id="Trazado_634214" data-name="Trazado 634214" d="M655.352,800.9q0,8.848,0,17.7c0,1.1.273,1.382,1.354,1.383,5.794,0,11.587-.01,17.381.017.706,0,.827-.256.824-.883-.023-4.164-.013-8.328-.011-12.492a3.113,3.113,0,0,1,3.311-3.3l3.685-.005c.011.212.007.426.036.636.062.459-.133.6-.582.589-1.013-.026-2.027-.016-3.041-.006-1.526.015-2.186.671-2.189,2.21-.008,4.72-.017,9.44.013,14.16,0,.683-.135.894-.867.891q-11.363-.046-22.726,0c-.676,0-.834-.193-.827-.848.036-3.066.018-6.133.014-9.2,0-1.122-.151-1.322-1.194-1.683q0-1.313-.006-2.626a1.35,1.35,0,0,0,1.21-1.574c-.03-1.431.013-2.863-.019-4.293-.012-.533.114-.764.7-.73C653.393,800.9,654.374,800.888,655.352,800.9Z" transform="translate(-29.078 -108.291)" fill="#eac891"/>
        <path id="Trazado_634215" data-name="Trazado 634215" d="M668.565,725.665c1.534-.1,1.534-.1,1.535,1.413,0,.852-.027,1.706.015,2.556a1.6,1.6,0,0,0,2.2,1.574,4.05,4.05,0,0,1,3.056-.015,1.6,1.6,0,0,0,2.182-1.665c.017-1.118.02-2.237,0-3.355-.009-.412.106-.568.534-.549.691.031,1.385.027,2.077,0,.407-.015.556.106.552.536-.027,3.354-.032,6.709-.044,10.063l-10.482.007c-1.226,0-1.62-.387-1.621-1.607Q668.561,730.145,668.565,725.665Z" transform="translate(-41.325 -57.21)" fill="#f1dcb9"/>
        <path id="Trazado_634216" data-name="Trazado 634216" d="M694.523,681.245c1.268-.082,1.268-.082,1.268,1.2,0,.881-.011,1.762,0,2.642a1.634,1.634,0,0,0,2.313,1.674,3.729,3.729,0,0,1,2.832-.02,1.613,1.613,0,0,0,2.308-1.592c.039-1.12.03-2.242,0-3.362-.012-.454.129-.605.583-.582.665.035,1.335.029,2,0,.4-.016.557.073.553.517-.026,3.415-.026,6.831-.034,10.246q-5.282,0-10.565,0c-1.01,0-1.266-.261-1.266-1.284Q694.519,685.966,694.523,681.245Z" transform="translate(-58.953 -27.045)" fill="#f2ddba"/>
        <path id="Trazado_634217" data-name="Trazado 634217" d="M769.4,725.664c1.421-.092,1.421-.092,1.421,1.289,0,.853-.013,1.707,0,2.56a1.63,1.63,0,0,0,2.244,1.689,3.964,3.964,0,0,1,2.98-.019,1.6,1.6,0,0,0,2.22-1.625c.032-1.119.029-2.24,0-3.359-.012-.464.147-.6.592-.575.8.039,1.6.031,2.4.043l.128.151,0,10.409q-5.315,0-10.63,0c-1.08,0-1.355-.289-1.355-1.377Q769.4,730.258,769.4,725.664Z" transform="translate(-109.803 -57.21)" fill="#f1dcb9"/>
        <path id="Trazado_634218" data-name="Trazado 634218" d="M718.985,725.663c1.458-.1,1.458-.1,1.458,1.315,0,.852-.021,1.705.006,2.557a1.643,1.643,0,0,0,2.281,1.654,3.969,3.969,0,0,1,2.98,0,1.624,1.624,0,0,0,2.222-1.642q.043-1.677,0-3.355c-.013-.46.137-.594.583-.572.691.034,1.385.025,2.077,0,.354-.012.452.118.45.46-.022,3.381-.03,6.762-.042,10.144q-5.274,0-10.549,0c-1.165,0-1.464-.3-1.464-1.456Q718.982,730.217,718.985,725.663Z" transform="translate(-75.566 -57.207)" fill="#f2ddba"/>
        <path id="Trazado_634219" data-name="Trazado 634219" d="M740.034,819.867q0,6.194,0,12.389c0,1.16.081,1.244,1.212,1.244h19.908a4.63,4.63,0,0,0,.029.557c.086.507-.133.614-.615.613q-11.083-.023-22.165,0c-.586,0-.689-.193-.687-.726q.03-6.72,0-13.439c0-.577.179-.747.725-.694C738.968,819.864,739.5,819.852,740.034,819.867Z" transform="translate(-88.286 -121.167)" fill="#f1d7a9"/>
        <path id="Trazado_634220" data-name="Trazado 634220" d="M765.712,725.609q0,4.594,0,9.188c0,1.088.275,1.376,1.355,1.377q5.315,0,10.63,0a6.1,6.1,0,0,0,.032.637c.075.5-.138.622-.623.62q-6.236-.027-12.472,0c-.544,0-.662-.177-.659-.686.021-3.437.032-6.874-.007-10.31-.008-.7.155-.988.872-.867A7.128,7.128,0,0,0,765.712,725.609Z" transform="translate(-106.111 -57.155)" fill="#e8cfa4"/>
        <path id="Trazado_634221" data-name="Trazado 634221" d="M690.526,681.22q0,4.721,0,9.442c0,1.023.256,1.284,1.266,1.284q5.282,0,10.565,0c.056,1.1.056,1.1-.977,1.1-4,0-8-.014-11.995.015-.612,0-.753-.173-.748-.761q.041-5.2,0-10.393c0-.535.106-.8.693-.723C689.724,681.226,690.127,681.208,690.526,681.22Z" transform="translate(-54.956 -27.02)" fill="#e8cfa4"/>
        <path id="Trazado_634222" data-name="Trazado 634222" d="M665.151,725.613q0,4.479,0,8.959c0,1.22.4,1.607,1.621,1.607l10.482-.007c.013.212.012.426.041.636.072.5-.152.625-.633.623-4.165-.017-8.33-.023-12.495.005-.6,0-.624-.254-.622-.713.012-3.443.025-6.887-.009-10.329-.007-.654.136-.94.819-.823A6.647,6.647,0,0,0,665.151,725.613Z" transform="translate(-37.911 -57.158)" fill="#e8cfa4"/>
        <path id="Trazado_634223" data-name="Trazado 634223" d="M740.678,681.2q0,4.111,0,8.222a9.44,9.44,0,0,0,.132,1.5,1.027,1.027,0,0,0,1.169,1.007c3.54-.013,7.08-.01,10.62-.012.1,1.1.1,1.1-.968,1.1-4,0-7.994-.015-11.99.016-.615,0-.743-.17-.738-.755.029-3.41.038-6.82,0-10.229-.009-.733.186-1,.908-.889A7.685,7.685,0,0,0,740.678,681.2Z" transform="translate(-89.087 -26.999)" fill="#ecd3a7"/>
        <path id="Trazado_634224" data-name="Trazado 634224" d="M715.483,725.609q0,4.554,0,9.108c0,1.158.3,1.455,1.464,1.456q5.275,0,10.549,0c.013.212.01.427.041.636.075.51-.158.618-.634.616q-6.2-.025-12.4,0c-.531,0-.671-.151-.667-.675.022-3.44.031-6.88-.005-10.32-.007-.685.135-1,.86-.865A6,6,0,0,0,715.483,725.609Z" transform="translate(-72.064 -57.153)" fill="#ecd3a7"/>
        <path id="Trazado_634225" data-name="Trazado 634225" d="M696.18,800.869c.641,0,1.281.01,1.922,0,.338-.007.474.124.47.469q-.019,1.681,0,3.362c0,.356-.1.5-.461.378a2.8,2.8,0,0,1-.3-.116,3.646,3.646,0,0,0-3.38.006c-.6.3-.79.125-.761-.53.043-.959.031-1.922,0-2.882-.015-.5.1-.74.664-.7C694.95,800.9,695.566,800.868,696.18,800.869Z" transform="translate(-58.375 -108.298)" fill="#d1837e"/>
        <path id="Trazado_634226" data-name="Trazado 634226" d="M768.472,823.627c0-1.151.008-2.188,0-3.224,0-.345.063-.553.474-.545.931.018,1.863.016,2.794,0,.37-.006.44.179.437.493-.011.9,0,1.809-.006,2.713,0,.229.022.579-.356.393A3.644,3.644,0,0,0,768.472,823.627Z" transform="translate(-109.169 -121.204)" fill="#d58580"/>
        <path id="Trazado_634227" data-name="Trazado 634227" d="M758.8,683.954a2.81,2.81,0,0,0-2.184-.114c-.345.143-.5.01-.48-.356.009-.186,0-.373,0-.56,0-2.2.018-2.209,2.261-1.948.239.028.407.055.4.35C758.8,682.175,758.8,683.023,758.8,683.954Z" transform="translate(-100.796 -26.815)" fill="#d1837e"/>
        <path id="Trazado_634228" data-name="Trazado 634228" d="M705.97,682.617c0-1.435,0-1.435,1.4-1.435a3.188,3.188,0,0,0,.479,0c.622-.1.891.141.8.781a5.019,5.019,0,0,0-.005.639c-.009.452.136,1.005-.073,1.329-.247.382-.742-.142-1.148-.073-.157.027-.319.024-.475.05-.968.165-.968.167-.968-.809Z" transform="translate(-66.728 -27.016)" fill="#d1837e"/>
        <path id="Trazado_634229" data-name="Trazado 634229" d="M731.021,727.082c0-1.432,0-1.432,1.4-1.432,1.287,0,1.287,0,1.287,1.309,0,.107,0,.213,0,.319-.012.4.117.9-.078,1.164-.211.287-.654-.139-1.015-.118a5,5,0,0,0-.553.035c-1.044.178-1.043.181-1.044-.877Z" transform="translate(-83.74 -57.229)" fill="#d1837e"/>
        <path id="Trazado_634230" data-name="Trazado 634230" d="M683.358,727.069c0,.107,0,.213,0,.32,0,.956,0,.964-.96.8a1.344,1.344,0,0,0-.787.054c-.767.348-1,.055-.89-.695.011-.079,0-.16,0-.24.05-.575-.269-1.407.137-1.671.59-.383,1.445-.094,2.186-.125.318-.013.311.217.311.436Q683.358,726.509,683.358,727.069Z" transform="translate(-49.535 -57.084)" fill="#d58580"/>
        <path id="Trazado_634231" data-name="Trazado 634231" d="M781.264,727.1c0-1.448,0-1.448,1.447-1.448,1.189,0,1.189,0,1.189,1.158,0,.106,0,.212,0,.318-.006.424.14.948-.057,1.246-.27.408-.734-.141-1.133-.073a2.251,2.251,0,0,0-.546.084c-.8.363-1.02.041-.9-.729A3.727,3.727,0,0,0,781.264,727.1Z" transform="translate(-117.836 -57.233)" fill="#d58580"/>
        <path id="Trazado_634232" data-name="Trazado 634232" d="M806.48,725.9l-.128-.151C806.48,725.731,806.5,725.8,806.48,725.9Z" transform="translate(-134.895 -57.296)" fill="#e8cfa4"/>
      </g>
    </g>
  </g>
</svg>
