<svg xmlns="http://www.w3.org/2000/svg" width="82" height="82" viewBox="0 0 82 82">
  <g id="Grupo_956677" data-name="Grupo 956677" transform="translate(-303 -3929)">
    <g id="Grupo_951854" data-name="Grupo 951854" transform="translate(303 3929)">
      <path id="Trazado_621807" data-name="Trazado 621807" d="M41,0A41,41,0,1,1,0,41,41,41,0,0,1,41,0Z" fill="#ef8b53"/>
    </g>
    <g id="Grupo_952067" data-name="Grupo 952067" transform="translate(305.244 3931.291)">
      <g id="Grupo_952066" data-name="Grupo 952066" transform="translate(0)">
        <path id="Trazado_628841" data-name="Trazado 628841" d="M1530.138,182.914a2.439,2.439,0,0,0,2.094,3.581c.675.032,1.353.03,2.028,0,.418-.019.583.073.576.54-.028,1.924.01,3.849-.02,5.772a3.7,3.7,0,0,1-3.687,3.674q-7.529.036-15.059,0a3.707,3.707,0,0,1-3.716-3.726c-.023-1.9.007-3.8-.015-5.694,0-.424.085-.6.546-.57.674.04,1.353.029,2.028,0a2.491,2.491,0,0,0-.017-4.98c-.675-.023-1.353-.025-2.028,0-.39.016-.536-.077-.53-.506.025-1.95-.015-3.9.021-5.85a3.728,3.728,0,0,1,3.649-3.637c.078,0,.156.005.234,0,.779-.083,1.833.37,2.269-.2.4-.519.346-1.468.7-2.173a.691.691,0,0,0-.053-.529,33.315,33.315,0,0,1,2.2-26.771,1.261,1.261,0,0,0,.053-.287c-2.207,0-4.381.013-6.555-.007-.822-.007-1.921.355-2.384-.153-.405-.444-.119-1.529-.12-2.331,0-3.12.009-6.24-.013-9.361,0-.494.1-.655.629-.647,2.08.033,4.161.029,6.241,0,.5-.007.651.108.646.63-.028,2.912,0,5.825-.025,8.737,0,.5.113.648.632.645,1.876-.012,1.876.01,1.876-1.886,0-4.134.013-8.269-.015-12.4,0-.581.131-.732.718-.72,2.054.041,4.109.033,6.163,0,.51-.008.642.129.638.638-.019,2.755,0,5.511.01,8.267-.007,1.4-.019,2.807-.021,4.21,0,1.982,0,1.969,2.028,1.888.376-.015.478-.115.475-.485-.024-2.391-.026-4.782-.035-7.174.009-3.874.032-7.748.012-11.621,0-.584.136-.73.72-.719,2.054.04,4.11.034,6.164,0,.513-.008.644.134.636.64-.03,2.053-.012,4.107-.012,6.221,1.222-.328,2.4-.683,3.591-.958a33.214,33.214,0,0,1,22.243,2.449c.577.273.709.229.9-.4a11.21,11.21,0,0,1,21.82,1.674,10.862,10.862,0,0,1-4.706,10.832,3.183,3.183,0,0,0-1.418,2.755,13,13,0,0,0,.784,4.936,29.085,29.085,0,0,1,1.668,8.765.778.778,0,0,0,.644.853,6.124,6.124,0,0,1,4.413,5.945c.015,8.269,0,16.538.012,24.807a1.915,1.915,0,0,1-.22.889c-1,1.992-2.009,3.982-3,5.981a3.294,3.294,0,0,1-6.066-.006q-1.482-3-3-5.978a2.2,2.2,0,0,1-.212-1.048c.007-2.753,0-5.506,0-8.3-.29.073-.378.3-.517.464a33.8,33.8,0,0,1-39.02,9.18c-.7-.3-1.015-.578-.506-1.281a1.324,1.324,0,0,0,.124-.364,2.5,2.5,0,0,0,.263-.463c.15-.477.37-.555.849-.339a31.031,31.031,0,0,0,10.677,2.609c.582.04.676-.107.673-.64-.021-4.054,0-8.108-.018-12.162,0-.691.3-1.611-.136-2.008-.377-.34-1.281-.107-1.952-.11-1.276-.007-1.276,0-1.694-1.18-.1-.269-.176-.544-.29-.8a.653.653,0,0,0-.99-.391c-.443.215-.9.4-1.328.644a.7.7,0,0,1-1-.173c-1.542-1.581-3.118-3.131-4.677-4.7-.457-.459-1.125-.867-1.285-1.418s.448-1.156.7-1.748c.02-.048.036-.1.057-.144a.653.653,0,0,0-.39-.99,7.907,7.907,0,0,0-1.319-.462c-.571-.122-.714-.43-.677-.975.047-.7-.017-1.4.022-2.1.025-.456-.139-.56-.568-.55-1.169.028-2.339.01-3.509.01-3.4,0-6.81,0-10.216.009-.24,0-.666-.229-.63.367a30.467,30.467,0,0,0,1.374,7.628.8.8,0,0,0,.185-.03,4.974,4.974,0,0,1,7.09,4.133c.026.4.229.378.5.376.728,0,1.457-.022,2.183.006A3.691,3.691,0,0,1,1534.8,175c.067,2.025.012,4.053.03,6.08,0,.35-.111.443-.444.433-.7-.022-1.406-.036-2.105,0A2.254,2.254,0,0,0,1530.138,182.914Zm44.571-26.37c2.314,0,4.628-.011,6.941.01.461,0,.623-.076.577-.592a33.2,33.2,0,0,0-1.027-6.212c-.12-.424-.113-.989-.39-1.236-.355-.316-.711.3-1.123.355-.385.051-.765.165-1.149.178-.857.027-1.716.025-2.573,0a3.74,3.74,0,0,1-3.679-3.686c-.021-1.039-.033-2.08,0-3.119a2.973,2.973,0,0,0-1.442-2.734,10.836,10.836,0,0,1-4.77-8.441,1.035,1.035,0,0,0-.659-.982,31.843,31.843,0,0,0-12.361-3.433c-.619-.044-.77.08-.766.7.028,4.21.015,8.421.015,12.632,0,1.576,0,1.576,1.549,1.576,1.816,0,1.816,0,2.427,1.688.035.1.059.2.1.294a.668.668,0,0,0,.992.4c.446-.209.9-.4,1.328-.647a.7.7,0,0,1,1,.168c1.5,1.547,3.043,3.059,4.568,4.585.477.478,1.161.886,1.367,1.462.228.639-.441,1.255-.7,1.885-.227.542-.118.894.442,1.09a13.026,13.026,0,0,0,1.323.454c.506.118.631.392.6.88-.044.7.026,1.406-.023,2.1-.038.532.158.634.649.628C1570.186,156.53,1572.447,156.544,1574.709,156.544Zm3.839,2.5H1568.37c-1.083,0-1.078,0-1.085,1.106a5.038,5.038,0,0,1-.117,2.214c-.251.446-1.185.506-1.814.742a.659.659,0,0,0-.429,1.029c.206.419.377.857.612,1.259a.746.746,0,0,1-.17,1.067c-1.531,1.484-3.025,3.006-4.535,4.512-.5.5-.923,1.207-1.522,1.414-.625.216-1.252-.469-1.889-.732-.573-.236-.882-.047-1.069.489-.154.441-.344.872-.457,1.322s-.37.589-.826.566c-.752-.038-1.508,0-2.262-.016-.331-.008-.514.021-.512.444q.023,7.02,0,14.041c0,.38.1.5.488.448.772-.1,1.554-.134,2.326-.242A30.8,30.8,0,0,0,1577,175.137a1.665,1.665,0,0,0,.277-1.018c-.007-3.588.018-7.177-.015-10.765A6.964,6.964,0,0,1,1578.549,159.042Zm-28.742-24.974c0-2.288,0-4.576,0-6.865,0-.37.019-.618-.514-.579a33.964,33.964,0,0,0-8.678,1.749.987.987,0,0,0-.819,1.126c.038,3.77.006,7.541.031,11.311,0,.58-.1.779-.743.774-4.655-.032-9.311-.008-13.967-.029a1.072,1.072,0,0,0-1.09.623,31.67,31.67,0,0,0-4.125,13.667c-.044.628.119.716.681.712,4.292-.022,8.583-.012,12.875-.012,1.36,0,1.357,0,1.361-1.375,0-.649-.19-1.414.088-1.914s1.15-.46,1.729-.74a.613.613,0,0,1,.075-.021.678.678,0,0,0,.458-1.076c-.194-.4-.35-.814-.578-1.188a.775.775,0,0,1,.174-1.131c1.59-1.535,3.136-3.116,4.7-4.675.441-.439.831-1.084,1.36-1.237.583-.169,1.161.443,1.75.695.686.294.942.189,1.212-.548a12.923,12.923,0,0,0,.433-1.249c.11-.434.344-.553.776-.53.726.038,1.458-.026,2.183.023.526.035.638-.149.632-.646C1549.792,138.644,1549.806,136.355,1549.806,134.067Zm-26.248,59.925c2.417,0,4.835,0,7.252,0,1.064,0,1.5-.452,1.515-1.523.007-.572,0-1.143,0-1.715a3.853,3.853,0,0,0-.075-1.607c-.193-.37-.9-.18-1.354-.353-.024-.009-.047-.022-.072-.03a4.98,4.98,0,0,1,.9-9.7c.521-.068.626-.23.609-.7-.033-.908-.006-1.819-.01-2.728-.005-1.178-.425-1.608-1.582-1.613-1.352,0-2.7-.019-4.054.009-.459.01-.656-.081-.617-.59a18.381,18.381,0,0,0,.007-1.948,2.493,2.493,0,0,0-4.986.02c-.018.649-.028,1.3.005,1.948.022.435-.108.578-.557.569-1.429-.028-2.859-.021-4.289-.006a1.258,1.258,0,0,0-1.4,1.4c-.016,1.039.012,2.079-.012,3.118-.009.371.1.467.474.5a4.984,4.984,0,0,1,.1,9.913c-.479.064-.594.2-.577.651.035.934.006,1.871.011,2.806.007,1.156.436,1.578,1.615,1.58Q1520.01,194,1523.558,193.992Zm39.213-43.853c-.077-.1-.148-.2-.235-.286-1.175-1.178-2.355-2.35-3.524-3.533-.193-.2-.367-.273-.6-.093-.929.712-1.8.429-2.785.015-.815-.343-1.378-.737-1.507-1.628-.072-.5-.389-.567-.833-.56-1.455.024-2.912.038-4.367-.005-.562-.017-.89.132-.971.7a1.568,1.568,0,0,1-1.394,1.423.966.966,0,0,0-.362.14,1.833,1.833,0,0,1-2.339-.019c-.317-.236-.57-.174-.86.127-1.082,1.123-2.2,2.213-3.3,3.315-.2.2-.468.371-.209.708.714.928.429,1.8.015,2.784a2.072,2.072,0,0,1-1.628,1.512c-.415.068-.576.289-.566.749.036,1.558.025,3.118.006,4.677a.578.578,0,0,0,.472.664c.435.143,1.122.149,1.24.535.358,1.168,1.609,2.245.528,3.63-.243.311-.175.569.126.858,1.141,1.1,2.252,2.231,3.368,3.358.2.2.369.369.655.152a2.47,2.47,0,0,1,2.713-.046,2.211,2.211,0,0,1,1.616,1.729c.052.3.177.5.561.49,1.637-.022,3.275-.015,4.913,0,.305,0,.5-.073.547-.4.143-1.1.917-1.492,1.852-1.889a2.125,2.125,0,0,1,2.354.056c.317.236.57.172.86-.128,1.083-1.122,2.2-2.213,3.3-3.315.2-.2.466-.373.208-.708-.714-.928-.429-1.8-.016-2.784a2.063,2.063,0,0,1,1.629-1.51c.416-.066.575-.292.564-.751-.035-1.559-.024-3.118-.005-4.677,0-.373-.092-.6-.475-.654a1.935,1.935,0,0,1-1.732-1.692,2.712,2.712,0,0,0-.379-.849.825.825,0,0,1,.009-.934C1562.424,150.936,1562.579,150.549,1562.771,150.14Zm15.752-12.466q0,1.716,0,3.432c0,.226-.05.542.321.448.322-.083.865.339.952-.292a5.94,5.94,0,0,1,2.777-4.025,8.7,8.7,0,0,0-7.452-15.349,8.709,8.709,0,0,0-2.9,15.536,5.339,5.339,0,0,1,2.474,3.688c.092.721.582.4.926.45.55.088.4-.338.4-.611.008-2.158-.005-4.316.013-6.473a.832.832,0,0,0-.519-.892,3.511,3.511,0,0,1-1.975-3.055,3.735,3.735,0,0,1,7.225-1.526,3.634,3.634,0,0,1-1.661,4.545.934.934,0,0,0-.591,1C1578.548,135.592,1578.524,136.633,1578.524,137.673Zm3.745,38.924v-8.336c0-1.734,0-1.7-1.712-1.748-.658-.018-.8.166-.8.808.027,5.791.016,11.582.016,17.373,0,1.836,0,1.815,1.869,1.821.516,0,.642-.146.638-.648C1582.258,182.778,1582.269,179.688,1582.269,176.6Zm4.994-.016v-8.334c0-1.722,0-1.683-1.728-1.736-.688-.021-.784.215-.782.828.023,5.763.014,11.527.014,17.29,0,1.908,0,1.883,1.884,1.888.546,0,.624-.194.621-.668C1587.254,182.76,1587.263,179.671,1587.263,176.582Zm-49.943-46.259v-6.93c0-1.813,0-1.782-1.8-1.816-.615-.012-.709.19-.707.743.021,4.957.012,9.915.012,14.872,0,1.91,0,1.886,1.88,1.891.537,0,.63-.181.626-.663C1537.31,135.721,1537.32,133.022,1537.32,130.323Zm46.122,33.711c1.09,0,2.18.007,3.27-.007.2,0,.451.129.554-.235a3.973,3.973,0,0,0-3.557-4.746,3.921,3.921,0,0,0-3.947,4.673c.061.364.265.313.488.314C1581.314,164.036,1582.379,164.034,1583.443,164.034Zm-56.111-31.207v-4.435c0-1.818,0-1.788-1.793-1.821-.6-.011-.721.165-.716.733.028,3.294.013,6.588.013,9.882,0,1.946,0,1.93,1.95,1.894.448-.008.56-.144.555-.573C1527.32,136.614,1527.332,134.72,1527.332,132.827Zm-9.989,2.539v-1.943c0-1.883,0-1.864-1.906-1.856-.483,0-.61.13-.6.607.03,1.658.011,3.316.011,4.973,0,2,0,1.989,1.984,1.932.409-.012.531-.121.521-.528C1517.325,137.491,1517.343,136.428,1517.343,135.366Zm63.212,53.648c.783,1.564,1.5,3.049,2.269,4.506a.732.732,0,0,0,1.325.081c.811-1.487,1.545-3.015,2.34-4.587Zm-3.279-44.952c-.675,0-1.35,0-2.024,0-.149,0-.321-.049-.434.1a1.758,1.758,0,0,0,1.057,2.37,18.4,18.4,0,0,0,2.8,0c.859-.065,1.232-.819,1.094-2.068-.091-.824-.728-.3-1.1-.377A6.709,6.709,0,0,0,1577.276,144.063Zm1.246-13.762a1.247,1.247,0,1,0-1.2,1.277A1.259,1.259,0,0,0,1578.522,130.3Z" transform="translate(-1512.254 -119.08)" fill="#020202"/>
        <path id="Trazado_628842" data-name="Trazado 628842" d="M1546.97,270.71a2.255,2.255,0,0,1,2.144-1.4c.7-.038,1.4-.023,2.105,0,.333.01.448-.083.444-.433-.018-2.027.037-4.056-.03-6.08a3.69,3.69,0,0,0-3.559-3.472c-.727-.029-1.456-.011-2.183-.006-.27,0-.473.026-.5-.376a4.974,4.974,0,0,0-7.089-4.133.8.8,0,0,1-.185.03,30.467,30.467,0,0,1-1.374-7.628c-.036-.6.391-.366.63-.367,3.405-.014,6.811-.009,10.216-.009,1.17,0,2.34.018,3.509-.01.428-.01.593.093.568.55-.038.7.025,1.405-.022,2.1-.037.545.107.853.677.975a7.9,7.9,0,0,1,1.32.462.653.653,0,0,1,.39.99c-.022.047-.037.1-.057.144-.246.591-.859,1.185-.7,1.748s.828.959,1.285,1.418c1.559,1.565,3.135,3.114,4.677,4.7a.7.7,0,0,0,1,.173c.424-.247.886-.428,1.328-.644a.653.653,0,0,1,.99.391c.115.26.194.536.29.8.418,1.178.418,1.173,1.694,1.18.671,0,1.575-.23,1.952.11.439.4.135,1.317.137,2.008.013,4.054,0,8.108.018,12.162,0,.533-.091.68-.673.64a31.033,31.033,0,0,1-10.677-2.609c-.479-.216-.7-.138-.849.339a2.477,2.477,0,0,1-.263.463,25.172,25.172,0,0,1-4.911-2.753C1548.515,271.682,1547.951,270.863,1546.97,270.71Z" transform="translate(-1529.086 -206.875)" fill="#e5e8eb"/>
        <path id="Trazado_628843" data-name="Trazado 628843" d="M1570.947,158.557c.009,2.391.011,4.783.035,7.174,0,.37-.1.47-.474.485-2.03.082-2.032.094-2.028-1.888,0-1.4.014-2.807.021-4.21.659-.02.949-.622,1.43-.923A4.09,4.09,0,0,1,1570.947,158.557Z" transform="translate(-1550.902 -146.216)" fill="#e5e8eb"/>
        <path id="Trazado_628844" data-name="Trazado 628844" d="M1662.74,173.183c-2.262,0-4.524-.014-6.785.011-.491.005-.687-.1-.649-.628.05-.7-.021-1.4.023-2.1.031-.488-.094-.763-.6-.88a13.017,13.017,0,0,1-1.323-.454c-.561-.2-.669-.548-.442-1.09.264-.631.932-1.247.7-1.885-.205-.577-.89-.984-1.367-1.462-1.525-1.526-3.065-3.038-4.568-4.585a.7.7,0,0,0-1-.168c-.426.245-.882.438-1.328.647a.668.668,0,0,1-.992-.4c-.044-.094-.067-.2-.1-.294-.611-1.688-.611-1.688-2.427-1.688-1.549,0-1.549,0-1.549-1.576,0-4.211.013-8.421-.015-12.632,0-.622.147-.747.766-.7a31.842,31.842,0,0,1,12.361,3.433,1.035,1.035,0,0,1,.66.982,10.836,10.836,0,0,0,4.77,8.441,2.973,2.973,0,0,1,1.442,2.734c-.037,1.038-.024,2.08,0,3.119A3.74,3.74,0,0,0,1664,165.69c.857.021,1.716.023,2.573,0,.385-.012.765-.127,1.149-.178.412-.054.767-.671,1.123-.355.277.247.271.813.391,1.236a33.2,33.2,0,0,1,1.027,6.212c.045.516-.116.6-.577.592C1667.368,173.172,1665.054,173.183,1662.74,173.183Z" transform="translate(-1600.285 -135.719)" fill="#e5e8eb"/>
        <path id="Trazado_628845" data-name="Trazado 628845" d="M1666.591,246.91a6.963,6.963,0,0,0-1.284,4.312c.033,3.588.008,7.176.015,10.765a1.661,1.661,0,0,1-.277,1.018,30.8,30.8,0,0,1-21.892,13.569c-.771.108-1.554.139-2.326.242-.39.052-.488-.068-.487-.448q.016-7.021,0-14.041c0-.423.182-.452.512-.444.754.017,1.51-.022,2.262.016.456.023.709-.1.826-.566s.3-.882.457-1.322c.187-.536.5-.725,1.068-.489.637.263,1.263.948,1.889.732.6-.207,1.026-.918,1.522-1.414,1.51-1.506,3-3.028,4.535-4.512a.746.746,0,0,0,.17-1.067c-.234-.4-.406-.84-.612-1.259a.659.659,0,0,1,.429-1.029c.629-.237,1.563-.3,1.814-.742a5.038,5.038,0,0,0,.118-2.214c.007-1.106,0-1.106,1.085-1.106Zm-23.3,27.161c.191-.029.294-.043.4-.061a28.715,28.715,0,0,0,15.074-7.425c1.406-1.306,1.385-1.291.014-2.616-.4-.391-.605-.336-.972.037a26.211,26.211,0,0,1-13.394,7.341c-.573.125-1.44-.088-1.647.5-.19.543.141,1.262.21,1.908C1643,274.044,1643.127,274.108,1643.287,274.071Zm20.57-13.816c.07-.233-.007-.308-.094-.359-.581-.339-1.166-.671-1.748-1.008-.13-.076-.223-.076-.315.067-.434.674-.884,1.339-1.315,2.016-.179.281.1.372.258.457.589.323,1.181,1.306,1.664.978A7.323,7.323,0,0,0,1663.857,260.255Z" transform="translate(-1600.296 -206.948)" fill="#e4e7ea"/>
        <path id="Trazado_628846" data-name="Trazado 628846" d="M1566.62,150.645c0,2.288-.015,4.577.011,6.864.006.5-.106.681-.632.646-.725-.048-1.457.016-2.183-.023-.432-.023-.666.1-.776.53a12.86,12.86,0,0,1-.433,1.249c-.27.737-.526.842-1.212.548-.588-.252-1.167-.863-1.749-.695-.529.153-.92.8-1.361,1.237-1.566,1.56-3.113,3.14-4.7,4.675a.775.775,0,0,0-.174,1.131c.228.375.385.792.578,1.188a.678.678,0,0,1-.457,1.076.588.588,0,0,0-.075.021c-.578.28-1.447.234-1.729.74s-.086,1.265-.088,1.914c0,1.376,0,1.376-1.361,1.376-4.292,0-8.583-.01-12.874.012-.563,0-.726-.085-.681-.712a31.665,31.665,0,0,1,4.125-13.667,1.072,1.072,0,0,1,1.089-.623c4.655.021,9.311,0,13.966.029.639,0,.747-.194.743-.774-.025-3.77.006-7.541-.031-11.311a.987.987,0,0,1,.819-1.126,33.962,33.962,0,0,1,8.678-1.749c.532-.039.515.209.513.579C1566.616,146.069,1566.62,148.357,1566.62,150.645Z" transform="translate(-1529.068 -135.658)" fill="#e5e8eb"/>
        <path id="Trazado_628847" data-name="Trazado 628847" d="M1529.235,303.821q-3.548,0-7.1,0c-1.179,0-1.608-.424-1.615-1.58-.005-.935.023-1.872-.011-2.806-.017-.453.1-.586.577-.651a4.984,4.984,0,0,0-.1-9.913c-.369-.036-.483-.132-.474-.5.024-1.039,0-2.079.012-3.118a1.258,1.258,0,0,1,1.4-1.4c1.429-.015,2.86-.022,4.288.006.449.009.579-.135.557-.569-.033-.648-.023-1.3-.005-1.948a2.493,2.493,0,0,1,4.986-.02,18.414,18.414,0,0,1-.007,1.948c-.038.509.159.6.617.59,1.351-.028,2.7-.014,4.055-.009,1.157,0,1.577.435,1.581,1.613,0,.909-.022,1.82.01,2.728.017.47-.089.631-.609.7a4.98,4.98,0,0,0-.9,9.7c.025.008.048.021.072.03.454.173,1.162-.017,1.355.353a3.848,3.848,0,0,1,.075,1.607c0,.572.006,1.143,0,1.715-.012,1.071-.45,1.52-1.515,1.523C1534.069,303.826,1531.651,303.821,1529.235,303.821Z" transform="translate(-1517.93 -228.909)" fill="#bbd989"/>
        <path id="Trazado_628848" data-name="Trazado 628848" d="M1617.859,205.036c-.193.41-.347.8-.551,1.154a.824.824,0,0,0-.008.934,2.709,2.709,0,0,1,.379.849,1.935,1.935,0,0,0,1.732,1.692c.383.059.48.281.475.654-.019,1.559-.03,3.119.005,4.677.011.459-.149.685-.564.751a2.063,2.063,0,0,0-1.63,1.51c-.413.983-.7,1.857.016,2.784.258.335-.008.509-.208.708-1.1,1.1-2.219,2.192-3.3,3.315-.289.3-.542.364-.86.128a2.125,2.125,0,0,0-2.354-.056c-.936.4-1.709.789-1.853,1.889-.043.326-.241.4-.546.4-1.637-.011-3.275-.018-4.913,0-.384.005-.51-.186-.561-.491a2.211,2.211,0,0,0-1.616-1.729,2.47,2.47,0,0,0-2.713.046c-.286.218-.459.046-.655-.152-1.116-1.126-2.228-2.257-3.368-3.358-.3-.29-.368-.547-.126-.858,1.081-1.385-.17-2.462-.528-3.63-.118-.386-.805-.392-1.24-.535a.578.578,0,0,1-.472-.664c.019-1.559.031-3.119-.005-4.677-.01-.46.151-.682.566-.749a2.072,2.072,0,0,0,1.628-1.512c.414-.984.7-1.857-.015-2.784-.259-.336.01-.509.209-.708,1.1-1.1,2.218-2.193,3.3-3.315.29-.3.543-.363.86-.127a1.834,1.834,0,0,0,2.339.019.964.964,0,0,1,.361-.14,1.568,1.568,0,0,0,1.393-1.423c.081-.567.409-.716.971-.7,1.455.043,2.911.03,4.367.005.444-.007.761.061.833.56.129.891.692,1.285,1.507,1.628.984.415,1.857.7,2.785-.015.234-.179.408-.1.6.094,1.169,1.183,2.349,2.355,3.524,3.533C1617.71,204.837,1617.781,204.941,1617.859,205.036Zm-21.705,7.61a9.989,9.989,0,1,0,10.071-9.942A10.018,10.018,0,0,0,1596.153,212.646Z" transform="translate(-1567.341 -173.977)" fill="#f3d47d"/>
        <path id="Trazado_628849" data-name="Trazado 628849" d="M1702.266,143.192c0-1.04.024-2.081-.011-3.12a.934.934,0,0,1,.591-1,3.634,3.634,0,0,0,1.661-4.545,3.735,3.735,0,0,0-7.224,1.526,3.511,3.511,0,0,0,1.975,3.056.832.832,0,0,1,.518.892c-.018,2.158-.005,4.316-.012,6.473,0,.273.151.7-.4.611-.344-.055-.834.271-.925-.45a5.34,5.34,0,0,0-2.474-3.688,8.709,8.709,0,0,1,2.9-15.536,8.7,8.7,0,0,1,7.452,15.349,5.941,5.941,0,0,0-2.777,4.025c-.087.632-.63.209-.952.292-.37.095-.32-.222-.32-.448Q1702.264,144.907,1702.266,143.192Z" transform="translate(-1635.995 -124.599)" fill="#f9e7ad"/>
        <path id="Trazado_628850" data-name="Trazado 628850" d="M1730.7,280.894c0,3.09-.011,6.18.011,9.271,0,.5-.122.65-.638.648-1.869-.006-1.869.015-1.869-1.821,0-5.791.011-11.582-.016-17.373,0-.642.142-.827.8-.808,1.711.048,1.712.013,1.712,1.748Z" transform="translate(-1660.682 -223.376)" fill="#bbda89"/>
        <path id="Trazado_628851" data-name="Trazado 628851" d="M1746.677,280.875c0,3.089-.009,6.178.009,9.268,0,.474-.075.67-.621.668-1.884-.005-1.884.02-1.884-1.888,0-5.763.009-11.526-.014-17.29,0-.613.094-.848.782-.828,1.727.052,1.728.013,1.728,1.736Z" transform="translate(-1671.668 -223.373)" fill="#ee8774"/>
        <path id="Trazado_628852" data-name="Trazado 628852" d="M1586.922,135.811c0,2.7-.011,5.4.01,8.1,0,.482-.089.664-.626.663-1.879-.005-1.879.019-1.879-1.891,0-4.957.009-9.915-.013-14.872,0-.553.092-.755.707-.743,1.8.034,1.8,0,1.8,1.816Z" transform="translate(-1561.856 -124.568)" fill="#ee8774"/>
        <path id="Trazado_628853" data-name="Trazado 628853" d="M1731.753,251.9c-1.064,0-2.128,0-3.192,0-.223,0-.427.05-.488-.314a3.921,3.921,0,0,1,3.948-4.673,3.973,3.973,0,0,1,3.556,4.746c-.1.365-.356.233-.553.235C1733.933,251.911,1732.843,251.9,1731.753,251.9Z" transform="translate(-1660.564 -206.95)" fill="#a9b0ba"/>
        <path id="Trazado_628854" data-name="Trazado 628854" d="M1554.967,149.3c0,1.893-.012,3.787.009,5.681,0,.429-.107.565-.555.573-1.95.036-1.949.052-1.949-1.894,0-3.294.014-6.588-.014-9.882,0-.569.118-.744.716-.733,1.793.033,1.793,0,1.793,1.821Z" transform="translate(-1539.889 -135.549)" fill="#ee8774"/>
        <path id="Trazado_628855" data-name="Trazado 628855" d="M1523.019,162.82c0,1.062-.017,2.125.009,3.186.01.406-.111.516-.52.528-1.984.057-1.984.071-1.984-1.932,0-1.658.018-3.316-.012-4.973-.008-.477.119-.605.6-.607,1.906-.008,1.906-.027,1.906,1.856Z" transform="translate(-1517.93 -146.534)" fill="#ee8774"/>
        <path id="Trazado_628856" data-name="Trazado 628856" d="M1730.736,342.788h5.934c-.795,1.572-1.529,3.1-2.339,4.587a.732.732,0,0,1-1.325-.081C1732.235,345.837,1731.519,344.352,1730.736,342.788Z" transform="translate(-1662.435 -272.854)" fill="#a9b0ba"/>
        <path id="Trazado_628857" data-name="Trazado 628857" d="M1714.448,198.84a6.706,6.706,0,0,1,1.4.023c.368.079,1-.447,1.1.377.138,1.249-.235,2-1.094,2.068a18.4,18.4,0,0,1-2.8,0,1.758,1.758,0,0,1-1.057-2.37c.114-.145.285-.094.434-.1C1713.1,198.837,1713.773,198.84,1714.448,198.84Z" transform="translate(-1649.426 -173.857)" fill="#a9b0ba"/>
        <path id="Trazado_628858" data-name="Trazado 628858" d="M1718.752,152.3a1.247,1.247,0,1,1-1.258-1.216A1.262,1.262,0,0,1,1718.752,152.3Z" transform="translate(-1652.484 -141.078)" fill="#eacc79"/>
        <path id="Trazado_628859" data-name="Trazado 628859" d="M1648.483,310.99c-.16.037-.287-.027-.318-.315-.07-.645-.4-1.364-.21-1.908.207-.589,1.074-.376,1.647-.5A26.211,26.211,0,0,0,1663,300.925c.367-.373.567-.429.972-.037,1.371,1.325,1.392,1.31-.014,2.616a28.715,28.715,0,0,1-15.074,7.425C1648.777,310.946,1648.674,310.961,1648.483,310.99Z" transform="translate(-1605.492 -243.867)" fill="#040404"/>
        <path id="Trazado_628860" data-name="Trazado 628860" d="M1707.81,286.482a7.322,7.322,0,0,1-1.55,2.151c-.483.328-1.075-.655-1.665-.978-.156-.085-.438-.176-.258-.457.431-.676.88-1.341,1.315-2.016.093-.144.186-.143.315-.067.582.337,1.167.669,1.748,1.008C1707.8,286.174,1707.88,286.248,1707.81,286.482Z" transform="translate(-1644.249 -233.175)" fill="#040404"/>
        <path id="Trazado_628861" data-name="Trazado 628861" d="M1604.421,220.915a9.989,9.989,0,1,1,9.907,10.03A10.015,10.015,0,0,1,1604.421,220.915Zm9.965-7.444a7.487,7.487,0,1,0,7.512,7.463A7.512,7.512,0,0,0,1614.386,213.471Z" transform="translate(-1575.608 -182.246)" fill="#040303"/>
        <path id="Trazado_628862" data-name="Trazado 628862" d="M1619.882,218.965a7.487,7.487,0,1,1-7.466,7.51A7.508,7.508,0,0,1,1619.882,218.965Z" transform="translate(-1581.104 -187.739)" fill="#e4e7ea"/>
      </g>
    </g>
  </g>
</svg>
