<svg xmlns="http://www.w3.org/2000/svg" width="82" height="82" viewBox="0 0 82 82">
  <g id="Grupo_956680" data-name="Grupo 956680" transform="translate(-303 -3929)">
    <g id="Grupo_951854" data-name="Grupo 951854" transform="translate(303 3929)">
      <path id="Trazado_621807" data-name="Trazado 621807" d="M41,0A41,41,0,1,1,0,41,41,41,0,0,1,41,0Z" fill="#ef8b53"/>
    </g>
    <g id="Grupo_962307" data-name="Grupo 962307" transform="translate(686.22 3567.995)">
      <path id="Trazado_634307" data-name="Trazado 634307" d="M-350.116,431.787c-.2,1.143-.646,1.525-1.816,1.527-3.815,0-7.629.016-11.444-.013-.6,0-.752.162-.736.745.041,1.47.02,2.942.012,4.413-.008,1.318-.55,1.849-1.877,1.849q-6.47,0-12.939,0c-1.361,0-1.881-.53-1.884-1.914,0-1.471-.02-2.942.01-4.413.01-.5-.086-.69-.639-.681-1.262.018-1.775-.521-1.777-1.758q-.007-3.1,0-6.209c0-1.231.549-1.772,1.78-1.78.7,0,1.4-.017,2.094.006.365.012.572-.061.511-.481a3.624,3.624,0,0,1,0-.523q0-22.59.015-45.18c0-.687-.094-1-.87-1.2a4.793,4.793,0,0,1-3.5-5.24,4.806,4.806,0,0,1,4.733-4.25c7.006-.029,14.011-.018,21.017,0a1.067,1.067,0,0,0,1.146-.642,4.106,4.106,0,0,1,3.816-2.321q7.554-.043,15.109,0a4.1,4.1,0,0,1,3.814,2.323,1.067,1.067,0,0,0,1.149.64q10.359-.022,20.718-.006a4.846,4.846,0,0,1,5.061,4.934,4.827,4.827,0,0,1-3.738,4.638c-.548.116-.653.319-.653.828q.02,22.889-.005,45.778c0,.621.2.741.748.707.7-.043,1.4-.025,2.093-.006a1.473,1.473,0,0,1,1.549,1.554q.027,3.329,0,6.657a1.418,1.418,0,0,1-1.624,1.526c-.7-.035-.813.216-.794.837.044,1.445.019,2.892.013,4.338-.005,1.28-.552,1.838-1.81,1.839q-6.544.006-13.089,0c-1.225,0-1.791-.555-1.8-1.774-.012-1.5-.03-2.993.011-4.488.016-.582-.137-.749-.735-.745-3.814.029-7.629.018-11.443.013-1.172,0-1.619-.388-1.816-1.526.266-1.131.709-1.465,1.977-1.466q10.168,0,20.337,0c2.393,0,4.785-.013,7.178.011.48,0,.65-.109.622-.611a15.158,15.158,0,0,1,.005-2.316c.072-.738-.178-.878-.886-.877q-34.431.031-68.862.017a1.98,1.98,0,0,1-.3,0c-.441-.069-.617.07-.589.556a17.426,17.426,0,0,1,0,2.391c-.055.686.166.848.844.847q13.645-.036,27.291-.015C-350.827,430.322-350.392,430.65-350.116,431.787Zm6.925-24.654a12.1,12.1,0,0,1-1.9-3.2,21.927,21.927,0,0,1-1.311-8.5.83.83,0,0,0-.561-.94,4.909,4.909,0,0,1-3.053-4.646c-.015-.7-.025-1.4,0-2.094.017-.407-.084-.579-.527-.553-.621.037-1.246.012-1.869.009a1.572,1.572,0,0,1-1.819-1.3c-.759-2.236-1.5-4.479-2.27-6.71a4.814,4.814,0,0,1-.365-2.185c.063-.51-.147-.6-.617-.6q-5.646.028-11.293,0c-.526,0-.656.14-.656.661q.022,22.924,0,45.848c0,.531.145.656.661.652,3.39-.023,6.781-.029,10.171,0,.584.006.679-.171.676-.705-.022-4.587-.013-9.175-.012-13.762,0-1.472.5-1.966,1.982-1.968q4.039,0,8.077,0Zm22.779-7.1q0-11.444,0-22.887c0-.334.171-.744-.487-.741q-5.8.037-11.592,0c-.431,0-.5.169-.466.525a5.5,5.5,0,0,1-.416,2.4c-.731,2.114-1.426,4.241-2.138,6.361-.425,1.267-.763,1.5-2.128,1.507-.694,0-1.627-.235-2.018.118-.454.409-.145,1.36-.134,2.072a5.111,5.111,0,0,1-3.272,5.193c-.218.1-.356.18-.358.469a20.112,20.112,0,0,0,1.176,7.925,6.018,6.018,0,0,0,4.926,4.064,26.17,26.17,0,0,0,3.285.089c1.7.012,2.145.441,2.145,2.108,0,4.537.014,9.075-.016,13.613,0,.611.184.718.742.714q4.973-.038,9.947,0c.632.006.828-.113.825-.8C-320.423,415.19-320.412,407.611-320.412,400.032Zm-27.8,23.521c2.018,0,4.036-.02,6.053.013.541.009.65-.165.648-.672q-.03-6.054,0-12.108c0-.516-.13-.676-.662-.673q-6.053.033-12.107,0c-.511,0-.673.112-.67.65q.035,6.091,0,12.182c0,.479.111.626.608.619C-352.3,423.535-350.256,423.552-348.213,423.552Zm3.235-47.175c2.792,0,5.584-.013,8.376.012.524,0,.669-.143.663-.666-.027-2.418-.007-4.837-.014-7.255,0-1.234-.543-1.763-1.791-1.764q-7.18,0-14.36,0c-1.238,0-1.767.535-1.769,1.784-.005,2.393.023,4.787-.019,7.18-.011.627.205.726.761.721C-350.414,376.363-347.7,376.377-344.979,376.377ZM-372.408,400V386.912c0-3.265-.012-6.53.012-9.795,0-.532-.089-.769-.683-.716a11.113,11.113,0,0,1-1.942,0c-.642-.056-.838.122-.834.8.032,5.458.018,10.916.018,16.374q0,14.617-.012,29.234c0,.57.117.8.73.749a11.169,11.169,0,0,1,1.941,0c.615.053.786-.129.784-.764C-372.417,415.2-372.408,407.6-372.408,400Zm54.989-.049v6.729c0,5.384.009,10.767-.013,16.151,0,.582.14.788.735.736a10.326,10.326,0,0,1,1.867,0c.68.065.861-.156.86-.847q-.032-22.731-.016-45.462a3.449,3.449,0,0,1,0-.374c.039-.358-.112-.483-.47-.473a18.33,18.33,0,0,1-2.167-.009c-.669-.06-.816.163-.814.816C-317.41,384.793-317.419,392.37-317.419,399.948Zm-50.392-26.525c3.389,0,6.778-.024,10.166.02.7.009.835-.207.79-.831a14.676,14.676,0,0,1,0-2.241c.052-.623-.2-.715-.749-.714q-10.166.027-20.332.012c-.2,0-.4,0-.6.016a1.862,1.862,0,0,0-1.672,1.642,1.888,1.888,0,0,0,1.2,1.953,3.031,3.031,0,0,0,1.1.144Q-372.857,373.42-367.811,373.422Zm45.915-3.755c-3.463,0-6.927.015-10.39-.015-.574-.005-.716.157-.685.7.048.845.036,1.695,0,2.541-.017.438.136.542.551.534,1.245-.025,2.492-.009,3.737-.009q8.41,0,16.819,0a2.051,2.051,0,0,0,1.977-.945,1.846,1.846,0,0,0-1.7-2.806C-315.018,369.655-318.457,369.669-321.9,369.668Zm-23.019,9.7c-2.567,0-5.135.013-7.7-.01-.538,0-.636.138-.459.632.445,1.241.872,2.488,1.262,3.746.123.4.322.474.695.473q6.207-.017,12.413,0c.443,0,.592-.165.712-.552.379-1.209.771-2.416,1.215-3.6.218-.582.092-.71-.51-.7C-339.83,379.387-342.372,379.371-344.915,379.371Zm10.03,37.513c0-2.069-.01-4.139.008-6.208,0-.41-.094-.576-.535-.559-.872.032-1.745.026-2.617,0-.4-.011-.507.147-.507.525q.014,6.208,0,12.415c0,.4.121.513.509.5.847-.026,1.7-.039,2.542,0,.5.025.618-.141.612-.622C-334.9,420.922-334.884,418.9-334.884,416.884Zm-37.625,20.433c1.595,0,3.19-.014,4.784.009.457.007.674-.072.65-.6-.044-.945-.036-1.894,0-2.84.017-.478-.171-.582-.609-.58q-4.746.022-9.492,0c-.473,0-.663.105-.64.618.041.92.046,1.845,0,2.764-.028.552.18.653.679.643C-375.6,437.3-374.054,437.317-372.509,437.317Zm55.2,0c1.57,0,3.14-.015,4.709.009.444.007.614-.1.6-.575-.038-.97-.023-1.943-.005-2.915.007-.37-.084-.533-.495-.532q-4.858.02-9.717,0c-.464,0-.529.206-.521.59.017.946.028,1.894,0,2.84-.016.454.11.6.58.594C-320.549,437.3-318.929,437.317-317.31,437.317ZM-347.019,388.8c0,.373-.017.747,0,1.119a2.12,2.12,0,0,0,2.08,2.031,2.116,2.116,0,0,0,2.127-2.059c.03-.745-.007-1.493.019-2.239.013-.356-.1-.476-.458-.463-.72.026-1.443.008-2.164.008C-347.027,387.2-347.027,387.2-347.019,388.8Z" fill="#020202"/>
      <path id="Trazado_634308" data-name="Trazado 634308" d="M-343.15,578.528c-.276-1.137-.711-1.465-1.979-1.465q-13.645,0-27.291.015c-.678,0-.9-.161-.844-.847a17.426,17.426,0,0,0,0-2.391c-.028-.486.148-.625.589-.556a1.989,1.989,0,0,0,.3,0q34.431,0,68.862-.017c.708,0,.958.139.886.877a15.155,15.155,0,0,0-.005,2.316c.029.5-.142.615-.622.611-2.392-.024-4.785-.011-7.178-.011q-10.169,0-20.337,0c-1.268,0-1.711.335-1.977,1.466h-3.678q-.376-1.452-1.524-1.455c-.765,0-1.278.489-1.522,1.455Z" transform="translate(-6.966 -146.741)" fill="#cfd2dd"/>
      <path id="Trazado_634309" data-name="Trazado 634309" d="M-260.517,587.413c.244-.966.757-1.456,1.522-1.455s1.274.487,1.524,1.455c-.2,1.058-.692,1.542-1.56,1.524C-259.861,588.92-260.328,588.441-260.517,587.413Z" transform="translate(-85.918 -155.627)" fill="#060607"/>
      <path id="Trazado_634310" data-name="Trazado 634310" d="M-282.188,531.958c-2.043,0-4.086-.017-6.128.013-.5.007-.61-.14-.608-.619q.028-6.091,0-12.182c0-.538.159-.652.67-.65q6.053.031,12.107,0c.532,0,.665.157.662.673q-.03,6.053,0,12.107c0,.507-.107.681-.648.672C-278.152,531.938-280.17,531.958-282.188,531.958Z" transform="translate(-66.025 -108.405)" fill="#c5e7de"/>
      <path id="Trazado_634311" data-name="Trazado 634311" d="M-276.478,383.388c-2.717,0-5.435-.014-8.152.012-.556.005-.772-.094-.761-.721.042-2.393.013-4.787.019-7.18,0-1.249.532-1.783,1.769-1.784q7.18-.005,14.359,0c1.248,0,1.787.53,1.791,1.764.007,2.418-.013,4.837.014,7.255.006.523-.139.671-.663.666C-270.894,383.375-273.686,383.388-276.478,383.388Z" transform="translate(-68.501 -7.011)" fill="#c1d8f9"/>
      <path id="Trazado_634312" data-name="Trazado 634312" d="M-355.2,429.645c0,7.6-.008,15.2.016,22.8,0,.635-.169.817-.784.764a11.166,11.166,0,0,0-1.941,0c-.613.054-.732-.179-.73-.749q.025-14.617.012-29.234c0-5.458.014-10.916-.018-16.374,0-.683.192-.86.834-.8a11.113,11.113,0,0,0,1.942,0c.594-.053.687.184.683.716-.024,3.265-.012,6.53-.012,9.795Z" transform="translate(-17.204 -29.649)" fill="#9ca3b9"/>
      <path id="Trazado_634313" data-name="Trazado 634313" d="M-163.768,429.591c0-7.577.009-15.154-.016-22.731,0-.653.145-.876.814-.816a18.331,18.331,0,0,0,2.167.009c.358-.01.509.115.47.472a3.445,3.445,0,0,0,0,.374q0,22.731.016,45.462c0,.691-.18.913-.86.848a10.326,10.326,0,0,0-1.867,0c-.6.052-.738-.154-.735-.736.023-5.384.014-10.767.014-16.151Z" transform="translate(-153.651 -29.643)" fill="#9ca3b9"/>
      <path id="Trazado_634314" data-name="Trazado 634314" d="M-360.79,387.336q-5.046,0-10.091,0a3.029,3.029,0,0,1-1.1-.144,1.888,1.888,0,0,1-1.2-1.953,1.862,1.862,0,0,1,1.672-1.642c.2-.019.4-.016.6-.016q10.166,0,20.332-.012c.552,0,.8.091.749.714a14.679,14.679,0,0,0,0,2.241c.044.624-.094.841-.79.831C-354.012,387.312-357.4,387.336-360.79,387.336Z" transform="translate(-7.021 -13.913)" fill="#ced1dc"/>
      <path id="Trazado_634315" data-name="Trazado 634315" d="M-204.542,383.573c3.439,0,6.877-.014,10.316.007a1.846,1.846,0,0,1,1.7,2.806,2.051,2.051,0,0,1-1.977.945q-8.41-.01-16.819,0c-1.246,0-2.492-.016-3.737.009-.415.008-.568-.1-.551-.534.033-.846.045-1.7,0-2.541-.031-.548.111-.709.685-.7C-211.469,383.588-208.005,383.573-204.542,383.573Z" transform="translate(-117.354 -13.905)" fill="#ced1dc"/>
      <path id="Trazado_634316" data-name="Trazado 634316" d="M-274.7,415.946c2.542,0,5.085.016,7.627-.012.6-.007.727.121.51.7-.444,1.187-.836,2.394-1.215,3.6-.121.386-.27.554-.712.552q-6.206-.029-12.413,0c-.373,0-.572-.077-.695-.473-.39-1.258-.817-2.506-1.262-3.746-.177-.495-.079-.637.459-.632C-279.831,415.959-277.263,415.946-274.7,415.946Z" transform="translate(-70.219 -36.575)" fill="#89b5f7"/>
      <path id="Trazado_634317" data-name="Trazado 634317" d="M-230.521,525.294c0,2.019-.015,4.039.011,6.058.006.481-.113.647-.612.622-.846-.042-1.7-.029-2.542,0-.388.012-.511-.106-.509-.5q.019-6.208,0-12.415c0-.378.1-.536.507-.525.872.024,1.745.03,2.617,0,.442-.016.539.15.535.559C-230.531,521.156-230.521,523.225-230.521,525.294Z" transform="translate(-104.363 -108.411)" fill="#91d4c2"/>
      <path id="Trazado_634318" data-name="Trazado 634318" d="M-359.906,599.884c-1.545,0-3.09-.019-4.634.011-.5.01-.707-.091-.679-.643.047-.919.042-1.844,0-2.764-.023-.512.167-.62.64-.618q4.746.027,9.492,0c.438,0,.626.1.609.58-.033.945-.041,1.895,0,2.84.025.529-.193.608-.65.6C-356.717,599.87-358.312,599.884-359.906,599.884Z" transform="translate(-12.603 -162.567)" fill="#9ba2b9"/>
      <path id="Trazado_634319" data-name="Trazado 634319" d="M-176.073,599.885c-1.619,0-3.239-.017-4.858.011-.47.008-.6-.141-.58-.594.033-.946.022-1.894,0-2.84-.007-.384.057-.592.521-.59q4.858.025,9.717,0c.411,0,.5.162.495.532-.018.971-.033,1.945.005,2.915.019.479-.151.582-.6.575C-172.934,599.87-174.5,599.885-176.073,599.885Z" transform="translate(-141.237 -162.569)" fill="#9ba2b9"/>
      <path id="Trazado_634320" data-name="Trazado 634320" d="M-262.481,443.667c-.008-1.6-.008-1.6,1.608-1.6.722,0,1.444.018,2.164-.008.363-.013.471.107.458.463-.026.746.011,1.494-.019,2.239a2.116,2.116,0,0,1-2.127,2.059,2.12,2.12,0,0,1-2.08-2.031C-262.5,444.414-262.481,444.04-262.481,443.667Z" transform="translate(-84.538 -54.865)" fill="#c2d9f9"/>
    </g>
  </g>
</svg>
