<svg xmlns="http://www.w3.org/2000/svg" width="85" height="85" viewBox="0 0 85 85">
  <g id="Grupo_956728" data-name="Grupo 956728" transform="translate(-180 -6099)">
    <rect id="Rectángulo_34178" data-name="Rectángulo 34178" width="85" height="85" transform="translate(180 6099)" fill="none"/>
    <g id="Grupo_956731" data-name="Grupo 956731" transform="translate(241.938 6583.126)">
      <path id="Trazado_631835" data-name="Trazado 631835" d="M22.67-402.172l-3.067-.012a3.388,3.388,0,0,0,.763-1.831,13.44,13.44,0,0,0-.1-3.546c-.074-.337-.023-.438.293-.578a3.4,3.4,0,0,0,2.136-3.345q.007-.941,0-1.882a3.413,3.413,0,0,0-2.172-3.387c-.276-.119-.33-.2-.268-.521a12.645,12.645,0,0,0,.054-3.875c-.07-.624-.7-1.109-.68-1.628s.6-1,.686-1.623a12.645,12.645,0,0,0,.013-3.48,3.361,3.361,0,0,0-3.408-2.915c-1.344-.019-2.688,0-4.033-.008-.156,0-.339.066-.5-.1l.554-.287a13.767,13.767,0,0,0,3.722-21.644,14.157,14.157,0,0,0-6.6-3.941V-458.3c1.152-.092,1.148-.092,1.153-1.314q.017-3.881.041-7.762l.152-.107c.246-.007.491-.019.737-.019q16.27,0,32.54,0c.246,0,.491.012.737.019l.165.117c.015.244.043.488.043.732,0,4.092.011,8.185-.01,12.277,0,.5.13.633.631.63,4.093-.021,8.185-.012,12.278-.01.244,0,.488.028.732.043l.116.165c.007.134.019.267.019.4q0,14.252,0,28.5c0,.178-.016.357-.024.535a1.984,1.984,0,0,0-.2.345,26.788,26.788,0,0,1-3.8,7.275,5.471,5.471,0,0,1-1.706,1.919c-.008-.246-.024-.491-.024-.737q0-8.029.009-16.058c0-.461-.1-.606-.584-.6-1.859.03-3.718.034-5.577,0-.563-.01-.747.1-.743.715.029,5.711.017,11.422.017,17.133,0,1.675,0,1.65-1.646,1.681-.54.01-.658-.151-.655-.668.02-4.546,0-9.093.023-13.639,0-.484-.09-.643-.612-.633-1.881.036-3.763.039-5.644,0-.56-.012-.641.182-.639.676.018,4.211.01,8.421.01,12.632,0,1.627,0,1.605-1.636,1.632-.523.009-.674-.124-.669-.661.027-3.023,0-6.047.026-9.071,0-.517-.142-.629-.636-.621-1.858.03-3.718.033-5.577,0-.539-.01-.714.1-.707.68.033,2.978,0,5.957.03,8.936.006.591-.139.756-.738.74-1.588-.043-1.563-.012-1.6,1.592-.011.562.152.7.705.7q10.751-.028,21.5-.011c.246,0,.491.017.737.026a2.86,2.86,0,0,1-.4.443,38.35,38.35,0,0,1-9.2,4.984c-1.4.523-2.859.844-4.245,1.395l-11.318.025C22.742-403.256,22.742-403.258,22.67-402.172ZM48.6-441.126c-2.135,2.135-4.149,4.139-6.147,6.161-.32.324-.45.064-.63-.116-1.284-1.282-2.579-2.553-3.841-3.857-.319-.33-.479-.282-.774.016-2.412,2.435-4.841,4.853-7.264,7.277-.379.38-1.029.752-1.052,1.156-.027.467.712.776,1.042,1.216.351.466.586.314.924-.028,2.11-2.135,4.245-4.244,6.354-6.38.305-.31.466-.316.773,0,1.248,1.285,2.539,2.529,3.787,3.816.32.33.488.356.828.012,2.328-2.361,4.678-4.7,7.028-7.038.163-.162.279-.4.6-.448,0,.755,0,1.487,0,2.219,0,.557-.19,1.3.092,1.619.333.37,1.1.061,1.67.128.467.054.545-.151.542-.567-.018-2.285-.023-4.57,0-6.854.006-.493-.108-.65-.625-.641-1.881.033-3.763.013-5.645.013-1.865,0-1.853,0-1.8,1.862.011.36.117.447.459.442C46.093-441.137,47.253-441.126,48.6-441.126Zm-14.42-14.914H28.943c-1.671,0-1.638,0-1.683,1.647-.016.6.2.674.719.671,3.784-.022,7.568-.012,11.352-.012,1.737,0,1.716,0,1.72-1.743,0-.5-.185-.576-.623-.571C38.348-456.028,36.265-456.039,34.183-456.039Zm-.064,6.906h5.307c1.619,0,1.588,0,1.629-1.64.015-.595-.19-.681-.719-.677-3.762.022-7.523.008-11.285.017-.577,0-1.365-.255-1.672.112-.291.348-.062,1.11-.11,1.687-.036.437.14.514.536.511C29.91-449.142,32.015-449.133,34.119-449.133Zm.013-11.5c-1.724,0-3.447,0-5.171,0-.533,0-1.238-.176-1.555.093-.376.319-.056,1.052-.134,1.6-.074.518.13.62.621.617,3.828-.022,7.656-.012,11.484-.012,1.687,0,1.668,0,1.672-1.717,0-.477-.142-.6-.6-.591C38.341-460.615,36.236-460.629,34.132-460.629Zm-9.141,5.734c0-1.144,0-1.144-1.158-1.144-1.136,0-1.136,0-1.136,1.166,0,1.14,0,1.14,1.158,1.14C24.991-453.733,24.991-453.733,24.991-454.895Zm-1.081,3.456c-1.213,0-1.213,0-1.213,1.218,0,1.087,0,1.087,1.081,1.087,1.213,0,1.213,0,1.213-1.223C24.991-451.438,24.991-451.438,23.91-451.438Zm1.08-8.009c0-1.181,0-1.181-1.186-1.181-1.108,0-1.108,0-1.108,1.125,0,1.173,0,1.173,1.184,1.173C24.99-458.331,24.99-458.331,24.99-459.447Z" transform="translate(-46.715 -6.248)" fill="#def0cc"/>
      <path id="Trazado_631836" data-name="Trazado 631836" d="M-36.646-428.775a14.157,14.157,0,0,1,6.6,3.941,13.767,13.767,0,0,1-3.722,21.644l-.554.287c.163.165.345.1.5.1,1.344.006,2.689-.011,4.033.008a3.361,3.361,0,0,1,3.408,2.915,12.645,12.645,0,0,1-.013,3.48c-.082.619-.669,1.1-.686,1.623s.61,1,.68,1.628a12.645,12.645,0,0,1-.054,3.875c-.062.318-.008.4.268.521a3.413,3.413,0,0,1,2.172,3.387q.005.941,0,1.882a3.4,3.4,0,0,1-2.136,3.345c-.316.14-.367.241-.293.578a13.44,13.44,0,0,1,.1,3.546,3.388,3.388,0,0,1-.763,1.831,3.921,3.921,0,0,1-3.059,1.227c-6.609-.022-13.217-.01-19.825-.011-2.481,0-3.853-1.377-3.854-3.866,0-.6-.011-1.21,0-1.815a3.333,3.333,0,0,1,2.066-3.179c.345-.157.42-.276.352-.665a11.607,11.607,0,0,1-.009-3.87c.057-.355.054-.523-.325-.689a3.306,3.306,0,0,1-2.084-3.229c-.009-.873-.016-1.748.028-2.619.036-.713.732-1.3.717-1.887-.015-.564-.682-1.136-.711-1.821a21.822,21.822,0,0,1,.011-3.221,3.388,3.388,0,0,1,3.435-2.967c1.5-.019,3,0,4.673,0-.34-.189-.535-.3-.736-.407a13.784,13.784,0,0,1-7.26-14.357A13.825,13.825,0,0,1-42.377-429,14.917,14.917,0,0,1-36.646-428.775Zm-3,24.826a11.4,11.4,0,0,0,11.005-12,11.422,11.422,0,0,0-12.349-10.905,11.5,11.5,0,0,0-10.546,12.179A11.486,11.486,0,0,0-39.647-403.949Zm-.409,10.314h-.874q-4.57,0-9.139,0c-1.1,0-1.489.406-1.493,1.511,0,.6,0,1.209,0,1.814a1.2,1.2,0,0,0,.381.967c.185.164.406.339.659.229.229-.1.126-.357.13-.546.035-1.721.032-1.721,1.774-1.645a.477.477,0,0,0,.067,0c.359-.037.469.144.457.479-.017.47,0,.941,0,1.411,0,.226.04.412.319.4.622-.027,1.346.228,1.837-.11.388-.268.081-.964.138-1.465a.914.914,0,0,0,0-.2c-.039-.359.084-.505.479-.523,1.791-.078,1.811-.091,1.8,1.68,0,.513.15.639.645.636,1.649-.011,1.675.008,1.646-1.621-.011-.574.174-.707.72-.7,1.579.027,1.6,0,1.569,1.567-.013.573.112.773.728.757,1.571-.042,1.6-.01,1.563-1.571-.013-.573.113-.772.729-.756,1.567.042,1.6.009,1.558,1.579-.015.587.134.763.736.747,1.563-.04,1.594-.01,1.556-1.58-.014-.6.156-.759.748-.745,1.551.036,1.543.007,1.566,1.53,0,.233-.184.6.184.685.329.074.585-.171.765-.447a1.454,1.454,0,0,0,.22-.831c-.005-.538,0-1.075,0-1.613,0-1.258-.384-1.641-1.647-1.642Q-35.15-393.637-40.056-393.635Zm.011-6.874q-5.007,0-10.014,0a1.484,1.484,0,0,0-1.175.377c-.479.5-.483,3.366,0,3.862.189.193.426.4.7.295.258-.1.126-.4.128-.6.02-1.646.016-1.623,1.641-1.648.533-.008.68.142.672.673-.024,1.66,0,1.644,1.683,1.644.46,0,.609-.119.609-.6,0-1.8.018-1.781,1.815-1.718.409.015.487.172.471.525-.022.469,0,.94,0,1.411,0,.189.008.372.268.364.646-.019,1.391.22,1.905-.1.355-.222.074-.962.118-1.468a.266.266,0,0,0,0-.067c-.094-.535.134-.673.66-.665,1.623.026,1.643,0,1.62,1.64-.007.505.1.691.652.681,1.644-.03,1.669,0,1.636-1.618-.011-.554.134-.717.7-.7,1.6.034,1.635.009,1.587,1.6-.019.626.191.733.753.721,1.551-.033,1.58-.009,1.54-1.579-.015-.589.134-.76.736-.743,1.567.043,1.559.012,1.58,1.573,0,.233-.186.6.169.688.327.079.578-.187.768-.449a1.35,1.35,0,0,0,.225-.827c0-.56,0-1.12,0-1.68,0-1.19-.387-1.578-1.564-1.579Q-35.1-400.511-40.044-400.509Zm-.066,20.676q-5.074,0-10.147,0a1.16,1.16,0,0,0-1.3,1.272c-.015.672,0,1.344-.005,2.016a1.206,1.206,0,0,0,.181.7c.192.287.456.6.8.514.367-.087.2-.494.2-.759.019-1.465.012-1.432,1.49-1.478.641-.02.845.15.824.809-.047,1.5-.012,1.472,1.5,1.51.6.015.809-.132.791-.77-.044-1.538-.01-1.514,1.527-1.546.569-.012.779.111.763.731-.04,1.578-.007,1.546,1.553,1.588.618.016.743-.188.731-.76-.033-1.555-.007-1.531,1.583-1.559.564-.01.717.157.708.714-.028,1.6,0,1.581,1.6,1.6.518.006.69-.123.683-.667-.023-1.651,0-1.625,1.626-1.649.559-.008.664.189.659.693-.016,1.634,0,1.613,1.652,1.623.51,0,.639-.151.637-.647-.008-1.765.01-1.755,1.812-1.663.342.018.485.114.47.467-.02.492,0,.985,0,1.478,0,.334.153.379.426.261a1.247,1.247,0,0,0,.757-1.237c.012-.582.008-1.165,0-1.747-.011-1.086-.424-1.5-1.5-1.5Q-35.1-379.835-40.11-379.832Zm-9.161-4.568a3.679,3.679,0,0,0,.19,1.7.752.752,0,0,0,.755.467c.392-.069.223-.433.227-.665.026-1.553.019-1.536,1.7-1.531.465,0,.609.135.611.607.008,1.768.024,1.752,1.774,1.705.437-.012.53-.181.51-.563-.023-.447-.005-.9,0-1.343,0-.185.005-.387.259-.384.645.009,1.378-.22,1.9.1.354.216.077.92.124,1.4a.852.852,0,0,1,0,.2c-.06.426.1.58.55.586,1.718.021,1.738.038,1.728-1.676,0-.506.144-.641.644-.638,1.646.012,1.664-.009,1.647,1.625-.005.5.1.7.656.692,1.629-.025,1.652,0,1.63-1.643-.007-.534.149-.68.676-.674,1.619.019,1.642,0,1.615,1.591-.009.538.111.737.693.726,1.6-.031,1.623,0,1.594-1.614-.011-.572.17-.713.719-.7,1.569.027,1.563,0,1.591,1.57,0,.218-.148.541.2.627a.7.7,0,0,0,.689-.334,1.412,1.412,0,0,0,.288-.942c0-.537,0-1.075,0-1.612,0-1.249-.339-1.586-1.6-1.586H-47.046C-49.18-386.707-49.272-386.616-49.272-384.4Z" transform="translate(0 -34.247)" fill="#020201"/>
      <path id="Trazado_631837" data-name="Trazado 631837" d="M56.123-459.94c-.244-.015-.488-.043-.732-.043-4.093,0-8.185-.011-12.278.01-.5,0-.634-.128-.631-.63.021-4.092.012-8.185.01-12.277,0-.244-.028-.488-.043-.732.035-.165-.075-.127-.165-.117-.245-.007-.491-.019-.737-.019q-16.27,0-32.54,0c-.245,0-.491.012-.736.019-.088-.017-.161-.014-.152.107q-.021,3.881-.041,7.762c-.005,1.222,0,1.222-1.153,1.314-1.149-.088-1.149-.088-1.149-1.259,0-3.2.01-6.405-.011-9.607,0-.477.081-.641.611-.64q18.612.026,37.223.006a1.121,1.121,0,0,1,.875.359q6.854,6.875,13.731,13.728a1.123,1.123,0,0,1,.35.88q-.011,26.639.009,53.277c0,.546-.18.6-.641.6q-18.779-.017-37.559.007c-.663,0-.945-.137-.816-.82a1.628,1.628,0,0,0-.023-.4c.072-1.086.072-1.084,1.222-1.087l11.318-.025c.089.009.178.025.267.025q11.69,0,23.381.014c.524,0,.555-.2.554-.624-.012-4.591,0-9.181-.009-13.772,0-2.149-.016-4.3-.025-6.447.009-.178.024-.357.024-.535q0-14.252,0-28.5c0-.134-.012-.268-.019-.4C56.249-459.865,56.289-459.975,56.123-459.94Zm-1.836-2.354L44.8-471.777c0,2.937.005,6-.006,9.064,0,.46.282.419.578.419h8.911Z" transform="translate(-43.571 0)" fill="#010101"/>
      <path id="Trazado_631838" data-name="Trazado 631838" d="M92.569-313.662c-.246-.009-.491-.026-.737-.026q-10.751,0-21.5.011c-.554,0-.717-.137-.705-.7.032-1.6.007-1.635,1.6-1.592.6.016.744-.149.738-.74-.032-2.978,0-5.957-.03-8.936-.007-.581.168-.69.707-.68,1.858.034,3.718.031,5.577,0,.493-.008.641.1.636.621-.027,3.023,0,6.047-.026,9.071,0,.537.147.67.669.661,1.635-.027,1.636-.005,1.636-1.632,0-4.211.008-8.421-.01-12.632,0-.494.079-.688.639-.676,1.881.04,3.763.037,5.644,0,.522-.01.614.148.612.633-.019,4.546,0,9.093-.023,13.639,0,.517.115.678.655.668,1.645-.031,1.646-.007,1.646-1.681,0-5.711.012-11.422-.017-17.133,0-.619.18-.725.743-.715,1.858.036,3.718.031,5.577,0,.482-.008.585.137.584.6q-.025,8.029-.009,16.058c0,.246.016.491.024.737-.009.512.01,1.026-.034,1.535-.041.472.123.614.594.6.548-.015,1.265-.254,1.6.1s.047,1.063.109,1.611c.056.5-.162.58-.607.578C96.76-313.693,94.664-313.671,92.569-313.662Zm2.3-10.891v-7.056c0-1.587,0-1.559-1.615-1.592-.582-.012-.69.181-.688.72.02,4.951.012,9.9.012,14.852,0,1.669,0,1.645,1.683,1.663.533.006.621-.179.617-.656C94.858-319.266,94.869-321.909,94.869-324.552Zm-9.162,2.291v-4.7c0-1.653,0-1.624-1.662-1.659-.565-.012-.64.192-.637.681.019,3.422.01,6.843.01,10.265,0,1.707,0,1.68,1.7,1.7.545.007.61-.194.6-.658C85.694-318.5,85.708-320.383,85.708-322.262Zm-9.167,2.211v-2.28c0-1.708,0-1.682-1.7-1.7-.536-.007-.617.179-.61.651.025,1.9.01,3.8.01,5.7,0,1.753,0,1.734,1.763,1.715.474-.005.549-.186.541-.595C76.527-317.725,76.541-318.888,76.541-320.051Z" transform="translate(-90.227 -102.691)" fill="#020201"/>
      <path id="Trazado_631839" data-name="Trazado 631839" d="M117.248-292.351c2.1-.009,4.191-.031,6.287-.018.445,0,.663-.082.607-.578-.062-.548.228-1.261-.109-1.611s-1.057-.115-1.6-.1c-.471.013-.635-.129-.594-.6.044-.509.025-1.023.034-1.535a5.471,5.471,0,0,0,1.706-1.919,26.787,26.787,0,0,0,3.8-7.275,1.986,1.986,0,0,1,.2-.345c.009,2.149.023,4.3.025,6.447,0,4.591,0,9.181.009,13.772,0,.419-.031.625-.554.624q-11.69-.029-23.381-.014c-.089,0-.178-.017-.267-.025,1.386-.551,2.846-.871,4.245-1.395a38.349,38.349,0,0,0,9.2-4.984A2.86,2.86,0,0,0,117.248-292.351Z" transform="translate(-114.906 -124.002)" fill="#cce6b1"/>
      <path id="Trazado_631840" data-name="Trazado 631840" d="M99.662-375.849c-1.35,0-2.509-.012-3.668.007-.342.006-.448-.082-.459-.442-.057-1.862-.069-1.862,1.8-1.862,1.882,0,3.764.02,5.645-.013.517-.009.631.148.625.641-.026,2.285-.021,4.569,0,6.854,0,.416-.075.622-.542.567-.572-.067-1.337.242-1.67-.128-.282-.314-.087-1.063-.092-1.619-.006-.732,0-1.464,0-2.219-.324.046-.44.286-.6.448-2.349,2.339-4.7,4.677-7.028,7.038-.339.344-.507.319-.828-.012-1.247-1.287-2.539-2.53-3.787-3.816-.307-.316-.467-.309-.773,0-2.109,2.136-4.244,4.245-6.354,6.38-.338.342-.573.494-.924.028-.331-.44-1.069-.749-1.042-1.216.023-.4.673-.776,1.052-1.156,2.422-2.424,4.852-4.842,7.264-7.277.3-.3.456-.346.774-.016,1.261,1.3,2.557,2.575,3.841,3.857.18.179.309.44.63.116C95.513-371.71,97.527-373.714,99.662-375.849Z" transform="translate(-97.775 -71.524)" fill="#040504"/>
      <path id="Trazado_631841" data-name="Trazado 631841" d="M80.81-424.973c2.083,0,4.165.011,6.247-.009.437,0,.624.068.623.571,0,1.743.017,1.743-1.72,1.743-3.784,0-7.568-.01-11.352.012-.522,0-.735-.069-.719-.671.044-1.646.012-1.647,1.683-1.647Z" transform="translate(-93.342 -37.314)" fill="#050605"/>
      <path id="Trazado_631842" data-name="Trazado 631842" d="M80.662-405.783c-2.1,0-4.209-.01-6.314.008-.4,0-.572-.074-.536-.511.048-.576-.181-1.339.11-1.687.307-.367,1.1-.11,1.672-.112,3.762-.009,7.523.006,11.285-.017.529,0,.734.083.719.677-.041,1.64-.01,1.64-1.629,1.64Z" transform="translate(-93.258 -49.597)" fill="#050605"/>
      <path id="Trazado_631843" data-name="Trazado 631843" d="M80.646-442.131c2.1,0,4.209.013,6.312-.01.462-.005.606.114.6.591,0,1.717.015,1.717-1.672,1.717-3.828,0-7.656-.01-11.484.012-.492,0-.695-.1-.621-.617.078-.545-.242-1.278.134-1.6.317-.269,1.022-.092,1.555-.093C77.2-442.135,78.923-442.131,80.646-442.131Z" transform="translate(-93.23 -24.745)" fill="#040504"/>
      <path id="Trazado_631844" data-name="Trazado 631844" d="M59.241-423.8c0,1.161,0,1.161-1.136,1.161-1.158,0-1.158,0-1.158-1.14,0-1.166,0-1.166,1.136-1.166C59.241-424.948,59.241-424.948,59.241-423.8Z" transform="translate(-80.966 -37.339)" fill="#050605"/>
      <path id="Trazado_631845" data-name="Trazado 631845" d="M58.16-407.869c1.081,0,1.081,0,1.081,1.083,0,1.223,0,1.223-1.213,1.223-1.081,0-1.081,0-1.081-1.087C56.947-407.869,56.947-407.869,58.16-407.869Z" transform="translate(-80.966 -49.817)" fill="#050605"/>
      <path id="Trazado_631846" data-name="Trazado 631846" d="M59.241-440.8c0,1.116,0,1.116-1.109,1.116-1.184,0-1.184,0-1.184-1.173,0-1.125,0-1.125,1.108-1.125C59.241-441.986,59.241-441.986,59.241-440.8Z" transform="translate(-80.966 -24.89)" fill="#040504"/>
      <path id="Trazado_631847" data-name="Trazado 631847" d="M141.335-467.458c.09-.01.2-.049.165.117Z" transform="translate(-142.622 -6.272)" fill="#cce6b1"/>
      <path id="Trazado_631848" data-name="Trazado 631848" d="M192.709-416.256c.165-.035.126.075.116.165Z" transform="translate(-180.157 -43.685)" fill="#cce6b1"/>
      <path id="Trazado_631849" data-name="Trazado 631849" d="M14.5-467.341c-.009-.12.064-.124.152-.107Z" transform="translate(-49.953 -6.282)" fill="#cce6b1"/>
      <path id="Trazado_631850" data-name="Trazado 631850" d="M-33.4-397.732a11.486,11.486,0,0,1-11.89-10.724,11.5,11.5,0,0,1,10.546-12.179A11.422,11.422,0,0,1-22.394-409.73,11.4,11.4,0,0,1-33.4-397.732Zm-3.753-9.18h-.609c-.736,0-.781.042-.554.763a3.535,3.535,0,0,0,2.56,2.351.909.909,0,0,1,.794,1.087c-.051,1.549-.015,1.513,1.543,1.567.652.022.826-.209.732-.784-.176-1.071,0-1.917,1.3-2.063a.873.873,0,0,0,.3-.146,3.108,3.108,0,0,0,1.827-2.769,3.106,3.106,0,0,0-1.839-2.761,5.379,5.379,0,0,0-2.572-.659,3.332,3.332,0,0,1-2.091-.6A.625.625,0,0,1-35.834-412c.865-.836,3.2-.872,3.983.038a1.3,1.3,0,0,0,1.2.462c.224-.009.448,0,.672,0,.784,0,.85-.085.583-.846a3.421,3.421,0,0,0-2.441-2.21c-.75-.206-.893-.544-.865-1.244.057-1.428.017-1.436-1.412-1.428-1.018.006-.912-.117-.843.912.066.984-.027,1.747-1.218,1.865a1.081,1.081,0,0,0-.36.176,3.127,3.127,0,0,0-1.885,2.734,3.116,3.116,0,0,0,1.848,2.826,5.884,5.884,0,0,0,2.841.68,2.869,2.869,0,0,1,1.82.575.631.631,0,0,1,.011,1.115c-.895.768-3.011.854-3.822-.006A1.586,1.586,0,0,0-37.152-406.912Z" transform="translate(-6.248 -40.464)" fill="#ee9a3b"/>
      <path id="Trazado_631851" data-name="Trazado 631851" d="M-33.8-297.232q4.906,0,9.811,0c1.263,0,1.645.384,1.647,1.642,0,.538,0,1.075,0,1.613a1.454,1.454,0,0,1-.22.831c-.18.277-.437.522-.765.447-.368-.083-.18-.452-.184-.685-.023-1.523-.014-1.494-1.566-1.53-.592-.014-.762.148-.748.745.038,1.57.008,1.54-1.556,1.58-.6.015-.751-.161-.736-.748.039-1.57.01-1.538-1.558-1.579-.616-.016-.742.183-.729.756.035,1.561.008,1.529-1.563,1.571-.617.016-.741-.184-.728-.757.036-1.562.009-1.539-1.569-1.567-.546-.009-.731.124-.72.7.029,1.629,0,1.611-1.646,1.621-.5,0-.649-.123-.645-.636.013-1.771-.007-1.758-1.8-1.68-.395.017-.518.164-.479.523a.914.914,0,0,1,0,.2c-.057.5.25,1.2-.138,1.465-.491.338-1.214.082-1.837.11-.279.012-.321-.173-.319-.4,0-.47-.012-.941,0-1.411.012-.335-.1-.516-.457-.479a.464.464,0,0,1-.067,0c-1.742-.076-1.74-.076-1.774,1.645,0,.189.1.448-.13.546-.253.109-.474-.065-.659-.229a1.2,1.2,0,0,1-.381-.966c.006-.6,0-1.21,0-1.814,0-1.105.395-1.509,1.493-1.511q4.57-.009,9.139,0Z" transform="translate(-6.255 -130.651)" fill="#9d7954"/>
      <path id="Trazado_631852" data-name="Trazado 631852" d="M-33.874-322.753q4.94,0,9.88,0c1.177,0,1.559.39,1.564,1.579,0,.56,0,1.12,0,1.68a1.349,1.349,0,0,1-.225.827c-.19.263-.441.529-.768.449-.354-.086-.166-.455-.169-.688-.021-1.561-.013-1.529-1.58-1.573-.6-.016-.751.154-.736.743.04,1.569.011,1.545-1.54,1.579-.562.012-.772-.095-.753-.721.048-1.591.012-1.565-1.587-1.6-.565-.012-.71.151-.7.7.032,1.614.007,1.588-1.636,1.618-.554.01-.659-.175-.652-.681.023-1.636,0-1.614-1.62-1.64-.526-.008-.753.13-.66.665a.266.266,0,0,1,0,.067c-.044.506.237,1.246-.118,1.468-.514.321-1.259.082-1.905.1-.26.008-.268-.175-.268-.364,0-.471-.017-.942,0-1.411.016-.353-.062-.51-.471-.525-1.8-.063-1.814-.078-1.815,1.718,0,.478-.149.6-.609.6-1.684,0-1.707.016-1.683-1.644.008-.531-.139-.681-.672-.673-1.624.025-1.62,0-1.641,1.648,0,.207.13.5-.128.6-.276.108-.513-.1-.7-.295-.486-.5-.482-3.358,0-3.862a1.484,1.484,0,0,1,1.175-.377Q-38.881-322.749-33.874-322.753Z" transform="translate(-6.171 -112.004)" fill="#bb9870"/>
      <path id="Trazado_631853" data-name="Trazado 631853" d="M-33.86-245.992q5.006,0,10.013,0c1.081,0,1.494.415,1.5,1.5.006.582.01,1.165,0,1.747a1.247,1.247,0,0,1-.757,1.237c-.273.118-.429.073-.426-.261,0-.493-.016-.986,0-1.478.014-.353-.128-.45-.47-.467-1.8-.093-1.82-.1-1.812,1.663,0,.5-.127.65-.637.647-1.65-.01-1.668.011-1.652-1.624,0-.5-.1-.7-.659-.693-1.624.024-1.649,0-1.626,1.649.007.544-.165.673-.683.667-1.607-.019-1.632,0-1.6-1.6.01-.556-.143-.724-.708-.714-1.59.028-1.616,0-1.583,1.559.012.572-.113.777-.731.76-1.56-.042-1.594-.01-1.553-1.588.016-.62-.194-.742-.763-.731-1.538.032-1.572.008-1.527,1.546.018.637-.19.784-.791.77-1.509-.038-1.544-.011-1.5-1.51.021-.659-.183-.828-.824-.809-1.478.046-1.471.013-1.49,1.478,0,.265.168.673-.2.759-.344.081-.608-.228-.8-.514a1.206,1.206,0,0,1-.181-.7c.007-.672-.01-1.344.005-2.016a1.16,1.16,0,0,1,1.3-1.272Q-38.934-246-33.86-245.992Z" transform="translate(-6.25 -168.089)" fill="#6d4c2e"/>
      <path id="Trazado_631854" data-name="Trazado 631854" d="M-36.823-269.2c0-2.215.091-2.306,2.226-2.306h19.146c1.257,0,1.593.337,1.6,1.586,0,.537,0,1.075,0,1.612a1.412,1.412,0,0,1-.288.942.7.7,0,0,1-.689.334c-.345-.085-.193-.409-.2-.627-.028-1.566-.023-1.543-1.591-1.57-.55-.009-.73.132-.719.7.029,1.61,0,1.583-1.594,1.614-.583.011-.7-.187-.693-.726.027-1.594,0-1.573-1.615-1.591-.527-.006-.683.14-.676.674.022,1.645,0,1.618-1.63,1.643-.559.009-.661-.19-.656-.692.018-1.633,0-1.613-1.647-1.625-.5,0-.646.131-.644.638.01,1.713-.011,1.7-1.728,1.676-.454-.006-.61-.16-.55-.586a.852.852,0,0,0,0-.2c-.046-.483.23-1.187-.124-1.4-.526-.321-1.26-.092-1.9-.1-.254,0-.258.2-.259.384,0,.448-.019.9,0,1.343.02.382-.073.552-.51.563-1.75.047-1.766.063-1.774-1.705,0-.471-.145-.605-.611-.607-1.68-.006-1.673-.022-1.7,1.531,0,.232.165.6-.227.665a.752.752,0,0,1-.755-.467A3.679,3.679,0,0,1-36.823-269.2Z" transform="translate(-12.449 -149.444)" fill="#825d40"/>
      <path id="Trazado_631855" data-name="Trazado 631855" d="M160.157-450.7h-8.911c-.3,0-.579.04-.578-.419.011-3.063.006-6.127.006-9.064Z" transform="translate(-149.441 -11.599)" fill="#70a83e"/>
      <path id="Trazado_631856" data-name="Trazado 631856" d="M157.1-318.316c0,2.643-.011,5.286.01,7.93,0,.477-.085.662-.617.656-1.683-.018-1.683.006-1.683-1.663,0-4.951.008-9.9-.012-14.852,0-.539.106-.732.688-.72,1.614.033,1.615.005,1.615,1.592Z" transform="translate(-152.457 -108.928)" fill="#e84555"/>
      <path id="Trazado_631857" data-name="Trazado 631857" d="M123.1-303.594c0,1.879-.014,3.757.01,5.636.006.464-.059.665-.6.658-1.695-.023-1.7,0-1.7-1.7,0-3.422.009-6.843-.01-10.265,0-.489.072-.693.637-.681,1.662.035,1.662.006,1.662,1.659Z" transform="translate(-127.616 -121.359)" fill="#f5cb45"/>
      <path id="Trazado_631858" data-name="Trazado 631858" d="M89.045-288.956c0,1.163-.014,2.326.008,3.488.008.409-.067.59-.541.595-1.764.019-1.763.038-1.763-1.715,0-1.9.014-3.8-.01-5.7-.006-.472.075-.658.61-.651,1.7.023,1.7,0,1.7,1.7Z" transform="translate(-102.732 -133.787)" fill="#a5d343"/>
      <path id="Trazado_631859" data-name="Trazado 631859" d="M-18.483-397.572a1.586,1.586,0,0,1,1.431.565c.811.86,2.927.774,3.822.006a.631.631,0,0,0-.011-1.115,2.869,2.869,0,0,0-1.82-.575,5.884,5.884,0,0,1-2.841-.68A3.116,3.116,0,0,1-19.75-402.2a3.127,3.127,0,0,1,1.885-2.734,1.081,1.081,0,0,1,.36-.176c1.191-.119,1.284-.881,1.218-1.865-.069-1.028-.175-.906.843-.912,1.429-.008,1.469,0,1.412,1.428-.028.7.115,1.038.865,1.244A3.421,3.421,0,0,1-10.727-403c.267.761.2.844-.583.846-.224,0-.448-.007-.672,0a1.3,1.3,0,0,1-1.2-.462c-.785-.91-3.118-.874-3.983-.038a.625.625,0,0,0,.071,1.073,3.332,3.332,0,0,0,2.091.6,5.379,5.379,0,0,1,2.572.659,3.106,3.106,0,0,1,1.839,2.761,3.108,3.108,0,0,1-1.827,2.769.873.873,0,0,1-.3.146c-1.3.146-1.474.991-1.3,2.063.094.575-.079.806-.732.784-1.558-.054-1.594-.017-1.543-1.567a.909.909,0,0,0-.794-1.087,3.535,3.535,0,0,1-2.56-2.351c-.227-.721-.182-.76.554-.763Z" transform="translate(-24.917 -49.804)" fill="#020201"/>
    </g>
  </g>
</svg>
