<svg xmlns="http://www.w3.org/2000/svg" width="84.549" height="84.548" viewBox="0 0 84.549 84.548">
  <g id="Grupo_956730" data-name="Grupo 956730" transform="translate(-322 -4755.188)">
    <g id="Grupo_952068" data-name="Grupo 952068" transform="translate(19 826.188)">
      <g id="Grupo_951854" data-name="Grupo 951854" transform="translate(303 3929)">
        <path id="Trazado_621807" data-name="Trazado 621807" d="M42.274,0A42.274,42.274,0,1,1,0,42.274,42.274,42.274,0,0,1,42.274,0Z" transform="translate(0 0)" fill="#ef8b53"/>
      </g>
    </g>
    <g id="Grupo_956729" data-name="Grupo 956729" transform="translate(788.063 5244.776)">
      <path id="Trazado_631808" data-name="Trazado 631808" d="M-442.342-481.8c-.684-.826-.717-1.2-.074-2.036a14.18,14.18,0,0,1,10.961-5.72,14.9,14.9,0,0,1,8.811,1.926,14,14,0,0,1,7.112,12.348.942.942,0,0,0,.642,1.035,3.081,3.081,0,0,1,.556,5.338,1.171,1.171,0,0,0-.541,1.154c.032.494.017.991,0,1.487a3.18,3.18,0,0,1-2.193,2.992,1.051,1.051,0,0,0-.859.964,11.142,11.142,0,0,1-4.246,7.127,1.885,1.885,0,0,0-.842,1.775c.057,1.455.017,1.453,1.394,1.723,3.561.7,7.129,1.361,10.678,2.114a14.867,14.867,0,0,1,5.879,2.684,9.529,9.529,0,0,1,3.8,8.359c-.041,1.972,0,1.972,1.954,1.972,2.837,0,5.675-.006,8.512,0,1.849.005,2.675.835,2.682,2.663,0,.551-.014,1.1,0,1.653a1.348,1.348,0,0,1-1.164,1.542c-1.02-.2-1.3-.532-1.317-1.545,0-.44-.022-.882,0-1.32.024-.391-.116-.542-.512-.53-1.1.033-2.2.042-3.294.061a1.769,1.769,0,0,0-.244-.033q-11.393,0-22.786-.017c-.537,0-.629.184-.625.665.021,2.531.039,5.063-.009,7.594-.013.717.219.843.88.841,7.32-.024,14.64-.015,21.96-.018.273,0,.546-.034.819-.053.788.021,1.577.055,2.365.061,1.436.01,1.437,0,1.44-1.455,0-1.253.2-1.521,1.313-1.787a1.34,1.34,0,0,1,1.154,1.629c-.207,1.379.23,2.1,1.6,2.745a9.108,9.108,0,0,1,4.859,10.013,9.388,9.388,0,0,1-7.842,7.464,11.936,11.936,0,0,1-1.727.125q-32.6,0-65.2,0c-4.554,0-8.466-2.772-9.341-6.988-.992-4.781.572-8.89,5.6-11.087a.905.905,0,0,0,.672-1c-.024-4.241.078-8.485-.035-12.724-.157-5.921,2.761-8.89,7.377-10.779a40.887,40.887,0,0,1,7.29-1.705c2.152-.45,4.31-.874,6.475-1.257.542-.1.6-.336.652-.811a2.984,2.984,0,0,0-1.317-2.979,10.573,10.573,0,0,1-3.777-6.67,1.037,1.037,0,0,0-.823-1.008,3.174,3.174,0,0,1-2.268-3.025,5.413,5.413,0,0,1,0-.826,2.188,2.188,0,0,0-.844-2.1,3.024,3.024,0,0,1,.858-5,.921.921,0,0,0,.648-1.033,13.005,13.005,0,0,1,.3-2.951c.206-1.04.557-1.319,1.635-1.316a1.347,1.347,0,0,1,.818,1.751,20.879,20.879,0,0,0-.3,2.368c-.068.675.144.88.844.875,4.538-.032,9.076-.013,13.615-.018,2.227,0,4.454-.023,6.68-.035,1.015.013,2.031,0,3.044.049.523.024.645-.174.638-.662a11.682,11.682,0,0,0-5.13-9.8c-.189-.136-.363-.342-.652-.3a16.085,16.085,0,0,1-.187,2.851,1.285,1.285,0,0,1-1.588.467,1.376,1.376,0,0,1-.75-1.491c.016-.6-.013-1.194-.022-1.79-.028-.441.276-1.093-.154-1.277a3.81,3.81,0,0,0-2.563-.371c-.015.191-.042.382-.042.573,0,2.009.008,4.017-.007,6.026-.008,1.021-.717,1.607-1.592,1.333a1.294,1.294,0,0,1-.887-1.418c0-1.981-.029-3.963.017-5.943.016-.675-.208-.809-.8-.66a9.893,9.893,0,0,1-1.3.232c-.618.07-.908.331-.849,1.008.064.737.022,1.484.013,2.227-.014,1.1-.469,1.686-1.275,1.664-.777-.021-1.208-.6-1.221-1.641-.007-.584,0-1.169,0-1.906a11.108,11.108,0,0,0-3.439,3.065A1.391,1.391,0,0,1-442.342-481.8Zm34.72,45.189c1.124.019,2.249.028,3.373.062.427.013.5-.211.491-.564-.014-.659.006-1.319-.009-1.978a7.311,7.311,0,0,0-5.177-7.152c-.22-.109-.442-.215-.661-.327-.648-.333-.871-.2-.854.582.05,2.31,0,4.623.027,6.934.009.811-.374,1.933.169,2.357.6.469,1.687.144,2.563.11A.354.354,0,0,0-407.623-436.611Zm-21.631-9.586a4.655,4.655,0,0,0,3.612-3.562,15.519,15.519,0,0,0,.17-3.406,19.133,19.133,0,0,1-3.806.961,19.784,19.784,0,0,1-3.77-.272c-.744-.14-1.725-.892-2.136-.379s-.127,1.58-.067,2.4A4.808,4.808,0,0,0-429.254-446.2Zm5.266-22.023c-.3-.01-.6-.03-.906-.03q-8.5,0-17.009,0c-1.617,0-1.6,0-1.565,1.6.018.751.337,1.091,1.1,1.1,1.439.021,1.7.3,1.812,1.747a9.012,9.012,0,0,0,3.789,6.924,9.96,9.96,0,0,0,9.8,1.533,9.547,9.547,0,0,0,6.769-8.7c.058-1.061.443-1.462,1.436-1.507,1.368-.063,1.409-.105,1.41-1.5,0-.247-.019-.5,0-.741.035-.361-.105-.47-.465-.466C-419.87-468.234-421.929-468.231-423.989-468.221Zm32.9,45.76c-.412-.019-.823-.055-1.235-.055q-31.853,0-63.706,0c-.413,0-.826.011-1.238.035a6.866,6.866,0,0,0-6.395,6.591,6.911,6.911,0,0,0,7.209,7.144q32.266.008,64.532,0c.275,0,.549-.024.824-.037a6.867,6.867,0,0,0,7.115-6.85A6.807,6.807,0,0,0-391.086-422.461ZM-434.165-425c4.243,0,8.485-.022,12.728.02.786.008.942-.237.931-.966-.042-2.7-.023-5.4-.014-8.1a2.244,2.244,0,0,1,2.49-2.508c1.488-.018,2.976-.013,4.463,0,.41,0,.658-.03.654-.56q-.033-4.916,0-9.833c0-.433-.176-.566-.562-.631q-1.179-.2-2.346-.468c-.519-.121-.671.039-.663.57.028,1.845.022,3.691.008,5.536a3.691,3.691,0,0,1-4.014,4.012q-9.918.025-19.836,0a3.7,3.7,0,0,1-3.992-4.039c0-1.846-.023-3.692.013-5.536.011-.566-.17-.643-.662-.524a16.734,16.734,0,0,1-2.185.423c-.586.062-.7.329-.695.857q.022,10.5-.005,20.99c0,.64.194.773.794.769C-442.761-425.012-438.463-425-434.165-425Zm3.7-15.405c3.3,0,6.609.005,9.914,0,1.121,0,1.568-.362,1.58-1.336.026-2.12.005-4.24.014-6.36,0-.351-.086-.558-.476-.627q-1.625-.286-3.237-.637c-.4-.088-.513.1-.626.43-1.181,3.449-3.816,5.423-7.166,5.387a7.322,7.322,0,0,1-7.03-5.361c-.132-.406-.256-.531-.674-.439-1.02.226-2.043.446-3.075.6-.507.075-.61.3-.605.757.021,1.955.007,3.91.01,5.865,0,1.343.37,1.722,1.706,1.725Q-435.3-440.4-430.466-440.405Zm-26.58,10.833c0,1.349.009,2.7-.006,4.049,0,.366.059.538.492.533,1.9-.025,3.8-.023,5.7,0,.454,0,.546-.18.544-.589q-.021-3.966,0-7.932c0-.427-.123-.576-.559-.571-1.873.019-3.747.026-5.62,0-.515-.008-.569.214-.562.634C-457.032-432.161-457.045-430.867-457.045-429.572Zm6.727-12.06c0-1.542,0-3.084,0-4.625,0-.342-.012-.632-.488-.458-3.312,1.217-5.8,3.083-6.17,6.671-.1,1.009-.042,2.035-.077,3.052-.014.4.2.442.517.441,1.873-.006,3.745-.015,5.618.006.477.005.613-.169.606-.627C-450.332-438.658-450.318-440.145-450.318-441.632Zm19.965-30.438h-10.98c-1.046,0-2.092.005-3.137,0-.455,0-.776.194-.777.655s.33.664.772.68c.165.006.33,0,.5,0q13.581,0,27.161,0A3.158,3.158,0,0,0-416-470.8a.593.593,0,0,0,.452-.694.584.584,0,0,0-.523-.553,4.97,4.97,0,0,0-.741-.026Z" fill="#040303"/>
      <path id="Trazado_631809" data-name="Trazado 631809" d="M-375.793-469.481c-2.227.012-4.454.032-6.68.035-4.538.006-9.077-.014-13.615.018-.7,0-.912-.2-.844-.875a20.858,20.858,0,0,1,.3-2.368,1.347,1.347,0,0,0-.818-1.751q.5-1.135,1-2.27a1.391,1.391,0,0,0,1.919-.554,11.109,11.109,0,0,1,3.439-3.065c0,.738-.006,1.322,0,1.906.013,1.046.443,1.62,1.22,1.641.806.022,1.261-.564,1.275-1.664.009-.743.052-1.49-.013-2.227-.059-.678.23-.938.849-1.008a9.906,9.906,0,0,0,1.3-.232c.593-.149.817-.015.8.66-.046,1.98-.014,3.962-.017,5.943a1.294,1.294,0,0,0,.887,1.418c.875.275,1.584-.312,1.592-1.333.015-2.008,0-4.017.007-6.026,0-.191.027-.382.042-.573a9.7,9.7,0,0,1,2.717,1.648c.009.6.038,1.194.022,1.79a1.376,1.376,0,0,0,.75,1.491,1.285,1.285,0,0,0,1.588-.466c.186.088.261.265.363.429A13.785,13.785,0,0,1-375.793-469.481Z" transform="translate(-45.886 -5.108)" fill="#ef9b4d"/>
      <path id="Trazado_631810" data-name="Trazado 631810" d="M-249.691-321.98c1.1-.018,2.2-.027,3.294-.061.4-.012.536.138.512.53-.027.439-.01.88,0,1.32.012,1.014.3,1.345,1.317,1.545q0,1.231,0,2.462c-1.114.266-1.31.534-1.313,1.787,0,1.458,0,1.465-1.44,1.455-.788-.005-1.577-.039-2.365-.061Z" transform="translate(-144.706 -112.055)" fill="#c7a365"/>
      <path id="Trazado_631811" data-name="Trazado 631811" d="M-397.394-341.187c-4.3,0-8.6-.012-12.893.013-.6,0-.8-.13-.795-.769q.036-10.495.005-20.99c0-.529.108-.8.695-.857a16.747,16.747,0,0,0,2.185-.423c.492-.12.673-.042.662.524-.036,1.845-.017,3.691-.013,5.536a3.7,3.7,0,0,0,3.992,4.039q9.918.029,19.836,0a3.691,3.691,0,0,0,4.014-4.012c.014-1.845.02-3.691-.008-5.536-.008-.53.144-.69.663-.57q1.165.27,2.346.468c.386.065.564.2.562.631q-.025,4.917,0,9.834c0,.53-.244.564-.654.56-1.487-.014-2.975-.019-4.463,0a2.244,2.244,0,0,0-2.49,2.508c-.008,2.7-.027,5.4.014,8.1.011.728-.145.974-.931.966C-388.908-341.21-393.151-341.187-397.394-341.187Z" transform="translate(-36.772 -83.813)" fill="#64ccdc"/>
      <path id="Trazado_631812" data-name="Trazado 631812" d="M-386.246-273.349c-.275.013-.549.037-.824.037q-32.266,0-64.532,0a6.911,6.911,0,0,1-7.209-7.144,6.866,6.866,0,0,1,6.395-6.591c.412-.025.825-.035,1.238-.035q31.853,0,63.706,0c.411,0,.823.036,1.235.055-.007.341.344.382.5.59.43.589,1.267.87,1.323,1.743a8.6,8.6,0,0,0-2.291-.229q-32.279,0-64.558,0c-.385,0-.772,0-1.156.032a4.707,4.707,0,0,0-4.159,5.51,4.761,4.761,0,0,0,5,3.91q32.32,0,64.641.008a9.676,9.676,0,0,0,2.691-.312c0,.209-.169.336-.245.5C-384.878-274.437-385.889-274.19-386.246-273.349Z" transform="translate(-4.848 -135.434)" fill="#94b5bf"/>
      <path id="Trazado_631813" data-name="Trazado 631813" d="M-297.466-321.958l0,8.978c-.273.018-.546.053-.819.053-7.32,0-14.64-.006-21.96.018-.661,0-.893-.124-.88-.841.048-2.53.03-5.062.009-7.594,0-.48.087-.666.625-.665q11.393.029,22.786.017A1.766,1.766,0,0,1-297.466-321.958Z" transform="translate(-96.931 -112.076)" fill="#e1b771"/>
      <path id="Trazado_631814" data-name="Trazado 631814" d="M-381.36-412.258a9.96,9.96,0,0,1-9.8-1.533,9.012,9.012,0,0,1-3.789-6.924c-.111-1.445-.373-1.726-1.812-1.747-.768-.011-1.087-.351-1.1-1.1-.037-1.6-.052-1.6,1.565-1.6q8.5,0,17.009,0c.3,0,.6.02.906.03,0,1.809.044,3.619-.01,5.427A10.651,10.651,0,0,1-380-414.28,11.5,11.5,0,0,0-381.36-412.258Z" transform="translate(-45.606 -43.085)" fill="#fbf1df"/>
      <path id="Trazado_631815" data-name="Trazado 631815" d="M-381.568-359.234q-4.833,0-9.666,0c-1.336,0-1.705-.382-1.706-1.725,0-1.955.012-3.91-.01-5.865,0-.462.1-.682.605-.757,1.032-.152,2.055-.372,3.075-.6.418-.092.543.032.674.439a7.322,7.322,0,0,0,7.03,5.361c3.35.036,5.986-1.939,7.166-5.387.113-.33.222-.518.626-.43q1.612.351,3.237.637c.391.069.478.276.476.627-.009,2.12.012,4.24-.014,6.36-.012.974-.459,1.333-1.58,1.336C-374.959-359.229-378.264-359.234-381.568-359.234Z" transform="translate(-48.897 -81.171)" fill="#ef9b4d"/>
      <path id="Trazado_631816" data-name="Trazado 631816" d="M-438.851-317.5c0-1.295.013-2.589-.007-3.884-.007-.42.047-.642.562-.634,1.873.03,3.746.022,5.62,0,.436,0,.562.144.559.571q-.024,3.966,0,7.932c0,.409-.09.593-.544.589-1.9-.02-3.8-.022-5.7,0-.433.006-.5-.167-.492-.533C-438.842-314.805-438.851-316.155-438.851-317.5Z" transform="translate(-18.195 -112.067)" fill="#f7eddb"/>
      <path id="Trazado_631817" data-name="Trazado 631817" d="M-432.118-355.164c0,1.487-.014,2.974.008,4.46.007.458-.129.632-.606.627-1.872-.021-3.745-.012-5.618-.006-.314,0-.53-.043-.517-.441.035-1.017-.026-2.043.077-3.052.366-3.588,2.857-5.454,6.17-6.671.476-.175.489.116.488.458C-432.121-358.247-432.118-356.705-432.118-355.164Z" transform="translate(-18.2 -86.468)" fill="#eb984c"/>
      <path id="Trazado_631818" data-name="Trazado 631818" d="M-348.017-412.272a11.5,11.5,0,0,1,1.358-2.022,10.651,10.651,0,0,0,1.61-5.429c.054-1.807.01-3.617.01-5.426,2.059-.01,4.118-.014,6.177-.038.359,0,.5.1.465.466-.024.245,0,.494,0,.741,0,1.392-.041,1.434-1.41,1.5-.993.045-1.378.446-1.436,1.507A9.547,9.547,0,0,1-348.017-412.272Z" transform="translate(-78.949 -43.07)" fill="#f9e3c4"/>
      <path id="Trazado_631819" data-name="Trazado 631819" d="M-388.319-436.7h13.539a4.974,4.974,0,0,1,.741.026.584.584,0,0,1,.523.553.593.593,0,0,1-.452.694,3.158,3.158,0,0,1-.817.062q-13.58,0-27.161,0c-.165,0-.33,0-.5,0-.443-.016-.773-.222-.772-.68s.322-.657.777-.655c1.046.006,2.091,0,3.137,0Z" transform="translate(-42.034 -35.373)" fill="#eb8935"/>
      <path id="Trazado_631820" data-name="Trazado 631820" d="M-239.712-273.258c.358-.841,1.369-1.088,1.747-1.919.076-.168.244-.295.245-.5a4.977,4.977,0,0,0,2.792-3.176c.647-2.382-.441-4.481-2.957-5.746-.056-.873-.893-1.154-1.323-1.743-.152-.208-.5-.249-.5-.59a6.807,6.807,0,0,1,7.106,6.828A6.867,6.867,0,0,1-239.712-273.258Z" transform="translate(-151.383 -135.525)" fill="#809daa"/>
      <path id="Trazado_631821" data-name="Trazado 631821" d="M-336.674-465.948a13.785,13.785,0,0,0-1.924-7.434c-.1-.164-.177-.341-.363-.429a16.094,16.094,0,0,0,.187-2.851c.29-.043.464.162.652.3a11.682,11.682,0,0,1,5.13,9.8c.006.489-.116.687-.638.662C-334.643-465.946-335.659-465.935-336.674-465.948Z" transform="translate(-85.005 -8.641)" fill="#eb8935"/>
      <path id="Trazado_631822" data-name="Trazado 631822" d="M-367.331-372.38a4.808,4.808,0,0,1-6-4.259c-.06-.819-.334-1.9.067-2.4s1.392.239,2.136.379a19.782,19.782,0,0,0,3.77.272Q-367.343-375.384-367.331-372.38Z" transform="translate(-61.923 -73.818)" fill="#fbf1df"/>
      <path id="Trazado_631823" data-name="Trazado 631823" d="M-293.607-358.721a7.311,7.311,0,0,1,5.177,7.152c.015.659-.005,1.319.009,1.978.008.353-.064.577-.491.564-1.124-.033-2.249-.043-3.373-.062,0-.853-.015-1.707.007-2.56C-292.213-354.1-292.2-356.544-293.607-358.721Z" transform="translate(-115.338 -87.523)" fill="#eb8935"/>
      <path id="Trazado_631824" data-name="Trazado 631824" d="M-296.86-359.728c1.405,2.177,1.394,4.619,1.329,7.074-.023.853-.006,1.707-.007,2.56a.356.356,0,0,1-.079.023c-.875.034-1.962.36-2.563-.11-.542-.424-.16-1.545-.169-2.357-.025-2.311.023-4.624-.027-6.934-.017-.783.207-.916.854-.582C-297.3-359.942-297.081-359.837-296.86-359.728Z" transform="translate(-112.085 -86.517)" fill="#ef9b4d"/>
      <path id="Trazado_631825" data-name="Trazado 631825" d="M-354.973-372.649q-.012-3-.024-6.007a19.129,19.129,0,0,0,3.806-.961,15.519,15.519,0,0,1-.17,3.406A4.655,4.655,0,0,1-354.973-372.649Z" transform="translate(-74.281 -73.548)" fill="#f9e3c4"/>
      <path id="Trazado_631826" data-name="Trazado 631826" d="M-351.572-480.065a9.7,9.7,0,0,0-2.717-1.648,3.81,3.81,0,0,1,2.563.371C-351.3-481.159-351.6-480.507-351.572-480.065Z" transform="translate(-74.754 -5.201)" fill="#eb8935"/>
      <path id="Trazado_631827" data-name="Trazado 631827" d="M-380.084-280.329c2.516,1.265,3.6,3.364,2.957,5.746a4.977,4.977,0,0,1-2.792,3.176,9.673,9.673,0,0,1-2.691.312q-32.32-.013-64.641-.008a4.761,4.761,0,0,1-5-3.91,4.707,4.707,0,0,1,4.159-5.51c.384-.03.771-.032,1.156-.032q32.279,0,64.558,0A8.6,8.6,0,0,1-380.084-280.329Zm-34.5,2.287c-2.452,0-4.9,0-7.357,0-.427,0-.706.01-.461.578a4.212,4.212,0,0,1-.011,3.295c-.192.493-.055.611.443.61q7.315-.018,14.631,0c.58,0,.648-.171.457-.663a4.1,4.1,0,0,1-.033-3.139c.242-.583.1-.694-.477-.689C-409.789-278.031-412.186-278.043-414.583-278.043Zm-16.489,4.471a5.541,5.541,0,0,1-.179-3.951c.166-.452-.069-.521-.435-.521q-5.525,0-11.05,0c-.372,0-.591.081-.434.526a4.824,4.824,0,0,1-.052,3.459c-.126.321-.108.5.323.494C-439-273.577-435.1-273.572-431.073-273.572Zm32.894-.072a1.363,1.363,0,0,0,.271.067c3.82,0,7.641,0,11.462.015.555,0,.5-.231.356-.592a4.509,4.509,0,0,1-.084-3.143c.209-.62.058-.76-.553-.755-2.611.022-5.222.009-7.834.009h-3.051c-.3,0-.59.035-.433.457A5.534,5.534,0,0,1-398.179-273.643Zm-28.672-4.425a2.2,2.2,0,0,0-2.211,2.272,2.248,2.248,0,0,0,2.21,2.212,2.3,2.3,0,0,0,2.274-2.252A2.248,2.248,0,0,0-426.851-278.069Zm24.42,0a2.245,2.245,0,0,0-2.27,2.233,2.3,2.3,0,0,0,2.274,2.251,2.252,2.252,0,0,0,2.21-2.213A2.2,2.2,0,0,0-402.431-278.068Zm18.52,2.227a2.257,2.257,0,0,0,2.249,2.259,2.292,2.292,0,0,0,2.229-2.293,2.231,2.231,0,0,0-2.223-2.194A2.2,2.2,0,0,0-383.911-275.842Zm-65.939.025a2.292,2.292,0,0,0,2.291,2.232,2.255,2.255,0,0,0,2.19-2.317,2.2,2.2,0,0,0-2.233-2.169A2.234,2.234,0,0,0-449.85-275.817Z" transform="translate(-9.183 -139.798)" fill="#020202"/>
      <path id="Trazado_631828" data-name="Trazado 631828" d="M-354.334-272.981c2.4,0,4.794.012,7.191-.009.577,0,.719.106.477.689a4.1,4.1,0,0,0,.033,3.139c.191.492.123.665-.457.663q-7.316-.028-14.631,0c-.5,0-.635-.117-.443-.61a4.212,4.212,0,0,0,.011-3.295c-.245-.568.035-.579.461-.578C-359.239-272.977-356.786-272.981-354.334-272.981Z" transform="translate(-69.432 -144.859)" fill="#3a4848"/>
      <path id="Trazado_631829" data-name="Trazado 631829" d="M-412.809-268.494c-4.023,0-7.924,0-11.825.007-.431,0-.448-.173-.323-.494a4.824,4.824,0,0,0,.052-3.459c-.157-.445.062-.526.434-.526q5.525,0,11.05,0c.366,0,.6.069.435.521A5.541,5.541,0,0,0-412.809-268.494Z" transform="translate(-27.446 -144.876)" fill="#3a4848"/>
      <path id="Trazado_631830" data-name="Trazado 631830" d="M-288.825-268.583a5.534,5.534,0,0,0,.134-3.941c-.157-.421.129-.456.433-.457h3.051c2.611,0,5.222.012,7.834-.009.611,0,.762.135.553.755a4.509,4.509,0,0,0,.084,3.143c.141.361.2.595-.356.592-3.821-.02-7.642-.011-11.462-.015A1.363,1.363,0,0,1-288.825-268.583Z" transform="translate(-118.536 -144.859)" fill="#3a4848"/>
      <path id="Trazado_631831" data-name="Trazado 631831" d="M-379.86-273.042a2.248,2.248,0,0,1,2.273,2.232,2.3,2.3,0,0,1-2.274,2.252,2.248,2.248,0,0,1-2.21-2.212A2.2,2.2,0,0,1-379.86-273.042Z" transform="translate(-56.174 -144.825)" fill="#dbe5ea"/>
      <path id="Trazado_631832" data-name="Trazado 631832" d="M-306.247-273.041a2.2,2.2,0,0,1,2.214,2.27,2.252,2.252,0,0,1-2.21,2.213,2.3,2.3,0,0,1-2.274-2.251A2.245,2.245,0,0,1-306.247-273.041Z" transform="translate(-105.366 -144.826)" fill="#dbe5ea"/>
      <path id="Trazado_631833" data-name="Trazado 631833" d="M-245.747-270.818a2.2,2.2,0,0,1,2.256-2.229,2.231,2.231,0,0,1,2.223,2.194,2.292,2.292,0,0,1-2.229,2.293A2.257,2.257,0,0,1-245.747-270.818Z" transform="translate(-147.346 -144.822)" fill="#dbe5ea"/>
      <path id="Trazado_631834" data-name="Trazado 631834" d="M-444.835-270.795a2.234,2.234,0,0,1,2.248-2.254,2.2,2.2,0,0,1,2.233,2.169,2.255,2.255,0,0,1-2.19,2.317A2.292,2.292,0,0,1-444.835-270.795Z" transform="translate(-14.197 -144.82)" fill="#dbe5ea"/>
    </g>
  </g>
</svg>
