<svg id="Grupo_963601" data-name="Grupo 963601" xmlns="http://www.w3.org/2000/svg" width="77.539" height="60.592" viewBox="0 0 77.539 60.592">
  <path id="Trazado_635580" data-name="Trazado 635580" d="M-337.672,379.35c.976.315,1.158.556,1.158,1.569,0,2.952.024,5.905-.017,8.857-.009.658.188.8.8.759.88-.054,1.766-.024,2.649-.011a1.146,1.146,0,0,1,1.265,1.11,1.16,1.16,0,0,1-1.228,1.158c-.2.01-.4,0-.606,0h-73.9c-.2,0-.4.009-.606,0a1.149,1.149,0,0,1-1.192-1.191,1.127,1.127,0,0,1,1.221-1.075c2.019-.012,4.039,0,6.058,0,1.337,0,2.676-.035,4.012.016.585.022.694-.158.692-.709-.021-5.93-.013-11.86-.013-17.789,0-.2,0-.4,0-.606a1.9,1.9,0,0,1,1.963-2.04q2.838-.062,5.678,0c1.341.028,2.01.83,2.011,2.3,0,6.005.012,12.011-.014,18.016,0,.641.114.91.808.824a7.219,7.219,0,0,1,1.663,0c.632.07.73-.192.729-.758q-.025-13.815-.012-27.631a2.441,2.441,0,0,1,.343-1.592,1.808,1.808,0,0,1,1.478-.784c.549,0,1.1,0,1.643,0,.087-.316-.136-.457-.247-.634a16.61,16.61,0,0,1-2.278-5.395c-.1-.471-.268-.652-.783-.635-1.387.043-2.776.022-4.164.009a.821.821,0,0,0-.815.371,2.591,2.591,0,0,1-2.275,1.121c-.909.006-1.818-.011-2.726.005a1.266,1.266,0,0,1-1.444-1.129c.26-.954.485-1.134,1.465-1.142.851-.007,1.7-.01,2.554,0,.474.006.678-.192.664-.676-.029-.975-.026-1.951-.037-2.927.009-.251.026-.5.026-.754,0-1.043,0-1.044-1.046-1.045h-5.371c-2.244,0-4.488-.018-6.732.007a2.694,2.694,0,0,0-2.779,2.616,2.6,2.6,0,0,0,2.408,2.695c1.467.177,2.939.044,4.409.08.972.025,1.2.195,1.455,1.147a1.258,1.258,0,0,1-1.445,1.125,47.215,47.215,0,0,1-4.764-.076,4.905,4.905,0,0,1-4.331-5.217,4.916,4.916,0,0,1,4.82-4.624c4.339-.061,8.68-.026,13.02-.012a2.486,2.486,0,0,1,2.128,1.109.767.767,0,0,0,.727.389c1.463-.018,2.928-.026,4.39,0,.424.009.542-.161.644-.528,2.042-7.374,6.837-11.829,14.348-13.2,8.924-1.625,18.1,4.863,19.739,13.817a17.422,17.422,0,0,1-2.49,12.951c-.089.14-.251.254-.2.55.374,0,.767-.022,1.156,0a1.789,1.789,0,0,1,1.7,1.628,8.752,8.752,0,0,1,.032.982q0,13.661-.014,27.322c0,.643.119.908.809.824a7.284,7.284,0,0,1,1.662,0c.628.069.725-.191.724-.753q-.022-19.6-.007-39.2a5.333,5.333,0,0,1,.1-1.2A1.789,1.789,0,0,1-344.279,348c1.968-.027,3.937-.038,5.9,0a1.888,1.888,0,0,1,1.86,2.126q.01,5.563,0,11.126,0,6.774,0,13.548c0,1.074-.164,1.3-1.185,1.627a1.425,1.425,0,0,1-1.1-1.629c.028-4.582.016-9.165.012-13.747q0-5.324-.023-10.648c.016-.1-.024-.144-.126-.123l-2.268,0c-.327-.009-.655-.025-.982-.026-1.7,0-1.7,0-1.7,1.665v37.538c0,.177.014.354,0,.53-.035.371.073.559.5.538.73-.036,1.462-.025,2.193-.034l2.268,0c.1.021.142-.022.127-.123q.012-4.713.024-9.426C-338.784,379.9-338.64,379.7-337.672,379.35Zm-29.125-6.892c-.729-.019-1.458-.028-2.186-.06-.389-.017-.529.133-.528.527q.013,8.544,0,17.088c0,.4.131.532.523.516.73-.03,1.461-.024,2.191-.033.554.008,1.112-.018,1.662.035.59.057.76-.134.757-.741-.026-5.095-.015-10.189-.015-15.284C-364.394,372.192-364.394,372.192-366.8,372.458Zm-25.6,18.037c.63.008,1.262,0,1.891.032.415.023.505-.153.5-.532q-.013-8.9,0-17.79c0-.378-.107-.568-.507-.552-.629.025-1.258.033-1.887.048-.7-.019-1.407-.014-2.108-.065-.514-.038-.633.168-.625.65.027,1.636.01,3.273.01,4.909,0,4.2.009,8.409-.012,12.613,0,.541.1.78.7.727C-393.754,390.474-393.072,390.5-392.392,390.5Zm15.133-.119c.012-.3.034-.6.034-.9,0-7.989-.034-15.977.036-23.965a3.208,3.208,0,0,0-1.4-3.116,1.274,1.274,0,0,0-1.088-.32c-.629-.011-1.263.018-1.887-.046s-.737.185-.733.756c.023,4.134.012,8.268.012,12.4,0,4.89.008,9.78-.011,14.67,0,.511.105.724.656.678.651-.054,1.309-.029,1.964-.038l2.272,0C-377.3,390.515-377.241,390.494-377.259,390.377Zm25.452.12c.1.017.17,0,.157-.121.015-.2.042-.4.042-.6q0-13.5,0-27.009a2.718,2.718,0,0,1,0-.3c.036-.33-.109-.445-.435-.432-.679.027-1.36.027-2.04.039-.619.059-.821.693-1.3.942-1.157.6-1.328,1.569-1.32,2.8.055,7.96.039,15.92.01,23.88,0,.714.207.908.874.84.574-.059,1.157-.029,1.735-.038Zm-16.657-55.816a2.44,2.44,0,0,0-.968.111A15.225,15.225,0,0,0-381.78,348.3,14.941,14.941,0,0,0-376.5,361.23a14.2,14.2,0,0,0,8.188,3.527,13.058,13.058,0,0,0,4.734-.191,15.265,15.265,0,0,0,11.955-17.092C-352.7,339.52-360.531,333.5-368.464,334.681Zm-6.486,30.425v.9q0,11.051,0,22.1c0,.777-.263,1.825.132,2.259.454.5,1.521.081,2.314.167.6.064.743-.14.741-.733-.024-5.8-.017-11.606-.012-17.409a1.972,1.972,0,0,1,2.222-2.248c1.615-.013,3.23,0,4.846,0,1.963,0,2.584.619,2.584,2.57,0,5.677.016,11.354-.02,17.031,0,.7.2.859.836.795a7.751,7.751,0,0,1,1.588,0c.626.067.791-.132.788-.771-.024-7.9-.016-15.795-.016-23.692v-.663A17.933,17.933,0,0,1-374.949,365.106Zm-11.5-16.666h-.6c-1.916,0-1.9,0-1.832,1.9.015.388.118.525.516.516,1.029-.023,2.058-.008,3.088-.008,1.189,0,1.188,0,1.183-1.153a7.6,7.6,0,0,1,.02-.827c.035-.327-.077-.445-.413-.434C-385.141,348.456-385.794,348.44-386.447,348.44Z" transform="translate(409.36 -332.205)" fill="#030303"/>
  <path id="Trazado_635581" data-name="Trazado 635581" d="M-398.759,413.12q4.2,0,8.4,0a1.936,1.936,0,0,1,2.215,2.224q.007,2.989,0,5.978a1.9,1.9,0,0,1-2.12,2.173q-8.476.027-16.952,0c-1.462,0-2.144-.751-2.147-2.232q-.006-2.951,0-5.9c0-1.535.72-2.24,2.28-2.242Q-402.921,413.117-398.759,413.12Zm-4.383,8.064q6.165.02,12.331.046c.444,0,.4-.267.4-.547,0-1.589-.009-3.178.006-4.767,0-.362-.051-.536-.482-.533-4.087.023-8.173.024-12.26.031-1.154-.009-2.309-.009-3.463-.032-.335-.007-.493.057-.489.446.02,1.657.014,3.314,0,4.971,0,.316.092.457.425.445C-405.5,421.2-404.318,421.312-403.142,421.184Z" transform="translate(409.367 -388.562)" fill="#030303"/>
  <path id="Trazado_635582" data-name="Trazado 635582" d="M-182.4,391.889q.012,5.324.023,10.648c0,4.582.015,9.165-.012,13.747a1.425,1.425,0,0,0,1.1,1.629q.013,1.46.026,2.921c-.968.35-1.111.555-1.114,1.6q-.012,4.713-.024,9.426l-.127.123-2.268,0V391.77l2.268,0Z" transform="translate(252.949 -373.69)" fill="#66dea0"/>
  <path id="Trazado_635583" data-name="Trazado 635583" d="M-380.434,386.677c.01.976.008,1.952.037,2.927.014.484-.19.683-.664.676-.851-.011-1.7-.007-2.554,0-.979.008-1.2.188-1.465,1.142l-2.984,0c-.256-.952-.483-1.122-1.455-1.147-1.47-.037-2.942.1-4.409-.08a3.73,3.73,0,0,1,3.809-3.517Q-385.277,386.67-380.434,386.677Z" transform="translate(398.613 -370.144)" fill="#6d8a94"/>
  <path id="Trazado_635584" data-name="Trazado 635584" d="M-400.158,469.427c-1.033,0-2.067.012-3.1,0-.839-.013-1.314-.439-1.314-1.129s.486-1.131,1.316-1.136q3.138-.02,6.277,0c.829.005,1.315.451,1.314,1.138s-.475,1.114-1.316,1.127C-398.04,469.44-399.1,469.427-400.158,469.427Z" transform="translate(406.027 -426.194)" fill="#030303"/>
  <path id="Trazado_635585" data-name="Trazado 635585" d="M-400.118,479.8c1.059,0,2.118-.014,3.176,0,.8.014,1.255.422,1.275,1.09a1.136,1.136,0,0,1-1.278,1.173q-3.176.024-6.352,0a1.135,1.135,0,0,1-1.276-1.176c.021-.666.477-1.073,1.278-1.087C-402.236,479.783-401.177,479.8-400.118,479.8Z" transform="translate(406.028 -435)" fill="#030303"/>
  <path id="Trazado_635586" data-name="Trazado 635586" d="M-400.189,494.744c-1.034,0-2.068.009-3.1,0-.789-.009-1.255-.418-1.278-1.086a1.139,1.139,0,0,1,1.27-1.179q3.177-.019,6.355,0a1.143,1.143,0,0,1,1.28,1.171c-.019.668-.487,1.085-1.272,1.094C-398.02,494.754-399.1,494.744-400.189,494.744Z" transform="translate(406.026 -443.829)" fill="#030303"/>
  <path id="Trazado_635587" data-name="Trazado 635587" d="M-401.918,505.2c.5,0,1.009-.025,1.51.005a1.04,1.04,0,0,1,1.077,1.041,1.023,1.023,0,0,1-1,1.175,32.194,32.194,0,0,1-3.243-.007.99.99,0,0,1-.966-1.133,1.022,1.022,0,0,1,1.042-1.073C-402.977,505.17-402.446,505.2-401.918,505.2Z" transform="translate(406.009 -452.689)" fill="#030303"/>
  <path id="Trazado_635588" data-name="Trazado 635588" d="M-287.447,340.02c7.932-1.185,15.763,4.839,16.842,12.792a15.265,15.265,0,0,1-11.955,17.092,13.059,13.059,0,0,1-4.734.191c-.016-.212-.182-.288-.341-.362a17.575,17.575,0,0,1-4.4-3.095,2.607,2.607,0,0,1-1-1.438,12.491,12.491,0,0,0,12.968,1.084c1.092-.5,1.171-.688,1.095-1.863l2.157-2.02c1.027.247,1.3.131,1.861-.773a12.5,12.5,0,0,0-5.157-17.843,12.309,12.309,0,0,0-12.774.99.868.868,0,0,1,.316-.8,20.107,20.107,0,0,1,3.807-3.042C-288.318,340.653-287.718,340.564-287.447,340.02Z" transform="translate(328.343 -337.544)" fill="#6d8a94"/>
  <path id="Trazado_635589" data-name="Trazado 635589" d="M-190.978,391.718v40.21c-.731.009-1.463,0-2.193.034-.423.021-.531-.167-.5-.538.016-.175,0-.353,0-.53V393.357c0-1.666,0-1.667,1.7-1.665C-191.633,391.693-191.306,391.709-190.978,391.718Z" transform="translate(259.134 -373.638)" fill="#5dc991"/>
  <path id="Trazado_635590" data-name="Trazado 635590" d="M-305.277,340.31c-.272.543-.871.632-1.32.916a20.106,20.106,0,0,0-3.807,3.042.868.868,0,0,0-.316.8c-.177.142-.351.287-.53.425a12.555,12.555,0,0,0-4.25,13.44,12.9,12.9,0,0,0,4.63,6.561,2.606,2.606,0,0,0,1,1.438,17.573,17.573,0,0,0,4.4,3.095c.159.074.324.15.341.362a14.205,14.205,0,0,1-8.188-3.527,14.941,14.941,0,0,1-5.281-12.926,15.225,15.225,0,0,1,12.348-13.512A2.441,2.441,0,0,1-305.277,340.31Z" transform="translate(346.174 -337.834)" fill="#597680"/>
  <path id="Trazado_635591" data-name="Trazado 635591" d="M-317.562,458.91c-.655.009-1.313-.016-1.964.038-.55.046-.658-.167-.656-.678.018-4.89.011-9.78.011-14.67,0-4.134.011-8.268-.012-12.4,0-.571.111-.819.733-.756s1.257.035,1.887.046Q-317.563,444.7-317.562,458.91Z" transform="translate(347.25 -400.621)" fill="#f1c544"/>
  <path id="Trazado_635592" data-name="Trazado 635592" d="M-233.227,459.037c-.579.009-1.161-.021-1.735.038-.667.068-.876-.127-.874-.84.029-7.96.045-15.92-.01-23.88-.008-1.229.163-2.2,1.32-2.8.478-.249.68-.883,1.3-.942Q-233.228,444.826-233.227,459.037Z" transform="translate(288.509 -400.748)" fill="#f1c544"/>
  <path id="Trazado_635593" data-name="Trazado 635593" d="M-227.217,458.946q0-14.211,0-28.422c.68-.012,1.361-.012,2.04-.039.325-.013.471.1.435.432a2.722,2.722,0,0,0,0,.3q0,13.5,0,27.009c0,.2-.027.4-.042.6l-.157.12Z" transform="translate(282.499 -400.658)" fill="#f7d348"/>
  <path id="Trazado_635594" data-name="Trazado 635594" d="M-311.549,458.961q0-14.211,0-28.422a1.274,1.274,0,0,1,1.088.32,3.208,3.208,0,0,1,1.4,3.116c-.069,7.988-.034,15.976-.036,23.965,0,.3-.022.6-.034.9l-.142.12Z" transform="translate(341.237 -400.672)" fill="#f7d348"/>
  <path id="Trazado_635595" data-name="Trazado 635595" d="M-359.728,480.979c-.68.009-1.362-.021-2.037.039-.6.053-.7-.186-.7-.727.021-4.2.012-8.409.012-12.613,0-1.636.017-3.273-.01-4.909-.008-.483.111-.688.625-.65.7.051,1.4.046,2.108.065Z" transform="translate(376.696 -422.688)" fill="#d74f33"/>
  <path id="Trazado_635596" data-name="Trazado 635596" d="M-275.353,482.734c-.73.009-1.462,0-2.191.033-.392.017-.523-.117-.523-.516q.015-8.544,0-17.088c0-.394.139-.544.528-.527.728.032,1.457.042,2.186.06Z" transform="translate(317.915 -424.443)" fill="#d74f33"/>
  <path id="Trazado_635597" data-name="Trazado 635597" d="M-353.457,481.026V462.231c.629-.015,1.258-.023,1.887-.048.4-.015.508.174.507.552q-.013,8.9,0,17.79c0,.378-.09.555-.5.532C-352.2,481.023-352.827,481.034-353.457,481.026Z" transform="translate(370.425 -422.735)" fill="#ea6039"/>
  <path id="Trazado_635598" data-name="Trazado 635598" d="M-269.125,482.606l0-18.037c2.4-.266,2.4-.266,2.4,2.048,0,5.094-.011,10.189.015,15.284,0,.607-.167.8-.757.741C-268.013,482.587-268.571,482.614-269.125,482.606Z" transform="translate(311.687 -424.315)" fill="#ea6039"/>
  <path id="Trazado_635599" data-name="Trazado 635599" d="M-385.964,382.536q-4.842,0-9.685,0a3.73,3.73,0,0,0-3.809,3.517,2.6,2.6,0,0,1-2.408-2.695,2.694,2.694,0,0,1,2.779-2.616c2.244-.025,4.488-.007,6.732-.007h5.371c1.047,0,1.049,0,1.046,1.045C-385.938,382.033-385.954,382.285-385.964,382.536Z" transform="translate(404.143 -366.003)" fill="#597680"/>
  <path id="Trazado_635600" data-name="Trazado 635600" d="M-339.5,385.683c.653,0,1.306.016,1.958-.006.336-.011.448.107.413.434a7.6,7.6,0,0,0-.02.827c0,1.153.006,1.153-1.183,1.153-1.029,0-2.059-.016-3.088.008-.4.009-.5-.128-.516-.516-.072-1.9-.084-1.9,1.832-1.9Z" transform="translate(362.418 -369.448)" fill="#aacbd0"/>
  <path id="Trazado_635601" data-name="Trazado 635601" d="M-177.193,391.878l-.126-.123C-177.217,391.734-177.177,391.777-177.193,391.878Z" transform="translate(247.744 -373.678)" fill="#5dc991"/>
  <path id="Trazado_635602" data-name="Trazado 635602" d="M-304.061,524l.142-.12C-303.9,524-303.965,524.018-304.061,524Z" transform="translate(336.02 -465.708)" fill="#f1c544"/>
  <path id="Trazado_635603" data-name="Trazado 635603" d="M-219.729,524l.157-.12C-219.559,524-219.633,524.015-219.729,524Z" transform="translate(277.282 -465.707)" fill="#f1c544"/>
  <path id="Trazado_635604" data-name="Trazado 635604" d="M-177.321,524l.127-.123C-177.179,523.978-177.219,524.022-177.321,524Z" transform="translate(247.745 -465.707)" fill="#5dc991"/>
  <path id="Trazado_635605" data-name="Trazado 635605" d="M-388.893,420.609c4.087-.007,8.173-.008,12.26-.031.431,0,.486.171.482.533-.015,1.589-.007,3.178-.006,4.767,0,.279.049.549-.4.547q-6.165-.035-12.331-.046-.006-.85-.012-1.7a8.39,8.39,0,0,0,1.2-.082,1.04,1.04,0,0,0,.9-1.13,1.051,1.051,0,0,0-1.041-1.078c-.349-.032-.7-.03-1.051-.043Zm7.261,1.768c-.984,0-1.968-.011-2.951,0a1.153,1.153,0,0,0-1.27,1.1,1.151,1.151,0,0,0,1.234,1.156q2.988.03,5.977,0a1.148,1.148,0,0,0,1.2-1.12,1.124,1.124,0,0,0-1.235-1.137C-379.665,422.364-380.649,422.378-381.632,422.377Z" transform="translate(395.108 -393.757)" fill="#5bccf3"/>
  <path id="Trazado_635606" data-name="Trazado 635606" d="M-397.96,420.607q0,.868,0,1.737c-.475.013-.95.019-1.425.04a1.083,1.083,0,0,0-1.188,1.078,1.118,1.118,0,0,0,1.185,1.175c.474.03.95.028,1.425.04q.006.85.012,1.7c-1.176.128-2.356.016-3.533.059-.334.012-.428-.129-.425-.445.011-1.657.016-3.314,0-4.971,0-.389.154-.452.489-.446C-400.269,420.6-399.114,420.6-397.96,420.607Z" transform="translate(404.175 -393.756)" fill="#4eb1e3"/>
  <path id="Trazado_635607" data-name="Trazado 635607" d="M-274.349,373.661l-2.157,2.02a1.507,1.507,0,0,0-2.026-.228,8.814,8.814,0,0,1-4.78,1.079,26.091,26.091,0,0,1-2.605-1.919,11.258,11.258,0,0,1-3.47-9.77,11.364,11.364,0,0,1,3.06-6.42,17.378,17.378,0,0,1,3.015-2.353,4.835,4.835,0,0,1,.524-.034,10.253,10.253,0,0,1,8.391,15.589A1.487,1.487,0,0,0-274.349,373.661Zm-9.946-4.747a5.725,5.725,0,0,0,0,.6,1.146,1.146,0,0,0,1.123,1.1,1.145,1.145,0,0,0,1.125-1.1,2.7,2.7,0,0,0,.011-.528.887.887,0,0,1,.662-1.016,4.916,4.916,0,0,0,3.022-5.752,4.984,4.984,0,0,0-4.932-3.788,4.936,4.936,0,0,0-4.795,4.389c-.134.955.221,1.579.954,1.678.709.1,1.144-.354,1.279-1.321a2.7,2.7,0,0,1,2.6-2.471,2.7,2.7,0,0,1,2.679,2.114,2.607,2.607,0,0,1-1.714,3.071A2.882,2.882,0,0,0-284.295,368.914Zm2.259,4A1.151,1.151,0,0,0-283.2,371.7a1.156,1.156,0,0,0-1.1,1.209,1.124,1.124,0,0,0,1.135,1.23A1.115,1.115,0,0,0-282.035,372.913Z" transform="translate(325.873 -348.803)" fill="#ccebf9"/>
  <path id="Trazado_635608" data-name="Trazado 635608" d="M-288.66,368.313a1.487,1.487,0,0,1-.048-2.035,10.253,10.253,0,0,0-8.391-15.589,4.843,4.843,0,0,0-.524.034,1.99,1.99,0,0,0-.3-.031,10.286,10.286,0,0,0-9.488,12.948c1.223,4.45,5.478,7.73,9.786,7.544a8.815,8.815,0,0,0,4.78-1.079,1.507,1.507,0,0,1,2.026.228c.076,1.176,0,1.359-1.1,1.863a12.491,12.491,0,0,1-12.968-1.084,12.9,12.9,0,0,1-4.63-6.561,12.555,12.555,0,0,1,4.25-13.44c.179-.138.353-.283.53-.425a12.309,12.309,0,0,1,12.774-.99A12.5,12.5,0,0,1-286.8,367.54C-287.356,368.444-287.633,368.56-288.66,368.313Z" transform="translate(340.184 -343.455)" fill="#030303"/>
  <path id="Trazado_635609" data-name="Trazado 635609" d="M-374.65,426.5c.983,0,1.967-.014,2.951,0a1.124,1.124,0,0,1,1.235,1.137,1.148,1.148,0,0,1-1.2,1.12q-2.988.035-5.977,0a1.151,1.151,0,0,1-1.234-1.156,1.153,1.153,0,0,1,1.27-1.1C-376.618,426.484-375.634,426.5-374.65,426.5Z" transform="translate(388.126 -397.876)" fill="#030303"/>
  <path id="Trazado_635610" data-name="Trazado 635610" d="M-394.884,428.736c-.475-.012-.951-.011-1.425-.04a1.118,1.118,0,0,1-1.185-1.175,1.083,1.083,0,0,1,1.188-1.078c.474-.021.95-.027,1.425-.04.35.013.7.011,1.051.043a1.051,1.051,0,0,1,1.041,1.078,1.04,1.04,0,0,1-.9,1.13A8.39,8.39,0,0,1-394.884,428.736Z" transform="translate(401.097 -397.815)" fill="#030303"/>
  <path id="Trazado_635611" data-name="Trazado 635611" d="M-292.425,376.542c-4.308.186-8.562-3.094-9.786-7.544a10.286,10.286,0,0,1,9.488-12.948,1.986,1.986,0,0,1,.3.031,17.377,17.377,0,0,0-3.015,2.353,11.365,11.365,0,0,0-3.06,6.42,11.258,11.258,0,0,0,3.47,9.77A26.086,26.086,0,0,0-292.425,376.542Z" transform="translate(334.987 -348.813)" fill="#a7e1f6"/>
  <path id="Trazado_635612" data-name="Trazado 635612" d="M-281.106,374.423a2.882,2.882,0,0,1,2.018-3.016,2.607,2.607,0,0,0,1.714-3.071,2.7,2.7,0,0,0-2.679-2.114,2.7,2.7,0,0,0-2.6,2.471c-.135.967-.57,1.416-1.279,1.321-.732-.1-1.087-.723-.954-1.678a4.936,4.936,0,0,1,4.795-4.389,4.984,4.984,0,0,1,4.932,3.788,4.916,4.916,0,0,1-3.022,5.752.887.887,0,0,0-.662,1.016,2.7,2.7,0,0,1-.011.528,1.145,1.145,0,0,1-1.125,1.1,1.146,1.146,0,0,1-1.123-1.1A5.725,5.725,0,0,1-281.106,374.423Z" transform="translate(322.684 -354.311)" fill="#030303"/>
  <path id="Trazado_635613" data-name="Trazado 635613" d="M-270.121,408.871a1.115,1.115,0,0,1-1.131,1.23,1.124,1.124,0,0,1-1.135-1.23,1.156,1.156,0,0,1,1.1-1.209A1.151,1.151,0,0,1-270.121,408.871Z" transform="translate(313.959 -384.761)" fill="#030303"/>
</svg>
