<svg xmlns="http://www.w3.org/2000/svg" width="144.902" height="144.902" viewBox="0 0 144.902 144.902">
  <g id="Grupo_963312" data-name="Grupo 963312" transform="translate(-75 -115.319)">
    <g id="Grupo_94722" data-name="Grupo 94722" transform="translate(75 115.319)">
      <g id="_240_F_327287600_TyhZPz7Qge3YOTv4dab7M9xRDBiZxF9G" data-name="240_F_327287600_TyhZPz7Qge3YOTv4dab7M9xRDBiZxF9G" fill="#e0dafc" stroke="#e28f5e" stroke-width="3">
        <circle cx="72.451" cy="72.451" r="72.451" stroke="none"/>
        <circle cx="72.451" cy="72.451" r="70.951" fill="none"/>
      </g>
    </g>
    <g id="Grupo_963311" data-name="Grupo 963311" transform="translate(569.088 -294.316)">
      <path id="Trazado_635291" data-name="Trazado 635291" d="M-423.516,531.245a1.709,1.709,0,0,1-1.957,1.382c-5.362-.024-10.723-.006-16.085-.013a3.046,3.046,0,0,1-3.308-3.312c-.008-2.664-.013-5.328,0-7.993a9.262,9.262,0,0,1,6.116-8.9c1.585-.618,3.166-1.246,4.745-2.021-.291-.014-.582-.041-.872-.041q-14.111,0-28.222,0c-2.487,0-3.618-1.114-3.6-3.61.025-2.959-.209-5.93.111-8.874a8.705,8.705,0,0,1,5.59-7.5c3.509-1.462,7.076-2.784,10.617-4.17a1.317,1.317,0,0,0,.383-2.231,9.672,9.672,0,0,1-3.264-5.8c-.082-.493-.259-.621-.743-.62a4.118,4.118,0,0,1-4.086-2.694,4.279,4.279,0,0,1,.962-4.9,1.019,1.019,0,0,0,.3-1,57.3,57.3,0,0,1-.128-6.6,10.091,10.091,0,0,1,.215-2.742,7.3,7.3,0,0,1,6.835-5.555c2.893-.072,5.79.022,8.683-.042,2.513-.055,4.577.547,5.448,3.219,1.438-1.016,1.533-2.034.358-3.2a4.212,4.212,0,0,1,.128-6.147,1.764,1.764,0,0,0,.675-1.59,14.752,14.752,0,0,1,1.182-7.02,13.124,13.124,0,0,1,14.453-7.451,13.058,13.058,0,0,1,10.447,12.636c0,.362.028.726,0,1.085a3.251,3.251,0,0,0,.956,2.787,4.014,4.014,0,0,1-.351,5.747,1.668,1.668,0,0,0-.584,1.628c.126,1.067.511,1.221,1.4.632a12.455,12.455,0,0,1,13.085-.948c4.649,2.266,7.042,6.135,7.332,11.3.02.361.022.723.017,1.085a3.741,3.741,0,0,0,.977,3.085,4.035,4.035,0,0,1-.39,5.68,1.758,1.758,0,0,0,.144,2.841,5.6,5.6,0,0,1,3.094,4.49,8.4,8.4,0,0,1-1.252,5.46,1,1,0,0,0-.068.218c.479.195.959.4,1.443.585a9.264,9.264,0,0,1,6.277,8.89c.052,2.7.03,5.394,0,8.091a3.018,3.018,0,0,1-3.359,3.257q-14.21.006-28.419,0h-.927l-.037.184q2.444.959,4.889,1.919a9.258,9.258,0,0,1,6.022,8.761q.027,4.095,0,8.19a3.026,3.026,0,0,1-3.21,3.21c-5.427.011-10.854-.006-16.282.013a1.661,1.661,0,0,1-1.857-1.38c.253-1.258.647-1.588,1.938-1.59,2.532-.005,5.065-.02,7.6.012.592.008.785-.125.774-.753-.041-2.269-.029-4.538-.009-6.807a1.437,1.437,0,0,1,1.5-1.576,1.468,1.468,0,0,1,1.449,1.543c.116,1.89.117,1.89,1.982,1.89.066,0,.131,0,.2,0,.948-.02,2.263.33,2.752-.154.623-.616.245-1.929.179-2.929a6.05,6.05,0,0,0-3.8-5.535c-2.291-.979-4.649-1.8-6.964-2.722-.454-.181-.655-.127-.939.3-4.359,6.505-12.891,6.5-17.236-.015-.237-.355-.4-.528-.846-.342-1.572.657-3.158,1.28-4.739,1.916l-.256.115.051.009-.049-.018c-.583.21-1.171.406-1.748.632a6.155,6.155,0,0,0-4.04,5.024,29.491,29.491,0,0,0-.09,3.04c-.034.589.2.708.734.693,1.211-.034,2.426-.053,3.636.006.689.034.816-.239.788-.842a3.12,3.12,0,0,1,.358-2.177,1.561,1.561,0,0,1,1.827-.252,1.669,1.669,0,0,1,.772,1.688c-.019,2.17.018,4.342-.023,6.512-.012.621.17.765.77.757,2.532-.034,5.066-.017,7.6-.013C-424.163,529.657-423.772,529.985-423.516,531.245Zm-8.709-81.523c-.953.032-1.491.486-1.491,1.257s.526,1.219,1.489,1.283c.533.119.879.044.792-.642a5.347,5.347,0,0,1,0-1.262C-431.361,449.69-431.668,449.569-432.226,449.722Zm-.2,21.962c-.753-.174-1.034.146-.967.886a5.574,5.574,0,0,1,0,1.183c-.1.819.279.976.969.779a1.291,1.291,0,0,0,1.119-1.376A1.311,1.311,0,0,0-432.423,471.684Zm21.911,25.036a1.2,1.2,0,0,0,1.006-1.328,1.253,1.253,0,0,0-1.011-1.431c-.778-.22-1.1.068-1.023.874a5.966,5.966,0,0,1,0,1.173C-411.627,496.892-411.225,497.019-410.511,496.72Zm0-44.491a1.215,1.215,0,0,0,.975-1.251,1.2,1.2,0,0,0-.978-1.232c-.4-.055-1.014-.3-1.118.13a4.864,4.864,0,0,0,0,2.221C-411.534,452.523-410.912,452.272-410.513,452.229Zm21.721,19.951c-.78-.3-1.188-.113-1.082.8a3.764,3.764,0,0,1,0,.885c-.118.944.337,1.064,1.09.789a1.134,1.134,0,0,0,1.052-1.295A1.088,1.088,0,0,0-388.792,472.179Zm-42.86,22.149c-1.074-.619-1.855-.3-1.982.813-.109.959.369,1.514,1.414,1.639.384.126.629.069.611-.416C-431.635,495.686-431.639,495.007-431.653,494.329Zm.182-34.118c.129.642.287,1.279.38,1.926.119.823-.377,2.03.237,2.376.483.271,1.54-.447,2.328-.761a1.294,1.294,0,0,0,.4-2.194,14.381,14.381,0,0,1-2.131-2.564,19.946,19.946,0,0,1-1.238-3.588c-.209.61-.153,1.317-.475,1.735C-432.941,458.409-432.408,459.315-431.47,460.211Zm23.1,21.291a22.8,22.8,0,0,1-1.381-3.677,6,6,0,0,1-.933,2.879c-.18.256.005.491.191.7.262.289.512.589.767.885a10.027,10.027,0,0,1,.395,4.061c-.006.655.2.831.809.56.536-.239,1.089-.441,1.637-.652a1.34,1.34,0,0,0,.493-2.328A13.724,13.724,0,0,1-408.367,481.5Zm-13.2-11.455a6.509,6.509,0,0,0,5.645-2.818c.418-.543.257-.758-.324-.923a2.5,2.5,0,0,1-2.083-2.41c-.018-.409-.234-.407-.52-.31a10.92,10.92,0,0,1-2.714.4,12.23,12.23,0,0,1-2.705-.408c-.265-.083-.531-.126-.539.293-.027,1.421-.957,2.073-2.151,2.456-.639.205-.64.479-.266.956A6.632,6.632,0,0,0-421.571,470.047Zm.009,44.71a6.492,6.492,0,0,0,6.025-3.482q-.5-.2-1-.389c-.625-.241-1.4-.543-1.463-1.194-.169-1.745-1.208-1.392-2.292-1.152a12.061,12.061,0,0,1-1.265.148,18.159,18.159,0,0,1-2.8-.454c-.269-.1-.447-.085-.454.257A2.549,2.549,0,0,1-427.015,511c-.773.208-.612.543-.243,1A6.961,6.961,0,0,0-421.562,514.756Zm-21.915-28.313a20.011,20.011,0,0,1-3.151-.567,2.563,2.563,0,0,1-2.181,2.871c-.715.194-.691.481-.283.991a7.023,7.023,0,0,0,5.807,2.779,6.809,6.809,0,0,0,5.65-2.854c.368-.471.3-.693-.269-.865-.824-.252-1.866-.558-1.956-1.447-.174-1.728-1.167-1.255-2.155-1.077C-442.5,486.363-442.989,486.39-443.477,486.443Zm43.815,0a17.234,17.234,0,0,1-3.339-.569c.2,2.069-1.314,2.6-2.794,3.168a6.293,6.293,0,0,0,2.819,2.727,1.618,1.618,0,0,1,.974,2.154c-.862.936-1.289,1.016-2.4.444a9.7,9.7,0,0,1-3.837-3.592c-.151-.243-.174-.708-.664-.546a.5.5,0,0,0-.419.471c-.027.4.191.552.5.74a4.491,4.491,0,0,1,2.169,5.047,4.332,4.332,0,0,1-4.256,3.3c-.511.024-.722.128-.817.689a9.538,9.538,0,0,1-3.086,5.581c-.322.293-.719.567-.543,1.055.183.509.679.259,1.024.26,8.55.015,17.1,0,25.649.035.933,0,1.23-.193,1.19-1.168-.083-2.068-.038-4.142-.019-6.213.011-1.117.546-1.735,1.44-1.755.933-.021,1.482.62,1.52,1.784a7.521,7.521,0,0,1,0,.986c-.056.566.181.742.735.727,1.249-.033,2.5-.03,3.748,0,.523.012.7-.179.675-.688-.041-.886.026-1.781-.066-2.66a6.173,6.173,0,0,0-4.157-5.484c-2.2-.853-4.409-1.69-6.6-2.572-.521-.21-.784-.177-1.082.352a9.351,9.351,0,0,1-4.049,3.776c-1.208.609-1.7.492-2.527-.566a1.765,1.765,0,0,1,1.187-2.09,6.237,6.237,0,0,0,2.951-2.824c-1.542-.5-2.93-1.107-2.775-3.1A16.581,16.581,0,0,1-399.662,486.442Zm-43-3.087a6.584,6.584,0,0,0,6.1-5.222,30.711,30.711,0,0,0,.241-4.994,2.5,2.5,0,0,0-1.066-2.586c-.482-.324-.673-.364-1.1-.038a6.837,6.837,0,0,1-3.918,1.385c-1.144.047-2.289.067-3.433.1-1.341-.021-2.682-.03-4.023-.068-.421-.012-.577.13-.567.559.035,1.572-.058,3.154.081,4.715A6.865,6.865,0,0,0-442.667,483.355Zm21.291,22.241a6.637,6.637,0,0,0,6.535-4.94c.493-1.7.26-3.452.363-5.181a2.618,2.618,0,0,0-1.171-2.735c-.4-.248-.558-.331-.943-.041a7.3,7.3,0,0,1-4.591,1.468c-.917-.01-1.834.025-2.751.039-1.375-.015-2.75-.014-4.125-.053-.494-.014-.607.194-.6.641.026,1.31-.037,2.624.034,3.931C-428.4,502.93-425.3,505.841-421.375,505.6Zm-.2-44.65a6.68,6.68,0,0,0,6.7-5.265,31.242,31.242,0,0,0,.218-5.6c.023-.571-.4-.4-.683-.409-2.2-.086-4.345-.319-5.94-2.1-.264-.295-.421-.17-.623.056a6.483,6.483,0,0,1-2.825,1.721c-1.041.1-2.08.225-3.123.3-.4.028-.66.05-.645.578.042,1.442-.046,2.891.047,4.328A6.645,6.645,0,0,0-421.573,460.947Zm21.909,22.481a6.712,6.712,0,0,0,6.523-4.984c.48-1.738.233-3.521.331-5.282.045-.821-.127-1.156-1.047-1.126a6.86,6.86,0,0,1-5.557-1.983c-.284-.3-.448-.248-.69.027a6.766,6.766,0,0,1-2.912,1.744,18.126,18.126,0,0,1-3.033.229c-.47-.025-.641.159-.63.625.037,1.573-.039,3.154.088,4.719A6.732,6.732,0,0,0-399.664,483.427Zm-.975-26.368a2.24,2.24,0,0,0-.49-.012c-5.946,1.156-8.983,5.691-8.775,11.432.018.489.238.616.674.606,1.018-.022,2.038-.023,3.057-.032,2.812.094,4.02-.492,4.748-2.412.307-.81.734-1.444,1.643-1.448.95,0,1.43.62,1.716,1.49a3.21,3.21,0,0,0,2.619,2.259,16.317,16.317,0,0,0,3.045.142c2.918.012,2.918,0,2.657-2.911A9.885,9.885,0,0,0-400.639,457.06Zm-27.228-10.394c2.289.076,4.138-.48,4.877-3.007a1.532,1.532,0,0,1,2.173-.708,2.174,2.174,0,0,1,.935,1.338,3.188,3.188,0,0,0,2.642,2.236,32.7,32.7,0,0,0,5.111.206c.456-.006.651-.156.64-.63a21.035,21.035,0,0,0-.206-3.53,10.047,10.047,0,0,0-10.651-7.972,14.547,14.547,0,0,0-1.729.277,10.433,10.433,0,0,0-7.584,11.232c.039.462.191.643.647.628C-429.963,446.7-428.915,446.688-427.867,446.666Zm-.806,44.485c2.527.012,5.054.031,7.582.032a4.28,4.28,0,0,0,3.871-2.114,1.744,1.744,0,0,1,1.927-1.033,1.649,1.649,0,0,1,1.328,1.625,1.636,1.636,0,0,0,.859,1.353c.445.242.827.3.825-.417-.008-2.068.005-4.136-.008-6.2a1.215,1.215,0,0,0-1.28-1.315c-1.866-.155-2.694-.77-3.18-2.512a1.567,1.567,0,0,0-1.575-1.328c-2.589-.131-5.178-.122-7.768-.006-3.289-.436-5.571.922-6.006,3.837a44.685,44.685,0,0,0-.084,7.156c.008.624.5.963,1.155.956C-430.243,491.173-429.458,491.161-428.673,491.151Zm-19.937-34.115c-.491-.008-.985-.047-1.474-.019a4.247,4.247,0,0,0-3.851,3.833c-.073,2.328-.025,4.659-.03,6.989,0,.744.39,1.07,1.108,1.062.82-.009,1.64-.014,2.46-.021,2.359.208,4.723.136,7.085.124a4.76,4.76,0,0,0,4.383-2.331,1.583,1.583,0,0,1,1.8-.9,1.662,1.662,0,0,1,1.336,1.625,1.688,1.688,0,0,0,.68,1.256.855.855,0,0,0,.826.2c.318-.111.236-.434.237-.685,0-1.9.022-3.809-.006-5.713-.017-1.149-.41-1.541-1.514-1.652a2.916,2.916,0,0,1-2.982-2.481,1.529,1.529,0,0,0-1.59-1.318C-442.963,457.009-445.786,457.025-448.61,457.036Zm-9.281,35.32c-.614.217-1.239.408-1.841.657a6.229,6.229,0,0,0-3.769,4.254,15.453,15.453,0,0,0-.242,4.011c-.009.493.323.485.667.485,1.247,0,2.494-.032,3.739.013.631.023.787-.222.765-.8a4.11,4.11,0,0,1,.244-2.124,1.524,1.524,0,0,1,1.868-.422,1.608,1.608,0,0,1,.835,1.65c0,2.1.043,4.207-.021,6.309-.025.835.224,1.021,1.035,1.019,8.609-.031,17.219-.016,25.829-.029.326,0,.785.22.968-.207.2-.463-.134-.776-.474-1.077a9.386,9.386,0,0,1-3.139-5.647c-.081-.5-.261-.646-.748-.651a4.148,4.148,0,0,1-4.129-2.783,4.347,4.347,0,0,1,1.048-4.9c.23-.234.522-.436.191-.8-.032,0-.079,0-.1.015-.191.224-.374.455-.567.677a9.47,9.47,0,0,1-6.838,3.462,9.851,9.851,0,0,1-9.43-4.76c-.185-.291-.269-.643-.8-.415C-454.478,491.016-456.189,491.674-457.89,492.356Zm45.012-24.173c-.109.053-.183.064-.207.1-4,6.733-13.766,6.048-17.085-.133-.125-.232-.231-.466-.593-.335-.326.118-.315.354-.349.622-.058.458.242.607.562.8a4.5,4.5,0,0,1,2.034,5.184,10.8,10.8,0,0,1-1.04,1.935c.214,0,.339.01.462,0,3.476-.314,6.959-.129,10.439-.121,2.09,0,3.8.776,4.564,2.907.2.547.421.356.7.118a1.818,1.818,0,0,0,0-2.651,4.161,4.161,0,0,1-.11-6.268A2.153,2.153,0,0,0-412.878,468.183Zm23.1,9.609a11.478,11.478,0,0,1-3.534,6.265,1.5,1.5,0,0,0,.245,2.026c1.739.691,3.491,1.348,5.23,2.041a.883.883,0,0,0,1.123-.294,5.35,5.35,0,0,0,.629-4.782,1.2,1.2,0,0,0-.451-.5A5.39,5.39,0,0,1-389.781,477.792Zm-21.78-22.5c-.128.135-.236.195-.247.269a10.025,10.025,0,0,1-3.284,6,1.345,1.345,0,0,0,.566,2.244c.459.177.927.332,1.373.536.422.192.63.134.747-.36a13.155,13.155,0,0,1,2.1-4.52c.159-.227.3-.449.071-.7A5.857,5.857,0,0,1-411.561,455.293Zm-27.85,74.362c2.747,0,2.747,0,2.64-2.094a.59.59,0,0,1,0-.1c.058-.449-.173-.551-.578-.543-1.048.02-2.1.006-3.146.006-1.412,0-1.412,0-1.412,1.374,0,1.354,0,1.354,1.316,1.355Zm35.554,0h.689c1.994,0,1.973,0,1.945-2.018-.008-.547-.142-.742-.711-.723-1.213.041-2.429.05-3.641,0-.655-.028-.82.18-.815.821.015,1.922-.014,1.923,1.943,1.923Zm-57.386-22.268c.689,0,1.377,0,2.065,0,.25,0,.571.068.579-.335.013-.655.006-1.311,0-1.966,0-.315-.216-.362-.468-.362q-2.114,0-4.229,0c-.265,0-.39.109-.453.391-.393,1.752-.008,2.273,1.715,2.273Zm79.264,0c2.679,0,2.679,0,2.575-2a.628.628,0,0,1,0-.1c.044-.421-.142-.581-.566-.576-1.345.016-2.691.007-4.036.005-.275,0-.551,0-.544.384a5.319,5.319,0,0,0,.127,2.119c.221.442,1.084.111,1.658.161C-382.5,507.407-382.241,507.388-381.978,507.388Zm-53.247-24.89-1.432,1.348a1.349,1.349,0,0,0,.424,2.428,2.2,2.2,0,0,0,1.084.284c0-1.178,0-2.35,0-3.523A4.6,4.6,0,0,0-435.225,482.5Zm25.666-9.063c-.32-.426.5-1.362-.693-1.37-.973-.007-1.624.508-1.644,1.315s.619,1.338,1.58,1.383C-409.1,474.819-409.837,473.885-409.559,473.435Zm-43.823-.082c-.025-.781.253-1.661-.953-1.662a1.4,1.4,0,0,0-1.159,1.461,1.455,1.455,0,0,0,1.536,1.436C-452.813,474.569-453.689,473.664-453.383,473.353Zm19.8,5.658,1.465-1.382C-433.5,477.474-433.5,477.474-433.587,479.01Z" transform="translate(0 0)" fill="#030302"/>
      <path id="Trazado_635292" data-name="Trazado 635292" d="M-377.436,654.965c-.256-1.26-.647-1.588-1.939-1.59-2.533,0-5.066-.021-7.6.013-.6.008-.781-.136-.77-.757.041-2.17,0-4.342.023-6.512a1.669,1.669,0,0,0-.772-1.688,1.561,1.561,0,0,0-1.827.252c-.272-.273-.15-.62-.172-.938a17.592,17.592,0,0,1,.534-5.437l.049.019-.051-.009.256-.115c1.581-.636,3.168-1.259,4.739-1.916.445-.186.609-.013.846.342,4.345,6.51,12.877,6.52,17.236.015.284-.424.486-.478.939-.3,2.315.922,4.673,1.743,6.964,2.722a6.05,6.05,0,0,1,3.8,5.535c.066,1,.444,2.313-.179,2.929-.49.484-1.8.134-2.752.154-.066,0-.132,0-.2,0-1.865,0-1.866,0-1.982-1.89a1.468,1.468,0,0,0-1.449-1.543,1.437,1.437,0,0,0-1.5,1.576c-.021,2.269-.032,4.538.009,6.807.011.628-.181.76-.774.753-2.532-.032-5.064-.017-7.6-.012-1.292,0-1.685.333-1.938,1.59Z" transform="translate(-46.08 -123.72)" fill="#89b3f3"/>
      <path id="Trazado_635293" data-name="Trazado 635293" d="M-319.386,583.569c.832,1.058,1.319,1.175,2.527.566a9.352,9.352,0,0,0,4.049-3.776c.3-.529.562-.561,1.082-.352,2.19.882,4.4,1.718,6.6,2.572a6.173,6.173,0,0,1,4.157,5.484c.092.879.025,1.774.066,2.66.024.509-.152.7-.675.688-1.249-.029-2.5-.032-3.748,0-.554.015-.791-.161-.735-.727a7.516,7.516,0,0,0,0-.986c-.038-1.164-.587-1.8-1.52-1.784-.895.02-1.43.638-1.44,1.755-.02,2.071-.065,4.145.019,6.213.04.975-.257,1.172-1.19,1.168-8.549-.039-17.1-.02-25.649-.035-.344,0-.841.249-1.024-.26-.176-.488.221-.762.543-1.055a9.538,9.538,0,0,0,3.086-5.581c.095-.561.305-.665.817-.689a4.332,4.332,0,0,0,4.256-3.3,4.491,4.491,0,0,0-2.169-5.047c-.308-.189-.526-.338-.5-.74a.5.5,0,0,1,.419-.471c.49-.162.513.3.664.546a9.694,9.694,0,0,0,3.837,3.592c1.113.573,1.54.492,2.4-.444a9.729,9.729,0,0,0,2.34.2A4.486,4.486,0,0,0-319.386,583.569Z" transform="translate(-78.493 -89.641)" fill="#f5ce74"/>
      <path id="Trazado_635294" data-name="Trazado 635294" d="M-445.286,582.04c1.7-.682,3.413-1.34,5.1-2.06.533-.228.616.124.8.415a9.851,9.851,0,0,0,9.43,4.76,9.47,9.47,0,0,0,6.838-3.462c.193-.223.375-.454.567-.677.016-.019.063-.011.1-.015.33.361.038.563-.192.8a4.347,4.347,0,0,0-1.048,4.9,4.148,4.148,0,0,0,4.129,2.783c.487.005.666.148.748.651a9.386,9.386,0,0,0,3.139,5.647c.341.3.672.614.474,1.077-.183.427-.642.207-.968.207-8.61.013-17.22,0-25.829.029-.811,0-1.06-.184-1.035-1.019.063-2.1.019-4.206.021-6.309a1.608,1.608,0,0,0-.835-1.65,1.524,1.524,0,0,0-1.868.422A15.1,15.1,0,0,1-445.286,582.04Z" transform="translate(-12.604 -89.684)" fill="#bbe0a4"/>
      <path id="Trazado_635295" data-name="Trazado 635295" d="M-423.608,495.951c2.823-.011,5.647-.027,8.47-.03a1.529,1.529,0,0,1,1.589,1.318,2.916,2.916,0,0,0,2.982,2.481c1.1.112,1.5.5,1.514,1.652.028,1.9.01,3.809.006,5.713,0,.251.081.573-.237.685a.855.855,0,0,1-.826-.2,1.688,1.688,0,0,1-.68-1.256,1.662,1.662,0,0,0-1.336-1.625,1.583,1.583,0,0,0-1.8.9,4.76,4.76,0,0,1-4.383,2.331c-2.362.011-4.727.083-7.085-.125,0-2.514.019-5.027,0-7.54a5.7,5.7,0,0,1,1.273-3.5C-423.932,496.494-423.616,496.323-423.608,495.951Z" transform="translate(-25.002 -38.915)" fill="#3e5d79"/>
      <path id="Trazado_635296" data-name="Trazado 635296" d="M-367.9,551.981c2.59-.116,5.179-.125,7.768.005a1.567,1.567,0,0,1,1.575,1.328c.486,1.742,1.315,2.358,3.18,2.512a1.215,1.215,0,0,1,1.28,1.315c.013,2.068,0,4.136.008,6.2,0,.716-.38.658-.825.417a1.636,1.636,0,0,1-.859-1.353,1.649,1.649,0,0,0-1.328-1.625,1.744,1.744,0,0,0-1.927,1.033,4.28,4.28,0,0,1-3.871,2.114c-2.527,0-5.054-.021-7.582-.032,0-2.157-.015-4.313,0-6.469a7.641,7.641,0,0,1,.726-3.109A15.412,15.412,0,0,1-367.9,551.981Z" transform="translate(-58.198 -72.749)" fill="#3e5d79"/>
      <path id="Trazado_635297" data-name="Trazado 635297" d="M-362.951,439.178A10.047,10.047,0,0,1-352.3,447.15a21.035,21.035,0,0,1,.206,3.53c.011.474-.184.624-.64.63a32.7,32.7,0,0,1-5.111-.206,3.188,3.188,0,0,1-2.642-2.236,2.174,2.174,0,0,0-.935-1.338,1.532,1.532,0,0,0-2.173.708c-.74,2.528-2.589,3.083-4.877,3.008-.008-.555-.007-1.111-.024-1.666a11.458,11.458,0,0,1,3.816-8.879C-364.127,440.164-363.312,439.929-362.951,439.178Z" transform="translate(-59.394 -4.579)" fill="#3e5d79"/>
      <path id="Trazado_635298" data-name="Trazado 635298" d="M-308.041,495.982a9.885,9.885,0,0,1,10.894,9.115c.261,2.915.261,2.923-2.657,2.911a16.32,16.32,0,0,1-3.045-.142,3.21,3.21,0,0,1-2.619-2.259c-.286-.87-.766-1.495-1.716-1.49-.91,0-1.336.638-1.643,1.448-.728,1.921-1.936,2.506-4.748,2.412.047-1.044.011-2.081.156-3.133a11.682,11.682,0,0,1,4.306-7.78C-308.733,496.753-308.139,496.593-308.041,495.982Z" transform="translate(-92.598 -38.922)" fill="#3e5d79"/>
      <path id="Trazado_635299" data-name="Trazado 635299" d="M-305.612,530.364a6.766,6.766,0,0,0,2.912-1.745c.242-.275.407-.33.69-.027a6.86,6.86,0,0,0,5.557,1.983c.92-.03,1.092.306,1.047,1.126-.1,1.761.149,3.544-.331,5.282a6.712,6.712,0,0,1-6.523,4.984,8.372,8.372,0,0,1-3.209-5.519A58.31,58.31,0,0,1-305.612,530.364Z" transform="translate(-97.405 -58.541)" fill="#f7dcce"/>
      <path id="Trazado_635300" data-name="Trazado 635300" d="M-360.505,473.582a6.483,6.483,0,0,0,2.825-1.721c.2-.225.359-.35.623-.056,1.594,1.781,3.741,2.014,5.94,2.1.286.011.706-.162.683.409a31.245,31.245,0,0,1-.218,5.6,6.68,6.68,0,0,1-6.7,5.265,1.794,1.794,0,0,0-.239-.307,7.521,7.521,0,0,1-2.924-6.2C-360.487,476.977-360.506,475.279-360.505,473.582Z" transform="translate(-64.223 -24.232)" fill="#f8ddcf"/>
      <path id="Trazado_635301" data-name="Trazado 635301" d="M-358.533,587.4c.917-.015,1.835-.049,2.751-.039a7.3,7.3,0,0,0,4.591-1.468c.385-.29.545-.207.943.041a2.618,2.618,0,0,1,1.171,2.735c-.1,1.728.13,3.476-.363,5.181a6.637,6.637,0,0,1-6.535,4.94.906.906,0,0,0-.355-.673,7.25,7.25,0,0,1-2.039-4.047A50.664,50.664,0,0,1-358.533,587.4Z" transform="translate(-65.402 -93.19)" fill="#f8ddcf"/>
      <path id="Trazado_635302" data-name="Trazado 635302" d="M-413.9,531.216c1.144-.032,2.289-.051,3.433-.1a6.836,6.836,0,0,0,3.918-1.385c.431-.326.622-.286,1.1.038a2.5,2.5,0,0,1,1.066,2.586,30.7,30.7,0,0,1-.241,4.994,6.584,6.584,0,0,1-6.095,5.222c-.134-.393-.483-.609-.743-.9a8.7,8.7,0,0,1-2.246-4.689A43.426,43.426,0,0,1-413.9,531.216Z" transform="translate(-31.948 -59.217)" fill="#f8ddcf"/>
      <path id="Trazado_635303" data-name="Trazado 635303" d="M-358.41,523.568a2.153,2.153,0,0,1-.63,2.167,4.161,4.161,0,0,0,.11,6.268,1.818,1.818,0,0,1,0,2.651c-.276.238-.5.429-.7-.118-.768-2.131-2.474-2.9-4.564-2.907-3.48-.008-6.963-.193-10.439.121-.123.011-.248,0-.462,0a10.8,10.8,0,0,0,1.04-1.935,4.5,4.5,0,0,0-2.034-5.184c-.32-.2-.619-.346-.562-.8.034-.267.023-.5.349-.622.363-.131.469.1.593.335,3.319,6.181,13.087,6.866,17.085.133C-358.593,523.632-358.518,523.621-358.41,523.568Z" transform="translate(-54.468 -55.385)" fill="#ea8387"/>
      <path id="Trazado_635304" data-name="Trazado 635304" d="M-420.917,533.725a43.422,43.422,0,0,0,.2,5.769,8.7,8.7,0,0,0,2.246,4.689c.261.288.609.5.743.9a6.865,6.865,0,0,1-7.694-6.15c-.139-1.561-.046-3.143-.081-4.715-.009-.429.146-.571.567-.559C-423.6,533.695-422.258,533.7-420.917,533.725Z" transform="translate(-24.935 -61.726)" fill="#f4ccbe"/>
      <path id="Trazado_635305" data-name="Trazado 635305" d="M-365.705,589.9a50.659,50.659,0,0,0,.165,6.67,7.251,7.251,0,0,0,2.039,4.047.906.906,0,0,1,.356.673c-3.929.245-7.023-2.666-7.249-6.87-.07-1.307-.008-2.621-.034-3.931-.009-.447.1-.655.6-.641C-368.456,589.886-367.081,589.886-365.705,589.9Z" transform="translate(-58.229 -95.694)" fill="#f2cbbc"/>
      <path id="Trazado_635306" data-name="Trazado 635306" d="M-277.968,548.478a5.39,5.39,0,0,0,3.243,4.755,1.2,1.2,0,0,1,.45.5,5.35,5.35,0,0,1-.629,4.781.883.883,0,0,1-1.123.294c-1.738-.693-3.491-1.349-5.23-2.041a1.5,1.5,0,0,1-.245-2.026A11.478,11.478,0,0,0-277.968,548.478Z" transform="translate(-111.813 -70.686)" fill="#3e5d79"/>
      <path id="Trazado_635307" data-name="Trazado 635307" d="M-373.415,552a15.421,15.421,0,0,0-1.851,2.341,7.641,7.641,0,0,0-.726,3.109c-.018,2.156,0,4.313,0,6.469-.785.01-1.57.022-2.356.03-.655.007-1.147-.331-1.155-.955a44.679,44.679,0,0,1,.084-7.157C-378.986,552.918-376.7,551.56-373.415,552Z" transform="translate(-52.678 -72.764)" fill="#314b61"/>
      <path id="Trazado_635308" data-name="Trazado 635308" d="M-368.766,439.266c-.361.75-1.175.985-1.73,1.522a11.458,11.458,0,0,0-3.816,8.879c.017.555.016,1.111.024,1.666-1.048.022-2.1.035-3.143.07-.456.015-.608-.166-.647-.628a10.433,10.433,0,0,1,7.584-11.232A14.547,14.547,0,0,1-368.766,439.266Z" transform="translate(-53.579 -4.666)" fill="#314b61"/>
      <path id="Trazado_635309" data-name="Trazado 635309" d="M-453.3,585.3a15.1,15.1,0,0,0-.436,6.495,4.109,4.109,0,0,0-.244,2.124c.022.579-.134.824-.765.8-1.245-.045-2.492-.015-3.739-.013-.344,0-.676.008-.667-.485a15.449,15.449,0,0,1,.242-4.011,6.229,6.229,0,0,1,3.769-4.254C-454.542,585.709-453.917,585.518-453.3,585.3Z" transform="translate(-4.588 -92.945)" fill="#9fcea4"/>
      <path id="Trazado_635310" data-name="Trazado 635310" d="M-429.076,495.952c-.009.373-.325.543-.515.8a5.7,5.7,0,0,0-1.273,3.5c.02,2.513,0,5.027,0,7.54-.82.007-1.64.013-2.46.021-.718.008-1.109-.318-1.108-1.062.006-2.329-.043-4.661.03-6.989a4.247,4.247,0,0,1,3.851-3.833C-430.06,495.9-429.567,495.944-429.076,495.952Z" transform="translate(-19.534 -38.916)" fill="#314b61"/>
      <path id="Trazado_635311" data-name="Trazado 635311" d="M-313.759,496.02c-.1.611-.692.771-1.072,1.081a11.682,11.682,0,0,0-4.306,7.78c-.145,1.052-.109,2.089-.156,3.133-1.019.009-2.038.01-3.057.032-.436.01-.657-.117-.674-.606-.208-5.741,2.829-10.276,8.775-11.432A2.242,2.242,0,0,1-313.759,496.02Z" transform="translate(-86.88 -38.96)" fill="#314b61"/>
      <path id="Trazado_635312" data-name="Trazado 635312" d="M-398.078,641.513a17.588,17.588,0,0,0-.534,5.437c.021.318-.1.665.172.938a3.121,3.121,0,0,0-.358,2.177c.028.6-.1.876-.788.842-1.209-.059-2.424-.04-3.636-.006-.531.015-.768-.1-.734-.693a29.48,29.48,0,0,1,.09-3.04,6.155,6.155,0,0,1,4.04-5.024C-399.249,641.919-398.661,641.723-398.078,641.513Z" transform="translate(-37.96 -126.926)" fill="#6da0ef"/>
      <path id="Trazado_635313" data-name="Trazado 635313" d="M-311.194,533.384a58.31,58.31,0,0,0,.144,6.085,8.373,8.373,0,0,0,3.209,5.52,6.732,6.732,0,0,1-6.927-6.032c-.127-1.565-.051-3.146-.088-4.719-.011-.466.159-.65.63-.625A18.122,18.122,0,0,0-311.194,533.384Z" transform="translate(-91.824 -61.561)" fill="#f2cbbc"/>
      <path id="Trazado_635314" data-name="Trazado 635314" d="M-366.252,476.562c0,1.7.019,3.4-.007,5.093a7.521,7.521,0,0,0,2.924,6.2,1.79,1.79,0,0,1,.239.307,6.645,6.645,0,0,1-6.876-6.391c-.093-1.438-.005-2.886-.047-4.328-.015-.528.24-.55.645-.578C-368.332,476.787-367.293,476.665-366.252,476.562Z" transform="translate(-58.476 -27.212)" fill="#f4ccbe"/>
      <path id="Trazado_635315" data-name="Trazado 635315" d="M-306.486,577.156a9.727,9.727,0,0,1-2.34-.2,1.618,1.618,0,0,0-.974-2.154,6.293,6.293,0,0,1-2.819-2.727c1.48-.563,3-1.1,2.794-3.168a17.238,17.238,0,0,0,3.34.569Q-306.486,573.318-306.486,577.156Z" transform="translate(-93.176 -83.038)" fill="#f0b2a1"/>
      <path id="Trazado_635316" data-name="Trazado 635316" d="M-297.112,577.216q0-3.838,0-7.676a16.58,16.58,0,0,0,3.146-.529c-.155,1.992,1.232,2.6,2.775,3.1a6.237,6.237,0,0,1-2.951,2.824,1.765,1.765,0,0,0-1.187,2.09A4.487,4.487,0,0,1-297.112,577.216Z" transform="translate(-102.55 -83.098)" fill="#f4ccbe"/>
      <path id="Trazado_635317" data-name="Trazado 635317" d="M-407.918,569.8c.488-.054.981-.08,1.463-.167.988-.178,1.981-.651,2.155,1.077.09.889,1.132,1.195,1.956,1.447.564.172.637.394.269.865a6.809,6.809,0,0,1-5.65,2.854A41.707,41.707,0,0,1-407.918,569.8Z" transform="translate(-35.559 -83.353)" fill="#f4ccbe"/>
      <path id="Trazado_635318" data-name="Trazado 635318" d="M-352.481,626.062a12.1,12.1,0,0,0,1.265-.148c1.083-.24,2.122-.592,2.292,1.152.063.651.838.954,1.463,1.194l1,.389a6.492,6.492,0,0,1-6.025,3.482Q-352.483,629.1-352.481,626.062Z" transform="translate(-69.077 -117.375)" fill="#f4ccbe"/>
      <path id="Trazado_635319" data-name="Trazado 635319" d="M-361.657,625.821q0,3.035,0,6.069a6.961,6.961,0,0,1-5.7-2.753c-.369-.459-.53-.793.243-1a2.549,2.549,0,0,0,2.206-2.511c.007-.343.185-.355.454-.257A18.167,18.167,0,0,0-361.657,625.821Z" transform="translate(-59.901 -117.134)" fill="#efb0a0"/>
      <path id="Trazado_635320" data-name="Trazado 635320" d="M-361.541,518.916a6.632,6.632,0,0,1-5.656-2.767c-.375-.477-.373-.751.266-.956,1.194-.383,2.124-1.035,2.151-2.456.008-.42.274-.376.539-.293a12.228,12.228,0,0,0,2.705.408Q-361.539,515.884-361.541,518.916Z" transform="translate(-60.03 -48.87)" fill="#f0b2a1"/>
      <path id="Trazado_635321" data-name="Trazado 635321" d="M-416.914,569.485a41.712,41.712,0,0,0,.193,6.075,7.023,7.023,0,0,1-5.807-2.78c-.409-.51-.432-.8.283-.991a2.563,2.563,0,0,0,2.181-2.871A20.011,20.011,0,0,0-416.914,569.485Z" transform="translate(-26.562 -83.042)" fill="#f0b2a1"/>
      <path id="Trazado_635322" data-name="Trazado 635322" d="M-352.508,518.935q0-3.032,0-6.065a10.916,10.916,0,0,0,2.714-.4c.286-.1.5-.1.52.31a2.5,2.5,0,0,0,2.083,2.41c.581.165.741.379.323.923A6.509,6.509,0,0,1-352.508,518.935Z" transform="translate(-69.063 -48.889)" fill="#f4ccbe"/>
      <path id="Trazado_635323" data-name="Trazado 635323" d="M-333.221,491.588a5.857,5.857,0,0,0,1.323,3.465c.234.252.088.473-.071.7a13.155,13.155,0,0,0-2.1,4.52c-.116.494-.325.552-.747.36-.447-.2-.914-.359-1.373-.536a1.345,1.345,0,0,1-.566-2.244,10.025,10.025,0,0,0,3.284-6C-333.456,491.783-333.348,491.723-333.221,491.588Z" transform="translate(-78.34 -36.295)" fill="#3e5d79"/>
      <path id="Trazado_635324" data-name="Trazado 635324" d="M-401.429,675.431h-1.18c-1.316,0-1.316,0-1.316-1.355,0-1.374,0-1.374,1.412-1.374,1.049,0,2.1.014,3.146-.006.405-.008.636.094.578.543a.587.587,0,0,0,0,.1C-398.682,675.431-398.682,675.431-401.429,675.431Z" transform="translate(-37.981 -145.775)" fill="#efb0a0"/>
      <path id="Trazado_635325" data-name="Trazado 635325" d="M-311.59,675.415h-.591c-1.957,0-1.928,0-1.943-1.923-.005-.641.161-.849.815-.821,1.212.052,2.428.043,3.641,0,.57-.019.7.176.711.723.028,2.019.049,2.018-1.945,2.018Z" transform="translate(-92.266 -145.76)" fill="#f2cbbc"/>
      <path id="Trazado_635326" data-name="Trazado 635326" d="M-456.855,619.234h-.787c-1.723,0-2.108-.522-1.715-2.273.063-.282.188-.391.453-.391q2.114,0,4.229,0c.252,0,.467.047.468.362,0,.655.01,1.311,0,1.966-.008.4-.33.332-.579.335C-455.478,619.239-456.166,619.234-456.855,619.234Z" transform="translate(-4.388 -111.847)" fill="#efb0a0"/>
      <path id="Trazado_635327" data-name="Trazado 635327" d="M-256.393,619.223c-.262,0-.526.019-.787,0-.574-.051-1.436.28-1.658-.161a5.317,5.317,0,0,1-.127-2.119c-.008-.382.269-.384.544-.384,1.345,0,2.691.011,4.036-.005.425-.005.61.155.566.576a.632.632,0,0,0,0,.1C-253.714,619.223-253.714,619.223-256.393,619.223Z" transform="translate(-125.585 -111.835)" fill="#f2cbbc"/>
      <path id="Trazado_635328" data-name="Trazado 635328" d="M-321.2,557.821a13.72,13.72,0,0,0,1.977,2.424,1.34,1.34,0,0,1-.493,2.328c-.548.211-1.1.413-1.637.652-.607.271-.815.095-.809-.56a10.026,10.026,0,0,0-.395-4.061C-322,558.518-321.9,557.645-321.2,557.821Z" transform="translate(-87.172 -76.319)" fill="#3e5d79"/>
      <path id="Trazado_635329" data-name="Trazado 635329" d="M-376.321,500.944a14.38,14.38,0,0,0,2.131,2.564,1.294,1.294,0,0,1-.4,2.194c-.788.314-1.845,1.032-2.328.761-.614-.345-.118-1.552-.237-2.376-.093-.647-.251-1.284-.38-1.926C-377.243,501.646-377.023,501.054-376.321,500.944Z" transform="translate(-53.932 -41.951)" fill="#3e5d79"/>
      <path id="Trazado_635330" data-name="Trazado 635330" d="M-390.122,560.376a4.611,4.611,0,0,1,.073.537c.005,1.172,0,2.344,0,3.523a2.2,2.2,0,0,1-1.084-.284,1.349,1.349,0,0,1-.424-2.428Z" transform="translate(-45.104 -77.878)" fill="#ea8387"/>
      <path id="Trazado_635331" data-name="Trazado 635331" d="M-325.708,535.365c-.278.451.455,1.384-.756,1.327-.961-.045-1.6-.573-1.58-1.383s.671-1.322,1.644-1.315C-325.205,534-326.029,534.939-325.708,535.365Z" transform="translate(-83.851 -61.931)" fill="#efb0a0"/>
      <path id="Trazado_635332" data-name="Trazado 635332" d="M-436.173,534.713c-.307.311.57,1.217-.576,1.234a1.455,1.455,0,0,1-1.536-1.436,1.4,1.4,0,0,1,1.159-1.461C-435.92,533.052-436.2,533.932-436.173,534.713Z" transform="translate(-17.21 -61.36)" fill="#efb0a0"/>
      <path id="Trazado_635333" data-name="Trazado 635333" d="M-377.872,495.46c-.7.11-.921.7-1.217,1.218-.937-.9-1.47-1.8-.5-3.071.321-.418.266-1.125.475-1.735A19.947,19.947,0,0,0-377.872,495.46Z" transform="translate(-52.382 -36.467)" fill="#314b61"/>
      <path id="Trazado_635334" data-name="Trazado 635334" d="M-322.772,552.236c-.7-.176-.8.7-1.357.783-.255-.3-.505-.6-.767-.885-.186-.2-.371-.44-.191-.7a6,6,0,0,0,.933-2.879A22.8,22.8,0,0,0-322.772,552.236Z" transform="translate(-85.595 -70.735)" fill="#314b61"/>
      <path id="Trazado_635335" data-name="Trazado 635335" d="M-381.619,592.267c-1.045-.125-1.523-.68-1.414-1.639.127-1.111.908-1.432,1.982-.813A3.275,3.275,0,0,0-381.619,592.267Z" transform="translate(-50.601 -95.486)" fill="#efb0a0"/>
      <path id="Trazado_635336" data-name="Trazado 635336" d="M-271.3,536.557c-.753.276-1.208.156-1.09-.789a3.766,3.766,0,0,0,0-.885c-.106-.913.3-1.1,1.082-.8Q-271.307,535.32-271.3,536.557Z" transform="translate(-117.482 -61.904)" fill="#efb0a0"/>
      <path id="Trazado_635337" data-name="Trazado 635337" d="M-326.461,479.864c-.4.044-1.021.295-1.124-.131a4.864,4.864,0,0,1,0-2.221c.1-.431.72-.185,1.118-.13Q-326.463,478.623-326.461,479.864Z" transform="translate(-84.052 -27.636)" fill="#f0b2a1"/>
      <path id="Trazado_635338" data-name="Trazado 635338" d="M-326.134,592.01c-.714.3-1.116.172-1.028-.711a5.973,5.973,0,0,0,0-1.173c-.08-.806.244-1.094,1.023-.874Q-326.136,590.63-326.134,592.01Z" transform="translate(-84.377 -95.29)" fill="#efb0a0"/>
      <path id="Trazado_635339" data-name="Trazado 635339" d="M-381.453,535.81c-.69.2-1.072.041-.969-.779a5.577,5.577,0,0,0,0-1.182c-.067-.74.214-1.061.967-.886Q-381.453,534.387-381.453,535.81Z" transform="translate(-50.97 -61.279)" fill="#efb0a0"/>
      <path id="Trazado_635340" data-name="Trazado 635340" d="M-381.729,480.044c-.962-.064-1.489-.518-1.489-1.283s.538-1.224,1.491-1.256A4.189,4.189,0,0,0-381.729,480.044Z" transform="translate(-50.499 -27.782)" fill="#efb0a0"/>
      <path id="Trazado_635341" data-name="Trazado 635341" d="M-379.947,535.882q0-1.424,0-2.848a1.311,1.311,0,0,1,1.118,1.472A1.291,1.291,0,0,1-379.947,535.882Z" transform="translate(-52.476 -61.35)" fill="#f2cbbc"/>
      <path id="Trazado_635342" data-name="Trazado 635342" d="M-379.763,479.953a4.189,4.189,0,0,1,0-2.54c.557-.154.864-.032.789.636a5.35,5.35,0,0,0,0,1.262C-378.884,480-379.23,480.072-379.763,479.953Z" transform="translate(-52.465 -27.691)" fill="#f4ccbe"/>
      <path id="Trazado_635343" data-name="Trazado 635343" d="M-269.62,536.76q0-1.237-.008-2.474a1.088,1.088,0,0,1,1.06,1.179A1.134,1.134,0,0,1-269.62,536.76Z" transform="translate(-119.164 -62.107)" fill="#f2cbbc"/>
      <path id="Trazado_635344" data-name="Trazado 635344" d="M-324.552,592.119q0-1.379-.006-2.759a1.254,1.254,0,0,1,1.011,1.431A1.2,1.2,0,0,1-324.552,592.119Z" transform="translate(-85.959 -95.399)" fill="#f2cbbc"/>
      <path id="Trazado_635345" data-name="Trazado 635345" d="M-324.554,480.047q0-1.241,0-2.482a1.2,1.2,0,0,1,.978,1.232A1.215,1.215,0,0,1-324.554,480.047Z" transform="translate(-85.96 -27.818)" fill="#f2cbbc"/>
      <path id="Trazado_635346" data-name="Trazado 635346" d="M-379.455,592.742a3.274,3.274,0,0,1,.568-2.452c.013.679.018,1.358.043,2.036C-378.826,592.811-379.072,592.868-379.455,592.742Z" transform="translate(-52.765 -95.961)" fill="#f4ccbe"/>
      <path id="Trazado_635347" data-name="Trazado 635347" d="M-382.891,549.345c.084-1.537.084-1.537,1.465-1.382Z" transform="translate(-50.696 -70.335)" fill="#ea8387"/>
      <path id="Trazado_635348" data-name="Trazado 635348" d="M-388.838,641.245l-.256.115Z" transform="translate(-46.947 -126.764)" fill="#6da0ef"/>
    </g>
  </g>
</svg>
