<svg xmlns="http://www.w3.org/2000/svg" width="144.902" height="144.902" viewBox="0 0 144.902 144.902">
  <g id="Grupo_968865" data-name="Grupo 968865" transform="translate(-75 -115.319)">
    <g id="Grupo_94722" data-name="Grupo 94722" transform="translate(75 115.319)">
      <g id="_240_F_327287600_TyhZPz7Qge3YOTv4dab7M9xRDBiZxF9G" data-name="240_F_327287600_TyhZPz7Qge3YOTv4dab7M9xRDBiZxF9G" fill="#e0dafc" stroke="#e28f5e" stroke-width="3">
        <circle cx="72.451" cy="72.451" r="72.451" stroke="none"/>
        <circle cx="72.451" cy="72.451" r="70.951" fill="none"/>
      </g>
    </g>
    <g id="Grupo_963307" data-name="Grupo 963307" transform="translate(945.874 -406.988)">
      <path id="Trazado_635349" data-name="Trazado 635349" d="M-756.685,630.755a.707.707,0,0,0,.28-.007c.4-.193.9-.659,1.148-.548.369.165.576.724.82,1.135,2.1,3.55,4.193,7.108,6.3,10.654.418.7.737,1.389.187,2.149s-1.293.685-2.1.561c-2.839-.434-5.686-.818-8.527-1.245a1.034,1.034,0,0,0-1.175.548c-1.636,2.515-3.31,5-4.984,7.5-.976,1.453-2.195,1.43-3.082-.063-2.174-3.659-4.346-7.318-6.482-11-.315-.543-.594-.7-1.2-.507a13.3,13.3,0,0,0-2.864,1.377,11.743,11.743,0,0,1-13.062-.01,13.785,13.785,0,0,0-2.773-1.347.912.912,0,0,0-1.294.5c-2.077,3.6-4.208,7.175-6.325,10.754-1.06,1.792-2.2,1.832-3.342.122-1.631-2.441-3.277-4.871-4.873-7.334a1.032,1.032,0,0,0-1.183-.532c-2.873.431-5.75.828-8.622,1.264a1.827,1.827,0,0,1-2-.592,1.732,1.732,0,0,1,.149-2.068c2.534-4.27,5.042-8.555,7.6-12.809.382-.634.278-.835-.324-1.224a11.556,11.556,0,0,1-5.633-10.764,10.389,10.389,0,0,0-1.609-6.155,11.664,11.664,0,0,1,0-13.3,10.494,10.494,0,0,0,1.609-6.156,11.4,11.4,0,0,1,6.228-11.081,12.3,12.3,0,0,0,5.03-5.031,11.418,11.418,0,0,1,11.085-6.226,10.518,10.518,0,0,0,6.157-1.607,11.668,11.668,0,0,1,13.3,0,10.461,10.461,0,0,0,6.155,1.612,11.365,11.365,0,0,1,11.036,6.138,12.774,12.774,0,0,0,5.162,5.165,11.374,11.374,0,0,1,6.151,11.03,10.48,10.48,0,0,0,1.606,6.156,11.672,11.672,0,0,1,.009,13.3,10.135,10.135,0,0,0-1.618,5.96,11.7,11.7,0,0,1-6.542,11.495c-.392.215-.763.467-1.145.7a8.66,8.66,0,0,0-3.394,3.855,11.631,11.631,0,0,1-8.353,6.3c-.615.125-1.243.185-1.972.291l4.956,8.366c1.635-2.447,3.171-4.718,4.674-7.011a1.81,1.81,0,0,1,1.976-.879c1.083.174,2.167.341,3.253.493,1.288.18,2.579.34,4.068.535-1.641-2.775-3.164-5.353-4.687-7.932a5.418,5.418,0,0,1-.792-1.431C-757.841,631.161-756.807,631.333-756.685,630.755Zm-15.519,5.766a8.757,8.757,0,0,0,8.744-5.047,12.986,12.986,0,0,1,5.749-5.684,8.515,8.515,0,0,0,4.875-8.452,13,13,0,0,1,2.053-7.816,8.7,8.7,0,0,0,.014-10.093,12.986,12.986,0,0,1-2.067-7.812,8.5,8.5,0,0,0-4.849-8.466,13.421,13.421,0,0,1-5.861-5.84,8.541,8.541,0,0,0-8.536-4.893,12.634,12.634,0,0,1-7.639-1.993,8.823,8.823,0,0,0-10.346.011,12.415,12.415,0,0,1-7.546,1.981,8.634,8.634,0,0,0-8.673,4.994,12.844,12.844,0,0,1-5.651,5.653,8.629,8.629,0,0,0-5,8.668,12.416,12.416,0,0,1-1.979,7.545,8.816,8.816,0,0,0-.017,10.344,12.429,12.429,0,0,1,2,7.54,8.627,8.627,0,0,0,4.973,8.683,13.043,13.043,0,0,1,5.713,5.725,8.593,8.593,0,0,0,8.607,4.94,12.616,12.616,0,0,1,7.633,2.015,8.784,8.784,0,0,0,10.263-.006A12.318,12.318,0,0,1-772.2,636.521Zm-31.378,11.558c1.61-2.728,3.115-5.282,4.624-7.834.437-.739-.165-.619-.546-.662a11.691,11.691,0,0,1-9.339-6.247,16.162,16.162,0,0,0-1.609-2.525c-.408-.491-.67-.568-1.028.076-.815,1.466-1.7,2.9-2.548,4.34-1.143,1.937-2.285,3.875-3.538,6,2.44-.336,4.681-.568,6.89-.978a2.273,2.273,0,0,1,2.666,1.157C-806.613,643.61-805.129,645.76-803.583,648.079Z" transform="translate(-13.565 -11.255)" fill="#040302"/>
      <path id="Trazado_635350" data-name="Trazado 635350" d="M-673.925,730.9c-.122.579-1.156.406-1.008,1.088a5.421,5.421,0,0,0,.792,1.431c1.522,2.579,3.046,5.157,4.687,7.932-1.489-.195-2.78-.355-4.068-.535-1.086-.152-2.17-.319-3.253-.493a1.81,1.81,0,0,0-1.976.879c-1.5,2.293-3.039,4.564-4.674,7.011l-4.956-8.366c.729-.106,1.357-.166,1.972-.291a11.631,11.631,0,0,0,8.353-6.3,8.66,8.66,0,0,1,3.394-3.855Z" transform="translate(-96.326 -111.399)" fill="#cb5d48"/>
      <path id="Trazado_635351" data-name="Trazado 635351" d="M-818.346,572.886l-.314.37c-1.7,1.989-1.705,1.99-3.562.135q-4.688-4.685-9.384-9.362c-.419-.415-.565-.685-.031-1.117.6-.482,1.128-1.458,1.683-1.455s1.134.926,1.679,1.468q4.694,4.679,9.376,9.37C-818.719,572.474-818.551,572.666-818.346,572.886Z" transform="translate(-8.521 -8.707)" fill="#070605"/>
      <path id="Trazado_635352" data-name="Trazado 635352" d="M-636.547,563.358c-.195.243-.3.4-.427.53q-5.4,5.407-10.8,10.818c-.382.385-.593.316-.908-.039-.53-.6-1.461-1.126-1.531-1.759-.054-.5.927-1.12,1.47-1.665,3.1-3.105,6.22-6.186,9.29-9.319.58-.592.9-.571,1.4.031A16.059,16.059,0,0,0-636.547,563.358Z" transform="translate(-119.662 -8.728)" fill="#070605"/>
      <path id="Trazado_635353" data-name="Trazado 635353" d="M-836.177,769.02c-.158.176-.279.324-.413.459-2.285,2.285-4.579,4.56-6.849,6.861-.353.358-.563.406-.908.013-.532-.6-1.511-1.129-1.568-1.754-.059-.651.975-1.173,1.537-1.743,1.814-1.842,3.663-3.65,5.466-5.5.428-.44.7-.534,1.123-.016.364.45.818.826,1.227,1.239C-836.432,768.711-836.317,768.858-836.177,769.02Z" transform="translate(0 -134.379)" fill="#080706"/>
      <path id="Trazado_635354" data-name="Trazado 635354" d="M-618.847,776.721c-.116-.109-.258-.236-.394-.37-2.286-2.284-4.563-4.577-6.866-6.844-.37-.365-.364-.578.011-.908.6-.53,1.125-1.464,1.765-1.542.491-.06,1.125.923,1.671,1.466,1.857,1.844,3.687,3.718,5.567,5.538.472.457.46.725-.016,1.125-.444.373-.824.82-1.243,1.223C-618.481,776.535-618.569,776.736-618.847,776.721Z" transform="translate(-134.237 -134.421)" fill="#080706"/>
      <path id="Trazado_635355" data-name="Trazado 635355" d="M-835.412,706.69c.353.758.711,1.534,1.077,2.306.109.23.305.456-.051.642-.142.074-.287.144-.432.211-2.646,1.235-5.3,2.456-7.935,3.714-.521.249-.724.187-.979-.36-1.013-2.175-1.036-2.161,1.112-3.163q3.186-1.486,6.368-2.981C-836.049,706.965-835.842,706.879-835.412,706.69Z" transform="translate(-0.929 -97.511)" fill="#060504"/>
      <path id="Trazado_635356" data-name="Trazado 635356" d="M-627.848,706.946c.095.045.238.115.382.182,2.676,1.246,5.346,2.506,8.035,3.723.541.245.646.483.359.994-.376.668-.533,1.7-1.08,1.963-.57.274-1.363-.483-2.053-.8-2.188-1-4.356-2.053-6.554-3.035-.546-.244-.664-.465-.37-.985s.513-1.106.788-1.65C-628.254,707.165-628.232,706.872-627.848,706.946Z" transform="translate(-132.46 -97.66)" fill="#050504"/>
      <path id="Trazado_635357" data-name="Trazado 635357" d="M-834.471,618.7c-.378.843-.738,1.7-1.154,2.539-.114.229-.346,0-.5-.071-2.779-1.2-5.551-2.41-8.337-3.59-.46-.195-.437-.388-.277-.788.936-2.354.922-2.353,3.234-1.342,2.153.941,4.314,1.865,6.466,2.807C-834.831,618.35-834.521,618.351-834.471,618.7Z" transform="translate(-0.654 -41.329)" fill="#060504"/>
      <path id="Trazado_635358" data-name="Trazado 635358" d="M-618.642,616.852c.051.339-.251.337-.433.417-2.774,1.209-5.557,2.4-8.324,3.62-.4.178-.53.08-.71-.279-1.163-2.313-1.172-2.31,1.212-3.345,2.155-.936,4.319-1.853,6.463-2.814.5-.225.726-.176.914.361C-619.276,615.51-618.939,616.174-618.642,616.852Z" transform="translate(-132.713 -41.034)" fill="#060504"/>
      <path id="Trazado_635359" data-name="Trazado 635359" d="M-776.423,548.376c.225,0,.262.162.326.31.919,2.121,1.834,4.243,2.769,6.357.133.3.113.479-.2.6-.06.024-.121.044-.178.073-2.247,1.117-2.245,1.116-3.251-1.2-.614-1.413-1.2-2.838-1.867-4.226-.3-.629-.156-.89.464-1.1C-777.69,548.967-777.056,548.648-776.423,548.376Z" transform="translate(-40.934 -0.709)" fill="#060504"/>
      <path id="Trazado_635360" data-name="Trazado 635360" d="M-677.121,549.824c-.055.121-.111.237-.162.354-.864,2-1.74,4-2.583,6.018-.189.451-.367.54-.844.347-2.323-.94-2.327-.923-1.325-3.229.626-1.442,1.257-2.883,1.859-4.335.193-.465.388-.659.9-.378.562.3,1.173.52,1.761.778C-677.314,549.464-677.061,549.511-677.121,549.824Z" transform="translate(-99.818 -0.766)" fill="#060504"/>
      <path id="Trazado_635361" data-name="Trazado 635361" d="M-727.75,776.167v-.775c0-2.442.207-2.6,2.7-2.257.36.05.4.192.4.486-.007,1.744-.019,3.488.007,5.231.007.47-.206.491-.579.509-2.535.12-2.534.128-2.534-2.419Z" transform="translate(-72.254 -138.055)"/>
      <path id="Trazado_635362" data-name="Trazado 635362" d="M-841.251,668.657c-2.357,0-2.333,0-2.347-2.323,0-.627.15-.827.791-.795,1.1.055,2.2.036,3.293.005.462-.013.664.119.588.59a1.149,1.149,0,0,0,0,.193C-838.9,668.657-838.9,668.657-841.251,668.657Z" transform="translate(-1.418 -72.347)"/>
      <path id="Trazado_635363" data-name="Trazado 635363" d="M-613.7,668.654c-2.288,0-2.256,0-2.29-2.286-.01-.694.184-.87.854-.833,1.062.06,2.132.045,3.2,0,.525-.021.627.161.637.651C-611.25,668.654-611.234,668.654-613.7,668.654Z" transform="translate(-140.591 -72.344)"/>
      <path id="Trazado_635364" data-name="Trazado 635364" d="M-840.611,550.4a9.749,9.749,0,0,0-.877.7c-1.356,1.336-1.351,1.342-2.67.023l-.136-.136c-1.864-1.863-1.863-1.861.22-3.556.182-.148.32-.331.556-.094q1.328,1.332,2.658,2.663A3,3,0,0,1-840.611,550.4Z" transform="translate(-0.153)" fill="#0b0b09"/>
      <path id="Trazado_635365" data-name="Trazado 635365" d="M-608.981,549.705c-.153.171-.253.295-.364.406-.771.775-1.553,1.541-2.314,2.325-.266.275-.432.334-.77.037-1.971-1.735-1.982-1.723-.143-3.559,1.427-1.425,1.428-1.426,2.876.031C-609.456,549.186-609.228,549.442-608.981,549.705Z" transform="translate(-141.849 -0.387)" fill="#0b0b09"/>
      <path id="Trazado_635366" data-name="Trazado 635366" d="M-726.122,549.8c1.474,0,1.474,0,1.474,1.531,0,1.571,0,1.571-1.532,1.571-1.571,0-1.571,0-1.571-1.531C-727.75,549.8-727.75,549.8-726.122,549.8Z" transform="translate(-72.254 -1.58)"/>
      <path id="Trazado_635367" data-name="Trazado 635367" d="M-767.28,641.448a12.317,12.317,0,0,0-7.544,1.995,8.784,8.784,0,0,1-10.263.006,12.616,12.616,0,0,0-7.633-2.015,8.593,8.593,0,0,1-8.607-4.94,13.044,13.044,0,0,0-5.713-5.725,8.627,8.627,0,0,1-4.973-8.683,12.429,12.429,0,0,0-2-7.54,8.816,8.816,0,0,1,.018-10.344,12.416,12.416,0,0,0,1.979-7.545,8.629,8.629,0,0,1,5-8.668,12.844,12.844,0,0,0,5.651-5.653,8.634,8.634,0,0,1,8.673-4.994,12.416,12.416,0,0,0,7.546-1.981,8.823,8.823,0,0,1,10.346-.011,12.634,12.634,0,0,0,7.639,1.993,8.541,8.541,0,0,1,8.536,4.893,13.421,13.421,0,0,0,5.861,5.84,8.5,8.5,0,0,1,4.849,8.466,12.986,12.986,0,0,0,2.067,7.813,8.7,8.7,0,0,1-.014,10.093,13,13,0,0,0-2.053,7.816,8.515,8.515,0,0,1-4.875,8.452,12.985,12.985,0,0,0-5.749,5.684A8.757,8.757,0,0,1-767.28,641.448Zm-33.033-51.476c-.007.4-.334.589-.547.859a4.238,4.238,0,0,0-1.041,1.554,3.287,3.287,0,0,1-.334-.19c-1.111-.817-1.121-.825-1.9.313a29.093,29.093,0,0,0-4.76,22.479,29.567,29.567,0,0,0,34.131,23.427,29.359,29.359,0,0,0,23.474-35.61c-2.549-10.84-9.346-18.2-19.972-21.5-10.785-3.344-20.523-.911-28.937,6.651C-801.261,588.916-801.237,588.943-800.313,589.972Z" transform="translate(-18.49 -16.183)" fill="#f1b44e"/>
      <path id="Trazado_635368" data-name="Trazado 635368" d="M-793.88,750.055c-1.546-2.318-3.03-4.468-4.427-6.672a2.273,2.273,0,0,0-2.666-1.158c-2.209.41-4.45.642-6.89.978,1.253-2.125,2.395-4.062,3.538-6,.852-1.445,1.733-2.874,2.548-4.341.358-.644.62-.566,1.028-.076a16.151,16.151,0,0,1,1.609,2.525,11.691,11.691,0,0,0,9.339,6.247c.381.044.983-.076.546.662C-790.765,744.772-792.27,747.327-793.88,750.055Z" transform="translate(-23.268 -113.231)" fill="#cb5d48"/>
      <path id="Trazado_635369" data-name="Trazado 635369" d="M-787.233,607.075a4.24,4.24,0,0,1,1.041-1.554c.213-.27.54-.46.547-.859a3.066,3.066,0,0,1,.307.227c.971.918.96.908,1.956,0a25.756,25.756,0,0,1,21.664-6.918,26.314,26.314,0,0,1,22.656,28.643,26.345,26.345,0,0,1-30.41,23.488,26.38,26.38,0,0,1-17.541-40.983C-786.244,608-786.244,608-787.233,607.075Zm29.664,29.412a2.613,2.613,0,0,1,.025.578c-.142.816.186,1.049.991,1,1.126-.075,2.261-.015,3.392-.02a6.215,6.215,0,0,0,6.483-6.451c.009-2.326.04-4.653-.014-6.978a5.646,5.646,0,0,1,.761-3.223,5.425,5.425,0,0,0,.793-2.467,5.3,5.3,0,0,0-5.2-5.681c-2.127-.045-4.256-.009-6.482-.009.44-1.437.9-2.774,1.257-4.139a4.9,4.9,0,0,0-3.451-5.968,4.8,4.8,0,0,0-5.855,2.745,18.145,18.145,0,0,1-4.593,6.252,2.5,2.5,0,0,0-.34.344,1.869,1.869,0,0,1-1.677.725c-3.974-.036-7.948-.021-11.923-.016-1.593,0-2.064.483-2.064,2.088q0,10.322,0,20.643c0,1.654.478,2.134,2.128,2.134q10.518,0,21.035,0c1.614,0,1.614,0,1.694-1.555Z" transform="translate(-33.157 -30.872)" fill="#eba03a"/>
      <path id="Trazado_635370" data-name="Trazado 635370" d="M-792.081,602.077c.989.921.989.921.218,2.041A26.38,26.38,0,0,0-774.322,645.1a26.344,26.344,0,0,0,30.41-23.488,26.314,26.314,0,0,0-22.656-28.643,25.756,25.756,0,0,0-21.664,6.918c-1,.912-.985.922-1.956,0a3.083,3.083,0,0,0-.307-.227c-.924-1.029-.948-1.056.117-2.013,8.414-7.561,18.152-9.995,28.937-6.651,10.626,3.294,17.423,10.656,19.972,21.5a29.359,29.359,0,0,1-23.474,35.61,29.567,29.567,0,0,1-34.131-23.427,29.093,29.093,0,0,1,4.76-22.479c.776-1.138.786-1.129,1.9-.313A3.311,3.311,0,0,0-792.081,602.077Z" transform="translate(-28.31 -25.875)" fill="#030201"/>
      <path id="Trazado_635371" data-name="Trazado 635371" d="M-750.814,644.693c-.079,1.555-.079,1.555-1.694,1.555h-21.035c-1.649,0-2.127-.48-2.128-2.134q0-10.322,0-20.643c0-1.605.471-2.086,2.064-2.088,3.974-.005,7.949-.02,11.923.016a1.869,1.869,0,0,0,1.677-.725,2.5,2.5,0,0,1,.34-.344,18.145,18.145,0,0,0,4.593-6.252,4.8,4.8,0,0,1,5.855-2.745,4.9,4.9,0,0,1,3.451,5.968c-.356,1.365-.817,2.7-1.257,4.139,2.226,0,4.355-.036,6.482.009a5.3,5.3,0,0,1,5.2,5.681,5.424,5.424,0,0,1-.793,2.467,5.646,5.646,0,0,0-.761,3.223c.055,2.325.024,4.652.014,6.978a6.215,6.215,0,0,1-6.483,6.451c-1.131.005-2.266-.055-3.392.02-.805.053-1.133-.179-.991-1a2.624,2.624,0,0,0-.025-.578,2.571,2.571,0,0,0,.025-.578c-.146-.817.183-1.043.986-.989,1.126.076,2.26.024,3.391.018a3.12,3.12,0,0,0,3.385-3.375c.009-2.261.078-4.525-.022-6.782a8.9,8.9,0,0,1,1.134-4.892c1.086-1.955.047-3.552-2.2-3.555-2.552,0-5.1.013-7.657.02-1.677,0-2.3-.821-1.8-2.414.557-1.783,1.146-3.556,1.694-5.343a1.862,1.862,0,0,0-1.1-2.451,1.837,1.837,0,0,0-2.418,1.189,18.273,18.273,0,0,1-5.014,6.886c-.267.233-.488.518-.758.748a1.308,1.308,0,0,0-.45,1.1q.021,9.061,0,18.121c0,.595.148.773.751.76,1.776-.04,3.554-.014,5.331-.014C-750.894,643.146-750.894,643.146-750.814,644.693Zm-21.753-10.854c0,2.81.018,5.62-.013,8.429-.007.643.123.9.838.892q4.6-.058,9.205,0c.681.007.871-.193.868-.87q-.038-8.478,0-16.955c0-.6-.125-.859-.795-.852q-4.651.047-9.3,0c-.65-.006-.815.213-.809.831C-772.552,628.156-772.567,631-772.567,633.84Z" transform="translate(-42.952 -39.079)" fill="#020101"/>
      <path id="Trazado_635372" data-name="Trazado 635372" d="M-723.923,649.573c-.079-1.548-.079-1.548-1.688-1.548-1.777,0-3.554-.026-5.331.014-.6.013-.753-.165-.751-.76q.033-9.061,0-18.121a1.308,1.308,0,0,1,.45-1.1c.269-.23.491-.515.758-.748a18.273,18.273,0,0,0,5.014-6.886,1.837,1.837,0,0,1,2.418-1.189,1.862,1.862,0,0,1,1.1,2.451c-.548,1.786-1.137,3.56-1.695,5.343-.5,1.593.125,2.419,1.8,2.414,2.552-.007,5.1-.024,7.657-.02,2.243,0,3.283,1.6,2.2,3.555a8.9,8.9,0,0,0-1.134,4.892c.1,2.257.031,4.521.022,6.782a3.12,3.12,0,0,1-3.385,3.375c-1.131.007-2.266.058-3.391-.018-.8-.054-1.131.172-.986.989a2.567,2.567,0,0,1-.025.578Z" transform="translate(-69.843 -43.958)" fill="#f3c7a5"/>
      <path id="Trazado_635373" data-name="Trazado 635373" d="M-767.7,654.857c0-2.842.015-5.684-.012-8.526-.006-.619.159-.837.809-.831q4.651.047,9.3,0c.669-.007.8.254.795.852q-.026,8.477,0,16.955c0,.676-.187.877-.868.87q-4.6-.051-9.205,0c-.715.009-.845-.249-.838-.892C-767.685,660.476-767.7,657.666-767.7,654.857Zm5.4,6.2a2.321,2.321,0,0,0,2.357-2.3,2.321,2.321,0,0,0-2.3-2.355A2.286,2.286,0,0,0-764.6,658.7,2.324,2.324,0,0,0-762.3,661.059Z" transform="translate(-47.817 -60.096)" fill="#4a6783"/>
      <path id="Trazado_635374" data-name="Trazado 635374" d="M-757.4,678.222a2.324,2.324,0,0,1-2.3-2.361,2.286,2.286,0,0,1,2.353-2.292,2.321,2.321,0,0,1,2.3,2.355A2.321,2.321,0,0,1-757.4,678.222Z" transform="translate(-52.72 -77.259)" fill="#020203"/>
    </g>
  </g>
</svg>
