<svg xmlns="http://www.w3.org/2000/svg" width="85" height="85" viewBox="0 0 85 85">
  <g id="Grupo_963232" data-name="Grupo 963232" transform="translate(-180 -6099)">
    <rect id="Rectángulo_34178" data-name="Rectángulo 34178" width="85" height="85" transform="translate(180 6099)" fill="none"/>
    <g id="Grupo_963600" data-name="Grupo 963600" transform="translate(479.862 6081.028)">
      <path id="Trazado_635556" data-name="Trazado 635556" d="M-234.428,36.121c-3.525,0-7.05.008-10.575-.009-.462,0-.693.074-.85.585a5.7,5.7,0,0,1-5.476,4.056c-2.1.019-4.2.03-6.3-.012-.6-.012-.706.181-.689.719.039,1.181.021,2.365.006,3.548,0,.339.072.476.452.555a7.835,7.835,0,0,1,5.51,4.065.679.679,0,0,0,.719.419,5.767,5.767,0,0,1,6.073,5.713,5.8,5.8,0,0,1-5.962,5.855c-5.384.01-10.768.023-16.152-.008a5.778,5.778,0,0,1-5.668-5.1,5.834,5.834,0,0,1,4.082-6.247,4.8,4.8,0,0,1,1.856-.226.737.737,0,0,0,.846-.446,7.814,7.814,0,0,1,5.459-4.024c.413-.089.487-.237.481-.6-.019-1.206-.029-2.414,0-3.62.012-.464-.1-.6-.587-.6-2.173.027-4.346.038-6.519,0a5.8,5.8,0,0,1-5.627-5.142,5.846,5.846,0,0,1,4.132-6.216,4.719,4.719,0,0,1,1.859-.207.691.691,0,0,0,.786-.427,7.758,7.758,0,0,1,7.1-4.2,7.755,7.755,0,0,1,7.106,4.186.731.731,0,0,0,.775.446,5.613,5.613,0,0,1,5.762,4.12c.142.456.369.505.763.5q10.539-.012,21.078-.006c2.561,0,3.935,1.371,3.936,3.926,0,3.862.017,7.725-.017,11.587-.006.627.178.733.757.727,2.752-.032,5.5-.017,8.257-.014a3.492,3.492,0,0,1,3.753,3.745c0,1.424.01,2.849,0,4.273a3.449,3.449,0,0,1-2.991,3.526c-.4.065-.554.172-.485.562a.857.857,0,0,1,0,.145,4.276,4.276,0,0,0,.036,1.435c.18.471.822.273,1.237.46a3.387,3.387,0,0,1,2.189,3.131c.055,1.615.037,3.235.005,4.851a3.4,3.4,0,0,1-2.97,3.315c-.472.073-.543.247-.5.628a3.268,3.268,0,0,1,0,.362,3.113,3.113,0,0,0,.037,1.215c.172.365.721.208,1.091.34a3.509,3.509,0,0,1,2.339,3.182c.029,1.617.033,3.235,0,4.852A3.42,3.42,0,0,1-210.7,89.42q-10.5.032-21.005,0A3.432,3.432,0,0,1-235.119,86c-.024-1.52-.013-3.041,0-4.562a3.444,3.444,0,0,1,3.036-3.557c.389-.062.483-.19.442-.528a2.4,2.4,0,0,1,0-.289,3.85,3.85,0,0,0-.039-1.361c-.167-.406-.756-.227-1.144-.376a3.515,3.515,0,0,1-2.289-3.218c-.021-1.521-.013-3.042,0-4.562a3.451,3.451,0,0,1,3.021-3.572c.365-.06.514-.151.456-.514a1.389,1.389,0,0,1,0-.217,4.045,4.045,0,0,0-.04-1.433c-.171-.416-.79-.251-1.195-.416a3.49,3.49,0,0,1-2.236-3.179q-.034-2.353,0-4.707a3.452,3.452,0,0,1,3.508-3.475q4.309-.026,8.619.008c.505,0,.635-.116.632-.628-.024-3.935-.011-7.869-.014-11.8,0-1.089-.395-1.485-1.478-1.486Q-229.14,36.118-234.428,36.121Zm-25.046,2.316c2.726,0,5.453.026,8.179-.011a3.28,3.28,0,0,0,3.118-2.087,3.232,3.232,0,0,0-.561-3.64,3.288,3.288,0,0,0-3.6-1.056c-.411.115-.9.5-1.2.3-.284-.191-.305-.77-.448-1.177A5.774,5.774,0,0,0-259.5,26.85a5.762,5.762,0,0,0-5.47,3.975,5.466,5.466,0,0,0-.259.825c-.063.373-.227.4-.544.281a5.608,5.608,0,0,0-1.741-.444,3.493,3.493,0,0,0-3.545,3.367,3.46,3.46,0,0,0,3.4,3.575C-264.926,38.46-262.2,38.437-259.474,38.438Zm.007,20.861h8.034c.048,0,.1,0,.145,0a3.378,3.378,0,0,0,3.113-2.1,3.232,3.232,0,0,0-.568-3.639,3.276,3.276,0,0,0-3.6-1.047c-1.224.351-1.223.354-1.625-.818a5.761,5.761,0,0,0-5.54-3.98,5.764,5.764,0,0,0-5.464,3.982,5.23,5.23,0,0,0-.259.825c-.063.388-.245.38-.549.271a5.8,5.8,0,0,0-1.669-.439,3.493,3.493,0,0,0-3.608,3.3,3.463,3.463,0,0,0,3.408,3.641C-264.919,59.32-262.193,59.3-259.467,59.3Zm38.331-6.953q-5.138,0-10.276,0c-.956,0-1.385.418-1.391,1.351q-.016,2.134,0,4.269a1.177,1.177,0,0,0,1.341,1.328q10.24.008,20.479,0c.934,0,1.351-.435,1.357-1.387.008-1.35,0-2.7,0-4.052,0-1.127-.388-1.51-1.525-1.51Q-216.143,52.343-221.136,52.346Zm-.073,20.859q5.1,0,10.2,0c.947,0,1.373-.426,1.379-1.365q.015-2.1,0-4.2c-.006-.975-.429-1.387-1.429-1.388q-10.167,0-20.334,0c-1,0-1.409.414-1.415,1.4-.007,1.278,0,2.556,0,3.834,0,1.393.316,1.716,1.683,1.716Zm0,13.907q5.1,0,10.2,0c.947,0,1.373-.426,1.379-1.365q.015-2.1,0-4.2c-.006-.975-.429-1.387-1.429-1.388q-10.167,0-20.334,0c-1,0-1.409.414-1.415,1.4-.007,1.278,0,2.556,0,3.834,0,1.393.316,1.715,1.683,1.716Zm-.033-23.178h6.443c1.714,0,1.689,0,1.713-1.71.007-.526-.155-.62-.644-.618-4.609.019-9.218.011-13.827.011-1.806,0-1.786,0-1.784,1.783,0,.468.146.547.572.544C-226.261,63.924-223.752,63.934-221.242,63.934Zm.1,11.59h-6.515c-1.682,0-1.656,0-1.688,1.662-.01.543.128.671.669.669,4.633-.024,9.266-.014,13.9-.014,1.7,0,1.677,0,1.686-1.735,0-.473-.122-.6-.595-.594C-216.169,75.537-218.654,75.524-221.14,75.524Z" transform="translate(-14.133)" fill="#010101"/>
      <path id="Trazado_635557" data-name="Trazado 635557" d="M-272.406,160.217q8.51,0,17.021,0a3.5,3.5,0,0,1,3.809,3.834q0,10.066,0,20.132a3.514,3.514,0,0,1-3.87,3.847c-3.139,0-6.277.012-9.416-.012-.5,0-.645.1-.637.623.025,1.707,0,1.707,1.714,1.707,1.84,0,1.827,0,1.788,1.846-.008.377-.1.481-.482.48q-9.959-.017-19.918,0c-.375,0-.477-.1-.485-.477-.039-1.849-.053-1.849,1.786-1.849,1.714,0,1.691,0,1.716-1.7.008-.514-.132-.63-.635-.626-3.186.025-6.374.016-9.561.012a3.481,3.481,0,0,1-3.727-3.7q-.007-10.211,0-20.421a3.48,3.48,0,0,1,3.731-3.692Q-280.989,160.213-272.406,160.217Zm-.035,18.543c5.964,0,11.928-.008,17.892.014.545,0,.671-.134.669-.673-.023-4.659-.012-9.318-.014-13.977,0-1.23-.36-1.588-1.6-1.588h-33.9c-1.237,0-1.6.356-1.6,1.587,0,4.635.012,9.27-.015,13.9,0,.6.134.75.742.748C-284.32,178.749-278.38,178.76-272.441,178.76Zm0,2.318h-3.042c-4.95,0-9.9.01-14.849-.014-.543,0-.7.127-.669.671.051.793.012,1.592.013,2.389,0,1.231.359,1.589,1.6,1.589h14.125q9.96,0,19.919,0c1.041,0,1.445-.407,1.452-1.442.006-.821-.042-1.644.015-2.461.042-.6-.135-.749-.741-.747C-260.56,181.088-266.5,181.078-272.44,181.078Zm-.031,9.271h2.963c1.745,0,1.725,0,1.718-1.779,0-.463-.145-.552-.573-.549-2.312.02-4.625.01-6.937.01-1.857,0-1.843,0-1.788,1.851.012.392.134.479.5.474C-275.216,190.337-273.843,190.349-272.471,190.349Z" transform="translate(0 -96.283)"/>
      <path id="Trazado_635558" data-name="Trazado 635558" d="M-253.762,44.056c-2.726,0-5.453.023-8.179-.008a3.46,3.46,0,0,1-3.4-3.575,3.493,3.493,0,0,1,3.545-3.367,5.608,5.608,0,0,1,1.741.444c.317.114.482.092.544-.281a5.47,5.47,0,0,1,.259-.825,5.762,5.762,0,0,1,5.47-3.975,5.774,5.774,0,0,1,5.515,3.917c.143.406.163.986.448,1.177.3.2.79-.185,1.2-.3a3.288,3.288,0,0,1,3.6,1.056,3.232,3.232,0,0,1,.561,3.64,3.28,3.28,0,0,1-3.118,2.087C-248.309,44.083-251.036,44.056-253.762,44.056Z" transform="translate(-19.845 -5.619)" fill="#e4e7ea"/>
      <path id="Trazado_635559" data-name="Trazado 635559" d="M-253.755,115.918c-2.726,0-5.453.022-8.179-.008a3.463,3.463,0,0,1-3.408-3.641,3.493,3.493,0,0,1,3.608-3.3,5.8,5.8,0,0,1,1.669.439c.3.109.487.117.549-.271a5.237,5.237,0,0,1,.259-.825,5.764,5.764,0,0,1,5.464-3.982,5.761,5.761,0,0,1,5.54,3.98c.4,1.172.4,1.169,1.625.818a3.276,3.276,0,0,1,3.6,1.047,3.232,3.232,0,0,1,.568,3.639,3.378,3.378,0,0,1-3.113,2.1c-.048,0-.1,0-.145,0Z" transform="translate(-19.844 -56.619)" fill="#e4e7ea"/>
      <path id="Trazado_635560" data-name="Trazado 635560" d="M-121.919,120.3q4.993,0,9.986,0c1.137,0,1.523.383,1.525,1.51,0,1.351.007,2.7,0,4.052-.006.952-.423,1.386-1.357,1.387q-10.24.008-20.479,0a1.177,1.177,0,0,1-1.341-1.328q-.017-2.134,0-4.269c.007-.933.435-1.349,1.391-1.351Q-127.056,120.29-121.919,120.3Zm-8.254,4.635c1.221,0,1.221,0,1.221-1.242,0-1.076,0-1.076-1.1-1.076-1.221,0-1.221,0-1.221,1.241C-131.271,124.931-131.271,124.931-130.173,124.931Zm4.692,0c1.165,0,1.165,0,1.165-1.153s0-1.165-1.153-1.165-1.165,0-1.165,1.153S-126.634,124.931-125.481,124.931Z" transform="translate(-113.35 -67.95)" fill="#f5d67e"/>
      <path id="Trazado_635561" data-name="Trazado 635561" d="M-121.984,175.156H-131.9c-1.367,0-1.682-.323-1.683-1.716,0-1.278-.006-2.556,0-3.834.006-.987.42-1.4,1.415-1.4q10.167,0,20.334,0c1,0,1.423.412,1.429,1.388q.013,2.1,0,4.2c-.007.938-.433,1.363-1.379,1.365Q-116.883,175.163-121.984,175.156Zm-6.961-3.47c0-1.165,0-1.165-1.153-1.165s-1.165,0-1.165,1.153,0,1.165,1.153,1.165S-128.945,172.839-128.945,171.686Zm4.636,0c0-1.161,0-1.161-1.157-1.161s-1.161,0-1.161,1.157,0,1.161,1.157,1.161S-124.308,172.839-124.308,171.682Z" transform="translate(-113.358 -101.951)" fill="#f5d67e"/>
      <path id="Trazado_635562" data-name="Trazado 635562" d="M-121.984,223.063H-131.9c-1.367,0-1.683-.323-1.683-1.716,0-1.278-.006-2.556,0-3.834.006-.987.42-1.4,1.415-1.4q10.167,0,20.334,0c1,0,1.423.412,1.429,1.388q.013,2.1,0,4.2c-.007.938-.433,1.363-1.379,1.365Q-116.883,223.07-121.984,223.063Zm-6.961-3.447c0-1.188,0-1.188-1.2-1.188-1.117,0-1.117,0-1.117,1.129,0,1.188,0,1.188,1.2,1.188C-128.945,220.746-128.945,220.746-128.945,219.616Zm4.636-.027c0-1.161,0-1.161-1.157-1.161s-1.161,0-1.161,1.157,0,1.161,1.157,1.161S-124.308,220.746-124.308,219.589Z" transform="translate(-113.358 -135.951)" fill="#f5d67e"/>
      <path id="Trazado_635563" data-name="Trazado 635563" d="M-113.545,154.525c-2.51,0-5.019-.01-7.529.01-.426,0-.571-.076-.572-.544,0-1.783-.022-1.783,1.784-1.783,4.609,0,9.218.008,13.827-.011.489,0,.651.093.644.618-.023,1.71,0,1.71-1.713,1.71Z" transform="translate(-121.83 -90.591)" fill="#fbe9ae"/>
      <path id="Trazado_635564" data-name="Trazado 635564" d="M-113.445,200.115c2.485,0,4.971.013,7.456-.012.473,0,.6.121.595.594-.009,1.735.01,1.735-1.686,1.735-4.633,0-9.266-.01-13.9.014-.541,0-.68-.126-.669-.669.032-1.662.006-1.662,1.688-1.662Z" transform="translate(-121.828 -124.591)" fill="#fbe9ae"/>
      <path id="Trazado_635565" data-name="Trazado 635565" d="M-266.806,184.429c-5.94,0-11.879-.01-17.819.015-.608,0-.745-.15-.742-.748.027-4.635.014-9.27.015-13.9,0-1.231.359-1.587,1.6-1.587h33.9c1.236,0,1.6.358,1.6,1.588,0,4.659-.009,9.318.014,13.977,0,.538-.123.675-.669.673C-254.878,184.42-260.842,184.429-266.806,184.429Zm9.276-2.318c2.123,0,4.247-.015,6.37.012.477.006.6-.129.593-.6q-.03-5.211,0-10.422c0-.478-.131-.594-.6-.592q-6.37.027-12.74,0c-.476,0-.6.128-.593.6q.03,5.211,0,10.422c0,.478.131.6.6.592C-261.776,182.1-259.653,182.111-257.529,182.111Zm-17.429-4.636h6.513c1.646,0,1.619,0,1.655-1.625.013-.568-.142-.709-.707-.706-4.607.024-9.215.014-13.822.014-1.727,0-1.705,0-1.727,1.7-.006.509.126.639.634.633C-279.928,177.46-277.443,177.475-274.959,177.475Zm.029,4.636h6.513c1.621,0,1.6,0,1.626-1.654.009-.528-.107-.682-.663-.678-4.655.026-9.311.015-13.967.015-1.621,0-1.6,0-1.626,1.654-.009.528.106.687.663.679C-279.9,182.091-277.415,182.111-274.93,182.111Zm2.333-9.271h4.051c1.767,0,1.747,0,1.754-1.741,0-.485-.144-.59-.6-.587-3.086.02-6.173.01-9.26.01-1.8,0-1.781,0-1.752,1.813.006.417.131.517.53.513C-276.118,172.828-274.357,172.839-272.6,172.839Zm-9.253-2.318c-1.183,0-1.183,0-1.183,1.207,0,1.111,0,1.111,1.135,1.111,1.184,0,1.184,0,1.184-1.207C-280.715,170.522-280.715,170.522-281.85,170.522Z" transform="translate(-5.635 -101.952)" fill="#83d3ef"/>
      <path id="Trazado_635566" data-name="Trazado 635566" d="M-266.81,232.042c5.94,0,11.879.01,17.819-.015.606,0,.783.143.741.747-.057.817-.01,1.641-.015,2.461-.007,1.035-.411,1.441-1.452,1.442q-9.96,0-19.919,0h-14.124c-1.236,0-1.593-.358-1.6-1.589,0-.8.037-1.6-.013-2.389-.035-.544.126-.673.669-.671,4.95.023,9.9.014,14.849.014Z" transform="translate(-5.629 -147.248)" fill="#ccd0d7"/>
      <path id="Trazado_635567" data-name="Trazado 635567" d="M-232.858,258.328c-1.373,0-2.746-.011-4.119.008-.365,0-.487-.082-.5-.474-.055-1.851-.069-1.851,1.788-1.851,2.312,0,4.625.01,6.937-.01.428,0,.571.086.573.549.008,1.779.027,1.779-1.718,1.779Z" transform="translate(-39.613 -164.262)" fill="#aab1bb"/>
      <path id="Trazado_635568" data-name="Trazado 635568" d="M-124.493,130.6c-1.1,0-1.1,0-1.1-1.076,0-1.241,0-1.241,1.221-1.241,1.1,0,1.1,0,1.1,1.076C-123.273,130.6-123.273,130.6-124.493,130.6Z" transform="translate(-119.03 -73.619)"/>
      <path id="Trazado_635569" data-name="Trazado 635569" d="M-108.465,130.6c-1.153,0-1.153,0-1.153-1.165s0-1.153,1.165-1.153,1.153,0,1.153,1.165S-107.3,130.6-108.465,130.6Z" transform="translate(-130.366 -73.619)"/>
      <path id="Trazado_635570" data-name="Trazado 635570" d="M-123.273,177.354c0,1.153,0,1.153-1.165,1.153s-1.153,0-1.153-1.165,0-1.153,1.165-1.153S-123.273,176.189-123.273,177.354Z" transform="translate(-119.03 -107.619)"/>
      <path id="Trazado_635571" data-name="Trazado 635571" d="M-107.3,177.35c0,1.157,0,1.157-1.161,1.157s-1.157,0-1.157-1.161,0-1.157,1.161-1.157S-107.3,176.189-107.3,177.35Z" transform="translate(-130.366 -107.619)"/>
      <path id="Trazado_635572" data-name="Trazado 635572" d="M-123.273,225.284c0,1.129,0,1.129-1.116,1.129-1.2,0-1.2,0-1.2-1.188,0-1.129,0-1.129,1.117-1.129C-123.273,224.1-123.273,224.1-123.273,225.284Z" transform="translate(-119.03 -141.619)"/>
      <path id="Trazado_635573" data-name="Trazado 635573" d="M-107.3,225.257c0,1.156,0,1.156-1.161,1.156s-1.157,0-1.157-1.161,0-1.156,1.161-1.156S-107.3,224.1-107.3,225.257Z" transform="translate(-130.366 -141.619)"/>
      <path id="Trazado_635574" data-name="Trazado 635574" d="M-206.509,187.75c-2.123,0-4.247-.014-6.37.011-.468.005-.6-.114-.6-.592q.032-5.211,0-10.422c0-.469.117-.6.593-.6q6.37.029,12.74,0c.468,0,.6.114.6.592q-.032,5.211,0,10.422c0,.469-.116.6-.593.6C-202.263,187.735-204.386,187.75-206.509,187.75Zm.037-9.271c-1.374,0-2.748.018-4.121-.01-.439-.009-.573.1-.567.556q.04,2.927,0,5.855c-.006.443.107.568.559.564q4.085-.033,8.17,0c.437,0,.573-.1.567-.556q-.04-2.927,0-5.855c.006-.442-.107-.574-.559-.564C-203.773,178.5-205.123,178.479-206.472,178.479Z" transform="translate(-56.655 -107.591)"/>
      <path id="Trazado_635575" data-name="Trazado 635575" d="M-269.288,194.441c-2.485,0-4.969-.015-7.454.013-.508.006-.64-.124-.634-.633.021-1.7,0-1.7,1.727-1.7,4.607,0,9.215.01,13.822-.014.566,0,.72.138.707.706-.036,1.625-.009,1.625-1.655,1.625Z" transform="translate(-11.306 -118.918)"/>
      <path id="Trazado_635576" data-name="Trazado 635576" d="M-269.26,210.409c-2.485,0-4.969-.019-7.454.015-.556.008-.672-.151-.663-.679.028-1.653,0-1.654,1.626-1.654,4.656,0,9.311.011,13.967-.015.556,0,.672.15.663.678-.028,1.653,0,1.654-1.626,1.654Z" transform="translate(-11.305 -130.25)"/>
      <path id="Trazado_635577" data-name="Trazado 635577" d="M-255.6,178.481c-1.76,0-3.521-.011-5.281.009-.4,0-.523-.1-.53-.513-.028-1.814-.043-1.813,1.752-1.813,3.087,0,6.173.009,9.26-.01.46,0,.606.1.6.587-.008,1.741.013,1.741-1.754,1.741Z" transform="translate(-22.632 -107.593)"/>
      <path id="Trazado_635578" data-name="Trazado 635578" d="M-276.145,176.189c1.135,0,1.135,0,1.135,1.111,0,1.207,0,1.207-1.184,1.207-1.135,0-1.135,0-1.135-1.111C-277.328,176.189-277.328,176.189-276.145,176.189Z" transform="translate(-11.34 -107.619)"/>
      <path id="Trazado_635579" data-name="Trazado 635579" d="M-200.8,184.145c1.35,0,2.7.02,4.049-.011.452-.01.564.122.559.564q-.037,2.927,0,5.855c.006.456-.129.559-.567.556q-4.085-.03-8.17,0c-.451,0-.564-.121-.559-.564q.037-2.927,0-5.854c-.006-.456.128-.565.567-.556C-203.552,184.162-202.179,184.145-200.8,184.145Z" transform="translate(-62.322 -113.257)" fill="#ee8774"/>
    </g>
  </g>
</svg>
