<svg xmlns="http://www.w3.org/2000/svg" width="1244.971" height="174.824" viewBox="0 0 1244.971 174.824">
  <g id="Grupo_968871" data-name="Grupo 968871" transform="translate(-176.903 -10187.109)">
    <g id="Grupo_95070" data-name="Grupo 95070" transform="translate(154.911 9832.947)">
      <path id="Trazado_115207" data-name="Trazado 115207" d="M261.828,527.486H25.089L81.5,456.067,25.089,376.824H261.828l56.416,79.243Z" transform="translate(0)" fill="#d1c3fa" stroke="#fff" stroke-width="3"/>
      <path id="Trazado_115208" data-name="Trazado 115208" d="M347.186,527.486H110.447l56.416-71.419-56.416-79.243H347.186L403.6,456.067Z" transform="translate(151.296)" fill="#e8e1fc" stroke="#fff" stroke-width="3"/>
      <path id="Trazado_115209" data-name="Trazado 115209" d="M432.577,527.486H195.837l56.415-71.419-56.415-79.243H432.577l56.415,79.243Z" transform="translate(302.651)" fill="#d1c3fa" stroke="#fff" stroke-width="3"/>
      <path id="Trazado_115210" data-name="Trazado 115210" d="M517.956,527.486H281.217l56.415-71.419-56.415-79.243H517.956l56.416,79.243Z" transform="translate(453.985)" fill="#e8e1fc" stroke="#fff" stroke-width="3"/>
      <path id="Trazado_115211" data-name="Trazado 115211" d="M603.342,527.486H366.6l56.416-71.419L366.6,376.824H603.342l56.416,79.243Z" transform="translate(605.331)" fill="#d1c3fa" stroke="#fff" stroke-width="3"/>
    </g>
    <path id="Trazado_637120" data-name="Trazado 637120" d="M45.113,12.3a5.762,5.762,0,0,1-.977,3.609,3.409,3.409,0,0,1-2.859,1.25,3.433,3.433,0,0,1-2.844-1.227,5.594,5.594,0,0,1-1.008-3.516V10.32A5.687,5.687,0,0,1,38.414,6.7a3.434,3.434,0,0,1,2.848-1.234,3.437,3.437,0,0,1,2.844,1.223A5.576,5.576,0,0,1,45.113,10.2Zm-2.258-2.3a4.165,4.165,0,0,0-.387-2.061,1.307,1.307,0,0,0-1.207-.645,1.284,1.284,0,0,0-1.176.614,3.9,3.9,0,0,0-.4,1.92v2.768a4.372,4.372,0,0,0,.379,2.068,1.29,1.29,0,0,0,1.215.676,1.268,1.268,0,0,0,1.2-.649,4.268,4.268,0,0,0,.383-1.986ZM52.121,17H49.863V8.3l-2.7.836V7.3l4.711-1.687h.242Zm3.906-1.109a1.137,1.137,0,0,1,.363-.875,1.412,1.412,0,0,1,1.828,0,1.137,1.137,0,0,1,.363.875,1.121,1.121,0,0,1-.359.863,1.435,1.435,0,0,1-1.836,0A1.121,1.121,0,0,1,56.027,15.891Zm15.508-3.82h-4.5v3.047h5.281V17H64.691V5.625H72.3v1.9H67.035v2.711h4.5ZM75.66,8.547l.07.945a2.971,2.971,0,0,1,2.43-1.1A2.255,2.255,0,0,1,80.4,9.68a2.9,2.9,0,0,1,2.539-1.289,2.521,2.521,0,0,1,2.047.8,3.681,3.681,0,0,1,.672,2.41V17H83.395V11.609a1.61,1.61,0,0,0-.281-1.051,1.246,1.246,0,0,0-.992-.332,1.409,1.409,0,0,0-1.406.969l.008,5.8H78.465V11.617a1.59,1.59,0,0,0-.289-1.062,1.259,1.259,0,0,0-.984-.328,1.463,1.463,0,0,0-1.391.8V17H73.543V8.547ZM95,12.852a5.07,5.07,0,0,1-.887,3.129,2.843,2.843,0,0,1-2.395,1.176,2.633,2.633,0,0,1-2.07-.891V20.25H87.395V8.547h2.094l.078.828a2.654,2.654,0,0,1,2.141-.984,2.862,2.862,0,0,1,2.43,1.156A5.207,5.207,0,0,1,95,12.734Zm-2.258-.164a3.327,3.327,0,0,0-.418-1.82,1.361,1.361,0,0,0-1.215-.641,1.478,1.478,0,0,0-1.461.813V14.5a1.5,1.5,0,0,0,1.477.836Q92.746,15.336,92.746,12.688ZM101.3,17a2.507,2.507,0,0,1-.227-.758,2.732,2.732,0,0,1-2.133.914,3,3,0,0,1-2.059-.719,2.312,2.312,0,0,1-.816-1.812,2.389,2.389,0,0,1,1-2.062,4.915,4.915,0,0,1,2.879-.727h1.039v-.484a1.393,1.393,0,0,0-.3-.937,1.183,1.183,0,0,0-.949-.352,1.345,1.345,0,0,0-.895.273.929.929,0,0,0-.324.75H96.254a2.268,2.268,0,0,1,.453-1.359,3,3,0,0,1,1.281-.98,4.669,4.669,0,0,1,1.859-.355,3.689,3.689,0,0,1,2.48.785,2.747,2.747,0,0,1,.918,2.207v3.664a4.041,4.041,0,0,0,.336,1.82V17Zm-1.867-1.57a1.945,1.945,0,0,0,.922-.223,1.462,1.462,0,0,0,.625-.6V13.156h-.844q-1.7,0-1.8,1.172l-.008.133a.9.9,0,0,0,.3.7A1.153,1.153,0,0,0,99.434,15.43Zm8.25-8.961V8.547h1.445V10.2h-1.445v4.219a1.007,1.007,0,0,0,.18.672.9.9,0,0,0,.688.2,3.6,3.6,0,0,0,.664-.055v1.711a4.648,4.648,0,0,1-1.367.2,2.156,2.156,0,0,1-2.422-2.4V10.2h-1.234V8.547h1.234V6.469ZM112.77,17H110.5V8.547h2.266Zm-2.4-10.641a1.112,1.112,0,0,1,.34-.836,1.465,1.465,0,0,1,1.848,0,1.105,1.105,0,0,1,.344.836,1.108,1.108,0,0,1-.348.844,1.448,1.448,0,0,1-1.836,0A1.108,1.108,0,0,1,110.371,6.359Zm6.852,8.82h4.133V17H114.34V15.625l3.977-5.258h-3.859V8.547h6.773v1.33ZM127.668,17a2.507,2.507,0,0,1-.227-.758,2.732,2.732,0,0,1-2.133.914,3,3,0,0,1-2.059-.719,2.312,2.312,0,0,1-.816-1.812,2.389,2.389,0,0,1,1-2.062,4.915,4.915,0,0,1,2.879-.727h1.039v-.484a1.393,1.393,0,0,0-.3-.937,1.183,1.183,0,0,0-.949-.352,1.345,1.345,0,0,0-.895.273.929.929,0,0,0-.324.75h-2.258a2.268,2.268,0,0,1,.453-1.359,3,3,0,0,1,1.281-.98,4.669,4.669,0,0,1,1.859-.355,3.689,3.689,0,0,1,2.48.785,2.747,2.747,0,0,1,.918,2.207v3.664a4.041,4.041,0,0,0,.336,1.82V17ZM125.8,15.43a1.945,1.945,0,0,0,.922-.223,1.462,1.462,0,0,0,.625-.6V13.156H126.5q-1.7,0-1.8,1.172l-.008.133a.9.9,0,0,0,.3.7A1.153,1.153,0,0,0,125.8,15.43Zm10.3-4.766a6.134,6.134,0,0,0-.812-.062,1.654,1.654,0,0,0-1.68.867V17h-2.258V8.547h2.133l.063,1.008a2.092,2.092,0,0,1,1.883-1.164,2.366,2.366,0,0,1,.7.1Z" transform="translate(255 10295.109)" fill="#12263f"/>
    <path id="Trazado_637121" data-name="Trazado 637121" d="M57.523,12.3a5.762,5.762,0,0,1-.977,3.609,3.9,3.9,0,0,1-5.7.023,5.594,5.594,0,0,1-1.008-3.516V10.32A5.687,5.687,0,0,1,50.824,6.7a3.91,3.91,0,0,1,5.691-.012A5.576,5.576,0,0,1,57.523,10.2Zm-2.258-2.3a4.165,4.165,0,0,0-.387-2.061,1.307,1.307,0,0,0-1.207-.645A1.284,1.284,0,0,0,52.5,7.9a3.9,3.9,0,0,0-.4,1.92v2.768a4.372,4.372,0,0,0,.379,2.068,1.29,1.29,0,0,0,1.215.676,1.268,1.268,0,0,0,1.2-.649,4.268,4.268,0,0,0,.383-1.986ZM66.844,17h-7.8V15.453l3.68-3.922a9.078,9.078,0,0,0,1.121-1.445,2.322,2.322,0,0,0,.363-1.172,1.738,1.738,0,0,0-.383-1.191,1.382,1.382,0,0,0-1.094-.434,1.49,1.49,0,0,0-1.207.527A2.089,2.089,0,0,0,61.086,9.2H58.82a3.729,3.729,0,0,1,.5-1.9,3.5,3.5,0,0,1,1.4-1.348,4.262,4.262,0,0,1,2.055-.488,4.036,4.036,0,0,1,2.73.844A2.985,2.985,0,0,1,66.477,8.7a3.825,3.825,0,0,1-.437,1.719,9.551,9.551,0,0,1-1.5,2.039L61.953,15.18h4.891Zm1.594-1.109a1.137,1.137,0,0,1,.363-.875,1.412,1.412,0,0,1,1.828,0,1.137,1.137,0,0,1,.363.875,1.121,1.121,0,0,1-.359.863,1.435,1.435,0,0,1-1.836,0A1.121,1.121,0,0,1,68.438,15.891ZM77.1,17V5.625h3.5a5.315,5.315,0,0,1,2.684.676,4.712,4.712,0,0,1,1.848,1.922,5.928,5.928,0,0,1,.664,2.832v.523a5.945,5.945,0,0,1-.652,2.82,4.672,4.672,0,0,1-1.84,1.914,5.355,5.355,0,0,1-2.68.688Zm2.344-9.477v7.594h1.133a2.545,2.545,0,0,0,2.1-.9,4.06,4.06,0,0,0,.742-2.57v-.6A4.124,4.124,0,0,0,82.7,8.418a2.537,2.537,0,0,0-2.1-.895Zm11.8,9.633a4.15,4.15,0,0,1-3.027-1.141,4.054,4.054,0,0,1-1.168-3.039v-.219a5.106,5.106,0,0,1,.492-2.277,3.612,3.612,0,0,1,1.395-1.547,3.914,3.914,0,0,1,2.059-.543,3.508,3.508,0,0,1,2.73,1.094,4.444,4.444,0,0,1,1,3.1v.922H89.336A2.1,2.1,0,0,0,90,14.836a2,2,0,0,0,1.395.5,2.437,2.437,0,0,0,2.039-.945l1.109,1.242a3.389,3.389,0,0,1-1.375,1.121A4.511,4.511,0,0,1,91.242,17.156Zm-.258-6.945a1.411,1.411,0,0,0-1.09.455,2.357,2.357,0,0,0-.535,1.3H92.5v-.181a1.681,1.681,0,0,0-.406-1.165A1.456,1.456,0,0,0,90.984,10.211ZM96.547,17V10.2H95.289V8.547h1.258V8.156a3.17,3.17,0,0,1,.98-2.457,3.945,3.945,0,0,1,2.723-.863,9.031,9.031,0,0,1,2.563.461l-.328,1.867a10,10,0,0,0-1.187-.293,5.835,5.835,0,0,0-.906-.066q-1.578,0-1.578,1.4v.344h1.664V10.2H98.813V17Zm7.32,0H101.6V8.547h2.266Zm3.945-8.453.07.977a2.951,2.951,0,0,1,2.43-1.133,2.453,2.453,0,0,1,2,.789,3.682,3.682,0,0,1,.672,2.359V17h-2.258V11.594a1.465,1.465,0,0,0-.312-1.043,1.4,1.4,0,0,0-1.039-.324,1.553,1.553,0,0,0-1.43.813V17h-2.258V8.547ZM117.078,17h-2.266V8.547h2.266Zm-2.4-10.641a1.112,1.112,0,0,1,.34-.836,1.465,1.465,0,0,1,1.848,0,1.105,1.105,0,0,1,.344.836,1.108,1.108,0,0,1-.348.844,1.448,1.448,0,0,1-1.836,0A1.108,1.108,0,0,1,114.68,6.359Zm9.008,4.3a6.134,6.134,0,0,0-.812-.062,1.654,1.654,0,0,0-1.68.867V17h-2.258V8.547h2.133l.063,1.008a2.092,2.092,0,0,1,1.883-1.164,2.366,2.366,0,0,1,.7.1Z" transform="translate(475 10295.109)" fill="#12263f"/>
    <path id="Trazado_637122" data-name="Trazado 637122" d="M63.063,12.3a5.762,5.762,0,0,1-.977,3.609,3.9,3.9,0,0,1-5.7.023,5.594,5.594,0,0,1-1.008-3.516V10.32A5.687,5.687,0,0,1,56.363,6.7a3.91,3.91,0,0,1,5.691-.012A5.576,5.576,0,0,1,63.063,10.2ZM60.8,9.995a4.165,4.165,0,0,0-.387-2.061,1.307,1.307,0,0,0-1.207-.645,1.284,1.284,0,0,0-1.176.614,3.9,3.9,0,0,0-.4,1.92v2.768a4.372,4.372,0,0,0,.379,2.068,1.29,1.29,0,0,0,1.215.676,1.268,1.268,0,0,0,1.2-.649A4.268,4.268,0,0,0,60.8,12.7Zm6.078.318h1.2a1.7,1.7,0,0,0,1.273-.43,1.575,1.575,0,0,0,.414-1.141,1.392,1.392,0,0,0-.41-1.07,1.59,1.59,0,0,0-1.129-.383,1.666,1.666,0,0,0-1.086.355,1.137,1.137,0,0,0-.437.926H64.453a2.777,2.777,0,0,1,.48-1.6,3.2,3.2,0,0,1,1.344-1.105,4.485,4.485,0,0,1,1.9-.4,4.253,4.253,0,0,1,2.828.863,2.945,2.945,0,0,1,1.023,2.379,2.394,2.394,0,0,1-.477,1.438,3.1,3.1,0,0,1-1.25,1.008,2.826,2.826,0,0,1,1.434,1.031,2.8,2.8,0,0,1,.473,1.625,2.994,2.994,0,0,1-1.105,2.43,4.445,4.445,0,0,1-2.926.914,4.214,4.214,0,0,1-2.785-.9,2.934,2.934,0,0,1-1.082-2.375H66.57a1.308,1.308,0,0,0,.48,1.047,2,2,0,0,0,2.445-.02,1.47,1.47,0,0,0,.457-1.129q0-1.7-1.875-1.7h-1.2Zm7.094,5.578a1.137,1.137,0,0,1,.363-.875,1.412,1.412,0,0,1,1.828,0,1.137,1.137,0,0,1,.363.875,1.121,1.121,0,0,1-.359.863,1.435,1.435,0,0,1-1.836,0A1.121,1.121,0,0,1,73.977,15.891ZM85.133,17H82.789V5.625h2.344ZM86.8,12.711a5.094,5.094,0,0,1,.887-3.148,2.877,2.877,0,0,1,2.426-1.172,2.589,2.589,0,0,1,2.039.922V5h2.266V17H92.383l-.109-.9A2.657,2.657,0,0,1,90.1,17.156a2.869,2.869,0,0,1-2.395-1.176A5.258,5.258,0,0,1,86.8,12.711Zm2.258.168a3.337,3.337,0,0,0,.414,1.823,1.349,1.349,0,0,0,1.2.634,1.511,1.511,0,0,0,1.477-.884V11.111a1.489,1.489,0,0,0-1.461-.884Q89.063,10.227,89.063,12.879Zm11,4.277a4.15,4.15,0,0,1-3.027-1.141,4.054,4.054,0,0,1-1.168-3.039v-.219a5.106,5.106,0,0,1,.492-2.277,3.612,3.612,0,0,1,1.395-1.547,3.914,3.914,0,0,1,2.059-.543,3.508,3.508,0,0,1,2.73,1.094,4.444,4.444,0,0,1,1,3.1v.922H98.156a2.1,2.1,0,0,0,.66,1.328,2,2,0,0,0,1.395.5,2.437,2.437,0,0,0,2.039-.945l1.109,1.242a3.389,3.389,0,0,1-1.375,1.121A4.511,4.511,0,0,1,100.063,17.156ZM99.8,10.211a1.411,1.411,0,0,0-1.09.455,2.357,2.357,0,0,0-.535,1.3h3.141v-.181a1.681,1.681,0,0,0-.406-1.165A1.456,1.456,0,0,0,99.8,10.211ZM109.719,17a2.507,2.507,0,0,1-.227-.758,2.732,2.732,0,0,1-2.133.914,3,3,0,0,1-2.059-.719,2.312,2.312,0,0,1-.816-1.812,2.389,2.389,0,0,1,1-2.062,4.915,4.915,0,0,1,2.879-.727H109.4v-.484a1.393,1.393,0,0,0-.3-.937,1.183,1.183,0,0,0-.949-.352,1.345,1.345,0,0,0-.895.273.929.929,0,0,0-.324.75h-2.258a2.268,2.268,0,0,1,.453-1.359,3,3,0,0,1,1.281-.98,4.669,4.669,0,0,1,1.859-.355,3.689,3.689,0,0,1,2.48.785,2.747,2.747,0,0,1,.918,2.207v3.664a4.041,4.041,0,0,0,.336,1.82V17Zm-1.867-1.57a1.945,1.945,0,0,0,.922-.223,1.462,1.462,0,0,0,.625-.6V13.156h-.844q-1.7,0-1.8,1.172l-.008.133a.9.9,0,0,0,.3.7A1.153,1.153,0,0,0,107.852,15.43Zm10.3-4.766a6.134,6.134,0,0,0-.812-.062,1.654,1.654,0,0,0-1.68.867V17H113.4V8.547h2.133l.063,1.008a2.092,2.092,0,0,1,1.883-1.164,2.366,2.366,0,0,1,.7.1Z" transform="translate(714 10295.109)" fill="#12263f"/>
    <path id="Trazado_637123" data-name="Trazado 637123" d="M45.328,12.3a5.762,5.762,0,0,1-.977,3.609,3.409,3.409,0,0,1-2.859,1.25,3.433,3.433,0,0,1-2.844-1.227,5.594,5.594,0,0,1-1.008-3.516V10.32A5.687,5.687,0,0,1,38.629,6.7a3.434,3.434,0,0,1,2.848-1.234A3.437,3.437,0,0,1,44.32,6.691,5.576,5.576,0,0,1,45.328,10.2Zm-2.258-2.3a4.165,4.165,0,0,0-.387-2.061,1.307,1.307,0,0,0-1.207-.645A1.284,1.284,0,0,0,40.3,7.9a3.9,3.9,0,0,0-.4,1.92v2.768a4.372,4.372,0,0,0,.379,2.068,1.29,1.29,0,0,0,1.215.676,1.268,1.268,0,0,0,1.2-.649A4.268,4.268,0,0,0,43.07,12.7Zm3.992,5.9a1.137,1.137,0,0,1,.363-.875,1.412,1.412,0,0,1,1.828,0,1.137,1.137,0,0,1,.363.875,1.121,1.121,0,0,1-.359.863,1.435,1.435,0,0,1-1.836,0A1.121,1.121,0,0,1,47.063,15.891ZM58.18,12.719h1.289v1.82H58.18V17H55.922V14.539H51.258l-.1-1.422L55.9,5.625H58.18Zm-4.773,0h2.516V8.7l-.148.258Zm13.844.273V17H64.906V5.625h4.438a5.134,5.134,0,0,1,2.254.469,3.454,3.454,0,0,1,1.5,1.332,3.714,3.714,0,0,1,.523,1.965,3.266,3.266,0,0,1-1.145,2.637,4.767,4.767,0,0,1-3.168.965Zm0-1.9h2.094a2.059,2.059,0,0,0,1.418-.437,1.591,1.591,0,0,0,.488-1.25,1.876,1.876,0,0,0-.492-1.352A1.839,1.839,0,0,0,69.4,7.523H67.25Zm12.578-.43a6.134,6.134,0,0,0-.812-.062,1.654,1.654,0,0,0-1.68.867V17H75.078V8.547h2.133l.063,1.008a2.092,2.092,0,0,1,1.883-1.164,2.366,2.366,0,0,1,.7.1Zm.453,2.031a5.013,5.013,0,0,1,.484-2.242A3.546,3.546,0,0,1,82.16,8.93a4.069,4.069,0,0,1,2.113-.539,3.849,3.849,0,0,1,2.793,1.047,4.2,4.2,0,0,1,1.207,2.844l.016.578A4.418,4.418,0,0,1,87.2,15.98a4.209,4.209,0,0,1-5.832,0,4.5,4.5,0,0,1-1.09-3.187Zm2.258.16a3.16,3.16,0,0,0,.453,1.843,1.628,1.628,0,0,0,2.578.008,3.457,3.457,0,0,0,.461-2.015,3.128,3.128,0,0,0-.461-1.831,1.5,1.5,0,0,0-1.3-.649,1.474,1.474,0,0,0-1.281.646A3.516,3.516,0,0,0,82.539,12.856Zm9.844-6.387V8.547h1.445V10.2H92.383v4.219a1.007,1.007,0,0,0,.18.672.9.9,0,0,0,.688.2,3.6,3.6,0,0,0,.664-.055v1.711a4.648,4.648,0,0,1-1.367.2,2.156,2.156,0,0,1-2.422-2.4V10.2H88.891V8.547h1.234V6.469ZM94.5,12.7a5.013,5.013,0,0,1,.484-2.242A3.546,3.546,0,0,1,96.379,8.93a4.069,4.069,0,0,1,2.113-.539,3.849,3.849,0,0,1,2.793,1.047,4.2,4.2,0,0,1,1.207,2.844l.016.578a4.418,4.418,0,0,1-1.086,3.121,4.209,4.209,0,0,1-5.832,0A4.5,4.5,0,0,1,94.5,12.8Zm2.258.16a3.16,3.16,0,0,0,.453,1.843,1.628,1.628,0,0,0,2.578.008,3.457,3.457,0,0,0,.461-2.015,3.128,3.128,0,0,0-.461-1.831,1.5,1.5,0,0,0-1.3-.649,1.474,1.474,0,0,0-1.281.646A3.516,3.516,0,0,0,96.758,12.856ZM106.6,6.469V8.547h1.445V10.2H106.6v4.219a1.007,1.007,0,0,0,.18.672.9.9,0,0,0,.688.2,3.6,3.6,0,0,0,.664-.055v1.711a4.648,4.648,0,0,1-1.367.2,2.156,2.156,0,0,1-2.422-2.4V10.2h-1.234V8.547h1.234V6.469ZM111.688,17h-2.266V8.547h2.266Zm-2.4-10.641a1.112,1.112,0,0,1,.34-.836,1.465,1.465,0,0,1,1.848,0,1.105,1.105,0,0,1,.344.836,1.108,1.108,0,0,1-.348.844,1.448,1.448,0,0,1-1.836,0A1.108,1.108,0,0,1,109.289,6.359Zm11.867,6.492a5.07,5.07,0,0,1-.887,3.129,2.843,2.843,0,0,1-2.395,1.176,2.633,2.633,0,0,1-2.07-.891V20.25h-2.258V8.547h2.094l.078.828a2.654,2.654,0,0,1,2.141-.984,2.862,2.862,0,0,1,2.43,1.156,5.207,5.207,0,0,1,.867,3.188Zm-2.258-.164a3.327,3.327,0,0,0-.418-1.82,1.361,1.361,0,0,0-1.215-.641,1.478,1.478,0,0,0-1.461.813V14.5a1.5,1.5,0,0,0,1.477.836Q118.9,15.336,118.9,12.688ZM127.453,17a2.507,2.507,0,0,1-.227-.758,2.732,2.732,0,0,1-2.133.914,3,3,0,0,1-2.059-.719,2.312,2.312,0,0,1-.816-1.812,2.389,2.389,0,0,1,1-2.062,4.915,4.915,0,0,1,2.879-.727h1.039v-.484a1.393,1.393,0,0,0-.3-.937,1.183,1.183,0,0,0-.949-.352,1.345,1.345,0,0,0-.895.273.929.929,0,0,0-.324.75h-2.258a2.268,2.268,0,0,1,.453-1.359,3,3,0,0,1,1.281-.98A4.669,4.669,0,0,1,126,8.391a3.689,3.689,0,0,1,2.48.785,2.747,2.747,0,0,1,.918,2.207v3.664a4.041,4.041,0,0,0,.336,1.82V17Zm-1.867-1.57a1.945,1.945,0,0,0,.922-.223,1.462,1.462,0,0,0,.625-.6V13.156h-.844q-1.7,0-1.8,1.172l-.008.133a.9.9,0,0,0,.3.7A1.153,1.153,0,0,0,125.586,15.43Zm10.3-4.766a6.134,6.134,0,0,0-.812-.062,1.654,1.654,0,0,0-1.68.867V17h-2.258V8.547h2.133l.063,1.008a2.092,2.092,0,0,1,1.883-1.164,2.366,2.366,0,0,1,.7.1Z" transform="translate(952 10295.109)" fill="#12263f"/>
    <path id="Trazado_637124" data-name="Trazado 637124" d="M56.137,12.3a5.762,5.762,0,0,1-.977,3.609,3.9,3.9,0,0,1-5.7.023,5.594,5.594,0,0,1-1.008-3.516V10.32A5.687,5.687,0,0,1,49.438,6.7a3.91,3.91,0,0,1,5.691-.012A5.576,5.576,0,0,1,56.137,10.2Zm-2.258-2.3a4.165,4.165,0,0,0-.387-2.061,1.307,1.307,0,0,0-1.207-.645,1.284,1.284,0,0,0-1.176.614,3.9,3.9,0,0,0-.4,1.92v2.768a4.372,4.372,0,0,0,.379,2.068,1.29,1.29,0,0,0,1.215.676,1.268,1.268,0,0,0,1.2-.649,4.268,4.268,0,0,0,.383-1.986ZM58,11.406l.656-5.781h6.375V7.508H60.5l-.281,2.445a3.58,3.58,0,0,1,1.711-.43,3.279,3.279,0,0,1,2.547,1.008,4.026,4.026,0,0,1,.922,2.82,4.124,4.124,0,0,1-.465,1.973,3.281,3.281,0,0,1-1.332,1.352,4.158,4.158,0,0,1-2.047.48,4.416,4.416,0,0,1-1.914-.418,3.4,3.4,0,0,1-1.395-1.176,3.2,3.2,0,0,1-.543-1.727h2.234a1.669,1.669,0,0,0,.5,1.105,1.573,1.573,0,0,0,1.113.395,1.388,1.388,0,0,0,1.18-.551,2.551,2.551,0,0,0,.414-1.559,2.11,2.11,0,0,0-.477-1.484,1.749,1.749,0,0,0-1.352-.516,1.954,1.954,0,0,0-1.3.422l-.219.2Zm9.055,4.484a1.137,1.137,0,0,1,.363-.875,1.412,1.412,0,0,1,1.828,0,1.137,1.137,0,0,1,.363.875,1.121,1.121,0,0,1-.359.863,1.435,1.435,0,0,1-1.836,0A1.121,1.121,0,0,1,67.051,15.891ZM79.918,14.18,82.5,5.625h2.609L81.145,17H78.7L74.754,5.625h2.6ZM90.566,17a2.507,2.507,0,0,1-.227-.758,2.732,2.732,0,0,1-2.133.914,3,3,0,0,1-2.059-.719,2.312,2.312,0,0,1-.816-1.812,2.389,2.389,0,0,1,1-2.062,4.915,4.915,0,0,1,2.879-.727h1.039v-.484a1.393,1.393,0,0,0-.3-.937A1.183,1.183,0,0,0,89,10.063a1.345,1.345,0,0,0-.895.273.929.929,0,0,0-.324.75H85.52a2.268,2.268,0,0,1,.453-1.359,3,3,0,0,1,1.281-.98,4.669,4.669,0,0,1,1.859-.355,3.689,3.689,0,0,1,2.48.785,2.747,2.747,0,0,1,.918,2.207v3.664a4.041,4.041,0,0,0,.336,1.82V17ZM88.7,15.43a1.945,1.945,0,0,0,.922-.223,1.462,1.462,0,0,0,.625-.6V13.156H89.4q-1.7,0-1.8,1.172l-.008.133a.9.9,0,0,0,.3.7A1.153,1.153,0,0,0,88.7,15.43ZM96.629,17H94.363V5h2.266Zm4.242,0H98.605V8.547h2.266Zm-2.4-10.641a1.112,1.112,0,0,1,.34-.836,1.465,1.465,0,0,1,1.848,0,1.105,1.105,0,0,1,.344.836,1.108,1.108,0,0,1-.348.844,1.448,1.448,0,0,1-1.836,0A1.108,1.108,0,0,1,98.473,6.359Zm3.906,6.352a5.094,5.094,0,0,1,.887-3.148,2.877,2.877,0,0,1,2.426-1.172,2.589,2.589,0,0,1,2.039.922V5H110V17h-2.039l-.109-.9a2.657,2.657,0,0,1-2.172,1.055,2.869,2.869,0,0,1-2.395-1.176A5.258,5.258,0,0,1,102.379,12.711Zm2.258.168a3.337,3.337,0,0,0,.414,1.823,1.349,1.349,0,0,0,1.2.634,1.511,1.511,0,0,0,1.477-.884V11.111a1.489,1.489,0,0,0-1.461-.884Q104.637,10.227,104.637,12.879ZM116.645,17a2.507,2.507,0,0,1-.227-.758,2.732,2.732,0,0,1-2.133.914,3,3,0,0,1-2.059-.719,2.312,2.312,0,0,1-.816-1.812,2.389,2.389,0,0,1,1-2.062,4.915,4.915,0,0,1,2.879-.727h1.039v-.484a1.393,1.393,0,0,0-.3-.937,1.183,1.183,0,0,0-.949-.352,1.345,1.345,0,0,0-.895.273.929.929,0,0,0-.324.75H111.6a2.268,2.268,0,0,1,.453-1.359,3,3,0,0,1,1.281-.98,4.669,4.669,0,0,1,1.859-.355,3.689,3.689,0,0,1,2.48.785,2.747,2.747,0,0,1,.918,2.207v3.664a4.041,4.041,0,0,0,.336,1.82V17Zm-1.867-1.57a1.945,1.945,0,0,0,.922-.223,1.462,1.462,0,0,0,.625-.6V13.156h-.844q-1.7,0-1.8,1.172l-.008.133a.9.9,0,0,0,.3.7A1.153,1.153,0,0,0,114.777,15.43Zm10.3-4.766a6.134,6.134,0,0,0-.812-.062,1.654,1.654,0,0,0-1.68.867V17h-2.258V8.547h2.133l.063,1.008A2.092,2.092,0,0,1,124.4,8.391a2.366,2.366,0,0,1,.7.1Z" transform="translate(1191 10295.109)" fill="#12263f"/>
    <g id="Grupo_963263" data-name="Grupo 963263" transform="translate(291.077 10186.988)">
      <circle id="Elipse_5210" data-name="Elipse 5210" cx="46" cy="46" r="46" transform="translate(6.923 0.122)" fill="#ef8b53"/>
      <g id="Grupo_964890" data-name="Grupo 964890" transform="translate(-644.374 -40.271)">
        <path id="Trazado_636068" data-name="Trazado 636068" d="M825.168,77.13q0,8,0,16c0,1.411-.422,1.834-1.855,1.835q-6.725.007-13.45,0c-1.422,0-1.851-.435-1.853-1.842,0-1.366-.03-2.732.013-4.1.018-.561-.167-.669-.692-.666-3.968.022-7.936.013-11.9.012-1.511,0-1.938-.423-1.94-1.921,0-2.164-.025-4.329.015-6.493.012-.644-.1-.887-.823-.862-1.8.062-3.607.027-5.41.018-1.4-.007-1.953-.8-1.473-2.132q2.387-6.6,4.8-13.185a4.825,4.825,0,0,0,.264-1.58c.194-7.242,3.455-12.585,9.981-15.8a17.148,17.148,0,0,1,20.611,4.9,17.44,17.44,0,0,1,3.718,10.967Q825.161,69.709,825.168,77.13Zm-2.635-.572q0-7.108,0-14.217a14.789,14.789,0,0,0-.833-5.154,14.5,14.5,0,0,0-28.132,3.642,12.638,12.638,0,0,1-.49,3.953c-1.418,3.669-2.7,7.39-4.063,11.08-.2.54-.081.637.452.628,1.674-.027,3.348-.017,5.022-.007,1.17.007,1.631.472,1.635,1.648.009,2.241.031,4.482-.014,6.722-.014.711.19.908.9.9,3.914-.034,7.83-.017,11.744-.016,1.537,0,1.887.358,1.888,1.922,0,1.288.03,2.577-.013,3.863-.02.6.153.788.771.783,3.426-.029,6.851-.038,10.276.005.749.009.872-.249.869-.918C822.521,86.447,822.533,81.5,822.533,76.557Z" transform="translate(-88.286)" fill="#010101"/>
        <path id="Trazado_636069" data-name="Trazado 636069" d="M657.717,166.651c0-4.947-.016-9.893,0-14.84a17,17,0,0,1,7.105-14.212,17.155,17.155,0,0,1,27.2,14.19,4.561,4.561,0,0,0,.288,1.575q2.373,6.479,4.709,12.971c.565,1.563.051,2.284-1.626,2.286-1.778,0-3.556.023-5.333-.012-.556-.011-.684.171-.677.7.027,2.241.014,4.483.01,6.724,0,1.4-.446,1.832-1.859,1.833-3.993,0-7.987.011-11.98-.011-.522,0-.711.1-.695.665.043,1.442.024,2.885.011,4.328-.01,1.105-.5,1.624-1.6,1.627q-6.957.02-13.913,0c-1.151,0-1.635-.512-1.636-1.668Q657.712,174.728,657.717,166.651Zm36.232-.675a.707.707,0,0,0-.08-.576q-1.534-4.244-3.078-8.485c-.713-1.974-1.541-3.888-1.464-6.092a11.909,11.909,0,0,0-1.229-5.294,14.5,14.5,0,0,0-27.6,4.048,27.955,27.955,0,0,0-.148,2.929q.008,14.257,0,28.514c0,.428-.115.849.615.842,3.554-.034,7.109-.023,10.664-.007.465,0,.631-.128.622-.609-.028-1.39-.011-2.782-.009-4.172,0-1.425.416-1.843,1.831-1.844,3.967,0,7.934-.016,11.9.015.659.005.813-.193.8-.823-.038-2.163-.016-4.327-.014-6.491,0-1.559.4-1.954,1.966-1.955C690.476,165.975,692.224,165.976,693.949,165.976Z" transform="translate(0 -61.802)" fill="#010101"/>
        <path id="Trazado_636070" data-name="Trazado 636070" d="M815.734,219.762c-.219.2-.327.307-.443.4-.426.356-.85,1.2-1.21,1.039a6.7,6.7,0,0,1-1.694-1.532c-.189-.184-.035-.315.1-.445,1.222-1.22,2.426-2.458,3.672-3.652a1.3,1.3,0,0,1,1.934.025c1.223,1.181,2.407,2.4,3.621,3.594.239.235.272.409,0,.614-.02.015-.035.038-.055.054-.549.444-.927,1.388-1.569,1.324-.539-.053-1-.854-1.51-1.332-.237.221-.143.464-.145.675-.009,1.6.005,3.2-.007,4.793-.033,4.2-2.773,6.982-6.976,6.994-8.452.024-16.9,0-25.357.016-.475,0-.734-.083-.657-.628a6.8,6.8,0,0,0,.007-.927c0-1.117,0-1.117,1.08-1.117q12.407,0,24.815,0c2.312,0,3.777-1.021,4.312-2.982a1.5,1.5,0,0,0,.083-.374C815.735,224.173,815.734,222.043,815.734,219.762Z" transform="translate(-88.144 -117.564)" fill="#010101"/>
        <path id="Trazado_636071" data-name="Trazado 636071" d="M696.915,88.811c0-1.049,0-1.97,0-2.891.009-4.216,2.7-7.013,6.9-7.049,4.969-.043,9.939,0,14.909-.022.524,0,.63.172.63.66,0,2.007.018,2.007-1.979,2.007q-6.682,0-13.364,0c-2.915,0-4.458,1.563-4.46,4.493,0,.893,0,1.785,0,2.884.516-.528.916-.911,1.283-1.323.269-.3.476-.4.79-.038.451.525,1.259.972,1.326,1.523.051.419-.81.955-1.276,1.428q-1.112,1.128-2.238,2.241c-.872.86-1.533.871-2.386.029-1.117-1.1-2.211-2.232-3.339-3.324-.307-.3-.352-.481-.011-.778.5-.439.924-1.235,1.456-1.306.565-.076.955.811,1.458,1.237C696.672,88.631,696.734,88.674,696.915,88.811Z" transform="translate(-24.676 -23.487)" fill="#010101"/>
        <path id="Trazado_636072" data-name="Trazado 636072" d="M785.489,80.178c0-1.3,0-1.3,1.271-1.3,1.366,0,1.366,0,1.366,1.358,0,1.3,0,1.3-1.273,1.3C785.489,81.539,785.489,81.539,785.489,80.178Z" transform="translate(-88.192 -23.509)" fill="#010101"/>
        <path id="Trazado_636073" data-name="Trazado 636073" d="M768.476,263.228c0-1.26,0-1.26,1.242-1.26,1.4,0,1.4,0,1.4,1.409,0,1.26,0,1.26-1.242,1.26C768.476,264.637,768.476,264.637,768.476,263.228Z" transform="translate(-76.449 -149.874)" fill="#010101"/>
        <path id="Trazado_636074" data-name="Trazado 636074" d="M829.875,82.571c0,4.945-.012,9.89.014,14.835,0,.669-.12.927-.869.918-3.425-.044-6.851-.034-10.276-.005-.617.005-.791-.179-.771-.783.043-1.286.014-2.575.013-3.863,0-1.564-.351-1.921-1.888-1.922-3.915,0-7.83-.018-11.744.016-.712.006-.916-.191-.9-.9.044-2.24.022-4.481.014-6.722,0-1.176-.465-1.641-1.635-1.648-1.674-.011-3.348-.02-5.022.007-.533.009-.652-.088-.452-.628,1.363-3.69,2.645-7.412,4.063-11.08a12.638,12.638,0,0,0,.49-3.953A14.5,14.5,0,0,1,829.041,63.2a14.787,14.787,0,0,1,.833,5.154Q829.88,75.463,829.875,82.571ZM809.242,71.95a8.132,8.132,0,0,0,4.437-1.409c1.077-.739,1.074-.743.174-1.644a5.943,5.943,0,0,1-.54-.55c-.333-.435-.607-.437-1.068-.093a4.924,4.924,0,0,1-5.229.507c-.505-.218-.832-.976-1.412-.723-.481.209-.814.762-1.212,1.163a.882.882,0,0,1-.109.108c-.407.286-.348.52.022.819A8.084,8.084,0,0,0,809.242,71.95Z" transform="translate(-95.629 -6.013)" fill="#7bc5ca"/>
        <path id="Trazado_636075" data-name="Trazado 636075" d="M699.816,171.854c-1.725,0-3.474,0-5.222,0-1.568,0-1.965.4-1.966,1.955,0,2.164-.024,4.328.014,6.491.011.63-.143.828-.8.823-3.966-.031-7.934-.016-11.9-.015-1.415,0-1.829.419-1.831,1.844,0,1.391-.019,2.782.009,4.172.01.481-.156.612-.621.609-3.555-.016-7.11-.028-10.664.007-.73.007-.615-.415-.615-.842q0-14.257,0-28.514a27.971,27.971,0,0,1,.148-2.929,14.5,14.5,0,0,1,27.6-4.048,11.909,11.909,0,0,1,1.229,5.294c-.076,2.2.751,4.118,1.464,6.092q1.534,4.244,3.078,8.485A.708.708,0,0,1,699.816,171.854Zm-13.064-10.537a7.984,7.984,0,0,0,4.493-1.4c1.066-.731,1.062-.737.179-1.622a6.249,6.249,0,0,1-.594-.6c-.323-.429-.59-.369-1-.065a4.909,4.909,0,0,1-5.232.513c-.5-.222-.856-.946-1.41-.731-.485.188-.824.749-1.228,1.145a.6.6,0,0,1-.055.054c-.43.322-.438.578.018.938A8.072,8.072,0,0,0,686.751,161.317Z" transform="translate(-5.867 -67.679)" fill="#e3a04c"/>
        <path id="Trazado_636076" data-name="Trazado 636076" d="M826.482,104.151a8.084,8.084,0,0,1-4.936-1.823c-.37-.3-.429-.533-.022-.819a.882.882,0,0,0,.109-.108c.4-.4.73-.954,1.212-1.163.581-.252.907.5,1.412.723a4.924,4.924,0,0,0,5.229-.507c.461-.343.735-.341,1.068.093a5.926,5.926,0,0,0,.54.55c.9.9.9.906-.174,1.644A8.132,8.132,0,0,1,826.482,104.151Z" transform="translate(-112.868 -38.214)" fill="#010101"/>
        <path id="Trazado_636077" data-name="Trazado 636077" d="M720.991,193.586a8.072,8.072,0,0,1-4.83-1.776c-.456-.36-.448-.616-.018-.938a.6.6,0,0,0,.055-.054c.4-.4.743-.957,1.228-1.145.554-.215.907.509,1.41.731a4.909,4.909,0,0,0,5.232-.513c.412-.3.678-.364,1,.065a6.247,6.247,0,0,0,.594.6c.882.885.887.892-.179,1.622A7.984,7.984,0,0,1,720.991,193.586Z" transform="translate(-40.107 -99.949)" fill="#010101"/>
      </g>
    </g>
    <g id="Grupo_963264" data-name="Grupo 963264" transform="translate(511.077 10186.988)">
      <circle id="Elipse_5210-2" data-name="Elipse 5210" cx="46" cy="46" r="46" transform="translate(6.923 0.122)" fill="#ef8b53"/>
      <g id="Grupo_964889" data-name="Grupo 964889" transform="translate(-652.662 -379.995)">
        <path id="Trazado_636041" data-name="Trazado 636041" d="M774.125,421q0,15.709,0,31.418c0,1.475-.367,1.845-1.829,1.845-4.264,0-8.528.012-12.792-.013-.576,0-.772.1-.749.725.054,1.464.032,2.931.013,4.4a5.114,5.114,0,1,1-10.228-.036c-.015-1.439-.039-2.879.014-4.316.024-.64-.173-.771-.784-.769q-14.311.03-28.622.014c-.826,0-1.653.014-2.478,0a1.287,1.287,0,0,1-1.4-1.393c-.006-.16,0-.32,0-.479q0-26.262-.015-52.524a2.54,2.54,0,0,1,.817-1.97q4.75-4.69,9.442-9.439a2.29,2.29,0,0,1,1.766-.726q22.546.022,45.092.012c1.357,0,1.75.4,1.75,1.762Q774.126,405.255,774.125,421Zm-2.559.086q0-15.029.008-30.058c0-.485-.009-.747-.646-.746q-21.106.032-42.212.005c-.514,0-.671.12-.661.651.034,1.838.018,3.677.012,5.516a3.852,3.852,0,0,1-4.045,4.077c-1.839.008-3.678.028-5.516-.013-.579-.013-.7.167-.686.711.035,1.891.013,3.784.013,5.676q0,22.024,0,44.048c0,.45-.056.772.62.77q14.75-.038,29.5,0c.521,0,.609-.165.6-.632-.028-1.465,0-2.931-.013-4.4a3.574,3.574,0,0,1,.55-2.292,4.707,4.707,0,0,0,.733-3.315c0-.666-.033-1.335.01-2,.034-.516-.141-.705-.651-.863a15.357,15.357,0,1,1,8.918.012c-.474.147-.625.329-.612.813.035,1.225.019,2.451.007,3.677a1.341,1.341,0,0,0,.282.877,5.051,5.051,0,0,1,1,3.133c-.008,1.412.027,2.826-.016,4.237-.018.578.108.758.727.752q5.636-.05,11.272,0c.659.006.827-.145.825-.817Q771.546,436,771.566,421.09Zm-17.9,15.266a12.792,12.792,0,1,0-12.8-12.8A12.833,12.833,0,0,0,753.665,436.356Zm2.549,16.6c0-2.052.006-4.1,0-6.156a2.566,2.566,0,1,0-5.114.013q-.008,6.156,0,12.312a2.569,2.569,0,1,0,5.115-.013C756.217,457.064,756.214,455.012,756.213,452.96Zm-30.71-60.57-5.577,5.583c1.393,0,2.872.028,4.35-.012a1.168,1.168,0,0,0,1.216-1.221C725.53,395.263,725.5,393.786,725.5,392.389Zm26.873,49.286a4.966,4.966,0,0,1,2.559-.049c0-.81-.025-1.551.01-2.289.02-.422-.15-.473-.511-.449a13.55,13.55,0,0,1-1.588,0c-.316-.016-.49.015-.476.4C752.394,440.055,752.376,440.82,752.376,441.676Z" transform="translate(-32.54)" fill="#010101"/>
        <path id="Trazado_636042" data-name="Trazado 636042" d="M667.38,454.473c0-5.463-.018-10.926.007-16.389a6.389,6.389,0,0,1,12.777-.058c.034,5.01.01,10.02.01,15.03q0,8.874.009,17.748a2.749,2.749,0,0,1-.48,1.64c-1.554,2.289-3.076,4.6-4.614,6.9-.871,1.3-1.756,1.3-2.635-.02-1.552-2.322-3.093-4.652-4.656-6.967a2.393,2.393,0,0,1-.425-1.416Q667.39,462.708,667.38,454.473Zm2.559,13.674c1.116-.837,1.6-.823,2.4-.067.48.45.86,1.281,1.445,1.269s.962-.831,1.443-1.284a1.326,1.326,0,0,1,2.038-.165c.1.071.165.221.346.1q0-9.566.012-19.16c0-.519-.234-.537-.627-.534-2.051.012-4.1.034-6.152-.01-.7-.015-.934.133-.927.893.041,4.5.02,9,.02,13.5Zm3.826-27.507c.426,0,.853.016,1.279,0,.842-.038,2.031.368,2.433-.154.427-.555.155-1.678.127-2.551a3.832,3.832,0,0,0-7.661.057c-.019.665.026,1.334-.015,2-.031.5.094.692.641.668C671.633,440.607,672.7,440.641,673.765,440.641Zm.07,2.559h-2.075c-1.867,0-1.847,0-1.834,1.9,0,.526.161.678.679.67,1.7-.029,3.4-.011,5.107-.011,1.988,0,1.973,0,1.912-1.978-.014-.453-.15-.6-.6-.587C675.964,443.218,674.9,443.2,673.835,443.2Zm-2.576,27.5a1.982,1.982,0,0,0-.743.63c-.2.2-.071.385.053.57.976,1.461,1.959,2.918,2.919,4.39.27.414.41.251.606-.046.953-1.444,1.9-2.893,2.883-4.318.392-.569-.121-.743-.365-1.037-.308-.37-.5-.048-.7.147-.362.354-.709.723-1.076,1.072a1.311,1.311,0,0,1-2.093.019c-.387-.367-.752-.755-1.131-1.13C671.5,470.887,671.373,470.794,671.26,470.7Z" transform="translate(0 -29.87)" fill="#010101"/>
        <path id="Trazado_636043" data-name="Trazado 636043" d="M776.994,426.506q0,14.91.017,29.818c0,.672-.166.823-.825.817q-5.636-.052-11.272,0c-.62.005-.745-.174-.727-.752.044-1.411.008-2.824.016-4.236a5.052,5.052,0,0,0-1-3.133,1.342,1.342,0,0,1-.282-.877c.012-1.226.028-2.452-.007-3.677-.013-.484.138-.666.612-.813a15.358,15.358,0,1,0-8.918-.012c.511.158.685.347.651.863-.043.663-.013,1.332-.01,2a4.707,4.707,0,0,1-.733,3.315,3.574,3.574,0,0,0-.55,2.293c.01,1.465-.015,2.931.013,4.4.009.467-.079.633-.6.632q-14.75-.026-29.5,0c-.676,0-.621-.32-.62-.77q.009-22.024,0-44.048c0-1.892.021-3.784-.013-5.676-.01-.544.107-.724.686-.711,1.838.041,3.677.022,5.516.014a3.852,3.852,0,0,0,4.045-4.077c.007-1.839.022-3.678-.012-5.516-.01-.531.148-.652.661-.651q21.107.021,42.212-.005c.637,0,.647.261.646.746Q776.986,411.477,776.994,426.506Zm-26.906-14.157h21.342c1.727,0,1.686,0,1.746-1.719.025-.717-.179-.857-.868-.856q-21.7.033-43.4.017c-1.811,0-1.78,0-1.823,1.8-.015.638.172.775.786.773C735.274,412.341,742.681,412.349,750.089,412.349Zm8.356-10.234h12.941c1.774,0,1.739,0,1.788-1.752.019-.663-.15-.825-.818-.823q-13.34.038-26.68.017c-1.822,0-1.792,0-1.831,1.792-.013.625.155.785.781.781C749.232,402.1,753.838,402.114,758.445,402.114Zm.09,5.117H771.4c1.764,0,1.728,0,1.779-1.762.02-.681-.178-.814-.829-.812q-13.3.035-26.6.016c-1.9,0-1.878,0-1.9,1.882-.007.576.166.692.711.689C749.215,407.222,753.875,407.232,758.535,407.232Zm-18.648,38.379H728.858c-1.764,0-1.726,0-1.779,1.764-.02.685.185.812.832.81,7.645-.024,15.29-.016,22.935-.016,1.851,0,1.82,0,1.858-1.844.013-.618-.172-.732-.751-.728C747.931,445.623,743.908,445.611,739.886,445.611Zm.091,5.117H728.87c-1.774,0-1.74,0-1.789,1.753-.019.665.153.824.82.822,7.645-.027,15.29-.017,22.935-.017,1.861,0,1.833,0,1.867-1.833.011-.6-.138-.745-.738-.741C747.968,450.742,743.973,450.728,739.977,450.728Zm-3.291-33.262h7.75c1.862,0,1.835,0,1.868-1.831.011-.591-.131-.746-.736-.743-5.539.027-11.079.016-16.618.016-1.877,0-1.857,0-1.866,1.911,0,.515.124.665.653.66C730.721,417.452,733.7,417.466,736.686,417.466Zm.005,23.028h-7.75c-1.854,0-1.824,0-1.86,1.84-.012.61.159.735.746.733,5.513-.024,11.025-.014,16.538-.014,1.95,0,1.928,0,1.938-1.92,0-.532-.152-.654-.664-.65C742.657,440.506,739.674,440.493,736.692,440.493Zm-1.973-17.91h5.991c1.746,0,1.721,0,1.755-1.782.012-.6-.111-.8-.764-.794-4.234.034-8.467.017-12.7.017-1.934,0-1.906,0-1.918,1.942,0,.572.213.63.687.626C730.085,422.572,732.4,422.583,734.718,422.583Zm.14,2.559h-5.911c-1.858,0-1.83,0-1.865,1.835-.011.6.141.743.739.739,4.26-.029,8.521-.015,12.781-.015,1.874,0,1.853,0,1.862-1.914,0-.521-.134-.663-.657-.657C739.491,425.159,737.175,425.142,734.858,425.142Zm-.16,7.676h5.911c1.852,0,1.822,0,1.859-1.842.012-.612-.164-.735-.748-.731-4.234.027-8.468.014-12.7.014-1.948,0-1.926,0-1.936,1.922,0,.534.156.654.665.648C730.065,432.8,732.382,432.818,734.7,432.818Zm.079,5.117h5.831c1.853,0,1.823,0,1.859-1.841.012-.611-.161-.736-.746-.732-4.234.027-8.468.014-12.7.014-1.949,0-1.927,0-1.936,1.921,0,.533.153.655.664.649C730.091,437.92,732.434,437.935,734.777,437.935Zm35.188,6.4H767.33c-1.874,0-1.855,0-1.863,1.911,0,.513.121.669.652.661,2.129-.032,4.258-.013,6.387-.013,1.983,0,1.968,0,1.942-1.991-.006-.443-.112-.589-.571-.578C772.573,444.351,771.269,444.332,769.965,444.332Zm-.089,8.955h2.635c1.951,0,1.93,0,1.939-1.916,0-.521-.136-.663-.657-.655-2.129.03-4.258.012-6.387.012-1.981,0-1.965,0-1.937,2,.006.45.124.584.576.573C767.321,453.267,768.6,453.286,769.876,453.286Z" transform="translate(-37.969 -5.416)" fill="#f1d4ae"/>
        <path id="Trazado_636044" data-name="Trazado 636044" d="M807.961,485.213a12.792,12.792,0,1,1,12.782-12.667A12.811,12.811,0,0,1,807.961,485.213Zm-.09-12.792h8.556c1.766,0,1.74,0,1.773-1.778.012-.608-.126-.8-.774-.8-5.97.028-11.941.016-17.911.016-1.81,0-1.785,0-1.814,1.818-.009.581.117.763.734.756C801.581,472.4,804.726,472.42,807.871,472.42Zm.04,6.4h7.2c1.811,0,1.772,0,1.819-1.818.018-.689-.252-.752-.819-.75-5.091.018-10.182.011-15.272.011-1.857,0-1.835,0-1.853,1.858-.005.546.116.721.693.714C802.42,478.8,805.166,478.817,807.911,478.817Zm0-12.793h4.638c1.81,0,1.785,0,1.813-1.819.009-.583-.119-.761-.735-.755-3.384.034-6.77.016-10.154.016-1.958,0-1.931,0-1.935,1.939,0,.576.224.633.7.627C804.127,466.011,806.019,466.024,807.912,466.024Z" transform="translate(-86.837 -48.857)" fill="#3f88f5"/>
        <path id="Trazado_636045" data-name="Trazado 636045" d="M832.205,572.35c0,2.052,0,4.1,0,6.156a2.57,2.57,0,1,1-5.115.013q-.006-6.156,0-12.312a2.566,2.566,0,1,1,5.114-.013C832.211,568.246,832.2,570.3,832.205,572.35Z" transform="translate(-108.532 -119.39)" fill="#c58c67"/>
        <path id="Trazado_636046" data-name="Trazado 636046" d="M735.4,402.265c0,1.4.027,2.874-.011,4.35a1.168,1.168,0,0,1-1.216,1.221c-1.477.04-2.957.012-4.35.012Z" transform="translate(-42.438 -9.876)" fill="#e0ac7d"/>
        <path id="Trazado_636047" data-name="Trazado 636047" d="M831.067,550.145c0-.856.018-1.621-.008-2.385-.013-.386.161-.417.477-.4a13.519,13.519,0,0,0,1.588,0c.361-.024.531.027.511.449-.035.738-.01,1.479-.01,2.289A4.967,4.967,0,0,0,831.067,550.145Z" transform="translate(-111.232 -108.469)" fill="#e7e7e8"/>
        <path id="Trazado_636048" data-name="Trazado 636048" d="M675.34,503.374v-5.451c0-4.5.021-9-.02-13.5-.007-.76.228-.908.927-.893,2.05.045,4.1.022,6.152.01.393,0,.629.016.627.534q-.026,9.586-.012,19.16c-.181.117-.251-.033-.346-.1a1.326,1.326,0,0,0-2.037.165c-.48.453-.865,1.272-1.443,1.284s-.965-.819-1.445-1.269C676.935,502.551,676.456,502.537,675.34,503.374Z" transform="translate(-5.401 -65.097)" fill="#cd6a70"/>
        <path id="Trazado_636049" data-name="Trazado 636049" d="M679.177,446.065c-1.065,0-2.132-.033-3.2.014-.547.024-.672-.166-.641-.668.041-.663,0-1.332.015-2a3.832,3.832,0,0,1,7.661-.057c.028.873.3,2-.127,2.551-.4.522-1.591.116-2.433.154C680.03,446.08,679.6,446.065,679.177,446.065Z" transform="translate(-5.412 -35.294)" fill="#e7e7e8"/>
        <path id="Trazado_636050" data-name="Trazado 636050" d="M679.247,467.594c1.064,0,2.129.018,3.192-.008.448-.011.584.134.6.587.061,1.979.076,1.978-1.912,1.978-1.7,0-3.405-.018-5.107.011-.518.009-.676-.144-.679-.67-.013-1.9-.033-1.9,1.834-1.9Z" transform="translate(-5.412 -54.264)" fill="#3f5e7a"/>
        <path id="Trazado_636051" data-name="Trazado 636051" d="M677.709,553.42c.114.1.239.189.349.3.379.374.744.763,1.131,1.13a1.31,1.31,0,0,0,2.093-.019c.366-.349.714-.718,1.076-1.072.2-.195.395-.518.7-.147.244.293.757.468.365,1.037-.983,1.424-1.93,2.873-2.883,4.317-.2.3-.336.46-.606.046-.96-1.472-1.943-2.929-2.919-4.39-.123-.185-.25-.371-.053-.57A1.982,1.982,0,0,1,677.709,553.42Z" transform="translate(-6.45 -112.592)" fill="#3e5c78"/>
        <path id="Trazado_636052" data-name="Trazado 636052" d="M758.219,442.188c-7.407,0-14.814-.008-22.221.014-.614,0-.8-.135-.786-.773.043-1.8.011-1.8,1.823-1.8q21.7,0,43.4-.017c.689,0,.893.14.868.856-.06,1.717-.018,1.719-1.746,1.719Z" transform="translate(-46.1 -35.255)"/>
        <path id="Trazado_636053" data-name="Trazado 636053" d="M802.122,410.251c-4.607,0-9.213-.013-13.82.015-.626,0-.795-.156-.781-.781.038-1.792.009-1.792,1.831-1.792q13.34,0,26.68-.017c.668,0,.837.16.819.823-.049,1.751-.015,1.752-1.788,1.752Z" transform="translate(-81.646 -13.553)"/>
        <path id="Trazado_636054" data-name="Trazado 636054" d="M802.213,426.222c-4.66,0-9.32-.01-13.979.013-.545,0-.718-.113-.711-.689.023-1.882,0-1.882,1.9-1.882q13.3,0,26.6-.016c.651,0,.849.131.829.812-.051,1.761-.015,1.762-1.779,1.762Z" transform="translate(-81.647 -24.406)"/>
        <path id="Trazado_636055" data-name="Trazado 636055" d="M748.012,551.414c4.022,0,8.045.013,12.066-.014.579,0,.764.11.751.728-.038,1.844-.006,1.844-1.858,1.844-7.645,0-15.29-.009-22.935.016-.647,0-.852-.125-.832-.81.053-1.763.015-1.764,1.779-1.764Z" transform="translate(-46.094 -111.219)"/>
        <path id="Trazado_636056" data-name="Trazado 636056" d="M748.106,567.379c4,0,7.991.014,11.987-.015.6,0,.75.145.738.741-.034,1.833-.006,1.833-1.867,1.833-7.645,0-15.29-.01-22.935.017-.667,0-.838-.157-.82-.822.049-1.752.014-1.753,1.789-1.753Z" transform="translate(-46.097 -122.067)"/>
        <path id="Trazado_636057" data-name="Trazado 636057" d="M744.827,458.159c-2.983,0-5.966-.014-8.948.013-.529,0-.655-.146-.653-.66.008-1.911-.011-1.911,1.866-1.911,5.539,0,11.079.011,16.618-.016.605,0,.746.152.735.743-.033,1.83-.006,1.831-1.868,1.831Z" transform="translate(-46.11 -46.109)"/>
        <path id="Trazado_636058" data-name="Trazado 636058" d="M744.823,535.45c2.983,0,5.966.012,8.948-.011.512,0,.666.118.664.65-.01,1.92.013,1.92-1.938,1.92-5.513,0-11.026-.01-16.538.014-.587,0-.758-.123-.746-.733.036-1.839.006-1.84,1.86-1.84Z" transform="translate(-46.1 -100.373)"/>
        <path id="Trazado_636059" data-name="Trazado 636059" d="M742.851,474.124c-2.317,0-4.633-.011-6.95.009-.474,0-.691-.054-.687-.626.012-1.941-.015-1.942,1.918-1.942,4.233,0,8.467.016,12.7-.017.653-.005.776.2.764.794-.034,1.781-.009,1.782-1.755,1.782Z" transform="translate(-46.101 -56.956)"/>
        <path id="Trazado_636060" data-name="Trazado 636060" d="M742.991,487.543c2.317,0,4.634.017,6.95-.013.523-.007.659.136.657.657-.009,1.914.012,1.914-1.862,1.914-4.261,0-8.521-.014-12.781.015-.6,0-.75-.142-.739-.739.035-1.834.006-1.835,1.865-1.835Z" transform="translate(-46.102 -67.817)"/>
        <path id="Trazado_636061" data-name="Trazado 636061" d="M742.836,506.066c-2.316,0-4.633-.015-6.949.012-.51.006-.668-.114-.665-.648.01-1.922-.013-1.922,1.936-1.922,4.234,0,8.467.012,12.7-.014.584,0,.76.119.748.731-.037,1.841-.006,1.842-1.859,1.842Z" transform="translate(-46.106 -78.665)"/>
        <path id="Trazado_636062" data-name="Trazado 636062" d="M742.915,522.035c-2.343,0-4.687-.015-7.029.012-.511.006-.667-.116-.664-.649.01-1.921-.012-1.921,1.936-1.921,4.234,0,8.468.013,12.7-.014.586,0,.759.121.746.732-.037,1.84-.006,1.841-1.859,1.841Z" transform="translate(-46.107 -89.516)"/>
        <path id="Trazado_636063" data-name="Trazado 636063" d="M859.5,547.428c1.3,0,2.608.02,3.911-.011.459-.011.565.135.571.578.026,1.991.041,1.991-1.942,1.991-2.129,0-4.258-.019-6.387.013-.53.008-.654-.148-.652-.661.008-1.911-.011-1.911,1.863-1.911Z" transform="translate(-127.5 -108.512)"/>
        <path id="Trazado_636064" data-name="Trazado 636064" d="M859.4,569.943c-1.277,0-2.555-.019-3.832.01-.452.01-.57-.123-.576-.573-.027-2-.043-2,1.938-2,2.129,0,4.258.018,6.387-.013.521-.007.66.134.657.655-.009,1.915.012,1.916-1.939,1.916Z" transform="translate(-127.489 -122.073)"/>
        <path id="Trazado_636065" data-name="Trazado 636065" d="M813.261,494.086c-3.145,0-6.291-.019-9.435.016-.617.007-.743-.175-.734-.756.029-1.818,0-1.818,1.814-1.818,5.97,0,11.941.011,17.911-.016.648,0,.785.188.774.8-.034,1.778-.008,1.778-1.773,1.778Z" transform="translate(-92.227 -70.523)"/>
        <path id="Trazado_636066" data-name="Trazado 636066" d="M816.017,514.059c-2.745,0-5.491-.018-8.236.014-.577.007-.7-.169-.693-.714.018-1.858,0-1.858,1.853-1.858,5.091,0,10.182.007,15.272-.011.567,0,.837.062.819.75-.047,1.817-.009,1.818-1.819,1.818Z" transform="translate(-94.942 -84.099)"/>
        <path id="Trazado_636067" data-name="Trazado 636067" d="M821.437,474.126c-1.892,0-3.785-.012-5.677.009-.473.005-.7-.051-.7-.628,0-1.939-.023-1.939,1.935-1.939,3.385,0,6.77.018,10.154-.016.616-.006.744.173.735.755-.029,1.819,0,1.819-1.813,1.819Z" transform="translate(-100.362 -56.959)"/>
      </g>
    </g>
    <g id="Grupo_963265" data-name="Grupo 963265" transform="translate(747.077 10186.988)">
      <circle id="Elipse_5210-3" data-name="Elipse 5210" cx="46" cy="46" r="46" transform="translate(6.923 0.122)" fill="#ef8b53"/>
      <g id="Grupo_964887" data-name="Grupo 964887" transform="translate(-236.054 -564.638)">
        <path id="Trazado_636000" data-name="Trazado 636000" d="M306.16,580.79h2.689c.2,1.022.623,1.364,1.7,1.365q8.6,0,17.208,0c1.465,0,1.881.41,1.881,1.851q0,22.057,0,44.114v.646l-.183.1c-.148-.2-.287-.4-.445-.586a24.915,24.915,0,0,0-10.1-7.292c-.484-.19-.558-.4-.351-.891a14.321,14.321,0,0,0,.919-8.288A14.943,14.943,0,1,0,296.434,626.8a3.458,3.458,0,0,1,1.688,3.2c-.067,1.613-.02,3.232-.014,4.848,0,1.088.4,1.537,1.457,1.675a1.487,1.487,0,0,1,1.4,1.414c.14,1.035.59,1.442,1.617,1.446q2.151.007,4.3,0c1.086,0,1.507-.37,1.68-1.456a1.482,1.482,0,0,1,1.41-1.405,1.407,1.407,0,0,0,1.442-1.618c.013-1.138,0-2.276,0-3.414.013-2.961-.4-3.281,2.608-5.4.361-.254.5-.321.723.142.668,1.416,1.393,2.8,2.082,4.21a4.432,4.432,0,0,0,.87,1.207c3.724,3.712,7.429,7.443,11.17,11.138a2.3,2.3,0,0,1,.779,1.888c-.062,1.551-.407,1.945-1.943,1.945H281.821c-.182,0-.365.007-.546,0a1.336,1.336,0,0,1-1.346-1.349c-.019-2.8,0-5.6-.017-8.4,0-.32.113-.38.4-.352a1.415,1.415,0,0,1,1.251,1.387,1.369,1.369,0,1,0,2.725-.208c0-.068,0-.137-.009-.2a4.069,4.069,0,0,0-3.766-3.679c-.545-.029-.606-.2-.6-.668.024-1.912.01-3.824.01-5.736,0-2.026.013-4.052-.01-6.077,0-.448.12-.559.541-.447a1.438,1.438,0,0,1,1.122,1.436,1.307,1.307,0,0,0,1.433,1.242,1.338,1.338,0,0,0,1.278-1.406,3.127,3.127,0,0,0-.053-.61,4.109,4.109,0,0,0-3.8-3.42c-.258-.029-.519.051-.517-.4q.027-6.077,0-12.155c0-.3.085-.391.388-.365a1.372,1.372,0,0,1,1.231,1.1c.028.132.015.273.037.407a1.364,1.364,0,0,0,2.719-.2,4.035,4.035,0,0,0-3.644-3.994c-.663-.034-.745-.273-.737-.837.03-2.048.012-4.1.012-6.146,0-1.844.019-3.688-.013-5.531-.008-.483.19-.544.554-.445a1.451,1.451,0,0,1,1.114,1.447,1.336,1.336,0,0,0,1.436,1.25,1.378,1.378,0,0,0,1.274-1.425,2.981,2.981,0,0,0-.028-.477,4.079,4.079,0,0,0-3.835-3.535c-.424-.023-.532-.128-.513-.539.035-.772.009-1.548.01-2.321,0-1.359.441-1.8,1.791-1.8q8.638,0,17.277,0c1.062,0,1.452-.317,1.708-1.365h2.69c.178.888.631,1.345,1.347,1.363C305.465,582.171,305.935,581.722,306.16,580.79Zm18.24,34.961c.408,0,.818.022,1.225,0a1.359,1.359,0,0,0-.039-2.716q-1.19-.037-2.382,0a1.353,1.353,0,0,0-1.347,1.342,1.366,1.366,0,0,0,1.318,1.374C323.582,615.773,323.992,615.751,324.4,615.751ZM293.044,627.5a1.292,1.292,0,0,0-.734-1.209,1.216,1.216,0,0,0-1.459.152c-.636.578-1.243,1.193-1.824,1.828a1.228,1.228,0,0,0-.155,1.458,1.31,1.31,0,0,0,1.207.75C290.923,630.5,293.041,628.354,293.044,627.5Zm-8.023-11.736v0c.364,0,.728.015,1.091,0a1.353,1.353,0,0,0,.113-2.7,16.2,16.2,0,0,0-2.384,0,1.355,1.355,0,0,0,.157,2.7C284.338,615.777,284.68,615.766,285.021,615.766Zm35.825-16.072a1.362,1.362,0,0,0-.739-1.214,1.225,1.225,0,0,0-1.457.142,20.834,20.834,0,0,0-1.632,1.629,1.232,1.232,0,0,0-.129,1.46,1.285,1.285,0,0,0,1.218.721C318.934,602.433,320.838,600.518,320.845,599.694Zm-28.057,1.317a1,1,0,0,0-.218-.683,11.621,11.621,0,0,0-1.784-1.765,1.316,1.316,0,0,0-1.729.219,1.294,1.294,0,0,0-.063,1.739,17.43,17.43,0,0,0,1.633,1.632,1.221,1.221,0,0,0,1.4.139A1.307,1.307,0,0,0,292.788,601.012Zm10.619-6.525c0,.318-.015.636,0,.952a1.354,1.354,0,0,0,1.288,1.328,1.332,1.332,0,0,0,1.412-1.195,12.754,12.754,0,0,0,0-2.173,1.3,1.3,0,0,0-1.442-1.147,1.321,1.321,0,0,0-1.251,1.282C303.392,593.85,303.409,594.169,303.408,594.486Z" transform="translate(-18.81 -3.637)" fill="#fdfdfd"/>
        <path id="Trazado_636001" data-name="Trazado 636001" d="M281.885,577.153c-.256,1.047-.646,1.364-1.708,1.365q-8.638,0-17.276,0c-1.351,0-1.79.444-1.791,1.8,0,.774.025,1.549-.01,2.321-.019.412.09.517.513.539a4.079,4.079,0,0,1,3.835,3.535,2.988,2.988,0,0,1,.028.477,1.378,1.378,0,0,1-1.274,1.425,1.336,1.336,0,0,1-1.436-1.25,1.451,1.451,0,0,0-1.114-1.447c-.364-.1-.562-.039-.554.445.032,1.843.013,3.687.013,5.531,0,2.049.018,4.1-.012,6.146-.008.564.074.8.737.837a4.035,4.035,0,0,1,3.644,3.994,1.364,1.364,0,0,1-2.719.2c-.021-.134-.009-.275-.037-.407a1.372,1.372,0,0,0-1.231-1.1c-.3-.025-.388.063-.388.365q.013,6.078,0,12.155c0,.449.259.369.517.4a4.109,4.109,0,0,1,3.8,3.421,3.129,3.129,0,0,1,.053.61,1.338,1.338,0,0,1-1.278,1.406,1.307,1.307,0,0,1-1.433-1.242,1.438,1.438,0,0,0-1.122-1.436c-.421-.112-.546,0-.541.447.023,2.026.01,4.052.01,6.077,0,1.912.014,3.824-.01,5.736-.006.463.054.639.6.668a4.069,4.069,0,0,1,3.766,3.679c.006.068.008.136.009.2a1.369,1.369,0,1,1-2.725.208,1.415,1.415,0,0,0-1.251-1.387c-.283-.027-.4.032-.4.352.013,2.8,0,5.6.017,8.4a1.336,1.336,0,0,0,1.346,1.349c.181.011.364,0,.546,0H308.9c1.537,0,1.881-.394,1.943-1.945a2.3,2.3,0,0,0-.779-1.888c-3.742-3.694-7.446-7.425-11.17-11.138a4.433,4.433,0,0,1-.87-1.207c-.689-1.406-1.414-2.795-2.082-4.21-.219-.463-.362-.4-.723-.142-3.007,2.116-2.594,2.436-2.608,5.4,0,1.138.009,2.276,0,3.414a1.407,1.407,0,0,1-1.442,1.618,1.482,1.482,0,0,0-1.41,1.405c-.173,1.086-.594,1.454-1.68,1.456q-2.151,0-4.3,0c-1.027,0-1.477-.411-1.617-1.446a1.486,1.486,0,0,0-1.4-1.414c-1.055-.138-1.453-.587-1.457-1.675-.006-1.616-.053-3.234.014-4.848a3.458,3.458,0,0,0-1.688-3.2,14.936,14.936,0,1,1,23.044-14.989,14.32,14.32,0,0,1-.919,8.288c-.207.49-.132.7.351.891a24.915,24.915,0,0,1,10.1,7.292c.158.188.3.391.445.586l.183-.1v-.646q0-22.057,0-44.114c0-1.441-.417-1.851-1.881-1.851q-8.6,0-17.208,0c-1.073,0-1.491-.343-1.7-1.365a1.411,1.411,0,0,1,1.625-1.365q8.842,0,17.684,0a4.089,4.089,0,0,1,4.208,4.232c.007.91.015,1.821-.006,2.731-.008.33.092.427.42.417.773-.022,1.548-.018,2.321,0A3.844,3.844,0,0,1,320.106,587c.024,2.708.006,5.417.006,8.125a3.611,3.611,0,0,1-.643,2.118.565.565,0,0,0-.014.775,3.723,3.723,0,0,1,.66,2.249c-.007,2.572-.012,5.143,0,7.715a4.01,4.01,0,0,1-.7,2.446.476.476,0,0,0,.01.657,3.957,3.957,0,0,1,.685,2.38c-.012,2.572,0,5.144-.006,7.715a3.872,3.872,0,0,1-4.024,4.047c-.706,0-1.411.017-2.116-.006-.325-.01-.468.084-.415.416a.438.438,0,0,1,0,.136,3.931,3.931,0,0,0,1.5,3.779c2.57,2.378,5.022,4.891,7.447,7.42a5.14,5.14,0,0,1-1.882,8.378,4.945,4.945,0,0,1-5.334-.983c-.613-.538-1.141-1.172-1.781-1.839l-.226.559a4.094,4.094,0,0,1-3.938,2.626q-7.443.009-14.885,0H262.914c-2.867,0-4.536-1.664-4.537-4.521,0-.8-.011-1.593.005-2.389.007-.32-.039-.457-.426-.482a4.085,4.085,0,0,1-.026-8.164c.34-.022.46-.086.456-.453q-.027-3.277,0-6.554c0-.392-.126-.478-.5-.5a4.067,4.067,0,0,1-.229-8.11c.629-.069.74-.276.729-.848q-.054-2.9,0-5.8c.012-.61-.077-.865-.789-.94a4,4,0,0,1-3.588-3.761,4.1,4.1,0,0,1,3.127-4.245c.066-.017.131-.036.2-.052.327-.08.814.105.959-.153a2.511,2.511,0,0,0,.077-1.13c0-1.889-.005-3.778.008-5.667,0-.381-.009-.582-.514-.608a4.08,4.08,0,0,1,.011-8.15c.438-.024.518-.151.506-.547-.028-.932-.022-1.866-.005-2.8a4.062,4.062,0,0,1,4.047-4.042c5.963-.02,11.926-.01,17.888-.005C281.244,575.789,281.644,576.151,281.885,577.153ZM285.9,624c1.275,0,2.55,0,3.824,0,.286,0,.5-.011.641-.344a6.392,6.392,0,0,1,2.486-2.826c.437-.285.823-.645,1.242-.959a.463.463,0,0,0,.131-.69c-.445-.843-.856-1.7-1.286-2.556a1.383,1.383,0,0,1,1.926-1.9c.593.287,1.189.57,1.763.893.339.19.493.141.637-.226a12.236,12.236,0,0,0-13.493-16.648,12.226,12.226,0,0,0-9.972,11.062,11.967,11.967,0,0,0,5.339,11.069,6.679,6.679,0,0,1,2.387,2.74c.154.351.369.388.687.385C283.44,623.989,284.67,624,285.9,624Zm31.723,11.959c-.084-.094-.155-.182-.235-.262q-6.082-6.086-12.16-12.175c-.256-.257-.407-.238-.65.01-.937.962-1.883,1.916-2.848,2.849-.281.272-.2.418.032.648q6.067,6.052,12.118,12.12c.21.211.34.277.585.025.966-1,1.956-1.969,2.936-2.953C317.48,636.137,317.547,636.045,317.622,635.955Zm-31.638-9.227c-1.137,0-2.273.013-3.41-.007-.385-.007-.576.051-.557.509.038.908.022,1.818,0,2.727a.511.511,0,0,0,.347.57,3.9,3.9,0,0,1,2.16,2.158c.194.47.555.369.842.316.663-.122,1.484.418,1.979-.333.377-.572.649-1.321,1.271-1.555,1.4-.526,1.349-1.584,1.265-2.73a7.988,7.988,0,0,1,0-1.159c.028-.382-.1-.512-.494-.5C288.258,626.743,287.121,626.727,285.984,626.727Zm27.574-35.688c0,1.59.008,3.179-.007,4.769,0,.333.054.491.439.475.725-.031,1.453.005,2.18-.013a1.121,1.121,0,0,0,1.2-1.19q.022-3.985,0-7.971a1.133,1.133,0,0,0-1.252-1.211c-.681-.014-1.364.022-2.043-.012-.414-.021-.541.091-.533.522C313.575,587.951,313.557,589.5,313.558,591.039Zm0,13.133c0,1.567.017,3.134-.011,4.7-.008.429.116.544.532.523.679-.035,1.362,0,2.043-.013a1.136,1.136,0,0,0,1.253-1.212q.021-3.985,0-7.97a1.12,1.12,0,0,0-1.2-1.19c-.681-.018-1.365.031-2.043-.016-.505-.035-.588.16-.58.613C313.575,601.129,313.557,602.651,313.557,604.172Zm0,13.139c0,1.525.015,3.049-.01,4.573-.007.443.057.662.575.625.656-.048,1.319,0,1.979-.014a1.147,1.147,0,0,0,1.275-1.266q.016-3.925,0-7.85a1.147,1.147,0,0,0-1.281-1.258c-.66-.012-1.321.024-1.979-.012-.443-.024-.578.108-.569.561C313.575,614.217,313.558,615.764,313.558,617.312Zm7.651,23.247a3.2,3.2,0,0,0-1.3-2.364c-.262-.263-.405-.236-.644.013-.707.735-1.438,1.448-2.159,2.169-1.1,1.1-1.1,1.228.209,2.141a2.336,2.336,0,0,0,2.567.182A2.412,2.412,0,0,0,321.208,640.559ZM297.232,619.11c.809,1.616,1.626,3.228,2.419,4.852.171.349.284.382.559.094q1.012-1.062,2.076-2.075c.307-.291.213-.4-.112-.555-1.467-.718-2.924-1.458-4.387-2.184C297.61,619.154,297.436,619.01,297.232,619.11Zm-38.853-16.18a6.767,6.767,0,0,1,.007-.885c.064-.48-.171-.527-.551-.455a1.355,1.355,0,0,0-.19,2.609c.63.226.73.156.734-.519C258.38,603.43,258.379,603.181,258.379,602.931Zm0,15.627c0-.341-.011-.682,0-1.022.012-.268-.083-.352-.355-.327a1.425,1.425,0,0,0-1.28,1.216,1.367,1.367,0,0,0,.906,1.441c.419.128.828.2.732-.492A6.017,6.017,0,0,1,258.379,618.558Zm0-31.275a8.467,8.467,0,0,1,.007-.947c.049-.429-.153-.508-.505-.425a1.359,1.359,0,0,0-1.13,1.19,1.334,1.334,0,0,0,.893,1.432c.618.234.732.156.735-.505C258.38,587.779,258.379,587.531,258.379,587.283Zm0,46.959a6.771,6.771,0,0,1,.007-.879c.07-.536-.222-.557-.6-.445a1.318,1.318,0,0,0-1.041,1.262,1.3,1.3,0,0,0,.92,1.348c.453.174.792.179.716-.474A7.04,7.04,0,0,1,258.379,634.242Z" fill="#010101"/>
        <path id="Trazado_636002" data-name="Trazado 636002" d="M368.465,577.169c-.225.932-.7,1.381-1.427,1.363-.717-.018-1.169-.475-1.347-1.363.175-.89.626-1.346,1.347-1.364C367.773,575.787,368.239,576.232,368.465,577.169Z" transform="translate(-81.115 -0.016)" fill="#070707"/>
        <path id="Trazado_636003" data-name="Trazado 636003" d="M435.719,701.253c-.408,0-.818.022-1.225,0a1.358,1.358,0,0,1,.029-2.716q1.19-.038,2.382,0a1.359,1.359,0,0,1,.039,2.716C436.537,701.275,436.127,701.253,435.719,701.253Z" transform="translate(-130.129 -89.139)" fill="#030302"/>
        <path id="Trazado_636004" data-name="Trazado 636004" d="M316.389,747.788c0,.852-2.121,3-2.965,2.979a1.31,1.31,0,0,1-1.207-.75,1.228,1.228,0,0,1,.155-1.458c.581-.635,1.188-1.249,1.824-1.828a1.216,1.216,0,0,1,1.459-.152A1.292,1.292,0,0,1,316.389,747.788Z" transform="translate(-42.155 -123.923)" fill="#040404"/>
        <path id="Trazado_636005" data-name="Trazado 636005" d="M292.248,701.284c-.341,0-.683.011-1.023,0a1.355,1.355,0,0,1-.157-2.7,16.2,16.2,0,0,1,2.384,0,1.353,1.353,0,0,1-.112,2.7c-.363.019-.728,0-1.091,0Z" transform="translate(-26.037 -89.155)" fill="#040404"/>
        <path id="Trazado_636006" data-name="Trazado 636006" d="M418.507,646.177c-.008.824-1.911,2.739-2.74,2.738a1.285,1.285,0,0,1-1.218-.721,1.232,1.232,0,0,1,.129-1.46,20.834,20.834,0,0,1,1.632-1.629,1.225,1.225,0,0,1,1.457-.142A1.362,1.362,0,0,1,418.507,646.177Z" transform="translate(-116.471 -50.12)" fill="#070707"/>
        <path id="Trazado_636007" data-name="Trazado 636007" d="M316.089,647.559a1.307,1.307,0,0,1-.757,1.28,1.221,1.221,0,0,1-1.4-.138,17.437,17.437,0,0,1-1.633-1.632,1.3,1.3,0,0,1,.064-1.739,1.316,1.316,0,0,1,1.729-.219,11.617,11.617,0,0,1,1.784,1.765A1,1,0,0,1,316.089,647.559Z" transform="translate(-42.111 -50.185)" fill="#040404"/>
        <path id="Trazado_636008" data-name="Trazado 636008" d="M365.756,624.893c0-.318-.017-.636,0-.952a1.321,1.321,0,0,1,1.251-1.282,1.3,1.3,0,0,1,1.442,1.147,12.748,12.748,0,0,1,0,2.173,1.332,1.332,0,0,1-1.412,1.195,1.354,1.354,0,0,1-1.287-1.328C365.741,625.528,365.756,625.21,365.756,624.893Z" transform="translate(-81.158 -34.043)" fill="#040404"/>
        <path id="Trazado_636009" data-name="Trazado 636009" d="M338.347,684.448c-1.229,0-2.459-.007-3.688,0-.318,0-.533-.034-.687-.385a6.68,6.68,0,0,0-2.387-2.74,11.967,11.967,0,0,1-5.339-11.069,12.2,12.2,0,0,1,24.107-1.513,12.093,12.093,0,0,1-.642,7.1c-.144.368-.3.416-.637.226-.574-.322-1.17-.605-1.763-.893a1.383,1.383,0,0,0-1.926,1.9c.43.851.841,1.713,1.286,2.556a.463.463,0,0,1-.131.69c-.418.313-.8.674-1.242.959a6.391,6.391,0,0,0-2.486,2.826c-.144.333-.356.346-.641.344C340.9,684.444,339.622,684.448,338.347,684.448Zm2.6-18.9h-.005c0-.751.012-1.5,0-2.252a1.366,1.366,0,0,0-2.552-.7c-2.04,3.253-4.09,6.5-6.108,9.766a1.351,1.351,0,0,0,1.233,2.127c.568.013,1.14.035,1.706-.008.465-.035.572.136.564.573-.025,1.365-.011,2.73-.006,4.1a1.276,1.276,0,0,0,.954,1.336,1.316,1.316,0,0,0,1.553-.56c2.163-3.147,4.335-6.288,6.478-9.449a1.347,1.347,0,0,0-1.174-2.192c-.682-.021-1.367-.034-2.047.006-.495.029-.624-.158-.6-.623C340.973,666.956,340.947,666.249,340.947,665.544Z" transform="translate(-52.448 -60.452)" fill="#f4ca86"/>
        <path id="Trazado_636010" data-name="Trazado 636010" d="M443.783,762.133c-.076.09-.142.182-.221.261-.98.983-1.97,1.956-2.936,2.953-.245.252-.375.186-.585-.025q-6.052-6.067-12.118-12.12c-.23-.23-.314-.376-.032-.648.966-.933,1.912-1.886,2.848-2.849.242-.249.394-.267.65-.01q6.072,6.1,12.16,12.175C443.628,761.951,443.7,762.04,443.783,762.133Z" transform="translate(-126.161 -126.179)" fill="#59c7eb"/>
        <path id="Trazado_636011" data-name="Trazado 636011" d="M360.306,761.89c1.137,0,2.274.016,3.41-.009.394-.008.521.122.494.5a7.984,7.984,0,0,0,0,1.159c.084,1.146.131,2.2-1.265,2.73-.622.235-.894.983-1.271,1.555-.495.751-1.316.211-1.979.333-.287.053-.648.154-.842-.316a3.9,3.9,0,0,0-2.16-2.158.51.51,0,0,1-.346-.57c.018-.909.033-1.819,0-2.727-.019-.458.172-.516.557-.509C358.033,761.9,359.17,761.89,360.306,761.89Z" transform="translate(-74.322 -135.162)" fill="#acace4"/>
        <path id="Trazado_636012" data-name="Trazado 636012" d="M471.548,617.842c0-1.544.017-3.089-.011-4.632-.008-.431.119-.543.533-.522.68.034,1.362,0,2.043.012a1.133,1.133,0,0,1,1.252,1.211q.02,3.985,0,7.971a1.121,1.121,0,0,1-1.2,1.19c-.726.019-1.454-.017-2.18.013-.385.016-.442-.142-.439-.475C471.556,621.021,471.548,619.431,471.548,617.842Z" transform="translate(-157.991 -26.802)" fill="#cfe16d"/>
        <path id="Trazado_636013" data-name="Trazado 636013" d="M471.549,665.758c0-1.522.017-3.043-.01-4.564-.008-.453.075-.648.58-.613.678.047,1.362,0,2.043.016a1.12,1.12,0,0,1,1.2,1.19q.022,3.985,0,7.97a1.136,1.136,0,0,1-1.253,1.212c-.681.014-1.364-.022-2.043.013-.416.021-.54-.094-.532-.523C471.565,668.892,471.549,667.324,471.549,665.758Z" transform="translate(-157.991 -61.585)" fill="#5ac8ed"/>
        <path id="Trazado_636014" data-name="Trazado 636014" d="M471.549,713.7c0-1.547.017-3.095-.011-4.641-.008-.453.126-.585.569-.561.658.036,1.319,0,1.979.012a1.147,1.147,0,0,1,1.281,1.258q.017,3.925,0,7.85a1.147,1.147,0,0,1-1.275,1.266c-.66.013-1.322-.034-1.979.014-.518.038-.582-.182-.575-.625C471.564,716.75,471.549,715.225,471.549,713.7Z" transform="translate(-157.991 -96.389)" fill="#c87aa4"/>
        <path id="Trazado_636015" data-name="Trazado 636015" d="M486.524,805.682a2.412,2.412,0,0,1-1.326,2.141,2.335,2.335,0,0,1-2.567-.182c-1.3-.913-1.31-1.039-.209-2.141.721-.721,1.452-1.434,2.159-2.169.239-.249.383-.276.644-.013A3.2,3.2,0,0,1,486.524,805.682Z" transform="translate(-165.316 -165.123)" fill="#c478a1"/>
        <path id="Trazado_636016" data-name="Trazado 636016" d="M411.93,733.994c.2-.1.378.043.555.131,1.463.727,2.92,1.467,4.387,2.184.325.159.419.264.112.555q-1.063,1.011-2.076,2.075c-.275.289-.388.256-.559-.094C413.556,737.222,412.739,735.61,411.93,733.994Z" transform="translate(-114.698 -114.884)" fill="#fbfbfb"/>
        <path id="Trazado_636017" data-name="Trazado 636017" d="M356.362,673.172c0,.706.026,1.412-.009,2.116-.023.465.105.652.6.623.68-.04,1.365-.027,2.047-.006a1.347,1.347,0,0,1,1.174,2.192c-2.143,3.161-4.314,6.3-6.477,9.449a1.316,1.316,0,0,1-1.553.56,1.276,1.276,0,0,1-.954-1.336c-.005-1.365-.019-2.731.006-4.1.008-.437-.1-.608-.564-.573-.565.043-1.137.021-1.706.008a1.351,1.351,0,0,1-1.233-2.127c2.018-3.266,4.068-6.513,6.108-9.766a1.366,1.366,0,0,1,2.552.7c.015.75,0,1.5,0,2.252Zm.1,5.52c-.858-.181-1.746.191-2.416-.461-.692-.674-.285-1.587-.485-2.493l-2.254,3.6c.847.125,1.716-.2,2.3.565.534.7.176,1.545.379,2.393Z" transform="translate(-67.863 -68.08)" fill="#030302"/>
        <path id="Trazado_636018" data-name="Trazado 636018" d="M366.713,695.194l-2.474,3.607c-.2-.848.155-1.7-.379-2.393-.585-.764-1.454-.44-2.3-.565l2.254-3.6c.2.907-.207,1.82.485,2.493C364.967,695.386,365.855,695.014,366.713,695.194Z" transform="translate(-78.113 -84.583)" fill="#f6f6f6"/>
      </g>
    </g>
    <g id="Grupo_963266" data-name="Grupo 963266" transform="translate(993.077 10186.988)">
      <circle id="Elipse_5210-4" data-name="Elipse 5210" cx="46" cy="46" r="46" transform="translate(6.923 0.122)" fill="#ef8b53"/>
      <g id="Grupo_964888" data-name="Grupo 964888" transform="translate(-636.137 -700.296)">
        <path id="Trazado_636019" data-name="Trazado 636019" d="M721.323,727.759c.914,0,1.763-.01,2.613,0a1.186,1.186,0,0,1,1.324,1.294c.006.17,0,.34,0,.511V780.84c0,1.482-.3,1.774-1.8,1.774q-30.535,0-61.07,0a9.3,9.3,0,0,1-9.3-7.318,8.914,8.914,0,0,1-.227-2.023q0-21.917,0-43.834a9.794,9.794,0,0,1,2.179-6.34c.32-.4.266-.585-.066-.928a6.932,6.932,0,0,1,9.5-10.1c1.217,1.117,2.356,2.32,3.526,3.488q5.884,5.877,11.758,11.764a1.366,1.366,0,0,0,1.074.448q6.311-.026,12.623,0c.506,0,.732.015.6-.669a14,14,0,1,1,27.585-4.638A15.1,15.1,0,0,1,721.323,727.759Zm-63.517-6.112c.2.213.4.417.583.641.22.271.391.257.639.006q2.945-2.97,5.917-5.915c.229-.227.217-.373-.007-.588-.735-.705-1.42-1.465-2.186-2.133a4.412,4.412,0,0,0-5.077-.495,4.555,4.555,0,0,0-2.407,4.823A6.54,6.54,0,0,0,657.807,721.647Zm13.746,17.069v1.021q0,16.445,0,32.891a7.039,7.039,0,0,1-.01.729,1.162,1.162,0,0,1-2.312.064,2.931,2.931,0,0,1-.022-.437,7.016,7.016,0,0,0-7.142-6.708,7.148,7.148,0,0,0-6.856,7.118,7.024,7.024,0,0,0,7.268,6.882q29.84.005,59.679.018c.64,0,.785-.147.784-.784q-.031-23.738-.016-47.477c0-2.065,0-2.057-2.077-1.949a.545.545,0,0,0-.548.357,16.642,16.642,0,0,1-1.845,2.874,13.281,13.281,0,0,0-2.114,4.44,24.214,24.214,0,0,0-.421,6.232,3.486,3.486,0,0,1-3,3.568c-.373.063-.491.148-.543.544a4.662,4.662,0,0,1-9.275-.032c-.047-.364-.147-.447-.5-.506a3.48,3.48,0,0,1-3.034-3.607q-.009-1.313,0-2.625a13.345,13.345,0,0,0-2.821-8.395,11.624,11.624,0,0,1-1.437-2.272.853.853,0,0,0-.925-.584c-3.7.026-7.393.013-11.089.019-.2,0-.427-.087-.651.1,1.144,1.141,2.269,2.276,3.411,3.394a2.752,2.752,0,0,1,.743,1.223q1.625,5.471,3.283,10.933a1.247,1.247,0,0,1-1.69,1.7q-5.43-1.644-10.869-3.257a3.008,3.008,0,0,1-1.346-.814C674.7,741.864,673.186,740.361,671.553,738.716Zm-2.409,28.278a.964.964,0,0,0,.069-.2q0-14.983.012-29.966a.981.981,0,0,0-.341-.753q-5.706-5.69-11.393-11.4c-.384-.387-.554-.276-.808.082a8.124,8.124,0,0,0-1.482,4.855q.018,18.337.011,36.673c0,.226-.085.473.073.694A9.4,9.4,0,0,1,669.144,766.994Zm42.106-29.9v1.75c0,1.956,0,1.947,1.98,1.762.289-.027.355-.12.371-.388a16.489,16.489,0,0,1,3.579-9.143,10.775,10.775,0,0,0,2.114-8.389,11.667,11.667,0,0,0-19.875-6.616A11.587,11.587,0,0,0,698.6,731.5a15.931,15.931,0,0,1,3.156,7.419c.081.544-.032,1.305.282,1.576s1.063.061,1.615.111c.48.044.609-.12.6-.6-.029-1.726-.011-3.452-.011-5.178,0-1.206,0-1.206-1.183-1.236a3.5,3.5,0,1,1,3.517-3.509c.029,1.176.029,1.176,1.17,1.176s1.127,0,1.169-1.252a3.5,3.5,0,1,1,5.836,2.685,3.709,3.709,0,0,1-2.908.894c-.468-.035-.629.1-.608.59C711.278,735.149,711.25,736.122,711.25,737.095Zm-28.561-3.553c-4.047-4.045-8.018-8.007-11.976-11.983-.3-.3-.457-.2-.694.045-.519.546-1.036,1.1-1.6,1.591-.418.363-.389.577,0,.962q5.437,5.387,10.84,10.809c.125.124.208.339.449.3C679.778,733.781,679.778,733.781,682.689,733.542Zm-4.641,3.525c-3.891-3.889-7.686-7.678-11.473-11.475-.25-.251-.394-.157-.589.044-.525.54-1.034,1.1-1.6,1.591-.465.4-.432.638,0,1.065q5.673,5.615,11.3,11.275c.144.143.3.276.539.5v-1.215C676.223,737.433,676.5,737.142,678.048,737.068Zm29.7,5.865c-1.748,0-3.5-.006-5.244.008-.2,0-.485-.151-.594.22a1.508,1.508,0,0,0,1.535,2.1q4.225,0,8.449,0c1.364,0,1.689-.358,1.7-1.734,0-.47-.118-.618-.6-.61C711.246,742.95,709.5,742.932,707.75,742.932Zm-27.837-3.5a5.087,5.087,0,0,1-.729-.006c-.512-.075-.685.112-.636.629a10.36,10.36,0,0,1,0,1.53.505.505,0,0,0,.433.618c.728.186,1.452.393,2.161.638a.573.573,0,0,0,.7-.17c1.141-1.161,2.3-2.307,3.448-3.46.132-.132.324-.242.249-.482a8.634,8.634,0,0,0-.914-2.652c-.359-.472-1.368-.093-2.083-.146-.024,0-.049,0-.073,0-.313-.046-.429.077-.415.4.024.558.011,1.118.005,1.676-.011,1-.422,1.409-1.418,1.423C680.4,739.433,680.155,739.431,679.912,739.431Zm-11.278-19.779c0-.218-.144-.293-.241-.393-.339-.348-.713-.666-1.022-1.038-.34-.409-.568-.431-.965-.021-1.519,1.572-3.089,3.1-4.624,4.653-.454.461-1.307.894-1.233,1.416.077.545.856.983,1.306,1.487.247.276.418.3.7.019,1.93-1.952,3.877-3.888,5.818-5.83C668.472,719.843,668.562,719.732,668.634,719.651Zm37.945,17.37v1.819c0,1.81,0,1.8,1.82,1.768.41-.006.53-.115.524-.526-.023-1.576-.009-3.153-.009-4.73,0-1.86,0-1.849-1.893-1.767-.346.015-.456.1-.449.452C706.593,735.032,706.58,736.026,706.579,737.021ZM707.8,747.6c-.654,0-1.308.017-1.96-.007-.368-.013-.457.108-.389.46a2.346,2.346,0,0,0,4.593.026c.089-.407-.047-.5-.429-.486C709.007,747.62,708.4,747.6,707.8,747.6Zm-3.552-17.023c0-1.1-.424-1.662-1.187-1.649a1.183,1.183,0,0,0-1.144,1.181c.013.76.562,1.117,1.615,1.164C704.138,731.3,704.389,731.124,704.244,730.578Zm7.686.683c1.1,0,1.662-.422,1.649-1.185a1.185,1.185,0,0,0-1.179-1.147c-.759.011-1.118.563-1.164,1.614C711.21,731.147,711.378,731.408,711.931,731.261Zm-24.61,13.431c-.3-1.006-.564-1.883-.82-2.763-.1-.341-.243-.376-.491-.123-.51.521-1.025,1.039-1.549,1.546-.286.277-.242.409.14.517C685.465,744.114,686.319,744.387,687.32,744.692Z" fill="#020201"/>
        <path id="Trazado_636020" data-name="Trazado 636020" d="M677.245,786.7c1.633,1.644,3.143,3.147,4.631,4.671a3.008,3.008,0,0,0,1.345.814q5.439,1.611,10.869,3.257a1.247,1.247,0,0,0,1.69-1.7q-1.655-5.463-3.283-10.933a2.751,2.751,0,0,0-.743-1.223c-1.142-1.118-2.267-2.254-3.411-3.394.225-.192.45-.1.651-.1,3.7-.007,7.393.007,11.089-.019a.853.853,0,0,1,.925.584,11.621,11.621,0,0,0,1.437,2.272,13.345,13.345,0,0,1,2.821,8.395q-.007,1.313,0,2.625a3.48,3.48,0,0,0,3.034,3.607c.351.059.451.142.5.506a4.662,4.662,0,0,0,9.274.032c.052-.4.17-.482.543-.544a3.487,3.487,0,0,0,3-3.568,24.214,24.214,0,0,1,.421-6.232,13.281,13.281,0,0,1,2.114-4.44,16.643,16.643,0,0,0,1.844-2.874.545.545,0,0,1,.548-.357c2.077-.107,2.077-.115,2.077,1.95q0,23.738.016,47.477c0,.638-.144.785-.784.784q-29.84-.029-59.679-.018a7.024,7.024,0,0,1-7.268-6.882,7.148,7.148,0,0,1,6.856-7.118,7.016,7.016,0,0,1,7.142,6.708,2.923,2.923,0,0,0,.022.437,1.162,1.162,0,0,0,2.312-.064,7.039,7.039,0,0,0,.01-.729q0-16.445,0-32.891Zm28.233,17.776a1.15,1.15,0,0,0-.322-.788c-1.1-1.1-2.187-2.213-3.3-3.295a1.134,1.134,0,0,0-1.689.019,9.68,9.68,0,0,0-.875.877c-.216.253-.4.2-.686.121-1.173-.311-1.753-.917-1.537-2.234.124-.757-.422-1.241-1.183-1.252q-2.3-.031-4.595,0a1.138,1.138,0,0,0-1.194,1.195c-.02.436-.016.875,0,1.312a.43.43,0,0,1-.315.476c-1.49.665-1.486.675-2.656-.406a1.227,1.227,0,0,0-1.914.008c-.818.8-1.621,1.611-2.428,2.419-1.486,1.487-1.5,1.653.015,3.135.346.339.317.574.208,1.038a1.548,1.548,0,0,1-2.073,1.321.621.621,0,0,0-.146,0,1.147,1.147,0,0,0-1.2,1.2q-.032,2.3,0,4.593a1.151,1.151,0,0,0,1.256,1.209c.413.014.826,0,1.24,0,.187,0,.333-.011.459.228.768,1.459.769,1.534-.365,2.729a1.215,1.215,0,0,0,.027,1.955c.767.78,1.545,1.549,2.318,2.322,1.581,1.58,1.682,1.581,3.249.032.069-.068.141-.134.205-.207a.381.381,0,0,1,.5-.092c1.55.594,1.554.584,1.61,2.232,0,.048,0,.1,0,.146a1.138,1.138,0,0,0,1.17,1.148q2.333.035,4.668,0a1.127,1.127,0,0,0,1.158-1.157,11.967,11.967,0,0,0,0-1.312c-.016-.285.1-.394.346-.532,1.023-.578,1.943-.737,2.656.447a.448.448,0,0,0,.106.1,1.166,1.166,0,0,0,1.644,0q1.679-1.62,3.3-3.3a1.116,1.116,0,0,0,0-1.634c-.289-.327-.612-.625-.921-.935-.154-.155-.265-.262-.156-.549.591-1.561.575-1.567,2.226-1.62a1.186,1.186,0,0,0,1.311-1.308c.015-1.142,0-2.285,0-3.427,0-2.149-.109-2.256-2.25-2.271-.211,0-.522.11-.618-.073a7.1,7.1,0,0,1-.723-1.737c-.073-.336.425-.543.663-.808C705.028,805.413,705.5,805.1,705.479,804.481Zm7.606,19.119v-.008c1.995,0,3.99.037,5.983-.008a7.583,7.583,0,0,0-.339-15.158A4.116,4.116,0,0,1,714.6,804.3c-.013-.551.245-1.328-.108-1.594-.377-.284-1.111-.1-1.688-.112-.073,0-.147.007-.219,0-.268-.032-.33.108-.32.345a16.83,16.83,0,0,0,.077,2.4,6.405,6.405,0,0,0,6.358,5.427,5.249,5.249,0,1,1-.086,10.5c-3.478.02-6.957.005-10.435.005-1.773,0-1.752,0-1.763,1.757,0,.491.146.594.608.589C709.047,823.586,711.065,823.6,713.085,823.6Z" transform="translate(-5.693 -47.989)" fill="#e1e5f3"/>
        <path id="Trazado_636021" data-name="Trazado 636021" d="M674.786,801.4a9.4,9.4,0,0,0-13.859-.013c-.158-.221-.073-.468-.073-.694q-.008-18.336-.011-36.673a8.124,8.124,0,0,1,1.482-4.855c.254-.358.423-.469.808-.082q5.675,5.72,11.393,11.4a.981.981,0,0,1,.341.753q-.016,14.983-.012,29.966A.96.96,0,0,1,674.786,801.4Z" transform="translate(-5.642 -34.401)" fill="#c8cce9"/>
        <path id="Trazado_636022" data-name="Trazado 636022" d="M815.8,742.637c0-.973.029-1.946-.012-2.917-.021-.491.14-.625.608-.59a3.709,3.709,0,0,0,2.908-.894,3.5,3.5,0,1,0-5.836-2.685c-.042,1.252-.042,1.252-1.169,1.252s-1.141,0-1.17-1.176a3.5,3.5,0,1,0-3.517,3.509c1.183.03,1.183.03,1.183,1.236,0,1.726-.018,3.453.011,5.178.008.477-.121.641-.6.6-.552-.05-1.29.17-1.615-.111s-.2-1.032-.282-1.576a15.93,15.93,0,0,0-3.156-7.419,11.588,11.588,0,0,1,.818-15.428,11.667,11.667,0,0,1,19.875,6.616,10.775,10.775,0,0,1-2.114,8.389,16.49,16.49,0,0,0-3.579,9.143c-.016.268-.082.361-.371.388-1.981.185-1.98.194-1.98-1.761Zm4.65-12.836c1.281,0,1.281,0,1.093-1.223a9.287,9.287,0,0,0-8.122-8.041c-1.124-.171-1.124-.171-1.124.923,0,.268.02.537,0,.8-.035.378.057.527.492.565a6.942,6.942,0,0,1,6.427,5.938C819.393,729.8,819.393,729.8,820.449,729.8Z" transform="translate(-104.55 -5.542)" fill="#f0d076"/>
        <path id="Trazado_636023" data-name="Trazado 636023" d="M719.61,760.534c-2.911.238-2.911.238-2.986,1.729-.241.035-.324-.18-.449-.3q-5.42-5.4-10.84-10.809c-.388-.385-.417-.6,0-.962.567-.494,1.084-1.045,1.6-1.591.237-.25.4-.345.694-.045C711.593,752.527,715.564,756.489,719.61,760.534Z" transform="translate(-36.922 -26.992)" fill="#e5ae56"/>
        <path id="Trazado_636024" data-name="Trazado 636024" d="M705.125,773.907c-1.552.074-1.825.365-1.826,1.783v1.215c-.242-.223-.4-.356-.539-.5q-5.647-5.641-11.3-11.275c-.431-.427-.464-.666,0-1.065.57-.489,1.079-1.05,1.6-1.59.2-.2.339-.295.589-.044C697.439,766.23,701.234,770.019,705.125,773.907Z" transform="translate(-27.077 -36.84)" fill="#e5ae56"/>
        <path id="Trazado_636025" data-name="Trazado 636025" d="M663.475,728.768a6.54,6.54,0,0,1-2.539-3.661,4.555,4.555,0,0,1,2.407-4.823c1.759.954,2.965,2.535,4.383,3.875.192.181.1.343-.054.494C666.262,726.015,664.951,727.476,663.475,728.768Z" transform="translate(-5.668 -7.121)" fill="#cacaca"/>
        <path id="Trazado_636026" data-name="Trazado 636026" d="M826.243,822.052c1.748,0,3.5.018,5.245-.011.484-.008.605.14.6.61-.011,1.377-.337,1.734-1.7,1.734q-4.225,0-8.449,0a1.508,1.508,0,0,1-1.535-2.1c.109-.371.391-.218.594-.22C822.747,822.047,824.5,822.052,826.243,822.052Z" transform="translate(-118.494 -79.12)" fill="#c9894b"/>
        <path id="Trazado_636027" data-name="Trazado 636027" d="M742.071,801.429c.243,0,.486,0,.729,0,1-.014,1.407-.424,1.418-1.423.006-.559.019-1.118-.006-1.676-.014-.325.1-.448.415-.4.024,0,.049,0,.073,0,.716.053,1.724-.325,2.083.146a8.635,8.635,0,0,1,.914,2.652c.075.24-.116.349-.248.482-1.15,1.153-2.307,2.3-3.449,3.46a.573.573,0,0,1-.7.17c-.709-.245-1.433-.452-2.161-.638a.505.505,0,0,1-.433-.618,10.352,10.352,0,0,0,0-1.53c-.049-.517.124-.7.636-.629A5.087,5.087,0,0,0,742.071,801.429Z" transform="translate(-62.159 -61.999)" fill="#efd1b8"/>
        <path id="Trazado_636028" data-name="Trazado 636028" d="M669.466,727.361c1.477-1.292,2.787-2.754,4.2-4.115.156-.151.246-.313.054-.494-1.418-1.34-2.623-2.921-4.383-3.875a4.412,4.412,0,0,1,5.077.495c.766.668,1.451,1.428,2.186,2.133.224.215.236.361.007.588q-2.969,2.947-5.917,5.915c-.248.25-.419.265-.639-.006C669.867,727.779,669.661,727.574,669.466,727.361Z" transform="translate(-11.659 -5.714)" fill="#b3b3b3"/>
        <path id="Trazado_636029" data-name="Trazado 636029" d="M687.241,738.242c-.073.081-.162.191-.262.292-1.941,1.942-3.888,3.878-5.818,5.83-.28.283-.451.257-.7-.019-.45-.5-1.229-.942-1.306-1.487-.074-.522.778-.955,1.233-1.416,1.535-1.557,3.1-3.081,4.624-4.653.4-.41.625-.388.965.021.309.372.683.69,1.022,1.038C687.1,737.949,687.24,738.025,687.241,738.242Z" transform="translate(-18.607 -18.591)" fill="#c9894b"/>
        <path id="Trazado_636030" data-name="Trazado 636030" d="M836.585,793.507c0-.995.014-1.989-.007-2.983-.007-.349.1-.437.449-.452,1.894-.082,1.893-.093,1.893,1.767,0,1.577-.013,3.154.009,4.73.006.411-.114.52-.524.526-1.82.028-1.82.042-1.82-1.768Z" transform="translate(-130.006 -56.486)" fill="#f0d076"/>
        <path id="Trazado_636031" data-name="Trazado 636031" d="M835.028,838.054c.6,0,1.211.019,1.815-.007.382-.016.518.079.429.486a2.346,2.346,0,0,1-4.593-.026c-.068-.352.021-.473.389-.46C833.72,838.071,834.374,838.054,835.028,838.054Z" transform="translate(-127.232 -90.453)" fill="#e5ae56"/>
        <path id="Trazado_636032" data-name="Trazado 636032" d="M822.975,775.857c.144.547-.107.723-.716.7-1.053-.047-1.6-.4-1.615-1.164a1.183,1.183,0,0,1,1.144-1.181C822.55,774.2,822.972,774.758,822.975,775.857Z" transform="translate(-118.73 -45.28)" fill="#f0d076"/>
        <path id="Trazado_636033" data-name="Trazado 636033" d="M853.221,776.54c-.552.148-.72-.114-.694-.718.046-1.051.4-1.6,1.164-1.614a1.185,1.185,0,0,1,1.179,1.147C854.883,776.118,854.322,776.538,853.221,776.54Z" transform="translate(-141.291 -45.279)" fill="#f0d076"/>
        <path id="Trazado_636034" data-name="Trazado 636034" d="M763.364,820.741c-1-.3-1.856-.578-2.719-.822-.382-.108-.426-.24-.14-.517.524-.508,1.038-1.025,1.549-1.546.248-.253.392-.218.491.123C762.8,818.858,763.064,819.735,763.364,820.741Z" transform="translate(-76.043 -76.049)" fill="#646464"/>
        <path id="Trazado_636035" data-name="Trazado 636035" d="M750.666,852.594c.023.62-.451.932-.8,1.325-.239.265-.736.471-.663.808a7.1,7.1,0,0,0,.723,1.737c.1.183.407.072.618.073,2.141.015,2.25.122,2.25,2.271,0,1.142.011,2.285,0,3.427a1.187,1.187,0,0,1-1.311,1.308c-1.651.053-1.635.059-2.226,1.62-.109.287,0,.394.156.549.309.31.631.608.921.935a1.116,1.116,0,0,1,0,1.634q-1.622,1.677-3.3,3.3a1.166,1.166,0,0,1-1.644,0,.446.446,0,0,1-.106-.1c-.713-1.184-1.633-1.025-2.656-.447-.245.138-.362.247-.346.532a12,12,0,0,1,0,1.312,1.127,1.127,0,0,1-1.158,1.157q-2.333.037-4.668,0a1.138,1.138,0,0,1-1.17-1.148c0-.048,0-.1,0-.146-.056-1.648-.06-1.638-1.61-2.232a.381.381,0,0,0-.5.092c-.064.073-.136.139-.205.207-1.567,1.549-1.668,1.548-3.249-.032-.773-.773-1.551-1.543-2.318-2.322a1.215,1.215,0,0,1-.027-1.955c1.135-1.2,1.133-1.27.365-2.729-.126-.239-.272-.227-.459-.228-.413,0-.827.01-1.24,0a1.151,1.151,0,0,1-1.256-1.209q-.031-2.3,0-4.593a1.147,1.147,0,0,1,1.2-1.2.621.621,0,0,1,.146,0,1.548,1.548,0,0,0,2.073-1.321c.109-.464.138-.7-.208-1.038-1.512-1.482-1.5-1.648-.015-3.135.808-.808,1.61-1.621,2.428-2.419a1.227,1.227,0,0,1,1.914-.008c1.17,1.081,1.166,1.072,2.656.406a.43.43,0,0,0,.315-.476c-.015-.437-.019-.876,0-1.312a1.138,1.138,0,0,1,1.194-1.195q2.3-.032,4.595,0c.76.01,1.306.5,1.183,1.252-.215,1.317.364,1.923,1.537,2.234.287.076.47.132.686-.121a9.68,9.68,0,0,1,.875-.877,1.134,1.134,0,0,1,1.689-.019c1.117,1.082,2.2,2.195,3.3,3.295A1.15,1.15,0,0,1,750.666,852.594Zm-4.456,16.5c.11-.1.2-.168.286-.25.329-.325.634-.675.986-.972s.379-.515,0-.792a6.358,6.358,0,0,1-.469-.458,1.25,1.25,0,0,1-.253-1.757,9.106,9.106,0,0,0,1.081-2.612,1.263,1.263,0,0,1,1.369-1.048c1.24-.006,1.24-.023,1.24-1.251,0-1.073,0-1.073-1.054-1.078-1.036-.005-1.307-.213-1.592-1.218a9.207,9.207,0,0,0-1.028-2.4,1.277,1.277,0,0,1,.2-1.767c.872-.881.859-.894.006-1.755-.765-.772-.765-.772-1.554,0-.715.7-1.074.76-1.928.267a9.458,9.458,0,0,0-2.484-1.012,1.264,1.264,0,0,1-1.079-1.343c-.015-1.278-.03-1.278-1.286-1.278-1.037,0-1.037,0-1.044,1.089-.007.992-.216,1.281-1.175,1.553a9.647,9.647,0,0,0-2.47,1.046,1.279,1.279,0,0,1-1.764-.236c-.859-.859-.871-.846-1.756.038-.749.749-.762.763,0,1.5.523.5.828,1.044.417,1.736a11.261,11.261,0,0,0-1.2,2.878,1.168,1.168,0,0,1-1.179.9c-1.389.073-1.388.081-1.388,1.472a2.97,2.97,0,0,1,0,.364c-.046.363.067.552.472.5a5.02,5.02,0,0,1,.656,0c.942.008,1.259.24,1.506,1.139a10.544,10.544,0,0,0,1.035,2.476,1.232,1.232,0,0,1-.244,1.813c-.821.849-.821.849-.005,1.658l.052.051c.774.768.789.782,1.551-.006a1.286,1.286,0,0,1,1.743-.37,10.254,10.254,0,0,0,2.744,1.14,1.239,1.239,0,0,1,1.006,1.327c.015,1.276.031,1.275,1.289,1.275,1.036,0,1.036,0,1.044-1.089.007-.989.235-1.286,1.178-1.549a9.789,9.789,0,0,0,2.09-.832c1.3-.71,1.42-.688,2.5.382C745.868,868.776,746.028,868.92,746.21,869.092Z" transform="translate(-50.88 -96.102)" fill="#010102"/>
        <path id="Trazado_636036" data-name="Trazado 636036" d="M823.252,882.921c-2.019,0-4.038-.014-6.057.011-.462.005-.611-.1-.608-.589.011-1.757-.01-1.757,1.763-1.757,3.478,0,6.957.014,10.435-.005a5.249,5.249,0,1,0,.086-10.5,6.405,6.405,0,0,1-6.358-5.427,16.839,16.839,0,0,1-.077-2.4c-.009-.237.052-.376.32-.345.072.008.146,0,.219,0,.578.017,1.312-.172,1.688.112.353.266.1,1.043.108,1.594a4.116,4.116,0,0,0,4.124,4.129,7.583,7.583,0,0,1,.339,15.158c-1.994.045-3.989.008-5.983.008Z" transform="translate(-115.861 -107.309)" fill="#030202"/>
        <path id="Trazado_636037" data-name="Trazado 636037" d="M848.721,735.611c-1.057,0-1.057,0-1.239-1.037a6.942,6.942,0,0,0-6.427-5.938c-.435-.038-.528-.187-.492-.565.025-.265,0-.534,0-.8,0-1.094,0-1.094,1.124-.923a9.287,9.287,0,0,1,8.122,8.041C850,735.611,850,735.611,848.721,735.611Z" transform="translate(-132.822 -11.352)" fill="#030202"/>
        <path id="Trazado_636038" data-name="Trazado 636038" d="M751.852,874.76c-.183-.172-.342-.316-.494-.467-1.08-1.07-1.2-1.092-2.5-.382a9.789,9.789,0,0,1-2.09.832c-.942.263-1.171.559-1.178,1.549-.007,1.089-.007,1.089-1.044,1.089-1.258,0-1.274,0-1.289-1.275a1.239,1.239,0,0,0-1.006-1.327,10.254,10.254,0,0,1-2.744-1.14,1.286,1.286,0,0,0-1.743.37c-.762.788-.776.774-1.551.006l-.052-.051c-.816-.809-.816-.809.005-1.658a1.232,1.232,0,0,0,.244-1.813,10.544,10.544,0,0,1-1.035-2.476c-.247-.9-.564-1.132-1.506-1.139a5.02,5.02,0,0,0-.656,0c-.4.051-.518-.138-.472-.5a2.97,2.97,0,0,0,0-.364c0-1.391,0-1.4,1.388-1.472a1.168,1.168,0,0,0,1.179-.9,11.261,11.261,0,0,1,1.2-2.878c.411-.693.106-1.233-.417-1.736-.763-.735-.75-.749,0-1.5.884-.884.9-.9,1.756-.038a1.279,1.279,0,0,0,1.764.236,9.647,9.647,0,0,1,2.47-1.046c.959-.272,1.168-.561,1.175-1.553.007-1.089.007-1.089,1.044-1.089,1.256,0,1.271,0,1.286,1.278a1.264,1.264,0,0,0,1.079,1.343,9.458,9.458,0,0,1,2.484,1.012c.854.493,1.213.435,1.928-.267.789-.774.789-.774,1.554,0,.853.86.866.873-.006,1.755a1.277,1.277,0,0,0-.2,1.767,9.207,9.207,0,0,1,1.028,2.4c.285,1,.556,1.213,1.592,1.218,1.054.005,1.054.005,1.054,1.078,0,1.228,0,1.245-1.24,1.251a1.263,1.263,0,0,0-1.369,1.048,9.106,9.106,0,0,1-1.081,2.612,1.25,1.25,0,0,0,.253,1.757,6.358,6.358,0,0,0,.469.458c.375.277.339.5,0,.792s-.658.647-.986.972C752.055,874.592,751.963,874.664,751.852,874.76Zm-.428-9.045a7,7,0,1,0-6.937,7A7.024,7.024,0,0,0,751.425,865.716Z" transform="translate(-56.522 -101.771)" fill="#7d9dcc"/>
        <path id="Trazado_636039" data-name="Trazado 636039" d="M762.758,877.018a7,7,0,1,1-7.075-7.007A7.022,7.022,0,0,1,762.758,877.018Zm-6.975-4.673a4.668,4.668,0,1,0,4.639,4.715A4.673,4.673,0,0,0,755.783,872.344Z" transform="translate(-67.856 -113.073)" fill="#020303"/>
        <path id="Trazado_636040" data-name="Trazado 636040" d="M761.436,877.993a4.668,4.668,0,1,1-4.7,4.655A4.676,4.676,0,0,1,761.436,877.993Z" transform="translate(-73.508 -118.721)" fill="#e0e4f2"/>
      </g>
    </g>
    <g id="Grupo_963267" data-name="Grupo 963267" transform="translate(1223.077 10186.988)">
      <circle id="Elipse_5210-5" data-name="Elipse 5210" cx="46" cy="46" r="46" transform="translate(6.923 0.122)" fill="#ef8b53"/>
      <g id="Grupo_964891" data-name="Grupo 964891" transform="translate(130.253 -580.373)">
        <path id="Trazado_636078" data-name="Trazado 636078" d="M-81.827,589.038c8.182,0,16.364.011,24.545-.019.715,0,.863.209.833.866-.053,1.13.011,2.266-.026,3.4-.017.5.119.676.644.73a18.79,18.79,0,0,1,14.169,8.407,19.262,19.262,0,0,1-10.25,29.2c-.713.219-1.044.468-.943,1.262a3.9,3.9,0,0,1-.33,2.358c-.165.31.029.393.2.535a3.8,3.8,0,0,1,1.365,3.129c-.022,3.046,0,6.091-.009,9.137A5.98,5.98,0,0,1-56,654.032a.578.578,0,0,0-.477.676c.018,2.869-.005,5.739.024,8.608.005.533-.132.655-.659.654q-24.734-.023-49.468,0c-.523,0-.666-.115-.661-.652.029-3.02-.018-6.041.035-9.061a2.269,2.269,0,0,0-.828-1.951c-.723-.623-1.35-1.355-2.047-2.009a.573.573,0,0,1-.141-.831c.409-.719.762-1.471,1.158-2.2a.7.7,0,0,0,.018-.833.894.894,0,0,1-.156-.34,3.166,3.166,0,0,0-3.026-2.672c-.84-.11-1.095-.521-1.067-1.4.077-2.464.04-4.933.015-7.4,0-.431.111-.655.532-.723.122-.02.236-.1.357-.111,1.973-.168,2.925-1.405,3.414-3.181a.858.858,0,0,0-.082-.7c-.367-.715-.713-1.441-1.115-2.135a.648.648,0,0,1,.131-.957c.811-.753,1.559-1.574,2.366-2.332a1.374,1.374,0,0,0,.461-1.114c-.013-11.125,0-22.251-.028-33.376,0-.751.131-.989.945-.985C-98.14,589.052-89.984,589.038-81.827,589.038Zm-22.979,32.66c.528-.906,1.022-.756,1.595-.4.6.367,1.245.652,1.871.973a.684.684,0,0,0,.629.071c2.391-.913,2.394-.9,3.167-3.328a1.912,1.912,0,0,0,.12-.356c.058-.548.377-.632.877-.627q3.814.039,7.628,0c.536-.006.816.118.919.677.319,1.728,1,3.139,2.98,3.506.4.074.709.21,1.107-.024.692-.406,1.427-.736,2.134-1.117a.5.5,0,0,1,.711.093q2.864,2.9,5.767,5.768a.5.5,0,0,1,.1.71c-.412.747-.793,1.512-1.183,2.271a.844.844,0,0,0-.088.7c.5,1.725,1.376,3,3.341,3.161a3.91,3.91,0,0,1,.5.154c.342.078.462.256.459.628q-.028,4.04,0,8.08a.546.546,0,0,1-.472.622c-.818.242-1.624.524-2.442.764a.749.749,0,0,0-.53.469c-1,2.331-1,2.329.163,4.591a2.959,2.959,0,0,0,.216.4c.238.328.145.553-.134.828q-2.823,2.784-5.6,5.609a.621.621,0,0,1-.892.154c-.719-.41-1.467-.767-2.2-1.153a.85.85,0,0,0-.7-.066c-1.776.489-3.015,1.442-3.173,3.419-.008.1-.086.187-.1.284-.054.517-.358.6-.828.592-1.989-.027-3.977,0-5.966-.016-.8-.006-1.794.315-2.343-.125-.511-.41-.617-1.39-.781-2.145-.169-.778-.66-1.048-1.308-1.425a3.065,3.065,0,0,0-3.579.222c-.6.393-1.264.991-1.974-.1,0,1.941.015,3.678-.01,5.415-.006.441.073.6.565.6q22.393-.023,44.787,0c.44,0,.6-.072.6-.565q-.047-3.133,0-6.267c.007-.448-.157-.583-.545-.707a5.98,5.98,0,0,1-4.3-5.889c-.009-3.1.01-6.192-.008-9.288a3.749,3.749,0,0,1,1.357-3.057c.168-.141.374-.217.206-.532a4.946,4.946,0,0,1-.337-2.662c.026-.519-.132-.712-.646-.869a19.315,19.315,0,0,1-13.7-21.145A19.4,19.4,0,0,1-60.79,594.157c.619-.092,1.471.019,1.789-.341s.067-1.2.13-1.816c.051-.515-.185-.553-.6-.552q-22.355.014-44.711-.006c-.568,0-.635.194-.63.684.024,2.391.011,4.783.011,7.174Zm1.307,2.183a.93.93,0,0,0-.508.361q-1.045,1.037-2.083,2.08c-1.39,1.389-1.412,1.4-.486,3.113a1.474,1.474,0,0,1,.018,1.775,3.985,3.985,0,0,0-.749,1.632,3.11,3.11,0,0,1-3,2.834c-.442.061-.554.291-.546.717.026,1.333.056,2.669-.009,4-.035.73.172,1.115.91,1.219a2.516,2.516,0,0,1,2.5,2.359,2.088,2.088,0,0,0,.238.632c.347.748.985,1.5.975,2.239a5.649,5.649,0,0,1-1.038,2.219.51.51,0,0,0,.117.718c.651.63,1.28,1.282,1.927,1.916.537.527,1.017,1.336,1.647,1.481.681.157,1.371-.6,2.078-.911a.361.361,0,0,0,.066-.037.8.8,0,0,1,.965-.009,6.815,6.815,0,0,0,1.97.919,3.209,3.209,0,0,1,2.885,3.052c.057.457.321.535.734.527,1.207-.025,2.416-.009,3.624-.009,1.3,0,1.387.019,1.676-1.273A2.241,2.241,0,0,1-87.6,653.4a2.548,2.548,0,0,0,1.118-.428,3.1,3.1,0,0,1,4.126.1c.39.3.656.14.956-.171.891-.923,1.775-1.858,2.729-2.714.583-.523.756-.974.255-1.634a2.423,2.423,0,0,1-.108-3.305,1.751,1.751,0,0,0,.354-.824,3.2,3.2,0,0,1,3.078-2.945c.407-.055.517-.279.507-.673-.026-1.006-.008-2.013-.008-3.019,0-1.966.007-1.992-1.866-2.527a1.5,1.5,0,0,1-1.272-1.244,4.332,4.332,0,0,0-.623-1.685,3.135,3.135,0,0,1,.136-4.134c.27-.349.166-.605-.141-.9-.873-.833-1.714-1.7-2.568-2.556-.918-.918-.963-.99-2.088-.292a2.23,2.23,0,0,1-2.852.021,2.431,2.431,0,0,0-1.1-.481,3.073,3.073,0,0,1-2.844-2.985c-.062-.489-.348-.568-.786-.56q-2.151.035-4.3,0c-.414-.007-.64.081-.744.524-.143.609-.4,1.192-.556,1.8a.9.9,0,0,1-.752.711,8.319,8.319,0,0,0-2.727,1.058,2.074,2.074,0,0,1-2.653-.042A9.245,9.245,0,0,0-103.5,623.882Zm45.859,6.242A16.947,16.947,0,0,0-40.753,613.21a16.94,16.94,0,0,0-16.953-16.921A16.943,16.943,0,0,0-74.593,613.2,16.947,16.947,0,0,0-57.64,630.123ZM-61.3,643.49c0,1.585-.016,3.17,0,4.755a3.632,3.632,0,0,0,3.586,3.628,3.621,3.621,0,0,0,3.654-3.635c.021-3.144.011-6.289,0-9.434,0-.983-.448-1.42-1.437-1.427q-2.189-.014-4.378,0c-.985.007-1.423.446-1.43,1.433C-61.3,640.37-61.3,641.93-61.3,643.49Zm3.625-8.533c.351,0,.7.008,1.053,0a1.233,1.233,0,0,0,1.362-1.343c.009-.275-.018-.553.006-.827.031-.351-.123-.429-.438-.383a13.693,13.693,0,0,1-3.971,0c-.32-.047-.432.042-.439.386-.028,1.369-.056,2.3,1.976,2.17C-57.973,634.949-57.822,634.957-57.672,634.957Z" transform="translate(0 0)" fill="#020202"/>
        <path id="Trazado_636079" data-name="Trazado 636079" d="M-85.273,627.285v-22.4c0-2.391.013-4.782-.011-7.174-.005-.49.062-.685.63-.684q22.355.027,44.711.006c.42,0,.656.037.6.552-.062.621.188,1.456-.13,1.816s-1.17.248-1.789.341a19.4,19.4,0,0,0-16.048,16.411,19.315,19.315,0,0,0,13.7,21.145c.514.158.672.35.646.869a4.946,4.946,0,0,0,.337,2.662c.168.316-.039.391-.206.532a3.749,3.749,0,0,0-1.357,3.057c.018,3.1,0,6.192.008,9.288a5.98,5.98,0,0,0,4.3,5.889c.388.124.551.259.545.707q-.047,3.133,0,6.267c.008.493-.156.565-.6.564q-22.394-.016-44.787,0c-.492,0-.571-.155-.565-.6.025-1.736.01-3.473.01-5.415.71,1.094,1.377.5,1.974.1a3.065,3.065,0,0,1,3.579-.222c.648.377,1.14.647,1.308,1.425.164.755.271,1.735.781,2.145.548.441,1.543.12,2.343.125,1.989.015,3.978-.011,5.966.016.47.006.774-.075.828-.592.01-.1.088-.187.1-.284.158-1.977,1.4-2.93,3.173-3.419a.85.85,0,0,1,.7.066c.733.385,1.482.743,2.2,1.153a.621.621,0,0,0,.892-.154q2.778-2.828,5.6-5.609c.279-.275.372-.5.134-.828a2.955,2.955,0,0,1-.216-.4c-1.166-2.261-1.162-2.26-.163-4.591a.749.749,0,0,1,.53-.469c.818-.24,1.624-.522,2.442-.764a.546.546,0,0,0,.472-.622q-.03-4.039,0-8.08c0-.371-.117-.55-.459-.628a3.91,3.91,0,0,0-.5-.154c-1.964-.161-2.845-1.436-3.341-3.161a.844.844,0,0,1,.088-.7c.389-.759.771-1.524,1.183-2.271a.5.5,0,0,0-.1-.71q-2.9-2.868-5.767-5.768a.5.5,0,0,0-.711-.093c-.707.381-1.443.711-2.134,1.117-.4.234-.706.1-1.107.024-1.976-.367-2.661-1.778-2.98-3.506-.1-.559-.383-.683-.919-.677q-3.814.044-7.628,0c-.5-.005-.819.079-.877.627a1.914,1.914,0,0,1-.12.356c-.774,2.423-.776,2.416-3.167,3.328a.684.684,0,0,1-.629-.071c-.625-.321-1.273-.606-1.871-.973C-84.251,626.53-84.744,626.38-85.273,627.285Zm14.517-27.826c-3.8,0-7.6.011-11.4-.012-.535,0-.719.084-.714.679.033,3.573.028,7.147,0,10.721,0,.538.09.713.681.711q11.4-.036,22.8,0c.637,0,.711-.218.708-.76-.021-3.523-.027-7.047,0-10.57.005-.6-.107-.795-.759-.789C-63.2,599.478-66.981,599.46-70.756,599.46Zm-.621,19.333h-9.815c-1.666,0-1.631,0-1.68,1.664-.019.639.161.771.78.769,6.82-.025,13.641-.016,20.462-.016,1.748,0,1.719,0,1.754-1.739.012-.576-.148-.7-.7-.691C-64.179,618.807-67.778,618.793-71.378,618.793Zm2.427-4.833h-7.323c-1.756,0-1.73,0-1.762,1.73-.01.556.118.7.692.7,5.234-.025,10.469-.015,15.7-.015,1.769,0,1.751,0,1.76-1.805,0-.484-.112-.628-.614-.623C-63.314,613.973-66.132,613.96-68.951,613.96Zm18.8,43.5h-3.094c-1.84,0-1.82,0-1.83,1.81,0,.492.126.624.619.618,2.415-.026,4.83-.012,7.245-.012,1.867,0,1.852,0,1.828-1.886-.005-.425-.115-.549-.542-.541C-47.33,657.478-48.739,657.461-50.148,657.461Zm-.121,7.25h3.095c1.814,0,1.8,0,1.8-1.844,0-.458-.1-.59-.577-.585-2.415.027-4.83.012-7.245.012-1.923,0-1.911,0-1.869,1.92.008.385.1.513.5.507C-53.137,664.7-51.7,664.711-50.269,664.711ZM-81.641,613.96c-1.215,0-1.215,0-1.215,1.2s0,1.215,1.2,1.215,1.215,0,1.215-1.2S-80.439,613.96-81.641,613.96Z" transform="translate(-19.533 -5.587)" fill="#e5e8eb"/>
        <path id="Trazado_636080" data-name="Trazado 636080" d="M-97.914,696.293a9.252,9.252,0,0,1,1.176.614,2.074,2.074,0,0,0,2.653.042,8.32,8.32,0,0,1,2.727-1.058.9.9,0,0,0,.752-.711c.161-.606.413-1.188.556-1.8.1-.443.33-.531.744-.525q2.151.036,4.3,0c.437-.007.724.071.786.561a3.073,3.073,0,0,0,2.844,2.985,2.431,2.431,0,0,1,1.1.481,2.23,2.23,0,0,0,2.852-.021c1.124-.7,1.17-.626,2.088.292.854.854,1.695,1.722,2.568,2.556.306.293.41.549.141.9a3.135,3.135,0,0,0-.136,4.134,4.332,4.332,0,0,1,.623,1.685,1.5,1.5,0,0,0,1.272,1.244c1.873.535,1.866.561,1.866,2.527,0,1.006-.017,2.013.008,3.019.01.395-.1.618-.507.673a3.2,3.2,0,0,0-3.078,2.945,1.751,1.751,0,0,1-.354.825,2.423,2.423,0,0,0,.108,3.305c.5.659.328,1.11-.255,1.634-.954.856-1.838,1.791-2.729,2.714-.3.311-.565.474-.956.171a3.1,3.1,0,0,0-4.126-.105,2.546,2.546,0,0,1-1.118.428,2.241,2.241,0,0,0-1.993,2.038c-.288,1.292-.374,1.273-1.676,1.273-1.208,0-2.416-.016-3.624.009-.413.009-.677-.069-.734-.527a3.209,3.209,0,0,0-2.885-3.052,6.815,6.815,0,0,1-1.97-.919.8.8,0,0,0-.965.009.358.358,0,0,1-.066.037c-.706.314-1.4,1.068-2.078.911-.63-.145-1.11-.954-1.647-1.481-.646-.634-1.275-1.286-1.927-1.916a.51.51,0,0,1-.117-.718,5.65,5.65,0,0,0,1.038-2.219c.009-.742-.628-1.49-.975-2.239a2.087,2.087,0,0,1-.238-.632,2.516,2.516,0,0,0-2.5-2.359c-.738-.1-.946-.489-.91-1.219.065-1.331.035-2.667.009-4-.008-.426.1-.656.546-.717a3.11,3.11,0,0,0,3-2.834,3.984,3.984,0,0,1,.749-1.632,1.474,1.474,0,0,0-.018-1.775c-.926-1.712-.9-1.724.486-3.113q1.041-1.04,2.083-2.08A.93.93,0,0,1-97.914,696.293Zm-2.516,14.7a13.317,13.317,0,0,0,13.3,13.291,13.316,13.316,0,0,0,13.292-13.295,13.312,13.312,0,0,0-13.3-13.289A13.312,13.312,0,0,0-100.429,710.994Z" transform="translate(-5.586 -72.412)" fill="#7cd1b3"/>
        <path id="Trazado_636081" data-name="Trazado 636081" d="M31.527,646.878a16.917,16.917,0,1,1,16.887-16.913A16.947,16.947,0,0,1,31.527,646.878Zm-.016-2.417a14.5,14.5,0,1,0-14.518-14.484A14.527,14.527,0,0,0,31.511,644.461Z" transform="translate(-89.168 -16.755)" fill="#f2d37d"/>
        <path id="Trazado_636082" data-name="Trazado 636082" d="M58.486,754.889c0-1.56-.007-3.12,0-4.679.006-.987.445-1.427,1.43-1.433q2.189-.015,4.378,0c.989.007,1.434.443,1.437,1.427.008,3.145.019,6.289,0,9.434a3.62,3.62,0,1,1-7.24.007C58.47,758.059,58.487,756.474,58.486,754.889Z" transform="translate(-119.784 -111.399)" fill="#969ea8"/>
        <path id="Trazado_636083" data-name="Trazado 636083" d="M64.873,734.886c-.15,0-.3-.008-.451,0-2.031.127-2-.8-1.976-2.17.007-.344.12-.433.439-.386a13.693,13.693,0,0,0,3.971,0c.315-.046.469.032.438.383-.024.274,0,.551-.006.827a1.233,1.233,0,0,1-1.362,1.343C65.575,734.894,65.224,734.886,64.873,734.886Z" transform="translate(-122.545 -99.929)" fill="#c9cdd4"/>
        <path id="Trazado_636084" data-name="Trazado 636084" d="M-65.2,605.018c3.776,0,7.551.018,11.327-.018.653-.006.765.184.759.788-.031,3.523-.025,7.047,0,10.57,0,.542-.071.762-.708.76q-11.4-.04-22.8,0c-.591,0-.685-.173-.681-.711.024-3.573.029-7.147,0-10.721-.006-.6.179-.683.714-.68C-72.8,605.029-69,605.018-65.2,605.018Zm.069,2.417c-3.043,0-6.086.009-9.128-.01-.473,0-.645.1-.637.61.031,2.011.028,4.023,0,6.034-.006.486.119.629.619.627q9.052-.026,18.1,0c.567,0,.641-.2.635-.689-.026-1.961-.033-3.922,0-5.883.01-.558-.125-.713-.7-.706C-59.2,607.452-62.164,607.435-65.131,607.435Z" transform="translate(-25.089 -11.146)"/>
        <path id="Trazado_636085" data-name="Trazado 636085" d="M-65.827,668.9c3.6,0,7.2.013,10.8-.014.555,0,.715.116.7.691-.035,1.739-.007,1.739-1.754,1.739-6.82,0-13.641-.009-20.462.016-.619,0-.8-.129-.78-.768.049-1.662.015-1.664,1.68-1.664Z" transform="translate(-25.084 -55.697)"/>
        <path id="Trazado_636086" data-name="Trazado 636086" d="M-52.255,652.938c2.819,0,5.637.013,8.455-.012.5,0,.617.14.614.623-.009,1.805.009,1.806-1.76,1.806-5.234,0-10.469-.011-15.7.015-.574,0-.7-.146-.692-.7.032-1.729.007-1.73,1.762-1.73Z" transform="translate(-36.229 -44.565)"/>
        <path id="Trazado_636087" data-name="Trazado 636087" d="M19.457,796.666c1.409,0,2.818.017,4.226-.01.427-.008.537.116.542.541.024,1.886.038,1.886-1.828,1.886-2.415,0-4.83-.015-7.245.012-.493.005-.622-.126-.619-.618.01-1.81-.01-1.81,1.83-1.81Z" transform="translate(-89.138 -144.792)"/>
        <path id="Trazado_636088" data-name="Trazado 636088" d="M19.318,815.047c-1.434,0-2.868-.015-4.3.01-.4.007-.491-.121-.5-.507-.042-1.92-.054-1.92,1.869-1.92,2.415,0,4.83.015,7.245-.012.475-.005.577.127.577.585,0,1.844.018,1.844-1.8,1.844Z" transform="translate(-89.12 -155.923)"/>
        <path id="Trazado_636089" data-name="Trazado 636089" d="M-76.047,652.967c1.2,0,1.2,0,1.2,1.215s0,1.2-1.215,1.2-1.2,0-1.2-1.215S-77.262,652.967-76.047,652.967Z" transform="translate(-25.127 -44.594)"/>
        <path id="Trazado_636090" data-name="Trazado 636090" d="M-89.241,722.152a13.312,13.312,0,0,1,13.292-13.293,13.312,13.312,0,0,1,13.3,13.289,13.316,13.316,0,0,1-13.292,13.295A13.317,13.317,0,0,1-89.241,722.152Zm12.085-8.365c0-.629-.029-1.26.01-1.887.028-.455-.129-.55-.55-.478a10.639,10.639,0,0,0-3.535,1.239,10.87,10.87,0,0,0-5.417,7.523c-.1.5-.1.816.606.776,1.2-.068,2.415-.034,3.622-.009.377.008.563-.071.682-.468a5.86,5.86,0,0,1,4.127-4.125c.344-.1.482-.238.463-.609C-77.179,715.1-77.156,714.441-77.156,713.787Zm11.99,7.155a10.416,10.416,0,0,0-2.33-5.606,10.714,10.714,0,0,0-6.6-3.893c-.326-.059-.676-.188-.653.432.048,1.307.021,2.616.009,3.924,0,.285.05.433.364.525a5.983,5.983,0,0,1,4.271,4.276c.062.209.111.35.383.348C-68.22,720.935-66.713,720.942-65.166,720.942ZM-84.29,723.36c-.629,0-1.262.041-1.886-.012-.535-.046-.549.18-.5.605a11.036,11.036,0,0,0,8.886,8.917c.448.061.667.034.645-.528-.048-1.206-.045-2.416,0-3.622a.687.687,0,0,0-.6-.822,6.107,6.107,0,0,1-3.5-2.8c-.349-.557-.2-1.472-.875-1.689a7.137,7.137,0,0,0-2.1-.046Zm9.553,7.118c0,.679.017,1.359-.007,2.037-.013.351.11.42.434.373a9.128,9.128,0,0,0,1.969-.492,10.859,10.859,0,0,0,7.09-8.242c.127-.564.084-.855-.638-.813-1.153.067-2.314.042-3.471.006-.467-.015-.7.087-.837.576a5.978,5.978,0,0,1-2.861,3.542c-.541.324-1.416.217-1.631.838a6.5,6.5,0,0,0-.048,2.022C-74.738,730.377-74.738,730.427-74.738,730.478Zm2.415-8.347a3.644,3.644,0,0,0-3.607-3.6,3.64,3.64,0,0,0-3.641,3.642,3.644,3.644,0,0,0,3.605,3.6A3.646,3.646,0,0,0-72.323,722.13Z" transform="translate(-16.774 -83.569)" fill="#020302"/>
        <path id="Trazado_636091" data-name="Trazado 636091" d="M37.08,650.029a14.5,14.5,0,1,1,14.486-14.517A14.528,14.528,0,0,1,37.08,650.029Zm-.045-2.417A12.083,12.083,0,1,0,24.98,635.48,12.109,12.109,0,0,0,37.035,647.612Z" transform="translate(-94.737 -22.323)" fill="#030303"/>
        <path id="Trazado_636092" data-name="Trazado 636092" d="M-59.555,613.009c2.967,0,5.935.017,8.9-.015.572-.006.708.148.7.706-.036,1.96-.029,3.922,0,5.883.006.49-.068.692-.635.689q-9.052-.033-18.1,0c-.5,0-.626-.141-.619-.627.027-2.011.03-4.023,0-6.034-.008-.514.164-.613.637-.61C-65.64,613.019-62.6,613.009-59.555,613.009Z" transform="translate(-30.665 -16.72)" fill="#ee8774"/>
        <path id="Trazado_636093" data-name="Trazado 636093" d="M-71.293,719.643c0,.654-.023,1.309.009,1.962.018.371-.119.5-.463.609a5.86,5.86,0,0,0-4.127,4.125c-.12.4-.305.476-.682.468-1.207-.025-2.418-.059-3.622.009-.7.04-.711-.274-.606-.776a10.87,10.87,0,0,1,5.417-7.523,10.64,10.64,0,0,1,3.535-1.239c.421-.072.578.023.55.478C-71.322,718.383-71.293,719.014-71.293,719.643Z" transform="translate(-22.637 -89.425)" fill="#f9e7ad"/>
        <path id="Trazado_636094" data-name="Trazado 636094" d="M-31.789,726.773c-1.548,0-3.054-.007-4.56.006-.271,0-.321-.138-.383-.348A5.983,5.983,0,0,0-41,722.156c-.314-.092-.367-.241-.364-.526.012-1.308.039-2.617-.009-3.924-.023-.62.327-.492.653-.432a10.714,10.714,0,0,1,6.6,3.893A10.416,10.416,0,0,1-31.789,726.773Z" transform="translate(-50.151 -89.401)" fill="#f9e7ad"/>
        <path id="Trazado_636095" data-name="Trazado 636095" d="M-78.42,756.632h.075a7.134,7.134,0,0,1,2.1.046c.671.217.526,1.132.875,1.689a6.107,6.107,0,0,0,3.5,2.8.687.687,0,0,1,.6.822c-.046,1.206-.048,2.416,0,3.622.022.561-.2.589-.645.528a11.036,11.036,0,0,1-8.886-8.917c-.053-.425-.039-.651.5-.6C-79.682,756.673-79.049,756.632-78.42,756.632Z" transform="translate(-22.644 -116.842)" fill="#f9e7ad"/>
        <path id="Trazado_636096" data-name="Trazado 636096" d="M-41.461,763.836c0-.051,0-.1,0-.151a6.5,6.5,0,0,1,.048-2.022c.215-.621,1.089-.515,1.631-.838a5.979,5.979,0,0,0,2.861-3.542c.14-.489.37-.591.837-.576,1.157.036,2.317.061,3.471-.006.722-.042.765.249.638.813a10.859,10.859,0,0,1-7.09,8.242,9.128,9.128,0,0,1-1.969.492c-.324.047-.447-.023-.434-.373C-41.444,765.195-41.461,764.515-41.461,763.836Z" transform="translate(-50.051 -116.927)" fill="#f9e8ad"/>
        <path id="Trazado_636097" data-name="Trazado 636097" d="M-50.045,744.405a3.646,3.646,0,0,1-3.643,3.644,3.644,3.644,0,0,1-3.605-3.6,3.64,3.64,0,0,1,3.641-3.642A3.644,3.644,0,0,1-50.045,744.405Z" transform="translate(-39.052 -105.844)" fill="#ec8673"/>
        <path id="Trazado_636098" data-name="Trazado 636098" d="M42.606,653.182a12.083,12.083,0,1,1,12.114-12.074A12.109,12.109,0,0,1,42.606,653.182Zm8.1-17.259c-.09-.112-.158-.211-.241-.3a11.31,11.31,0,0,1-.845-.861c-.395-.5-.663-.53-1.154-.028-2.637,2.7-5.316,5.353-7.993,8.011-.476.473-.914,1.331-1.466,1.285-.525-.044-1-.826-1.475-1.3-1.368-1.358-1.356-1.354-2.688.1-.245.266-.254.412,0,.663q1.937,1.9,3.842,3.841c.26.265.406.243.657-.008q5.511-5.532,11.039-11.047C50.487,636.174,50.582,636.059,50.7,635.923Z" transform="translate(-100.308 -27.893)" fill="#83d2ee"/>
        <path id="Trazado_636099" data-name="Trazado 636099" d="M60.161,648.269c-.123.136-.217.251-.322.356q-5.521,5.522-11.039,11.047c-.251.252-.4.274-.657.008q-1.9-1.939-3.842-3.841c-.255-.251-.247-.4,0-.663,1.332-1.45,1.321-1.455,2.688-.1.478.475.95,1.257,1.475,1.3.551.046.99-.812,1.466-1.285,2.676-2.659,5.356-5.314,7.993-8.011.491-.5.759-.474,1.154.028a11.32,11.32,0,0,0,.845.861C60,648.058,60.071,648.157,60.161,648.269Z" transform="translate(-109.765 -40.239)" fill="#030506"/>
      </g>
    </g>
  </g>
</svg>
