<svg xmlns="http://www.w3.org/2000/svg" width="102" height="102" viewBox="0 0 102 102">
  <g id="Grupo_964904" data-name="Grupo 964904" transform="translate(3547 64.373)">
    <circle id="Elipse_7779" data-name="Elipse 7779" cx="51" cy="51" r="51" transform="translate(-3547 -64.373)" fill="#449c6e"/>
    <g id="Grupo_964903" data-name="Grupo 964903" transform="translate(-4197.334 -884.589)">
      <path id="Trazado_636197" data-name="Trazado 636197" d="M662.072,872.079c0-4.584.013-9.168-.017-13.752a1.046,1.046,0,0,1,.66-1.067q19.873-10.529,39.733-21.081a1.771,1.771,0,0,1,1.661-.108q16.953,6.7,33.93,13.343c1.569.616,1.572.608,1.572,2.252q0,13.323.017,26.645a1.252,1.252,0,0,1-.685,1.242c-1.115.664-2.192,1.39-3.305,2.058-.4.24-.425.441-.225.857A16.172,16.172,0,0,1,723.768,905.6c-6.207,1.111-11.44-.924-15.536-5.745-.372-.438-.589-.528-1.092-.2-1.775,1.174-3.6,2.279-5.381,3.437a1.539,1.539,0,0,1-1.636.148q-18.445-8.031-36.918-16a1.573,1.573,0,0,1-1.165-1.734C662.113,881.039,662.072,876.559,662.072,872.079Zm58.8,3.883a4.481,4.481,0,0,0-.465-.026,13.164,13.164,0,0,0-11.624,7.21,13.7,13.7,0,0,0,12.071,20.191,10.577,10.577,0,0,0,3.471-.4,13.706,13.706,0,0,0-3.452-26.974Zm-39.975-11.993c2,.989,4.1,1.714,6.169,2.526q6.618,2.66,13.232,5.329a1,1,0,0,0,1.006-.17q16.8-10.085,33.6-20.165c.166-.1.4-.139.457-.44l-14.352-5.632c-2.084-.789-4.12-1.7-6.241-2.4a1.888,1.888,0,0,0-.265-.157c-3.528-1.392-7.06-2.775-10.584-4.178a1.2,1.2,0,0,0-1.1.134q-17.833,9.484-35.67,18.963c-.238.127-.548.174-.683.508,3.073,1.226,6.133,2.46,9.2,3.668C677.407,862.643,679.1,863.443,680.895,863.969Zm-1.311,2.324a4.586,4.586,0,0,0-.408-.212q-6.877-2.759-13.756-5.512c-.843-.337-.846-.334-.846.62,0,7.68.008,15.361-.016,23.041a1.045,1.045,0,0,0,.746,1.146q15.445,6.659,30.872,13.358c1.113.482,2.229.955,3.369,1.443a2.906,2.906,0,0,0,.043-.312q0-12.536.014-25.072a.731.731,0,0,0-.564-.789c-1.407-.542-2.805-1.107-4.208-1.661l-8.989-3.552C683.784,867.886,681.7,867.044,679.584,866.293Zm22.509,33.552c1.35-.853,2.54-1.638,3.767-2.361.473-.279.492-.525.276-.985a16.137,16.137,0,0,1-1.241-9.971,16.342,16.342,0,0,1,18.141-12.994,16.16,16.16,0,0,1,10.369,5.817c.3.369.5.388.876.123a19.816,19.816,0,0,1,2.178-1.366,1.179,1.179,0,0,0,.662-1.245q-.027-11.406-.012-22.813v-.913c-.3.161-.5.26-.7.377q-16.865,10.116-33.736,20.225a1.047,1.047,0,0,0-.6,1.041q.027,12.149.013,24.3Z" fill="#040404"/>
      <path id="Trazado_636198" data-name="Trazado 636198" d="M691.363,922.4l8.989,3.552c1.4.554,2.8,1.12,4.208,1.661a.731.731,0,0,1,.564.789q-.023,12.536-.014,25.072a2.885,2.885,0,0,1-.043.312c-1.14-.488-2.256-.961-3.369-1.443q-15.433-6.684-30.872-13.358a1.045,1.045,0,0,1-.746-1.146c.025-7.68.016-15.361.016-23.041,0-.954,0-.958.846-.62q6.879,2.754,13.756,5.512a4.552,4.552,0,0,1,.408.212c0,2.156.01,4.312-.013,6.467a.764.764,0,0,0,.56.862c1.694.649,3.373,1.337,5.051,2.026.509.209.669.095.662-.469C691.344,926.655,691.361,924.526,691.363,922.4ZM671.39,934.755c-.024.2-.04.282-.042.359-.045,1.875-.045,1.876,1.7,2.567l4.554,1.8c0-.7-.006-1.3,0-1.889a.447.447,0,0,0-.305-.48C675.348,936.339,673.4,935.558,671.39,934.755Zm-.044-2.7c.035,1.317-.22.957,1.01,1.466,1.3.536,2.6,1.042,3.9,1.564,1.346.54,1.314.541,1.358-.941a.931.931,0,0,0-.715-1.073c-1.486-.545-2.944-1.166-4.415-1.751C671.347,930.861,671.346,930.865,671.346,932.052Z" transform="translate(-5.523 -53.605)" fill="#cb9258"/>
      <path id="Trazado_636199" data-name="Trazado 636199" d="M789.875,937.6v-.769q0-12.148-.013-24.3a1.046,1.046,0,0,1,.6-1.041q16.876-10.1,33.736-20.225c.194-.116.4-.216.7-.377v.913q0,11.406.012,22.813a1.18,1.18,0,0,1-.662,1.245,19.823,19.823,0,0,0-2.178,1.366c-.378.265-.573.246-.876-.123a16.161,16.161,0,0,0-10.369-5.817,16.342,16.342,0,0,0-18.141,12.994,16.137,16.137,0,0,0,1.241,9.971c.216.46.2.706-.276.985C792.415,935.965,791.225,936.751,789.875,937.6Z" transform="translate(-87.782 -37.758)" fill="#efc98d"/>
      <path id="Trazado_636200" data-name="Trazado 636200" d="M775.87,866.25l14.352,5.632c-.057.3-.291.341-.457.44q-16.8,10.085-33.6,20.165a1.006,1.006,0,0,1-1.007.17q-6.608-2.684-13.232-5.329a1.648,1.648,0,0,0,.644-.251q5.461-3.388,10.931-6.761,10.959-6.79,21.913-13.586C775.609,866.609,775.844,866.532,775.87,866.25Z" transform="translate(-54.86 -20.833)" fill="#dba96b"/>
      <path id="Trazado_636201" data-name="Trazado 636201" d="M690.606,869.869c-1.8-.526-3.487-1.327-5.223-2.01-3.07-1.208-6.13-2.441-9.2-3.668.135-.334.445-.382.683-.508q17.833-9.486,35.67-18.964a1.2,1.2,0,0,1,1.1-.134c3.524,1.4,7.056,2.786,10.584,4.178a1.873,1.873,0,0,1,.265.157,1.178,1.178,0,0,1-.211.225q-4.639,2.878-9.283,5.747-9.617,5.949-19.239,11.89A58.2,58.2,0,0,1,690.606,869.869Z" transform="translate(-9.712 -5.899)" fill="#dba96b"/>
      <path id="Trazado_636202" data-name="Trazado 636202" d="M849.784,963.754a13.706,13.706,0,0,1,3.452,26.974,10.574,10.574,0,0,1-3.471.4q0-4.147-.009-8.294c.008-.04.016-.081.026-.121.238-.237.49-.462.713-.713q3.71-4.164,7.413-8.334c1.222-1.372,1.208-1.346-.2-2.577-.432-.377-.64-.385-1.025.054-2.245,2.562-4.522,5.1-6.788,7.638a.624.624,0,0,1-.129-.511Q849.774,971.013,849.784,963.754Z" transform="translate(-128.914 -87.793)" fill="#72923f"/>
      <path id="Trazado_636203" data-name="Trazado 636203" d="M819.457,982.781q0,4.147.009,8.294a13.7,13.7,0,0,1-.447-27.4,4.493,4.493,0,0,1,.466.026q-.009,7.259-.018,14.518a.624.624,0,0,0,.129.511l-.133.294c-.736.8-1.491,1.591-2.2,2.418-.315.367-.515.442-.927.1-1.419-1.181-2.881-2.31-4.321-3.466-1.609-1.292-1.6-1.287-2.784.384-.228.32-.165.47.106.686q3.7,2.934,7.374,5.895c.38.308.551.169.808-.126C818.149,984.188,818.809,983.49,819.457,982.781Z" transform="translate(-98.615 -87.738)" fill="#98c255"/>
      <path id="Trazado_636204" data-name="Trazado 636204" d="M722.231,879.551a58.218,58.218,0,0,0,5.141-3.086q9.634-5.921,19.239-11.89,4.642-2.872,9.283-5.747a1.178,1.178,0,0,0,.211-.225c2.121.692,4.157,1.606,6.242,2.4-.025.282-.261.359-.458.481q-10.957,6.791-21.913,13.586-5.463,3.385-10.931,6.761a1.646,1.646,0,0,1-.644.251C726.331,881.265,724.227,880.54,722.231,879.551Z" transform="translate(-41.336 -15.582)" fill="#efdcb8"/>
      <path id="Trazado_636205" data-name="Trazado 636205" d="M724.276,935.391c0,2.13-.019,4.26,0,6.389.007.564-.154.678-.662.469-1.678-.689-3.357-1.377-5.051-2.026a.764.764,0,0,1-.56-.862c.022-2.155.012-4.311.013-6.467C720.138,933.644,722.219,934.486,724.276,935.391Z" transform="translate(-38.435 -66.601)" fill="#dac197"/>
      <path id="Trazado_636206" data-name="Trazado 636206" d="M674.142,980.32c2.01.8,3.958,1.584,5.908,2.359a.447.447,0,0,1,.305.48c-.008.593,0,1.187,0,1.889l-4.554-1.8c-1.744-.691-1.744-.692-1.7-2.567C674.1,980.6,674.117,980.525,674.142,980.32Z" transform="translate(-8.275 -99.17)" fill="#252121"/>
      <path id="Trazado_636207" data-name="Trazado 636207" d="M674.118,969.464c0-1.187,0-1.19,1.142-.735,1.471.586,2.929,1.206,4.415,1.751a.931.931,0,0,1,.715,1.073c-.044,1.482-.012,1.482-1.358.941-1.3-.522-2.608-1.028-3.9-1.564C673.9,970.421,674.153,970.78,674.118,969.464Z" transform="translate(-8.295 -91.017)" fill="#252121"/>
      <path id="Trazado_636208" data-name="Trazado 636208" d="M827.034,1012.327c-.648.709-1.308,1.407-1.937,2.131-.257.3-.428.434-.808.126q-3.667-2.971-7.374-5.895c-.271-.216-.334-.365-.106-.686,1.188-1.672,1.175-1.676,2.784-.384,1.44,1.156,2.9,2.285,4.321,3.466.412.343.612.268.927-.1.709-.827,1.464-1.615,2.2-2.418l.02,3.638C827.05,1012.246,827.042,1012.286,827.034,1012.327Z" transform="translate(-106.192 -117.284)" fill="#fdfdfb"/>
      <path id="Trazado_636209" data-name="Trazado 636209" d="M849.8,998.192l-.02-3.638.133-.294c2.266-2.543,4.543-5.076,6.788-7.638.384-.439.593-.431,1.025-.054,1.409,1.23,1.423,1.2.2,2.577q-3.71,4.164-7.413,8.334C850.286,997.729,850.034,997.955,849.8,998.192Z" transform="translate(-128.927 -103.27)" fill="#d9dbda"/>
    </g>
  </g>
</svg>
