<svg xmlns="http://www.w3.org/2000/svg" width="102" height="102" viewBox="0 0 102 102">
  <g id="Grupo_964908" data-name="Grupo 964908" transform="translate(-435 -11599.627)">
    <circle id="Elipse_7772" data-name="Elipse 7772" cx="51" cy="51" r="51" transform="translate(435 11599.627)" fill="#449c6e"/>
    <g id="Grupo_964901" data-name="Grupo 964901" transform="translate(-133.625 11428.49)">
      <path id="Trazado_636150" data-name="Trazado 636150" d="M648.254,186.4c.67-.849.884-.915,1.911-.578,1.583.521,3.167,1.039,4.747,1.569a2.778,2.778,0,0,1,1.927,3.76q-.578,1.813-1.189,3.615a2.8,2.8,0,0,1-3.778,1.917c-1.285-.4-1.284-.4-1.7.873-.348,1.063-.676,2.134-1.059,3.185a.657.657,0,0,0,.323.946A29.576,29.576,0,0,1,663,221.864a29.892,29.892,0,0,1-19,33.472c-10.58,3.939-20.468,2.243-29.479-4.544a2,2,0,0,0-1.292-.443c-3.768.017-7.537.011-11.306.006a2.708,2.708,0,0,1-.886-.09,1.1,1.1,0,0,1,.116-2.08,4.009,4.009,0,0,1,.891-.073q4.64-.007,9.274,0c.1-.29-.139-.376-.254-.5a30.182,30.182,0,0,1-6.812-12.3c-.161-.572-.423-.659-.934-.657-3.719.017-7.437.01-11.156.009-1.143,0-1.7-.36-1.72-1.107-.022-.769.547-1.143,1.742-1.143,3.544,0,7.088-.011,10.632.01.576,0,.748-.09.648-.733a29.144,29.144,0,0,1,.663-12.159c.126-.47.055-.607-.451-.6-2.071.024-4.143.008-6.214.011-.65,0-1.206-.15-1.372-.878-.183-.8.346-1.363,1.314-1.369,2.246-.013,4.493-.043,6.738.018a1.093,1.093,0,0,0,1.219-.855,29.52,29.52,0,0,1,9.208-12.309c.074-.059.141-.126.37-.332h-1.593c-1.2,0-2.4,0-3.594,0-.942,0-1.474-.4-1.492-1.1-.018-.726.524-1.144,1.519-1.146,2.646,0,5.291-.009,7.936,0a2.483,2.483,0,0,0,1.277-.325,27.708,27.708,0,0,1,4.57-2.011c.9-.308,1.221-.2,1.751.594.012,1.006-.154,1.246-1.191,1.607a26.99,26.99,0,0,0-11.816,8c-5.517,6.432-7.874,13.894-6.6,22.276,1.535,10.125,7.114,17.373,16.431,21.644a25.9,25.9,0,0,0,12.6,2.286c.989-.091,1.99-.115,2.965-.286a27.368,27.368,0,0,0,17.639-10.471,27.936,27.936,0,0,0-4.925-39.168,25.311,25.311,0,0,0-8.782-4.526,25.84,25.84,0,0,0-11.563-1.129c-1.1.136-1.391.054-1.906-.829.187-1.068.351-1.236,1.417-1.38a24.173,24.173,0,0,1,5.886-.149c.487.054.686-.072.829-.557.4-1.357.858-2.7,1.326-4.033.126-.359.1-.492-.294-.63-2.958-1.022-3.4-1.94-2.438-4.905.307-.944.6-1.892.927-2.831a2.765,2.765,0,0,1,3.621-1.844c1.729.544,3.449,1.115,5.168,1.688.955.318,1.1.543,1.1,1.584a1.323,1.323,0,0,1-1.784.58c-1.64-.58-3.31-1.075-4.955-1.642-.581-.2-.893-.063-1.069.516-.232.761-.494,1.512-.745,2.267-.739,2.229-.792,1.909,1.267,2.579q6.026,1.961,12.046,3.937c.657.223,1.326.42,1.97.678.6.242.936.06,1.123-.539.362-1.159.727-2.318,1.123-3.466a.649.649,0,0,0-.478-.965c-.733-.228-1.47-.448-2.2-.671-.886-.306-1.764-.639-2.661-.911A1.336,1.336,0,0,1,648.254,186.4ZM644.156,199c.77.339,1.55.657,2.3,1.027.361.177.5.141.622-.26.387-1.254.807-2.5,1.236-3.738.123-.357.071-.53-.319-.64-.832-.234-1.651-.516-2.475-.779-1.72-.575-3.446-1.134-5.156-1.736-.4-.14-.514-.033-.627.323-.4,1.256-.807,2.508-1.241,3.751-.134.383-.02.516.344.576A31.961,31.961,0,0,1,644.156,199Z" transform="translate(-8.448)" fill="#030303"/>
      <path id="Trazado_636151" data-name="Trazado 636151" d="M669.55,293.493a25.9,25.9,0,0,1-12.6-2.286c-9.318-4.271-14.9-11.519-16.431-21.644-1.27-8.382,1.087-15.844,6.6-22.276a26.989,26.989,0,0,1,11.816-8c1.037-.362,1.2-.6,1.191-1.607a27.023,27.023,0,0,1,2.844-.6c.515.883.8.965,1.906.829a25.84,25.84,0,0,1,11.563,1.129c.148.341.286.686.445,1.021a26.662,26.662,0,0,1,1.8,4.247c-.207-.085-.417-.162-.621-.255a23.728,23.728,0,0,0-28.253,6.437,22.773,22.773,0,0,0-5.181,18.585c1.391,8.79,6.326,15.016,14.524,18.558a22.436,22.436,0,0,0,9.548,1.757,38.365,38.365,0,0,0,4.6-.5,32.152,32.152,0,0,1-2.253,2.812A10.554,10.554,0,0,0,669.55,293.493Z" transform="translate(-43.264 -38.459)" fill="#3e5d79"/>
      <path id="Trazado_636152" data-name="Trazado 636152" d="M758.318,199.13q-6.023-1.969-12.046-3.937c-2.059-.67-2.006-.35-1.267-2.579.25-.755.513-1.506.745-2.267.176-.579.489-.717,1.069-.516,1.645.568,3.314,1.062,4.955,1.642a1.323,1.323,0,0,0,1.784-.58l2.553.83a1.336,1.336,0,0,0,1.08,1.533c.9.272,1.775.6,2.661.911a9.147,9.147,0,0,1-.2.941C759.215,196.451,758.763,197.79,758.318,199.13Z" transform="translate(-116.304 -5.325)" fill="#3e5d79"/>
      <path id="Trazado_636153" data-name="Trazado 636153" d="M586.4,247.1c-2.146,0-4.292,0-6.439,0a2.78,2.78,0,0,1-.813-.084,1.1,1.1,0,0,1,.068-2.1,3.082,3.082,0,0,1,.743-.061q6.551,0,13.1,0c.125,0,.25,0,.374.007a1.088,1.088,0,0,1,1.147,1.117,1.07,1.07,0,0,1-1.146,1.117c-1.1.034-2.2.012-3.294.013Z" transform="translate(-0.013 -43.891)" fill="#080808"/>
      <path id="Trazado_636154" data-name="Trazado 636154" d="M599.753,271.043c1.672,0,3.343,0,5.014,0,.868,0,1.371.432,1.362,1.136s-.5,1.107-1.388,1.108q-5.014.006-10.029,0c-.858,0-1.376-.443-1.369-1.134s.522-1.107,1.394-1.11C596.41,271.039,598.082,271.043,599.753,271.043Z" transform="translate(-10.478 -62.228)" fill="#020202"/>
      <path id="Trazado_636155" data-name="Trazado 636155" d="M583.43,325.67c-1.248,0-2.5.007-3.744,0-.8-.006-1.309-.448-1.311-1.118s.5-1.121,1.3-1.124q3.781-.012,7.563,0a1.13,1.13,0,1,1,.006,2.24C585.976,325.678,584.7,325.669,583.43,325.67Z" transform="translate(0 -98.89)" fill="#020202"/>
      <path id="Trazado_636156" data-name="Trazado 636156" d="M605.184,378.067c-.873,0-1.747.013-2.62,0a1.125,1.125,0,1,1,.006-2.239q2.62-.02,5.24,0a1.13,1.13,0,1,1-.006,2.241C606.931,378.077,606.057,378.067,605.184,378.067Z" transform="translate(-16.07 -135.563)" fill="#030303"/>
      <path id="Trazado_636157" data-name="Trazado 636157" d="M747.188,248.877a26.662,26.662,0,0,0-1.8-4.247c-.159-.335-.3-.681-.445-1.021a25.31,25.31,0,0,1,8.782,4.526,27.944,27.944,0,0,1-12.714,49.639c-.975.172-1.976.195-2.965.286a10.554,10.554,0,0,1,1.5-1.793,32.129,32.129,0,0,0,2.253-2.812c.141-.047.279-.1.423-.14a23.746,23.746,0,0,0,18-25.655,23.624,23.624,0,0,0-6.617-14.075A24.7,24.7,0,0,0,747.188,248.877Z" transform="translate(-111.76 -43.027)" fill="#314c63"/>
      <path id="Trazado_636158" data-name="Trazado 636158" d="M756.129,223.925a31.961,31.961,0,0,0-5.311-1.476c-.365-.06-.478-.194-.345-.576.434-1.243.844-2.495,1.241-3.751.112-.356.229-.463.627-.323,1.711.6,3.436,1.161,5.156,1.736A33.749,33.749,0,0,1,756.129,223.925Z" transform="translate(-120.421 -24.92)" fill="#edf3fb"/>
      <path id="Trazado_636159" data-name="Trazado 636159" d="M790.463,209.446c.446-1.341.9-2.679,1.332-4.023a9.163,9.163,0,0,0,.2-.941c.735.223,1.471.443,2.2.671a.649.649,0,0,1,.478.965c-.4,1.148-.761,2.307-1.123,3.466-.187.6-.519.781-1.123.539C791.789,209.866,791.12,209.669,790.463,209.446Z" transform="translate(-148.449 -15.64)" fill="#314c63"/>
      <path id="Trazado_636160" data-name="Trazado 636160" d="M769.448,228.114a33.748,33.748,0,0,0,1.369-4.39c.824.263,1.643.545,2.475.779.39.11.442.282.319.64-.429,1.24-.849,2.484-1.236,3.738-.124.4-.261.437-.622.26C771,228.771,770.218,228.453,769.448,228.114Z" transform="translate(-133.74 -29.109)" fill="#d9e9f8"/>
      <path id="Trazado_636161" data-name="Trazado 636161" d="M688.356,255.407a24.7,24.7,0,0,1,6.424,4.709,23.623,23.623,0,0,1,6.617,14.075,23.746,23.746,0,0,1-18,25.655c-.144.036-.282.093-.423.14a38.353,38.353,0,0,1-4.6.5,22.435,22.435,0,0,1-9.548-1.757c-8.2-3.542-13.133-9.768-14.524-18.558a22.773,22.773,0,0,1,5.181-18.585,23.727,23.727,0,0,1,28.253-6.437C687.939,255.245,688.149,255.322,688.356,255.407Zm-10.8,23.87a2.446,2.446,0,0,0,2.528-1.342,2.408,2.408,0,0,0-.21-2.8,2.344,2.344,0,0,0-2.618-.949,2.534,2.534,0,0,0-2.075,2.594A2.584,2.584,0,0,0,677.561,279.277Zm12.007-20.487a17.819,17.819,0,0,0-3.457-1.9c-.419-.2-.583-.111-.727.332q-2.416,7.424-4.874,14.833a.569.569,0,0,0,.2.761,4.771,4.771,0,0,1,1.948,3.863c.006.274.043.462.353.561,2.68.858,5.355,1.73,8.031,2.6,2.284.768,4.573,1.523,6.849,2.314.525.182.706.1.834-.469a21.245,21.245,0,0,0-2.848-16.536A19.471,19.471,0,0,0,689.569,258.79Zm1.048,23.361q-4.167-1.4-8.333-2.8c-.309-.1-.441.054-.6.271a4.135,4.135,0,0,1-1.712,1.411.628.628,0,0,0-.427.8c.117.814.217,1.632.29,2.451.081.906-.268,1.42-.963,1.489-.719.071-1.174-.407-1.278-1.332-.089-.793-.218-1.582-.267-2.378-.027-.443-.215-.556-.617-.647a4.782,4.782,0,0,1-3.5-6.228.83.83,0,0,0-.295-1.059c-2.1-1.885-4.174-3.792-6.256-5.693-.313-.286-.638-.562-.921-.876a1,1,0,0,1-.131-1.246,1.082,1.082,0,0,1,1.051-.585,1.556,1.556,0,0,1,.954.539c2.229,2.037,4.467,4.063,6.686,6.111.352.325.6.467,1.065.142a3.865,3.865,0,0,1,2.334-.67.58.58,0,0,0,.682-.481q2.426-7.45,4.91-14.88c.169-.5-.044-.575-.417-.663a22.562,22.562,0,0,0-3.318-.539,21.466,21.466,0,0,0-9.953,1.552c-.452.184-.4.368-.219.7q.479.886.911,1.8a1.127,1.127,0,1,1-2,1q-.49-.923-.938-1.867c-.138-.289-.245-.427-.6-.213a21.4,21.4,0,0,0-8.842,10.232c-.148.353-.085.466.267.569.74.216,1.475.455,2.195.73a1.113,1.113,0,1,1-.747,2.1c-.716-.209-1.435-.419-2.128-.69-.41-.161-.507-.032-.6.34a21.6,21.6,0,0,0,.965,13.348c.184.463.372.467.754.249.583-.332,1.19-.624,1.8-.913a1.129,1.129,0,1,1,1.033,1.989c-.636.341-1.28.667-1.935.97-.314.146-.4.271-.2.6a21.479,21.479,0,0,0,10.236,8.84c.421.176.509.022.612-.315.218-.714.441-1.427.7-2.126a1.116,1.116,0,1,1,2.112.714c-.2.692-.41,1.385-.668,2.057-.164.427-.128.582.367.7a22,22,0,0,0,4.736.606,19.538,19.538,0,0,0,7.812-1.367c1.388-.368,1.388-.368.751-1.381-.2-.422-.389-.846-.592-1.266-.377-.78-.311-1.348.211-1.717s1.083-.242,1.68.382c.335.691.688,1.375,1,2.078.165.377.319.393.657.18a24.006,24.006,0,0,0,3.177-2.349,21.15,21.15,0,0,0,5.53-7.775c.1-.233.38-.505-.151-.671C695.19,283.642,692.9,282.89,690.616,282.151Z" transform="translate(-52.929 -49.557)" fill="#030303"/>
      <path id="Trazado_636162" data-name="Trazado 636162" d="M692.589,298.209q-.9-.936-1.68-.382c-.521.369-.588.937-.211,1.717.2.419.4.844.592,1.266a2.624,2.624,0,0,0-.751,1.381,19.538,19.538,0,0,1-7.812,1.367,22,22,0,0,1-4.736-.606c-.5-.115-.531-.27-.367-.7.259-.672.464-1.366.668-2.057a1.116,1.116,0,1,0-2.112-.714c-.258.7-.481,1.413-.7,2.126-.1.338-.191.492-.612.315a21.479,21.479,0,0,1-10.236-8.84c-.2-.33-.113-.455.2-.6.654-.3,1.3-.629,1.935-.97a1.129,1.129,0,1,0-1.033-1.988c-.606.289-1.213.581-1.8.913-.382.218-.57.213-.754-.249a21.6,21.6,0,0,1-.965-13.348c.089-.372.186-.5.6-.34.693.271,1.412.481,2.128.69a1.113,1.113,0,1,0,.747-2.1c-.72-.275-1.455-.513-2.195-.73-.352-.1-.415-.216-.267-.569a21.4,21.4,0,0,1,8.842-10.232c.351-.214.459-.076.6.213q.451.942.938,1.867a1.127,1.127,0,1,0,2-1q-.432-.91-.911-1.8c-.179-.331-.234-.514.219-.7a21.466,21.466,0,0,1,9.953-1.552,22.554,22.554,0,0,1,3.318.539c.374.087.586.159.417.663q-2.488,7.429-4.91,14.88a.58.58,0,0,1-.682.481,3.865,3.865,0,0,0-2.334.67c-.465.325-.714.183-1.065-.142-2.219-2.047-4.457-4.074-6.686-6.111a1.556,1.556,0,0,0-.954-.539,1.082,1.082,0,0,0-1.051.585,1,1,0,0,0,.131,1.246c.283.314.608.59.921.876,2.082,1.9,4.159,3.808,6.256,5.693a.83.83,0,0,1,.295,1.059,4.782,4.782,0,0,0,3.5,6.228c.4.091.59.2.617.647.048.8.177,1.585.267,2.378.1.925.559,1.4,1.278,1.332.695-.069,1.044-.582.963-1.489-.073-.819-.174-1.637-.29-2.451a.628.628,0,0,1,.427-.8,4.136,4.136,0,0,0,1.712-1.411c.162-.217.295-.376.6-.271q4.164,1.409,8.333,2.8c-.325,1.573-.684,3.137-1.134,4.68C694.193,294.214,693.329,296.188,692.589,298.209Z" transform="translate(-58.244 -54.868)" fill="#eef4fc"/>
      <path id="Trazado_636163" data-name="Trazado 636163" d="M752.751,288.818c-2.676-.868-5.351-1.741-8.031-2.6-.309-.1-.347-.287-.353-.561a4.77,4.77,0,0,0-1.948-3.863.569.569,0,0,1-.2-.761q2.454-7.411,4.874-14.833c.144-.443.308-.53.727-.332a17.826,17.826,0,0,1,3.457,1.9c.026.121.046.243.08.361a50.3,50.3,0,0,1,1.852,12.076A61.811,61.811,0,0,1,752.751,288.818Z" transform="translate(-114.636 -58.539)" fill="#d85e6a"/>
      <path id="Trazado_636164" data-name="Trazado 636164" d="M774.028,293.487a61.811,61.811,0,0,0,.456-8.61,50.3,50.3,0,0,0-1.852-12.076c-.034-.118-.053-.24-.08-.361a19.47,19.47,0,0,1,6.31,6.356,21.245,21.245,0,0,1,2.848,16.536c-.128.57-.309.651-.834.469C778.6,295.01,776.313,294.255,774.028,293.487Z" transform="translate(-135.913 -63.208)" fill="#d14752"/>
      <path id="Trazado_636165" data-name="Trazado 636165" d="M764.909,361.043c.739-2.021,1.6-4,2.207-6.066.45-1.543.808-3.107,1.134-4.68,2.289.74,4.573,1.492,6.869,2.209.53.166.248.438.151.671a21.149,21.149,0,0,1-5.53,7.775,24,24,0,0,1-3.177,2.349c-.338.213-.492.2-.657-.18C765.6,362.417,765.244,361.734,764.909,361.043Z" transform="translate(-130.563 -117.702)" fill="#dbebfa"/>
      <path id="Trazado_636166" data-name="Trazado 636166" d="M726.991,328.847a2.584,2.584,0,0,1-2.375-2.5,2.534,2.534,0,0,1,2.076-2.594A3.945,3.945,0,0,1,726.991,328.847Z" transform="translate(-102.359 -99.126)" fill="#f6d47f"/>
      <path id="Trazado_636167" data-name="Trazado 636167" d="M731.836,328.622a3.945,3.945,0,0,0-.3-5.09,2.344,2.344,0,0,1,2.618.949,2.409,2.409,0,0,1,.21,2.8A2.446,2.446,0,0,1,731.836,328.622Z" transform="translate(-107.204 -98.902)" fill="#edb767"/>
      <path id="Trazado_636168" data-name="Trazado 636168" d="M758.078,396.161a2.624,2.624,0,0,1,.751-1.381C759.466,395.793,759.466,395.793,758.078,396.161Z" transform="translate(-125.782 -148.838)" fill="#d9e9f8"/>
    </g>
  </g>
</svg>
