<svg xmlns="http://www.w3.org/2000/svg" width="102" height="102" viewBox="0 0 102 102">
  <g id="Grupo_964905" data-name="Grupo 964905" transform="translate(3875 64.373)">
    <circle id="Elipse_7778" data-name="Elipse 7778" cx="51" cy="51" r="51" transform="translate(-3875 -64.373)" fill="#449c6e"/>
    <g id="Grupo_964902" data-name="Grupo 964902" transform="translate(-4818.201 -232.542)">
      <path id="Trazado_636169" data-name="Trazado 636169" d="M962.895,204.175V202.15a1.129,1.129,0,0,0,.974-1.279c-.014-2.732-.008-5.464,0-8.2,0-.965.358-1.319,1.336-1.319q16.5,0,33-.011c.444,0,.569.106.566.56-.022,2.892.014,5.785-.024,8.677a3.72,3.72,0,0,0,1.112,2.915,2,2,0,0,0,2.222,2.195q4.744.005,9.489,0v4.856a18.367,18.367,0,0,0-6.168-1.148q-11.514,0-23.029,0a2.8,2.8,0,0,0-.344.01.958.958,0,0,0-.9.887.947.947,0,0,0,.724,1.1,2.592,2.592,0,0,0,.748.067q6.55.005,13.1.006a1.229,1.229,0,0,1,.742.1,17.349,17.349,0,0,0-3.461,2.456,1.373,1.373,0,0,1-1.038.4c-3.1-.016-6.205-.008-9.308-.009a2.1,2.1,0,0,0-.883.1.966.966,0,0,0-.629,1.04.943.943,0,0,0,.811.9,4.216,4.216,0,0,0,.755.037c2.413,0,4.827,0,7.24.006.194,0,.41-.083.594.087a.689.689,0,0,1-.066.188,17.633,17.633,0,0,0-3.106,6.757c-.09.4-.305.375-.584.374q-2.172,0-4.344,0c-.842,0-1.328.406-1.309,1.068.018.636.482,1,1.3,1,1.333,0,2.666.021,4-.01.443-.01.538.126.508.544a15.026,15.026,0,0,0-.01,1.928c.024.418-.076.555-.518.546-1.355-.03-2.712-.009-4.068-.012a1.13,1.13,0,0,0-.889.281.973.973,0,0,0-.266,1.071,1.082,1.082,0,0,0,1.137.718c1.448,0,2.9.017,4.344-.01.427-.008.587.119.677.544a17.5,17.5,0,0,0,2.972,6.669c.094.13.3.243.157.5h-2.322c-1.976,0-3.953-.009-5.93.008a1.009,1.009,0,0,0-1.092,1,1.048,1.048,0,0,0,1.039,1.066,5.87,5.87,0,0,0,.62.01q4.585,0,9.17,0c.244,0,.516-.087.726.113a20.641,20.641,0,0,0,3.912,2.823H982.655a3.053,3.053,0,0,0-.687.025.979.979,0,0,0-.857,1.078.966.966,0,0,0,.979.961c.16.013.322,0,.482,0q11.239,0,22.477,0c.642,0,1.285-.038,1.926-.091a18.386,18.386,0,0,0,4.581-1.054v11.476a19.691,19.691,0,0,1-3.7.137q-20.233.009-40.465,0a17.662,17.662,0,0,1-3.5-.138c-.009-.3-.026-.6-.026-.893q0-24.792.009-49.584C963.874,204.916,963.683,204.375,962.895,204.175Zm15.162,38.119c0-.734.012-1.469,0-2.2a2.328,2.328,0,0,0-2.4-2.388c-1.446-.018-2.893-.014-4.339,0a2.308,2.308,0,0,0-2.436,2.348q-.059,2.236,0,4.476a2.309,2.309,0,0,0,2.43,2.357c1.446.02,2.893.024,4.339,0a2.332,2.332,0,0,0,2.409-2.452C978.065,243.718,978.057,243.006,978.057,242.295Zm0-29.314c0-.734.01-1.469,0-2.2a2.331,2.331,0,0,0-2.433-2.426q-2.169-.028-4.339,0a2.292,2.292,0,0,0-2.4,2.31c-.045,1.514-.043,3.031,0,4.544a2.287,2.287,0,0,0,2.322,2.321c1.515.031,3.031.034,4.546,0a2.313,2.313,0,0,0,2.305-2.343C978.072,214.451,978.056,213.716,978.057,212.981Zm-4.605,19.065c.734,0,1.469.011,2.2,0a2.305,2.305,0,0,0,2.4-2.376q.028-2.2,0-4.406a2.275,2.275,0,0,0-2.337-2.36q-2.237-.037-4.476,0a2.249,2.249,0,0,0-2.356,2.267c-.049,1.536-.05,3.076,0,4.612a2.268,2.268,0,0,0,2.364,2.265C971.982,232.058,972.717,232.046,973.452,232.046Z" transform="translate(-2.9 -5.412)" fill="#f6f4f4"/>
      <path id="Trazado_636170" data-name="Trazado 636170" d="M959.994,198.764c.789.2.979.741.978,1.5q-.02,24.792-.009,49.584c0,.3.017.6.026.893-.08,1.327.222,1.658,1.523,1.658h44.629c1.306,0,1.6-.327,1.514-1.657V239.268a18.385,18.385,0,0,1-4.581,1.054c-.64.054-1.284.091-1.926.091q-11.239.01-22.477,0c-.161,0-.323.008-.482,0a.966.966,0,0,1-.979-.961.979.979,0,0,1,.857-1.078,3.053,3.053,0,0,1,.687-.025h13.914a20.642,20.642,0,0,1-3.912-2.823c-.211-.2-.482-.112-.726-.113q-4.585-.008-9.17,0a5.871,5.871,0,0,1-.62-.01,1.048,1.048,0,0,1-1.039-1.066,1.009,1.009,0,0,1,1.092-1c1.976-.017,3.953-.007,5.93-.008h2.322c.142-.255-.063-.368-.157-.5a17.5,17.5,0,0,1-2.972-6.669c-.09-.425-.25-.551-.677-.544-1.447.027-2.9.01-4.344.01a1.082,1.082,0,0,1-1.137-.718.973.973,0,0,1,.266-1.071,1.13,1.13,0,0,1,.889-.281c1.356,0,2.712-.018,4.068.012.442.01.542-.128.518-.546a15,15,0,0,1,.01-1.928c.03-.419-.064-.555-.508-.544-1.332.03-2.666.014-4,.01-.82,0-1.283-.363-1.3-1-.02-.663.467-1.066,1.309-1.068q2.172-.006,4.344,0c.279,0,.495.027.584-.374a17.635,17.635,0,0,1,3.106-6.757.689.689,0,0,0,.066-.188c-.184-.17-.4-.086-.594-.087-2.413-.007-4.826,0-7.24-.006a4.216,4.216,0,0,1-.755-.037.943.943,0,0,1-.811-.9.966.966,0,0,1,.629-1.04,2.1,2.1,0,0,1,.883-.1c3.1,0,6.206-.007,9.308.009a1.373,1.373,0,0,0,1.038-.4,17.35,17.35,0,0,1,3.461-2.456,1.228,1.228,0,0,0-.742-.1q-6.55-.007-13.1-.006a2.592,2.592,0,0,1-.748-.067.947.947,0,0,1-.724-1.1.958.958,0,0,1,.9-.887,2.8,2.8,0,0,1,.344-.01q11.514,0,23.029,0a18.366,18.366,0,0,1,6.168,1.148v-4.856a5.781,5.781,0,0,1,.031-.752c.108-.642-.166-.778-.776-.77-2.839.033-5.679,0-8.518.026a3.981,3.981,0,0,1-2.449-.7,3.72,3.72,0,0,1-1.112-2.915c.038-2.892,0-5.785.024-8.677,0-.454-.122-.56-.566-.56q-16.5.019-33,.011c-.977,0-1.334.354-1.336,1.319,0,2.732-.01,5.464,0,8.2a1.129,1.129,0,0,1-.974,1.279c-.844-.159-1.1-.447-1.1-1.287,0-2.8-.012-5.606,0-8.409a3.081,3.081,0,0,1,3.19-3.165q17.269-.01,34.537-.01a1.6,1.6,0,0,1,1.214.521q6.207,6.222,12.432,12.426a1.587,1.587,0,0,1,.5,1.222c-.016,2.5,0,5.009-.015,7.513a.8.8,0,0,0,.456.81,18.049,18.049,0,0,1,8.86,12.125c.225,1,.059,1.356-.766,1.7-.757.018-1.1-.4-1.244-1.1a16.077,16.077,0,0,0-21.4-12.021,15.559,15.559,0,0,0-10.468,13.183,14.721,14.721,0,0,0,1.514,9c.09.208.165.424.273.623a16.182,16.182,0,0,0,23.083,5.853,15.2,15.2,0,0,0,5.781-6.747,14.314,14.314,0,0,0,1.478-5.49c.061-.714.336-1.166,1.092-1.229.854.237,1.057.508.977,1.424a17.817,17.817,0,0,1-2.562,7.9c-.24.39-.279.633.1.969.638.559,1.216,1.186,1.81,1.794a.392.392,0,0,0,.574.1,1.014,1.014,0,0,1,1.311.233c2.208,2.21,4.448,4.39,6.612,6.644a4.884,4.884,0,0,1-6.872,6.924c-2.277-2.171-4.469-4.433-6.7-6.656a.987.987,0,0,1-.233-1.252.432.432,0,0,0-.094-.632c-.646-.621-1.284-1.251-1.9-1.9-.238-.252-.4-.2-.689-.08a1.562,1.562,0,0,0-1.016,1.745c.058,3.859.027,7.718.024,11.578a3.121,3.121,0,0,1-3.411,3.426q-22.506,0-45.012,0a3.14,3.14,0,0,1-3.444-3.47q0-25.362,0-50.724C958.891,199.222,959.046,199.011,959.994,198.764Zm57.242,38.614c.12-.1.248-.2.36-.31.971-.96.977-.968.022-1.9-.438-.429-.842-1.219-1.332-1.184-.532.038-.9.826-1.321,1.3-1.191.938-1.191.938-.169,1.955l.242.241C1016.173,238.615,1016.173,238.615,1017.236,237.378Zm.69,2.34c-.267.248-.523.509-.8.741s-.247.411,0,.658c1.873,1.852,3.713,3.737,5.605,5.569a2.815,2.815,0,0,0,3.875-4.079c-1.81-1.855-3.661-3.669-5.488-5.508-.21-.212-.35-.3-.6-.035C1019.666,237.961,1018.792,238.835,1017.927,239.718Zm-20.006-52.254c0,2.7,0,5.29,0,7.88,0,1.022.339,1.361,1.36,1.362q3.654,0,7.308,0c.166,0,.366.093.489-.077Z" fill="#020202"/>
      <path id="Trazado_636171" data-name="Trazado 636171" d="M1090.5,280.272c-.755.063-1.031.515-1.092,1.229a14.313,14.313,0,0,1-1.478,5.49c-.233-.018-.3.163-.4.318a15.6,15.6,0,0,1-3.311,3.658,17.209,17.209,0,0,1-24.758-3.067c-.181-.242-.3-.581-.67-.639a14.722,14.722,0,0,1-1.514-9,15.559,15.559,0,0,1,10.468-13.183,16.077,16.077,0,0,1,21.4,12.021c.143.7.486,1.122,1.244,1.1C1090.285,278.9,1090.614,279.574,1090.5,280.272Zm-28.685,4.749a15.672,15.672,0,0,0,.888,1.835c-.523.711-.54,1.058.005,1.71,3.521,4.208,8.016,5.909,13.385,4.835a13.472,13.472,0,1,0-15.739-9.368C1060.6,284.872,1060.9,285.077,1061.811,285.021Z" transform="translate(-71.089 -58.019)" fill="#dbc9dd"/>
      <path id="Trazado_636172" data-name="Trazado 636172" d="M1014.132,425.9c.09,1.33-.208,1.657-1.514,1.657H967.989c-1.3,0-1.6-.33-1.523-1.658a17.664,17.664,0,0,0,3.5.138q20.233.008,40.465,0A19.691,19.691,0,0,0,1014.132,425.9Z" transform="translate(-5.477 -175.158)" fill="#e8daea"/>
      <path id="Trazado_636173" data-name="Trazado 636173" d="M993.656,363.68c0,.711.008,1.423,0,2.135a2.332,2.332,0,0,1-2.409,2.452c-1.446.025-2.893.022-4.339,0a2.309,2.309,0,0,1-2.43-2.357q-.056-2.237,0-4.476a2.308,2.308,0,0,1,2.436-2.348c1.446-.013,2.893-.017,4.339,0a2.328,2.328,0,0,1,2.4,2.388C993.668,362.21,993.656,362.945,993.656,363.68Zm-7.066,1.029c-.018.227-.025.456-.055.682-.081.619.146.867.8.83.938-.053,1.882,0,2.824-.017,1.479-.033,1.483.376,1.4-1.487.008-1.009.008-2.018.029-3.026.008-.378-.131-.542-.519-.539q-2,.016-3.992,0c-.333,0-.53.105-.522.466C986.577,362.648,986.479,363.679,986.59,364.708Z" transform="translate(-18.5 -126.797)" fill="#040404"/>
      <path id="Trazado_636174" data-name="Trazado 636174" d="M993.651,257.484c0,.735.015,1.47,0,2.2a2.313,2.313,0,0,1-2.306,2.343c-1.514.035-3.031.031-4.546,0a2.287,2.287,0,0,1-2.322-2.321c-.041-1.514-.044-3.031,0-4.544a2.292,2.292,0,0,1,2.4-2.31q2.169-.031,4.339,0a2.331,2.331,0,0,1,2.433,2.426C993.661,256.015,993.652,256.75,993.651,257.484Zm-7.069.975c-.017.227-.021.455-.052.679-.092.662.182.884.846.847.934-.052,1.873-.013,2.81-.013,1.458,0,1.458,0,1.369-1.506.008-1.006.005-2.012.028-3.018.009-.388-.155-.532-.528-.53-1.327.008-2.654.01-3.981,0-.381,0-.541.151-.534.529C986.561,256.45,986.569,257.454,986.582,258.459Z" transform="translate(-18.495 -49.915)" fill="#040404"/>
      <path id="Trazado_636175" data-name="Trazado 636175" d="M989.043,314.651c-.735,0-1.469.012-2.2,0a2.268,2.268,0,0,1-2.364-2.265c-.051-1.536-.05-3.076,0-4.612a2.249,2.249,0,0,1,2.356-2.267q2.238-.033,4.476,0a2.275,2.275,0,0,1,2.337,2.36q.029,2.2,0,4.406a2.305,2.305,0,0,1-2.4,2.376C990.513,314.662,989.778,314.651,989.043,314.651Zm-2.466-3.612c-.016.25-.016.5-.052.749-.093.64.174.838.807.8.937-.051,1.878-.013,2.818-.013,1.49,0,1.49,0,1.4-1.532.007-.985.009-1.971.026-2.956.005-.328-.075-.518-.455-.515q-2.063.017-4.127,0c-.323,0-.461.128-.457.443C986.554,309.024,986.565,310.031,986.578,311.038Z" transform="translate(-18.492 -88.016)" fill="#040402"/>
      <path id="Trazado_636176" data-name="Trazado 636176" d="M1096.641,235.328a3.981,3.981,0,0,0,2.449.7c2.839-.03,5.679.007,8.518-.026.61-.007.883.128.776.77a5.749,5.749,0,0,0-.031.752q-4.744,0-9.489,0A2,2,0,0,1,1096.641,235.328Z" transform="translate(-99.692 -37.242)" fill="#e5d8e7"/>
      <path id="Trazado_636177" data-name="Trazado 636177" d="M1100.156,196.888l9.159,9.161c-.123.17-.324.077-.489.077q-3.654.011-7.308,0c-1.021,0-1.359-.34-1.36-1.362C1100.154,202.178,1100.156,199.587,1100.156,196.888Z" transform="translate(-102.236 -9.423)" fill="#dbc9dd"/>
      <path id="Trazado_636178" data-name="Trazado 636178" d="M1172.563,378.617c.865-.883,1.739-1.757,2.589-2.654.252-.266.392-.177.6.035,1.826,1.839,3.678,3.653,5.488,5.508a2.721,2.721,0,0,1,.046,3.887,4.086,4.086,0,0,1-3.394-1.486C1176.145,382.116,1174.343,380.377,1172.563,378.617Z" transform="translate(-154.636 -138.899)" fill="#e8555a"/>
      <path id="Trazado_636179" data-name="Trazado 636179" d="M1063.165,347.375c.37.057.489.4.669.639a17.209,17.209,0,0,0,24.758,3.067,15.6,15.6,0,0,0,3.31-3.658c.1-.155.166-.337.4-.318a15.2,15.2,0,0,1-5.781,6.747A16.182,16.182,0,0,1,1063.438,348C1063.331,347.8,1063.255,347.583,1063.165,347.375Z" transform="translate(-75.466 -118.132)" fill="#d1b7d2"/>
      <path id="Trazado_636180" data-name="Trazado 636180" d="M1169.938,386c1.78,1.76,3.582,3.5,5.331,5.289a4.086,4.086,0,0,0,3.394,1.486,2.708,2.708,0,0,1-3.921.192c-1.892-1.832-3.733-3.717-5.605-5.569-.249-.247-.285-.424,0-.658S1169.671,386.249,1169.938,386Z" transform="translate(-152.011 -146.283)" fill="#e54143"/>
      <path id="Trazado_636181" data-name="Trazado 636181" d="M1161.846,366.537c.424-.474.788-1.262,1.321-1.3.49-.035.893.755,1.332,1.184.955.934.949.942-.022,1.9-.112.111-.24.207-.36.31C1163.276,368.024,1162.7,367.125,1161.846,366.537Z" transform="translate(-146.88 -131.254)" fill="#e5d8e7"/>
      <path id="Trazado_636182" data-name="Trazado 636182" d="M1159.448,369.946c.859.588,1.43,1.488,2.271,2.1-1.063,1.237-1.063,1.237-2.2.1l-.242-.242C1158.258,370.884,1158.258,370.884,1159.448,369.946Z" transform="translate(-144.483 -134.664)" fill="#dbc9dd"/>
      <path id="Trazado_636183" data-name="Trazado 636183" d="M1068.8,292.135c-.907.056-1.21-.149-1.461-.988a13.5,13.5,0,1,1,15.739,9.368c-5.37,1.073-9.864-.627-13.385-4.835-.545-.651-.528-1-.005-1.71.847-.307,1.07-.222,1.707.518a11.088,11.088,0,0,0,11.874,3.842,10.664,10.664,0,0,0,7.377-6.295l.119-.281.043-.019,0-.047.017-.028.055-.187a10.491,10.491,0,0,0,.725-5.522,11.414,11.414,0,0,0-21.8-3.165,11.7,11.7,0,0,0-.312,8.4A1.528,1.528,0,0,1,1068.8,292.135Z" transform="translate(-78.078 -65.133)" fill="#040403"/>
      <path id="Trazado_636184" data-name="Trazado 636184" d="M1074.1,337.5a1.528,1.528,0,0,0,.7-.944c.162.219.332.433.487.657a11.741,11.741,0,0,0,3.063,3.116,12.475,12.475,0,0,0,16.729-2.128c.244-.29.362-.777.87-.8a10.664,10.664,0,0,1-7.377,6.295,11.088,11.088,0,0,1-11.874-3.842c-.636-.739-.86-.824-1.707-.518A15.649,15.649,0,0,1,1074.1,337.5Z" transform="translate(-83.381 -110.503)" fill="#eecb6a"/>
      <path id="Trazado_636185" data-name="Trazado 636185" d="M992.055,370.143c-.112-1.029-.013-2.061-.036-3.091-.008-.361.188-.468.522-.466q2,.013,3.992,0c.388,0,.527.161.519.539-.021,1.009-.021,2.018-.029,3.026Z" transform="translate(-23.965 -132.231)" fill="#a4d584"/>
      <path id="Trazado_636186" data-name="Trazado 636186" d="M992.013,379.462l4.968.007c.086,1.864.083,1.454-1.4,1.487-.941.021-1.885-.035-2.824.017-.657.037-.884-.211-.8-.83C991.987,379.918,991.995,379.689,992.013,379.462Z" transform="translate(-23.922 -141.55)" fill="#8fc66b"/>
      <path id="Trazado_636187" data-name="Trazado 636187" d="M992.075,263.9c-.013-1-.022-2.01-.042-3.014-.007-.377.152-.532.534-.529,1.327.011,2.654.009,3.981,0,.373,0,.537.142.528.53-.023,1.006-.02,2.012-.028,3.018Z" transform="translate(-23.988 -55.353)" fill="#a4d584"/>
      <path id="Trazado_636188" data-name="Trazado 636188" d="M992,273.176l4.973.007c.089,1.506.089,1.506-1.369,1.506-.937,0-1.876-.039-2.81.013-.664.037-.938-.185-.846-.847C991.984,273.631,991.988,273.4,992,273.176Z" transform="translate(-23.918 -64.632)" fill="#8fc66b"/>
      <path id="Trazado_636189" data-name="Trazado 636189" d="M992.08,316.5c-.012-1.007-.023-2.014-.038-3.021,0-.315.134-.445.457-.443q2.064.015,4.127,0c.381,0,.461.187.455.515-.017.985-.019,1.97-.026,2.956Z" transform="translate(-23.994 -93.48)" fill="#a4d584"/>
      <path id="Trazado_636190" data-name="Trazado 636190" d="M992,325.574l4.975.007c.087,1.532.087,1.532-1.4,1.532-.939,0-1.881-.038-2.818.013-.633.035-.9-.163-.807-.8C991.981,326.076,991.981,325.824,992,325.574Z" transform="translate(-23.911 -102.552)" fill="#8fc66b"/>
      <path id="Trazado_636191" data-name="Trazado 636191" d="M1096.12,297.418c-.508.024-.626.511-.87.8a12.475,12.475,0,0,1-16.729,2.128,11.74,11.74,0,0,1-3.063-3.116c-.155-.224-.324-.439-.487-.657a11.7,11.7,0,0,1,.312-8.4,11.414,11.414,0,0,1,21.8,3.165,10.493,10.493,0,0,1-.725,5.522.133.133,0,0,0-.055.187l-.017.028-.1-.018.056.084Zm-14.471-7.742a3.038,3.038,0,0,0-2.776,1.881,3,3,0,0,0,.572,3.5c.942,1,1.942,1.952,2.947,2.892a3.161,3.161,0,0,0,4.569-.068q2.725-2.726,5.384-5.517a3.209,3.209,0,1,0-4.618-4.457c-.894.89-1.789,1.782-2.64,2.712-.364.4-.584.5-.993.043A3.108,3.108,0,0,0,1081.649,289.676Z" transform="translate(-83.554 -70.517)" fill="#f9e088"/>
      <path id="Trazado_636192" data-name="Trazado 636192" d="M1153.776,337.77a.133.133,0,0,1,.055-.187Z" transform="translate(-141.026 -111.243)" fill="#eecb6a"/>
      <path id="Trazado_636193" data-name="Trazado 636193" d="M1153.448,338.38l-.056-.084.1.018,0,.047Z" transform="translate(-140.763 -111.759)" fill="#eecb6a"/>
      <path id="Trazado_636194" data-name="Trazado 636194" d="M1092.67,304.315a3.108,3.108,0,0,1,2.446.99c.409.458.629.354.993-.043.852-.93,1.746-1.822,2.641-2.712a3.209,3.209,0,1,1,4.618,4.457q-2.661,2.789-5.384,5.517a3.162,3.162,0,0,1-4.569.068c-1.005-.94-2.005-1.89-2.947-2.892a3,3,0,0,1-.572-3.5A3.038,3.038,0,0,1,1092.67,304.315Zm9.353-.151a1.091,1.091,0,0,0-1.849-.107c-1.227,1.233-2.427,2.493-3.65,3.732a1.1,1.1,0,0,1-1.781.025c-.385-.359-.742-.75-1.14-1.094a1.087,1.087,0,0,0-1.848.49.977.977,0,0,0,.3,1.169c.913.9,1.824,1.806,2.759,2.685a1.113,1.113,0,0,0,1.708-.015q2.684-2.711,5.329-5.462A1.04,1.04,0,0,0,1102.023,304.164Z" transform="translate(-94.575 -85.156)" fill="#040402"/>
      <path id="Trazado_636195" data-name="Trazado 636195" d="M1097.479,312.6a1.087,1.087,0,0,1,1.848-.49c.4.343.755.734,1.14,1.094a1.1,1.1,0,0,0,1.781-.025c1.223-1.238,2.423-2.5,3.65-3.732a1.091,1.091,0,0,1,1.848.108,1.185,1.185,0,0,1-.161.368c-1.574,1.632-3.125,3.288-4.748,4.87a2.067,2.067,0,0,1-3.062-.14A27.587,27.587,0,0,0,1097.479,312.6Z" transform="translate(-100.298 -90.55)" fill="#a4d584"/>
      <path id="Trazado_636196" data-name="Trazado 636196" d="M1097.245,314.095a27.571,27.571,0,0,1,2.3,2.053,2.067,2.067,0,0,0,3.062.14c1.623-1.582,3.174-3.238,4.748-4.87a1.188,1.188,0,0,0,.161-.368,1.04,1.04,0,0,1-.168,1.424q-2.649,2.745-5.329,5.462a1.113,1.113,0,0,1-1.708.015c-.935-.879-1.846-1.783-2.759-2.685A.977.977,0,0,1,1097.245,314.095Z" transform="translate(-100.065 -92.04)" fill="#8fc66b"/>
    </g>
  </g>
</svg>
