<svg xmlns="http://www.w3.org/2000/svg" width="85" height="85" viewBox="0 0 85 85">
  <g id="Grupo_963262" data-name="Grupo 963262" transform="translate(-180 -6099)">
    <rect id="Rectángulo_34178" data-name="Rectángulo 34178" width="85" height="85" transform="translate(180 6099)" fill="none"/>
    <g id="Grupo_963606" data-name="Grupo 963606" transform="translate(851.84 6073.182)">
      <path id="Trazado_635614" data-name="Trazado 635614" d="M-620.67,98.053c-6.695,0-13.389.009-20.084-.016-.593,0-.7.164-.692.716.028,2.385-1.3,3.7-3.683,3.7-.711,0-1.427.046-2.13-.024a3.043,3.043,0,0,1-2.519-1.676.823.823,0,0,0-.892-.509c-1.88.019-3.76,0-5.64.017-.4,0-.552-.058-.545-.511.03-1.857.024-3.715,0-5.572,0-.4.062-.622.512-.532a.357.357,0,0,0,.069,0c1.834-.016,1.824-.015,1.64-1.882-.029-.294-.142-.328-.38-.322-.481.012-.964-.012-1.444.009-.291.012-.4-.066-.394-.378.014-1.949.021-3.9,0-5.847-.005-.456.249-.387.521-.387,1.857,0,3.714-.012,5.571.011.416.005.547-.086.534-.523-.035-1.145-.025-2.293,0-3.439.007-.356-.087-.481-.454-.459a4.521,4.521,0,0,1-1.635-.139,3.324,3.324,0,0,1-2.316-3.088c-.02-1.008-.024-2.018,0-3.026a.822.822,0,0,0-.453-.812,17.507,17.507,0,0,1-8.19-12.444,17.557,17.557,0,0,1,8-17.335,1.2,1.2,0,0,0,.648-1.187,7.763,7.763,0,0,1,4.792-7.46,7.77,7.77,0,0,1,8.655,1.3,3.039,3.039,0,0,0,.611.435,5.821,5.821,0,0,1,3.518,5.782,1.035,1.035,0,0,0,.583,1.083,13.681,13.681,0,0,1,3.013,2.377,1.274,1.274,0,0,0,1.024.4q14.96-.014,29.919-.021c.558,0,.721.108.713.7-.036,2.774-.016,5.549-.016,8.323,0,.9,0,.9.888.9a5.515,5.515,0,0,1,5.5,4.02,5.891,5.891,0,0,1,.214,1.629q0,15.271-.006,30.542a5.484,5.484,0,0,1-5.654,5.636Q-610.766,98.064-620.67,98.053Zm-.062-2.2q9.94,0,19.879,0a3.283,3.283,0,0,0,3.442-3.331c.012-8.255,0-16.51.015-24.765,0-.419-.094-.532-.525-.532q-16.1.02-32.191,0a.766.766,0,0,0-.761.421A18.407,18.407,0,0,1-634.9,72.21c-.69.576-1.8.8-2.069,1.661a9.814,9.814,0,0,0-.06,2.8c0,2.475-1.284,3.78-3.771,3.75-.588-.007-.643.209-.641.7q.023,7.017-.005,14.033c0,.559.112.715.7.713C-634.077,95.842-627.4,95.851-620.732,95.851Zm-10.478-47.333a2.3,2.3,0,0,0,.111.258,17.1,17.1,0,0,1,2.749,11.379c-.06.535.223.473.55.472,3.232,0,6.466-.043,9.7.023a1.711,1.711,0,0,0,1.9-1.151,5.334,5.334,0,0,1,5.259-3.278c2.086.007,4.173-.025,6.258.018.6.012.7-.175.692-.723q-.05-3.129,0-6.259c.009-.574-.091-.765-.727-.758-3.691.037-7.382.018-11.073.018Zm-14.651,20.913a11.046,11.046,0,0,0,10.259-6.99,1.146,1.146,0,0,0,0-.976,8.842,8.842,0,0,0-5.862-5,.62.62,0,0,0-.761.208,4.584,4.584,0,0,1-7.223-.006.574.574,0,0,0-.7-.21,8.853,8.853,0,0,0-5.9,4.957,1.2,1.2,0,0,0-.019,1.039A11.051,11.051,0,0,0-645.861,69.432Zm-8.154-24a15.331,15.331,0,0,0-6.531,17.588,15.466,15.466,0,0,0,15.915,10.779,15.364,15.364,0,0,0,14.149-14.146c.6-6.375-3.175-12.05-7.124-14.105a3.01,3.01,0,0,1,.531,2.253,1.078,1.078,0,0,0,.407,1.166,12.636,12.636,0,0,1,3.806,11.782A13.084,13.084,0,0,1-647.549,71.51a13.239,13.239,0,0,1-11.484-12.539,13.024,13.024,0,0,1,4.174-10.163c.172-.165.442-.287.341-.609A3.428,3.428,0,0,1-654.016,45.428Zm24.543,19.6H-598.1a2.031,2.031,0,0,1,.275,0c.333.046.43-.1.423-.423-.019-.939,0-1.879-.009-2.819a3.287,3.287,0,0,0-3.345-3.359q-5.19-.021-10.381,0a3.228,3.228,0,0,0-3.007,1.82,22.21,22.21,0,0,0-1,2.028.84.84,0,0,1-.941.56q-6.05-.024-12.1,0c-.246,0-.576-.147-.7.244C-629.073,63.707-629.263,64.337-629.473,65.029Zm-18.562,24.918q0,4.47,0,8.94c0,.98.391,1.359,1.381,1.366.6,0,1.192.011,1.788,0a1.11,1.11,0,0,0,1.228-1.241c.006-6.029,0-12.058.012-18.087,0-.393-.113-.5-.5-.492-1.123.024-2.247.034-3.369,0-.472-.016-.555.149-.553.578C-648.027,83.987-648.035,86.967-648.035,89.947Zm8.8-47.475a3.758,3.758,0,0,0-2.537-3.9,2.249,2.249,0,0,1-.657-.484,5.86,5.86,0,0,0-7.045-.886,6,6,0,0,0-2.841,6.474c.056.256.081.52.445.47.3-.04.618.055.748-.4a4.6,4.6,0,0,1,2.732-2.906.733.733,0,0,1,1.013.157,6.066,6.066,0,0,0,3.838,1.954A18.274,18.274,0,0,0-641,43c.472-.011.762.06.667.62-.054.321.047.5.428.524s.492-.121.54-.447A5.539,5.539,0,0,0-639.231,42.472Zm-9.9,4.361c0,.572-.011,1.145,0,1.717a3.311,3.311,0,0,0,3.292,3.268,3.306,3.306,0,0,0,3.3-3.256c.02-.915-.022-1.832.016-2.746.019-.463-.087-.612-.584-.626a8.286,8.286,0,0,1-4.547-1.527c-.626-.433-.789-.4-1.178.274a2.253,2.253,0,0,0-.308,1.179C-649.13,45.689-649.136,46.261-649.136,46.833Zm-3.3,27.927c0,.865-.029,1.662.009,2.456a1.056,1.056,0,0,0,1.163,1.017q5.433.015,10.867,0a1.083,1.083,0,0,0,1.158-1.169c.018-.527-.029-1.057.014-1.581.047-.575-.039-.746-.673-.511a16.9,16.9,0,0,1-8.788.823A22.144,22.144,0,0,1-652.432,74.76Zm2.194,17.788c0-1.674-.006-3.348,0-5.021,0-.317-.02-.5-.427-.492-1.192.027-2.384.022-3.576,0-.349-.006-.427.125-.409.438.033.567-.165,1.288.113,1.659.265.353,1.028.111,1.569.1.42-.01.541.1.535.531-.026,1.834-.03,3.669,0,5.5.009.49-.129.6-.606.6-1.627-.02-1.612,0-1.618,1.621,0,.427.079.6.553.579,1.1-.038,2.2-.033,3.3,0,.444.013.577-.106.57-.562C-650.255,95.85-650.238,94.2-650.238,92.549Zm-6.6-34.116a11.449,11.449,0,0,1,6.605-4.258c.43-.1.85-1.413.563-1.736-.741-.836-1.2-2.082-2.675-1.888a.4.4,0,0,1-.251-.1c-.437-.34-.724-.108-1.041.216a11.037,11.037,0,0,0-2.461,3.763A10.66,10.66,0,0,0-656.836,58.433Zm22.021.023a11.142,11.142,0,0,0-3.168-7.731c-.348-.361-.653-.564-1.156-.263a2.5,2.5,0,0,1-1.263.26,4.478,4.478,0,0,0-1.7,2.2c.2.695.349,1.436,1.321,1.437a1.814,1.814,0,0,1,.522.16A11.48,11.48,0,0,1-634.815,58.456Zm-10.991-2.233c1.457-.017,2.254-1,1.767-2.165-.1-.232-.171-.319-.443-.236a4.716,4.716,0,0,1-2.7.008c-.161-.046-.279-.1-.4.089a1.176,1.176,0,0,0,.312,1.824A2.375,2.375,0,0,0-645.806,56.222Zm-5.53-7.722c0-.638-.011-1.249,0-1.86.009-.379-.171-.35-.42-.236a1.031,1.031,0,0,0-.672,1.14A1.044,1.044,0,0,0-651.335,48.5Zm11-1.136a2.181,2.181,0,0,0,0,.408c.048.244-.166.638.146.7.332.07.63-.206.806-.524a1.038,1.038,0,0,0-.137-1.262c-.179-.211-.432-.418-.7-.333s-.081.393-.117.6A2.455,2.455,0,0,0-640.334,47.365Z" transform="translate(0)" fill="#020101"/>
      <path id="Trazado_635615" data-name="Trazado 635615" d="M-562.866,182.668c-6.672,0-13.344-.009-20.016.015-.585,0-.7-.154-.7-.713q.037-7.017,0-14.033c0-.488.054-.7.641-.7,2.486.03,3.77-1.275,3.771-3.75a9.817,9.817,0,0,1,.06-2.8c.266-.856,1.379-1.085,2.069-1.661a18.407,18.407,0,0,0,4.027-4.566.765.765,0,0,1,.761-.421q16.1.015,32.191,0c.431,0,.526.113.525.532-.013,8.255,0,16.51-.015,24.765a3.283,3.283,0,0,1-3.442,3.331Q-552.926,182.675-562.866,182.668Zm14.452-2.2c2.04,0,4.08-.014,6.12.011.446.005.572-.11.565-.562q-.04-2.75,0-5.5c.006-.449-.115-.565-.563-.563q-6.051.027-12.1,0c-.446,0-.571.109-.565.561q.04,2.75,0,5.5c-.006.449.114.569.564.563C-552.4,180.452-550.408,180.467-548.414,180.467Z" transform="translate(-57.866 -86.817)" fill="#e5e8eb"/>
      <path id="Trazado_635616" data-name="Trazado 635616" d="M-546.462,86.165h15.415c3.691,0,7.382.019,11.073-.018.635-.006.736.185.727.758q-.052,3.129,0,6.259c.009.548-.092.735-.692.723-2.085-.043-4.172-.012-6.258-.018a5.335,5.335,0,0,0-5.259,3.278,1.711,1.711,0,0,1-1.9,1.151c-3.231-.066-6.464-.026-9.7-.023-.327,0-.61.063-.55-.472a17.1,17.1,0,0,0-2.749-11.379A2.291,2.291,0,0,1-546.462,86.165Z" transform="translate(-84.749 -37.647)" fill="#ead0b6"/>
      <path id="Trazado_635617" data-name="Trazado 635617" d="M-626.67,127.884a11.051,11.051,0,0,1-10.2-6.974,1.2,1.2,0,0,1,.019-1.039,8.853,8.853,0,0,1,5.9-4.957.574.574,0,0,1,.7.21,4.584,4.584,0,0,0,7.223.006.62.62,0,0,1,.761-.208,8.842,8.842,0,0,1,5.862,5,1.146,1.146,0,0,1,0,.976A11.046,11.046,0,0,1-626.67,127.884Zm1.127-7.659c0-1.146,0-1.146-1.123-1.146-1.078,0-1.078,0-1.078,1.055,0,1.146,0,1.146,1.123,1.146C-625.543,121.28-625.543,121.28-625.543,120.226Zm-1.1,3.257c-1.106,0-1.106,0-1.106,1.1s0,1.106,1.095,1.106,1.106,0,1.106-1.1S-625.543,123.482-626.638,123.482Z" transform="translate(-19.191 -58.453)" fill="#ed8773"/>
      <path id="Trazado_635618" data-name="Trazado 635618" d="M-648.154,75.006a3.428,3.428,0,0,0-.5,2.771c.1.322-.169.444-.341.609a13.024,13.024,0,0,0-4.174,10.162,13.24,13.24,0,0,0,11.484,12.539A13.084,13.084,0,0,0-627,90.322a12.636,12.636,0,0,0-3.807-11.782,1.078,1.078,0,0,1-.407-1.166,3.01,3.01,0,0,0-.531-2.253c3.949,2.055,7.727,7.731,7.124,14.105a15.365,15.365,0,0,1-14.149,14.146,15.466,15.466,0,0,1-15.916-10.779A15.331,15.331,0,0,1-648.154,75.006Z" transform="translate(-5.862 -29.578)" fill="#f3c44e"/>
      <path id="Trazado_635619" data-name="Trazado 635619" d="M-540.162,128.731c.21-.692.4-1.322.593-1.951.12-.391.45-.244.7-.244q6.05-.012,12.1,0a.84.84,0,0,0,.941-.56,22.209,22.209,0,0,1,1-2.028,3.229,3.229,0,0,1,3.007-1.82q5.191-.015,10.381,0a3.287,3.287,0,0,1,3.345,3.359c.011.939-.01,1.88.009,2.819.007.326-.09.469-.423.423a2.031,2.031,0,0,0-.275,0h-31.376Zm20.027-4.4c-1.167,0-1.167,0-1.167,1.171,0,1.03,0,1.03,1.034,1.03,1.167,0,1.167,0,1.167-1.171C-519.1,124.328-519.1,124.328-520.135,124.328Zm4.3,2.2c1.141,0,1.141,0,1.141-1.129,0-1.073,0-1.073-1.06-1.073-1.141,0-1.141,0-1.141,1.129C-516.9,126.53-516.9,126.53-515.839,126.53Zm5.544-1.055c0-1.146,0-1.146-1.123-1.146-1.078,0-1.078,0-1.078,1.055,0,1.146,0,1.146,1.123,1.146C-510.3,126.53-510.3,126.53-510.3,125.475Z" transform="translate(-89.311 -63.702)" fill="#bbda89"/>
      <path id="Trazado_635620" data-name="Trazado 635620" d="M-607.5,211.452c0-2.98.008-5.96-.009-8.94,0-.429.081-.594.553-.578,1.122.037,2.246.028,3.369,0,.385-.008.5.1.5.492-.012,6.029-.006,12.058-.012,18.087a1.11,1.11,0,0,1-1.228,1.241c-.6.013-1.192.006-1.788,0-.99-.007-1.38-.386-1.381-1.366Q-607.506,215.922-607.5,211.452Z" transform="translate(-40.534 -121.505)" fill="#f5d67e"/>
      <path id="Trazado_635621" data-name="Trazado 635621" d="M-610.267,48.357a5.528,5.528,0,0,1-.129,1.229c-.047.326-.173.471-.54.447s-.482-.2-.428-.524c.094-.561-.195-.632-.667-.62a18.273,18.273,0,0,1-2.54-.053,6.066,6.066,0,0,1-3.838-1.954.733.733,0,0,0-1.013-.157,4.6,4.6,0,0,0-2.732,2.906c-.13.454-.453.359-.748.4-.365.049-.389-.215-.445-.47a6,6,0,0,1,2.841-6.474,5.86,5.86,0,0,1,7.045.886,2.25,2.25,0,0,0,.657.484A3.758,3.758,0,0,1-610.267,48.357Z" transform="translate(-28.964 -5.884)" fill="#656c76"/>
      <path id="Trazado_635622" data-name="Trazado 635622" d="M-611.479,71.026c0-.572.006-1.145,0-1.717a2.253,2.253,0,0,1,.308-1.179c.389-.674.552-.707,1.178-.274a8.287,8.287,0,0,0,4.547,1.527c.5.014.6.163.583.626-.038.914,0,1.831-.016,2.746a3.306,3.306,0,0,1-3.3,3.256,3.311,3.311,0,0,1-3.292-3.268C-611.49,72.171-611.479,71.6-611.479,71.026Z" transform="translate(-37.657 -24.193)" fill="#e9cfb5"/>
      <path id="Trazado_635623" data-name="Trazado 635623" d="M-623.449,181.38a22.145,22.145,0,0,0,3.75,1.034,16.9,16.9,0,0,0,8.788-.823c.634-.235.72-.064.673.511-.042.524,0,1.054-.014,1.581a1.083,1.083,0,0,1-1.158,1.169q-5.433.018-10.867,0a1.056,1.056,0,0,1-1.163-1.017C-623.479,183.042-623.449,182.245-623.449,181.38Z" transform="translate(-28.983 -106.62)" fill="#f4c54e"/>
      <path id="Trazado_635624" data-name="Trazado 635624" d="M-627.136,231.408c0,1.651-.017,3.3.011,4.952.008.456-.125.575-.57.562-1.1-.032-2.2-.036-3.3,0-.474.017-.554-.152-.553-.579.006-1.62-.009-1.64,1.618-1.621.477.006.614-.108.606-.6-.031-1.833-.028-3.668,0-5.5.006-.432-.115-.54-.535-.531-.541.013-1.3.255-1.569-.1-.279-.371-.08-1.093-.113-1.659-.018-.313.06-.445.409-.438,1.192.02,2.384.025,3.576,0,.406-.009.429.175.427.492C-627.142,228.06-627.136,229.734-627.136,231.408Z" transform="translate(-23.102 -138.859)" fill="#f5d67e"/>
      <path id="Trazado_635625" data-name="Trazado 635625" d="M-639.391,100.766a10.66,10.66,0,0,1,.742-4A11.037,11.037,0,0,1-636.189,93c.317-.323.6-.556,1.041-.216a.4.4,0,0,0,.251.1c1.474-.194,1.934,1.051,2.675,1.888.286.323-.133,1.637-.563,1.736A11.449,11.449,0,0,0-639.391,100.766Z" transform="translate(-17.444 -42.333)" fill="#82d0ec"/>
      <path id="Trazado_635626" data-name="Trazado 635626" d="M-578.7,100.871a11.48,11.48,0,0,0-5.448-3.936,1.816,1.816,0,0,0-.522-.16c-.971,0-1.125-.742-1.321-1.437a4.478,4.478,0,0,1,1.7-2.2,2.5,2.5,0,0,0,1.263-.26c.5-.3.808-.1,1.156.263A11.142,11.142,0,0,1-578.7,100.871Z" transform="translate(-56.119 -42.415)" fill="#82d0ec"/>
      <path id="Trazado_635627" data-name="Trazado 635627" d="M-604.849,107.753a2.375,2.375,0,0,1-1.466-.48,1.176,1.176,0,0,1-.312-1.824c.125-.187.243-.134.4-.089a4.716,4.716,0,0,0,2.7-.008c.271-.082.345,0,.443.236C-602.6,106.751-603.392,107.736-604.849,107.753Z" transform="translate(-40.957 -51.531)" fill="#e5ccb3"/>
      <path id="Trazado_635628" data-name="Trazado 635628" d="M-622.334,80.446a1.044,1.044,0,0,1-1.088-.955,1.031,1.031,0,0,1,.672-1.14c.249-.114.429-.143.42.236C-622.345,79.2-622.334,79.808-622.334,80.446Z" transform="translate(-29.001 -31.946)" fill="#dfc6ae"/>
      <path id="Trazado_635629" data-name="Trazado 635629" d="M-579.611,79.334a2.455,2.455,0,0,1,0-.408c.036-.206-.145-.515.117-.6s.52.122.7.333a1.038,1.038,0,0,1,.137,1.262c-.176.318-.474.593-.806.524-.312-.066-.1-.46-.146-.7A2.181,2.181,0,0,1-579.611,79.334Z" transform="translate(-60.723 -31.97)" fill="#dfc6ae"/>
      <path id="Trazado_635630" data-name="Trazado 635630" d="M-473.245,232.506c-1.994,0-3.988-.014-5.982.011-.449.006-.57-.114-.564-.563q.04-2.75,0-5.5c-.007-.452.119-.563.565-.561q6.051.026,12.1,0c.448,0,.57.114.563.563q-.04,2.75,0,5.5c.007.452-.119.567-.565.562C-469.165,232.492-471.205,232.506-473.245,232.506Zm.14-4.4h-2.881c-1.618,0-1.6,0-1.6,1.648,0,.454.129.568.572.564,2.195-.022,4.39-.01,6.585-.01,1.715,0,1.7,0,1.671-1.717-.007-.393-.117-.5-.5-.493C-470.544,228.117-471.825,228.1-473.106,228.1Z" transform="translate(-133.035 -138.857)"/>
      <path id="Trazado_635631" data-name="Trazado 635631" d="M-601.285,131.27c0,1.055,0,1.055-1.078,1.055-1.123,0-1.123,0-1.123-1.146,0-1.055,0-1.055,1.078-1.055C-601.285,130.124-601.285,130.124-601.285,131.27Z" transform="translate(-43.449 -69.497)"/>
      <path id="Trazado_635632" data-name="Trazado 635632" d="M-602.38,146.092c1.1,0,1.1,0,1.1,1.106s0,1.1-1.106,1.1-1.1,0-1.1-1.106S-603.486,146.092-602.38,146.092Z" transform="translate(-43.449 -81.062)"/>
      <path id="Trazado_635633" data-name="Trazado 635633" d="M-470.6,130.124c1.034,0,1.034,0,1.034,1.03,0,1.171,0,1.171-1.167,1.171-1.034,0-1.034,0-1.034-1.03C-471.767,130.124-471.767,130.124-470.6,130.124Z" transform="translate(-138.846 -69.497)"/>
      <path id="Trazado_635634" data-name="Trazado 635634" d="M-454.741,132.325c-1.06,0-1.06,0-1.06-1.073,0-1.129,0-1.129,1.141-1.129,1.06,0,1.06,0,1.06,1.073C-453.6,132.325-453.6,132.325-454.741,132.325Z" transform="translate(-150.41 -69.497)"/>
      <path id="Trazado_635635" data-name="Trazado 635635" d="M-437.633,131.27c0,1.055,0,1.055-1.078,1.055-1.124,0-1.124,0-1.123-1.146,0-1.055,0-1.055,1.078-1.055C-437.633,130.124-437.633,130.124-437.633,131.27Z" transform="translate(-161.974 -69.497)"/>
      <path id="Trazado_635636" data-name="Trazado 635636" d="M-467.325,233.89c1.28,0,2.561.014,3.841-.009.386-.007.5.1.5.493.03,1.717.044,1.717-1.671,1.717-2.195,0-4.39-.012-6.585.01-.443,0-.573-.109-.572-.564,0-1.648-.015-1.648,1.6-1.648Z" transform="translate(-138.815 -144.643)" fill="#ee8774"/>
    </g>
  </g>
</svg>
