<svg xmlns="http://www.w3.org/2000/svg" xmlns:xlink="http://www.w3.org/1999/xlink" width="102" height="102" viewBox="0 0 102 102">
  <defs>
    <clipPath id="clip-path">
      <rect id="Rectángulo_307121" data-name="Rectángulo 307121" width="80" height="80" transform="translate(340 1690)" fill="#fff"/>
    </clipPath>
  </defs>
  <g id="Grupo_964906" data-name="Grupo 964906" transform="translate(-1065 -11599.627)">
    <circle id="Elipse_7777" data-name="Elipse 7777" cx="51" cy="51" r="51" transform="translate(1065 11599.627)" fill="#449c6e"/>
    <g id="Grupo_878423" data-name="Grupo 878423" transform="translate(736 9920.627)" clip-path="url(#clip-path)">
      <g id="cerebro" transform="translate(340 1690.656)">
        <path id="Trazado_634863" data-name="Trazado 634863" d="M76.709,55.082a8.422,8.422,0,0,1,.669,3.279A8.525,8.525,0,0,1,61.1,61.888c-3.541,1.692-4.708,5.364-4.708,9.443v6.046H49.836V66.885a7.869,7.869,0,0,0-7.869-7.869H26.229a7.869,7.869,0,0,1-7.869-7.659,7.4,7.4,0,0,1,1.154-4.144H11.8a10.492,10.492,0,1,1,0-20.984,11.126,11.126,0,0,1,1.5.105v-.105a9.708,9.708,0,0,1-.184-1.967,9.836,9.836,0,0,1,9.836-9.836,9.392,9.392,0,0,1,4.2.957A10.491,10.491,0,0,1,46.7,16.42,11.148,11.148,0,1,1,63.515,30.937a.248.248,0,0,1,0,.092,9.076,9.076,0,0,1,5.993-2.177,9.18,9.18,0,0,1,9.18,9.18A9.038,9.038,0,0,1,76.3,44.2a7.868,7.868,0,0,1,2.387,5.639,7.778,7.778,0,0,1-1.98,5.246Zm0,0" fill="#ff9ab3"/>
        <path id="Trazado_634864" data-name="Trazado 634864" d="M78.02,44.157a10.492,10.492,0,0,0-8.512-16.616,10.22,10.22,0,0,0-2.282.263,12.612,12.612,0,0,0,.971-4.853A12.433,12.433,0,0,0,47.082,14.02a11.8,11.8,0,0,0-20.524-.3,10.671,10.671,0,0,0-3.607-.6A11.161,11.161,0,0,0,11.8,24.262v.656a11.8,11.8,0,1,0,0,23.607h5.679a8.525,8.525,0,0,0-.433,2.872,9.181,9.181,0,0,0,9.18,8.931H41.967a6.558,6.558,0,0,1,6.557,6.557V77.377a1.312,1.312,0,0,0,1.311,1.311h6.557A1.312,1.312,0,0,0,57.7,77.377V71.331c0-3.607.984-6.164,2.912-7.607a9.836,9.836,0,0,0,18.072-5.364,9.629,9.629,0,0,0-.5-3.069A9.181,9.181,0,0,0,80,49.836a9.275,9.275,0,0,0-1.98-5.679ZM68.852,65.574A7.174,7.174,0,0,1,62.3,61.338a7.04,7.04,0,0,1-.656-2.977H59.016a9.714,9.714,0,0,0,.459,2.951c-2.19,1.443-4.394,4.262-4.394,10.02v4.734H51.148v-9.18a9.18,9.18,0,0,0-9.18-9.18H26.23a6.557,6.557,0,0,1-6.557-6.387,6.178,6.178,0,0,1,.957-3.423,7.028,7.028,0,0,1,2.78-2.544,8.02,8.02,0,0,0,.774-.315,6.746,6.746,0,0,1,2.374-.446H38.033A7.869,7.869,0,0,0,45.9,36.721H43.279a5.246,5.246,0,0,1-5.246,5.246H26.557a9.724,9.724,0,0,0-4.184.971,6.405,6.405,0,0,1-2.072.341,6.559,6.559,0,0,1-4.879-2.19l-1.967,1.757a9.183,9.183,0,0,0,5.482,2.938l-.079.118H11.8a9.18,9.18,0,1,1,5.088-16.8,9.706,9.706,0,0,0,1.05,8.328l2.2-1.416a7.24,7.24,0,0,1,0-7.764L18.676,27.3l.078-.1a11.365,11.365,0,0,0-4.262-1.954,8.14,8.14,0,0,1-.065-.984,8.538,8.538,0,0,1,8.525-8.525,8.071,8.071,0,0,1,3.672.852h.092a8.278,8.278,0,0,1,3.619,3.384l2.282-1.311a11.048,11.048,0,0,0-3.764-3.79,9.18,9.18,0,0,1,16.328,1.416,11.984,11.984,0,0,0-1.758,4.459l2.623.473A9.836,9.836,0,1,1,62.6,29.994l.2.2-.9.9a6.927,6.927,0,0,1,.59.643l.079.118a7.634,7.634,0,0,1,1.7,4.866,7.869,7.869,0,0,1-7.869,7.869v2.623a10.492,10.492,0,0,0,9-15.869,7.766,7.766,0,0,1,4.118-1.18,7.869,7.869,0,0,1,7.869,7.869,7.711,7.711,0,0,1-1.311,4.289,9.076,9.076,0,0,0-5.246-1.666v2.623a6.453,6.453,0,0,1,4.564,1.862A6.557,6.557,0,0,1,70.82,56.393v2.623a9.18,9.18,0,0,0,5.154-1.6,7.667,7.667,0,0,1,.092.945,7.226,7.226,0,0,1-7.213,7.213Zm0,0" fill="#eb7f9a"/>
        <path id="Trazado_634865" data-name="Trazado 634865" d="M41.967,49.836H26.229v2.623H41.967a13.114,13.114,0,0,1,11.554,6.912l2.308-1.233a15.737,15.737,0,0,0-13.862-8.3Zm0,0" fill="#eb7f9a"/>
        <path id="Trazado_634866" data-name="Trazado 634866" d="M70.82,47.213a6.558,6.558,0,0,0-6.557,6.557h2.623a3.935,3.935,0,0,1,3.934-3.934Zm0,0" fill="#eb7f9a"/>
        <path id="Trazado_634867" data-name="Trazado 634867" d="M53.77,22.3A14.425,14.425,0,0,1,45.311,35.41H33.377A14.426,14.426,0,1,1,53.77,22.3Zm0,0" fill="#fce013"/>
        <path id="Trazado_634868" data-name="Trazado 634868" d="M43.279,36.721H40.656V26.229H38.033V36.721H35.41V26.229H34.1A3.934,3.934,0,1,1,38.033,22.3v1.311h2.623V22.3a3.934,3.934,0,1,1,3.934,3.934H43.279Zm0-13.115H44.59A1.311,1.311,0,1,0,43.279,22.3ZM34.1,20.984a1.311,1.311,0,0,0,0,2.623H35.41V22.3A1.312,1.312,0,0,0,34.1,20.984Zm0,0" fill="#f95925"/>
        <path id="Trazado_634869" data-name="Trazado 634869" d="M45.311,35.41a7.059,7.059,0,0,1-.721.315v6.242H34.1V35.725a7.059,7.059,0,0,1-.721-.315Zm0,0" fill="#3dcde7"/>
        <g id="Grupo_963234" data-name="Grupo 963234">
          <path id="Trazado_634870" data-name="Trazado 634870" d="M35.41,41.967h7.869v1.311a3.934,3.934,0,0,1-7.869,0Zm0,0" fill="#f95925"/>
          <path id="Trazado_634871" data-name="Trazado 634871" d="M54.587,32.615,55.9,30.343l3.407,1.967-1.311,2.272Zm0,0" fill="#f95925"/>
          <path id="Trazado_634872" data-name="Trazado 634872" d="M19.389,32.308,22.8,30.341l1.311,2.272L20.7,34.58Zm0,0" fill="#f95925"/>
          <path id="Trazado_634873" data-name="Trazado 634873" d="M54.588,11.979,58,10.013l1.311,2.272L55.9,14.251Zm0,0" fill="#f95925"/>
          <path id="Trazado_634874" data-name="Trazado 634874" d="M38.033,0h2.623V3.934H38.033Zm0,0" fill="#f95925"/>
          <path id="Trazado_634875" data-name="Trazado 634875" d="M19.386,12.272,20.7,10,24.1,11.967l-1.311,2.272Zm0,0" fill="#f95925"/>
          <path id="Trazado_634876" data-name="Trazado 634876" d="M47.387,5.743,50.665.063l2.272,1.311L49.659,7.054Zm0,0" fill="#f95925"/>
          <path id="Trazado_634877" data-name="Trazado 634877" d="M25.756,43.22l3.277-5.679,2.272,1.311-3.278,5.679Zm0,0" fill="#f95925"/>
          <path id="Trazado_634878" data-name="Trazado 634878" d="M25.754,1.376,28.025.064,31.3,5.743,29.032,7.054Zm0,0" fill="#f95925"/>
          <path id="Trazado_634879" data-name="Trazado 634879" d="M47.392,38.859l2.271-1.311,3.279,5.679-2.271,1.311Zm0,0" fill="#f95925"/>
          <path id="Trazado_634880" data-name="Trazado 634880" d="M14.426,20.984h6.557v2.623H14.426Zm0,0" fill="#f95925"/>
          <path id="Trazado_634881" data-name="Trazado 634881" d="M57.7,20.984h6.557v2.623H57.7Zm0,0" fill="#f95925"/>
        </g>
        <path id="Trazado_634882" data-name="Trazado 634882" d="M69.508,27.541a10.22,10.22,0,0,0-2.282.263,12.612,12.612,0,0,0,.971-4.853A12.407,12.407,0,0,0,62.334,12.38l-1.39,2.23a9.823,9.823,0,0,1,2.531,14.426A10.888,10.888,0,0,0,61.8,27.725L60.485,29.98a7.869,7.869,0,0,1-4.092,14.61v2.623A10.492,10.492,0,0,0,65.4,31.344a7.609,7.609,0,0,1,4.1-1.18,7.869,7.869,0,0,1,7.869,7.869,7.711,7.711,0,0,1-1.311,4.289,9.076,9.076,0,0,0-5.246-1.666v2.623a6.453,6.453,0,0,1,4.564,1.862A6.557,6.557,0,0,1,70.82,56.393v2.623a9.18,9.18,0,0,0,5.154-1.6,7.667,7.667,0,0,1,.092.945,7.213,7.213,0,0,1-14.426,0H59.016a9.556,9.556,0,0,0,.459,2.951c-2.2,1.456-4.394,4.328-4.394,10.02v4.734H51.148v-9.18a9.18,9.18,0,0,0-9.18-9.18H26.229a6.557,6.557,0,0,1-6.557-6.374,6.687,6.687,0,0,1,4.406-6.282l-.092-.236.275-.144-.984-1.705-.144-.353L23,42.374a6.557,6.557,0,0,1-8.17-1.311L12.878,42.82a9.26,9.26,0,0,0,6.033,3.017H11.8a9.18,9.18,0,1,1,0-18.361,9.06,9.06,0,0,1,5.4,1.77l1.547-2.124a11.6,11.6,0,0,0-4.262-1.928,8.382,8.382,0,0,1-.065-.931v-.656h6.557V20.984H15.095a8.385,8.385,0,0,1,2.741-3.541l-1.574-2.1A11.055,11.055,0,0,0,11.8,24.262v.656a11.8,11.8,0,1,0,0,23.607h5.665a8.773,8.773,0,0,0-.419,2.872,9.181,9.181,0,0,0,9.18,8.931H41.967a6.558,6.558,0,0,1,6.557,6.557V77.377a1.312,1.312,0,0,0,1.311,1.311h6.557A1.312,1.312,0,0,0,57.7,77.377V71.331c0-3.62.984-6.164,2.912-7.607a9.836,9.836,0,0,0,18.072-5.364,9.629,9.629,0,0,0-.5-3.069A9.181,9.181,0,0,0,80,49.836a9.275,9.275,0,0,0-1.98-5.679,10.492,10.492,0,0,0-8.512-16.616Zm0,0"/>
        <path id="Trazado_634883" data-name="Trazado 634883" d="M53.521,59.383l2.308-1.311a15.737,15.737,0,0,0-13.862-8.236H26.229v2.623H41.967A13.116,13.116,0,0,1,53.521,59.383Zm0,0"/>
        <path id="Trazado_634884" data-name="Trazado 634884" d="M70.82,49.836V47.213a6.558,6.558,0,0,0-6.557,6.557h2.623A3.935,3.935,0,0,1,70.82,49.836Zm0,0"/>
        <path id="Trazado_634885" data-name="Trazado 634885" d="M32.787,36.59v5.377A1.312,1.312,0,0,0,34.1,43.279a5.246,5.246,0,1,0,10.492,0A1.312,1.312,0,0,0,45.9,41.967V36.59a15.738,15.738,0,1,0-13.115,0Zm5.246.131h5.246v3.934H35.41V36.721ZM35.41,23.607H34.1A1.311,1.311,0,1,1,35.41,22.3ZM40.656,34.1H38.033V26.229h2.623ZM39.344,45.9a2.623,2.623,0,0,1-2.623-2.623h5.246A2.623,2.623,0,0,1,39.344,45.9Zm0-36.721A13.115,13.115,0,0,1,44.59,34.295v-.2H43.279V26.229H44.59A3.934,3.934,0,1,0,40.656,22.3v1.311H38.033V22.3A3.934,3.934,0,1,0,34.1,26.229H35.41V34.1H34.1v.2A13.115,13.115,0,0,1,39.344,9.18Zm3.934,14.426V22.3a1.311,1.311,0,1,1,1.311,1.311Zm0,0"/>
        <path id="Trazado_634886" data-name="Trazado 634886" d="M19.38,32.3l3.407-1.967L24.1,32.606l-3.407,1.967Zm0,0"/>
        <path id="Trazado_634887" data-name="Trazado 634887" d="M54.588,11.979,58,10.013l1.311,2.272L55.9,14.251Zm0,0"/>
        <path id="Trazado_634888" data-name="Trazado 634888" d="M38.033,0h2.623V3.934H38.033Zm0,0"/>
        <path id="Trazado_634889" data-name="Trazado 634889" d="M54.593,32.611,55.9,30.34l3.407,1.967L58,34.579Zm0,0"/>
        <path id="Trazado_634890" data-name="Trazado 634890" d="M19.386,12.272,20.7,10,24.1,11.967l-1.311,2.272Zm0,0"/>
        <path id="Trazado_634891" data-name="Trazado 634891" d="M47.394,5.735,50.673.056l2.271,1.311L49.666,7.046Zm0,0"/>
        <path id="Trazado_634892" data-name="Trazado 634892" d="M25.756,43.22l3.277-5.679,2.272,1.311-3.278,5.679Zm0,0"/>
        <path id="Trazado_634893" data-name="Trazado 634893" d="M25.754,1.376,28.025.064,31.3,5.743,29.032,7.054Zm0,0"/>
        <path id="Trazado_634894" data-name="Trazado 634894" d="M47.392,38.859l2.271-1.311,3.279,5.679-2.271,1.311Zm0,0"/>
        <path id="Trazado_634895" data-name="Trazado 634895" d="M57.7,20.984h6.557v2.623H57.7Zm0,0"/>
      </g>
    </g>
  </g>
</svg>
