<svg xmlns="http://www.w3.org/2000/svg" width="85" height="85" viewBox="0 0 85 85">
  <g id="Grupo_963273" data-name="Grupo 963273" transform="translate(-180 -6099)">
    <rect id="Rectángulo_34178" data-name="Rectángulo 34178" width="85" height="85" transform="translate(180 6099)" fill="none"/>
    <g id="Grupo_964909" data-name="Grupo 964909" transform="translate(-457.427 5770.617)">
      <path id="Trazado_636210" data-name="Trazado 636210" d="M663.095,375.4a1.236,1.236,0,0,1,.685-1.713,17.941,17.941,0,0,0,6.105-5.408c4.715-5.967,9.532-11.852,14.328-17.754a.741.741,0,0,0,.033-1.08,2.946,2.946,0,0,1-.625-2.89,4.744,4.744,0,0,1,4.212-2.447,2.837,2.837,0,0,1,1.909,1.49q4.885,7.943,9.8,15.871,4.86,7.873,9.714,15.749c1.158,1.878.852,3.14-1.039,4.309a5.122,5.122,0,0,1-1.635.822,2.563,2.563,0,0,1-2.96-1.548,1.132,1.132,0,0,0-1.492-.654c-6.788,1.511-13.586,2.976-20.381,4.455-.168.037-.331.094-.555.16a3.884,3.884,0,0,1,.858,3.226c-.055.236.153.271.306.34a3.555,3.555,0,0,1,2.271,3.753c-.023.36.124.454.4.574a3.542,3.542,0,0,1,2.068,4.6.576.576,0,0,0,.262.78,3.529,3.529,0,0,1-.086,5.916c-1.2.816-2.452,1.547-3.7,2.285a3.248,3.248,0,0,1-1.669.528,1.831,1.831,0,0,0-.966.314c-1.241.75-2.5,1.471-3.733,2.232a6.357,6.357,0,0,1-4.81.836c-1.131-.235-2.263-.463-3.393-.7-.3-.064-.589-.122-.724.263a.116.116,0,0,1-.044.058c-1.723,1.04-2.444,2.918-3.654,4.387a3.248,3.248,0,0,1-2.679,1.281c-5.591-.013-11.182,0-16.773-.007a2.691,2.691,0,0,1-3.023-2.989c0-.96.011-1.921,0-2.881a2.741,2.741,0,0,1,1.083-2.314q5.242-4.143,10.488-8.281a1.222,1.222,0,0,1,1.149-.359,1.061,1.061,0,0,0,1.213-.375c.378-.352.781-.677,1.186-1a1.205,1.205,0,0,1,1.082-.359,1.083,1.083,0,0,0,1.3-.563c.944-1.349,1.835-2.735,2.747-4.107.105-.158.29-.335.022-.485-.229-.129-.384-.486-.758-.238a8.541,8.541,0,0,1-1.153.652,2.878,2.878,0,0,1-3.723-.972c-1.022-1.532-2-3.1-2.91-4.7a2.9,2.9,0,0,1,1.063-3.991,1.625,1.625,0,0,0,.978-1.758,3.309,3.309,0,0,1,1.512-3.031c.454-.335.955-.6,1.423-.921a1.243,1.243,0,0,1,1.779.162c.28.925.164,1.236-.668,1.761-.331.209-.675.4-1,.617a1.634,1.634,0,0,0-.563,2.409c.6,1.031,1.266,2.029,1.9,3.041.933,1.532,1.848,3.076,2.808,4.591.478.754.742.753,1.177,0a10.365,10.365,0,0,1,4.3-4.332,10.273,10.273,0,0,0,1.193-.736,5.822,5.822,0,0,1,3.475-1.181l-2.8-4.433c-.876-1.446-1.757-2.889-2.622-4.341-.2-.336-.391-.258-.654-.09-.723.462-1.457.908-2.191,1.352A1.25,1.25,0,0,1,663.095,375.4Zm15.149,12.253a6.08,6.08,0,0,1,.31.578c.218.531.469.454.852.132a1.4,1.4,0,0,0-.216-2.281,1,1,0,0,0-.615-.206,1.2,1.2,0,0,0-1.075.365c-.206.286.2.537.338.8A5.4,5.4,0,0,0,678.244,387.648Zm2.081,4.314a4.283,4.283,0,0,1-.647,1.971l-.138.2c.113.057.209.05.272-.074.635-.369,1.286-.712,1.9-1.113a1.368,1.368,0,0,0,.147-2.331,1.658,1.658,0,0,0-.35-.231,1.4,1.4,0,0,0-1.316.15c-.345.252.068.565.047.862A2.537,2.537,0,0,0,680.324,391.963Zm.043,11.668a1.32,1.32,0,0,0,2.024.713c1.215-.7,2.414-1.424,3.581-2.2a1.331,1.331,0,0,0,.016-2.352,1.123,1.123,0,0,0-1.313-.082c-1.271.739-2.536,1.49-3.771,2.287A1.19,1.19,0,0,0,680.367,403.631Zm4.144-8.717a1.286,1.286,0,0,0-1.623-.07q-1.763,1.051-3.5,2.143a1.379,1.379,0,0,0-.6,1.765c.454.816,1.165,1.154,1.861.763,1.3-.731,2.593-1.492,3.833-2.322A1.338,1.338,0,0,0,684.511,394.913Zm-23.957,9.761c1.269,1.5,2.563,2.986,3.791,4.521.4.5.685.545,1.063.072.164-.205.713-.271.338-.707-1.327-1.545-2.558-3.173-3.978-4.639-.915-1.31-2.022-2.463-3.032-3.7-.739-.9-.74-.883-1.573-.081-.231.222-.235.339-.025.578C658.288,402.031,659.418,403.356,660.554,404.674Zm43.828-31.048c-.115-.216-.22-.439-.348-.646q-7.913-12.829-15.832-25.656c-.8-1.3-.593-1.248-1.978-.444-.578.336-.588.644-.25,1.171.982,1.53,1.9,3.1,2.881,4.631a1.351,1.351,0,0,1-.083,1.861c-.977.285-1.268.173-1.819-.709-.261-.417-.55-.819-.768-1.257-.261-.526-.438-.473-.781-.044-2.3,2.881-4.628,5.743-6.946,8.611q-4.4,5.449-8.808,10.9c-.189.234-.447.412-.19.811,1.025,1.587,2.011,3.2,3.011,4.8,1.128,1.845,2.266,3.685,3.378,5.541.22.367.457.323.8.247,3.264-.721,6.533-1.42,9.8-2.131q7.385-1.608,14.768-3.222c.3-.065.711-.022.381-.546-1.2-1.912-2.4-3.832-3.6-5.748-.131-.235-.253-.475-.394-.7q-3.747-6.076-7.505-12.145a1.331,1.331,0,0,1,.052-1.854c.9-.329,1.268-.219,1.779.6,1.529,2.459,3.04,4.929,4.567,7.39q2.987,4.815,5.986,9.622c.88,1.45,1.756,2.9,2.64,4.348.82,1.341.824,1.339,2.14.443.041-.028.081-.057.123-.081a.461.461,0,0,0,.166-.741Q705.967,376.155,704.382,373.626ZM654.2,413.166c2.358.018,4.718-.024,7.072.083a2.168,2.168,0,0,0,2.055-1.1.568.568,0,0,0-.012-.791l-3.907-4.492c-1.521-1.8-3.046-3.6-4.557-5.4-.271-.324-.483-.222-.744-.015q-4.708,3.727-9.423,7.444a.878.878,0,0,0-.367.756q.013,1.438,0,2.876c0,.456.211.694.665.692Q649.588,413.192,654.2,413.166Zm16.276-23.129a3.385,3.385,0,0,1,3.232.485l1.054,1.434c.149.274.3.549.446.823a1.12,1.12,0,0,0,1.44.654A1.642,1.642,0,0,0,678,391.808a.761.761,0,0,0-.041-.284c-1.075-1.76-2.117-3.542-3.252-5.263a2.142,2.142,0,0,0-3-.6c-.894.515-1.744,1.1-2.638,1.617a6.544,6.544,0,0,0-2.252,2.176c-1.718,2.634-3.472,5.244-5.212,7.864a2.818,2.818,0,0,1-.979,1.078c-.312.16-.259.322-.054.56,1.253,1.451,2.491,2.914,3.734,4.374.907,1.094,1.816,2.185,2.717,3.283a.839.839,0,0,0,.552.3c1.757.335,3.509.7,5.263,1.053a4.147,4.147,0,0,0,3.113-.491c.813-.5,1.646-.974,2.456-1.48.182-.114.576-.148.454-.454-.1-.263-.257-.6-.65-.626-.146-.01-.29-.054-.436-.068a4.553,4.553,0,0,1-3.581-2.271c-.286-.453-.593-.893-.89-1.339-1.116-1.784-2.24-3.563-3.342-5.356-.213-.346-.361-.271-.608-.053a7.178,7.178,0,0,1-.94.7,1.123,1.123,0,0,1-1.576-.2,1.108,1.108,0,0,1,.26-1.56,4.551,4.551,0,0,1,.463-.363,4.464,4.464,0,0,0,1.954-2.994A1.816,1.816,0,0,1,670.473,390.038Zm6.008,7.8c.1-.334-.117-.447-.361-.539a3.989,3.989,0,0,1-2.252-2.366,18.861,18.861,0,0,0-1.563-2.561c-.126-.194-.335-.4-.613-.185a2.276,2.276,0,0,0-.283,1.838q2.321,3.668,4.65,7.333a2.5,2.5,0,0,0,1.3,1.145c.285.094.616.235.748-.155.121-.357.461-.772-.057-1.115A3.478,3.478,0,0,1,676.481,397.841Zm-17.28-7.655c.7-.015,1.326-.683,1.05-1.135q-1.477-2.421-2.972-4.831c-.1-.16-.179-.362-.425-.359a1.208,1.208,0,0,0-1.021,1.652c.842,1.413,1.716,2.807,2.59,4.2A.824.824,0,0,0,659.2,390.186Z" transform="translate(0 -7.326)" fill="#030303"/>
      <path id="Trazado_636211" data-name="Trazado 636211" d="M701,446.723a1.249,1.249,0,0,0,1.836.176c.734-.444,1.468-.89,2.191-1.352.263-.168.454-.246.654.09.866,1.452,1.747,2.9,2.622,4.341a2,2,0,0,0-.41.143c-1.8,1.107-3.585,2.237-5.394,3.327-1.449.873-2.828,1.862-4.347,2.618-.637-1.012-1.3-2.01-1.9-3.041a1.634,1.634,0,0,1,.563-2.409c.324-.219.667-.408,1-.617.832-.525.949-.836.668-1.761Z" transform="translate(-37.902 -78.654)" fill="#ea7762"/>
      <path id="Trazado_636212" data-name="Trazado 636212" d="M831.824,334.8a4.882,4.882,0,0,1-.145.539q-1.542,3.978-3.091,7.953a1.108,1.108,0,0,1-1.172.82,1.078,1.078,0,0,1-1-.936,1.48,1.48,0,0,1,.165-.855q1.491-3.839,3-7.674a1.988,1.988,0,0,1,.312-.578,1,1,0,0,1,1.2-.319A1.148,1.148,0,0,1,831.824,334.8Z" transform="translate(-129.736)" fill="#050505"/>
      <path id="Trazado_636213" data-name="Trazado 636213" d="M869.641,419.9c-2.513-.24-5.207-.492-7.9-.755-.843-.082-1.306-.566-1.238-1.253.065-.661.547-1.029,1.4-.954q4.19.368,8.375.792c.841.085,1.309.623,1.21,1.284C871.381,419.711,870.873,419.985,869.641,419.9Z" transform="translate(-153.738 -58.61)" fill="#050505"/>
      <path id="Trazado_636214" data-name="Trazado 636214" d="M850.474,376.67a1.183,1.183,0,0,1,1.068.647.994.994,0,0,1-.107,1.105,1.821,1.821,0,0,1-.5.426c-1.878,1.163-3.756,2.325-5.645,3.47a1.1,1.1,0,0,1-1.782-.547,1.043,1.043,0,0,1,.517-1.259q2.936-1.832,5.894-3.628A2.965,2.965,0,0,1,850.474,376.67Z" transform="translate(-141.743 -30.271)" fill="#050505"/>
      <path id="Trazado_636215" data-name="Trazado 636215" d="M737.28,396.972c-1-1.6-1.986-3.216-3.011-4.8-.258-.4,0-.577.19-.811q4.4-5.452,8.808-10.9c2.318-2.868,4.644-5.73,6.946-8.611.343-.429.519-.482.781.044.218.438.507.84.768,1.257.552.882.843.994,1.819.709.318.929,1.1,1.6,1.382,2.553a1.331,1.331,0,0,0-.052,1.854q3.771,6.061,7.505,12.145c.141.229.263.468.394.7-.1.171-.264.182-.436.221-6.027,1.364-12.05,2.746-18.079,4.1C741.959,395.96,739.642,396.568,737.28,396.972Z" transform="translate(-64.808 -26.64)" fill="#f4ce75"/>
      <path id="Trazado_636216" data-name="Trazado 636216" d="M744.7,443.574c2.362-.4,4.679-1.013,7.014-1.537,6.029-1.355,12.052-2.737,18.079-4.1.172-.039.339-.05.436-.221,1.2,1.917,2.391,3.836,3.6,5.748.33.523-.081.48-.381.546q-7.384,1.61-14.768,3.222c-3.266.711-6.535,1.411-9.8,2.131-.343.076-.58.12-.8-.247C746.962,447.259,745.824,445.42,744.7,443.574Z" transform="translate(-72.224 -73.242)" fill="#eab464"/>
      <path id="Trazado_636217" data-name="Trazado 636217" d="M718.277,489.97l-1.054-1.434a1.957,1.957,0,0,0-1.839-1.832c-1.137.026-1.179.016-1.393,1.347a1.816,1.816,0,0,0-.964,1.374,4.464,4.464,0,0,1-1.954,2.994,4.555,4.555,0,0,0-.463.363,1.108,1.108,0,0,0-.26,1.56,1.123,1.123,0,0,0,1.576.2,7.182,7.182,0,0,0,.94-.7c.247-.218.395-.293.608.053,1.1,1.792,2.225,3.572,3.342,5.356a10.52,10.52,0,0,1-2.353,1.584,5.205,5.205,0,0,1-3.657.78,26.23,26.23,0,0,0-2.989-.268c-1.243-1.459-2.482-2.923-3.734-4.374-.2-.237-.258-.4.054-.56a2.818,2.818,0,0,0,.979-1.078c1.74-2.62,3.494-5.23,5.212-7.864a6.544,6.544,0,0,1,2.252-2.176c.894-.513,1.745-1.1,2.638-1.617a2.142,2.142,0,0,1,3,.6c1.135,1.721,2.177,3.5,3.252,5.263a.76.76,0,0,1,.041.284A3.858,3.858,0,0,1,718.277,489.97Z" transform="translate(-43.518 -105.339)" fill="#f8e3d0"/>
      <path id="Trazado_636218" data-name="Trazado 636218" d="M659.475,549.1q-4.609.023-9.217.044c-.454,0-.668-.236-.665-.692q.01-1.438,0-2.876a.878.878,0,0,1,.367-.756q4.717-3.715,9.423-7.444c.261-.207.473-.309.744.015,1.511,1.808,3.036,3.6,4.557,5.4-1,1.168-2.021,2.314-2.979,3.512A19.534,19.534,0,0,0,659.475,549.1Z" transform="translate(-5.278 -143.262)" fill="#3f5363"/>
      <path id="Trazado_636219" data-name="Trazado 636219" d="M793.943,362.4c-.277-.95-1.064-1.625-1.382-2.553a1.351,1.351,0,0,0,.083-1.86c-.982-1.53-1.9-3.1-2.881-4.631-.338-.527-.328-.835.25-1.171,1.385-.8,1.173-.86,1.978.444q7.919,12.826,15.832,25.656c.128.208.233.431.349.646a7.965,7.965,0,0,0-1.9,1.086q-2.994-4.811-5.986-9.622c-1.527-2.46-3.038-4.93-4.567-7.39C795.211,362.184,794.847,362.075,793.943,362.4Z" transform="translate(-103.789 -12.632)" fill="#e87661"/>
      <path id="Trazado_636220" data-name="Trazado 636220" d="M703.407,466.945c1.519-.756,2.9-1.745,4.347-2.618,1.809-1.09,3.6-2.221,5.394-3.327a2,2,0,0,1,.41-.143l2.8,4.433a5.822,5.822,0,0,0-3.475,1.181,10.283,10.283,0,0,1-1.193.736,10.365,10.365,0,0,0-4.3,4.332c-.436.749-.7.751-1.177,0C705.255,470.021,704.34,468.477,703.407,466.945Z" transform="translate(-43.16 -89.531)" fill="#c5483f"/>
      <path id="Trazado_636221" data-name="Trazado 636221" d="M717.092,539.224a26.231,26.231,0,0,1,2.989.268,5.205,5.205,0,0,0,3.657-.78,10.52,10.52,0,0,0,2.353-1.584c.3.446.6.886.89,1.339a4.553,4.553,0,0,0,3.581,2.271c.146.013.29.058.436.068.393.026.546.363.65.626.121.306-.272.34-.454.454-.81.507-1.643.978-2.456,1.48a4.146,4.146,0,0,1-3.113.491c-1.754-.351-3.506-.718-5.263-1.053a.839.839,0,0,1-.552-.3C718.908,541.409,718,540.317,717.092,539.224Z" transform="translate(-52.793 -143.22)" fill="#e7d1be"/>
      <path id="Trazado_636222" data-name="Trazado 636222" d="M682.973,562.447a19.538,19.538,0,0,1,2.229-2.791c.958-1.2,1.983-2.343,2.979-3.512l3.907,4.492a.568.568,0,0,1,.012.791,2.168,2.168,0,0,1-2.055,1.1C687.691,562.423,685.331,562.465,682.973,562.447Z" transform="translate(-28.776 -156.607)" fill="#22404c"/>
      <path id="Trazado_636223" data-name="Trazado 636223" d="M745.96,512.017a3.478,3.478,0,0,0,1.565,3.395c.518.343.178.758.057,1.115-.132.39-.463.249-.748.155a2.5,2.5,0,0,1-1.3-1.145q-2.331-3.663-4.65-7.333a2.276,2.276,0,0,1,.283-1.838c.277-.217.487-.009.613.185a18.861,18.861,0,0,1,1.563,2.561,3.989,3.989,0,0,0,2.252,2.366C745.843,511.57,746.057,511.682,745.96,512.017Z" transform="translate(-69.479 -121.501)" fill="#364858"/>
      <path id="Trazado_636224" data-name="Trazado 636224" d="M846.07,444.973a7.966,7.966,0,0,1,1.9-1.086q1.587,2.528,3.175,5.055a.461.461,0,0,1-.166.741c-.042.025-.082.054-.123.081-1.316.9-1.32.9-2.14-.443C847.826,447.874,846.95,446.422,846.07,444.973Z" transform="translate(-143.583 -77.587)" fill="#c5483f"/>
      <path id="Trazado_636225" data-name="Trazado 636225" d="M691.6,484.778a.823.823,0,0,1-.779-.47c-.873-1.395-1.748-2.789-2.59-4.2a1.208,1.208,0,0,1,1.021-1.652c.246,0,.326.2.425.359q1.493,2.412,2.972,4.831C692.923,484.1,692.3,484.764,691.6,484.778Z" transform="translate(-32.396 -101.918)" fill="#364858"/>
      <path id="Trazado_636226" data-name="Trazado 636226" d="M705.658,546.207c1.42,1.465,2.651,3.093,3.978,4.639.375.436-.174.5-.338.707-.378.473-.663.427-1.063-.072-1.228-1.535-2.523-3.018-3.791-4.521C704.895,546.783,705.15,546.291,705.658,546.207Z" transform="translate(-43.89 -149.612)" fill="#929da2"/>
      <path id="Trazado_636227" data-name="Trazado 636227" d="M771.737,515.783a1.337,1.337,0,0,1-.035,2.279c-1.24.83-2.531,1.591-3.833,2.322-.7.391-1.408.053-1.861-.763a2.161,2.161,0,0,0,1.044-.324q1.607-.964,3.19-1.97C770.859,516.934,771.516,516.565,771.737,515.783Z" transform="translate(-87.226 -128.196)" fill="#e7d1be"/>
      <path id="Trazado_636228" data-name="Trazado 636228" d="M776.983,532.271a1.331,1.331,0,0,1-.016,2.352c-1.167.772-2.366,1.5-3.581,2.2a1.32,1.32,0,0,1-2.024-.713,1.438,1.438,0,0,0,.908-.232c1.213-.732,2.456-1.42,3.624-2.218C776.365,533.336,776.948,532.986,776.983,532.271Z" transform="translate(-90.995 -139.802)" fill="#e7d1be"/>
      <path id="Trazado_636229" data-name="Trazado 636229" d="M771.5,515.012c-.221.782-.878,1.151-1.5,1.543q-1.582,1.006-3.19,1.97a2.162,2.162,0,0,1-1.044.324,1.38,1.38,0,0,1,.6-1.765q1.736-1.1,3.5-2.143A1.286,1.286,0,0,1,771.5,515.012Z" transform="translate(-86.993 -127.425)" fill="#f5e1cd"/>
      <path id="Trazado_636230" data-name="Trazado 636230" d="M697.174,535.806c-.508.084-.764.576-1.214.753-1.136-1.319-2.266-2.644-3.415-3.951-.211-.239-.206-.357.025-.578.833-.8.834-.821,1.573.081C695.153,533.343,696.259,534.5,697.174,535.806Z" transform="translate(-35.406 -139.21)" fill="#c7ced6"/>
      <path id="Trazado_636231" data-name="Trazado 636231" d="M776.644,531.664c-.035.715-.619,1.065-1.089,1.386-1.168.8-2.411,1.486-3.624,2.218a1.438,1.438,0,0,1-.908.232,1.19,1.19,0,0,1,.537-1.631c1.235-.8,2.5-1.548,3.771-2.287A1.123,1.123,0,0,1,776.644,531.664Z" transform="translate(-90.655 -139.195)" fill="#f5e1cd"/>
      <path id="Trazado_636232" data-name="Trazado 636232" d="M769.03,504.578a4.282,4.282,0,0,0,.647-1.971c.831-.087,1.17-.733,1.534-1.35a1.368,1.368,0,0,1-.147,2.331c-.614.4-1.265.744-1.9,1.113Z" transform="translate(-89.353 -117.971)" fill="#e7d1be"/>
      <path id="Trazado_636233" data-name="Trazado 636233" d="M737.943,496.114c.214-1.33.255-1.321,1.393-1.347a1.957,1.957,0,0,1,1.839,1.832A3.385,3.385,0,0,0,737.943,496.114Z" transform="translate(-67.47 -113.402)" fill="#e7d1be"/>
      <path id="Trazado_636234" data-name="Trazado 636234" d="M752.419,505.446a3.858,3.858,0,0,0,3.239-.149,1.641,1.641,0,0,1-1.353,1.626,1.12,1.12,0,0,1-1.44-.654Q752.643,505.857,752.419,505.446Z" transform="translate(-77.66 -120.814)" fill="#e7d1be"/>
      <path id="Trazado_636235" data-name="Trazado 636235" d="M765.135,485.939a1.4,1.4,0,0,1,.216,2.281c-.383.322-.634.4-.852-.132a6.173,6.173,0,0,0-.31-.578C764.472,486.966,765.012,486.578,765.135,485.939Z" transform="translate(-85.946 -107.188)" fill="#e7d1be"/>
      <path id="Trazado_636236" data-name="Trazado 636236" d="M772.11,500.478c-.364.617-.7,1.264-1.534,1.35a2.544,2.544,0,0,1-.084-.569c.021-.3-.392-.611-.047-.862a1.4,1.4,0,0,1,1.316-.15A1.66,1.66,0,0,1,772.11,500.478Z" transform="translate(-90.252 -117.192)" fill="#f5e1cd"/>
      <path id="Trazado_636237" data-name="Trazado 636237" d="M763.228,485.438c-.123.639-.663,1.027-.945,1.571a5.329,5.329,0,0,1-.407-.608c-.133-.267-.544-.518-.338-.8a1.2,1.2,0,0,1,1.075-.365A1,1,0,0,1,763.228,485.438Z" transform="translate(-84.039 -106.687)" fill="#f5e1cd"/>
      <path id="Trazado_636238" data-name="Trazado 636238" d="M768.837,512.6c-.063.124-.159.131-.272.074l.138-.2Z" transform="translate(-89.026 -125.866)" fill="#e7d1be"/>
    </g>
  </g>
</svg>
