<svg xmlns="http://www.w3.org/2000/svg" width="92" height="92" viewBox="0 0 92 92">
  <g id="Grupo_963289" data-name="Grupo 963289" transform="translate(-1058 -963.556)">
    <g id="Grupo_963196" data-name="Grupo 963196" transform="translate(623 -3377.444)">
      <circle id="Elipse_7706" data-name="Elipse 7706" cx="46" cy="46" r="46" transform="translate(435 4341)" fill="#583cb6"/>
    </g>
    <g id="Grupo_963283" data-name="Grupo 963283" transform="translate(1439.176 1202.344)">
      <rect id="Rectángulo_307158" data-name="Rectángulo 307158" width="17.249" height="22.149" transform="translate(-356.568 -225.317)" fill="#e8e7f2"/>
      <rect id="Rectángulo_307159" data-name="Rectángulo 307159" width="17.249" height="22.149" transform="translate(-331.871 -225.317)" fill="#e8e7f2"/>
      <rect id="Rectángulo_307160" data-name="Rectángulo 307160" width="17.249" height="22.149" transform="translate(-318.934 -190.525)" fill="#e8e7f2"/>
      <rect id="Rectángulo_307161" data-name="Rectángulo 307161" width="17.249" height="22.149" transform="translate(-343.632 -190.525)" fill="#e8e7f2"/>
      <rect id="Rectángulo_307162" data-name="Rectángulo 307162" width="17.249" height="22.149" transform="translate(-368.329 -190.525)" fill="#e8e7f2"/>
      <path id="Trazado_635017" data-name="Trazado 635017" d="M-329.656-189.534c-4.286-.007-8.572-.009-12.858-.03-.41,0-.464.154-.463.506q.013,9.728,0,19.456c0,.427.124.522.529.516,1.571-.023,3.142-.012,4.713-.008.833,0,1.3.384,1.282,1.034-.017.619-.478.984-1.269.985q-2.962.006-5.925,0c-.994,0-1.341-.342-1.342-1.326,0-3.074-.015-6.149.011-9.223,0-.533-.084-.736-.676-.711-1.255.053-2.513.037-3.769,0-.465-.012-.6.111-.6.588.022,3.074.012,6.149.011,9.223,0,1.133-.311,1.445-1.432,1.445q-8.416,0-16.832,0c-1.045,0-1.37-.322-1.37-1.359q0-10.906,0-21.812c0-1,.333-1.33,1.328-1.331,2.312,0,4.623-.01,6.935.008.41,0,.6-.045.686-.531a9,9,0,0,1,9.053-7.335c13.173.064,26.347.025,39.521.022a6.9,6.9,0,0,0,6.842-4.933,6.832,6.832,0,0,0-6-8.708c-2.168-.231-2.168-.231-2.168,1.927q0,3.939,0,7.877c0,1.1-.31,1.415-1.383,1.416-1.975,0-3.95.006-5.925,0-.715,0-1.147-.348-1.208-.915a1,1,0,0,1,1.071-1.1c1.076-.024,2.152-.024,3.228-.035a14.752,14.752,0,0,1,1.475.041c.6.073.738-.139.735-.73-.025-5.581-.015-11.163-.015-16.744,0-.852-.017-1.7.008-2.555.011-.36-.106-.466-.455-.446-.581.034-1.163.026-1.745.036q-6.494-.014-12.987-.035c-.372,0-.38.174-.378.451.008,1.3,0,2.6,0,3.9,0,5.137.008,10.274-.012,15.411,0,.539.1.73.685.713,1.524-.044,3.051-.018,4.576-.013.8,0,1.245.369,1.246,1s-.458,1.018-1.239,1.021q-3.028.012-6.057,0c-.868,0-1.216-.362-1.218-1.238-.006-3.118-.013-6.236.008-9.355,0-.508-.1-.7-.655-.68-1.277.046-2.557.036-3.836,0-.472-.012-.6.12-.6.595.022,3.1.012,6.191.01,9.287,0,1.079-.314,1.389-1.407,1.39-1.974,0-3.949.01-5.923,0-.836-.006-1.349-.58-1.152-1.27a.99.99,0,0,1,1.06-.75c1.031,0,2.062-.017,3.093-.027.559.01,1.122-.019,1.675.04s.646-.18.644-.676c-.018-4.387-.01-8.774-.01-13.161,0-2.037-.01-4.074.009-6.11,0-.391-.063-.566-.5-.531-.6.048-1.206.028-1.81.037-4.286-.009-8.571-.01-12.857-.036-.566,0-.394.364-.394.632q-.011,7.944-.005,15.887c0,1.122.023,2.244-.011,3.366-.015.482.147.6.608.591,1.548-.027,3.1-.014,4.645-.009.791,0,1.256.37,1.268.982.012.635-.477,1.035-1.3,1.038q-2.9.009-5.79,0c-1.139,0-1.449-.3-1.45-1.427,0-3.052-.016-6.1.012-9.155.005-.571-.165-.722-.716-.688a8.857,8.857,0,0,1-7.159-2.6,8.575,8.575,0,0,1-2.579-5.956c-.025-.792.336-1.261.952-1.288s1.028.425,1.068,1.2a6.807,6.807,0,0,0,6.91,6.628c1.509.017,1.509.017,1.509-1.469q0-4.174,0-8.348c0-1.1.3-1.4,1.389-1.4q8.416,0,16.831,0c1.1,0,1.391.287,1.392,1.388,0,3.074.015,6.149-.013,9.223,0,.523.148.632.638.619,1.278-.035,2.559-.041,3.837,0,.532.018.618-.166.615-.647-.022-3.051-.012-6.1-.01-9.155,0-1.15.277-1.429,1.416-1.429q8.382,0,16.764,0c1.139,0,1.416.28,1.417,1.43q0,4.241,0,8.482c0,1.3,0,1.31,1.279,1.3a8.962,8.962,0,0,1,5.813,1.928,8.8,8.8,0,0,1,2.9,9.788,8.873,8.873,0,0,1-8.4,6.008q-13.3.018-26.593,0c-4.443,0-8.887-.014-13.33,0a6.845,6.845,0,0,0-6.9,5.446,3.382,3.382,0,0,0-.039.362h7.158c1.275,0,1.552.272,1.553,1.525,0,3.029.012,6.059-.011,9.088,0,.489.1.652.618.635,1.278-.042,2.559-.037,3.837,0,.473.013.592-.12.589-.589-.022-3.074-.012-6.148-.011-9.223,0-1.127.308-1.434,1.436-1.434H-326.8c1.13,0,1.438.307,1.439,1.431,0,3.074.011,6.149-.011,9.223,0,.465.109.6.586.592,1.3-.035,2.6-.031,3.9,0,.443.01.558-.121.556-.559-.019-3.074-.011-6.149-.009-9.223,0-1.171.3-1.463,1.477-1.463h16.7c1.169,0,1.455.29,1.455,1.474q0,10.8,0,21.61c0,1.122-.3,1.418-1.445,1.419-2.289,0-4.578.008-6.867-.008-.394,0-.548.072-.634.513a8.8,8.8,0,0,1-8.905,7.325q-20.467.009-40.934,0a2.278,2.278,0,0,1-.727-.077.914.914,0,0,1-.632-.938.921.921,0,0,1,.729-.936,3.711,3.711,0,0,1,.865-.065q20.265,0,40.53,0a6.856,6.856,0,0,0,7.066-5.49c.019-.086.019-.175.034-.319h-5.592c-.628,0-1.257.006-1.885,0-.873-.01-1.229-.381-1.23-1.305-.005-3.074-.02-6.149.013-9.223.006-.595-.141-.755-.735-.732-1.255.05-2.513.037-3.769,0-.458-.012-.548.141-.545.565.017,3.1.01,6.193.008,9.29,0,1.078-.325,1.4-1.4,1.4q-2.928,0-5.857,0c-.826,0-1.291-.391-1.27-1.046.02-.625.464-.967,1.27-.974q1.48-.013,2.96-.023c.537.008,1.078-.024,1.61.035.581.064.685-.158.683-.7-.021-5.868-.009-11.737-.019-17.606,0-.707.313-1.681-.129-2.053C-327.978-189.839-328.921-189.56-329.656-189.534Zm-37.951,20.31c-.019.093.015.132.11.108l13.2,0c.538.008,1.078-.017,1.612.034s.668-.124.666-.657c-.02-5.987-.013-11.974-.013-17.96,0-.471-.022-.943.007-1.412.023-.361-.109-.467-.457-.45-.6.03-1.21.021-1.814.029-4.309-.007-8.617-.005-12.925-.033-.5,0-.4.279-.4.553q0,4.107,0,8.213Q-367.621-175.012-367.607-169.223Zm62.594.106c.538.008,1.08-.023,1.612.035.562.06.7-.124.694-.686-.023-5.878-.01-11.757-.02-17.635,0-.707.317-1.71-.133-2.046-.475-.354-1.415-.083-2.153-.086q-6.423-.01-12.847-.028c-.345,0-.475.087-.458.449.029.581.008,1.166.008,1.749q0,8.811,0,17.623c0,.308-.135.662.448.658C-313.578-169.112-309.3-169.11-305.013-169.117Z" fill="#040404"/>
      <path id="Trazado_635018" data-name="Trazado 635018" d="M-208.206-174.51a3.73,3.73,0,0,1-.929.12c-2.984-.006-5.968,0-8.952,0-1.1,0-1.4-.3-1.4-1.393q0-3.163,0-6.326c0-.915.344-1.257,1.257-1.258,3.074,0,6.147,0,9.221-.01a6.551,6.551,0,0,1,.842.149,1.405,1.405,0,0,1,.442,1.141q-.024,3.2,0,6.394A1.383,1.383,0,0,1-208.206-174.51Zm-3.859-6.824c-1.659-.006-3.318-.005-4.976-.023-.311,0-.433.079-.429.411.015,1.367.013,2.735,0,4.1,0,.312.091.439.42.434,1.658-.024,3.316-.029,4.974-.042.624.014,1.248.016,1.871.047.354.018.462-.125.458-.468q-.021-2.009,0-4.018c0-.333-.077-.487-.445-.469C-210.815-181.329-211.441-181.34-212.065-181.334Z" transform="translate(-109.648 -31.364)" fill="#030303"/>
      <path id="Trazado_635019" data-name="Trazado 635019" d="M-252.342-75.11a1.987,1.987,0,0,1-.973.2c-3.024-.007-6.049,0-9.073,0-1,0-1.35-.342-1.355-1.317q-.01-2.251,0-4.5c0-.955.353-1.311,1.288-1.312,3.069,0,6.139,0,9.208-.006a2.037,2.037,0,0,1,.908.191,1.578,1.578,0,0,1,.4,1.164q-.022,2.213,0,4.425A1.539,1.539,0,0,1-252.342-75.11Zm-3.891-1.85c.6.008,1.207,0,1.809.029.339.015.48-.082.468-.447q-.037-1.106,0-2.213c.013-.367-.13-.459-.467-.444-.6.027-1.206.02-1.81.027-1.677-.007-3.354-.007-5.032-.027-.335,0-.481.074-.468.443.026.737.025,1.477,0,2.214-.012.365.128.451.467.446C-259.587-76.952-257.909-76.952-256.232-76.96Z" transform="translate(-77.33 -105.354)" fill="#030303"/>
      <path id="Trazado_635020" data-name="Trazado 635020" d="M-252.342-41.657a2,2,0,0,1-.974.2c-3.024-.007-6.049,0-9.073,0-1,0-1.35-.34-1.354-1.316q-.01-2.251,0-4.5c0-.958.35-1.308,1.287-1.309,3.069,0,6.138,0,9.208-.006a2.018,2.018,0,0,1,.908.187,1.575,1.575,0,0,1,.4,1.164q-.022,2.213,0,4.427A1.547,1.547,0,0,1-252.342-41.657Zm-3.891-1.852c.6.008,1.207,0,1.809.029.339.015.48-.081.468-.447-.025-.737-.025-1.476,0-2.213.013-.367-.13-.459-.467-.444-.6.027-1.206.02-1.81.027-1.677-.007-3.354-.007-5.032-.027-.335,0-.481.074-.468.443q.039,1.106,0,2.214c-.012.365.128.451.467.447C-259.587-43.5-257.909-43.5-256.232-43.509Z" transform="translate(-77.33 -129.782)" fill="#030303"/>
      <path id="Trazado_635021" data-name="Trazado 635021" d="M-307.527-192.331a1.256,1.256,0,0,1,.878.432c.533.545,1.094,1.064,1.605,1.628.284.314.446.282.73-.007,1.428-1.457,2.88-2.89,4.32-4.335a1.4,1.4,0,0,1,.839-.516.951.951,0,0,1,.965.479.941.941,0,0,1-.1,1.181c-.389.433-.813.835-1.225,1.247q-2.092,2.094-4.185,4.185c-.758.756-1.184.759-1.929.019-.843-.838-1.68-1.681-2.522-2.519a1.022,1.022,0,0,1-.264-1.169A1.013,1.013,0,0,1-307.527-192.331Z" transform="translate(-44.653 -22.782)" fill="#070707"/>
      <path id="Trazado_635022" data-name="Trazado 635022" d="M-208.2-211.682c.59.7.588,1.042-.012,1.741a2.6,2.6,0,0,1-.784.142c-3.113-.007-6.226,0-9.339-.007-.857,0-1.391-.616-1.148-1.319a1,1,0,0,1,1.03-.7q4.8.006,9.607,0A2.049,2.049,0,0,1-208.2-211.682Z" transform="translate(-109.613 -10.593)" fill="#020202"/>
      <path id="Trazado_635023" data-name="Trazado 635023" d="M-208.153-197.182c.6.7.6,1.042.006,1.741a1.011,1.011,0,0,1-.7.142q-4.705,0-9.411,0c-.781,0-1.223-.387-1.212-1.027.01-.611.444-.989,1.184-.99,3.115-.005,6.229,0,9.344-.007A2.588,2.588,0,0,1-208.153-197.182Z" transform="translate(-109.665 -21.184)" fill="#020202"/>
      <path id="Trazado_635024" data-name="Trazado 635024" d="M-362.088-14.656l.11.108C-362.074-14.524-362.108-14.563-362.088-14.656Z" transform="translate(-5.518 -154.567)" fill="#e4e2f0"/>
      <path id="Trazado_635025" data-name="Trazado 635025" d="M-206.614-170.97c-1.658.012-3.316.018-4.974.042-.329,0-.423-.122-.42-.434.012-1.367.014-2.735,0-4.1,0-.332.118-.414.429-.411,1.659.018,3.317.017,4.976.023Z" transform="translate(-115.109 -36.845)" fill="#d48385"/>
      <path id="Trazado_635026" data-name="Trazado 635026" d="M-192.013-170.98l.011-4.883c.625-.006,1.25,0,1.874-.025.367-.018.448.136.445.469q-.021,2.009,0,4.018c0,.342-.1.485-.458.468C-190.765-170.964-191.389-170.965-192.013-170.98Z" transform="translate(-129.711 -36.835)" fill="#b6676c"/>
      <path id="Trazado_635027" data-name="Trazado 635027" d="M-250.776-71.494c-1.677.008-3.355.008-5.032.029-.338,0-.479-.081-.467-.446.025-.737.026-1.477,0-2.214-.013-.369.132-.447.468-.443,1.677.02,3.354.02,5.032.027Z" transform="translate(-82.786 -110.819)" fill="#88b2f2"/>
      <path id="Trazado_635028" data-name="Trazado 635028" d="M-235.892-71.5v-3.047c.6-.007,1.207,0,1.81-.027.337-.015.48.077.467.444q-.038,1.106,0,2.213c.012.365-.129.462-.468.447C-234.685-71.5-235.289-71.49-235.892-71.5Z" transform="translate(-97.67 -110.816)" fill="#6c9eed"/>
      <path id="Trazado_635029" data-name="Trazado 635029" d="M-250.776-38.056c-1.677.008-3.355.008-5.032.029-.338,0-.479-.081-.467-.447q.037-1.106,0-2.214c-.013-.369.132-.447.468-.443,1.677.02,3.354.02,5.032.027Z" transform="translate(-82.786 -135.236)" fill="#88b2f2"/>
      <path id="Trazado_635030" data-name="Trazado 635030" d="M-235.892-38.06v-3.047c.6-.007,1.207,0,1.81-.027.337-.015.48.077.467.444-.026.737-.025,1.476,0,2.213.012.365-.129.462-.468.447C-234.685-38.058-235.289-38.052-235.892-38.06Z" transform="translate(-97.67 -135.232)" fill="#6c9eed"/>
      <path id="Trazado_635031" data-name="Trazado 635031" d="M-162.08-77.641a1.045,1.045,0,0,1,.813,1.016c.006.56-.373.816-.813,1.022l-10.209-.007c-.2,0-.4.012-.6-.008a1.044,1.044,0,0,1-1.011-1.047,1.011,1.011,0,0,1,1.078-.962c1.545-.012,3.09,0,4.635,0Z" transform="translate(-142.933 -108.576)" fill="#040404"/>
      <path id="Trazado_635032" data-name="Trazado 635032" d="M-162.071-48.63a1.092,1.092,0,0,1,.813,1.022,1.077,1.077,0,0,1-.813,1.02l-10.346-.013a4.628,4.628,0,0,1-.537-.006.981.981,0,0,1-.937-.967.983.983,0,0,1,.937-1.031c.58-.036,1.164-.01,1.746-.011Z" transform="translate(-142.941 -129.76)" fill="#020202"/>
      <path id="Trazado_635033" data-name="Trazado 635033" d="M-162.079-63.13a1.066,1.066,0,0,1,.813,1.018c0,.555-.364.823-.812,1.023l-10.278-.01a5.179,5.179,0,0,1-.6-.01,1.039,1.039,0,0,1-.944-1.04,1,1,0,0,1,1.01-.963c.918-.023,1.836-.007,2.754-.008Z" transform="translate(-142.933 -119.172)" fill="#020202"/>
      <path id="Trazado_635034" data-name="Trazado 635034" d="M-169.721-32.078c-1.008,0-2.015.007-3.023,0-.717-.006-1.177-.415-1.168-1.012a1.039,1.039,0,0,1,1.126-1q3.09-.021,6.18,0a1.019,1.019,0,0,1,1.094,1.026,1.007,1.007,0,0,1-1.119.985C-167.661-32.07-168.691-32.078-169.721-32.078Z" transform="translate(-142.928 -140.367)" fill="#040404"/>
      <path id="Trazado_635035" data-name="Trazado 635035" d="M-343.841-82.882a1.435,1.435,0,0,1,.488,1.19q-.011,7.024,0,14.047a1.441,1.441,0,0,1-.495,1.187,2.8,2.8,0,0,1-.856.125c-3.027-.006-6.054,0-9.082,0-1.027,0-1.36-.337-1.36-1.377q0-6.962,0-13.924c0-1.033.336-1.368,1.367-1.369q4.541,0,9.081,0A2.639,2.639,0,0,1-343.841-82.882Zm-8.243,2.072,2.832,4.344,1.668-2.581a15.518,15.518,0,0,0,1.283-1.916h-5.752l-.1.022Zm4.5,10.516-1.669-2.581-2.836,4.342-.071.137.1.023h5.807Zm2.161-.454V-78.6c-.882,1.32-1.672,2.511-2.474,3.694a.368.368,0,0,0,.01.48C-347.086-73.241-346.294-72.053-345.421-70.748Zm-7.675.029c.566-.845,1.055-1.552,1.517-2.276.359-.562,1.045-1.091,1-1.685s-.649-1.133-1.016-1.691c-.468-.711-.945-1.417-1.5-2.253Z" transform="translate(-10.591 -104.655)" fill="#040404"/>
      <path id="Trazado_635036" data-name="Trazado 635036" d="M-343.808-41.1l2.836-4.342,1.669,2.581q-.017.961-.034,1.921h-4.438Z" transform="translate(-18.87 -132.087)" fill="#f6dc89"/>
      <path id="Trazado_635037" data-name="Trazado 635037" d="M-339.3-73.508l-1.668,2.581L-343.8-75.27l.03-.154h4.437Z" transform="translate(-18.878 -110.195)" fill="#f6dc89"/>
      <path id="Trazado_635038" data-name="Trazado 635038" d="M-326.024-58.8c-.873-1.305-1.665-2.493-2.464-3.676a.368.368,0,0,1-.01-.48c.8-1.183,1.592-2.374,2.474-3.694Z" transform="translate(-29.989 -116.599)" fill="#e9c46e"/>
      <path id="Trazado_635039" data-name="Trazado 635039" d="M-347.546-58.846v-7.9c.558.836,1.035,1.541,1.5,2.253.367.558.973,1.105,1.016,1.691s-.642,1.124-1,1.685C-346.491-60.4-346.98-59.692-347.546-58.846Z" transform="translate(-16.141 -116.528)" fill="#f0d786"/>
      <path id="Trazado_635040" data-name="Trazado 635040" d="M-327.2-73.505l-.032-1.916h1.315A15.517,15.517,0,0,1-327.2-73.505Z" transform="translate(-30.971 -110.197)" fill="#e9c46e"/>
      <path id="Trazado_635041" data-name="Trazado 635041" d="M-327.237-33.956q.017-.96.034-1.921l1.335,1.921Z" transform="translate(-30.971 -139.072)" fill="#e9c46e"/>
      <path id="Trazado_635042" data-name="Trazado 635042" d="M-343.961-75.424l-.03.154-.072-.132Z" transform="translate(-18.684 -110.195)" fill="#e9c46e"/>
      <path id="Trazado_635043" data-name="Trazado 635043" d="M-344-29.348l.033.161-.1-.023Z" transform="translate(-18.679 -143.839)" fill="#e9c46e"/>
    </g>
  </g>
</svg>
