<svg xmlns="http://www.w3.org/2000/svg" width="92" height="92" viewBox="0 0 92 92">
  <g id="Grupo_963288" data-name="Grupo 963288" transform="translate(3550.219 10740.444)">
    <g id="Grupo_963198" data-name="Grupo 963198" transform="translate(-3985.219 -15081.444)">
      <circle id="Elipse_7706" data-name="Elipse 7706" cx="46" cy="46" r="46" transform="translate(435 4341)" fill="#583cb6"/>
    </g>
    <g id="Grupo_963285" data-name="Grupo 963285" transform="translate(-3162.31 -11169.994)">
      <path id="Trazado_635077" data-name="Trazado 635077" d="M-321.925,480.366c1.606-1.619,3.048-3.141,4.564-4.585a4.736,4.736,0,0,1,7.83,2.071,4.6,4.6,0,0,1-1.278,4.831q-3.631,3.655-7.288,7.283c-1.155,1.154-2.3,2.316-3.47,3.455a1.109,1.109,0,0,0-.366.882c.012,4.385,0,8.77.022,13.155,0,.533-.131.65-.656.65q-25.652-.023-51.3,0c-.54,0-.644-.14-.644-.656q.023-26.374,0-52.748a1.266,1.266,0,0,1,.408-.992q5.192-5.151,10.353-10.334a1.2,1.2,0,0,1,.942-.376q20.114.013,40.228-.01c.6,0,.666.187.666.705q-.021,17.89-.011,35.78Zm-17.3,24.017c.08-.3.131-.5.187-.692.78-2.743,1.566-5.484,2.333-8.231a2.091,2.091,0,0,1,.563-.96q5.859-5.833,11.711-11.674a1.2,1.2,0,0,0,.392-.94q-.016-18.079,0-36.159c0-.506-.141-.621-.631-.621q-18.3.02-36.6,0c-.563,0-.641.182-.638.679.022,3.093,0,6.185.023,9.278,0,.452-.118.553-.559.551-3.119-.02-6.237,0-9.356-.02-.44,0-.615.058-.615.569q.024,24.625,0,49.25c0,.491.148.587.608.587q23.582-.018,47.164,0c.465,0,.606-.1.6-.587-.025-2.987-.011-5.974-.016-8.96,0-.131.072-.293-.128-.433q-2.62,2.625-5.238,5.255a1.865,1.865,0,0,1-.854.509c-1.568.441-3.128.907-4.691,1.362Zm21.3-22.858a4.517,4.517,0,0,1-.462-.353c-.717-.707-.714-.71-1.4-.021l-13.535,13.513c-.821.82-.813.811.045,1.632.233.223.361.252.6.008q7.206-7.216,14.429-14.416C-318.157,481.8-318.078,481.7-317.924,481.525Zm2.558,2.713c-.119-.134-.223-.264-.339-.383-.751-.774-.752-.773-1.495-.032l-13.5,13.48c-.8.8-.79.788.014,1.582.229.226.368.319.649.037q7.189-7.2,14.4-14.381C-315.55,484.453-315.471,484.355-315.366,484.238Zm-55.352-30.717c2.1,0,4.217-.009,6.33.007.424,0,.415-.23.414-.526-.006-1.416,0-2.832,0-4.248v-1.965Zm56.651,23.04a2.32,2.32,0,0,0-1.443.42,19.528,19.528,0,0,0-1.935,1.826c-.2.181-.059.286.064.408,1.093,1.09,2.189,2.179,3.275,3.277.181.183.3.235.507.019.507-.539,1.072-1.028,1.548-1.591a2.5,2.5,0,0,0,.359-2.844A2.569,2.569,0,0,0-314.067,476.561ZM-335.1,497.533l-1.059,3.774,3.749-1.1Z" fill="#050505"/>
      <path id="Trazado_635078" data-name="Trazado 635078" d="M-333.056,510.56l4.263-1.239c1.563-.456,3.123-.922,4.691-1.362a1.865,1.865,0,0,0,.854-.509q2.612-2.635,5.238-5.255c.2.14.127.3.128.433.005,2.987-.008,5.974.016,8.96,0,.487-.137.587-.6.587q-23.582-.019-47.164,0c-.461,0-.609-.1-.608-.587q.021-24.625,0-49.25c0-.511.175-.572.615-.569,3.119.017,6.237,0,9.356.02.441,0,.562-.1.559-.551-.022-3.092,0-6.185-.023-9.278,0-.5.075-.68.638-.679q18.3.028,36.6,0c.491,0,.632.114.631.62q-.023,18.079,0,36.159a1.2,1.2,0,0,1-.392.94q-5.863,5.829-11.711,11.674a2.091,2.091,0,0,0-.563.96c-.767,2.747-1.553,5.488-2.333,8.231C-332.925,510.064-332.976,510.263-333.056,510.56Zm-3.732-57.179q-5.632,0-11.263,0a5.246,5.246,0,0,0-5.556,5.524q-.016,3.939,0,7.878a5.25,5.25,0,0,0,5.515,5.506q11.3.011,22.59,0a5.28,5.28,0,0,0,5.537-5.561q.006-3.875,0-7.751a5.285,5.285,0,0,0-5.624-5.6Q-331.188,453.377-336.787,453.381ZM-364.13,502.26a7.507,7.507,0,0,0,7.094,7.811,7.343,7.343,0,0,0,6.933-10.414.585.585,0,0,1,.14-.761c1.155-1.241,2.29-2.5,3.428-3.758.341-.376.938-.772.925-1.142s-.678-.683-1.006-1.066c-.344-.4-.539-.258-.829.069-1.21,1.363-2.46,2.69-3.665,4.058-.323.367-.479.437-.915.084a7.013,7.013,0,0,0-7.785-1.076A7.023,7.023,0,0,0-364.13,502.26Zm7.355-11.094a7.332,7.332,0,0,0,6.723-10.294.742.742,0,0,1,.178-.969c1.127-1.209,2.235-2.435,3.344-3.661.339-.374.927-.776.914-1.149-.014-.441-.7-.715-1.056-1.1-.259-.283-.417-.277-.685.025-1.25,1.411-2.541,2.787-3.792,4.2-.3.335-.453.4-.834.066a7.3,7.3,0,0,0-8.789-.61,7.36,7.36,0,0,0-3.066,8.212A7.382,7.382,0,0,0-356.775,491.166Zm24.22-12.6h-11.193c-1.451,0-1.414,0-1.466,1.434-.023.626.211.7.75.7q11.511-.023,23.023-.011c1.482,0,1.458,0,1.491-1.468.011-.513-.1-.674-.648-.671C-324.583,478.579-328.569,478.567-332.554,478.567Zm-.069,10.521h11.257c1.406,0,1.376,0,1.419-1.412.018-.579-.14-.728-.724-.727q-11.511.032-23.022.014c-1.51,0-1.488,0-1.515,1.511-.009.5.131.627.629.625C-340.594,489.079-336.609,489.088-332.624,489.088Zm-2.1-4.2h9.092c1.472,0,1.447,0,1.48-1.478.012-.528-.134-.661-.661-.66-6.294.019-12.588.012-18.882.012-1.508,0-1.486,0-1.513,1.511-.009.5.131.629.63.626C-341.295,484.88-338.01,484.89-334.725,484.89Zm-4.646,12.592h-4.324c-1.51,0-1.48,0-1.516,1.495-.013.545.2.6.65.6,3.137-.016,6.273-.009,9.41-.009,1.539,0,1.524,0,1.524-1.566,0-.415-.112-.533-.531-.527C-335.895,497.5-337.633,497.482-339.371,497.482Zm0,4.2h-4.324c-1.51,0-1.482,0-1.517,1.494-.012.537.186.6.646.6,3.137-.018,6.274-.009,9.412-.009,1.54,0,1.525,0,1.525-1.568,0-.41-.1-.536-.528-.53C-335.892,501.694-337.63,501.679-339.368,501.679Zm-.066,4.2H-343.7c-1.507,0-1.479,0-1.513,1.5-.012.536.186.6.647.6,3.117-.017,6.234-.009,9.351-.009,1.6,0,1.586,0,1.585-1.574,0-.413-.106-.534-.529-.528C-335.915,505.891-337.675,505.877-339.435,505.877Zm19.473-22.043c0-1.068,0-1.068-1.053-1.068-1.072,0-1.072,0-1.072,1.058s0,1.067,1.061,1.067S-319.962,484.89-319.962,483.834Z" transform="translate(-6.166 -6.177)" fill="#e4e7ea"/>
      <path id="Trazado_635079" data-name="Trazado 635079" d="M-199.179,591.674c-.154.174-.233.274-.322.362q-7.216,7.206-14.429,14.416c-.244.244-.372.215-.6-.008-.858-.822-.866-.812-.045-1.632l13.535-13.513c.69-.689.687-.686,1.4.021A4.526,4.526,0,0,0-199.179,591.674Z" transform="translate(-118.745 -110.149)" fill="#e98571"/>
      <path id="Trazado_635080" data-name="Trazado 635080" d="M-188.9,602.091c-.1.117-.184.215-.273.3q-7.2,7.188-14.4,14.381c-.282.282-.421.188-.649-.037-.8-.794-.811-.787-.014-1.582l13.5-13.48c.742-.741.744-.742,1.495.032C-189.128,601.828-189.023,601.957-188.9,602.091Z" transform="translate(-126.462 -117.854)" fill="#b7d587"/>
      <path id="Trazado_635081" data-name="Trazado 635081" d="M-359.609,464.631l6.741-6.732v1.965c0,1.416,0,2.832,0,4.248,0,.3.01.529-.414.526C-355.392,464.622-357.5,464.631-359.609,464.631Z" transform="translate(-11.109 -11.11)" fill="#ecce7a"/>
      <path id="Trazado_635082" data-name="Trazado 635082" d="M-147.37,574.775A2.569,2.569,0,0,1-145,576.291a2.5,2.5,0,0,1-.359,2.844c-.477.563-1.041,1.051-1.548,1.591-.2.215-.325.164-.507-.019-1.086-1.1-2.182-2.186-3.275-3.277-.123-.123-.26-.228-.064-.408a19.527,19.527,0,0,1,1.935-1.826A2.32,2.32,0,0,1-147.37,574.775Z" transform="translate(-166.697 -98.215)" fill="#f6e5ab"/>
      <path id="Trazado_635083" data-name="Trazado 635083" d="M-222.875,657.117l2.69,2.678-3.749,1.1Z" transform="translate(-112.226 -159.584)" fill="#e3cab1"/>
      <path id="Trazado_635084" data-name="Trazado 635084" d="M-299.841,459.522q5.6,0,11.2,0a5.285,5.285,0,0,1,5.624,5.6q0,3.875,0,7.751a5.28,5.28,0,0,1-5.537,5.561q-11.3.011-22.59,0a5.25,5.25,0,0,1-5.515-5.506q-.018-3.939,0-7.878a5.246,5.246,0,0,1,5.556-5.523Q-305.473,459.514-299.841,459.522Zm-.038,16.789q5.662,0,11.324,0a3.128,3.128,0,0,0,3.413-3.384q.012-3.938,0-7.876a3.13,3.13,0,0,0-3.386-3.415q-11.324-.013-22.649,0a3.154,3.154,0,0,0-3.4,3.42q-.006,3.906,0,7.813a3.168,3.168,0,0,0,3.432,3.443Q-305.51,476.313-299.879,476.311Z" transform="translate(-43.112 -12.318)" fill="#050504"/>
      <path id="Trazado_635085" data-name="Trazado 635085" d="M-357.949,623.415a7.024,7.024,0,0,1,4.32-6.194,7.013,7.013,0,0,1,7.785,1.076c.436.354.592.284.915-.084,1.2-1.367,2.455-2.695,3.665-4.058.29-.327.485-.471.829-.069.328.383.993.7,1.006,1.066s-.585.767-.925,1.142c-1.138,1.257-2.273,2.517-3.428,3.758a.585.585,0,0,0-.14.761,7.343,7.343,0,0,1-6.933,10.414A7.507,7.507,0,0,1-357.949,623.415Zm12.26-1.314c-.181.226-.29.379-.415.518-1.283,1.412-2.579,2.811-3.844,4.239-.333.376-.563.514-1.021.148-.626-.5-1.327-.909-2-1.353-1.425-.944-1.416-.936-.432-2.306.2-.279.339-.295.6-.108.517.368,1.069.69,1.577,1.069.331.247.532.253.826-.083,1.046-1.2,2.109-2.38,3.211-3.524.385-.4.277-.6-.087-.874a5.053,5.053,0,0,0-5.494-.7,4.977,4.977,0,0,0-3.06,4.6,5.105,5.105,0,0,0,3.072,4.92,5.081,5.081,0,0,0,5.686-.895A5.121,5.121,0,0,0-345.689,622.1Z" transform="translate(-12.346 -127.332)" fill="#030303"/>
      <path id="Trazado_635086" data-name="Trazado 635086" d="M-350.581,557.012a7.382,7.382,0,0,1-7.064-5.285,7.36,7.36,0,0,1,3.066-8.212,7.3,7.3,0,0,1,8.789.61c.381.334.537.269.834-.066,1.251-1.411,2.542-2.787,3.792-4.2.268-.3.427-.308.685-.025.354.387,1.042.662,1.056,1.1.013.373-.576.775-.914,1.149-1.109,1.225-2.218,2.452-3.344,3.661a.742.742,0,0,0-.178.969A7.332,7.332,0,0,1-350.581,557.012Zm4.954-9.084c-.229.239-.376.388-.518.543-1.313,1.44-2.633,2.874-3.931,4.327-.248.278-.422.319-.734.1-.706-.5-1.439-.971-2.161-1.452-1.4-.932-1.388-.924-.407-2.314.207-.294.34-.275.592-.095.5.356,1.033.667,1.524,1.033.359.267.588.3.919-.087q1.535-1.78,3.163-3.479c.361-.378.318-.583-.067-.876a5.059,5.059,0,0,0-5.488-.713,4.988,4.988,0,0,0-3.078,4.654,5.168,5.168,0,0,0,3.109,4.9,5.168,5.168,0,0,0,5.674-.937A5.154,5.154,0,0,0-345.627,547.928Z" transform="translate(-12.359 -72.023)" fill="#030303"/>
      <path id="Trazado_635087" data-name="Trazado 635087" d="M-271.032,558.368c3.986,0,7.971.011,11.957-.013.544,0,.66.158.648.671-.033,1.467-.009,1.468-1.491,1.468q-11.511,0-23.023.011c-.54,0-.773-.076-.75-.7.052-1.433.015-1.434,1.466-1.434Z" transform="translate(-67.688 -85.978)" fill="#070707"/>
      <path id="Trazado_635088" data-name="Trazado 635088" d="M-271.084,593.457c-3.985,0-7.971-.009-11.956.012-.5,0-.638-.123-.629-.625.027-1.511,0-1.511,1.515-1.511q11.512,0,23.022-.014c.585,0,.742.148.724.727-.043,1.411-.013,1.412-1.419,1.412Z" transform="translate(-67.705 -110.546)" fill="#070707"/>
      <path id="Trazado_635089" data-name="Trazado 635089" d="M-273.186,576.979c-3.285,0-6.57-.011-9.854.012-.5,0-.639-.124-.63-.626.027-1.511,0-1.511,1.513-1.511,6.294,0,12.588.007,18.882-.013.528,0,.673.132.661.66-.033,1.477-.009,1.478-1.48,1.478Z" transform="translate(-67.705 -98.265)" fill="#070707"/>
      <path id="Trazado_635090" data-name="Trazado 635090" d="M-277.833,632.637c1.738,0,3.476.014,5.214-.01.419-.006.531.111.531.527,0,1.566.016,1.566-1.524,1.566-3.137,0-6.273-.007-9.41.009-.453,0-.664-.052-.65-.6.036-1.494.006-1.495,1.516-1.495Z" transform="translate(-67.703 -141.331)" fill="#010101"/>
      <path id="Trazado_635091" data-name="Trazado 635091" d="M-277.83,649.114c1.738,0,3.477.015,5.214-.01.425-.006.528.119.528.53,0,1.568.016,1.568-1.525,1.568-3.137,0-6.274-.008-9.412.009-.461,0-.659-.065-.646-.6.034-1.493.006-1.494,1.517-1.494Z" transform="translate(-67.704 -153.611)" fill="#010101"/>
      <path id="Trazado_635092" data-name="Trazado 635092" d="M-277.9,665.593c1.76,0,3.52.014,5.279-.01.423-.006.529.115.529.528,0,1.574.016,1.574-1.585,1.574-3.117,0-6.234-.008-9.351.009-.461,0-.659-.066-.647-.6.034-1.5.006-1.5,1.513-1.5Z" transform="translate(-67.705 -165.893)" fill="#010101"/>
      <path id="Trazado_635093" data-name="Trazado 635093" d="M-190.766,575.958c0,1.057,0,1.057-1.063,1.057s-1.061,0-1.061-1.067,0-1.058,1.072-1.058C-190.766,574.89-190.766,574.89-190.766,575.958Z" transform="translate(-135.362 -98.302)" fill="#070707"/>
      <path id="Trazado_635094" data-name="Trazado 635094" d="M-293.752,482.478q-5.631,0-11.261,0a3.168,3.168,0,0,1-3.432-3.443q0-3.906,0-7.813a3.154,3.154,0,0,1,3.4-3.42q11.324-.014,22.649,0a3.13,3.13,0,0,1,3.386,3.415q.01,3.938,0,7.876a3.128,3.128,0,0,1-3.413,3.384Q-288.089,482.48-293.752,482.478Zm9.518-4.194c.889,0,1.779-.012,2.668.007.334.007.486-.049.481-.439-.021-1.8-.018-3.594,0-5.391,0-.354-.092-.473-.459-.469q-2.7.025-5.4,0c-.407,0-.49.142-.486.514q.025,2.664,0,5.327c0,.364.109.468.466.46C-286.055,478.269-285.144,478.285-284.234,478.284Zm-9.521,0c.912,0,1.825-.016,2.736.008.364.009.467-.105.464-.464q-.025-2.668,0-5.336c0-.394-.113-.5-.5-.5-1.781.02-3.563.023-5.345,0-.415-.006-.481.137-.478.507q.027,2.668,0,5.336c0,.353.087.472.453.461C-295.537,478.267-294.645,478.284-293.754,478.285Zm-6.284-3.143c0-.888-.022-1.778.01-2.665.015-.406-.125-.488-.5-.484q-2.669.028-5.339,0c-.357,0-.469.094-.465.458q.026,2.7,0,5.394c0,.378.133.447.473.444q2.7-.021,5.4,0c.326,0,.438-.08.43-.42C-300.053,476.961-300.038,476.051-300.038,475.142Z" transform="translate(-49.239 -18.485)" fill="#f9e7ad"/>
      <path id="Trazado_635095" data-name="Trazado 635095" d="M-339.484,636.057a5.121,5.121,0,0,1-1.377,5.653,5.081,5.081,0,0,1-5.686.895,5.105,5.105,0,0,1-3.072-4.92,4.977,4.977,0,0,1,3.06-4.6,5.053,5.053,0,0,1,5.494.7c.364.278.473.475.087.874-1.1,1.144-2.166,2.328-3.211,3.524-.294.336-.5.331-.826.083-.509-.379-1.06-.7-1.577-1.069-.262-.187-.4-.171-.6.108-.983,1.37-.993,1.362.432,2.306.671.444,1.371.853,2,1.353.457.365.688.228,1.021-.148,1.265-1.428,2.562-2.827,3.844-4.239C-339.773,636.436-339.664,636.283-339.484,636.057Z" transform="translate(-18.551 -141.288)" fill="#b9d788"/>
      <path id="Trazado_635096" data-name="Trazado 635096" d="M-339.435,561.9a5.154,5.154,0,0,1-1.4,5.6,5.168,5.168,0,0,1-5.674.937,5.168,5.168,0,0,1-3.109-4.9,4.988,4.988,0,0,1,3.078-4.654,5.059,5.059,0,0,1,5.488.713c.385.293.428.5.067.876q-1.624,1.7-3.163,3.479c-.332.384-.56.355-.919.087-.491-.367-1.024-.677-1.524-1.033-.252-.18-.385-.2-.592.095-.981,1.391-.992,1.382.407,2.314.722.481,1.456.947,2.161,1.452.311.223.485.181.734-.1,1.3-1.453,2.618-2.887,3.931-4.327C-339.811,562.288-339.663,562.14-339.435,561.9Z" transform="translate(-18.551 -85.995)" fill="#b9d788"/>
      <path id="Trazado_635097" data-name="Trazado 635097" d="M-222.744,490.562c-.911,0-1.821-.015-2.731.008-.357.009-.47-.1-.466-.46q.026-2.663,0-5.327c0-.372.08-.519.486-.514q2.7.03,5.4,0c.367,0,.462.116.459.469-.016,1.8-.019,3.594,0,5.391,0,.39-.147.446-.481.439C-220.965,490.549-221.854,490.562-222.744,490.562Zm-1.065-3.153c0,1.07,0,1.07.984,1.07,1.1,0,1.1,0,1.1-1.088,0-1.027,0-1.027-1.02-1.027C-223.809,486.364-223.809,486.364-223.809,487.409Z" transform="translate(-110.73 -30.763)" fill="#030303"/>
      <path id="Trazado_635098" data-name="Trazado 635098" d="M-259.911,490.556c-.891,0-1.782-.017-2.672.009-.367.011-.457-.108-.453-.461q.025-2.668,0-5.336c0-.37.062-.512.478-.507,1.781.025,3.563.022,5.345,0,.391,0,.509.107.5.5q-.029,2.668,0,5.336c0,.359-.1.474-.464.464C-258.086,490.54-259,490.556-259.911,490.556Zm1.086-3.127c0-1.071,0-1.071-1.029-1.071-1.08,0-1.08,0-1.08,1.1,0,1.02,0,1.02,1.043,1.02C-258.824,488.473-258.824,488.473-258.824,487.429Z" transform="translate(-83.083 -30.757)" fill="#030303"/>
      <path id="Trazado_635099" data-name="Trazado 635099" d="M-293.858,487.424c0,.91-.015,1.82.008,2.729.008.34-.1.423-.43.42q-2.7-.022-5.4,0c-.34,0-.477-.066-.473-.444q.029-2.7,0-5.394c0-.365.109-.462.465-.458q2.669.025,5.339,0c.378,0,.517.078.5.484C-293.881,485.646-293.858,486.535-293.858,487.424Zm-2.081.048c0-1.1,0-1.1-1.079-1.1-1.047,0-1.047,0-1.047,1.068,0,1.05,0,1.05,1.074,1.05C-295.939,488.485-295.939,488.485-295.939,487.472Z" transform="translate(-55.419 -30.767)"/>
      <path id="Trazado_635100" data-name="Trazado 635100" d="M-217.569,493.54c0-1.045,0-1.045,1.062-1.045,1.02,0,1.02,0,1.02,1.027,0,1.088,0,1.088-1.1,1.088C-217.569,494.61-217.569,494.61-217.569,493.54Z" transform="translate(-116.969 -36.894)" fill="#b7d587"/>
      <path id="Trazado_635101" data-name="Trazado 635101" d="M-252.669,493.566c0,1.044,0,1.044-1.065,1.044-1.043,0-1.043,0-1.043-1.02,0-1.1,0-1.1,1.08-1.1C-252.669,492.495-252.669,492.495-252.669,493.566Z" transform="translate(-89.238 -36.894)" fill="#b7d587"/>
      <path id="Trazado_635102" data-name="Trazado 635102" d="M-289.82,493.595c0,1.013,0,1.013-1.052,1.013-1.074,0-1.074,0-1.074-1.05,0-1.068,0-1.068,1.047-1.068C-289.82,492.49-289.82,492.49-289.82,493.595Z" transform="translate(-61.538 -36.89)" fill="#b7d587"/>
    </g>
  </g>
</svg>
