<svg xmlns="http://www.w3.org/2000/svg" width="84.549" height="84.549" viewBox="0 0 84.549 84.549">
  <g id="Grupo_963207" data-name="Grupo 963207" transform="translate(0 0)">
    <g id="Grupo_952068" data-name="Grupo 952068" transform="translate(0 0)">
      <g id="Grupo_951854" data-name="Grupo 951854" transform="translate(0 0)">
        <path id="Trazado_621807" data-name="Trazado 621807" d="M42.274,0A42.274,42.274,0,1,1,0,42.274,42.274,42.274,0,0,1,42.274,0Z" transform="translate(0 0)" fill="#faebcd"/>
      </g>
    </g>
    <g id="Grupo_963293" data-name="Grupo 963293" transform="translate(375.435 410.024)">
      <path id="Trazado_635121" data-name="Trazado 635121" d="M-373.589-336.745c0-6.323.011-12.645-.016-18.968,0-.645.177-.8.795-.777,1.263.048,2.531-.029,3.793.032.674.033.776-.215.772-.812-.024-3.928,0-7.856-.027-11.784,0-.622.141-.8.783-.794,6.621.026,13.241.011,19.862.026.56,0,.8-.062.88-.741a14.712,14.712,0,0,1,12.1-12.376,14.587,14.587,0,0,1,16.908,12.561c.091.652.432.546.82.546,6.621,0,13.242.011,19.862-.015.655,0,.849.13.842.82-.038,3.928,0,7.856-.035,11.784-.005.649.181.807.8.783,1.263-.049,2.532.03,3.793-.033.674-.034.766.215.765.807q-.027,12.551-.012,25.1,0,6.175,0,12.349a4.058,4.058,0,0,1-4.418,4.414q-14.776.006-29.551-.014c-.64,0-.906.154-1.095.8a6.628,6.628,0,0,1-6.293,4.546,6.636,6.636,0,0,1-6.277-4.57.884.884,0,0,0-1.03-.773q-14.7.036-29.39.017c-3.05,0-4.635-1.573-4.635-4.6Q-373.59-327.583-373.589-336.745Zm76.057-17.057c-.107-.011-.213-.029-.32-.031-1.063-.019-1.063-.018-1.063-1.067,0-3.848-.013-7.7.014-11.544,0-.573-.155-.708-.715-.706q-8.64.031-17.28,0c-.547,0-.784.088-.86.71a13.59,13.59,0,0,1-2.031,5.632,33.159,33.159,0,0,0-1.9,3.176.662.662,0,0,0,.18.941,3.9,3.9,0,0,1-.837,6.337,1.48,1.48,0,0,0-.822,1.142,9,9,0,0,1-6.918,7.079c-.628.167-.857.338-.853,1.031q.05,9.2,0,18.405c0,.737.207.872.9.87q15.14-.034,30.281,0c.731,0,.868-.2.867-.889q-.037-13.481-.016-26.962c0-1.414,0-1.414,1.383-1.5,1.3.084,1.3.084,1.3,1.411q0,14.893.015,29.786c0,.655-.134.846-.823.845q-35.206-.03-70.412,0c-.685,0-.827-.184-.825-.843q.033-16.1.016-32.208c0-1.65,0-1.606-1.689-1.668-.777-.028-.979.181-.977.966q.041,17.153.019,34.307c0,1.772.3,2.072,2.057,2.072,10.524,0,21.048.012,31.572-.021.862,0,1.057.237,1.042,1.061a3.978,3.978,0,0,0,2.688,4.07c2.758.93,5.317-1.049,5.293-4.158-.006-.777.185-.972.968-.97q15.786.043,31.572.018c.3,0,.593,0,.887-.024a1.211,1.211,0,0,0,1.209-1.168,6.96,6.96,0,0,0,.033-.805q0-17.194,0-34.388a3.639,3.639,0,0,1,0-.4c.048-.432-.153-.554-.563-.543C-295.272-353.809-296.4-353.812-297.532-353.8Zm-68.04,9.308q0,10.937-.009,21.875c0,.531.029.8.708.8q15.3-.039,30.6-.006c.559,0,.721-.145.719-.713q-.031-9.363,0-18.727c0-.564-.214-.706-.708-.809a8.727,8.727,0,0,1-5.125-3.123,1.517,1.517,0,0,0-1.352-.617c-7.132.017-14.265,0-21.4.024-.606,0-.813-.114-.81-.777q.045-8.6,0-17.193c0-.6.145-.755.751-.752,4.925.027,9.851.015,14.776.015,1.044,0,1.041,0,.829-.988a3.444,3.444,0,0,1-.144-.873c.038-.714-.33-.79-.938-.787q-8.519.033-17.037,0c-.687,0-.893.13-.889.864C-365.559-359.024-365.572-351.759-365.572-344.494Zm37.345-17.4c0,1.183.012,2.367-.007,3.55-.006.371.089.524.49.513.941-.026,1.883-.019,2.824,0a.561.561,0,0,0,.6-.414,26.206,26.206,0,0,1,2.266-3.982,11.783,11.783,0,0,0,1.563-8.665,12.028,12.028,0,0,0-14.086-9.367,12.066,12.066,0,0,0-9.381,14.362,17.026,17.026,0,0,0,2.824,5.739c.508.756.459,1.991,1.432,2.267a13.373,13.373,0,0,0,2.809.068c.572.031.648-.206.642-.693-.023-1.963-.009-3.926-.009-5.889,0-1.349,0-1.349-1.346-1.414a4.065,4.065,0,0,1-3.98-3.97,4.045,4.045,0,0,1,3.829-4.024,4.057,4.057,0,0,1,4.161,3.586c.092.57-.308,1.37.293,1.664.5.244,1.214.033,1.832.065.41.021.574-.091.556-.531a7.427,7.427,0,0,1,.088-1.445,3.945,3.945,0,0,1,3.148-3.259,3.971,3.971,0,0,1,4.2,1.888,3.916,3.916,0,0,1-.379,4.58,4.155,4.155,0,0,1-3.677,1.44c-.576-.038-.727.145-.7.708C-328.194-364.043-328.227-362.966-328.227-361.89Zm-22.5,13.383c2.934,0,5.868.005,8.8-.01.228,0,.7.213.634-.3-.07-.576-.064-1.145-.793-1.508a3.882,3.882,0,0,1-.934-6.315.729.729,0,0,0,.164-1.014c-.621-1.382-1.59-2.554-2.284-3.888-.168-.323-.441-.255-.7-.255-4.576,0-9.151.009-13.727-.017-.606,0-.687.223-.685.746q.029,5.933,0,11.866c0,.574.163.714.721.709C-356.591-348.522-353.657-348.507-350.723-348.507Zm18.525-1.313c-1.989,0-3.979.009-5.968-.007-.463,0-.594.065-.447.582a6.74,6.74,0,0,0,6.324,4.748,6.733,6.733,0,0,0,6.411-4.738c.138-.488.063-.6-.432-.593C-328.273-349.809-330.236-349.821-332.2-349.821Zm-.089-2.681h7.663a1.547,1.547,0,0,0,1.435-.549,1.237,1.237,0,0,0,.11-1.365,1.5,1.5,0,0,0-1.5-.738q-7.663.011-15.327.006a2.477,2.477,0,0,0-.64.055,1.246,1.246,0,0,0-1.011,1.289,1.209,1.209,0,0,0,1.124,1.259,6.4,6.4,0,0,0,.8.042Q-335.957-352.5-332.287-352.5Zm-1.273-9.342v2.091c0,1.945,0,1.917,1.965,1.934.6.006.69-.21.681-.737-.031-1.742-.012-3.485-.012-5.227,0-2.1,0-2.081-2.086-2.044-.486.009-.567.178-.557.605C-333.543-364.1-333.56-362.97-333.56-361.844Zm-3.543-6.66c.231-.134.74.27.817-.265a2.775,2.775,0,0,0-.1-1.589,1.214,1.214,0,0,0-1.454-.74,1.214,1.214,0,0,0-1.034,1.26C-338.9-368.959-338.318-368.516-337.1-368.5Zm8.862-.743c-.2.672.235.833.924.744.186-.024.378-.007.563-.032a1.258,1.258,0,0,0,1.143-1.4,1.287,1.287,0,0,0-1.2-1.2,1.3,1.3,0,0,0-1.393,1.169C-328.231-369.776-328.226-369.586-328.242-369.246Z" transform="translate(0 -16.981)" fill="#050504"/>
      <path id="Trazado_635122" data-name="Trazado 635122" d="M-296.1-390.246c.124.108.229.189.323.283,1.046,1.044,2.083,2.1,3.141,3.131.247.24.248.364.014.628-1.5,1.683-1.491,1.69-3.086.1-.646-.646-1.282-1.3-1.945-1.933-.272-.258-.32-.429-.015-.7.442-.392.841-.832,1.261-1.247C-296.316-390.077-296.211-390.153-296.1-390.246Z" transform="translate(-51.227 -12.155)" fill="#090909"/>
      <path id="Trazado_635123" data-name="Trazado 635123" d="M-206.571-390.521a9.652,9.652,0,0,0,.622.77c1.157,1.173,1.161,1.169-.015,2.345-.761.76-1.529,1.513-2.277,2.286-.235.243-.389.286-.636.011-.483-.539-1.318-1-1.41-1.582-.083-.533.84-.99,1.311-1.487.611-.643,1.249-1.26,1.879-1.884C-206.967-390.192-206.821-390.3-206.571-390.521Z" transform="translate(-110.474 -11.969)" fill="#090909"/>
      <path id="Trazado_635124" data-name="Trazado 635124" d="M-249.857-405.517c0-.723.016-1.447-.007-2.169-.011-.347.095-.5.449-.449.052.008.107,0,.16,0,.661.049,1.535-.288,1.921.136.325.356.106,1.216.112,1.853.008.964-.011,1.929.009,2.892.007.346-.095.5-.449.449a.443.443,0,0,0-.08,0c-2.116.08-2.116.08-2.116-1.989Q-249.857-405.155-249.857-405.517Z" transform="translate(-83.706 0)"/>
      <path id="Trazado_635125" data-name="Trazado 635125" d="M-208.332-317.8c-1.383.09-1.383.09-1.383,1.5q0,13.481.016,26.962c0,.689-.136.891-.867.889q-15.141-.042-30.281,0c-.689,0-.9-.134-.9-.87q.052-9.2,0-18.405c0-.693.226-.865.853-1.031a9,9,0,0,0,6.918-7.079,1.48,1.48,0,0,1,.822-1.142,3.9,3.9,0,0,0,.837-6.337.662.662,0,0,1-.18-.94,33.15,33.15,0,0,1,1.9-3.177,13.59,13.59,0,0,0,2.031-5.632c.076-.622.313-.711.86-.71q8.64.027,17.28,0c.56,0,.719.133.715.706-.027,3.848-.014,7.7-.014,11.544,0,1.049,0,1.048,1.063,1.067.107,0,.214.02.32.031Zm-12.057,12.007c0,2.9.008,5.808-.009,8.713,0,.46.071.665.607.658,2.286-.031,4.573-.027,6.859,0,.467,0,.58-.137.579-.589q-.021-8.753,0-17.506c0-.507-.146-.628-.636-.622-2.232.026-4.465.03-6.7,0-.567-.008-.723.154-.718.719C-220.374-311.548-220.389-308.671-220.389-305.794Zm-2.638,2.742c0-2.043-.016-4.087.012-6.129.007-.5-.137-.635-.634-.63q-3.387.039-6.776,0c-.484,0-.648.114-.645.625q.031,6.048,0,12.1c0,.544.166.668.684.662q3.348-.041,6.7,0c.514.006.688-.115.678-.659C-223.047-299.073-223.027-301.062-223.027-303.052Zm2.717-17.412h-6.125c-1.944,0-1.918,0-1.945,1.961-.009.6.141.76.751.756,4.432-.029,8.865-.016,13.3-.016,1.991,0,1.969,0,1.984-2,0-.562-.141-.72-.71-.712C-215.474-320.445-217.893-320.463-220.31-320.463Zm1.252-10.663h-4.676c-2.017,0-2,0-2,1.993,0,.564.151.724.719.72,3.547-.025,7.095-.013,10.642-.013,2.047,0,2.029,0,2.03-2.041,0-.519-.126-.681-.663-.672C-215.027-331.107-217.043-331.127-219.058-331.127Zm.012,8.033h4.757c1.942,0,1.914,0,1.944-1.968.009-.61-.156-.754-.756-.749-3.547.03-7.095.015-10.642.015-2.042,0-2.024,0-2,2.085.007.5.161.633.646.627C-223.078-323.108-221.062-323.094-219.046-323.094Z" transform="translate(-89.2 -50.356)" fill="#e5e8eb"/>
      <path id="Trazado_635126" data-name="Trazado 635126" d="M-348.816-311.127c0-7.265.013-14.53-.02-21.794,0-.734.2-.868.889-.864q8.518.043,17.037,0c.608,0,.975.073.938.788a3.442,3.442,0,0,0,.144.873c.212.988.215.988-.829.988-4.926,0-9.851.012-14.776-.015-.606,0-.754.148-.751.752q.037,8.6,0,17.193c0,.663.2.779.809.777,7.132-.02,14.265-.007,21.4-.024a1.517,1.517,0,0,1,1.352.617,8.727,8.727,0,0,0,5.125,3.123c.493.1.71.245.708.809q-.034,9.364,0,18.727c0,.568-.16.714-.719.713q-15.3-.024-30.6.006c-.679,0-.709-.267-.708-.8Q-348.806-300.189-348.816-311.127Zm15.923,9.352h11.535c1.863,0,1.833,0,1.875-1.872.015-.661-.152-.846-.833-.844-7.959.026-15.917.017-23.876.017-2,0-1.974,0-1.992,2,0,.562.138.715.708.711C-341.282-301.787-337.088-301.775-332.893-301.775Zm-2.622,5.331h8.789c1.9,0,1.874,0,1.908-1.914.011-.631-.156-.8-.795-.8-6.208.025-12.417.015-18.625.015-1.945,0-1.917,0-1.948,1.966-.01.61.155.752.754.746C-342.127-296.46-338.821-296.444-335.515-296.444Zm-.56-13.363h-8.23c-1.869,0-1.838,0-1.881,1.872-.015.656.133.85.823.846,5.756-.031,11.512-.018,17.268-.018,1.957,0,1.921,0,1.966-1.947.016-.692-.243-.769-.827-.765C-330-309.793-333.035-309.807-336.075-309.807Zm16.574,12.052c0-1.386,0-1.386-1.21-1.386-1.434,0-1.434,0-1.434,1.405,0,1.292,0,1.292,1.292,1.292C-319.5-296.444-319.5-296.444-319.5-297.755Z" transform="translate(-16.755 -50.349)" fill="#e5e8eb"/>
      <path id="Trazado_635127" data-name="Trazado 635127" d="M-291.927-290v-2.626c1.13-.01,2.26-.007,3.389-.038.41-.011.611.111.563.543a3.639,3.639,0,0,0,0,.4q0,17.194,0,34.388a6.961,6.961,0,0,1-.033.805,1.211,1.211,0,0,1-1.209,1.168c-.294.026-.591.024-.887.024q-15.786,0-31.572-.018c-.783,0-.974.193-.968.97.024,3.109-2.535,5.088-5.293,4.158a3.978,3.978,0,0,1-2.688-4.07c.015-.824-.18-1.063-1.042-1.061-10.524.033-21.048.022-31.572.021-1.759,0-2.057-.3-2.057-2.072q0-17.154-.019-34.307c0-.786.2-.995.977-.966,1.688.062,1.689.018,1.689,1.668q0,16.1-.016,32.208c0,.659.14.843.825.843q35.206-.03,70.412,0c.689,0,.825-.19.823-.845q-.033-14.893-.015-29.787C-290.624-289.92-290.624-289.92-291.927-290Z" transform="translate(-5.605 -78.152)" fill="#bbda89"/>
      <path id="Trazado_635128" data-name="Trazado 635128" d="M-266.837-356.43c0-1.076.033-2.153-.014-3.226-.025-.562.126-.745.7-.708a4.155,4.155,0,0,0,3.677-1.44,3.916,3.916,0,0,0,.379-4.58,3.971,3.971,0,0,0-4.2-1.888,3.945,3.945,0,0,0-3.148,3.259,7.421,7.421,0,0,0-.088,1.445c.018.44-.146.552-.556.531-.617-.032-1.33.179-1.832-.065-.6-.293-.2-1.094-.293-1.664a4.057,4.057,0,0,0-4.161-3.586,4.045,4.045,0,0,0-3.829,4.024,4.065,4.065,0,0,0,3.98,3.97c1.346.064,1.346.064,1.346,1.414,0,1.963-.013,3.926.009,5.889.005.487-.071.724-.642.693a13.371,13.371,0,0,1-2.809-.068c-.973-.276-.924-1.512-1.432-2.267a17.027,17.027,0,0,1-2.824-5.739,12.066,12.066,0,0,1,9.381-14.362A12.028,12.028,0,0,1-259.1-365.43a11.783,11.783,0,0,1-1.563,8.665,26.209,26.209,0,0,0-2.266,3.982.56.56,0,0,1-.6.414c-.941-.017-1.883-.024-2.824,0-.4.011-.5-.142-.49-.513C-266.825-354.064-266.837-355.247-266.837-356.43Z" transform="translate(-61.39 -22.441)" fill="#f9e7ad"/>
      <path id="Trazado_635129" data-name="Trazado 635129" d="M-322.79-303.98c-2.934,0-5.868-.015-8.8.013-.558.005-.725-.135-.721-.709q.038-5.933,0-11.866c0-.523.078-.75.685-.746,4.576.026,9.151.013,13.727.017.256,0,.529-.068.7.255.694,1.335,1.663,2.506,2.284,3.888a.729.729,0,0,1-.164,1.014,3.882,3.882,0,0,0,.934,6.315c.729.363.723.932.793,1.508.062.514-.405.3-.634.3C-316.923-303.975-319.857-303.98-322.79-303.98Z" transform="translate(-27.932 -61.508)" fill="#bbda89"/>
      <path id="Trazado_635130" data-name="Trazado 635130" d="M-259.155-280.231c1.963,0,3.925.012,5.887-.008.5-.005.57.105.432.593a6.733,6.733,0,0,1-6.411,4.738,6.74,6.74,0,0,1-6.324-4.748c-.147-.518-.016-.586.447-.582C-263.134-280.222-261.144-280.231-259.155-280.231Z" transform="translate(-73.043 -86.57)" fill="#c69d7b"/>
      <path id="Trazado_635131" data-name="Trazado 635131" d="M-265.277-294.046q-3.67,0-7.341,0a6.41,6.41,0,0,1-.8-.042,1.209,1.209,0,0,1-1.124-1.259,1.246,1.246,0,0,1,1.011-1.289,2.474,2.474,0,0,1,.64-.055q7.663,0,15.327-.006a1.5,1.5,0,0,1,1.5.738,1.237,1.237,0,0,1-.11,1.365,1.547,1.547,0,0,1-1.435.549Z" transform="translate(-67.01 -75.436)" fill="#f4d67e"/>
      <path id="Trazado_635132" data-name="Trazado 635132" d="M-249.854-325.721c0-1.126.017-2.252-.009-3.378-.01-.427.071-.6.557-.605,2.086-.037,2.086-.056,2.086,2.044,0,1.743-.019,3.485.012,5.227.009.527-.077.743-.681.737-1.965-.017-1.965.011-1.965-1.934Z" transform="translate(-83.706 -53.104)" fill="#f9e7ad"/>
      <path id="Trazado_635133" data-name="Trazado 635133" d="M-264.5-343.46c-1.215-.012-1.791-.455-1.775-1.334a1.214,1.214,0,0,1,1.034-1.26,1.214,1.214,0,0,1,1.454.74,2.774,2.774,0,0,1,.1,1.589C-263.758-343.19-264.267-343.594-264.5-343.46Z" transform="translate(-72.606 -42.024)" fill="#f0c34d"/>
      <path id="Trazado_635134" data-name="Trazado 635134" d="M-233.5-344.2c.016-.34.01-.53.036-.715a1.3,1.3,0,0,1,1.393-1.169,1.287,1.287,0,0,1,1.2,1.2,1.258,1.258,0,0,1-1.143,1.4c-.186.025-.377.008-.563.032C-233.261-343.369-233.7-343.53-233.5-344.2Z" transform="translate(-94.746 -42.025)" fill="#f0c34d"/>
      <path id="Trazado_635135" data-name="Trazado 635135" d="M-175.768-266.842c0-2.877.015-5.755-.013-8.632-.006-.565.15-.727.718-.719,2.232.032,4.465.028,6.7,0,.49-.005.637.116.636.622q-.027,8.752,0,17.506c0,.452-.112.594-.579.589-2.286-.024-4.573-.029-6.859,0-.536.007-.61-.2-.607-.658C-175.76-261.034-175.768-263.938-175.768-266.842Zm2.7.084v4.678c0,1.916,0,1.885,1.913,1.915.632.01.743-.2.739-.773-.026-3.522-.013-7.044-.013-10.566,0-2.01,0-1.986-2-1.99-.558,0-.653.19-.646.687C-173.059-270.791-173.073-268.774-173.073-266.758Z" transform="translate(-133.82 -89.308)" fill="#060605"/>
      <path id="Trazado_635136" data-name="Trazado 635136" d="M-200.715-252.948c0,1.989-.02,3.979.013,5.968.009.544-.164.665-.678.659q-3.347-.04-6.7,0c-.518.006-.687-.118-.684-.662q.034-6.048,0-12.1c0-.511.162-.63.645-.625q3.388.034,6.776,0c.5-.006.641.129.634.63C-200.732-257.034-200.715-254.991-200.715-252.948Zm-2.7-.04V-255c0-2.054,0-2.039-2.058-2-.452.007-.593.119-.586.582.026,1.8.011,3.6.011,5.4,0,2.066,0,2.051,2.053,2.009.451-.009.6-.123.591-.586C-203.435-250.732-203.414-251.86-203.414-252.988Z" transform="translate(-111.511 -100.46)" fill="#060605"/>
      <path id="Trazado_635137" data-name="Trazado 635137" d="M-192.372-292.663c2.418,0,4.836.019,7.253-.014.568-.008.714.15.71.712-.016,2,.007,2-1.984,2-4.432,0-8.865-.013-13.3.016-.61,0-.76-.155-.751-.756.028-1.96,0-1.961,1.945-1.961Z" transform="translate(-117.138 -78.157)" fill="#060606"/>
      <path id="Trazado_635138" data-name="Trazado 635138" d="M-185.6-325.62c2.015,0,4.031.019,6.046-.013.537-.009.664.153.663.672,0,2.041.017,2.041-2.03,2.041-3.547,0-7.095-.013-10.642.013-.567,0-.721-.156-.719-.72.009-1.993-.012-1.993,2-1.993Z" transform="translate(-122.66 -55.863)" fill="#070707"/>
      <path id="Trazado_635139" data-name="Trazado 635139" d="M-185.6-306.444c-2.016,0-4.031-.014-6.047.01-.485.006-.639-.123-.646-.627-.029-2.085-.047-2.085,2-2.085,3.548,0,7.1.016,10.642-.015.6-.005.765.139.756.749-.03,1.967,0,1.968-1.944,1.968Z" transform="translate(-122.649 -67.007)" fill="#070707"/>
      <path id="Trazado_635140" data-name="Trazado 635140" d="M-327.35-240.525c-4.195,0-8.389-.012-12.583.014-.57,0-.713-.149-.708-.711.017-2-.005-2,1.992-2,7.959,0,15.917.009,23.876-.016.681,0,.847.182.833.844-.041,1.872-.011,1.872-1.875,1.872Z" transform="translate(-22.299 -111.599)" fill="#060606"/>
      <path id="Trazado_635141" data-name="Trazado 635141" d="M-329.976-224.04c-3.306,0-6.612-.016-9.917.015-.6.006-.764-.137-.754-.746.031-1.965,0-1.966,1.948-1.966,6.208,0,12.417.01,18.625-.015.639,0,.806.167.795.8-.034,1.913-.006,1.914-1.908,1.914Z" transform="translate(-22.294 -122.753)" fill="#060606"/>
      <path id="Trazado_635142" data-name="Trazado 635142" d="M-330.537-259.7c3.039,0,6.079.014,9.118-.012.584,0,.842.073.827.765C-320.638-257-320.6-257-322.559-257c-5.756,0-11.512-.013-17.268.018-.69,0-.838-.19-.823-.846.043-1.871.012-1.872,1.881-1.872Z" transform="translate(-22.293 -100.459)" fill="#060606"/>
      <path id="Trazado_635143" data-name="Trazado 635143" d="M-263.692-225.32c0,1.311,0,1.311-1.351,1.311-1.292,0-1.292,0-1.292-1.292,0-1.405,0-1.405,1.434-1.405C-263.692-226.706-263.692-226.706-263.692-225.32Z" transform="translate(-72.564 -122.784)" fill="#060606"/>
      <path id="Trazado_635144" data-name="Trazado 635144" d="M-167.433-261.115c0-2.016.015-4.033-.01-6.049-.006-.5.088-.688.646-.687,2,0,2-.02,2,1.99,0,3.522-.013,7.044.013,10.566,0,.578-.107.783-.739.773-1.913-.029-1.913,0-1.913-1.915Z" transform="translate(-139.46 -94.951)" fill="#f5d67f"/>
      <path id="Trazado_635145" data-name="Trazado 635145" d="M-197.765-247.359c0,1.128-.021,2.256.01,3.383.013.463-.14.577-.591.586-2.053.042-2.053.058-2.053-2.009,0-1.8.016-3.6-.011-5.4-.007-.463.134-.574.586-.582,2.059-.035,2.058-.05,2.058,2Z" transform="translate(-117.16 -106.089)" fill="#f5d67f"/>
    </g>
  </g>
</svg>
