<svg xmlns="http://www.w3.org/2000/svg" width="84.548" height="84.549" viewBox="0 0 84.548 84.549">
  <g id="Grupo_963206" data-name="Grupo 963206" transform="translate(0 0)">
    <g id="Grupo_952068" data-name="Grupo 952068" transform="translate(0 0)">
      <g id="Grupo_951854" data-name="Grupo 951854" transform="translate(0 0)">
        <path id="Trazado_621807" data-name="Trazado 621807" d="M42.274,0A42.274,42.274,0,1,1,0,42.274,42.274,42.274,0,0,1,42.274,0Z" transform="translate(0 0)" fill="#faebcd"/>
      </g>
    </g>
    <g id="Grupo_963294" data-name="Grupo 963294" transform="translate(350.004 771.823)">
      <path id="Trazado_635103" data-name="Trazado 635103" d="M-305.8-746.151h3.112c.205.991.53,1.254,1.577,1.257q7.41.018,14.819.031a4.282,4.282,0,0,1,.324,2q-.01,30.02,0,60.041a3.648,3.648,0,0,1-.324,1.687c-.262.015-.525.043-.788.043q-22.312,0-44.623,0c-1.7,0-2.02-.326-2.02-2.04v-59.684c0-.211-.006-.423,0-.634a1.318,1.318,0,0,1,1.421-1.439c.819-.02,1.642.043,2.456-.02.661-.051.821.148.819.811-.028,6.816-.021,13.633-.015,20.449a3.629,3.629,0,0,0,3.989,3.976q7.529,0,15.059,0c2.746,0,4.156-1.4,4.157-4.13q0-8.243,0-16.487C-305.829-742.243-305.809-744.2-305.8-746.151Zm-3.157,56.28h3.148a1.319,1.319,0,0,0,1.469,1.129c4.384-.016,8.767,0,13.151-.011a2.683,2.683,0,0,0,2.816-2.612c.046-1.795.042-3.592,0-5.387a2.647,2.647,0,0,0-2.64-2.623q-10.576-.026-21.152,0a2.648,2.648,0,0,0-2.652,2.61q-.058,2.692,0,5.387a2.683,2.683,0,0,0,2.643,2.625c.554.018,1.111-.024,1.663.01A1.335,1.335,0,0,0-308.955-689.871Zm-.11-23.966h-18.15a6.356,6.356,0,0,0-.792.018,1.076,1.076,0,0,0-1,1.049,1.11,1.11,0,0,0,.721,1.2,2.407,2.407,0,0,0,1.014.119h36.38a2.436,2.436,0,0,0,.938-.1,1.114,1.114,0,0,0,.78-1.234,1.088,1.088,0,0,0-1.026-1.031,7.326,7.326,0,0,0-.792-.016Zm.024,8.148h14.5c1.4,0,2.8.014,4.2-.014a1.139,1.139,0,0,0,1.172-1.142,1.164,1.164,0,0,0-1.044-1.2,3.727,3.727,0,0,0-.711-.025q-18.19,0-36.38,0a3.348,3.348,0,0,0-.861.075,1.077,1.077,0,0,0-.854,1.177,1.088,1.088,0,0,0,1.031,1.108,6.576,6.576,0,0,0,.792.019Zm-9.782,11.642h0c0-.872.03-1.745-.006-2.615a2.712,2.712,0,0,0-2.806-2.719q-2.3-.022-4.6,0a2.654,2.654,0,0,0-2.785,2.642c-.064,1.768-.06,3.541,0,5.309a2.671,2.671,0,0,0,2.83,2.68c1.479.011,2.959.008,4.438,0a2.746,2.746,0,0,0,2.929-2.92C-318.812-692.462-318.822-693.254-318.822-694.047Zm24.13-43.722c-1.4,0-2.8-.006-4.2,0-.914.005-1.46.47-1.443,1.2.016.7.559,1.169,1.414,1.172q4.16.013,8.321,0c.9,0,1.459-.489,1.443-1.221-.015-.7-.551-1.149-1.414-1.154C-291.945-737.776-293.318-737.769-294.692-737.769Z" transform="translate(-5.11 -16.371)" fill="#eaf4fc"/>
      <path id="Trazado_635104" data-name="Trazado 635104" d="M-291.4-761.236q-7.409-.015-14.819-.031c-1.047,0-1.372-.265-1.577-1.257a1.287,1.287,0,0,1,1.459-1.129c5.522.013,11.044,0,16.566.013a3.693,3.693,0,0,1,3.763,3.764c.009.555.037,1.113-.009,1.664s.1.714.676.706c2.324-.036,4.65-.018,6.975-.014,2.639.005,4.116,1.48,4.116,4.122q0,30.161,0,60.322a3.74,3.74,0,0,1-4.119,4.124q-26.435,0-52.869,0a3.743,3.743,0,0,1-4.1-4.064c0-.656.2-1.5-.123-1.917-.35-.442-1.235-.123-1.885-.143a3.7,3.7,0,0,1-3.858-3.909q-.009-30.4,0-60.8a3.667,3.667,0,0,1,3.895-3.859c3.118-.013,6.236-.018,9.353.011.567.005.712-.164.7-.71a7.48,7.48,0,0,1,.175-2.515,4.744,4.744,0,0,1,5.183-3.245,4.605,4.605,0,0,1,4.03,4.478c.015.63-.206,1.468.113,1.835.377.434,1.239.12,1.889.136,1.109.026,2.22.041,3.329,0a1.4,1.4,0,0,1,1.638,1.134c-.012,1.954-.031,3.908-.032,5.862q-.007,8.244,0,16.487c0,2.731-1.411,4.13-4.157,4.13q-7.53,0-15.059,0a3.63,3.63,0,0,1-3.989-3.976c-.006-6.816-.013-13.633.015-20.449,0-.664-.158-.863-.819-.811-.814.063-1.637,0-2.456.02a1.318,1.318,0,0,0-1.421,1.439c-.008.211,0,.423,0,.634V-699.5c0,1.714.322,2.04,2.02,2.04q22.312,0,44.623,0c.262,0,.525-.028.787-.043.262.015.525.041.787.042,1.96.005,2.226-.264,2.226-2.236v-59.483c0-.238.01-.476,0-.712a1.324,1.324,0,0,0-1.349-1.358C-290.292-761.277-290.846-761.244-291.4-761.236Zm12.053,69.878c2.235.145,2.742-.032,2.737-2.584q-.053-29.418-.019-58.836c0-2.172-.248-2.416-2.409-2.358a2.588,2.588,0,0,0-.311.044c-.932-.09-.927-.09-.815.794a5.616,5.616,0,0,1,.026.71c0,3.082-.017,6.164.013,9.246a1.428,1.428,0,0,1-1.13,1.637c-1.03-.276-1.259-.557-1.261-1.588,0-2.8-.068-5.593.018-8.386.078-2.519-.742-2.583-2.722-2.412-.723-.232-.8.135-.8.752q.022,17.239.011,34.477,0,10.422,0,20.845a3.841,3.841,0,0,1-1.3,3.025,4.254,4.254,0,0,1-3.027.914q-20.408-.016-40.817-.007c-1.818,0-1.818,0-1.816,1.78,0,1.6.366,1.972,1.935,1.972q22.509,0,45.017,0c.264,0,.527-.016.791-.025,2.106.145,2.73,0,2.723-2.528-.044-14.671-.022-29.342-.021-44.013,0-1.126.233-1.425,1.262-1.653.97.344,1.116.566,1.116,1.712q0,21.86,0,43.72a9.288,9.288,0,0,1-.2,2.761Zm-36.947-47.09c.5.009,1,.029,1.5.023,1-.011,1.465-.444,1.466-1.45q.014-10.421.012-20.843c0-.4-.095-.579-.528-.556-.711.037-1.424.028-2.137.038-1.868-.112-1.868-.112-1.9,1.735,0,.079,0,.159,0,.238a3.264,3.264,0,0,1-2.909,3.057,1.263,1.263,0,0,1-1.48-1,1.171,1.171,0,0,1,1.109-1.355.937.937,0,0,0,.907-1.07,9.5,9.5,0,0,1,0-1.109c.036-.413-.1-.548-.527-.539-1.188.027-2.377.03-3.565,0-.466-.012-.568.157-.566.59.016,3.09,0,6.18.014,9.269a2.3,2.3,0,0,0,2.285,2.336,2.255,2.255,0,0,0,2.35-2.342c.013-.633-.034-1.271.023-1.9a1.106,1.106,0,0,1,1.16-1.075,1.047,1.047,0,0,1,1.159.974,9.642,9.642,0,0,1-.185,3.538,4.66,4.66,0,0,1-5.013,3.144,4.545,4.545,0,0,1-4.148-4.439c-.043-3.142-.024-6.285-.006-9.428,0-.507-.119-.693-.658-.67-1.028.044-2.062.055-3.088,0-.649-.037-.777.193-.775.8.02,6.761.013,13.521.013,20.282a5.286,5.286,0,0,0,.011.554,1.2,1.2,0,0,0,1.289,1.218C-325.747-738.426-321.02-738.44-316.294-738.448Zm-6.3-25.2h.474c2.009,0,2.009,0,1.864-2.012a2.192,2.192,0,0,0-1.7-2.025,2.3,2.3,0,0,0-2.42.763,3.3,3.3,0,0,0-.417,3.085c.111.478,1.177.1,1.8.186A2.816,2.816,0,0,0-322.6-763.645Z" transform="translate(0 0)" fill="#030303"/>
      <path id="Trazado_635105" data-name="Trazado 635105" d="M-184.411-742.156c.554-.009,1.108-.042,1.66-.02a1.324,1.324,0,0,1,1.349,1.358c.014.237,0,.475,0,.713v59.483c0,1.972-.266,2.242-2.226,2.236-.262,0-.524-.028-.787-.042a3.647,3.647,0,0,0,.324-1.687q-.011-30.021,0-60.041A4.282,4.282,0,0,0-184.411-742.156Z" transform="translate(-106.989 -19.079)" fill="#ceedfb"/>
      <path id="Trazado_635106" data-name="Trazado 635106" d="M-268.4-589.423a1.335,1.335,0,0,1-1.553,1.129c-.552-.035-1.109.007-1.663-.01a2.683,2.683,0,0,1-2.643-2.625q-.056-2.692,0-5.387a2.648,2.648,0,0,1,2.652-2.61q10.576-.024,21.152,0a2.647,2.647,0,0,1,2.64,2.623c.04,1.795.044,3.592,0,5.387a2.683,2.683,0,0,1-2.816,2.612c-4.384.009-8.768-.006-13.151.011a1.319,1.319,0,0,1-1.469-1.129c.235-1,.546-1.253,1.576-1.257q5.4-.018,10.8-.029c.711.009,1.422.01,2.133.031.408.012.565-.171.563-.569q-.013-2.372,0-4.745c0-.4-.155-.581-.563-.569-.711.021-1.422.022-2.133.031q-9.185-.014-18.37-.037c-.55,0-.667.238-.657.721.022,1.082.007,2.164.007,3.247,0,1.9,0,1.9,1.9,1.918C-268.956-590.67-268.663-590.439-268.4-589.423Z" transform="translate(-45.664 -116.82)" fill="#010202"/>
      <path id="Trazado_635107" data-name="Trazado 635107" d="M-263.272-584.325c-.263-1.017-.555-1.247-1.594-1.256-1.9-.017-1.9-.017-1.9-1.918,0-1.082.015-2.165-.007-3.247-.01-.483.106-.723.657-.721q9.185.035,18.37.037v5.821q-5.4.014-10.8.029c-1.03,0-1.34.256-1.576,1.256Z" transform="translate(-50.792 -121.917)" fill="#a8e3f8"/>
      <path id="Trazado_635108" data-name="Trazado 635108" d="M-298.958-644.433h18.071a7.31,7.31,0,0,1,.792.016,1.088,1.088,0,0,1,1.026,1.031,1.114,1.114,0,0,1-.78,1.233,2.434,2.434,0,0,1-.938.1h-36.38a2.409,2.409,0,0,1-1.014-.119,1.11,1.11,0,0,1-.721-1.2,1.076,1.076,0,0,1,1-1.049,6.38,6.38,0,0,1,.792-.018Z" transform="translate(-15.217 -85.775)" fill="#040505"/>
      <path id="Trazado_635109" data-name="Trazado 635109" d="M-298.931-623.9h-18.15a6.563,6.563,0,0,1-.792-.019,1.088,1.088,0,0,1-1.031-1.108,1.077,1.077,0,0,1,.854-1.177,3.354,3.354,0,0,1,.861-.075q18.19-.005,36.38,0a3.727,3.727,0,0,1,.711.025,1.164,1.164,0,0,1,1.044,1.2,1.139,1.139,0,0,1-1.172,1.142c-1.4.028-2.8.014-4.2.014Z" transform="translate(-15.219 -98.157)" fill="#040505"/>
      <path id="Trazado_635110" data-name="Trazado 635110" d="M-308.818-593.611c0,.793.01,1.585,0,2.377a2.746,2.746,0,0,1-2.929,2.92c-1.479.007-2.959.011-4.438,0a2.671,2.671,0,0,1-2.831-2.68c-.056-1.768-.06-3.541,0-5.309a2.654,2.654,0,0,1,2.785-2.642q2.3-.021,4.6,0a2.712,2.712,0,0,1,2.806,2.719c.036.87.006,1.743.006,2.615Zm-5.045,2.892c.685.009,1.37,0,2.053.032.447.017.617-.184.615-.61q-.009-2.332,0-4.665c0-.426-.168-.628-.615-.611-.684.026-1.369.022-2.053.031-.713-.009-1.426,0-2.137-.034-.486-.024-.665.185-.663.648q.012,2.3,0,4.6c0,.462.177.671.663.647C-315.289-590.719-314.576-590.709-313.863-590.718Z" transform="translate(-15.114 -116.808)" fill="#030404"/>
      <path id="Trazado_635111" data-name="Trazado 635111" d="M-222.979-719.769c1.374,0,2.747-.007,4.121,0,.863.006,1.4.455,1.414,1.155.016.732-.54,1.219-1.443,1.221q-4.16.012-8.321,0c-.855,0-1.4-.472-1.414-1.172-.017-.734.529-1.2,1.443-1.2C-225.779-719.775-224.379-719.769-222.979-719.769Z" transform="translate(-76.823 -34.372)" fill="#040505"/>
      <path id="Trazado_635112" data-name="Trazado 635112" d="M-296.049-719.417c-4.726.008-9.453.022-14.179.017a1.2,1.2,0,0,1-1.289-1.218,5.26,5.26,0,0,1-.011-.554c0-6.761.007-13.521-.013-20.282,0-.6.126-.834.775-.8,1.027.058,2.06.047,3.088,0,.538-.023.66.163.658.67-.018,3.143-.037,6.286.006,9.428a4.545,4.545,0,0,0,4.149,4.439,4.661,4.661,0,0,0,5.013-3.144,9.644,9.644,0,0,0,.185-3.538,1.047,1.047,0,0,0-1.159-.974,1.106,1.106,0,0,0-1.16,1.075c-.057.629-.01,1.266-.023,1.9a2.255,2.255,0,0,1-2.349,2.342,2.3,2.3,0,0,1-2.285-2.336c-.016-3.09,0-6.179-.014-9.269,0-.433.1-.6.566-.591,1.188.031,2.377.028,3.565,0,.423-.01.563.126.527.539a9.5,9.5,0,0,0,0,1.109.938.938,0,0,1-.907,1.07,1.17,1.17,0,0,0-1.109,1.354,1.263,1.263,0,0,0,1.48,1,3.264,3.264,0,0,0,2.909-3.057c0-.079,0-.158,0-.238.029-1.848.029-1.848,1.9-1.736q0,10.274.01,20.547A5.813,5.813,0,0,1-296.049-719.417Z" transform="translate(-20.245 -19.031)" fill="#e89783"/>
      <path id="Trazado_635113" data-name="Trazado 635113" d="M-267.494-659.17c-.264.009-.527.025-.791.025H-313.3c-1.568,0-1.933-.373-1.935-1.972,0-1.78,0-1.78,1.816-1.78q20.409,0,40.817.007a4.254,4.254,0,0,0,3.027-.914,3.84,3.84,0,0,0,1.3-3.025q-.014-10.422,0-20.845,0-17.239-.011-34.477c0-.617.077-.984.8-.752a3.735,3.735,0,0,1,.327,1.688q-.012,30.022,0,60.045A4.271,4.271,0,0,1-267.494-659.17Z" transform="translate(-17.724 -32.187)" fill="#cceaf8"/>
      <path id="Trazado_635114" data-name="Trazado 635114" d="M-164.95-659.141a4.271,4.271,0,0,0,.325-2q-.01-30.023,0-60.045a3.735,3.735,0,0,0-.327-1.688c1.98-.171,2.8-.107,2.722,2.412-.086,2.793-.022,5.59-.018,8.386,0,1.031.231,1.313,1.261,1.588q0,1.576,0,3.152c-1.029.227-1.262.527-1.262,1.653,0,14.671-.023,29.342.021,44.013C-162.22-659.14-162.844-659-164.95-659.141Z" transform="translate(-120.267 -32.217)" fill="#a8e3f8"/>
      <path id="Trazado_635115" data-name="Trazado 635115" d="M-146.476-722.865a2.573,2.573,0,0,1,.311-.044c2.16-.058,2.409.185,2.409,2.358q0,29.417.019,58.836c0,2.551-.5,2.728-2.737,2.584a3.157,3.157,0,0,0,.322-1.527q-.01-30.383,0-60.766A2.686,2.686,0,0,0-146.476-722.865Z" transform="translate(-132.873 -32.226)" fill="#a8e3f8"/>
      <path id="Trazado_635116" data-name="Trazado 635116" d="M-150.569-722.836a2.687,2.687,0,0,1,.325,1.441q-.012,30.383,0,60.766a3.156,3.156,0,0,1-.322,1.526h-.993a9.291,9.291,0,0,0,.2-2.761q0-21.86,0-43.72c0-1.146-.146-1.368-1.116-1.712q0-1.576,0-3.152a1.428,1.428,0,0,0,1.13-1.637c-.031-3.082-.012-6.164-.013-9.246a5.622,5.622,0,0,0-.026-.71C-151.5-722.927-151.5-722.926-150.569-722.836Z" transform="translate(-128.781 -32.254)" fill="#cdebf9"/>
      <path id="Trazado_635117" data-name="Trazado 635117" d="M-262.774-719.4a5.813,5.813,0,0,0,.327-2.241q-.02-10.273-.009-20.547c.712-.01,1.426,0,2.137-.038.433-.022.528.159.528.556q-.014,10.421-.012,20.843c0,1.006-.464,1.439-1.466,1.45C-261.771-719.367-262.272-719.388-262.774-719.4Z" transform="translate(-53.52 -19.052)" fill="#df8674"/>
      <path id="Trazado_635118" data-name="Trazado 635118" d="M-206.875-585.6v-5.821c.711-.009,1.422-.01,2.133-.031.408-.012.565.171.563.569q-.012,2.372,0,4.745c0,.4-.155.581-.563.569C-205.453-585.589-206.164-585.589-206.875-585.6Z" transform="translate(-91.661 -121.928)" fill="#80d7f5"/>
      <path id="Trazado_635119" data-name="Trazado 635119" d="M-308.712-585.609c-.713.009-1.426,0-2.137.034-.486.024-.665-.185-.663-.647q.012-2.3,0-4.6c0-.463.177-.672.663-.648.711.035,1.424.024,2.137.034Z" transform="translate(-20.265 -121.917)" fill="#3b8fee"/>
      <path id="Trazado_635120" data-name="Trazado 635120" d="M-302.7-585.6v-5.823c.685-.009,1.37,0,2.053-.031.446-.017.617.185.615.61q-.009,2.333,0,4.665c0,.426-.168.628-.615.61C-301.329-585.6-302.014-585.592-302.7-585.6Z" transform="translate(-26.278 -121.925)" fill="#327fed"/>
    </g>
  </g>
</svg>
