<svg xmlns="http://www.w3.org/2000/svg" width="42" height="42" viewBox="0 0 42 42">
  <g id="Grupo_957390" data-name="Grupo 957390" transform="translate(0 0.053)">
    <rect id="Rectángulo_306999" data-name="Rectángulo 306999" width="42" height="42" transform="translate(0 -0.053)" fill="none"/>
    <g id="Grupo_957392" data-name="Grupo 957392" transform="translate(3.841 3.846)">
      <path id="Trazado_632227" data-name="Trazado 632227" d="M-601.908,679.576a4.293,4.293,0,0,1,.472,1.3c.02.144.145.11.24.111.434,0,.867,0,1.3,0,2.68,0,5.36,0,8.04.005.247,0,.364-.042.337-.321a4.824,4.824,0,0,1,0-.833c.018-.231-.075-.271-.283-.27-1.568.008-3.136,0-4.7,0a.821.821,0,0,1-.361-.037.474.474,0,0,1-.309-.533.469.469,0,0,1,.477-.427c.288-.013.578,0,.867,0,1.346,0,2.691-.005,4.037.005.219,0,.276-.057.276-.276q-.009-8.322,0-16.643c0-.2-.021-.332-.266-.375a.468.468,0,0,1-.39-.592.52.52,0,0,1,.581-.387,1.183,1.183,0,0,1,1.074,1.231c.008.945.01,1.89,0,2.835,0,.235.063.292.294.291,1.768-.01,3.536,0,5.3-.012a1.546,1.546,0,0,1,1.275.581q2.68,3.1,5.387,6.187a1.445,1.445,0,0,1,.373,1c-.006,2.768,0,5.537,0,8.305a1.16,1.16,0,0,1-1.26,1.268c-.623,0-1.245.006-1.868,0-.174,0-.243.044-.283.229a3.67,3.67,0,0,1-3.611,2.959,3.667,3.667,0,0,1-3.584-2.949c-.042-.2-.128-.239-.311-.239q-6.172.006-12.343,0c-.185,0-.263.041-.3.244a3.668,3.668,0,0,1-3.589,2.945,3.669,3.669,0,0,1-3.606-2.963c-.04-.187-.118-.227-.289-.225q-.951.012-1.9,0a1.148,1.148,0,0,1-1.216-1.21q0-9.623,0-19.245a1.173,1.173,0,0,1,1-1.221.54.54,0,0,1,.652.377.492.492,0,0,1-.426.6.252.252,0,0,0-.231.3c.007.311,0,.623,0,.934q0,7.855-.006,15.71c0,.264.041.356.333.35,1.067-.021,2.135-.01,3.2-.006a.765.765,0,0,0,.432-.128,3.6,3.6,0,0,1,4.076-.006.825.825,0,0,0,.463.135c1.09,0,2.18,0,3.269,0,.409,0,.646.192.64.51s-.235.489-.626.49C-600.143,679.578-601.007,679.576-601.908,679.576Zm11.385-7.42c0,2.034.005,4.068-.007,6.1,0,.267.073.326.328.322.945-.016,1.89-.008,2.835,0a.7.7,0,0,0,.4-.117,3.6,3.6,0,0,1,4.1-.01.765.765,0,0,0,.432.127c.923,0,1.846,0,2.768,0,.787,0,.779,0,.768-.774,0-.2-.072-.233-.249-.231-.645.009-1.29.008-1.934,0a.836.836,0,0,1-.913-.91c-.007-.367-.006-.734,0-1.1a.838.838,0,0,1,.93-.926c.645,0,1.29-.005,1.934,0,.158,0,.235-.019.232-.211-.013-.678-.008-1.356,0-2.034a.461.461,0,0,0-.133-.325q-2.708-3.1-5.408-6.21a.583.583,0,0,0-.5-.2c-1.734.005-3.469.01-5.2,0-.31,0-.4.095-.393.4C-590.517,668.088-590.523,670.122-590.523,672.157Zm5.607,6.671a2.661,2.661,0,0,0-2.665,2.67,2.676,2.676,0,0,0,2.7,2.678,2.68,2.68,0,0,0,2.651-2.692A2.669,2.669,0,0,0-584.916,678.828Zm-20.152,0a2.662,2.662,0,0,0-2.664,2.671,2.677,2.677,0,0,0,2.664,2.677,2.678,2.678,0,0,0,2.683-2.693A2.666,2.666,0,0,0-605.068,678.828Zm23.3.748a3.667,3.667,0,0,1,.469,1.252c.021.157.112.164.232.163.632,0,1.264-.005,1.9,0,.2,0,.28-.073.274-.275-.01-.31-.009-.621,0-.931,0-.146-.02-.217-.194-.215C-579.967,679.581-580.842,679.576-581.768,679.576Zm-26.438,0c-.938,0-1.822,0-2.706,0-.152,0-.154.077-.153.187,0,.322.006.644,0,.965,0,.178.057.268.247.267.644,0,1.287,0,1.931,0,.11,0,.2-.013.214-.147A3.925,3.925,0,0,1-608.206,679.576Zm18.918,0c-.344,0-.687.007-1.031,0-.157,0-.213.04-.208.2.011.343.01.687,0,1.03,0,.146.044.19.189.188.532-.007,1.064-.006,1.6,0,.132,0,.2-.035.225-.176a3.041,3.041,0,0,1,.374-1.056c.083-.148.048-.19-.115-.187C-588.6,679.581-588.945,679.576-589.288,679.576Zm9.33-3c.288,0,.576-.014.863,0,.208.013.234-.11.189-.241-.08-.229.229-.628-.164-.68a13.862,13.862,0,0,0-1.757-.021c-.1,0-.151.013-.168.139-.1.738-.054.8.671.8Z" transform="translate(612.065 -651.018)" fill="#030303"/>
      <path id="Trazado_632228" data-name="Trazado 632228" d="M-584.536,607.21a8.175,8.175,0,0,1-8.169-8.182,8.185,8.185,0,0,1,8.207-8.182,8.2,8.2,0,0,1,8.157,8.2A8.183,8.183,0,0,1-584.536,607.21Zm-.007-1a7.18,7.18,0,0,0,7.2-7.126,7.192,7.192,0,0,0-7.132-7.234,7.182,7.182,0,0,0-7.229,7.165A7.171,7.171,0,0,0-584.543,606.209Z" transform="translate(595.293 -590.847)" fill="#040404"/>
      <path id="Trazado_632229" data-name="Trazado 632229" d="M-584.8,719.88c0-.433-.007-.867,0-1.3,0-.159-.037-.212-.2-.2a.8.8,0,0,1-.855-.554.84.84,0,0,1,.309-.977c.546-.472,1.082-.956,1.625-1.432a.853.853,0,0,1,1.321.018c.5.47,1,.949,1.5,1.419a.85.85,0,0,1,.292.984.807.807,0,0,1-.864.542c-.193-.01-.24.055-.237.242.01.811.008,1.622,0,2.433,0,.686-.315.992-1,1-.333,0-.667.006-1,0a.843.843,0,0,1-.9-.9C-584.8,720.725-584.8,720.3-584.8,719.88Zm.187-2.514c.7.031.814.146.814.78q0,1.151,0,2.3c0,.6,0,.592.606.6.231,0,.3-.056.294-.292-.014-.923-.01-1.846,0-2.768,0-.437.175-.6.606-.615.071,0,.151.032.239-.048-.372-.354-.74-.7-1.1-1.053-.08-.077-.136-.083-.221-.007C-583.772,716.625-584.17,716.975-584.61,717.366Z" transform="translate(589.402 -698.497)" fill="#040404"/>
      <path id="Trazado_632230" data-name="Trazado 632230" d="M-586.9,775.659c-.821,0-1.643,0-2.464,0-.413,0-.651-.19-.648-.5s.243-.5.655-.5q2.464,0,4.927,0c.374,0,.578.148.618.424.049.339-.166.573-.558.576C-585.216,775.664-586.06,775.659-586.9,775.659Z" transform="translate(592.963 -750.083)" fill="#070707"/>
      <path id="Trazado_632231" data-name="Trazado 632231" d="M-500.159,759.795c-.522,0-1.044,0-1.566,0-.405,0-.612-.176-.616-.5s.2-.5.6-.506q1.566-.007,3.131,0c.4,0,.615.178.619.492s-.218.506-.639.51C-499.137,759.8-499.648,759.795-500.159,759.795Z" transform="translate(517.009 -736.337)" fill="#080808"/>
      <path id="Trazado_632232" data-name="Trazado 632232" d="M-500.172,775.648c-.522,0-1.044,0-1.566,0-.4,0-.606-.181-.6-.5,0-.308.209-.494.582-.5q1.6-.009,3.2,0c.366,0,.576.2.572.509s-.213.486-.586.49C-499.106,775.653-499.639,775.648-500.172,775.648Z" transform="translate(517.008 -750.071)" fill="#070707"/>
      <path id="Trazado_632233" data-name="Trazado 632233" d="M-610.3,609.071c-.377,0-.754,0-1.131,0-.4,0-.618-.182-.625-.49s.212-.508.6-.511q1.148-.01,2.3,0c.388,0,.615.2.611.505s-.232.492-.621.5S-609.921,609.071-610.3,609.071Z" transform="translate(612.056 -605.762)" fill="#080808"/>
      <path id="Trazado_632234" data-name="Trazado 632234" d="M-611.032,626.262c-.177,0-.354.01-.53,0a.486.486,0,0,1-.479-.492.461.461,0,0,1,.441-.493,8.134,8.134,0,0,1,1.16,0,.471.471,0,0,1,.449.49.487.487,0,0,1-.477.5C-610.656,626.272-610.844,626.262-611.032,626.262Z" transform="translate(612.045 -620.654)" fill="#040404"/>
      <path id="Trazado_632235" data-name="Trazado 632235" d="M-611.219,643.188a2.737,2.737,0,0,1-.366,0,.468.468,0,0,1-.442-.461.457.457,0,0,1,.411-.519,2.773,2.773,0,0,1,.763,0,.454.454,0,0,1,.424.507.467.467,0,0,1-.458.477,2.833,2.833,0,0,1-.332,0Z" transform="translate(612.033 -635.315)" fill="#040404"/>
      <path id="Trazado_632236" data-name="Trazado 632236" d="M-439,716.97q-1.634,0-3.268,0a.867.867,0,0,1-.987-.978q-.005-2.35,0-4.7a.859.859,0,0,1,.97-.962c.878,0,1.756,0,2.634,0a1.038,1.038,0,0,1,.845.382c1.259,1.453,2.527,2.9,3.787,4.349a1.362,1.362,0,0,1,.162,1.445.773.773,0,0,1-.809.471Q-437.329,716.968-439,716.97Zm-.015-1c.978,0,1.957,0,2.935,0,.107,0,.26.08.32-.072.051-.129-.049-.227-.131-.321q-1.776-2.034-3.547-4.072a.438.438,0,0,0-.367-.176c-.722.009-1.445.01-2.168,0-.208,0-.288.041-.286.273q.018,2.05,0,4.1c0,.219.058.278.276.276C-440.99,715.962-440,715.969-439.011,715.969Z" transform="translate(465.821 -694.352)" fill="#040404"/>
      <path id="Trazado_632237" data-name="Trazado 632237" d="M-442.172,768.971c-.188,0-.378.011-.565,0a.5.5,0,0,1-.484-.5.5.5,0,0,1,.485-.495c.376-.014.755-.019,1.13,0a.458.458,0,0,1,.458.476.479.479,0,0,1-.458.511C-441.794,768.984-441.983,768.971-442.172,768.971Z" transform="translate(465.793 -744.287)" fill="#040404"/>
      <path id="Trazado_632238" data-name="Trazado 632238" d="M-421.85,807.665a1.735,1.735,0,0,1,1.753-1.715,1.738,1.738,0,0,1,1.7,1.734,1.748,1.748,0,0,1-1.722,1.72A1.744,1.744,0,0,1-421.85,807.665Zm1.731.736a.745.745,0,0,0,.723-.723.734.734,0,0,0-.715-.727.731.731,0,0,0-.737.735A.74.74,0,0,0-420.119,808.4Z" transform="translate(447.279 -777.193)" fill="#040404"/>
      <path id="Trazado_632239" data-name="Trazado 632239" d="M-570.852,805.951a1.738,1.738,0,0,1,1.721,1.715,1.748,1.748,0,0,1-1.737,1.738,1.746,1.746,0,0,1-1.72-1.72A1.736,1.736,0,0,1-570.852,805.951Zm-.018,1a.732.732,0,0,0-.716.724.742.742,0,0,0,.719.726.744.744,0,0,0,.734-.746A.736.736,0,0,0-570.869,806.953Z" transform="translate(577.865 -777.195)" fill="#040404"/>
      <path id="Trazado_632240" data-name="Trazado 632240" d="M-563.774,614.005a5.894,5.894,0,0,1-5.863,5.882,5.911,5.911,0,0,1-5.9-5.887,5.89,5.89,0,0,1,5.9-5.872A5.874,5.874,0,0,1-563.774,614.005Zm-5.857-4.876a4.886,4.886,0,0,0-4.9,4.844,4.906,4.906,0,0,0,4.845,4.911,4.889,4.889,0,0,0,4.912-4.871A4.871,4.871,0,0,0-569.632,609.129Z" transform="translate(580.419 -605.817)" fill="#040404"/>
      <path id="Trazado_632241" data-name="Trazado 632241" d="M-535.244,637.55c0-.256-.007-.512,0-.767a.492.492,0,0,1,.493-.516.5.5,0,0,1,.5.513,6.672,6.672,0,0,1,0,.833c-.018.231.072.288.28.265a1.9,1.9,0,0,1,.4,0,.493.493,0,0,1,.468.509.478.478,0,0,1-.49.482c-.389.012-.779.013-1.168,0a.46.46,0,0,1-.482-.487C-535.253,638.107-535.244,637.828-535.244,637.55Z" transform="translate(545.517 -630.195)" fill="#040404"/>
      <path id="Trazado_632242" data-name="Trazado 632242" d="M-514.836,668.2a.514.514,0,0,1-.515.5.5.5,0,0,1-.481-.5.493.493,0,0,1,.472-.5A.511.511,0,0,1-514.836,668.2Z" transform="translate(528.697 -657.433)" fill="#080909"/>
      <path id="Trazado_632243" data-name="Trazado 632243" d="M-506.812,648.81a.5.5,0,0,1-.515.5.483.483,0,0,1-.481-.49.5.5,0,0,1,.473-.506A.521.521,0,0,1-506.812,648.81Z" transform="translate(521.746 -640.63)" fill="#080808"/>
      <path id="Trazado_632244" data-name="Trazado 632244" d="M-553.636,629.435a.491.491,0,0,1-.468.506.5.5,0,0,1-.531-.478.512.512,0,0,1,.5-.515A.507.507,0,0,1-553.636,629.435Z" transform="translate(562.312 -623.854)" fill="#080909"/>
      <path id="Trazado_632245" data-name="Trazado 632245" d="M-561.644,648.805a.5.5,0,0,1-.5.5.5.5,0,0,1-.5-.474.508.508,0,0,1,.485-.524A.513.513,0,0,1-561.644,648.805Z" transform="translate(569.25 -640.626)" fill="#080909"/>
      <path id="Trazado_632246" data-name="Trazado 632246" d="M-534.728,620.921a.518.518,0,0,1,.507.514.5.5,0,0,1-.5.482.487.487,0,0,1-.5-.473A.5.5,0,0,1-534.728,620.921Z" transform="translate(545.492 -616.9)" fill="#080808"/>
      <path id="Trazado_632247" data-name="Trazado 632247" d="M-514.834,629.462a.5.5,0,0,1-.523.487.478.478,0,0,1-.471-.5.494.494,0,0,1,.481-.5A.514.514,0,0,1-514.834,629.462Z" transform="translate(528.694 -623.862)" fill="#080909"/>
      <path id="Trazado_632248" data-name="Trazado 632248" d="M-534.725,676.714a.5.5,0,0,1-.5-.5.5.5,0,0,1,.475-.5.513.513,0,0,1,.524.487A.508.508,0,0,1-534.725,676.714Z" transform="translate(545.498 -664.37)" fill="#080909"/>
      <path id="Trazado_632249" data-name="Trazado 632249" d="M-554.148,667.706a.5.5,0,0,1,.511.494.5.5,0,0,1-.5.5.508.508,0,0,1-.5-.479A.506.506,0,0,1-554.148,667.706Z" transform="translate(562.313 -657.431)" fill="#080808"/>
    </g>
  </g>
</svg>
