<svg xmlns="http://www.w3.org/2000/svg" width="144.902" height="144.902" viewBox="0 0 144.902 144.902">
  <g id="Grupo_963306" data-name="Grupo 963306" transform="translate(-75 -115.254)">
    <g id="Grupo_94722" data-name="Grupo 94722" transform="translate(75 115.254)">
      <g id="_240_F_327287600_TyhZPz7Qge3YOTv4dab7M9xRDBiZxF9G" data-name="240_F_327287600_TyhZPz7Qge3YOTv4dab7M9xRDBiZxF9G" fill="#e0dafc" stroke="#e28f5e" stroke-width="3">
        <circle cx="72.451" cy="72.451" r="72.451" stroke="none"/>
        <circle cx="72.451" cy="72.451" r="70.951" fill="none"/>
      </g>
    </g>
    <g id="Grupo_963305" data-name="Grupo 963305" transform="translate(568.185 -634.443)">
      <path id="Trazado_635375" data-name="Trazado 635375" d="M-454.481,816.255v-1.017c0-6.149-.01-12.3.014-18.449a1.093,1.093,0,0,0-.808-1.261,6.02,6.02,0,0,1-3.646-6.812,6.128,6.128,0,0,1,5.941-4.849,6.118,6.118,0,0,1,6,4.774,6.034,6.034,0,0,1-3.636,6.9,1.042,1.042,0,0,0-.8,1.165c.024,7.471.016,14.942.016,22.4.312.2.49-.063.676-.168,2.11-1.192,4.2-2.42,6.319-3.593a1.042,1.042,0,0,0,.61-1.083q-.042-2.813,0-5.627a.907.907,0,0,0-.6-.962,4.5,4.5,0,0,1-2.3-5.139,4.623,4.623,0,0,1,4.388-3.441,4.578,4.578,0,0,1,4.458,3.456,4.444,4.444,0,0,1-2.222,5.08,1.077,1.077,0,0,0-.67,1.125c.035,2.4-.011,4.8.033,7.194a1.182,1.182,0,0,1-.717,1.211c-3.128,1.759-6.23,3.564-9.361,5.318a1.044,1.044,0,0,0-.621,1.072q.037,4.2,0,8.394c0,.508.037.736.673.729q6.088-.069,12.178-.023c.682,0,.868-.151.865-.852-.031-6.149,0-12.3-.028-18.449a4.675,4.675,0,0,1,2.685-4.642c.518-.252.4-.632.4-1,.007-5.32.015-10.639-.009-15.959a1.941,1.941,0,0,1,.619-1.53q7.494-7.444,14.942-14.933a1.739,1.739,0,0,1,1.36-.573q20.02.027,40.04,0c.749,0,.968.15.965.939-.032,8.609-.013,17.219-.035,25.829a1.3,1.3,0,0,0,.774,1.351,4.207,4.207,0,0,1,2.278,3.849q.022,21.355,0,42.709a4.49,4.49,0,0,1-4.486,4.545c-1.26.039-2.523.047-3.782,0-.676-.027-.9.15-.888.86.044,2.49-.008,4.981.033,7.471.011.672-.133.872-.849.866-4.52-.039-9.041,0-13.561-.038-.7-.005-.874.17-.847.855.057,1.474-.028,2.953.037,4.427.032.72-.2.842-.868.84q-16.652-.032-33.3-.015c-5.843,0-11.686.014-17.529,0a18.254,18.254,0,0,1-18.106-14.952,18.188,18.188,0,0,1,12.268-20.646,1.34,1.34,0,0,0,1.139-1.574c-.067-3.812-.044-7.625-.011-11.438a1.19,1.19,0,0,0-.715-1.214c-3.051-1.707-6.073-3.468-9.125-5.174a1.377,1.377,0,0,1-.851-1.417c.06-2.366.01-4.735.032-7.1a1.006,1.006,0,0,0-.624-1.061,4.423,4.423,0,0,1-2.273-5.133,4.519,4.519,0,0,1,4.39-3.4,4.564,4.564,0,0,1,4.463,3.445,4.487,4.487,0,0,1-2.349,5.116.922.922,0,0,0-.58.983c.027,1.906.01,3.813.011,5.719,0,.3-.047.583.308.781C-459.38,813.456-456.993,814.824-454.481,816.255Zm23.262,49.867c6.673,0,13.346-.013,20.02.018.773,0,.959-.21.956-.971q-.041-14.252.005-28.5c0-.89-.282-1.034-1.082-1.033q-18.728.035-37.457.021c-.921,0-1.844.04-2.762.117a15.271,15.271,0,0,0-13.417,17.437,15.2,15.2,0,0,0,15.377,12.912Q-440.4,866.134-431.219,866.122Zm25.508-48.762q-14.022,0-28.044-.018c-.742,0-.9.211-.9.918.032,4.427.042,8.855-.006,13.282-.01.876.187,1.11,1.091,1.108,11.531-.035,23.062-.017,34.594-.037.686,0,.96.121.924.884-.069,1.473.013,2.952-.035,4.426-.021.637.143.822.8.818,4.52-.031,9.041,0,13.56-.036.751-.006.9.223.892.92-.034,3.474,0,6.949-.03,10.423-.006.655.107.932.84.879,1.01-.072,2.028-.017,3.043-.018,1.791,0,2.227-.434,2.227-2.23,0-10.116-.011-20.231.023-30.346,0-.847-.248-.993-1.028-.99Q-391.735,817.383-405.711,817.36Zm7.664-39.588c-5.779,0-11.559.021-17.338-.023-.841-.006-1,.236-.988,1.019.039,4.457,0,8.914.035,13.37,0,.684-.157.872-.856.866-4.488-.034-8.976,0-13.464-.035-.729-.006-.992.118-.984.928q.067,6.731,0,13.463c-.006.746.215.906.926.9q13.926-.035,27.851,0a1.027,1.027,0,0,0,1.131-.674c.348-.817.81-1.584,1.176-2.393a4.83,4.83,0,0,1,4.883-3.051c4.979.055,9.96,0,14.94.036.769.005.96-.193.957-.957q-.045-11.249.007-22.5c.005-.873-.287-.972-1.033-.969C-386.55,777.785-392.3,777.772-398.048,777.772Zm-7.706,36.58q14.014,0,28.029,0c.46,0,1,.18.981-.661-.042-2.273,0-4.548-.024-6.821a1.522,1.522,0,0,0-1.737-1.688c-5.809-.013-11.617,0-17.425-.01a1.774,1.774,0,0,0-1.754,1.091c-.666,1.381-1.4,2.732-2.033,4.127a1.351,1.351,0,0,1-1.45.9q-15.628-.043-31.255-.017a3.281,3.281,0,0,0-1.185.1c-.9.337-1.32,1.291-1.013,2.58.183.766.867.376,1.3.377Q-419.538,814.37-405.754,814.352Zm19.867,36.605c0-2.766-.019-5.532.013-8.3.007-.668-.092-.955-.876-.943-3.5.048-7.008.037-10.511.007-.631-.006-.83.143-.826.8q.041,8.39,0,16.78c0,.638.213.744.783.74,3.534-.023,7.07-.037,10.6.009.743.009.835-.255.827-.893C-385.906,856.427-385.887,853.692-385.887,850.957Zm-15.258-.045c0-4.8-.012-9.591.014-14.386,0-.651-.109-.928-.845-.9-1.473.062-2.952.059-4.426,0-.723-.029-.855.228-.853.892q.031,14.339,0,28.679c0,.7.141.973.9.94,1.442-.063,2.891-.067,4.333,0,.77.036.892-.253.888-.937C-401.158,860.441-401.146,855.676-401.146,850.912Zm-18.287-70.48-9.539,9.538c2.875,0,5.936,0,9,.005.384,0,.549-.117.548-.523C-419.438,786.36-419.433,783.269-419.433,780.432Zm-33.483,12.555a3.023,3.023,0,0,0,3.011-3.063,3.052,3.052,0,0,0-3.064-3.023,3.077,3.077,0,0,0-3.022,3.076A3.046,3.046,0,0,0-452.916,792.987Zm12.167,10.688a1.512,1.512,0,0,0-1.517-1.508,1.506,1.506,0,0,0-1.534,1.487,1.519,1.519,0,0,0,1.513,1.515A1.538,1.538,0,0,0-440.749,803.675Zm-21.343-3.032a1.552,1.552,0,0,0-1.487-1.551,1.509,1.509,0,0,0-1.527,1.5,1.518,1.518,0,0,0,1.472,1.556A1.556,1.556,0,0,0-462.093,800.643Z" fill="#030302"/>
      <path id="Trazado_635376" data-name="Trazado 635376" d="M-426.073,970.024q-9.18,0-18.359,0a15.2,15.2,0,0,1-15.377-12.912,15.271,15.271,0,0,1,13.417-17.437c.918-.077,1.841-.116,2.762-.117q18.728-.011,37.457-.021c.8,0,1.086.143,1.082,1.033q-.055,14.252-.005,28.5c0,.76-.184.974-.956.971C-412.727,970.011-419.4,970.024-426.073,970.024Zm-18.666-27.4a12.181,12.181,0,0,0-12.2,12.165,12.218,12.218,0,0,0,12.182,12.2,12.185,12.185,0,0,0,12.188-12.18A12.154,12.154,0,0,0-444.739,942.625Z" transform="translate(-5.146 -103.903)" fill="#f4d57e"/>
      <path id="Trazado_635377" data-name="Trazado 635377" d="M-348.549,890.074q13.976,0,27.952-.018c.781,0,1.031.143,1.028.99-.034,10.116-.021,20.231-.023,30.346,0,1.8-.436,2.228-2.227,2.23-1.015,0-2.033-.054-3.043.018-.733.052-.846-.224-.84-.879.031-3.474,0-6.949.03-10.423.007-.7-.142-.927-.892-.92-4.52.039-9.041,0-13.561.036-.658,0-.822-.181-.8-.818.048-1.474-.034-2.953.035-4.426.036-.763-.238-.885-.924-.884-11.531.02-23.063,0-34.594.037-.9,0-1.1-.232-1.091-1.108.048-4.427.038-8.855.006-13.282,0-.708.158-.92.9-.918Q-362.571,890.1-348.549,890.074Zm-24.344,9.172c-1.568,0-1.568,0-1.568,1.411,0,1.612,0,1.612,1.647,1.612,1.437,0,1.437,0,1.437-1.46C-371.379,899.246-371.379,899.246-372.893,899.246Zm7.61,1.51c0-1.51,0-1.51-1.474-1.51h-.184c-1.426,0-1.426,0-1.426,1.463,0,1.559,0,1.559,1.61,1.559C-365.284,902.268-365.284,902.268-365.284,900.756Zm4.562-1.51c-1.552,0-1.552,0-1.552,1.432,0,1.591,0,1.591,1.581,1.591,1.5,0,1.5,0,1.5-1.481C-359.189,899.246-359.189,899.246-360.722,899.246Z" transform="translate(-57.162 -72.715)" fill="#e4e7ea"/>
      <path id="Trazado_635378" data-name="Trazado 635378" d="M-335.738,782.976c5.749,0,11.5.013,17.246-.015.746,0,1.038.095,1.033.969q-.065,11.249-.007,22.5c0,.764-.189.962-.957.957-4.98-.037-9.961.019-14.94-.036a4.83,4.83,0,0,0-4.883,3.05c-.367.809-.828,1.576-1.176,2.393a1.027,1.027,0,0,1-1.131.674q-13.925-.025-27.851,0c-.71,0-.932-.158-.926-.9q.056-6.731,0-13.463c-.008-.81.255-.934.984-.928,4.488.034,8.977,0,13.464.035.7.005.861-.182.856-.866-.033-4.456,0-8.913-.035-13.37-.007-.783.148-1.025.988-1.019C-347.3,783-341.517,782.976-335.738,782.976Zm-.009,15.219c4.8,0,9.593-.011,14.389.014.618,0,.838-.117.831-.791q-.054-5.3,0-10.606c.006-.639-.157-.816-.807-.815q-14.435.032-28.87,0c-.733,0-.841.238-.835.887.03,3.473.036,6.948,0,10.421-.008.725.182.916.909.911C-345.34,798.179-340.543,798.2-335.747,798.2Zm-4.606,3.072h-17.706c-2.085,0-2.044,0-2.1,2.1-.021.788.213.941.963.939q18.259-.037,36.518-.018c2.145,0,2.109,0,2.152-2.133.014-.743-.215-.9-.922-.9C-327.75,801.279-334.052,801.267-340.353,801.267Zm-13.758,9.112h10.234c2.024,0,1.987,0,2.038-2.063.018-.754-.165-.974-.945-.971-7.1.032-14.2.018-21.3.018-2.159,0-2.13,0-2.167,2.117-.013.7.141.927.89.919C-361.61,810.356-357.86,810.379-354.111,810.379Zm-9.108-7.587c0-1.525,0-1.525-1.54-1.525-1.472,0-1.472,0-1.472,1.5s0,1.516,1.543,1.516C-363.219,804.286-363.219,804.286-363.219,802.792Z" transform="translate(-62.309 -5.204)" fill="#e6ccb3"/>
      <path id="Trazado_635379" data-name="Trazado 635379" d="M-348.694,866.31q-13.784,0-27.567-.018c-.433,0-1.117.388-1.3-.378-.308-1.289.108-2.244,1.013-2.58a3.284,3.284,0,0,1,1.185-.1q15.628,0,31.255.017a1.351,1.351,0,0,0,1.45-.9c.635-1.395,1.367-2.745,2.033-4.127a1.774,1.774,0,0,1,1.754-1.091c5.808.007,11.617,0,17.425.01a1.522,1.522,0,0,1,1.737,1.688c.027,2.274-.018,4.548.024,6.822.015.841-.521.661-.981.661Q-334.68,866.313-348.694,866.31Zm12.3-6.1c-1.6,0-1.6,0-1.6,1.48,0,1.539,0,1.539,1.536,1.539s1.54,0,1.54-1.519C-334.918,860.21-334.918,860.21-336.392,860.21Zm7.566,1.448c0-1.448,0-1.448-1.43-1.448h-.092c-1.55,0-1.55,0-1.55,1.531,0,1.488,0,1.488,1.5,1.488C-328.826,863.228-328.826,863.228-328.826,861.657Zm4.586-1.448c-1.559,0-1.559,0-1.559,1.429,0,1.589,0,1.589,1.576,1.589,1.492,0,1.492,0,1.492-1.469C-322.732,860.21-322.732,860.21-324.24,860.21Z" transform="translate(-57.059 -51.958)" fill="#e98571"/>
      <path id="Trazado_635380" data-name="Trazado 635380" d="M-266.362,965.232c0,2.735-.018,5.471.014,8.205.007.638-.084.9-.827.893-3.534-.045-7.07-.032-10.6-.008-.57,0-.786-.1-.783-.74q.041-8.39,0-16.78c0-.661.195-.809.826-.8,3.5.03,7.008.042,10.512-.007.784-.011.883.275.876.943C-266.381,959.7-266.362,962.466-266.362,965.232Zm-3.059,4.567c0-1.595,0-1.595-1.564-1.595-1.472,0-1.472,0-1.472,1.495,0,1.576,0,1.576,1.555,1.576C-269.421,971.275-269.421,971.275-269.421,969.8Zm-3.033-9.291c0,1.6,0,1.6,1.534,1.6,1.492,0,1.492,0,1.492-1.473,0-1.549,0-1.549-1.59-1.549C-272.454,959.09-272.454,959.09-272.454,960.509Z" transform="translate(-119.525 -114.276)" fill="#f9e7ad"/>
      <path id="Trazado_635381" data-name="Trazado 635381" d="M-297.252,954.806c0,4.764-.013,9.529.014,14.293,0,.684-.118.973-.888.937-1.442-.068-2.891-.064-4.333,0-.761.033-.9-.241-.9-.94q.032-14.339,0-28.679c0-.664.13-.921.853-.892,1.473.059,2.953.061,4.426,0,.736-.031.848.245.845.9C-297.264,945.215-297.252,950.01-297.252,954.806Z" transform="translate(-103.893 -103.894)" fill="#f2d47d"/>
      <path id="Trazado_635382" data-name="Trazado 635382" d="M-352.57,790.211c0,2.837,0,5.928.006,9.02,0,.406-.164.524-.548.523-3.061-.01-6.122-.005-9-.005Z" transform="translate(-66.863 -9.779)" fill="#b8d687"/>
      <path id="Trazado_635383" data-name="Trazado 635383" d="M-432.125,813.8a3.046,3.046,0,0,1-3.075-3.01,3.077,3.077,0,0,1,3.022-3.076,3.052,3.052,0,0,1,3.064,3.023A3.023,3.023,0,0,1-432.125,813.8Z" transform="translate(-20.791 -20.809)" fill="#e98571"/>
      <path id="Trazado_635384" data-name="Trazado 635384" d="M-399.17,850.515a1.539,1.539,0,0,1-1.538,1.494,1.519,1.519,0,0,1-1.513-1.515,1.506,1.506,0,0,1,1.534-1.487A1.512,1.512,0,0,1-399.17,850.515Z" transform="translate(-41.579 -46.84)" fill="#e98571"/>
      <path id="Trazado_635385" data-name="Trazado 635385" d="M-456.844,842.238a1.556,1.556,0,0,1-1.542,1.5,1.518,1.518,0,0,1-1.472-1.556,1.509,1.509,0,0,1,1.527-1.5A1.551,1.551,0,0,1-456.844,842.238Z" transform="translate(-5.249 -41.596)" fill="#e98571"/>
      <path id="Trazado_635386" data-name="Trazado 635386" d="M-439.487,947.9a12.154,12.154,0,0,1,12.169,12.185,12.185,12.185,0,0,1-12.188,12.18,12.217,12.217,0,0,1-12.182-12.2A12.181,12.181,0,0,1-439.487,947.9Zm0,21.3a9.16,9.16,0,0,0,9.137-9.16,9.2,9.2,0,0,0-9.113-9.11,9.156,9.156,0,0,0-9.161,9.134A9.109,9.109,0,0,0-439.484,969.193Z" transform="translate(-10.398 -109.172)" fill="#040403"/>
      <path id="Trazado_635387" data-name="Trazado 635387" d="M-367.713,914.916c1.515,0,1.515,0,1.515,1.563,0,1.46,0,1.46-1.436,1.46-1.647,0-1.647,0-1.647-1.612C-369.281,914.916-369.281,914.916-367.713,914.916Z" transform="translate(-62.342 -88.385)" fill="#060707"/>
      <path id="Trazado_635388" data-name="Trazado 635388" d="M-349.713,916.426c0,1.512,0,1.512-1.475,1.512-1.61,0-1.61,0-1.61-1.559,0-1.463,0-1.463,1.426-1.463h.184C-349.713,914.916-349.713,914.916-349.713,916.426Z" transform="translate(-72.733 -88.385)" fill="#060707"/>
      <path id="Trazado_635389" data-name="Trazado 635389" d="M-334.759,914.916c1.533,0,1.533,0,1.533,1.542,0,1.481,0,1.481-1.5,1.481-1.581,0-1.581,0-1.581-1.591C-336.311,914.916-336.311,914.916-334.759,914.916Z" transform="translate(-83.125 -88.385)" fill="#060707"/>
      <path id="Trazado_635390" data-name="Trazado 635390" d="M-304.563,803.378c-4.8,0-9.593-.016-14.389.017-.727.005-.917-.186-.909-.911.039-3.473.034-6.948,0-10.421-.006-.65.1-.89.835-.888q14.435.042,28.87,0c.65,0,.813.176.807.815q-.047,5.3,0,10.606c.007.674-.213.795-.831.791C-294.971,803.367-299.767,803.378-304.563,803.378Zm.008-9.124c-3.777,0-7.555.022-11.331-.019-.744-.008-.921.216-.9.92.053,1.441.05,2.887,0,4.328-.023.664.122.918.848.886,1.41-.062,2.824-.018,4.237-.018,6.111,0,12.222-.019,18.333.023.844.006,1.027-.239.989-1.025-.066-1.378-.064-2.765,0-4.143.034-.752-.152-.982-.941-.972C-297.063,794.279-300.81,794.254-304.556,794.254Z" transform="translate(-93.493 -10.387)" fill="#030302"/>
      <path id="Trazado_635391" data-name="Trazado 635391" d="M-324.711,832.467c6.3,0,12.6.011,18.9-.016.707,0,.937.157.922.9-.043,2.133-.007,2.133-2.152,2.133q-18.259,0-36.518.018c-.75,0-.984-.152-.963-.939.057-2.1.016-2.1,2.1-2.1Z" transform="translate(-77.951 -36.405)"/>
      <path id="Trazado_635392" data-name="Trazado 635392" d="M-348.852,851.968c-3.749,0-7.5-.023-11.247.02-.749.008-.9-.221-.89-.919.037-2.116.009-2.117,2.167-2.117,7.1,0,14.2.013,21.3-.018.781,0,.964.217.945.971-.051,2.062-.014,2.063-2.038,2.063Z" transform="translate(-67.569 -46.794)"/>
      <path id="Trazado_635393" data-name="Trazado 635393" d="M-357.931,834.019c0,1.494,0,1.494-1.47,1.494-1.543,0-1.543,0-1.543-1.516s0-1.5,1.472-1.5C-357.931,832.494-357.931,832.494-357.931,834.019Z" transform="translate(-67.598 -36.431)"/>
      <path id="Trazado_635394" data-name="Trazado 635394" d="M-268.752,865.466c1.473,0,1.473,0,1.473,1.5,0,1.519,0,1.519-1.54,1.519s-1.536,0-1.536-1.539C-270.354,865.466-270.354,865.466-268.752,865.466Z" transform="translate(-124.699 -57.215)" fill="#070403"/>
      <path id="Trazado_635395" data-name="Trazado 635395" d="M-250.792,866.914c0,1.571,0,1.571-1.577,1.571-1.5,0-1.5,0-1.5-1.487,0-1.531,0-1.531,1.55-1.531h.092C-250.792,865.466-250.792,865.466-250.792,866.914Z" transform="translate(-135.094 -57.215)" fill="#070403"/>
      <path id="Trazado_635396" data-name="Trazado 635396" d="M-235.806,865.466c1.508,0,1.508,0,1.508,1.549,0,1.469,0,1.469-1.492,1.469-1.576,0-1.576,0-1.576-1.589C-237.365,865.466-237.365,865.466-235.806,865.466Z" transform="translate(-145.493 -57.215)" fill="#070403"/>
      <path id="Trazado_635397" data-name="Trazado 635397" d="M-259.009,990.626c0,1.476,0,1.476-1.481,1.476-1.555,0-1.555,0-1.555-1.576,0-1.495,0-1.495,1.472-1.495C-259.009,989.031-259.009,989.031-259.009,990.626Z" transform="translate(-129.937 -135.102)" fill="#060707"/>
      <path id="Trazado_635398" data-name="Trazado 635398" d="M-262.037,965.792c0-1.419,0-1.419,1.437-1.419,1.59,0,1.59,0,1.59,1.549,0,1.473,0,1.473-1.492,1.473C-262.037,967.395-262.037,967.395-262.037,965.792Z" transform="translate(-129.942 -119.559)"/>
      <path id="Trazado_635399" data-name="Trazado 635399" d="M-434.252,974.356a9.109,9.109,0,0,1-9.137-9.137,9.156,9.156,0,0,1,9.161-9.134,9.2,9.2,0,0,1,9.113,9.11A9.16,9.16,0,0,1-434.252,974.356Z" transform="translate(-15.63 -114.335)" fill="#f6f8f9"/>
      <path id="Trazado_635400" data-name="Trazado 635400" d="M-299.309,799.468c3.746,0,7.493.025,11.239-.02.789-.01.976.22.941.972-.063,1.379-.065,2.765,0,4.143.037.786-.146,1.031-.989,1.025-6.111-.042-12.222-.023-18.333-.023-1.412,0-2.827-.044-4.237.018-.725.032-.871-.221-.848-.886.049-1.442.052-2.887,0-4.328-.026-.7.151-.928.9-.92C-306.863,799.49-303.086,799.468-299.309,799.468Z" transform="translate(-98.74 -15.601)" fill="#f2d37d"/>
    </g>
  </g>
</svg>
