<svg id="Grupo_963310" data-name="Grupo 963310" xmlns="http://www.w3.org/2000/svg" width="144.902" height="144.902" viewBox="0 0 144.902 144.902">
  <g id="Grupo_94722" data-name="Grupo 94722">
    <g id="_240_F_327287600_TyhZPz7Qge3YOTv4dab7M9xRDBiZxF9G" data-name="240_F_327287600_TyhZPz7Qge3YOTv4dab7M9xRDBiZxF9G" fill="#e0dafc" stroke="#e28f5e" stroke-width="3">
      <circle cx="72.451" cy="72.451" r="72.451" stroke="none"/>
      <circle cx="72.451" cy="72.451" r="70.951" fill="none"/>
    </g>
  </g>
  <g id="Grupo_963309" data-name="Grupo 963309" transform="translate(26.728 28.202)">
    <path id="Trazado_635265" data-name="Trazado 635265" d="M-470.534,245.458c-1.093-.271-1.366-.608-1.368-1.732,0-2.856-.012-5.711,0-8.567a6.147,6.147,0,0,1,2.787-5.29c.408-.282.573-.437.251-.937a8.2,8.2,0,0,1-1.2-4.5c-.008-2.409-.016-4.819,0-7.228a5.428,5.428,0,0,1,5.726-5.7c1.934-.006,3.868-.01,5.8,0a5.367,5.367,0,0,1,5.593,5.537c.024,2.5,0,5,.008,7.5a8.326,8.326,0,0,1-1.088,4.263c-.185.322-.287.527.146.761a5.576,5.576,0,0,1,1.712,1.667c1.984,2.636,3.991,5.255,5.952,7.908a1.486,1.486,0,0,0,1.405.684c1.278-.047,2.559-.035,3.838,0,.5.012.669-.137.658-.651-.032-1.427.038-2.858-.024-4.283a5.532,5.532,0,0,1,1.925-4.421,11.489,11.489,0,0,1,3.423-2.215c.52-.223.647-.445.42-.991a6.125,6.125,0,0,1-.408-2.359c0-2.707-.043-5.414.006-8.12a5.271,5.271,0,0,1,5.222-5.255c3.45-.068,6.9-.026,10.354-.014.946,0,1.527.485,1.522,1.383-.024,4.311.159,8.624-.1,12.933-.005.089-.018.178-.023.267-.031.583-.611,1.211-.266,1.674.313.42,1.023.538,1.55.8a11.245,11.245,0,0,1,2.772,1.924,5.524,5.524,0,0,1,1.882,4.351c-.057,1.426.016,2.856-.025,4.282-.016.569.175.7.712.69,1.279-.036,2.56-.043,3.838,0a1.419,1.419,0,0,0,1.331-.653c2-2.7,4.039-5.367,6.061-8.049a3.97,3.97,0,0,1,1.233-1.271c.8-.4.715-.813.326-1.49a6.809,6.809,0,0,1-.862-3.418c0-2.707-.039-5.414,0-8.12a5.308,5.308,0,0,1,5.273-5.3c2.171-.053,4.345-.049,6.516,0a5.247,5.247,0,0,1,5.273,5.025c.147,2.907.054,5.827,0,8.74a7.307,7.307,0,0,1-1.161,3.7c-.224.365-.264.545.154.823a6.313,6.313,0,0,1,2.9,5.679c-.028,2.766-.018,5.532,0,8.3a1.451,1.451,0,0,1-1.247,1.664c-1.09-.186-1.434-.564-1.437-1.639q-.011-4.307,0-8.613a3.618,3.618,0,0,0-1.048-2.647c-1.018-1.038-1.5-1.084-2.731-.288a8.5,8.5,0,0,1-8.8-.588,1.01,1.01,0,0,0-1.079,0,2.927,2.927,0,0,0-1.18,1.054c-2.2,2.919-4.42,5.82-6.593,8.759a2.337,2.337,0,0,1-2.112,1.032c-2.824-.04-5.65-.029-8.475-.007a2.407,2.407,0,0,0-2.525,2.432,2.425,2.425,0,0,0,2.6,2.447c3.45.017,6.9-.042,10.348.03a3.346,3.346,0,0,0,3.011-1.517c1.721-2.347,3.491-4.66,5.244-6.985.67-.889,1.437-1.107,2.109-.612s.708,1.307.047,2.189q-1.951,2.6-3.917,5.195a1.5,1.5,0,0,0-.4.953q.023,5.306,0,10.612c0,.445.1.628.591.625,3.954-.03,7.908-.034,11.862-.047.77.013,1.543-.007,2.31.048.577.042.754-.136.744-.728-.035-2.194-.017-4.389-.013-6.584,0-1.17.252-1.475,1.421-1.779,1,.261,1.289.937,1.273,1.926-.044,2.7-.011,5.411-.017,8.117,0,1.248-.466,1.706-1.734,1.706q-43.988,0-87.976,0c-1.255,0-1.712-.466-1.714-1.726q-.006-4.1,0-8.206c0-1.208.186-1.448,1.379-1.836a1.642,1.642,0,0,1,1.315,1.907c-.038,2.341,0,4.683.008,7.025-.014.121.034.175.158.149l12.3-.014c.742.011,1.486-.013,2.224.043.623.047.808-.166.8-.793-.029-3.413-.014-6.826-.013-10.239a1.361,1.361,0,0,0-.216-.926c-.933-1.188-1.849-2.389-2.772-3.586-.538-.745-1.109-1.47-1.605-2.241a1.222,1.222,0,0,1,.289-1.749,1.253,1.253,0,0,1,1.773.118,4.149,4.149,0,0,1,.445.554c1.81,2.394,3.628,4.782,5.423,7.187a2.719,2.719,0,0,0,2.348,1.2c3.538-.023,7.077-.007,10.615-.01a3.113,3.113,0,0,0,1.142-.142,2.424,2.424,0,0,0,1.553-2.7,2.33,2.33,0,0,0-2.343-2.027c-2.825-.029-5.65-.047-8.474,0a2.542,2.542,0,0,1-2.328-1.14c-2.125-2.9-4.322-5.746-6.486-8.617a3.14,3.14,0,0,0-1.335-1.139.978.978,0,0,0-.993.081,8.333,8.333,0,0,1-9.4.132.971.971,0,0,0-1.073-.014,3.549,3.549,0,0,0-2.053,3.293q-.026,4.324,0,8.65A1.486,1.486,0,0,1-470.534,245.458Zm47.2-31.244c-1.892-.013-3.784-.032-5.676-.037-2.4-.005-3.428,1.117-3.257,3.545-.018.141.061.16.173.138l8.765-.006c.738.01,1.476.006,2.213.035.392.015.6-.07.587-.528-.028-.885-.025-1.772,0-2.657.012-.451-.2-.549-.591-.533C-421.856,214.2-422.594,214.2-423.332,214.214Zm18.916,43.621c.829.009,1.659,0,2.487.034.475.02.609-.172.606-.622q-.023-3.288,0-6.576c0-.457-.151-.639-.616-.619-.827.035-1.657.033-2.485.046-.207-.011-.415-.032-.622-.032q-22.559,0-45.118,0a2.22,2.22,0,0,1-.267,0c-.454-.054-.631.124-.625.6.029,2.346.03,4.693.042,7.039,0,.131.069.164.185.139.357.006.714.019,1.07.019q22.137,0,44.275,0C-405.129,257.859-404.772,257.844-404.416,257.836Zm-15.5-10.494a1.4,1.4,0,0,0-.026-.288c-1.27-3.874.6-6.789,4.685-7.242.467-.052.513-.244.509-.616a28.761,28.761,0,0,1,.02-3.565c.231-2.024-.787-3.244-2.367-4.2a16.862,16.862,0,0,0-2.22-1.124.647.647,0,0,0-.856.151,8.527,8.527,0,0,1-12.407.12c-.2-.2-.351-.346-.676-.205A10,10,0,0,0-437,232.853a2.547,2.547,0,0,0-.644,1.8c.028,1.456.04,2.915-.006,4.37-.02.619.165.788.78.817A5.05,5.05,0,0,1-432,244.691a6.672,6.672,0,0,1-.518,2.65Zm-6.453-26.772v-.005c-1.783,0-3.565.015-5.347-.01-.465-.006-.614.123-.6.6.035,1.246-.015,2.5.029,3.741a5.882,5.882,0,0,0,5.688,5.632,5.907,5.907,0,0,0,5.97-5.144c.173-1.42.026-2.849.091-4.271.025-.548-.27-.544-.662-.542C-422.92,220.575-424.643,220.569-426.366,220.569Zm-35.079-6.386v-.009c-1.011,0-2.022-.011-3.032,0a2.706,2.706,0,0,0-2.886,2.658c-.074,2.167-.023,4.337-.025,6.507,0,.239,0,.457.283.587a4.315,4.315,0,0,0,5.01-1.651,8.833,8.833,0,0,0,.9-3.6,1.333,1.333,0,0,1,2.18-1.058,8.682,8.682,0,0,0,1.3.76c1.761.734,2.118.489,2.079-1.361a2.716,2.716,0,0,0-2.873-2.837C-459.482,214.172-460.464,214.184-461.444,214.184Zm70.545.011v-.023q-1.516,0-3.032,0a2.8,2.8,0,0,0-2.306,1.142c-.734.94-.508,2.038-.493,3.092.005.36.36.326.628.307a5.356,5.356,0,0,0,2.772-1.1,1.315,1.315,0,0,1,2.141,1.019c.054.471.1.944.171,1.413.466,3.164,2.182,4.407,5.347,3.915.468-.073.678-.219.673-.718-.019-2.08.036-4.161-.025-6.24a2.738,2.738,0,0,0-2.934-2.806C-388.937,214.184-389.918,214.2-390.9,214.2Zm-76.035,12.478a5.814,5.814,0,0,0,5.576,3.843,5.961,5.961,0,0,0,5.524-4.289,13.107,13.107,0,0,0,.207-3.454c.021-1.291,0-1.285-1.221-1.44a3.658,3.658,0,0,1-1.126-.23c-.711-.346-.864-.006-1.038.606-.879,3.092-2.748,4.72-5.723,5.05A9.4,9.4,0,0,1-466.934,226.673Zm81.406.087c-4.9.033-6.244-.884-7.967-5.486-.138-.37-.284-.373-.58-.263a5.948,5.948,0,0,1-2.094.37c-.472,0-.616.163-.6.619.029.92-.006,1.842.017,2.763A5.836,5.836,0,0,0-393,230.118C-390,231.288-386.268,229.608-385.528,226.76Z" transform="translate(471.908 -172.033)" fill="#030303"/>
    <path id="Trazado_635266" data-name="Trazado 635266" d="M-420.535,136.378a1.476,1.476,0,0,1-1.67,1.252c-2.5-.021-5,.01-7.5-.014a6.363,6.363,0,0,1-6.175-4.509.787.787,0,0,0-.923-.657q-8.657.024-17.314,0a1.387,1.387,0,0,0-1.085.466c-1.754,1.78-3.534,3.533-5.288,5.312a1.539,1.539,0,0,1-1.815.564,1.523,1.523,0,0,1-.811-1.639c.023-1.368-.007-2.736.015-4.1.008-.466-.058-.694-.611-.838a8.079,8.079,0,0,1-6.17-7.959q-.041-7.4,0-14.81a8.129,8.129,0,0,1,8.3-8.209q14.5-.021,29.006,0a8.16,8.16,0,0,1,8.352,8.167c0,.119,0,.238,0,.357.009,2.08.009,2.08,2.05,2.08q10.175,0,20.349,0a6.408,6.408,0,0,1,6.639,5.174,7.808,7.808,0,0,1,.123,1.595q.014,6.111,0,12.223a6.345,6.345,0,0,1-4.565,6.481.665.665,0,0,0-.529.757c.023,1.427,0,2.855.011,4.282a1.492,1.492,0,0,1-.852,1.614,1.515,1.515,0,0,1-1.738-.559c-1.758-1.775-3.54-3.527-5.29-5.309a1.462,1.462,0,0,0-1.162-.487c-2.142.025-4.284.019-6.426.007a1.443,1.443,0,0,1-1.6-1.249c.318-1.207.6-1.424,1.87-1.426a26.932,26.932,0,0,0,3.831-.031,6.843,6.843,0,0,1,7.073,2.953,4.98,4.98,0,0,0,1.614,1.464c0-.937,0-1.766,0-2.595.009-1.346.3-1.669,1.636-1.8a3.721,3.721,0,0,0,3.437-3.677q.042-6.554,0-13.108a3.59,3.59,0,0,0-3.046-3.526c-.324-.033-.648-.094-.972-.094-7.228-.005-14.457,0-21.685-.019-.628,0-.789.164-.782.785.034,2.854.013,5.709.016,8.564a10.024,10.024,0,0,1-.254,2.386,8.4,8.4,0,0,1-4.678,5.62,9.881,9.881,0,0,1-3.565.6c-.536-.037-.532.189-.308.563a3.675,3.675,0,0,0,3.289,1.915c2.489.021,4.977,0,7.466.009C-421.1,134.947-420.749,135.244-420.535,136.378Zm-9.357-31.8a4.336,4.336,0,0,0-2.536-.666q-14.633-.015-29.267,0a5.429,5.429,0,0,0-5.506,5.574c-.02,4.906-.008,9.811,0,14.717a4.753,4.753,0,0,0,.623,2.558,5.192,5.192,0,0,0,4.513,3c1.226.1,1.632.5,1.64,1.725.005.9,0,1.793,0,2.944,1.364-1.39,2.554-2.557,3.687-3.777a2.642,2.642,0,0,1,2.117-.893q11.068.042,22.137.011a5.356,5.356,0,0,0,5.556-5.322q.116-7.583,0-15.168A5.008,5.008,0,0,0-429.892,104.576Z" transform="translate(470.62 -101.224)" fill="#040404"/>
    <path id="Trazado_635267" data-name="Trazado 635267" d="M-454.271,293.821l-12.3.014-.158-.149c-.008-2.342-.046-4.684-.008-7.025a1.642,1.642,0,0,0-1.315-1.907q-.005-1.652-.01-3.3a1.486,1.486,0,0,0,1.319-1.7q-.033-4.325,0-8.65a3.549,3.549,0,0,1,2.053-3.293.971.971,0,0,1,1.073.014,8.333,8.333,0,0,0,9.4-.132.978.978,0,0,1,.993-.081,3.14,3.14,0,0,1,1.335,1.139c2.164,2.871,4.361,5.718,6.486,8.617a2.542,2.542,0,0,0,2.328,1.14c2.824-.05,5.649-.032,8.474,0a2.33,2.33,0,0,1,2.343,2.027,2.424,2.424,0,0,1-1.553,2.7,3.114,3.114,0,0,1-1.142.142c-3.538,0-7.077-.012-10.615.01a2.719,2.719,0,0,1-2.348-1.2c-1.795-2.405-3.613-4.793-5.423-7.187a4.151,4.151,0,0,0-.445-.554,1.253,1.253,0,0,0-1.773-.118,1.222,1.222,0,0,0-.289,1.749c.5.772,1.067,1.5,1.605,2.241Q-454.258,286.071-454.271,293.821Z" transform="translate(469.44 -208.025)" fill="#eb717a"/>
    <path id="Trazado_635268" data-name="Trazado 635268" d="M-334.846,138.671A3.591,3.591,0,0,1-331.8,142.2q.045,6.554,0,13.108a3.721,3.721,0,0,1-3.437,3.677c-1.332.135-1.628.458-1.636,1.8-.005.829,0,1.658,0,2.595a4.98,4.98,0,0,1-1.614-1.464,6.843,6.843,0,0,0-7.073-2.953,26.927,26.927,0,0,1-3.831.031c-1.269,0-1.552.219-1.87,1.426l-3.323.008c-.215-1.135-.567-1.431-1.736-1.433-2.489,0-4.977.012-7.466-.009a3.675,3.675,0,0,1-3.289-1.915c-.224-.374-.228-.6.308-.563a9.89,9.89,0,0,0,3.565-.6,1.2,1.2,0,0,0,.177.026c7.9.008,15.807.045,23.71,0a4.876,4.876,0,0,0,4.469-4.708Q-334.841,144.953-334.846,138.671Z" transform="translate(404.668 -125.275)" fill="#dde8f6"/>
    <path id="Trazado_635269" data-name="Trazado 635269" d="M-234.372,268.576c1.231-.8,1.713-.751,2.731.288a3.618,3.618,0,0,1,1.048,2.647q-.009,4.306,0,8.613c0,1.074.347,1.452,1.437,1.639q-.009,1.671-.018,3.342c-1.169.3-1.418.608-1.421,1.779,0,2.194-.023,4.389.013,6.584.01.592-.168.77-.744.728-.767-.055-1.54-.036-2.31-.048,0-7.383-.014-14.767.023-22.151A7.311,7.311,0,0,0-234.372,268.576Z" transform="translate(319.345 -208.356)" fill="#bbdfa3"/>
    <path id="Trazado_635270" data-name="Trazado 635270" d="M-289.6,268.221a7.311,7.311,0,0,1,.76,3.42c-.036,7.384-.021,14.767-.023,22.151-3.954.012-7.908.017-11.862.046-.49,0-.593-.18-.591-.625q.021-5.306,0-10.612a1.5,1.5,0,0,1,.4-.953q1.962-2.595,3.917-5.195c.661-.881.636-1.687-.047-2.189s-1.439-.277-2.109.612c-1.753,2.325-3.523,4.637-5.244,6.985a3.345,3.345,0,0,1-3.011,1.517c-3.448-.072-6.9-.012-10.348-.03a2.426,2.426,0,0,1-2.6-2.447,2.407,2.407,0,0,1,2.525-2.432c2.825-.022,5.65-.033,8.475.007a2.337,2.337,0,0,0,2.112-1.032c2.172-2.938,4.394-5.84,6.593-8.759a2.927,2.927,0,0,1,1.18-1.054,1.01,1.01,0,0,1,1.079,0A8.5,8.5,0,0,0-289.6,268.221Z" transform="translate(374.576 -208.001)" fill="#d3f0a7"/>
    <path id="Trazado_635271" data-name="Trazado 635271" d="M-413.579,326.974c-.011-2.346-.013-4.693-.041-7.039-.006-.474.171-.652.625-.6a2.222,2.222,0,0,0,.267,0q22.559,0,45.118,0c.207,0,.415.021.622.032q0,3.868.009,7.737c-.357.008-.713.023-1.07.023q-22.137,0-44.275,0c-.357,0-.714-.012-1.07-.019Z" transform="translate(434.471 -241.306)" fill="#c69182"/>
    <path id="Trazado_635272" data-name="Trazado 635272" d="M-358.418,280.978h-12.606a6.673,6.673,0,0,0,.518-2.65,5.05,5.05,0,0,0-4.875-4.856c-.615-.029-.8-.2-.78-.817.046-1.455.034-2.914.006-4.37a2.546,2.546,0,0,1,.644-1.8A10,10,0,0,1-371.757,264c.325-.14.48,0,.676.205a8.527,8.527,0,0,0,12.407-.12.647.647,0,0,1,.856-.151,16.856,16.856,0,0,1,2.22,1.124c1.58.961,2.6,2.18,2.367,4.2a28.761,28.761,0,0,0-.02,3.565c0,.372-.042.564-.509.616-4.083.453-5.955,3.368-4.685,7.242A1.4,1.4,0,0,1-358.418,280.978Z" transform="translate(410.413 -205.669)" fill="#e4d2fa"/>
    <path id="Trazado_635273" data-name="Trazado 635273" d="M-355.279,236.875c1.723,0,3.446.006,5.169,0,.392,0,.687-.006.662.542-.065,1.422.082,2.851-.091,4.271a5.907,5.907,0,0,1-5.97,5.144A5.882,5.882,0,0,1-361.2,241.2c-.044-1.246.005-2.495-.029-3.741-.013-.473.136-.6.6-.6,1.782.025,3.564.01,5.347.01Z" transform="translate(400.821 -188.339)" fill="#f6ccbf"/>
    <path id="Trazado_635274" data-name="Trazado 635274" d="M-453.356,219.03c.981,0,1.962-.011,2.943,0a2.716,2.716,0,0,1,2.873,2.837c.039,1.85-.318,2.1-2.08,1.361a8.685,8.685,0,0,1-1.3-.76,1.333,1.333,0,0,0-2.18,1.058,8.832,8.832,0,0,1-.9,3.6,4.315,4.315,0,0,1-5.01,1.651c-.281-.13-.284-.348-.283-.587,0-2.169-.049-4.34.025-6.507a2.706,2.706,0,0,1,2.886-2.658c1.01-.014,2.021,0,3.032,0Z" transform="translate(463.819 -176.879)" fill="#bb8b87"/>
    <path id="Trazado_635275" data-name="Trazado 635275" d="M-256,219.044c.981,0,1.962-.011,2.942,0a2.738,2.738,0,0,1,2.934,2.806c.061,2.078.006,4.16.025,6.24,0,.5-.2.645-.673.718-3.165.492-4.881-.751-5.347-3.915-.069-.469-.118-.942-.171-1.413a1.315,1.315,0,0,0-2.141-1.019,5.356,5.356,0,0,1-2.772,1.1c-.268.018-.623.053-.628-.307-.015-1.054-.241-2.152.493-3.092a2.8,2.8,0,0,1,2.306-1.142q1.516,0,3.032,0Z" transform="translate(337.013 -176.881)" fill="#517999"/>
    <path id="Trazado_635276" data-name="Trazado 635276" d="M-458,243.718a9.4,9.4,0,0,0,2.2.086c2.974-.33,4.844-1.958,5.723-5.05.174-.612.327-.952,1.038-.606a3.658,3.658,0,0,0,1.127.23c1.224.155,1.242.148,1.221,1.44a13.1,13.1,0,0,1-.207,3.454,5.961,5.961,0,0,1-5.524,4.289A5.814,5.814,0,0,1-458,243.718Z" transform="translate(462.978 -189.077)" fill="#f6ccbf"/>
    <path id="Trazado_635277" data-name="Trazado 635277" d="M-250.628,243.774c-.74,2.848-4.477,4.528-7.468,3.358a5.836,5.836,0,0,1-3.758-5.355c-.024-.92.011-1.843-.017-2.763-.014-.456.13-.621.6-.619a5.948,5.948,0,0,0,2.094-.37c.3-.11.442-.107.58.263C-256.872,242.89-255.527,243.807-250.628,243.774Z" transform="translate(337.008 -189.047)" fill="#bb8b87"/>
    <path id="Trazado_635278" data-name="Trazado 635278" d="M-429.5,313.231q.013-7.75.025-15.5c.923,1.2,1.839,2.4,2.772,3.586a1.361,1.361,0,0,1,.216.926c0,3.413-.015,6.826.013,10.239.005.627-.179.84-.8.793C-428.018,313.219-428.762,313.242-429.5,313.231Z" transform="translate(444.673 -227.435)" fill="#bc4c53"/>
    <path id="Trazado_635279" data-name="Trazado 635279" d="M-361.122,222.581c-.172-2.428.855-3.551,3.257-3.545,1.892,0,3.784.024,5.676.037q0,1.82,0,3.641l-8.765.006Z" transform="translate(400.765 -176.891)" fill="#f6ccbf"/>
    <path id="Trazado_635280" data-name="Trazado 635280" d="M-283.254,327.1q0-3.868-.009-7.737c.828-.013,1.658-.011,2.485-.046.465-.02.619.162.616.619q-.023,3.288,0,6.576c0,.45-.131.642-.606.622C-281.6,327.1-282.426,327.11-283.254,327.1Z" transform="translate(350.747 -241.299)" fill="#a66d5b"/>
    <path id="Trazado_635281" data-name="Trazado 635281" d="M-336.112,222.7q0-1.821,0-3.641c.737-.013,1.475-.013,2.212-.043.4-.016.6.082.591.533-.024.885-.027,1.772,0,2.657.015.458-.195.543-.587.528C-334.637,222.707-335.375,222.71-336.112,222.7Z" transform="translate(384.693 -176.878)" fill="#bbdfa3"/>
    <path id="Trazado_635282" data-name="Trazado 635282" d="M-361.093,228.947l.173.138C-361.033,229.107-361.111,229.088-361.093,228.947Z" transform="translate(400.737 -183.257)" fill="#bbdfa3"/>
    <path id="Trazado_635283" data-name="Trazado 635283" d="M-464.343,340.683l.158.149C-464.309,340.858-464.358,340.8-464.343,340.683Z" transform="translate(467.051 -255.022)" fill="#bc4c53"/>
    <path id="Trazado_635284" data-name="Trazado 635284" d="M-413.5,340.7l.185.14C-413.435,340.866-413.506,340.833-413.5,340.7Z" transform="translate(434.397 -255.034)" fill="#a66d5b"/>
    <path id="Trazado_635285" data-name="Trazado 635285" d="M-461.751,131.563a4.755,4.755,0,0,1-.623-2.558c-.006-4.906-.017-9.811,0-14.717a5.429,5.429,0,0,1,5.507-5.574q14.633-.043,29.267,0a4.336,4.336,0,0,1,2.536.666c0,5.144-.019,10.288,0,15.432a6.822,6.822,0,0,1-6.7,6.749c-5.025-.088-10.054-.026-15.081-.021Q-454.3,131.542-461.751,131.563Zm19.521-18.269h-3.031c-3.091,0-6.182-.008-9.272.006a1.3,1.3,0,0,0-1.423,1.271,1.351,1.351,0,0,0,1.338,1.383c.206.02.416.008.624.008q11.769,0,23.537,0a2.876,2.876,0,0,0,1.057-.1,1.307,1.307,0,0,0,.833-1.642,1.393,1.393,0,0,0-1.538-.933C-434.146,113.3-438.188,113.293-442.23,113.293Zm-.007,9.687h3.745c2.824,0,5.647.005,8.471,0a1.364,1.364,0,0,0,1.528-1.271,1.4,1.4,0,0,0-1.51-1.4c-.178-.008-.357,0-.535,0H-453.9a5.417,5.417,0,0,0-.89.027,1.331,1.331,0,0,0-1.108,1.707,1.418,1.418,0,0,0,1.535.951C-450.321,122.972-446.279,122.98-442.237,122.98Zm-6.134,4.386c-1.961,0-3.922-.005-5.884,0-1.1,0-1.727.511-1.7,1.361.023.824.622,1.312,1.68,1.314q5.839.012,11.678,0c1.112,0,1.709-.507,1.69-1.382-.018-.846-.574-1.289-1.667-1.294C-444.508,127.361-446.439,127.366-448.37,127.367Z" transform="translate(465.79 -106.024)" fill="#eaf1fb"/>
    <path id="Trazado_635286" data-name="Trazado 635286" d="M-327.636,138.467q0,6.282,0,12.564a4.876,4.876,0,0,1-4.469,4.708c-7.9.041-15.807,0-23.71,0a1.2,1.2,0,0,1-.177-.026,8.406,8.406,0,0,0,4.678-5.621,10.023,10.023,0,0,0,.254-2.386c0-2.855.018-5.71-.016-8.564-.008-.621.153-.787.782-.785,7.228.023,14.457.014,21.685.019C-328.284,138.373-327.96,138.434-327.636,138.467Z" transform="translate(397.458 -125.072)" fill="#ecf3fd"/>
    <path id="Trazado_635287" data-name="Trazado 635287" d="M-460.617,132.781q7.451-.014,14.9-.027c5.027-.005,10.055-.067,15.081.021a6.822,6.822,0,0,0,6.7-6.749c-.015-5.144,0-10.288,0-15.432a5.008,5.008,0,0,1,2.962,4.71q.1,7.583,0,15.168a5.355,5.355,0,0,1-5.556,5.322q-11.068.022-22.137-.011a2.642,2.642,0,0,0-2.117.893c-1.133,1.219-2.323,2.386-3.687,3.777,0-1.151,0-2.048,0-2.944-.008-1.224-.414-1.625-1.64-1.725A5.192,5.192,0,0,1-460.617,132.781Z" transform="translate(464.656 -107.242)" fill="#dde8f6"/>
    <path id="Trazado_635288" data-name="Trazado 635288" d="M-430.693,121.534c4.042,0,8.084.007,12.125-.006a1.393,1.393,0,0,1,1.538.933,1.307,1.307,0,0,1-.833,1.642,2.876,2.876,0,0,1-1.057.1q-11.769,0-23.537,0c-.208,0-.418.013-.624-.008a1.351,1.351,0,0,1-1.338-1.383A1.3,1.3,0,0,1-443,121.54c3.091-.014,6.182-.006,9.272-.006Z" transform="translate(454.253 -114.265)" fill="#040404"/>
    <path id="Trazado_635289" data-name="Trazado 635289" d="M-430.717,143.808c-4.042,0-8.085-.008-12.127.008a1.418,1.418,0,0,1-1.535-.951,1.331,1.331,0,0,1,1.108-1.707,5.414,5.414,0,0,1,.89-.027h23.363c.179,0,.357-.006.535,0a1.4,1.4,0,0,1,1.51,1.4A1.364,1.364,0,0,1-418.5,143.8c-2.824.009-5.647,0-8.471,0Z" transform="translate(454.271 -126.852)" fill="#030303"/>
    <path id="Trazado_635290" data-name="Trazado 635290" d="M-436.834,160.883c1.931,0,3.863-.006,5.795,0,1.092,0,1.649.448,1.667,1.294.019.875-.578,1.379-1.69,1.382q-5.839.011-11.678,0c-1.057,0-1.657-.49-1.68-1.314-.024-.85.6-1.358,1.7-1.362C-440.757,160.878-438.8,160.883-436.834,160.883Z" transform="translate(454.254 -139.54)" fill="#040404"/>
  </g>
</svg>
