<svg xmlns="http://www.w3.org/2000/svg" width="92" height="92" viewBox="0 0 92 92">
  <g id="Grupo_963291" data-name="Grupo 963291" transform="translate(-433.379 -963.556)">
    <g id="Grupo_963194" data-name="Grupo 963194" transform="translate(-1.621 -3377.444)">
      <circle id="Elipse_7706" data-name="Elipse 7706" cx="46" cy="46" r="46" transform="translate(435 4341)" fill="#583cb6"/>
    </g>
    <g id="Grupo_963281" data-name="Grupo 963281" transform="translate(782.646 1977.869)">
      <path id="Trazado_634967" data-name="Trazado 634967" d="M-327.995-902.864a19.236,19.236,0,0,1-19.211-19.076,19.224,19.224,0,0,1,19.145-19.305,19.2,19.2,0,0,1,19.2,19.155A19.2,19.2,0,0,1-327.995-902.864Zm-16.462-19.17a16.431,16.431,0,0,0,16.473,16.409,16.473,16.473,0,0,0,16.407-16.41,16.469,16.469,0,0,0-16.532-16.449A16.431,16.431,0,0,0-344.457-922.034Z" transform="translate(0 -46.76)" fill="#030303"/>
      <path id="Trazado_634968" data-name="Trazado 634968" d="M-181.069-1011.286q6.675,0,13.35,0a4.124,4.124,0,0,1,4.446,4.44q.006,5.183,0,10.366a4.117,4.117,0,0,1-4.348,4.382q-13.475.02-26.949,0a4.119,4.119,0,0,1-4.332-4.325q-.028-5.265,0-10.531a4.132,4.132,0,0,1,4.4-4.33Q-187.785-1011.293-181.069-1011.286Zm.047,16.429q6.593,0,13.185,0c1.37,0,1.81-.416,1.813-1.757q.011-5.1,0-10.2c0-1.25-.459-1.712-1.689-1.713q-13.351-.007-26.7,0c-1.294,0-1.719.443-1.72,1.757q0,5.059,0,10.118c0,1.389.421,1.8,1.846,1.8Z" transform="translate(-98.998)" fill="#060605"/>
      <path id="Trazado_634969" data-name="Trazado 634969" d="M-181.061-794.292q-6.675,0-13.35,0a4.162,4.162,0,0,1-4.485-4.5q-.009-5.1,0-10.2a4.163,4.163,0,0,1,4.5-4.491q13.309-.007,26.617,0c2.838,0,4.512,1.7,4.514,4.551q0,5.1,0,10.2a4.132,4.132,0,0,1-4.449,4.44Q-174.386-794.288-181.061-794.292Zm-.035-16.429h-13.185c-1.427,0-1.843.4-1.844,1.8q0,5.059,0,10.118c0,1.311.429,1.757,1.721,1.757q13.351.007,26.7,0c1.228,0,1.685-.466,1.688-1.715q.013-5.1,0-10.2c0-1.341-.441-1.754-1.814-1.754Q-174.461-810.723-181.1-810.721Z" transform="translate(-99.009 -132.051)" fill="#060605"/>
      <path id="Trazado_634970" data-name="Trazado 634970" d="M-181.089-860.232q-6.634,0-13.268,0a4.178,4.178,0,0,1-4.538-4.539q-.007-5.059,0-10.117a4.18,4.18,0,0,1,4.532-4.547q13.309,0,26.618,0a4.154,4.154,0,0,1,4.484,4.5q0,5.142,0,10.283a4.138,4.138,0,0,1-4.394,4.42Q-174.372-860.223-181.089-860.232Zm.079-16.431q-6.675,0-13.351,0c-1.351,0-1.762.418-1.763,1.79q0,5.017,0,10.034c0,1.428.4,1.834,1.8,1.834q13.268,0,26.535,0c1.347,0,1.77-.425,1.773-1.791q.009-5.017,0-10.034c0-1.426-.408-1.832-1.815-1.832Q-174.418-876.665-181.01-876.663Z" transform="translate(-99.011 -88.022)" fill="#060605"/>
      <path id="Trazado_634971" data-name="Trazado 634971" d="M-181.022-945.369q6.634,0,13.268,0a4.152,4.152,0,0,1,4.485,4.494q0,5.141,0,10.283a4.138,4.138,0,0,1-4.393,4.425q-13.434.012-26.867,0a4.146,4.146,0,0,1-4.371-4.374q-.021-5.224,0-10.449a4.147,4.147,0,0,1,4.445-4.378Q-187.739-945.376-181.022-945.369Zm-.083,2.771h-13.1c-1.551,0-1.925.365-1.926,1.878q0,5.017,0,10.034c0,1.312.429,1.745,1.725,1.745q13.309,0,26.617,0c1.339,0,1.767-.429,1.769-1.8q.008-5.017,0-10.034c0-1.422-.408-1.827-1.819-1.828Q-174.472-942.6-181.105-942.6Z" transform="translate(-99.002 -44.006)" fill="#060605"/>
      <path id="Trazado_634972" data-name="Trazado 634972" d="M-277.641-986.573c3.978,0,7.956.011,11.934-.013.609,0,.859.1.843.795-.046,1.953-.009,1.953-1.979,1.953h-22.127c-1.555,0-1.945.393-1.945,1.959,0,2.32-.016,4.641.011,6.961.006.527-.115.7-.675.7-2.1,0-2.1.019-2.1-2.09,0-1.961-.012-3.923,0-5.884a4.107,4.107,0,0,1,4.351-4.373C-285.431-986.593-281.536-986.573-277.641-986.573Z" transform="translate(-35.732 -16.491)" fill="#020202"/>
      <path id="Trazado_634973" data-name="Trazado 634973" d="M-277.668-805.288q-5.677,0-11.353,0c-3.074,0-4.683-1.626-4.685-4.713,0-2.293.026-4.586-.017-6.878-.012-.647.193-.77.793-.762,1.987.028,1.987,0,1.987,2.025q0,2.9,0,5.8c0,1.335.452,1.791,1.782,1.791,7.789,0,15.579.012,23.369-.017.725,0,.924.161.9.9-.059,1.856-.018,1.857-1.839,1.857Z" transform="translate(-35.705 -129.277)" fill="#020202"/>
      <path id="Trazado_634974" data-name="Trazado 634974" d="M-227.814-917.87c-1.158,0-2.316-.015-3.473.008-.428.009-.624-.057-.634-.568-.043-2.156-.063-2.156,2.1-2.156,1.819,0,3.638.014,5.457-.009.5-.006.721.064.719.658-.005,2.068.023,2.068-2.024,2.068Z" transform="translate(-76.957 -60.545)" fill="#020202"/>
      <path id="Trazado_634975" data-name="Trazado 634975" d="M-227.727-854.645c1.158,0,2.316.015,3.473-.008.426-.008.625.054.636.567.045,2.158.065,2.157-2.1,2.157-1.819,0-3.639-.026-5.457.015-.6.013-.722-.185-.717-.745.017-1.986,0-1.986,2.019-1.986Z" transform="translate(-76.982 -104.569)" fill="#020202"/>
      <path id="Trazado_634976" data-name="Trazado 634976" d="M-338.935-916.489a16.431,16.431,0,0,1,16.347-16.45,16.469,16.469,0,0,1,16.532,16.449,16.473,16.473,0,0,1-16.407,16.41A16.431,16.431,0,0,1-338.935-916.489Zm16.415,13.69a13.719,13.719,0,0,0,13.7-13.635,13.7,13.7,0,0,0-13.629-13.782,13.741,13.741,0,0,0-13.756,13.671A13.747,13.747,0,0,0-322.52-902.8Z" transform="translate(-5.522 -52.305)" fill="#c9cdd4"/>
      <path id="Trazado_634977" data-name="Trazado 634977" d="M-175.441-989.321h-13.268c-1.425,0-1.845-.407-1.846-1.8q0-5.059,0-10.118c0-1.314.426-1.756,1.72-1.757q13.351-.006,26.7,0c1.23,0,1.686.463,1.689,1.713q.013,5.1,0,10.2c0,1.341-.443,1.757-1.813,1.757Q-168.849-989.32-175.441-989.321Zm-2.783-2.193c.181-.173.34-.318.493-.471,1.951-1.95,3.909-3.893,5.847-5.857.479-.485,1.342-.906,1.3-1.5-.035-.5-.862-.931-1.291-1.432-.347-.4-.571-.414-.958-.016-1.635,1.68-3.312,3.32-4.96,4.987-.29.294-.479.444-.847.063-.444-.459-.851-1.3-1.412-1.214-.534.085-.961.84-1.435,1.3a.945.945,0,0,1-.118.116c-.351.238-.274.436,0,.7,1.009.98,1.995,1.984,2.991,2.977C-178.5-991.741-178.37-991.641-178.224-991.515Z" transform="translate(-104.579 -5.535)" fill="#f5d67e"/>
      <path id="Trazado_634978" data-name="Trazado 634978" d="M-175.526-805.166q6.634,0,13.268,0c1.373,0,1.811.413,1.814,1.754q.011,5.1,0,10.2c0,1.249-.46,1.714-1.688,1.715q-13.351.007-26.7,0c-1.292,0-1.72-.446-1.721-1.757q-.005-5.059,0-10.118c0-1.393.417-1.8,1.844-1.8Zm-4.53,5.942c-.1.086-.2.173-.3.269-.393.389-.764.8-1.18,1.165-.343.3-.382.5-.023.842.982.932,1.944,1.888,2.872,2.874.363.385.553.343.9-.014,1.936-1.972,3.9-3.916,5.853-5.873.487-.488,1.328-.978,1.343-1.487.018-.6-.909-1.015-1.362-1.567-.319-.389-.527-.293-.837.024-1.411,1.442-2.847,2.86-4.273,4.287-1.174,1.175-1.171,1.172-2.352.006C-179.6-798.887-179.748-799.136-180.056-799.224Z" transform="translate(-104.579 -137.606)" fill="#f5d67e"/>
      <path id="Trazado_634979" data-name="Trazado 634979" d="M-175.442-871.089q6.593,0,13.185,0c1.406,0,1.813.407,1.815,1.832q.007,5.017,0,10.034c0,1.366-.426,1.791-1.773,1.791q-13.268,0-26.535,0c-1.407,0-1.8-.406-1.8-1.834q0-5.017,0-10.034c0-1.371.413-1.789,1.763-1.79Q-182.117-871.092-175.442-871.089Zm12.274,6.841c0-1.371,0-1.371-1.38-1.371h-.083c-1.294,0-1.294,0-1.294,1.312,0,1.41,0,1.41,1.441,1.41C-163.167-862.9-163.167-862.9-163.167-864.249Zm-21.91.045c0-1.416,0-1.416-1.426-1.416h-.083c-1.263,0-1.263,0-1.263,1.256,0,1.463,0,1.463,1.477,1.463C-185.078-862.9-185.078-862.9-185.078-864.2Zm5.478-.04c0-1.376,0-1.376-1.38-1.376h-.083c-1.306,0-1.306,0-1.306,1.3,0,1.423,0,1.423,1.434,1.423C-179.6-862.9-179.6-862.9-179.6-864.243Zm4.173-1.376c-1.462,0-1.462,0-1.462,1.389,0,1.33,0,1.33,1.362,1.33,1.4,0,1.4,0,1.4-1.437C-174.122-865.619-174.122-865.619-175.427-865.619Zm6.782,1.431c0-1.431,0-1.431-1.4-1.431h-.083c-1.278,0-1.278,0-1.278,1.242,0,1.478,0,1.478,1.462,1.478C-168.645-862.9-168.645-862.9-168.645-864.188Z" transform="translate(-104.579 -93.596)" fill="#f4d57e"/>
      <path id="Trazado_634980" data-name="Trazado 634980" d="M-175.528-937.029q6.633,0,13.267,0c1.411,0,1.817.405,1.819,1.828q.007,5.017,0,10.034c0,1.366-.43,1.8-1.769,1.8q-13.309,0-26.617,0c-1.3,0-1.724-.434-1.725-1.745q-.005-5.017,0-10.034c0-1.513.375-1.878,1.926-1.878Zm-2.759,11.431c.271-.042.378-.256.526-.4q2.938-2.925,5.861-5.865c.479-.485,1.362-.922,1.3-1.492-.055-.539-.887-.98-1.326-1.507-.358-.43-.576-.3-.905.035-1.647,1.676-3.323,3.322-4.972,5-.306.311-.509.415-.85.036-.42-.468-.962-1.266-1.354-1.212-.531.072-.969.819-1.447,1.277a1.152,1.152,0,0,1-.119.116c-.359.253-.321.468-.01.768.995.959,1.961,1.948,2.939,2.924C-178.524-925.809-178.4-925.7-178.287-925.6Z" transform="translate(-104.579 -49.575)" fill="#f5d67e"/>
      <path id="Trazado_634981" data-name="Trazado 634981" d="M-317.038-897.331a13.747,13.747,0,0,1-13.686-13.746,13.741,13.741,0,0,1,13.756-13.671,13.7,13.7,0,0,1,13.629,13.782A13.719,13.719,0,0,1-317.038-897.331Zm.063-24.665a10.944,10.944,0,0,0-11,10.9,10.952,10.952,0,0,0,10.9,11,10.993,10.993,0,0,0,11.017-10.906A10.993,10.993,0,0,0-316.976-922Z" transform="translate(-11.004 -57.773)" fill="#030303"/>
      <path id="Trazado_634982" data-name="Trazado 634982" d="M-160.719-987.669c-.146-.127-.274-.226-.389-.34-1-.993-1.982-2-2.991-2.977-.276-.268-.353-.466,0-.7a.945.945,0,0,0,.118-.116c.474-.46.9-1.215,1.435-1.3.561-.09.968.755,1.412,1.214.368.381.556.231.847-.063,1.648-1.668,3.325-3.307,4.96-4.987.387-.4.612-.389.958.016.429.5,1.256.929,1.291,1.432.041.593-.822,1.014-1.3,1.5-1.938,1.963-3.9,3.907-5.847,5.857C-160.379-987.988-160.538-987.842-160.719-987.669Z" transform="translate(-122.084 -9.381)" fill="#060503"/>
      <path id="Trazado_634983" data-name="Trazado 634983" d="M-162.489-795.417c.308.088.454.337.645.525,1.181,1.166,1.178,1.169,2.352-.006,1.427-1.427,2.862-2.845,4.273-4.287.31-.317.518-.414.837-.024.452.552,1.379.966,1.362,1.567-.015.509-.857,1-1.343,1.487-1.952,1.957-3.917,3.9-5.853,5.873-.35.356-.541.4-.9.014-.928-.986-1.89-1.941-2.872-2.874-.358-.34-.319-.543.023-.842.416-.362.787-.776,1.18-1.165C-162.692-795.244-162.586-795.33-162.489-795.417Z" transform="translate(-122.146 -141.413)" fill="#050402"/>
      <path id="Trazado_634984" data-name="Trazado 634984" d="M-113.695-853.262c0,1.351,0,1.351-1.316,1.351-1.441,0-1.441,0-1.441-1.41,0-1.312,0-1.312,1.294-1.312h.083C-113.695-854.632-113.695-854.632-113.695-853.262Z" transform="translate(-154.051 -104.583)" fill="#070604"/>
      <path id="Trazado_634985" data-name="Trazado 634985" d="M-179.638-853.216c0,1.3,0,1.3-1.295,1.3-1.477,0-1.477,0-1.477-1.463,0-1.256,0-1.256,1.263-1.256h.083C-179.638-854.632-179.638-854.632-179.638-853.216Z" transform="translate(-110.019 -104.583)" fill="#070604"/>
      <path id="Trazado_634986" data-name="Trazado 634986" d="M-163.154-853.256c0,1.343,0,1.343-1.335,1.343-1.434,0-1.434,0-1.434-1.423,0-1.3,0-1.3,1.306-1.3h.083C-163.154-854.632-163.154-854.632-163.154-853.256Z" transform="translate(-121.025 -104.583)" fill="#070604"/>
      <path id="Trazado_634987" data-name="Trazado 634987" d="M-147.973-854.632c1.3,0,1.3,0,1.3,1.282,0,1.437,0,1.437-1.4,1.437-1.362,0-1.362,0-1.362-1.33C-149.435-854.632-149.435-854.632-147.973-854.632Z" transform="translate(-132.032 -104.583)" fill="#070604"/>
      <path id="Trazado_634988" data-name="Trazado 634988" d="M-130.184-853.2c0,1.288,0,1.288-1.3,1.288-1.462,0-1.462,0-1.462-1.478,0-1.242,0-1.242,1.278-1.242h.083C-130.184-854.632-130.184-854.632-130.184-853.2Z" transform="translate(-143.04 -104.583)" fill="#070604"/>
      <path id="Trazado_634989" data-name="Trazado 634989" d="M-160.75-921.8c-.113-.1-.237-.212-.352-.327-.978-.976-1.944-1.966-2.939-2.924-.311-.3-.349-.515.01-.768a1.154,1.154,0,0,0,.119-.116c.478-.458.916-1.2,1.447-1.277.392-.054.934.744,1.354,1.212.341.379.543.275.85-.036,1.649-1.674,3.325-3.32,4.972-5,.329-.335.547-.465.905-.035.438.527,1.271.968,1.326,1.507.058.57-.825,1.006-1.3,1.491q-2.913,2.95-5.861,5.865C-160.372-922.054-160.479-921.84-160.75-921.8Z" transform="translate(-122.116 -53.374)" fill="#060503"/>
      <path id="Trazado_634990" data-name="Trazado 634990" d="M-311.448-916.466a10.993,10.993,0,0,1,10.921,11,10.993,10.993,0,0,1-11.017,10.906,10.952,10.952,0,0,1-10.9-11A10.944,10.944,0,0,1-311.448-916.466Zm-5.512,10.957a5.461,5.461,0,0,0,5.468,5.472,5.505,5.505,0,0,0,5.482-5.479,5.5,5.5,0,0,0-5.489-5.471A5.458,5.458,0,0,0-316.959-905.509Z" transform="translate(-16.532 -63.302)" fill="#e3e6e9"/>
      <path id="Trazado_634991" data-name="Trazado 634991" d="M-305.945-894.505a5.458,5.458,0,0,1,5.461-5.478A5.5,5.5,0,0,1-295-894.512a5.505,5.505,0,0,1-5.482,5.479A5.461,5.461,0,0,1-305.945-894.505Zm5.445,2.72a2.712,2.712,0,0,0,2.744-2.706,2.709,2.709,0,0,0-2.71-2.74,2.739,2.739,0,0,0-2.759,2.705A2.74,2.74,0,0,0-300.5-891.785Z" transform="translate(-27.546 -74.307)" fill="#040303"/>
      <path id="Trazado_634992" data-name="Trazado 634992" d="M-295.035-886.258A2.74,2.74,0,0,1-297.759-889,2.739,2.739,0,0,1-295-891.705a2.709,2.709,0,0,1,2.71,2.74A2.712,2.712,0,0,1-295.035-886.258Z" transform="translate(-33.011 -79.833)" fill="#dd7884"/>
    </g>
  </g>
</svg>
