<svg xmlns="http://www.w3.org/2000/svg" width="42" height="42" viewBox="0 0 42 42">
  <g id="Grupo_957389" data-name="Grupo 957389" transform="translate(0 0.082)">
    <g id="Grupo_957386" data-name="Grupo 957386" transform="translate(4.128 4.12)">
      <path id="Trazado_632203" data-name="Trazado 632203" d="M94.626,631.676l-1.765,3.058h10a2.816,2.816,0,0,0,3.023-3.04c0-.77.006-1.54,0-2.31,0-.192.042-.253.246-.255.879-.011.889-.018.876.843a18.459,18.459,0,0,1-.055,2.55,3.877,3.877,0,0,1-3.855,3.328c-2.858.015-5.716,0-8.574,0h-1.6a4.354,4.354,0,0,0,.485.86,4.408,4.408,0,0,1,.73,2.613c-.022.629-.01,1.26,0,1.889,0,.176-.036.235-.228.24-.9.022-.9.029-.9-.862,0-.513,0-1.027,0-1.54a2.829,2.829,0,0,0-.413-1.495c-.366-.608-.721-1.223-1.1-1.823a.757.757,0,0,1-.01-.876c.812-1.385,1.613-2.777,2.415-4.169a1.087,1.087,0,0,0-.028-1.221,1.055,1.055,0,0,0-1.09-.474,1.153,1.153,0,0,0-.861.641c-.776,1.353-1.559,2.7-2.336,4.053-.143.249-.284.494-.621.483s-.467-.259-.592-.518a4.031,4.031,0,0,1-.4-1.789c0-2.472,0-4.945,0-7.434-.13.065-.144.189-.188.284-.7,1.519-1.4,3.04-2.105,4.56a5.447,5.447,0,0,0-.509,2.334c.007,3.161,0,6.322.009,9.483,0,.272-.035.38-.346.37-.779-.026-.78-.007-.78-.8,0-3,.007-6,0-8.993a6.727,6.727,0,0,1,.635-2.907q1.214-2.609,2.41-5.226a1.709,1.709,0,0,1,.733-.861c.184-.1.144-.243.144-.385,0-2.869-.005-5.739,0-8.608a16.723,16.723,0,0,1,.056-2.515,3.88,3.88,0,0,1,3.811-3.3c2.415-.02,4.829-.006,7.244-.005,1.365,0,2.73-.023,4.094.009a3.84,3.84,0,0,1,3.16,1.719c.124.173.127.268-.076.366-.23.111-.438.327-.672.355-.275.033-.324-.329-.5-.494a2.832,2.832,0,0,0-1.979-.832q-5.617-.008-11.233,0a2.769,2.769,0,0,0-2.784,2.779q-.012,10.078,0,20.156v.261c.144-.058.166-.168.214-.25.573-.986,1.134-1.979,1.716-2.959a2.214,2.214,0,0,1,2.319-1.086,2.25,2.25,0,0,1,1.81,1.812,2.939,2.939,0,0,1-.029,1.073c.614-.631,1.382-.508,2.122-.512.455,0,.91-.006,1.365,0a1.678,1.678,0,1,1,0,3.356c-.711.01-1.423,0-2.135,0a1.678,1.678,0,0,1-1.781-1.8v-.125Zm2.829.819c.36,0,.721,0,1.081,0a.566.566,0,0,0,.63-.552.559.559,0,0,0-.615-.566q-1.064-.01-2.128,0a.558.558,0,0,0-.612.568.566.566,0,0,0,.632.549C96.78,632.5,97.117,632.494,97.455,632.494Z" transform="translate(-84.047 -607.851)" fill="#12263f"/>
      <path id="Trazado_632204" data-name="Trazado 632204" d="M196.577,627.8a8.955,8.955,0,0,1,1.551,17.789,8.714,8.714,0,0,1-7.184-1.94.654.654,0,0,0-.6-.145c-1.039.2-2.081.4-3.122.594a.653.653,0,0,1-.754-.214.642.642,0,0,1,.071-.748c.559-.94,1.108-1.886,1.672-2.823a.5.5,0,0,0,.045-.482,8.952,8.952,0,0,1,7.081-11.94A6.505,6.505,0,0,1,196.577,627.8Zm-8.533,15c.854-.157,1.647-.282,2.43-.457a1.011,1.011,0,0,1,.982.263,7.658,7.658,0,0,0,6.067,1.943,7.837,7.837,0,1,0-8.139-4.919,1.068,1.068,0,0,1-.091,1.075C188.87,641.371,188.481,642.06,188.045,642.8Z" transform="translate(-172.024 -625)" fill="#12263f"/>
      <path id="Trazado_632205" data-name="Trazado 632205" d="M130.661,667.709a2.8,2.8,0,0,1-1.844-4.9,2.76,2.76,0,0,1,3.124-.393c.234.124.374.119.519-.084a.193.193,0,0,1,.025-.025c.653-.651.649-.648,1.267.059.106.121.089.183-.013.28-.227.218-.542.409-.639.677s.207.554.288.853A2.807,2.807,0,0,1,130.661,667.709Zm.753-4.306a1.67,1.67,0,1,0,.308,2.812,1.6,1.6,0,0,0,.444-2.02c-.358.363-.707.72-1.06,1.074-.595.6-.59.591-1.194-.013-.148-.148-.169-.228-.005-.381C130.408,664.406,130.891,663.918,131.414,663.4Z" transform="translate(-121.72 -654.255)" fill="#12263f"/>
      <path id="Trazado_632206" data-name="Trazado 632206" d="M166.121,624.963c-.665,0-1.329-.008-1.994,0-.2,0-.249-.052-.251-.25-.01-.875-.017-.875.846-.875,1.119,0,2.239.007,3.358-.006.227,0,.288.057.287.286-.005.84,0,.84-.846.84Z" transform="translate(-152.679 -621.596)" fill="#12263f"/>
      <path id="Trazado_632207" data-name="Trazado 632207" d="M176.8,672.889h-.28c-.926,0-.923,0-.844-.945.011-.134.044-.179.18-.177q.944.009,1.888,0c.136,0,.195.042.176.178a.183.183,0,0,0,0,.035c.045.909.045.909-.875.909Z" transform="translate(-162.801 -662.803)" fill="#12263f"/>
      <path id="Trazado_632208" data-name="Trazado 632208" d="M177.014,688.84c-.3,0-.607-.013-.909,0-.206.012-.244-.065-.246-.255-.009-.87-.015-.87.85-.87.385,0,.77.012,1.154,0,.206-.009.244.065.246.255.009.87.015.87-.85.87Z" transform="translate(-162.982 -676.515)" fill="#12263f"/>
      <path id="Trazado_632209" data-name="Trazado 632209" d="M149.076,624.455c0,.543,0,.543-.542.543-.578,0-.578,0-.578-.577,0-.543,0-.543.542-.543C149.076,623.878,149.076,623.878,149.076,624.455Z" transform="translate(-138.993 -621.63)" fill="#12263f"/>
      <path id="Trazado_632210" data-name="Trazado 632210" d="M227.794,654.6q0-1.643,0-3.287c0-.5.2-.7.7-.7.431,0,.863-.01,1.294,0,.193.006.265-.043.253-.247a2.87,2.87,0,0,1,.058-.833,2.238,2.238,0,0,1,4.413.392c.035.684.035.684.72.684.268,0,.536,0,.8,0,.527,0,.718.189.719.712q0,2.867,0,5.734c0,.291.007.583,0,.874a1.664,1.664,0,0,1-1.634,1.631q-2.832.022-5.665,0a1.663,1.663,0,0,1-1.655-1.681C227.787,656.791,227.795,655.7,227.794,654.6Zm4.474,1.613c1.037,0,2.075,0,3.113,0,.188,0,.258-.036.257-.243q-.015-1.993,0-3.987c0-.187-.032-.28-.242-.255-.286.033-.655-.12-.836.063-.136.139-.039.507-.046.773a.752.752,0,0,0,0,.1c.015.129-.028.173-.17.186-.942.085-.948.09-.946-.839,0-.218-.041-.3-.281-.292-.547.02-1.1.02-1.643,0-.252-.009-.334.044-.329.317.018.812,0,.8-.792.816-.254,0-.333-.048-.327-.318.017-.817,0-.809-.829-.814-.223,0-.291.05-.289.283q.018,1.958,0,3.917c0,.221.046.294.282.29C230.217,656.2,231.243,656.213,232.269,656.213Zm0,1.12c-1.036,0-2.072,0-3.108,0-.085,0-.2-.07-.252.1a.733.733,0,0,0,.761,1.021h5.168c.622,0,.771-.169.8-.778.015-.308-.091-.353-.367-.348C234.274,657.343,233.273,657.332,232.272,657.332Zm-.015-6.718h.559c.612,0,.612,0,.576-.611a1.125,1.125,0,0,0-1.529-.993,1.341,1.341,0,0,0-.71,1.52c.043.121.126.08.2.081C231.652,650.617,231.955,650.614,232.257,650.614Z" transform="translate(-207.633 -642.208)" fill="#12263f"/>
    </g>
    <rect id="Rectángulo_306999" data-name="Rectángulo 306999" width="42" height="42" transform="translate(0 -0.081)" fill="none"/>
  </g>
</svg>
