<svg xmlns="http://www.w3.org/2000/svg" width="85" height="85" viewBox="0 0 85 85">
  <g id="Grupo_957382" data-name="Grupo 957382" transform="translate(-180 -6099)">
    <rect id="Rectángulo_34178" data-name="Rectángulo 34178" width="85" height="85" transform="translate(180 6099)" fill="none"/>
    <g id="Grupo_957383" data-name="Grupo 957383" transform="translate(629.066 5851.702)">
      <path id="Trazado_632174" data-name="Trazado 632174" d="M-431.065,284.562a11.558,11.558,0,0,1-1.908-17.167,11.561,11.561,0,0,1,16.64-.5,11.585,11.585,0,0,1-1.376,17.663h2.348c2.055,0,4.11-.013,6.165.01.427,0,.54-.106.537-.535q-.028-4.846,0-9.693a.614.614,0,0,0-.386-.644,3.262,3.262,0,0,1-1.739-2.929c-.16-2.255.7-4.272,1.312-6.352.64-2.194,1.323-4.375,1.957-6.571.114-.4.253-.55.692-.549q12.856.022,25.712,0a.571.571,0,0,1,.67.493c1.033,3.553,2.121,7.091,3.125,10.652a6.7,6.7,0,0,1-.022,3.428,2.679,2.679,0,0,1-1.512,1.8.678.678,0,0,0-.432.748q.016,4.814,0,9.628c0,.355.034.5.469.546a5.191,5.191,0,0,1,4.779,5.226q.022,13.59,0,27.18a5.22,5.22,0,0,1-5.4,5.291q-15.71.01-31.419,0-11.315,0-22.629,0a5.263,5.263,0,0,1-5.627-5.6q0-13.263,0-26.525a5.26,5.26,0,0,1,5.609-5.612Zm24.566,2.1h-27.025a3.179,3.179,0,0,0-3.484,3.5q0,13.3,0,26.592a3.171,3.171,0,0,0,3.476,3.445h53.918a3.179,3.179,0,0,0,3.486-3.5q0-13.263,0-26.526a3.186,3.186,0,0,0-3.543-3.51Zm-27.361-11.578a9.459,9.459,0,0,0,9.366,9.48,9.46,9.46,0,0,0,9.527-9.386,9.456,9.456,0,0,0-9.367-9.479A9.454,9.454,0,0,0-433.86,275.081Zm46.175,9.481c1.946,0,3.892-.009,5.838.008.356,0,.482-.074.48-.459q-.024-4.781,0-9.562c0-.449-.173-.478-.532-.474-1.486.016-2.974-.006-4.46.012a3.251,3.251,0,0,1-2.093-.614.382.382,0,0,0-.558.007,3.307,3.307,0,0,1-2.1.608c-1.946-.016-3.892-.013-5.837,0a3.154,3.154,0,0,1-1.97-.588.419.419,0,0,0-.613-.009,3.181,3.181,0,0,1-2.032.6c-1.487-.016-2.974.017-4.46-.017-.472-.011-.568.129-.564.578.022,2.794.011,5.589.011,8.383,0,1.546,0,1.524,1.553,1.545.481.007.561-.148.556-.586-.022-2.358.007-4.716-.023-7.073-.007-.56.088-.765.72-.757,3.038.039,6.078.031,9.117.005.52,0,.7.083.689.655-.038,2.379,0,4.759-.027,7.138,0,.466.076.628.592.618C-391.49,284.54-389.587,284.562-387.685,284.562Zm-6.286-16.77c1.18,0,2.36-.016,3.54.009.412.009.569-.071.518-.529q-.412-3.738-.766-7.483c-.031-.324-.151-.388-.441-.387q-2.851.015-5.7,0c-.29,0-.411.061-.442.386q-.356,3.744-.763,7.483c-.05.458.105.538.518.529C-396.332,267.776-395.151,267.792-393.971,267.792Zm-14.33,0c2.642,0,5.2,0,7.756.006.319,0,.393-.119.421-.415q.361-3.746.76-7.489c.038-.354-.025-.5-.429-.5-1.859.02-3.717.013-5.576,0-.273,0-.443.052-.53.344C-406.684,262.4-407.48,265.046-408.3,267.792Zm24.559,0c1.181,0,2.362-.013,3.542.007.418.007.57-.034.418-.522q-1.149-3.681-2.222-7.385a.578.578,0,0,0-.682-.493c-1.793.019-3.586.029-5.379,0-.519-.01-.552.189-.506.61.264,2.429.518,4.859.743,7.292.037.4.149.513.543.5C-386.1,267.776-384.924,267.792-383.743,267.792Zm-15.45,10.482c-.9,0-1.793.013-2.689-.007-.346-.008-.5.056-.5.454q.032,2.685,0,5.37c0,.368.1.482.473.478,1.792-.019,3.585-.014,5.378,0,.317,0,.466-.05.462-.421q-.028-2.718,0-5.436c0-.34-.089-.454-.439-.445C-397.4,278.29-398.3,278.274-399.193,278.274Zm-5.243-8.385c-1.245,0-2.489-.006-3.734.007-.164,0-.39-.129-.494.163a1.372,1.372,0,0,0,1.345,1.924q2.751.006,5.5,0c1.265,0,1.554-.319,1.557-1.6,0-.4-.1-.518-.508-.509C-401.99,269.907-403.213,269.889-404.436,269.889Zm10.464,0c-1.246,0-2.492,0-3.738,0-.153,0-.349-.1-.454.13a1.387,1.387,0,0,0,1.241,1.959c1.858.009,3.716,0,5.575,0,1.307,0,1.594-.314,1.585-1.635,0-.369-.1-.477-.471-.47C-391.48,269.9-392.726,269.889-393.973,269.889Zm10.492,2.1h2.62c1.318,0,1.643-.359,1.591-1.691-.012-.3-.082-.413-.4-.411-2.533.012-5.066.005-7.6.009-.138,0-.3-.06-.393.131a1.388,1.388,0,0,0,1.17,1.958C-385.49,272-384.485,271.985-383.48,271.985Z" fill="#010101"/>
      <path id="Trazado_632175" data-name="Trazado 632175" d="M-400.6,369.151h26.828a3.186,3.186,0,0,1,3.543,3.51q0,13.263,0,26.526a3.179,3.179,0,0,1-3.486,3.5h-53.918a3.171,3.171,0,0,1-3.476-3.445q0-13.3,0-26.592a3.18,3.18,0,0,1,3.484-3.5Zm-.054,31.443h21.715a2.14,2.14,0,0,0,2.412-2.423q0-12.25,0-24.5a2.138,2.138,0,0,0-2.411-2.424h-43.429a2.158,2.158,0,0,0-2.445,2.455q0,12.184,0,24.368c0,1.75.769,2.523,2.509,2.523Zm28.326-14.6V382.2c0-1.529,0-1.506-1.5-1.533-.49-.008-.614.118-.609.608.026,2.789.013,5.578.013,8.367,0,1.543,0,1.526,1.568,1.531.427,0,.548-.112.541-.54C-372.342,389.085-372.326,387.538-372.326,385.99Zm-54.583-2.1v-1.632c0-1.628,0-1.614-1.64-1.585-.375.007-.472.117-.467.479.019,1.415.008,2.829.008,4.244,0,1.676,0,1.666,1.706,1.585.317-.015.405-.107.4-.413C-426.92,385.673-426.909,384.78-426.909,383.887Zm0,6.234c0-1.056,0-1.056-.715-1.057-1.385,0-1.385,0-1.385.779,0,1.317,0,1.317.78,1.318C-426.909,391.161-426.909,391.161-426.909,390.122Z" transform="translate(-5.901 -82.492)" fill="#aab1bb"/>
      <path id="Trazado_632176" data-name="Trazado 632176" d="M-419.11,298.674a9.454,9.454,0,0,1,9.526-9.385,9.456,9.456,0,0,1,9.367,9.479,9.46,9.46,0,0,1-9.527,9.386A9.459,9.459,0,0,1-419.11,298.674Zm5.248-3.335h0c0,.458-.013.917,0,1.375a3.15,3.15,0,0,0,3.074,3.052c.546.016,1.093,0,1.639,0,1.32,0,1.636.351,1.589,1.695-.01.305-.079.416-.4.409-.9-.021-1.792-.008-2.689-.008a.891.891,0,0,1-.956-.55c-.141-.534-.465-.524-.871-.5a6.367,6.367,0,0,1-.983,0c-.384-.039-.443.133-.382.453a2.634,2.634,0,0,0,1.77,2.327c1.32.3,1.549.981,1.356,2.1-.048.276.068.361.358.379,1.724.106,1.723.115,1.74-1.555a.747.747,0,0,0,0-.131c-.062-.361.115-.435.443-.426.765.021,1.531,0,2.3.012.3.007.427-.056.419-.39-.023-.982.021-1.966-.02-2.946a3.128,3.128,0,0,0-2.966-2.95c-.567-.027-1.137-.008-1.705-.008-1.355,0-1.649-.315-1.623-1.662.006-.334.079-.454.434-.443.874.026,1.749.013,2.623.007a.919.919,0,0,1,.976.523c.165.522.479.567.917.532a5.006,5.006,0,0,1,.917,0c.406.042.488-.127.41-.486a2.92,2.92,0,0,0-2.28-2.506c-.815-.162-.88-.536-.852-1.2.045-1.056.012-1.057-1.037-1.057s-1.051,0-1.051,1.055a4.492,4.492,0,0,0,0,.589c.052.389-.124.472-.48.46-.721-.025-1.443.013-2.164-.016-.382-.015-.559.06-.519.491C-413.829,294.419-413.862,294.881-413.862,295.339Z" transform="translate(-14.75 -23.593)" fill="#f3d57e"/>
      <path id="Trazado_632177" data-name="Trazado 632177" d="M-296.283,329.67c-1.9,0-3.8-.022-5.706.014-.516.01-.6-.152-.592-.618.024-2.379-.011-4.76.027-7.138.009-.572-.169-.66-.689-.655-3.039.026-6.078.034-9.117-.005-.632-.008-.727.2-.72.757.029,2.357,0,4.715.023,7.073,0,.438-.075.593-.556.586-1.553-.022-1.553,0-1.553-1.545,0-2.794.011-5.589-.011-8.383,0-.449.092-.589.564-.578,1.486.034,2.973,0,4.46.017a3.181,3.181,0,0,0,2.032-.6.419.419,0,0,1,.613.009,3.154,3.154,0,0,0,1.97.588c1.946-.012,3.892-.015,5.837,0a3.307,3.307,0,0,0,2.1-.608.382.382,0,0,1,.558-.007,3.251,3.251,0,0,0,2.092.614c1.486-.018,2.974,0,4.46-.012.359,0,.535.025.532.474q-.034,4.781,0,9.562c0,.385-.124.461-.48.459C-292.391,329.662-294.337,329.67-296.283,329.67Zm-.024-2.1c1.268,0,2.535-.011,3.8.008.339.005.442-.086.439-.433q-.026-2.717,0-5.434c0-.34-.087-.439-.434-.437q-3.77.022-7.54,0c-.339,0-.442.085-.439.433q.026,2.717,0,5.434c0,.339.087.443.434.438C-298.8,327.562-297.553,327.574-296.307,327.574Z" transform="translate(-91.402 -45.108)" fill="#e5e8eb"/>
      <path id="Trazado_632178" data-name="Trazado 632178" d="M-278.57,273.7c-1.18,0-2.36-.016-3.54.009-.413.009-.568-.071-.518-.529q.411-3.738.763-7.483c.031-.325.152-.388.442-.386q2.851.014,5.7,0c.291,0,.411.063.441.387q.358,3.744.766,7.483c.051.459-.106.538-.518.529C-276.209,273.684-277.39,273.7-278.57,273.7Z" transform="translate(-115.402 -5.907)" fill="#f4d57e"/>
      <path id="Trazado_632179" data-name="Trazado 632179" d="M-321.739,273.689c.822-2.746,1.618-5.394,2.4-8.045.087-.292.256-.345.53-.344,1.859.009,3.718.016,5.576,0,.4,0,.466.141.429.5q-.4,3.743-.76,7.489c-.029.3-.1.416-.421.415C-316.54,273.684-319.1,273.689-321.739,273.689Z" transform="translate(-86.563 -5.897)" fill="#e97559"/>
      <path id="Trazado_632180" data-name="Trazado 632180" d="M-241.784,273.677c-1.181,0-2.362-.016-3.542.009-.395.008-.506-.107-.543-.5-.225-2.433-.48-4.863-.743-7.292-.046-.422-.013-.62.506-.61,1.792.034,3.586.024,5.379,0a.578.578,0,0,1,.682.493q1.078,3.7,2.222,7.385c.152.488,0,.53-.418.522C-239.423,273.663-240.6,273.677-241.784,273.677Z" transform="translate(-141.959 -5.884)" fill="#e97559"/>
      <path id="Trazado_632181" data-name="Trazado 632181" d="M-295.988,337.184c.9,0,1.793.015,2.689-.008.35-.009.442.105.439.445q-.023,2.718,0,5.436c0,.371-.146.423-.462.421-1.793-.012-3.586-.016-5.378,0-.377,0-.477-.11-.473-.478q.027-2.685,0-5.37c0-.4.15-.462.5-.454C-297.781,337.2-296.884,337.184-295.988,337.184Z" transform="translate(-103.205 -58.909)" fill="#c79e7c"/>
      <path id="Trazado_632182" data-name="Trazado 632182" d="M-319.181,305.2c1.223,0,2.446.018,3.668-.01.408-.009.509.108.508.509,0,1.278-.292,1.6-1.557,1.6q-2.751,0-5.5,0a1.372,1.372,0,0,1-1.345-1.924c.1-.292.329-.161.494-.163C-321.671,305.2-320.426,305.2-319.181,305.2Z" transform="translate(-85.255 -35.315)" fill="#ed8773"/>
      <path id="Trazado_632183" data-name="Trazado 632183" d="M-279.281,305.217c1.246,0,2.492.014,3.738-.009.372-.007.468.1.471.47.009,1.321-.278,1.634-1.585,1.635-1.858,0-3.717.006-5.575,0a1.387,1.387,0,0,1-1.241-1.959c.1-.227.3-.129.454-.13C-281.774,305.213-280.528,305.217-279.281,305.217Z" transform="translate(-114.691 -35.328)" fill="#fae8ad"/>
      <path id="Trazado_632184" data-name="Trazado 632184" d="M-239.291,307.339c-1,0-2.009.012-3.013,0a1.388,1.388,0,0,1-1.17-1.958c.093-.191.256-.131.393-.131,2.533,0,5.066,0,7.6-.009.321,0,.391.107.4.411.052,1.332-.273,1.691-1.591,1.691Z" transform="translate(-144.189 -35.354)" fill="#ed8773"/>
      <path id="Trazado_632185" data-name="Trazado 632185" d="M-382.956,406.483h-21.649c-1.74,0-2.509-.774-2.509-2.523q0-12.184,0-24.368a2.158,2.158,0,0,1,2.445-2.455h43.429a2.138,2.138,0,0,1,2.411,2.424q0,12.249,0,24.5a2.141,2.141,0,0,1-2.412,2.424Zm-.013-2.1q10.691,0,21.382.014c.547,0,.675-.13.673-.674q-.029-11.919,0-23.838c0-.55-.138-.67-.677-.669q-21.382.024-42.763,0c-.547,0-.675.13-.673.674q.03,11.919,0,23.838c0,.55.138.671.677.67Q-393.66,404.37-382.97,404.387Z" transform="translate(-23.597 -88.381)"/>
      <path id="Trazado_632186" data-name="Trazado 632186" d="M-213.1,418.347c0,1.547-.016,3.094.01,4.641.007.429-.114.542-.541.54-1.568,0-1.568.012-1.568-1.531,0-2.789.013-5.578-.013-8.367,0-.49.119-.616.609-.608,1.5.026,1.5,0,1.5,1.533Z" transform="translate(-165.131 -114.848)"/>
      <path id="Trazado_632187" data-name="Trazado 632187" d="M-421.033,416.234c0,.892-.011,1.785.006,2.677.006.306-.083.4-.4.413-1.706.081-1.706.092-1.706-1.585,0-1.415.011-2.83-.008-4.244-.005-.362.092-.472.467-.479,1.64-.029,1.64-.042,1.64,1.585Z" transform="translate(-11.778 -114.839)"/>
      <path id="Trazado_632188" data-name="Trazado 632188" d="M-421.011,446.076c0,1.039,0,1.039-1.319,1.039-.78,0-.78,0-.78-1.318,0-.78,0-.78,1.385-.779C-421.011,445.02-421.011,445.02-421.011,446.076Z" transform="translate(-11.8 -138.446)"/>
      <path id="Trazado_632189" data-name="Trazado 632189" d="M-399.157,301.228c0-.458.033-.92-.009-1.374-.04-.432.138-.506.52-.491.72.028,1.443-.009,2.164.016.355.012.532-.071.48-.46a4.492,4.492,0,0,1,0-.589c0-1.055,0-1.055,1.051-1.055s1.081,0,1.037,1.057c-.028.662.036,1.036.851,1.2a2.92,2.92,0,0,1,2.28,2.506c.077.359,0,.528-.41.486a5,5,0,0,0-.917,0c-.438.035-.752-.009-.917-.532a.919.919,0,0,0-.976-.523c-.875.006-1.749.019-2.623-.007-.355-.01-.428.109-.434.443-.026,1.346.267,1.661,1.623,1.662.569,0,1.138-.019,1.705.008a3.128,3.128,0,0,1,2.966,2.95c.041.981,0,1.965.02,2.946.008.334-.122.4-.419.39-.765-.017-1.531.009-2.3-.012-.328-.009-.5.064-.443.426a.75.75,0,0,1,0,.131c-.017,1.671-.016,1.662-1.74,1.555-.29-.018-.406-.1-.358-.379.193-1.116-.036-1.8-1.356-2.1a2.634,2.634,0,0,1-1.77-2.327c-.06-.32,0-.492.382-.453a6.363,6.363,0,0,0,.983,0c.406-.022.729-.032.871.5a.891.891,0,0,0,.956.55c.9,0,1.793-.013,2.689.008.322.007.391-.1.4-.409.047-1.344-.269-1.694-1.589-1.695-.546,0-1.094.012-1.639,0a3.15,3.15,0,0,1-3.074-3.052c-.015-.458,0-.917,0-1.375Z" transform="translate(-29.454 -29.482)" fill="#010101"/>
      <path id="Trazado_632190" data-name="Trazado 632190" d="M-255.008,335.485c-1.246,0-2.492-.013-3.737.008-.347.006-.437-.1-.434-.438q.024-2.717,0-5.434c0-.347.1-.434.439-.433q3.77.02,7.54,0c.347,0,.437.1.434.437q-.024,2.717,0,5.434c0,.347-.1.438-.439.433C-252.473,335.474-253.741,335.485-255.008,335.485Zm0-2.1h.523c1.731,0,1.722,0,1.618-1.734-.017-.283-.089-.375-.374-.368-.741.017-1.482.006-2.224.006-1.731,0-1.722,0-1.618,1.734.017.282.088.378.374.368C-256.141,333.376-255.574,333.389-255.007,333.389Z" transform="translate(-132.701 -53.019)"/>
      <path id="Trazado_632191" data-name="Trazado 632191" d="M-377.11,410.239q-10.691,0-21.382.013c-.54,0-.679-.119-.677-.67q.03-11.919,0-23.838c0-.544.127-.674.673-.673q21.382.025,42.763,0c.54,0,.679.119.677.669q-.03,11.919,0,23.838c0,.544-.127.675-.673.674Q-366.419,410.222-377.11,410.239Zm-7.495-6.264h6.585c-.026.155-.044.284-.07.41a3.117,3.117,0,0,0,1.871,3.509,3.137,3.137,0,0,0,3.818-1.147,2.912,2.912,0,0,0-.42-3.92,1.443,1.443,0,0,1-.5-2.045,4.059,4.059,0,0,0,.221-.75c.462-1.959,1.353-3.822,1.248-5.912-.028-.551-.15-.667-.684-.664-4.917.022-9.834,0-14.751.026-.51,0-.67-.156-.72-.636-.1-.975-.258-1.944-.4-2.915a3.166,3.166,0,0,0-3.165-2.749c-.743-.009-1.486-.007-2.229,0a3.162,3.162,0,0,0-3.259,3.131,3.156,3.156,0,0,0,3.235,3.155c1.115.01,2.229.014,3.344-.005.348-.006.477.08.527.455q.5,3.727,1.063,7.444c.074.479.052.75-.427,1.035a3.037,3.037,0,0,0-1.3,3.531,3.18,3.18,0,0,0,3.136,2.213,3.171,3.171,0,0,0,2.927-2.4A3.814,3.814,0,0,0-384.6,403.976Zm21.091-4.218c1.923,0,3.846-.013,5.769.01.437.005.592-.074.59-.556q-.033-5.727,0-11.455c0-.435-.074-.591-.556-.588q-5.736.033-11.472,0c-.436,0-.592.074-.589.556q.033,5.727,0,11.455c0,.524.17.592.627.586C-367.273,399.744-365.393,399.758-363.514,399.758Zm-4.15,5.239v1.569c0,1.625,0,1.612,1.637,1.587.369-.006.476-.1.471-.472-.021-1.416-.008-2.832-.008-4.248,0-1.669,0-1.659-1.7-1.586-.311.013-.41.092-.4.406C-367.653,403.166-367.665,404.082-367.665,405Zm6.3,0V403.43c0-1.623,0-1.61-1.639-1.586-.372.006-.474.109-.468.475.02,1.416.008,2.832.008,4.248,0,1.669,0,1.659,1.7,1.584.314-.014.407-.1.4-.408C-361.379,406.829-361.367,405.914-361.367,405Zm2.1-.066v1.634c0,1.624,0,1.611,1.638,1.586.371-.005.475-.107.469-.474-.02-1.416-.008-2.832-.008-4.248,0-1.669,0-1.659-1.7-1.585-.313.014-.408.1-.4.408C-359.255,403.146-359.267,404.039-359.267,404.932Z" transform="translate(-29.457 -94.233)" fill="#83d3ef"/>
      <path id="Trazado_632192" data-name="Trazado 632192" d="M-249.216,339.284c-.567,0-1.134-.013-1.7.006-.286.01-.357-.086-.374-.368-.1-1.734-.113-1.734,1.618-1.734.742,0,1.483.011,2.224-.006.285-.007.357.086.374.368.1,1.734.113,1.734-1.618,1.734Z" transform="translate(-138.492 -58.914)" fill="#83d3ef"/>
      <path id="Trazado_632193" data-name="Trazado 632193" d="M-378.664,409.89a3.815,3.815,0,0,1,.05,1.768,3.171,3.171,0,0,1-2.927,2.4,3.18,3.18,0,0,1-3.136-2.213,3.037,3.037,0,0,1,1.3-3.531c.48-.285.5-.556.427-1.035q-.572-3.716-1.063-7.444c-.05-.375-.178-.461-.526-.455-1.114.019-2.229.015-3.344.005a3.156,3.156,0,0,1-3.235-3.155,3.162,3.162,0,0,1,3.259-3.131c.743-.006,1.486-.009,2.229,0a3.166,3.166,0,0,1,3.165,2.749c.141.97.3,1.94.4,2.915.05.48.211.639.72.636,4.917-.022,9.834,0,14.751-.026.534,0,.656.113.684.664.105,2.09-.786,3.953-1.248,5.912a4.062,4.062,0,0,1-.221.75,1.444,1.444,0,0,0,.5,2.045,2.912,2.912,0,0,1,.42,3.92,3.137,3.137,0,0,1-3.818,1.147,3.117,3.117,0,0,1-1.871-3.509c.026-.127.044-.255.07-.41Zm3.748-8.41c-2.075,0-4.15,0-6.224.006-.208,0-.556-.166-.478.34.28,1.83.537,3.663.788,5.5.047.344.181.455.539.453q4.979-.023,9.959,0c.393,0,.517-.15.611-.488.49-1.761.989-3.52,1.511-5.271.13-.436.052-.555-.416-.55C-370.723,401.493-372.819,401.48-374.916,401.48Zm-11.451-4.193c.523,0,1.047,0,1.57,0,.134,0,.3.071.377-.139a1.552,1.552,0,0,0-1.295-1.95c-.741-.014-1.484-.018-2.224,0a1.038,1.038,0,0,0-1.071,1.009,1.042,1.042,0,0,0,1.073,1.074C-387.415,397.3-386.89,397.286-386.367,397.287Zm4.674,12.579a1.054,1.054,0,0,0-1.023,1.054,1.056,1.056,0,0,0,1.039,1.039,1.057,1.057,0,0,0,1.056-1.087A1.056,1.056,0,0,0-381.693,409.867Zm12.645,0a1.056,1.056,0,0,0-1.072,1.005,1.058,1.058,0,0,0,.99,1.087,1.058,1.058,0,0,0,1.105-1.038A1.056,1.056,0,0,0-369.047,409.867Z" transform="translate(-35.397 -100.148)" fill="#010102"/>
      <path id="Trazado_632194" data-name="Trazado 632194" d="M-280.933,405.652c-1.879,0-3.758-.014-5.638.01-.457.006-.63-.062-.627-.586q.04-5.727,0-11.455c0-.482.153-.557.589-.556q5.736.026,11.472,0c.482,0,.558.153.556.588q-.026,5.727,0,11.455c0,.482-.153.561-.59.556C-277.087,405.639-279.01,405.652-280.933,405.652Zm.048-10.481c-1.246,0-2.492.014-3.737-.009-.372-.007-.471.1-.469.47q.024,3.732,0,7.464c0,.37.1.471.47.468q3.738-.024,7.475,0c.371,0,.471-.1.469-.469q-.024-3.732,0-7.464c0-.37-.1-.475-.47-.469C-278.393,395.185-279.639,395.171-280.885,395.171Z" transform="translate(-112.038 -100.128)"/>
      <path id="Trazado_632195" data-name="Trazado 632195" d="M-279.163,452.063c0-.915.012-1.83-.007-2.745-.007-.314.092-.392.4-.406,1.7-.073,1.7-.083,1.7,1.586,0,1.416-.012,2.832.008,4.248.005.37-.1.467-.471.472-1.637.024-1.637.037-1.637-1.588Z" transform="translate(-117.958 -141.3)"/>
      <path id="Trazado_632196" data-name="Trazado 632196" d="M-261.072,452.113c0,.915-.012,1.83.007,2.745.006.311-.087.395-.4.408-1.705.075-1.7.085-1.7-1.584,0-1.416.012-2.832-.008-4.248-.005-.366.1-.469.468-.475,1.639-.025,1.639-.038,1.639,1.586Z" transform="translate(-129.751 -141.347)"/>
      <path id="Trazado_632197" data-name="Trazado 632197" d="M-247.171,452c0-.893.012-1.787-.007-2.679-.007-.312.089-.394.4-.408,1.7-.074,1.7-.084,1.7,1.585,0,1.416-.012,2.832.008,4.248.005.367-.1.468-.469.474-1.638.024-1.638.038-1.638-1.586Z" transform="translate(-141.553 -141.298)"/>
      <path id="Trazado_632198" data-name="Trazado 632198" d="M-348.265,425c2.1,0,4.193.013,6.289-.01.468-.005.546.114.416.55-.522,1.752-1.022,3.51-1.511,5.271-.094.338-.217.49-.611.488q-4.979-.028-9.959,0c-.358,0-.492-.109-.539-.453-.251-1.834-.508-3.668-.788-5.5-.078-.506.27-.339.478-.34C-352.415,425-350.34,425-348.265,425Z" transform="translate(-62.048 -123.667)" fill="#ed8773"/>
      <path id="Trazado_632199" data-name="Trazado 632199" d="M-380.458,403.167c-.524,0-1.048.016-1.57-.005a1.042,1.042,0,0,1-1.073-1.074,1.038,1.038,0,0,1,1.071-1.009c.741-.022,1.483-.017,2.225,0a1.552,1.552,0,0,1,1.295,1.95c-.077.209-.243.137-.377.139C-379.411,403.173-379.935,403.168-380.458,403.167Z" transform="translate(-41.306 -106.029)" fill="#aab1bb"/>
      <path id="Trazado_632200" data-name="Trazado 632200" d="M-358.095,457a1.056,1.056,0,0,1,1.072,1.006,1.057,1.057,0,0,1-1.056,1.087,1.056,1.056,0,0,1-1.039-1.039A1.054,1.054,0,0,1-358.095,457Z" transform="translate(-58.995 -147.284)" fill="#a2a9b2"/>
      <path id="Trazado_632201" data-name="Trazado 632201" d="M-310.06,457a1.056,1.056,0,0,1,1.023,1.055,1.058,1.058,0,0,1-1.105,1.038,1.058,1.058,0,0,1-.99-1.087A1.056,1.056,0,0,1-310.06,457Z" transform="translate(-94.385 -147.284)" fill="#a2a9b2"/>
      <path id="Trazado_632202" data-name="Trazado 632202" d="M-274.97,401.07c1.246,0,2.492.014,3.737-.009.37-.007.472.1.47.469q-.024,3.732,0,7.464c0,.369-.1.472-.469.469q-3.737-.024-7.475,0c-.37,0-.472-.1-.47-.468q.024-3.732,0-7.464c0-.369.1-.476.469-.47C-277.462,401.084-276.216,401.07-274.97,401.07Z" transform="translate(-117.953 -106.026)" fill="#e5e8eb"/>
    </g>
  </g>
</svg>
