<svg xmlns="http://www.w3.org/2000/svg" width="73" height="73" viewBox="0 0 73 73">
  <g id="Grupo_957405" data-name="Grupo 957405" transform="translate(-202 -7053)">
    <rect id="Rectángulo_307000" data-name="Rectángulo 307000" width="73" height="73" transform="translate(202 7053)" fill="none"/>
    <g id="Grupo_957406" data-name="Grupo 957406" transform="translate(-221.076 6038.289)">
      <path id="Trazado_632329" data-name="Trazado 632329" d="M438.9,1053.145c.311-.835.62-1.012,1.462-.833a5.046,5.046,0,0,1,4.1,5.02c.015,2.972,0,5.944.006,8.917a6.515,6.515,0,0,1-2.161,4.993,3.521,3.521,0,0,0-.287,2.187c.1.142.263.134.4.182.872.3,1.753.58,2.616.906a.578.578,0,0,0,.732-.156,4.35,4.35,0,0,1,1.81-1.074c2.215-.752,4.421-1.531,6.641-2.271a.612.612,0,0,0,.5-.673,3.171,3.171,0,0,0-.979-2.788,6.063,6.063,0,0,1-1.793-4.5c0-.5-.154-.643-.627-.591a8.166,8.166,0,0,1-1.1.005,2.8,2.8,0,0,1-2.785-2.8c-.007-.344,0-.689,0-1.034a2.826,2.826,0,0,1,2.549-3.1c.54-.095.573-.313.572-.74a18.47,18.47,0,0,1,.053-2.774,6.368,6.368,0,0,1,4.866-5.436,4.453,4.453,0,0,1-.88-2.8c0-.23-.156-.212-.308-.214a4.791,4.791,0,0,1-.838-.024.963.963,0,0,1,.089-1.914c.338-.038.838.162.98-.091.2-.355.008-.837-.107-1.253a5.335,5.335,0,0,0-1.815-2.677,10.746,10.746,0,0,1-4-8.652,11,11,0,0,1,21.624-2.673c.205.783.075,1.062-.669,1.435a1.057,1.057,0,0,1-1.2-.92,8.477,8.477,0,0,0-.722-1.857c-1.976-3.837-6.773-5.861-10.624-4.478l-.17.063.009-.008a9.125,9.125,0,0,0-6.306,8.068,8.95,8.95,0,0,0,3.373,7.6,7.235,7.235,0,0,1,2.525,4.158c.093.427-.2,1.054.329,1.252a4.094,4.094,0,0,0,1.406.011c.424.115.45-.136.45-.459-.005-3.94,0-7.881-.007-11.821,0-.764-.407-1.233-1.018-1.243-.627-.01-1.039.482-1.053,1.278-.011.581.01,1.163-.012,1.744a.958.958,0,1,1-1.916.04,15.636,15.636,0,0,1,.036-2.386,2.928,2.928,0,0,1,4.524-2.129.626.626,0,0,0,.824,0,2.929,2.929,0,0,1,4.528,2.122,16.9,16.9,0,0,1,.049,2.193c-.009.734-.358,1.128-.954,1.138-.623.01-.962-.39-.981-1.17-.015-.645.015-1.294-.043-1.935a.926.926,0,0,0-1.011-.886.953.953,0,0,0-1,.9,5.035,5.035,0,0,0-.024.644q0,5.232,0,10.465c0,1.572,0,1.56,1.608,1.531.355-.007.48-.1.5-.464a6.722,6.722,0,0,1,2.6-4.992,8.9,8.9,0,0,0,3.161-5.11c.148-.679.481-1.088,1.218-1.068.744.4.862.643.69,1.442a10.721,10.721,0,0,1-3.751,6.158,5.159,5.159,0,0,0-1.982,3.561c-.038.37.063.515.44.468a3.152,3.152,0,0,1,.581,0,.934.934,0,0,1,.962.921.971.971,0,0,1-.884,1.01c-.368.059-.857-.189-1.079.136-.18.263-.08.71-.126,1.072a4.87,4.87,0,0,1-.782,1.826,6.352,6.352,0,0,1,4.735,4.748,13.68,13.68,0,0,1,.164,3.538c0,.427.1.554.54.633a2.857,2.857,0,0,1,2.582,3.145,6.424,6.424,0,0,1-.084,1.67,2.78,2.78,0,0,1-2.661,2.138c-.538.016-1.193-.171-1.582.074-.419.264-.15.987-.252,1.5a7.194,7.194,0,0,1-2.258,4.1,1.106,1.106,0,0,0-.435.992c.041.556-.164,1.257.1,1.632s.988.426,1.514.607q2.679.923,5.361,1.837a4.679,4.679,0,0,1,1.983,1.16.549.549,0,0,0,.681.156c.886-.326,1.778-.64,2.68-.919a.5.5,0,0,0,.414-.6,8.436,8.436,0,0,1,0-1.1.754.754,0,0,0-.3-.658,6.471,6.471,0,0,1-2.193-5.039c.013-2.907,0-5.815,0-8.722a5.053,5.053,0,0,1,5.279-5.278q1.712-.005,3.425,0a4.9,4.9,0,0,1,5.164,4.631,92.382,92.382,0,0,1-.025,10.393,5.88,5.88,0,0,1-2.009,3.93,3.209,3.209,0,0,0-.4,2.214c.1.169.291.167.45.222l5.114,1.762c.821.283.968.489.969,1.365q0,3.133,0,6.267c0,.965-.317,1.289-1.263,1.29q-3.683,0-7.366,0c-.812,0-1.058-.2-1.254-.991a1.076,1.076,0,0,1,1.231-.954c2.043.017,4.087-.012,6.13.019.5.008.6-.14.593-.61-.032-1.4-.026-2.8,0-4.193a.551.551,0,0,0-.453-.635c-1.428-.465-2.854-.939-4.265-1.455a.607.607,0,0,0-.84.283c-.783,1.1-1.6,2.188-2.4,3.281-.837,1.14-1.4,1.147-2.226.033q-.9-1.213-1.815-2.42c-.245-.352-.5-.7-.73-1.059a.4.4,0,0,0-.545-.178q-1.244.443-2.5.862c-.192.064-.294.152-.251.37a22.454,22.454,0,0,1,.119,3.99c.029,1.791.007,1.792,1.8,1.7.872.007,1.744.036,2.615.013a1.1,1.1,0,0,1,1.284.952c-.21.8-.446.994-1.254.994q-25.789,0-51.579,0c-.882,0-1.224-.334-1.226-1.2,0-2.154.012-4.309-.01-6.463a1.154,1.154,0,0,1,.887-1.243c1.691-.563,3.373-1.154,5.068-1.7a.766.766,0,0,0,.63-.852,2.4,2.4,0,0,0-.767-2.031,5.792,5.792,0,0,1-1.766-4.3c-.029-3.059-.037-6.118,0-9.177a5.07,5.07,0,0,1,4.689-5.09c.882-.041,1.154.131,1.465.929-.151.774-.721.981-1.4,1.039a3.055,3.055,0,0,0-2.719,2.363,8.194,8.194,0,0,0-.106,1.922c-.006,1.656,0,1.656,1.658,1.517a1.985,1.985,0,0,0,1.484-.668c.383-.377.739-.781,1.107-1.174,1.216-1.3,1.618-1.246,2.507.288,1.066,1.838.6,1.558,2.789,1.6.454.009.537-.178.523-.569-.023-.666,0-1.334-.007-2a3.116,3.116,0,0,0-2.6-3.277A1.1,1.1,0,0,1,438.9,1053.145Zm39.428,6.847a1.865,1.865,0,0,0,1.057-.43,9.478,9.478,0,0,0,2.086-2c.51-.607,1.017-.556,1.444.112a2.949,2.949,0,0,1,.256.52c.536,1.381,1.441,2.157,3.013,1.853a.224.224,0,0,1,.065,0c.322.032.471-.09.464-.436-.018-.8.033-1.6-.019-2.389a3.082,3.082,0,0,0-2.81-3.028c-1.461-.056-2.926,0-4.389.01a3.067,3.067,0,0,0-2.719,2.2,7.21,7.21,0,0,0-.124,2.112C476.633,1060.175,476.643,1060.175,478.324,1059.992Zm-20.806-11.561a4.384,4.384,0,0,0-4.956,3.646,22.215,22.215,0,0,0-.086,3.019c-.013.3.145.362.4.357.858-.016,1.716-.024,2.574-.034a3.5,3.5,0,0,0,2.735-.9,8.86,8.86,0,0,0,1.978-2.688c.253-.492.538-.909,1.161-.826.589.078.754.519.882,1.043a4.243,4.243,0,0,0,3.9,3.392c.4.043.6-.018.579-.488-.034-.752.009-1.508-.015-2.261a4.286,4.286,0,0,0-3.74-4.205A35.715,35.715,0,0,0,457.518,1048.431Zm-23.681,27.2c-.1-.309-.3-.3-.559-.207q-2.247.775-4.5,1.534a.445.445,0,0,0-.362.5q.027,2.253,0,4.507c0,.316.1.4.405.393.858-.023,1.716-.019,2.574-.026,4.089.007,8.179,0,12.268.035.562,0,.648-.174.655-.686a33.71,33.71,0,0,1,.113-5.024c.053-.323-.15-.345-.356-.414-.753-.252-1.515-.483-2.25-.781-.387-.157-.569-.048-.789.262-.823,1.156-1.671,2.3-2.514,3.437-.729.986-1.336.979-2.071-.011Q435.146,1077.392,433.837,1075.634Zm2.218-4.892a1.665,1.665,0,0,0,.808.182c2.452.277,5.8-1.02,5.66-4.872-.041-1.118-.042-2.241.009-3.359.026-.571-.13-.752-.7-.694-1.772.18-3.245-.277-4.046-2.14a5.445,5.445,0,0,1-3.678,2.172c-.407-.008-.813-.009-1.219-.025-.278-.011-.438.051-.434.384.019,1.457-.052,2.92.044,4.372A4.212,4.212,0,0,0,436.055,1070.742Zm44.21,0a1.581,1.581,0,0,0,.74.195,4.727,4.727,0,0,0,5.694-4.825c0-.84,0-1.68,0-2.52,0-1.57,0-1.595-1.553-1.576a3.194,3.194,0,0,1-2.973-1.7c-.071-.12-.078-.3-.261-.341-1.538,1.494-1.856,1.675-3.6,2.053-.407-.006-.816.009-1.221-.026-.387-.034-.457.138-.452.481.017,1.353-.013,2.706.016,4.059A4.477,4.477,0,0,0,480.265,1070.741Zm-22.494-2.981a6.043,6.043,0,0,0,3.428.1,4.936,4.936,0,0,0,4.091-5c.025-1.678-.005-3.358.014-5.036,0-.377-.1-.507-.489-.567a5.026,5.026,0,0,1-2.425-1.13,5.93,5.93,0,0,1-1.465-1.879,6,6,0,0,1-5.481,3.166c-.407-.01-.816-.009-1.222-.034-.287-.018-.368.1-.365.372.017,1.914-.038,3.83.048,5.74A4.768,4.768,0,0,0,457.771,1067.76Zm-2.206,5.161c-.1-.292-.295-.222-.516-.145-2.348.811-4.707,1.592-7.046,2.43a2.5,2.5,0,0,0-1.745,2.458c-.03,1.417,0,2.835-.017,4.252,0,.319.063.459.42.447.858-.031,1.717-.021,2.576-.028q11.627.01,23.254.027c.346,0,.433-.1.428-.437-.017-1.313,0-2.627-.008-3.94a2.712,2.712,0,0,0-2.064-2.9c-2.211-.768-4.43-1.513-6.639-2.286a.616.616,0,0,0-.773.185c-1.022,1.108-2.067,2.194-3.11,3.282-.653.68-1.152.669-1.785-.032Q457.047,1074.581,455.565,1072.921Zm1.07-2.462a1.272,1.272,0,0,0,.264,1.016c.752.8,1.477,1.624,2.185,2.462.278.329.445.407.77.032a25.69,25.69,0,0,1,2.048-2.148,1.942,1.942,0,0,0,.635-1.717c-.025-.387-.106-.475-.489-.371a9.832,9.832,0,0,1-4.662.083C456.633,1069.657,456.633,1069.655,456.635,1070.459Zm-21.656,2.759a1.391,1.391,0,0,0,.165.879q1.066,1.419,2.1,2.863c.2.272.309.276.506,0,.609-.86,1.223-1.718,1.873-2.547a1.921,1.921,0,0,0,.422-1.3c-.008-.425-.115-.513-.525-.409a8.254,8.254,0,0,1-3.839.049C435.107,1072.619,434.858,1072.657,434.98,1073.218Zm24.65-29.649v0c-.9,0-1.8.012-2.706-.006-.313-.006-.4.1-.4.4a2.146,2.146,0,0,0,2.138,2.192c.6.014,1.2.014,1.8,0a2.149,2.149,0,0,0,2.166-2.167c.011-.338-.086-.446-.428-.437C461.349,1043.583,460.489,1043.568,459.63,1043.568Zm24.547,29.811c0-.753,0-.782-.353-.7a9.264,9.264,0,0,1-4.346-.009c-.142-.034-.341-.083-.334.15.013.438-.127.889.191,1.3q1.058,1.384,2.06,2.81c.217.308.333.293.543,0q.951-1.343,1.947-2.653A1.154,1.154,0,0,0,484.177,1073.379ZM469.789,1059c0-.258.017-.518,0-.775a.782.782,0,0,0-.7-.8,3.408,3.408,0,0,0-1.71.054c-.382.2-.076.909-.138,1.387a1.022,1.022,0,0,0,0,.129c0,1.722,0,1.72,1.715,1.541a.848.848,0,0,0,.832-.825A6.41,6.41,0,0,0,469.789,1059Zm-17.868-.032c0-.409,0-.818,0-1.227,0-.186-.015-.353-.261-.348a9.254,9.254,0,0,0-1.673.055c-.595.123-.671.666-.619,1.19.066.663-.317,1.539.615,1.839a2.56,2.56,0,0,0,1.83-.032c.313-.157.066-.839.107-1.283A1.934,1.934,0,0,0,451.921,1058.964Z" transform="translate(0 0)" fill="#030303"/>
      <path id="Trazado_632330" data-name="Trazado 632330" d="M530.534,1025.91c3.852-1.383,8.649.641,10.624,4.478a8.477,8.477,0,0,1,.722,1.857,1.057,1.057,0,0,0,1.2.92,10.248,10.248,0,0,1,.1,2.285c-.737-.021-1.071.388-1.218,1.067a8.9,8.9,0,0,1-3.161,5.11,6.722,6.722,0,0,0-2.6,4.992c-.021.364-.146.458-.5.464-1.609.03-1.608.041-1.608-1.531q0-5.232,0-10.465a5.036,5.036,0,0,1,.024-.644.953.953,0,0,1,1-.9.926.926,0,0,1,1.011.886c.057.641.028,1.29.043,1.935.018.779.358,1.18.981,1.17.6-.01.946-.4.954-1.138a16.917,16.917,0,0,0-.049-2.193,2.929,2.929,0,0,0-4.528-2.122.626.626,0,0,1-.824,0,2.927,2.927,0,0,0-4.524,2.129,15.645,15.645,0,0,0-.036,2.386.958.958,0,1,0,1.916-.04c.021-.581,0-1.163.012-1.744.015-.8.426-1.288,1.053-1.278.611.01,1.016.479,1.018,1.243.007,3.94,0,7.881.007,11.821,0,.323-.025.574-.45.459a6.014,6.014,0,0,0-2.346-4.73,9.543,9.543,0,0,1-1.523-1.572,10.07,10.07,0,0,1,1.535-13.914c.338-.285.776-.46,1.008-.869l-.009.008Z" transform="translate(-73.539 -5.446)" fill="#f8df85"/>
      <path id="Trazado_632331" data-name="Trazado 632331" d="M622.264,1240.531q.908,1.21,1.815,2.42c.83,1.114,1.389,1.107,2.226-.033.8-1.092,1.614-2.176,2.4-3.281a.607.607,0,0,1,.84-.283c1.41.516,2.837.99,4.265,1.455a.551.551,0,0,1,.453.635c-.025,1.4-.03,2.8,0,4.193.011.47-.1.618-.593.61-2.043-.031-4.087,0-6.13-.019a1.076,1.076,0,0,0-1.231.954l-2.246,0a1.1,1.1,0,0,0-1.284-.952c-.871.023-1.743-.006-2.615-.013,0-.942-.012-1.885,0-2.827A3.209,3.209,0,0,1,622.264,1240.531Z" transform="translate(-143.516 -163.88)" fill="#ea6d72"/>
      <path id="Trazado_632332" data-name="Trazado 632332" d="M460.716,1153.336a1.1,1.1,0,0,0,1.014,1.059,3.116,3.116,0,0,1,2.6,3.277c0,.667-.016,1.335.007,2,.014.391-.069.578-.523.569-2.186-.044-1.723.236-2.789-1.6-.889-1.534-1.291-1.589-2.507-.288-.367.393-.724.8-1.107,1.173a1.984,1.984,0,0,1-1.484.668,27.316,27.316,0,0,1,.116-3.707,10.239,10.239,0,0,1,1.052-2.095c.681-.057,1.252-.265,1.4-1.039Z" transform="translate(-21.82 -100.191)" fill="#69738a"/>
      <path id="Trazado_632333" data-name="Trazado 632333" d="M480.922,1069.147a1.036,1.036,0,0,1-1.054-.623.8.8,0,0,1,.256-1.043c.938-.556,1.9-1.073,2.884-1.545a.826.826,0,0,1,1.022.348.793.793,0,0,1,.03,1.072A12.8,12.8,0,0,1,480.922,1069.147Z" transform="translate(-39.498 -35.375)" fill="#040404"/>
      <path id="Trazado_632334" data-name="Trazado 632334" d="M615.086,1069.225a1.051,1.051,0,0,1-.614-.171c-.739-.388-1.48-.775-2.212-1.178-.624-.344-.817-.858-.542-1.379a.969.969,0,0,1,1.439-.345c.8.412,1.595.833,2.379,1.272a.9.9,0,0,1,.453,1.1A.959.959,0,0,1,615.086,1069.225Z" transform="translate(-137.172 -35.46)" fill="#040404"/>
      <path id="Trazado_632335" data-name="Trazado 632335" d="M612.576,1030.291a.943.943,0,0,1-.92-.67.856.856,0,0,1,.379-1.067c.9-.5,1.8-.992,2.724-1.44a.842.842,0,0,1,1.114.379.817.817,0,0,1-.117,1.167,15.5,15.5,0,0,1-2.982,1.613A.666.666,0,0,1,612.576,1030.291Z" transform="translate(-137.178 -6.595)" fill="#040404"/>
      <path id="Trazado_632336" data-name="Trazado 632336" d="M480.771,1027.073a1.134,1.134,0,0,1,.612.184c.758.4,1.517.8,2.267,1.211a.952.952,0,0,1,.51,1.333.961.961,0,0,1-1.384.383c-.822-.415-1.634-.85-2.439-1.3a.907.907,0,0,1-.457-1.1A.962.962,0,0,1,480.771,1027.073Z" transform="translate(-39.541 -6.629)" fill="#040404"/>
      <path id="Trazado_632337" data-name="Trazado 632337" d="M614.971,1049.012c.45,0,.9-.019,1.351,0a.964.964,0,1,1-.036,1.927q-1.319.026-2.638,0a.946.946,0,0,1-1-.948.964.964,0,0,1,.972-.984c.043,0,.086,0,.129,0h1.223Z" transform="translate(-137.952 -22.882)" fill="#030303"/>
      <path id="Trazado_632338" data-name="Trazado 632338" d="M480.292,1050.937c-.429,0-.858.011-1.287,0a.982.982,0,0,1-1.051-.975.967.967,0,0,1,1.006-.956q1.319-.032,2.638,0a.967.967,0,1,1-.019,1.931C481.15,1050.948,480.721,1050.937,480.292,1050.937Z" transform="translate(-38.144 -22.87)" fill="#030303"/>
      <path id="Trazado_632339" data-name="Trazado 632339" d="M520.674,1229.157q1.486,1.656,2.974,3.31c.634.7,1.132.712,1.785.032,1.044-1.087,2.089-2.174,3.11-3.282a.615.615,0,0,1,.773-.185c2.209.773,4.428,1.518,6.639,2.286a2.712,2.712,0,0,1,2.064,2.9c0,1.313-.009,2.627.008,3.94,0,.333-.083.438-.428.437q-11.627-.024-23.254-.027c0-1.566,0-3.132,0-4.7a3.175,3.175,0,0,1,1.982-3.165C517.743,1230.115,519.222,1229.668,520.674,1229.157Z" transform="translate(-65.109 -156.236)" fill="#96c7f8"/>
      <path id="Trazado_632340" data-name="Trazado 632340" d="M538.317,1160.767a6,6,0,0,0,5.481-3.166,5.931,5.931,0,0,0,1.465,1.879,5.026,5.026,0,0,0,2.425,1.13c.386.06.493.189.489.567-.019,1.678.012,3.358-.014,5.036a4.936,4.936,0,0,1-4.091,5,6.043,6.043,0,0,1-3.428-.1,2.873,2.873,0,0,0-.281-.348,6.476,6.476,0,0,1-2.045-5.026C538.313,1164.081,538.317,1162.424,538.317,1160.767Zm4.15,7.446c2.022.017,2.913-.7,3.029-2.439.046-.7-.27-1.171-.835-1.253-.532-.077-.953.256-1.083.932-.127.658-.6.81-1.14.808a.978.978,0,0,1-1.12-.833.958.958,0,0,0-1.1-.9,1.028,1.028,0,0,0-.8,1.211C539.546,1167.293,540.662,1168.2,542.467,1168.213Z" transform="translate(-82.872 -103.351)" fill="#f5cdbf"/>
      <path id="Trazado_632341" data-name="Trazado 632341" d="M626.595,1181.754c1.749-.378,2.067-.559,3.6-2.053.183.038.189.221.261.341a3.193,3.193,0,0,0,2.973,1.7c1.553-.019,1.553.006,1.553,1.576,0,.84,0,1.68,0,2.52a4.727,4.727,0,0,1-5.694,4.825,1.581,1.581,0,0,1-.74-.195,4.839,4.839,0,0,0-.322-.4,5.3,5.3,0,0,1-1.629-3.992C626.629,1184.638,626.6,1183.2,626.595,1181.754Z" transform="translate(-148.287 -119.727)" fill="#f5cdbf"/>
      <path id="Trazado_632342" data-name="Trazado 632342" d="M455.928,1181.43a5.445,5.445,0,0,0,3.678-2.172c.8,1.864,2.275,2.32,4.046,2.14.571-.058.727.123.7.694-.05,1.118-.05,2.241-.009,3.359.141,3.852-3.208,5.149-5.66,4.872a1.665,1.665,0,0,1-.808-.182,2.753,2.753,0,0,0-.229-.306,5.717,5.717,0,0,1-1.721-4.282C455.955,1184.179,455.93,1182.8,455.928,1181.43Z" transform="translate(-21.822 -119.399)" fill="#f5cdbf"/>
      <path id="Trazado_632343" data-name="Trazado 632343" d="M447.892,1239.477q1.308,1.759,2.616,3.518c.735.991,1.342,1,2.071.011.844-1.141,1.692-2.28,2.514-3.437.22-.31.4-.418.789-.262.735.3,1.5.528,2.25.781.207.069.409.092.356.414a33.712,33.712,0,0,0-.113,5.024c-.008.512-.093.691-.655.686-4.089-.033-8.179-.028-12.268-.035q0-2.675,0-5.35c0-.247-.084-.573.24-.667A12.383,12.383,0,0,1,447.892,1239.477Z" transform="translate(-14.055 -163.843)" fill="#b8e1a1"/>
      <path id="Trazado_632344" data-name="Trazado 632344" d="M540.388,1134.909a35.715,35.715,0,0,1,5.415.051,4.286,4.286,0,0,1,3.74,4.205c.024.753-.019,1.508.015,2.261.022.47-.182.531-.579.488a4.243,4.243,0,0,1-3.9-3.392c-.128-.524-.293-.964-.882-1.042-.623-.083-.909.334-1.161.826a8.862,8.862,0,0,1-1.978,2.688,3.5,3.5,0,0,1-2.735.9c0-.966-.011-1.931-.006-2.9a4.939,4.939,0,0,1,.769-2.543A9.673,9.673,0,0,1,540.388,1134.909Z" transform="translate(-82.869 -86.479)" fill="#69738a"/>
      <path id="Trazado_632345" data-name="Trazado 632345" d="M627.8,1157.307c1.463-.008,2.929-.066,4.389-.01a3.082,3.082,0,0,1,2.81,3.027c.052.793,0,1.593.019,2.389.008.346-.142.468-.464.436a.224.224,0,0,0-.065,0c-1.572.3-2.477-.471-3.013-1.853a2.946,2.946,0,0,0-.256-.52c-.427-.668-.934-.72-1.444-.112a9.479,9.479,0,0,1-2.086,2,1.867,1.867,0,0,1-1.057.431c0-1.007.019-2.014-.006-3.02A5.307,5.307,0,0,1,627.8,1157.307Z" transform="translate(-148.314 -103.108)" fill="#69738a"/>
      <path id="Trazado_632346" data-name="Trazado 632346" d="M525.619,1027.369c-.232.409-.67.583-1.008.869a10.07,10.07,0,0,0-1.535,13.914,9.547,9.547,0,0,0,1.523,1.572,6.014,6.014,0,0,1,2.346,4.73,4.088,4.088,0,0,1-1.406-.011c-.527-.2-.236-.825-.329-1.252a7.235,7.235,0,0,0-2.524-4.158,8.95,8.95,0,0,1-3.373-7.6A9.125,9.125,0,0,1,525.619,1027.369Z" transform="translate(-68.786 -6.85)" fill="#f4cd6d"/>
      <path id="Trazado_632347" data-name="Trazado 632347" d="M512.109,1229.084c-1.452.511-2.931.957-4.347,1.552a3.175,3.175,0,0,0-1.982,3.165c0,1.566,0,3.132,0,4.7-.859.007-1.718,0-2.576.028-.357.013-.423-.127-.42-.446.016-1.418-.013-2.836.017-4.252a2.5,2.5,0,0,1,1.745-2.458c2.339-.838,4.7-1.619,7.046-2.43C511.814,1228.862,512,1228.792,512.109,1229.084Z" transform="translate(-56.544 -156.162)" fill="#73b4f6"/>
      <path id="Trazado_632348" data-name="Trazado 632348" d="M531.875,1135.037a9.676,9.676,0,0,0-1.305,1.548,4.938,4.938,0,0,0-.769,2.543c-.005.966,0,1.931.006,2.9-.858.011-1.716.018-2.574.034-.254,0-.412-.061-.4-.357a22.21,22.21,0,0,1,.086-3.019A4.384,4.384,0,0,1,531.875,1135.037Z" transform="translate(-74.357 -86.606)" fill="#5c667a"/>
      <path id="Trazado_632349" data-name="Trazado 632349" d="M439.388,1239.414a12.384,12.384,0,0,0-2.2.684c-.324.093-.24.419-.24.667q-.005,2.675,0,5.35c-.858.007-1.716,0-2.574.026-.3.008-.408-.076-.405-.393q.022-2.253,0-4.507a.445.445,0,0,1,.362-.5q2.253-.757,4.5-1.534C439.085,1239.119,439.29,1239.1,439.388,1239.414Z" transform="translate(-5.551 -163.78)" fill="#9ad5a6"/>
      <path id="Trazado_632350" data-name="Trazado 632350" d="M542.912,1217.99c0-.8,0-.8.751-.643a9.829,9.829,0,0,0,4.662-.083c.384-.1.464-.016.489.371a1.942,1.942,0,0,1-.635,1.717,25.681,25.681,0,0,0-2.048,2.148c-.325.375-.492.3-.77-.032-.708-.838-1.433-1.664-2.185-2.462A1.272,1.272,0,0,1,542.912,1217.99Z" transform="translate(-86.277 -147.531)" fill="#efaf9f"/>
      <path id="Trazado_632351" data-name="Trazado 632351" d="M533.776,1169.723c0,1.657,0,3.313,0,4.97a6.476,6.476,0,0,0,2.045,5.026,2.884,2.884,0,0,1,.281.348,4.768,4.768,0,0,1-3.866-4.266c-.086-1.91-.03-3.826-.048-5.74,0-.275.078-.391.365-.372C532.96,1169.714,533.368,1169.713,533.776,1169.723Z" transform="translate(-78.33 -112.307)" fill="#efaf9f"/>
      <path id="Trazado_632352" data-name="Trazado 632352" d="M616.757,1240.438a3.209,3.209,0,0,0-2.1,2.857c-.012.942,0,1.885,0,2.827-1.794.093-1.773.093-1.8-1.7a22.45,22.45,0,0,0-.119-3.99c-.042-.217.059-.305.251-.37q1.253-.419,2.5-.861a.4.4,0,0,1,.545.178C616.26,1239.739,616.513,1240.086,616.757,1240.438Z" transform="translate(-138.009 -163.787)" fill="#e65459"/>
      <path id="Trazado_632353" data-name="Trazado 632353" d="M459.22,1229.232c-.122-.56.128-.6.7-.472a8.254,8.254,0,0,0,3.839-.049c.41-.1.517-.016.525.409a1.921,1.921,0,0,1-.422,1.3c-.65.829-1.264,1.687-1.873,2.547-.2.279-.311.276-.506,0q-1.032-1.443-2.1-2.863A1.391,1.391,0,0,1,459.22,1229.232Z" transform="translate(-24.241 -156.014)" fill="#efaf9f"/>
      <path id="Trazado_632354" data-name="Trazado 632354" d="M545.605,1116.338c.859,0,1.718.015,2.577-.008.342-.009.439.1.428.437a2.149,2.149,0,0,1-2.166,2.167c-.6.011-1.2.011-1.8,0a2.146,2.146,0,0,1-2.138-2.192c0-.306.083-.411.4-.4.9.018,1.8.006,2.706.006Z" transform="translate(-85.975 -72.77)" fill="#e9f3fb"/>
      <path id="Trazado_632355" data-name="Trazado 632355" d="M634.8,1229.343a1.154,1.154,0,0,1-.293.9q-1,1.309-1.947,2.653c-.21.3-.326.31-.543,0q-1.005-1.423-2.06-2.81c-.318-.415-.178-.865-.191-1.3-.007-.233.193-.184.334-.15a9.263,9.263,0,0,0,4.346.009C634.794,1228.561,634.8,1228.59,634.8,1229.343Z" transform="translate(-150.621 -155.964)" fill="#efaf9f"/>
      <path id="Trazado_632356" data-name="Trazado 632356" d="M451.184,1187.567c0,1.374.027,2.749,0,4.123a5.716,5.716,0,0,0,1.721,4.282,2.75,2.75,0,0,1,.229.306,4.212,4.212,0,0,1-3.557-3.981c-.1-1.452-.025-2.914-.044-4.372,0-.333.156-.4.434-.384C450.371,1187.558,450.777,1187.559,451.184,1187.567Z" transform="translate(-17.078 -125.536)" fill="#efaf9f"/>
      <path id="Trazado_632357" data-name="Trazado 632357" d="M621.808,1187.543c0,1.441.034,2.884.007,4.324a5.3,5.3,0,0,0,1.629,3.992,4.839,4.839,0,0,1,.322.4,4.477,4.477,0,0,1-3.615-4.2c-.028-1.353,0-2.706-.016-4.059,0-.343.065-.515.452-.481C620.991,1187.552,621.4,1187.536,621.808,1187.543Z" transform="translate(-143.5 -125.516)" fill="#efaf9f"/>
      <path id="Trazado_632358" data-name="Trazado 632358" d="M622.982,1157.405a5.306,5.306,0,0,0-1.172,2.773c.025,1.006.006,2.013.006,3.019-1.681.183-1.692.183-1.677-1.476a7.21,7.21,0,0,1,.124-2.112A3.067,3.067,0,0,1,622.982,1157.405Z" transform="translate(-143.491 -103.206)" fill="#5c667a"/>
      <path id="Trazado_632359" data-name="Trazado 632359" d="M452.362,1157.409a10.239,10.239,0,0,0-1.052,2.095,27.316,27.316,0,0,0-.116,3.707c-1.66.139-1.664.139-1.658-1.517a8.193,8.193,0,0,1,.106-1.922A3.055,3.055,0,0,1,452.362,1157.409Z" transform="translate(-17.083 -103.209)" fill="#5c667a"/>
      <path id="Trazado_632360" data-name="Trazado 632360" d="M586.239,1171.177a6.358,6.358,0,0,1,0,.71.848.848,0,0,1-.832.825c-1.715.178-1.715.181-1.715-1.541a1.022,1.022,0,0,1,0-.129c.061-.479-.244-1.191.138-1.387a3.408,3.408,0,0,1,1.71-.054.782.782,0,0,1,.7.8C586.256,1170.659,586.239,1170.919,586.239,1171.177Z" transform="translate(-116.45 -112.182)" fill="#efaf9f"/>
      <path id="Trazado_632361" data-name="Trazado 632361" d="M517.347,1171.265c0,.065.005.13,0,.194-.041.444.207,1.126-.107,1.282a2.56,2.56,0,0,1-1.83.032c-.932-.3-.55-1.176-.615-1.839-.052-.524.025-1.067.619-1.19a9.244,9.244,0,0,1,1.673-.055c.246,0,.263.162.261.348C517.345,1170.447,517.347,1170.856,517.347,1171.265Z" transform="translate(-65.426 -112.301)" fill="#efaf9f"/>
      <path id="Trazado_632362" data-name="Trazado 632362" d="M543.82,1027.155l-.17.063Z" transform="translate(-86.825 -6.691)" fill="#f4cd6d"/>
      <path id="Trazado_632363" data-name="Trazado 632363" d="M545.581,1187.979c-1.8-.015-2.921-.92-3.056-2.478a1.028,1.028,0,0,1,.8-1.211.958.958,0,0,1,1.1.9.978.978,0,0,0,1.12.833c.541,0,1.013-.149,1.14-.808.131-.676.551-1.009,1.083-.932.565.082.881.556.835,1.253C548.495,1187.279,547.6,1188,545.581,1187.979Z" transform="translate(-85.987 -123.117)" fill="#040404"/>
    </g>
  </g>
</svg>
