<svg xmlns="http://www.w3.org/2000/svg" width="73" height="73" viewBox="0 0 73 73">
  <g id="Grupo_957396" data-name="Grupo 957396" transform="translate(-202 -7053)">
    <rect id="Rectángulo_307000" data-name="Rectángulo 307000" width="73" height="73" transform="translate(202 7053)" fill="none"/>
    <g id="Grupo_957398" data-name="Grupo 957398" transform="translate(866.992 6691.478)">
      <path id="Trazado_632275" data-name="Trazado 632275" d="M-577.8,424.542c0-.621-.224-1.411.074-1.813.283-.381,1.126-.118,1.72-.11,1.991.025,3.985-.111,5.973.078a10.249,10.249,0,0,1,4.4,1.519c.1.061.209.111.33.173.5-.977.954-1.962,1.482-2.906a10.371,10.371,0,0,1,9.267-5.624c1.75-.055,3.5-.008,5.253-.012.459,0,1.057.147,1.338-.083.3-.243.069-.865.1-1.321.009-.16,0-.322,0-.483a.944.944,0,0,1,.569-.915.92.92,0,0,1,1.063.172q3.349,2.863,6.687,5.74a.92.92,0,0,1,0,1.514q-3.329,2.886-6.687,5.74a.919.919,0,0,1-1.063.172.948.948,0,0,1-.569-.915c0-.141.007-.282,0-.423-.032-.476.211-1.125-.1-1.379-.292-.24-.918-.083-1.4-.085-1.389,0-2.778-.012-4.166,0a3.713,3.713,0,0,0-3.476,2.1c-1,1.923-1.945,3.874-2.923,5.809a.6.6,0,0,0,0,.609c.98,1.933,1.922,3.886,2.925,5.808a3.717,3.717,0,0,0,3.475,2.1c1.731.014,3.462-.013,5.193.015.422.007.5-.14.477-.51-.029-.441,0-.885-.008-1.328a.97.97,0,0,1,.569-.976.919.919,0,0,1,1.063.17q3.349,2.863,6.687,5.74a.919.919,0,0,1,0,1.513q-3.329,2.886-6.687,5.74a.922.922,0,0,1-1.063.172.963.963,0,0,1-.57-.975c0-.121.007-.242,0-.362-.032-.476.212-1.125-.1-1.379-.292-.24-.918-.075-1.4-.086a61.894,61.894,0,0,1-6.454-.112,10.211,10.211,0,0,1-7.889-5.314c-.579-1.008-1.068-2.067-1.613-3.13a11.178,11.178,0,0,1-3.942,1.6,10.849,10.849,0,0,1-1.917.192c-2.053,0-4.106-.01-6.159.011-.393,0-.526-.1-.493-.493.04-.48.021-.965.027-1.447q3.109,0,6.218,0a8.631,8.631,0,0,0,8.276-5.107c1.511-3.019,3-6.046,4.541-9.052a5.6,5.6,0,0,1,5.255-3.228c1.891-.024,3.783,0,5.675,0,1.73,0,1.73,0,1.97,1.7,1.108-.949,2.189-1.87,3.264-2.8.966-.833.966-.84,0-1.674-1.075-.928-2.156-1.849-3.309-2.836-.012.2-.02.291-.022.383-.025,1.11-.284,1.359-1.418,1.359-2.274,0-4.548-.009-6.822,0a8.6,8.6,0,0,0-8.184,5.058c-1.528,3.033-3.022,6.083-4.568,9.107a5.608,5.608,0,0,1-5.26,3.22c-1.871.024-3.743,0-5.615,0,0-.62-.225-1.41.073-1.812.282-.382,1.124-.1,1.719-.113,1.307-.018,2.615,0,3.922-.009a3.878,3.878,0,0,0,2.711-1.132c.245-.233.247-.394,0-.627a3.913,3.913,0,0,0-2.771-1.134c-1.73,0-3.459-.014-5.189.009-.395.005-.524-.1-.492-.494.039-.479.021-.964.027-1.446,1.808,0,3.617.012,5.425-.007a5.792,5.792,0,0,1,3.952,1.352c.257.218.363.19.506-.107.487-1.012.981-2.022,1.509-3.013.191-.358.161-.537-.2-.753a8.739,8.739,0,0,0-4.505-1.33C-573.34,424.531-575.571,424.544-577.8,424.542Zm16.646,9.412a12.523,12.523,0,0,1-2.435,3.74c-.214.212-.093.4.007.6.433.862.851,1.732,1.3,2.587a8.566,8.566,0,0,0,8.028,4.918c2.334.024,4.669,0,7,.005,1.008,0,1.3.289,1.326,1.271,0,.123-.079.28.113.387,1.294-1.107,2.584-2.226,3.894-3.321.332-.278.149-.407-.067-.591-1.179-1-2.352-2.017-3.533-3.019-.109-.093-.2-.266-.393-.2-.066,1.471-.212,1.611-1.67,1.611-1.831,0-3.663-.028-5.494.007a5.918,5.918,0,0,1-5.911-3.657C-559.659,436.874-560.385,435.489-561.155,433.954Z" transform="translate(-60.343 -33.285)" fill="#020202"/>
      <path id="Trazado_632276" data-name="Trazado 632276" d="M-577.548,444.862c1.872,0,3.743.021,5.615,0a5.608,5.608,0,0,0,5.26-3.22c1.546-3.024,3.04-6.074,4.568-9.107a8.6,8.6,0,0,1,8.184-5.058c2.274-.011,4.548,0,6.822,0,1.134,0,1.393-.249,1.418-1.359,0-.092.01-.183.022-.383,1.153.988,2.234,1.908,3.309,2.836.967.834.967.841,0,1.674-1.075.928-2.156,1.848-3.264,2.8-.24-1.7-.24-1.7-1.97-1.7-1.892,0-3.784-.019-5.675,0a5.6,5.6,0,0,0-5.255,3.228c-1.537,3.006-3.03,6.033-4.541,9.052a8.631,8.631,0,0,1-8.276,5.107q-3.109,0-6.218,0Z" transform="translate(-60.596 -42.976)" fill="#e45261"/>
      <path id="Trazado_632277" data-name="Trazado 632277" d="M-636.231,379.665c0,.624.013,1.248,0,1.871a.963.963,0,0,1-1.019,1.024c-.3.013-.6.006-.905,0-.281,0-.516-.032-.659.341a.657.657,0,0,0,.158.827c1.325,1.376,1.317,1.45-.02,2.787-.64.641-1.273,1.288-1.922,1.919a.993.993,0,0,1-1.579,0c-.2-.194-.412-.387-.6-.6a.526.526,0,0,0-.715-.184c-.315.144-.511.294-.449.66a.3.3,0,0,1,0,.06c-.055,1.889-.088,1.921-1.957,1.921-.906,0-1.811.006-2.716,0-.785-.007-1.129-.358-1.141-1.147,0-.262-.006-.523,0-.785.007-.285.021-.511-.347-.656a.657.657,0,0,0-.827.165c-1.382,1.322-1.436,1.315-2.786-.032-.641-.639-1.287-1.274-1.919-1.923a.975.975,0,0,1,0-1.572c.194-.2.388-.41.6-.6a.524.524,0,0,0,.188-.714c-.145-.309-.288-.518-.658-.454a.3.3,0,0,1-.06,0c-1.892-.052-1.924-.084-1.924-1.951,0-.906-.006-1.811,0-2.716.006-.789.355-1.133,1.142-1.146q.392-.007.785,0c.281,0,.518.033.658-.342a.664.664,0,0,0-.154-.828c-1.342-1.411-1.332-1.435.061-2.827.626-.626,1.247-1.258,1.88-1.876a1,1,0,0,1,1.581,0c.191.178.37.369.556.553s.324.426.7.256a.716.716,0,0,0,.519-.743c.028-1.9.071-1.921,1.943-1.921.905,0,1.811-.006,2.716,0,.786.006,1.13.356,1.143,1.145,0,.262.005.523,0,.785-.006.283-.025.512.345.656a.66.66,0,0,0,.828-.163c1.4-1.327,1.44-1.318,2.787.028.64.64,1.287,1.274,1.919,1.923a.978.978,0,0,1,0,1.573c-.194.2-.389.409-.6.595a.525.525,0,0,0-.19.713c.144.309.284.476.658.461,2.112-.084,2.016.4,1.986,2.066C-636.234,379.1-636.23,379.383-636.231,379.665Zm-1.933-.084c-.2-.234.39-.849-.423-.889a2.744,2.744,0,0,1-2.25-3.383c.051-.151.138-.289.2-.437.119-.286.607-.408.473-.755-.107-.276-.427-.469-.652-.7a3.7,3.7,0,0,1-.3-.3c-.2-.257-.35-.206-.581,0a2.761,2.761,0,0,1-3.956-.734,5.206,5.206,0,0,1-.214-.562c-.107-.269.147-.672-.179-.816a2.452,2.452,0,0,0-.9-.036,4.8,4.8,0,0,1-.483,0c-.32-.036-.4.1-.412.411a2.743,2.743,0,0,1-3.254,2.3,2.16,2.16,0,0,1-.6-.27c-.722-.476-.718-.482-1.326.127a5.135,5.135,0,0,1-.386.382c-.243.2-.227.343-.014.582a2.765,2.765,0,0,1-.66,3.93,1.229,1.229,0,0,1-.672.237c-.869-.113-.863.413-.81,1.008a1.85,1.85,0,0,1,0,.422c-.058.409.078.583.519.545,1.658-.143,2.74,2.712,2.018,3.753-.188.272-.69.445-.513.845.137.31.486.526.74.783a1.183,1.183,0,0,1,.127.129c.238.332.452.3.706,0,1.105-1.3,3.9-.008,4.1,1.275.047.3-.185.758.215.908a3.138,3.138,0,0,0,1.018.032,2.5,2.5,0,0,1,.3,0c.346.046.427-.107.442-.441a2.723,2.723,0,0,1,3.569-2.164.924.924,0,0,1,.358.217c.425.548.79.445,1.15-.066a1.424,1.424,0,0,1,.341-.341c.421-.294.37-.538.023-.89a1.75,1.75,0,0,1-.384-1.9c.1-.3.231-.6.36-.894a1.865,1.865,0,0,1,1.827-1.237c.429.007.518-.165.479-.529C-638.178,379.954-638.164,379.792-638.164,379.581Z" fill="#020203"/>
      <path id="Trazado_632278" data-name="Trazado 632278" d="M-637.686,525.914c-.039.641-.555.962-.958,1.329a.665.665,0,0,0-.152.926.437.437,0,0,0,.455.3c.362,0,.725,0,1.086.021a.951.951,0,0,1,1.02,1.021q.023,1.871,0,3.743a.958.958,0,0,1-1.013,1.029c-.3.014-.6,0-.906,0-.277,0-.522-.045-.662.336a.663.663,0,0,0,.15.828c1.338,1.386,1.328,1.446-.054,2.829-.626.626-1.245,1.259-1.879,1.877a.994.994,0,0,1-1.579,0c-.2-.194-.41-.388-.6-.6a.526.526,0,0,0-.713-.191c-.309.144-.518.286-.454.657a.311.311,0,0,1,0,.06c-.057,1.906-.078,1.926-2.012,1.926-.885,0-1.771.006-2.656,0-.789-.007-1.134-.355-1.147-1.141q-.006-.392,0-.785c0-.281.032-.515-.341-.659a.661.661,0,0,0-.828.158c-1.385,1.326-1.441,1.318-2.786-.023-.641-.639-1.287-1.275-1.919-1.922a.975.975,0,0,1,0-1.572c.194-.2.389-.408.6-.6s.354-.379.194-.712c-.145-.3-.28-.525-.655-.46a.622.622,0,0,1-.12,0c-1.8-.041-1.87-.111-1.87-1.884,0-.926-.005-1.851,0-2.777.006-.791.353-1.138,1.136-1.151.262,0,.523,0,.785,0,.277,0,.523.046.662-.336a.666.666,0,0,0-.149-.829c-1.343-1.4-1.333-1.442.054-2.828.626-.626,1.246-1.258,1.88-1.876a1,1,0,0,1,1.581-.01c.191.178.37.37.557.553s.319.435.694.262a.717.717,0,0,0,.525-.739c.03-1.914.06-1.927,2-1.927.885,0,1.771-.005,2.656,0,.789.006,1.136.354,1.149,1.139,0,.262,0,.523,0,.785,0,.28-.036.519.341.659a.666.666,0,0,0,.829-.156c1.406-1.339,1.437-1.329,2.829.063.626.626,1.25,1.254,1.879,1.877A1.208,1.208,0,0,1-637.686,525.914Zm-12.81,11.381a4.1,4.1,0,0,1,2.15.985,1.28,1.28,0,0,1,.473.951c-.074.859.382.942,1.04.851a2.22,2.22,0,0,1,.543,0c.327.036.389-.116.406-.417a2.729,2.729,0,0,1,3.434-2.242c.131.047.251.125.381.179.286.12.414.6.755.477.276-.1.47-.425.7-.651a3.9,3.9,0,0,1,.3-.3c.25-.2.218-.346.009-.581a2.764,2.764,0,0,1,.719-3.956,1.167,1.167,0,0,1,.619-.211c.8.1.9-.323.808-.949a1.728,1.728,0,0,1,0-.482c.058-.414-.087-.577-.523-.542-1.655.135-2.742-2.716-2.013-3.757.189-.27.689-.444.51-.844-.139-.31-.486-.526-.741-.784a.825.825,0,0,1-.085-.086c-.235-.322-.456-.387-.75-.036-1.089,1.3-3.9,0-4.1-1.28-.046-.3.191-.757-.217-.906a3.208,3.208,0,0,0-1.018-.031,1.363,1.363,0,0,1-.181,0c-.391-.056-.594.047-.557.505.136,1.68-2.749,2.787-3.8,1.993-.243-.185-.433-.612-.748-.506-.293.1-.5.443-.748.681-.1.1-.191.209-.3.3-.228.183-.193.322-.007.537a2.753,2.753,0,0,1-.571,3.9,3.751,3.751,0,0,1-.663.28c-.277.112-.694-.122-.838.157a2.364,2.364,0,0,0-.051.95c0,.141.014.283,0,.422-.04.335.085.437.432.453a2.75,2.75,0,0,1,2.207,3.5c-.045.111-.115.212-.167.321-.127.27-.576.41-.486.7.084.275.412.476.633.708a2.62,2.62,0,0,1,.211.215c.253.336.476.411.8.038A1.83,1.83,0,0,1-650.5,537.295Z" transform="translate(-0.001 -115.002)" fill="#020203"/>
      <path id="Trazado_632279" data-name="Trazado 632279" d="M-577.549,460.857c2.23,0,4.461-.012,6.691.01a8.738,8.738,0,0,1,4.505,1.33c.357.216.387.4.2.753-.528.991-1.022,2-1.509,3.013-.143.3-.249.325-.506.107a5.792,5.792,0,0,0-3.952-1.352c-1.808.019-3.617.006-5.425.007Z" transform="translate(-60.595 -69.6)" fill="#d34b5a"/>
      <path id="Trazado_632280" data-name="Trazado 632280" d="M-620.525,478.776c-1.021,0-1.021,0-1.021-1.032,0-.9,0-.9.911-.9,1.021,0,1.021,0,1.021,1.032C-619.614,478.776-619.614,478.776-620.525,478.776Z" transform="translate(-27.246 -81.72)"/>
      <path id="Trazado_632281" data-name="Trazado 632281" d="M-603.643,477.812c0,.964,0,.964-.968.964s-.964,0-.964-.968,0-.964.968-.964S-603.643,476.844-603.643,477.812Z" transform="translate(-39.352 -81.72)"/>
      <path id="Trazado_632282" data-name="Trazado 632282" d="M-619.614,497.8c0,.941,0,.941-.931.941-1,0-1,0-1-.991,0-.941,0-.941.931-.941C-619.614,496.807-619.614,496.807-619.614,497.8Z" transform="translate(-27.246 -96.852)"/>
      <path id="Trazado_632283" data-name="Trazado 632283" d="M-603.643,497.725c0,1.014,0,1.014-1.039,1.014-.893,0-.893,0-.893-.918,0-1.014,0-1.014,1.039-1.014C-603.643,496.807-603.643,496.807-603.643,497.725Z" transform="translate(-39.352 -96.852)"/>
      <path id="Trazado_632284" data-name="Trazado 632284" d="M-516.764,499.756c.77,1.535,1.5,2.92,2.165,4.332a5.919,5.919,0,0,0,5.911,3.657c1.831-.035,3.662-.007,5.494-.007,1.458,0,1.6-.141,1.67-1.611.2-.063.284.111.393.2,1.181,1,2.354,2.014,3.533,3.019.216.184.4.313.067.591-1.31,1.1-2.6,2.214-3.894,3.321-.192-.107-.11-.265-.113-.387-.023-.982-.318-1.271-1.326-1.271-2.334,0-4.669.019-7-.005a8.566,8.566,0,0,1-8.028-4.918c-.445-.855-.863-1.725-1.3-2.587-.1-.2-.221-.385-.007-.6A12.527,12.527,0,0,0-516.764,499.756Z" transform="translate(-104.735 -99.087)" fill="#d34b5a"/>
      <path id="Trazado_632285" data-name="Trazado 632285" d="M-632.168,385.57c0,.211-.014.373,0,.532.039.364-.05.536-.479.529a1.865,1.865,0,0,0-1.827,1.237c-.13.294-.256.591-.36.894a1.75,1.75,0,0,0,.384,1.9c.347.352.4.6-.023.89a1.425,1.425,0,0,0-.341.341c-.36.511-.725.614-1.15.066a.923.923,0,0,0-.358-.218,2.723,2.723,0,0,0-3.569,2.164c-.016.334-.1.487-.442.441a2.507,2.507,0,0,0-.3,0,3.137,3.137,0,0,1-1.018-.032c-.4-.15-.168-.6-.215-.908-.2-1.282-2.994-2.577-4.1-1.275-.254.3-.468.335-.706,0a1.183,1.183,0,0,0-.127-.129c-.255-.257-.6-.474-.74-.783-.177-.4.325-.573.513-.845.722-1.042-.36-3.9-2.018-3.753-.441.038-.577-.136-.519-.544a1.854,1.854,0,0,0,0-.422c-.053-.6-.059-1.122.81-1.008a1.229,1.229,0,0,0,.672-.237,2.765,2.765,0,0,0,.66-3.93c-.212-.239-.229-.385.015-.582a5.151,5.151,0,0,0,.386-.382c.608-.608.6-.6,1.326-.127a2.161,2.161,0,0,0,.6.27,2.743,2.743,0,0,0,3.255-2.3c.017-.308.092-.447.412-.411a4.785,4.785,0,0,0,.483,0,2.452,2.452,0,0,1,.9.036c.326.144.072.546.179.816a5.2,5.2,0,0,0,.214.562,2.761,2.761,0,0,0,3.956.734c.23-.2.381-.256.581,0a3.7,3.7,0,0,0,.3.3c.226.229.545.423.652.7.135.347-.354.469-.473.755-.061.148-.149.286-.2.437a2.744,2.744,0,0,0,2.25,3.383C-631.778,384.721-632.37,385.336-632.168,385.57Zm-13.526.028a4.845,4.845,0,0,0,4.791,4.886,4.844,4.844,0,0,0,4.87-4.747,4.84,4.84,0,0,0-4.761-4.915A4.843,4.843,0,0,0-645.694,385.6Z" transform="translate(-5.996 -5.989)" fill="#656c91"/>
      <path id="Trazado_632286" data-name="Trazado 632286" d="M-644.5,543.274a1.83,1.83,0,0,0-1.432.549c-.322.373-.545.3-.8-.038a2.6,2.6,0,0,0-.211-.215c-.221-.232-.549-.433-.633-.708-.089-.292.36-.432.486-.7.051-.109.122-.21.167-.321a2.75,2.75,0,0,0-2.207-3.5c-.347-.016-.472-.118-.432-.453.017-.139,0-.281,0-.422a2.364,2.364,0,0,1,.051-.95c.143-.28.561-.045.838-.157a3.749,3.749,0,0,0,.663-.28,2.753,2.753,0,0,0,.571-3.9c-.187-.216-.222-.354.007-.537.109-.087.2-.2.3-.3.245-.237.456-.582.748-.681.315-.106.5.321.748.506,1.047.794,3.932-.313,3.8-1.993-.037-.458.165-.562.557-.505a1.363,1.363,0,0,0,.181,0,3.212,3.212,0,0,1,1.018.031c.408.149.17.6.217.906.2,1.281,3.01,2.58,4.1,1.28.294-.351.514-.286.75.036a.825.825,0,0,0,.085.086c.255.258.6.474.741.784.179.4-.321.574-.51.844-.729,1.041.358,3.892,2.013,3.757.436-.036.581.127.523.542a1.728,1.728,0,0,0,0,.482c.09.627-.011,1.053-.808.949a1.167,1.167,0,0,0-.619.211,2.764,2.764,0,0,0-.719,3.957c.209.235.241.385-.009.581a3.884,3.884,0,0,0-.3.3c-.23.226-.424.547-.7.651-.341.128-.469-.357-.755-.477-.129-.054-.249-.132-.381-.179a2.729,2.729,0,0,0-3.434,2.242c-.017.3-.079.453-.406.417a2.223,2.223,0,0,0-.543,0c-.658.091-1.114.008-1.04-.851a1.28,1.28,0,0,0-.473-.951A4.1,4.1,0,0,0-644.5,543.274Zm8.468-5.888a4.841,4.841,0,0,0-4.822-4.855,4.843,4.843,0,0,0-4.84,4.775,4.845,4.845,0,0,0,4.791,4.887A4.844,4.844,0,0,0-636.035,537.385Z" transform="translate(-5.993 -120.981)" fill="#656c91"/>
      <path id="Trazado_632287" data-name="Trazado 632287" d="M-633.522,397.776a4.843,4.843,0,0,1,4.9-4.775,4.84,4.84,0,0,1,4.761,4.915,4.844,4.844,0,0,1-4.87,4.747A4.845,4.845,0,0,1-633.522,397.776Zm7.727.069a2.908,2.908,0,0,0-2.853-2.91,2.909,2.909,0,0,0-2.941,2.882,2.91,2.91,0,0,0,2.913,2.912A2.91,2.91,0,0,0-625.795,397.845Z" transform="translate(-18.168 -18.167)" fill="#020203"/>
      <path id="Trazado_632288" data-name="Trazado 632288" d="M-623.861,549.574a4.844,4.844,0,0,1-4.871,4.807,4.845,4.845,0,0,1-4.791-4.886,4.843,4.843,0,0,1,4.84-4.775A4.841,4.841,0,0,1-623.861,549.574Zm-1.934-.012a2.908,2.908,0,0,0-2.854-2.909,2.909,2.909,0,0,0-2.94,2.884,2.91,2.91,0,0,0,2.914,2.91A2.91,2.91,0,0,0-625.795,549.562Z" transform="translate(-18.168 -133.169)" fill="#020203"/>
    </g>
  </g>
</svg>
