<svg xmlns="http://www.w3.org/2000/svg" width="73" height="73" viewBox="0 0 73 73">
  <g id="Grupo_957403" data-name="Grupo 957403" transform="translate(-202 -7053)">
    <rect id="Rectángulo_307000" data-name="Rectángulo 307000" width="73" height="73" transform="translate(202 7053)" fill="none"/>
    <g id="Grupo_957409" data-name="Grupo 957409" transform="translate(-506.31 6382.779)">
      <path id="Trazado_632421" data-name="Trazado 632421" d="M764.566,770.976h-1.932c-.143-.622-.567-.785-1.159-.784q-8.544.016-17.089.005c-1.354,0-2.708-.012-4.062-.018q0-6.842,0-13.683c0-.195-.073-.413.115-.574.7,1.2,1.42,2.385,2.1,3.594a1.181,1.181,0,0,0,1.165.668c2.34-.02,4.68-.006,7.021-.01.794,0,1.075-.281,1.078-1.066q.006-2.006,0-4.012c0-.858-.27-1.127-1.132-1.131-.929,0-1.857,0-2.786,0-.272,0-.393-.036-.21-.333q.522-.853,1-1.734c.122-.226.231-.226.428-.1.312.2.636.38.966.547a.78.78,0,0,0,1.152-.907q-.844-3.024-1.722-6.038a.794.794,0,0,0-1.039-.59c-2,.5-3.987,1.009-5.98,1.512a.8.8,0,0,0-.684.645.852.852,0,0,0,.43.847,7.593,7.593,0,0,0,.911.532c.265.132.277.258.129.508-.932,1.579-1.846,3.169-2.767,4.755-.231-.126-.174-.349-.174-.545q0-13.858,0-27.715c.147-.012.294-.035.441-.035q10.645,0,21.291,0c.147,0,.294.023.441.036l.006,8.292c0,.763,0,.763.737.763l8.346,0a1.1,1.1,0,0,1,.025.164q0,17.605.011,35.211c0,.364-.124.422-.447.42-1.857-.014-3.714,0-5.57-.011A.925.925,0,0,0,764.566,770.976ZM761.9,753.965c-.452,0-.815.011-1.179,0-.46-.018-1.031.189-1.346-.086-.271-.237-.071-.807-.083-1.23a.816.816,0,0,0-.5-.794.781.781,0,0,0-.921.181q-2.156,2.215-4.306,4.436a.735.735,0,0,0-.1,1.059c1.477,1.565,2.984,3.1,4.492,4.638a.7.7,0,0,0,.828.123.787.787,0,0,0,.5-.735,6.925,6.925,0,0,0,0-.891c-.04-.386.086-.5.485-.5,1.986.021,3.973,0,5.959.016a1.135,1.135,0,0,0,1.1-.6q1.205-2.032,2.452-4.039a1.091,1.091,0,0,0,.01-1.244c-1.2-2.064-2.392-4.138-3.591-6.205-.416-.717-.807-.819-1.506-.4q-1.736,1.05-3.462,2.116c-.676.417-.757.769-.355,1.476C760.861,752.156,761.356,753.018,761.9,753.965Zm-7.2-12.482.827,1.432c.5.862.5.867-.372,1.37-.407.235-.764.519-.683,1.036.077.491.5.657.924.764q2.72.688,5.443,1.365c.745.185,1.11-.031,1.328-.772.177-.6.343-1.212.515-1.817.34-1.193.687-2.385,1.019-3.58.117-.422.182-.881-.21-1.183a1,1,0,0,0-1.192.065,3.765,3.765,0,0,0-.48.278c-.316.268-.467.153-.651-.172-.986-1.741-2-3.465-2.989-5.206a1.153,1.153,0,0,0-1.123-.651c-1.578.017-3.157.014-4.735,0a1.082,1.082,0,0,0-1.055.571c-1.142,1.994-2.3,3.979-3.443,5.971a.874.874,0,0,0,.385,1.388q1.751,1.025,3.511,2.035c.755.435,1.1.341,1.542-.415C753.725,743.17,754.184,742.37,754.7,741.484Z" transform="translate(-14.35 -36.606)" fill="#ecf4fb"/>
      <path id="Trazado_632422" data-name="Trazado 632422" d="M750.216,734.371a.925.925,0,0,1,1.044-.781c1.857.011,3.714,0,5.571.011.323,0,.447-.056.447-.42q-.016-17.605-.011-35.211a1.1,1.1,0,0,0-.025-.164,7.035,7.035,0,0,1,.034-.776c.07-.466-.106-.584-.569-.578-2.023.027-4.047.013-6.071.011-.861,0-1.13-.27-1.132-1.129q0-2.7,0-5.4c0-1.337,0-1.337-1.352-1.184-.147-.012-.294-.036-.441-.036q-10.645,0-21.291,0c-.147,0-.294.023-.441.035-.664-.013-1.33-.005-1.993-.047-.395-.025-.491.109-.489.493.017,2.462.01,4.924.008,7.386,0,.731-.17.94-.877,1.122a.953.953,0,0,1-.795-1.09c.016-2.842.005-5.685.008-8.527,0-.755.275-1.028,1.046-1.034.984-.008,1.969-.015,2.953.005.341.007.451-.093.443-.44-.022-.965-.013-1.932-.006-2.9.005-.762.277-1.034,1.047-1.04.966-.008,1.932-.023,2.9.008.405.013.491-.123.481-.5-.026-.984-.015-1.969-.006-2.954.007-.763.293-1.051,1.042-1.051q17.5,0,35,0c.763,0,1.048.28,1.048,1.034q0,23.074,0,46.147c0,.753-.278,1.025-1.051,1.031-.984.008-1.969.015-2.953-.005-.347-.007-.444.107-.437.445.02,1.021.013,2.043,0,3.065-.006.715-.3,1-1.023,1.008-.966.007-1.933.029-2.9-.011-.443-.019-.517.132-.5.529.029.928.016,1.858.007,2.786-.008.762-.3,1.051-1.042,1.053q-3.316.005-6.632,0C750.569,735.261,750.355,735.07,750.216,734.371Zm12.32-45c-.656-.158-.84-.366-.846-1.034-.01-1.115-.035-2.231.011-3.343.023-.551-.149-.664-.678-.663q-16.216.024-32.432.012a2.314,2.314,0,0,1-.278,0c-.3-.037-.387.1-.378.385a13.805,13.805,0,0,1-.007,1.671c-.052.55.141.667.672.665,7.114-.019,14.229-.009,21.343-.02a1.656,1.656,0,0,1,1.279.527q3.528,3.565,7.1,7.09a1.955,1.955,0,0,1,.625,1.523q-.022,16.135-.011,32.27a4.423,4.423,0,0,1,0,.445c-.027.266.076.357.346.349a17.571,17.571,0,0,1,1.782.005c.5.036.644-.1.643-.625q-.026-14.63-.013-29.26,0-3.483,0-6.967c0-.718.176-.928.848-1.088.7.19.811.357.811,1.225q0,14.41,0,28.82c0,.948.019,1.9-.009,2.843-.012.4.085.572.52.542a9.573,9.573,0,0,1,1.615,0c.559.057.656-.154.656-.674q-.022-21.8,0-43.593c0-.492-.1-.64-.624-.639q-16.247.026-32.5.013a2.276,2.276,0,0,1-.278,0c-.289-.036-.391.078-.381.374.02.575.006,1.152.006,1.728,0,.725,0,.726.7.726h29.1c.957,0,1.194.234,1.2,1.177,0,1.505-.006,3.01,0,4.515A.876.876,0,0,1,762.536,689.367Zm-11.366.7c0,1.4.012,2.838-.008,4.275,0,.358.087.47.456.464,1.335-.023,2.67-.007,4-.013.111,0,.264.079.29.012Z" fill="#020304"/>
      <path id="Trazado_632423" data-name="Trazado 632423" d="M725.384,734.261c.707-.182.876-.391.877-1.122,0-2.462.01-4.924-.008-7.386,0-.384.094-.518.489-.493.663.042,1.328.034,1.993.047q0,13.858,0,27.715c0,.2-.057.419.174.545a2.356,2.356,0,0,1-.179.342,1.24,1.24,0,0,0-.016,1.672,1.37,1.37,0,0,1,.137.3c-.188.161-.115.38-.115.574q0,6.842,0,13.683c-.612.007-1.228-.029-1.835.032-.563.057-.646-.153-.646-.668q.025-16.041.012-32.082c0-.86-.155-1.073-.88-1.221Z" transform="translate(-2.755 -36.561)" fill="#d9e6f4"/>
      <path id="Trazado_632424" data-name="Trazado 632424" d="M722.638,774.225c.725.148.88.362.88,1.221q0,16.041-.012,32.082c0,.514.083.725.645.668.607-.062,1.223-.026,1.835-.032,1.354.006,2.708.018,4.062.018q8.544,0,17.089-.005c.592,0,1.016.161,1.159.784-.146.7-.365.89-1.046.891q-12.179,0-24.358,0c-.756,0-1.038-.285-1.038-1.044q0-16.78-.006-33.559A.885.885,0,0,1,722.638,774.225Z" transform="translate(-0.011 -74.588)" fill="#020202"/>
      <path id="Trazado_632425" data-name="Trazado 632425" d="M739.311,823.574a1.368,1.368,0,0,0-.137-.3,1.24,1.24,0,0,1,.016-1.672,2.352,2.352,0,0,0,.179-.342c.92-1.586,1.835-3.175,2.767-4.755.147-.25.136-.376-.129-.508a7.571,7.571,0,0,1-.911-.532.852.852,0,0,1-.43-.847.8.8,0,0,1,.684-.645c1.994-.5,3.985-1.015,5.98-1.512a.794.794,0,0,1,1.039.59q.883,3.012,1.722,6.038a.78.78,0,0,1-1.152.907c-.33-.167-.654-.349-.967-.547-.2-.125-.306-.125-.428.1q-.477.879-1,1.734c-.182.3-.061.335.21.333.929-.006,1.857-.005,2.786,0,.862,0,1.13.273,1.132,1.131q0,2.006,0,4.012c0,.785-.283,1.065-1.078,1.066-2.34,0-4.68-.01-7.021.01a1.181,1.181,0,0,1-1.165-.668C740.731,825.958,740.013,824.77,739.311,823.574Zm4.514-8.493c.707.448.548.909.258,1.405q-1.334,2.281-2.642,4.576c-.088.153-.245.286-.2.548.9,0,1.805-.02,2.71.01a.715.715,0,0,0,.735-.443c.574-1.038,1.195-2.051,1.765-3.091.311-.567.686-.917,1.435-.631-.285-1.015-.552-1.952-.811-2.892-.065-.235-.195-.269-.414-.211C745.77,814.589,744.875,814.813,743.825,815.081Zm1.26,8.206c-1.167,0-2.335.013-3.5-.007-.422-.007-.426.114-.236.429q.63,1.046,1.221,2.114a.562.562,0,0,0,.562.338q2.752-.021,5.5,0c.291,0,.383-.081.374-.374-.02-.685-.032-1.373,0-2.057.021-.4-.143-.453-.48-.448C747.383,823.3,746.234,823.288,745.085,823.288Z" transform="translate(-13.22 -104.257)" fill="#030403"/>
      <path id="Trazado_632426" data-name="Trazado 632426" d="M806.959,830.9c-.542-.948-1.037-1.81-1.528-2.674-.4-.707-.321-1.059.355-1.476q1.727-1.065,3.462-2.116c.7-.423,1.09-.321,1.506.4,1.2,2.067,2.386,4.141,3.591,6.205a1.092,1.092,0,0,1-.01,1.244q-1.245,2.007-2.452,4.039a1.135,1.135,0,0,1-1.095.6c-1.986-.015-3.973.005-5.959-.016-.4,0-.525.112-.485.5a6.925,6.925,0,0,1,0,.891.787.787,0,0,1-.5.735.7.7,0,0,1-.828-.123c-1.509-1.535-3.015-3.074-4.493-4.638a.735.735,0,0,1,.1-1.059q2.146-2.225,4.306-4.436a.781.781,0,0,1,.921-.181.816.816,0,0,1,.5.794c.011.422-.188.993.083,1.23.315.275.886.068,1.346.086C806.144,830.913,806.508,830.9,806.959,830.9Zm-4.282,5.272c.1-.572.544-.757,1.16-.74.8.022,1.595.005,2.393.005h3.356c-.546-.943-1.05-1.8-1.538-2.667-.132-.233-.332-.2-.531-.2-1.187,0-2.375-.022-3.562.008-.654.017-1.17-.111-1.3-.751-.686.645-1.37,1.3-2.064,1.936-.2.187-.175.323.014.5C801.3,834.9,801.994,835.54,802.677,836.173Zm8.427-1.616c.5-.819.99-1.646,1.5-2.461a.47.47,0,0,0-.026-.558q-1.409-2.427-2.8-4.864c-.132-.231-.236-.272-.466-.123-.576.372-1.156.739-1.758,1.067-.345.188-.362.352-.17.679,1.154,1.965,2.285,3.944,3.427,5.916C810.883,834.336,810.921,834.494,811.1,834.557Z" transform="translate(-59.412 -113.541)" fill="#030303"/>
      <path id="Trazado_632427" data-name="Trazado 632427" d="M780.1,773.111c-.513.886-.973,1.686-1.439,2.482-.442.756-.787.849-1.542.415q-1.759-1.011-3.511-2.035a.874.874,0,0,1-.385-1.388c1.144-1.992,2.3-3.977,3.443-5.971a1.081,1.081,0,0,1,1.054-.571c1.578.012,3.157.016,4.735,0a1.154,1.154,0,0,1,1.123.651c.986,1.741,2,3.465,2.989,5.206.184.325.335.44.651.172a3.758,3.758,0,0,1,.48-.278,1,1,0,0,1,1.192-.065c.392.3.328.761.21,1.183-.333,1.2-.679,2.386-1.019,3.58-.172.606-.338,1.213-.515,1.817-.217.741-.583.957-1.328.772q-2.724-.676-5.443-1.366c-.426-.108-.847-.273-.924-.764-.081-.518.275-.8.683-1.036.872-.5.869-.508.372-1.37Zm6.909,1.013a.965.965,0,0,1-1.408-.559c-.2-.378-.42-.742-.634-1.112-.738-1.277-1.478-2.553-2.248-3.884-.527.912-1.006,1.769-1.515,2.609-.149.247-.051.411.063.607.606,1.042,1.191,2.1,1.819,3.126a1.062,1.062,0,0,1-.18,1.6c1.051.267,2.019.508,2.984.761.22.058.253-.084.294-.227C786.451,776.118,786.712,775.192,787.014,774.124Zm-5.738-6.4c-1.071,0-2.034.008-3-.006a.487.487,0,0,0-.48.29c-.864,1.509-1.728,3.019-2.607,4.519-.147.251-.128.376.129.517.6.328,1.2.665,1.776,1.03.3.189.445.155.622-.162.695-1.244,1.419-2.471,2.13-3.7C780.309,769.406,780.766,768.607,781.276,767.72Z" transform="translate(-39.757 -68.232)" fill="#030303"/>
      <path id="Trazado_632428" data-name="Trazado 632428" d="M839.63,725.246c1.352-.153,1.352-.153,1.352,1.184q0,2.7,0,5.4c0,.859.271,1.128,1.132,1.129,2.023,0,4.047.016,6.071-.011.462-.006.639.112.569.578a7.048,7.048,0,0,0-.034.776l-8.346,0c-.737,0-.737,0-.737-.763Z" transform="translate(-91.478 -36.5)" fill="#d9e6f4"/>
      <path id="Trazado_632429" data-name="Trazado 632429" d="M783.69,712.681c-.672.159-.846.37-.848,1.088q-.007,3.483,0,6.967,0,14.63.013,29.26c0,.522-.146.661-.643.625a17.553,17.553,0,0,0-1.782,0c-.27.008-.373-.083-.346-.349a4.423,4.423,0,0,0,0-.445q0-16.135.011-32.27a1.955,1.955,0,0,0-.625-1.523q-3.573-3.52-7.1-7.09a1.656,1.656,0,0,0-1.279-.527c-7.114.011-14.229,0-21.343.02-.531,0-.723-.115-.672-.665a13.806,13.806,0,0,0,.007-1.671c-.008-.284.08-.422.378-.385a2.313,2.313,0,0,0,.278,0q16.216,0,32.432-.012c.529,0,.7.113.678.663-.046,1.113-.021,2.229-.011,3.343.006.667.189.875.846,1.034Q783.689,711.71,783.69,712.681Z" transform="translate(-21.153 -21.372)" fill="#95c5f5"/>
      <path id="Trazado_632430" data-name="Trazado 632430" d="M799.089,697.068q0-.971,0-1.942a.876.876,0,0,0,.815-1c-.01-1.5,0-3.01,0-4.515,0-.942-.238-1.176-1.2-1.177h-29.1c-.7,0-.7,0-.7-.726,0-.576.014-1.153-.006-1.728-.01-.3.092-.41.381-.374a2.276,2.276,0,0,0,.278,0q16.248,0,32.5-.013c.521,0,.624.147.624.639q-.02,21.8,0,43.593c0,.521-.1.731-.656.674a9.573,9.573,0,0,0-1.615,0c-.435.03-.532-.137-.52-.542.028-.947.009-1.9.009-2.843q0-14.41,0-28.82C799.9,697.424,799.788,697.258,799.089,697.068Z" transform="translate(-36.552 -5.759)" fill="#73b4f6"/>
      <path id="Trazado_632431" data-name="Trazado 632431" d="M853.108,731.384l4.743,4.738c-.026.067-.179-.013-.29-.012-1.335.006-2.67-.01-4,.013-.37.006-.461-.105-.456-.464C853.119,734.222,853.108,732.784,853.108,731.384Z" transform="translate(-101.938 -41.319)" fill="#71b1f3"/>
      <path id="Trazado_632432" data-name="Trazado 632432" d="M752.086,821.678c1.05-.269,1.945-.492,2.837-.729.219-.058.349-.024.414.211.259.94.525,1.877.811,2.892-.749-.286-1.124.064-1.435.631-.57,1.04-1.191,2.053-1.765,3.091a.715.715,0,0,1-.735.443c-.9-.029-1.81-.01-2.71-.01-.046-.263.111-.4.2-.548q1.313-2.293,2.642-4.576C752.635,822.587,752.793,822.127,752.086,821.678Z" transform="translate(-21.481 -110.854)" fill="#a3d14c"/>
      <path id="Trazado_632433" data-name="Trazado 632433" d="M753.321,861c1.149,0,2.3.01,3.447-.006.337,0,.5.051.48.448-.036.684-.024,1.371,0,2.057.008.293-.083.376-.375.374q-2.752-.018-5.5,0a.562.562,0,0,1-.562-.338q-.593-1.067-1.221-2.115c-.189-.315-.185-.436.236-.428C750.986,861.017,752.154,861,753.321,861Z" transform="translate(-21.456 -141.973)" fill="#c8e186"/>
      <path id="Trazado_632434" data-name="Trazado 632434" d="M810.02,862.041c-.683-.632-1.374-1.278-2.072-1.914-.189-.172-.217-.309-.014-.5.694-.64,1.379-1.291,2.064-1.936.131.64.646.768,1.3.751,1.186-.03,2.374-.009,3.562-.008.2,0,.4-.033.531.2.489.866.993,1.724,1.538,2.667h-3.355c-.8,0-1.6.017-2.393-.005C810.565,861.283,810.122,861.468,810.02,862.041Z" transform="translate(-66.755 -139.409)" fill="#a2d04b"/>
      <path id="Trazado_632435" data-name="Trazado 632435" d="M842.124,841.781c-.184-.063-.222-.221-.293-.344-1.142-1.972-2.273-3.95-3.427-5.916-.192-.327-.175-.491.17-.679.6-.328,1.182-.695,1.758-1.067.231-.149.335-.108.466.123q1.389,2.439,2.8,4.864a.47.47,0,0,1,.026.558C843.115,840.135,842.622,840.963,842.124,841.781Z" transform="translate(-90.431 -120.766)" fill="#c9e388"/>
      <path id="Trazado_632436" data-name="Trazado 632436" d="M815.185,782.913c-.3,1.068-.563,1.994-.826,2.919-.041.144-.074.285-.294.227-.965-.253-1.933-.494-2.984-.761a1.062,1.062,0,0,0,.18-1.6c-.628-1.029-1.213-2.084-1.819-3.126-.114-.2-.212-.36-.063-.607.508-.84.988-1.7,1.515-2.609.771,1.331,1.51,2.607,2.248,3.884.214.369.437.733.634,1.111A.965.965,0,0,0,815.185,782.913Z" transform="translate(-67.928 -77.021)" fill="#a2d04c"/>
      <path id="Trazado_632437" data-name="Trazado 632437" d="M788.471,773.538c-.509.887-.966,1.686-1.426,2.483-.712,1.234-1.436,2.461-2.13,3.7-.177.316-.323.35-.622.162-.578-.365-1.175-.7-1.776-1.03-.258-.141-.277-.266-.129-.517.88-1.5,1.744-3.01,2.607-4.519a.487.487,0,0,1,.48-.29C786.436,773.546,787.4,773.538,788.471,773.538Z" transform="translate(-46.952 -74.051)" fill="#c9e388"/>
    </g>
  </g>
</svg>
