<svg xmlns="http://www.w3.org/2000/svg" width="83.158" height="83.104" viewBox="0 0 83.158 83.104">
  <g id="Grupo_957379" data-name="Grupo 957379" transform="translate(437.585 69.082)">
    <path id="Trazado_632149" data-name="Trazado 632149" d="M-418.323,90l-1.2-1.108c.512-.963.5-1.221-.336-2.153A39.7,39.7,0,0,1-427.712,73.6,41.2,41.2,0,0,1-430,62.285c-.041-.629.056-.823.73-.82q9.9.039,19.809,0c.668,0,.792.249.859.827a17.64,17.64,0,0,0,7.923,12.993,19.175,19.175,0,0,0,6.7,2.738l-.006,21.437a36.477,36.477,0,0,1-11.539-2.7,38.745,38.745,0,0,1-10.755-6.539A1.509,1.509,0,0,0-418.323,90Zm5.146-14.438c-1.216,0-2.432-.009-3.648,0-.946.01-1.511.48-1.5,1.217.008.7.562,1.207,1.448,1.214q3.729.03,7.458,0A1.271,1.271,0,0,0-408,76.752c-.007-.714-.549-1.176-1.446-1.188C-410.69,75.549-411.934,75.561-413.177,75.56Zm-1.529,4.748c-.757,0-1.514-.017-2.27,0a1.25,1.25,0,0,0-1.353,1.212,1.227,1.227,0,0,0,1.276,1.208q2.31.046,4.622,0a1.178,1.178,0,0,0,1.249-1.212,1.214,1.214,0,0,0-1.334-1.209C-413.245,80.292-413.976,80.307-414.706,80.309Z" transform="translate(-5.11 -88.047)" fill="#ea6750"/>
    <path id="Trazado_632150" data-name="Trazado 632150" d="M-272.361-51.243a4.714,4.714,0,0,1,1.29,1.424,1.887,1.887,0,0,0,.411,2.2,37.584,37.584,0,0,1,5.714,9.294,32.369,32.369,0,0,1,2.363,7.556c-.665.081-1.331.152-1.994.245-2.07.293-4.138.6-6.207.891-2.547.361-5.092.737-7.644,1.063-1.887.241-3.755.641-5.661.731-.1-.251-.194-.5-.289-.754a17.8,17.8,0,0,0-11.016-10.934c-1.972-.718-1.933-.666-1.626-2.8.561-3.9,1.049-7.81,1.566-11.716.29-2.194.586-4.387.86-6.583.071-.57.272-.814.885-.634.567.167,1.163.239,1.74.375a38.6,38.6,0,0,1,17.441,9.2A1.681,1.681,0,0,0-272.361-51.243Zm-7.045,8.319c1.3,0,2.593.012,3.89,0a1.234,1.234,0,0,0,1.333-1.129,1.289,1.289,0,0,0-1.211-1.283,10.259,10.259,0,0,0-1.214-.021c-2.134,0-4.268-.015-6.4.007-.92.01-1.5.54-1.5,1.26s.551,1.16,1.453,1.168C-281.837-42.914-280.621-42.922-279.406-42.924Zm1.616,2.382v0c-.784,0-1.568-.015-2.351,0a1.082,1.082,0,0,0-1.174,1.085,1.07,1.07,0,0,0,.987,1.262,29.025,29.025,0,0,0,5.093.01,1.118,1.118,0,0,0,1.045-1.237,1.194,1.194,0,0,0-1.249-1.124C-276.222-40.559-277.006-40.542-277.79-40.542Z" transform="translate(-94.699 -5.235)" fill="#527071"/>
    <path id="Trazado_632151" data-name="Trazado 632151" d="M-399.086,72.943a19.175,19.175,0,0,1-6.7-2.738,17.64,17.64,0,0,1-7.923-12.993c-.067-.578-.191-.829-.859-.827q-9.9.043-19.809,0c-.674,0-.77.191-.73.82a41.2,41.2,0,0,0,2.287,11.32,39.7,39.7,0,0,0,7.858,13.133c.832.932.848,1.19.336,2.153-.965.454-1.332.4-1.993-.331a41.66,41.66,0,0,1-10.955-26.772c-.09-1.983.677-2.742,2.675-2.748,1.108,0,2.215-.018,3.322-.028l19.006.007c.891.216,1.146.824,1.171,1.688A15.453,15.453,0,0,0-396.359,70.7a1.524,1.524,0,0,1,1.654,1.128c0,2.165-.014,4.331-.011,6.5q.009,6.171.03,12.342l0,.325q-.015,1.782-.03,3.564a2.167,2.167,0,0,1-2.582,2.435,42.089,42.089,0,0,1-20.033-5.914,43.386,43.386,0,0,1-5.829-4.224,1.321,1.321,0,0,1-.271-1.929,1.509,1.509,0,0,1,2.047.225,38.746,38.746,0,0,0,10.755,6.539,36.477,36.477,0,0,0,11.539,2.7c.323.035.646.066.967.1.968.117.969.118.969-.865V74.944C-397.156,73.036-397.156,73.036-399.086,72.943Z" transform="translate(0 -82.969)" fill="#040302"/>
    <path id="Trazado_632152" data-name="Trazado 632152" d="M-400.133,8.116l-19.006-.007q.064-.791.128-1.582a1.414,1.414,0,0,0,1.351-1.448c.087-.8.21-1.609.371-2.4a34.541,34.541,0,0,1,8.121-16.35c.378-.425.557-.454.967-.038q5.331,5.4,10.718,10.749c.447.443.379.686.029,1.108a17.275,17.275,0,0,0-3.238,6.2c-.3,1.015-.165,1.394.736,1.946Q-400.045,7.206-400.133,8.116Z" transform="translate(-12.441 -37.144)" fill="#f2b16c"/>
    <path id="Trazado_632153" data-name="Trazado 632153" d="M-277.981-56.478a1.681,1.681,0,0,1-2.169-.442,38.6,38.6,0,0,0-17.441-9.2c-.577-.136-1.172-.208-1.74-.375-.613-.18-.814.064-.885.634-.273,2.2-.569,4.39-.86,6.583-.517,3.906-1,7.817-1.566,11.716-.307,2.135-.346,2.083,1.626,2.8A17.8,17.8,0,0,1-290-33.827c.1.252.193.5.289.754a4.276,4.276,0,0,1,.138.628c.058.809.379,1.173,1.239.86a5.466,5.466,0,0,1,1.115-.172Q-278.259-33-269.3-34.243c1.534-.214,1.533-.225,1.1-1.76a32.369,32.369,0,0,0-2.363-7.556,37.584,37.584,0,0,0-5.714-9.294,1.887,1.887,0,0,1-.411-2.2c1.258-.472,1.443-.409,2.323.665a41.912,41.912,0,0,1,8.976,19.714,2.069,2.069,0,0,1-1.8,2.573c-1.382.234-2.769.432-4.154.647a34.176,34.176,0,0,0-3.73.51L-290.2-28.819c-1.018-.18-1.242-.443-1.443-1.636a14.85,14.85,0,0,0-2.9-6.7,15.112,15.112,0,0,0-9.491-5.876c-.816-.151-1.445-.471-1.472-1.425.1-.723.2-1.446.292-2.17q1.054-8.083,2.107-16.168l.079-.658c.163-1.122.35-2.242.485-3.367.219-1.828,1.114-2.5,2.907-2.194a41.258,41.258,0,0,1,21.3,10.413C-277.55-57.879-277.482-57.54-277.981-56.478Z" transform="translate(-89.079 0)" fill="#020303"/>
    <path id="Trazado_632154" data-name="Trazado 632154" d="M-402.01-21.938c-.9-.553-1.036-.931-.736-1.946a17.276,17.276,0,0,1,3.238-6.2c.349-.422.418-.665-.029-1.108q-5.392-5.341-10.718-10.749c-.41-.415-.589-.387-.967.038a34.541,34.541,0,0,0-8.121,16.35c-.161.794-.285,1.6-.371,2.4a1.414,1.414,0,0,1-1.351,1.448c-.984-.408-1.214-.757-1.087-1.7a36.484,36.484,0,0,1,4.266-13.237,36.57,36.57,0,0,1,23.15-18.063,35.173,35.173,0,0,1,9.626-1.16c.817.01,1.351.3,1.49,1.148l-.036.5a1.649,1.649,0,0,1-1.646.809,30.426,30.426,0,0,0-6.377.528A34.21,34.21,0,0,0-408.425-44.7c-.546.484-.471.7-.01,1.156q5.267,5.235,10.477,10.525c.459.466.713.567,1.281.1a17.114,17.114,0,0,1,8.5-3.731c1.158-.178,1.515.036,1.922,1.087a1.5,1.5,0,0,1-1.49,1.332,14.435,14.435,0,0,0-5.971,2.166A15.456,15.456,0,0,0-400.4-23.2C-400.642-22.377-401.08-21.857-402.01-21.938Z" transform="translate(-10.388 -8.911)" fill="#030303"/>
    <path id="Trazado_632155" data-name="Trazado 632155" d="M-269.212,50.483c1.133.355,1.293.564,1.3,1.718a36.354,36.354,0,0,1-10.421,26.434,35.832,35.832,0,0,1-20.126,10.676c-.266.047-.53.109-.8.149-.943.142-1.3-.066-1.691-.967q.021-.32.041-.64a1.819,1.819,0,0,1,1.4-.833,27.312,27.312,0,0,0,6.088-1.577A.5.5,0,0,0-293,85.3l.216-.063a5.453,5.453,0,0,0,.617-.172,34.553,34.553,0,0,0,9.858-6c1.079-.945,1.082-.942-.06-1.937q-5.138-5.184-10.268-10.377c-.378-.385-.586-.154-.853.065a17.881,17.881,0,0,1-6.883,3.478c-1.1.291-1.426.174-1.992-.791-.04-1.024.617-1.4,1.474-1.616a15.152,15.152,0,0,0,7.414-4.4,14.928,14.928,0,0,0,3.972-8.081c.178-1.122.423-1.379,1.421-1.554.958.363,1.167.708,1.023,1.713a17.5,17.5,0,0,1-3.742,8.572c-.227.285-.536.5-.1.925q5.1,5.045,10.153,10.131c.142.16.278.326.428.477.762.768.775.776,1.47-.03a33.921,33.921,0,0,0,8.5-23.187C-270.367,51.513-270.2,50.784-269.212,50.483Z" transform="translate(-91.198 -80.642)" fill="#030303"/>
    <path id="Trazado_632156" data-name="Trazado 632156" d="M-224.437,47.8c-.987.3-1.155,1.03-1.146,1.961a33.921,33.921,0,0,1-8.5,23.187c-.7.806-.708.8-1.469.03-.15-.151-.286-.318-.428-.477a.547.547,0,0,0,.419-.208,36.292,36.292,0,0,0,5.938-11.416,34.568,34.568,0,0,0,1.478-7.5,30.97,30.97,0,0,0-.037-6.367,34.176,34.176,0,0,1,3.73-.51Q-224.445,47.146-224.437,47.8Z" transform="translate(-135.974 -77.954)" fill="#72aa9d"/>
    <path id="Trazado_632157" data-name="Trazado 632157" d="M-303.229,165.28q-.02.32-.041.64l-2.545.167q0-.163,0-.325Z" transform="translate(-88.873 -158.068)" fill="#ea915a"/>
    <path id="Trazado_632158" data-name="Trazado 632158" d="M-303.833-51.836l.036-.5a5.6,5.6,0,0,0,1.9.178l-.08.658Z" transform="translate(-90.21 -11.296)" fill="#72aa9d"/>
    <path id="Trazado_632159" data-name="Trazado 632159" d="M-319.336,112.327c1.93.093,1.93.093,1.93,2V133c0,.982,0,.982-.969.865-.322-.039-.645-.07-.968-.1Q-319.34,123.046-319.336,112.327Z" transform="translate(-79.749 -122.353)" fill="#dd4740"/>
    <path id="Trazado_632160" data-name="Trazado 632160" d="M-388.976,104.76c1.243,0,2.486-.011,3.729,0,.9.011,1.439.474,1.446,1.188a1.271,1.271,0,0,1-1.419,1.241q-3.729.034-7.458,0c-.886-.007-1.44-.512-1.448-1.214-.008-.737.556-1.207,1.5-1.217C-391.408,104.75-390.192,104.76-388.976,104.76Z" transform="translate(-29.311 -117.247)" fill="#040302"/>
    <path id="Trazado_632161" data-name="Trazado 632161" d="M-390.51,119.339c.73,0,1.46-.016,2.19,0a1.214,1.214,0,0,1,1.334,1.209,1.178,1.178,0,0,1-1.249,1.212q-2.31.048-4.622,0a1.227,1.227,0,0,1-1.276-1.208,1.25,1.25,0,0,1,1.353-1.212C-392.025,119.323-391.267,119.34-390.51,119.339Z" transform="translate(-29.306 -127.078)" fill="#040302"/>
    <path id="Trazado_632162" data-name="Trazado 632162" d="M-235.467,32.531c.435,1.535.436,1.546-1.1,1.76q-8.958,1.25-17.917,2.486a5.467,5.467,0,0,0-1.115.172c-.86.313-1.181-.05-1.239-.86a4.28,4.28,0,0,0-.138-.628c1.907-.09,3.774-.49,5.661-.731,2.552-.326,5.1-.7,7.644-1.063,2.069-.293,4.138-.6,6.207-.891C-236.8,32.683-236.132,32.612-235.467,32.531Z" transform="translate(-121.815 -68.534)" fill="#45535a"/>
    <path id="Trazado_632163" data-name="Trazado 632163" d="M-253.152-9.875c-1.215,0-2.431.009-3.646,0-.9-.008-1.446-.458-1.453-1.168s.576-1.251,1.5-1.26c2.134-.023,4.268-.008,6.4-.007a10.259,10.259,0,0,1,1.214.021,1.289,1.289,0,0,1,1.211,1.283,1.234,1.234,0,0,1-1.333,1.129C-250.559-9.864-251.856-9.876-253.152-9.875Z" transform="translate(-120.953 -38.283)" fill="#020303"/>
    <path id="Trazado_632164" data-name="Trazado 632164" d="M-244.937,2.493c.784,0,1.568-.017,2.351.005a1.194,1.194,0,0,1,1.249,1.124,1.118,1.118,0,0,1-1.045,1.237,29.024,29.024,0,0,1-5.093-.01,1.07,1.07,0,0,1-.987-1.262A1.082,1.082,0,0,1-247.288,2.5c.783-.02,1.567,0,2.351,0Z" transform="translate(-127.553 -48.27)" fill="#020303"/>
    <path id="Trazado_632165" data-name="Trazado 632165" d="M-303.288,121.112l-2.584.482q-.016-6.171-.03-12.342c0-2.165.007-4.331.011-6.5l1.141,0c.566.966.892,1.082,1.992.791a17.881,17.881,0,0,0,6.883-3.478c.267-.219.474-.45.853-.065q5.116,5.206,10.268,10.377a1.479,1.479,0,0,1-.2.428,29.369,29.369,0,0,1-3.251,3.009,35.664,35.664,0,0,1-6.611,4.282c-.172.082-.343.169-.359.395l-.217.063c-.169-.034-.324-.029-.418.148a27.312,27.312,0,0,1-6.088,1.577A1.819,1.819,0,0,0-303.288,121.112Z" transform="translate(-88.814 -113.899)" fill="#f3b16c"/>
    <path id="Trazado_632166" data-name="Trazado 632166" d="M-341.747,39.708l-1.141,0a1.524,1.524,0,0,0-1.654-1.128,15.453,15.453,0,0,1-15.043-15.069c-.025-.864-.28-1.472-1.171-1.688q.088-.911.176-1.821c.93.081,1.368-.439,1.613-1.261a15.456,15.456,0,0,1,6.679-8.868,14.435,14.435,0,0,1,5.971-2.166,1.5,1.5,0,0,0,1.49-1.331,11.06,11.06,0,0,1,2.055.021c.027.954.656,1.274,1.472,1.425a15.112,15.112,0,0,1,9.491,5.876,14.851,14.851,0,0,1,2.9,6.7c.2,1.193.425,1.456,1.443,1.636q0,1.009,0,2.019c-1,.175-1.243.432-1.421,1.554a14.928,14.928,0,0,1-3.972,8.081,15.152,15.152,0,0,1-7.414,4.4C-341.13,38.309-341.787,38.684-341.747,39.708Zm-2.437-3.083a13.532,13.532,0,0,0,13.512-13.37A13.6,13.6,0,0,0-344.061,9.491,13.606,13.606,0,0,0-357.7,23.009,13.537,13.537,0,0,0-344.184,36.625Z" transform="translate(-51.818 -50.856)" fill="#f5cf83"/>
    <path id="Trazado_632167" data-name="Trazado 632167" d="M-356.491-32.128a11.06,11.06,0,0,0-2.055-.021c-.407-1.051-.765-1.265-1.922-1.087a17.114,17.114,0,0,0-8.5,3.731c-.567.47-.822.37-1.281-.1q-5.21-5.291-10.477-10.525c-.46-.458-.535-.673.01-1.156a34.21,34.21,0,0,1,16.748-8.185A30.426,30.426,0,0,1-357.591-50a1.649,1.649,0,0,0,1.646-.809l1.853.339q-1.053,8.084-2.107,16.168C-356.293-33.574-356.393-32.851-356.491-32.128Z" transform="translate(-38.098 -12.327)" fill="#8bbfab"/>
    <path id="Trazado_632168" data-name="Trazado 632168" d="M-264.8,52.211q0-1.01,0-2.019l15.126-2.126a30.969,30.969,0,0,1,.037,6.367,34.569,34.569,0,0,1-1.478,7.5,36.292,36.292,0,0,1-5.938,11.416.547.547,0,0,1-.419.208q-5.072-5.071-10.153-10.131c-.433-.429-.124-.641.1-.925a17.5,17.5,0,0,0,3.742-8.572C-263.628,52.919-263.837,52.573-264.8,52.211Z" transform="translate(-114.488 -79.011)" fill="#8bbfab"/>
    <path id="Trazado_632169" data-name="Trazado 632169" d="M-272.934,140.417c.015-.226.187-.313.359-.395a35.664,35.664,0,0,0,6.611-4.282,29.371,29.371,0,0,0,3.251-3.009,1.48,1.48,0,0,0,.2-.428c1.142.995,1.14.992.06,1.937a34.553,34.553,0,0,1-9.858,6A5.451,5.451,0,0,1-272.934,140.417Z" transform="translate(-111.05 -135.827)" fill="#ea915a"/>
    <path id="Trazado_632170" data-name="Trazado 632170" d="M-274.884,157.536c.094-.178.249-.182.418-.148A.5.5,0,0,1-274.884,157.536Z" transform="translate(-109.735 -152.733)" fill="#ea915a"/>
    <path id="Trazado_632171" data-name="Trazado 632171" d="M-337.847,43.192a13.537,13.537,0,0,1-13.512-13.615,13.606,13.606,0,0,1,13.636-13.519,13.6,13.6,0,0,1,13.389,13.764A13.532,13.532,0,0,1-337.847,43.192Zm.009-14.708q3.2,0,6.405,0a6.964,6.964,0,0,0,.808-.036,1.094,1.094,0,0,0,1.071-1.109,1.1,1.1,0,0,0-1.01-1.243,4.782,4.782,0,0,0-.805-.057q-6.487,0-12.973,0a4.654,4.654,0,0,0-.805.06,1.091,1.091,0,0,0-.995,1.176,1.086,1.086,0,0,0,1.01,1.16,5.3,5.3,0,0,0,.807.048Q-341.081,28.488-337.837,28.484Zm-.008,4.772c1.324,0,2.648.023,3.971-.008a1.269,1.269,0,0,0,1.352-1.225,1.206,1.206,0,0,0-1.274-1.192c-2.7-.018-5.4-.01-8.1,0a1.14,1.14,0,0,0-1.2.886c-.241.833.341,1.519,1.365,1.54C-340.439,33.279-339.142,33.259-337.845,33.257Z" transform="translate(-58.155 -57.423)" fill="#fae9a9"/>
    <path id="Trazado_632172" data-name="Trazado 632172" d="M-327.024,49.157q-3.243,0-6.486,0a5.3,5.3,0,0,1-.807-.048,1.086,1.086,0,0,1-1.01-1.16,1.091,1.091,0,0,1,.994-1.176,4.655,4.655,0,0,1,.805-.06q6.486-.005,12.973,0a4.782,4.782,0,0,1,.805.057,1.1,1.1,0,0,1,1.01,1.243,1.094,1.094,0,0,1-1.071,1.109,6.964,6.964,0,0,1-.808.036Q-323.821,49.16-327.024,49.157Z" transform="translate(-68.969 -78.096)" fill="#080705"/>
    <path id="Trazado_632173" data-name="Trazado 632173" d="M-320.843,63.842c-1.3,0-2.594.021-3.89-.006-1.023-.021-1.605-.707-1.365-1.54a1.14,1.14,0,0,1,1.2-.886c2.7,0,5.4-.013,8.1,0a1.206,1.206,0,0,1,1.274,1.192,1.269,1.269,0,0,1-1.352,1.225C-318.2,63.864-319.519,63.841-320.843,63.842Z" transform="translate(-75.157 -88.008)" fill="#030303"/>
  </g>
</svg>
