<svg xmlns="http://www.w3.org/2000/svg" width="92" height="92" viewBox="0 0 92 92">
  <g id="Grupo_963290" data-name="Grupo 963290" transform="translate(-743.379 -963.556)">
    <g id="Grupo_963195" data-name="Grupo 963195" transform="translate(308.379 -3377.444)">
      <circle id="Elipse_7706" data-name="Elipse 7706" cx="46" cy="46" r="46" transform="translate(435 4341)" fill="#583cb6"/>
      <g id="Grupo_963286" data-name="Grupo 963286" transform="translate(790.275 4947.515)">
        <path id="Trazado_634993" data-name="Trazado 634993" d="M-271.6-563.062q0,14.988,0,29.976a1.864,1.864,0,0,1-.3,1.36c-.177.2-.065.39-.013.589.759,2.9-.159,5.4-2.472,6.744a5.933,5.933,0,0,1-7.278-1.12q-2.633-2.6-5.222-5.235a1.574,1.574,0,0,0-1.243-.51q-28.948.018-57.9.01c-1.62,0-1.937-.32-1.937-1.955v-59.714c0-1.634.316-1.951,1.938-1.952.848,0,1.7-.028,2.544.011.475.022.7-.087.612-.6a2.445,2.445,0,0,1,0-.476c.021-.995.474-1.465,1.455-1.478.954-.013,1.908,0,2.863,0,6.892,0,13.785.017,20.677-.007a11.593,11.593,0,0,1,8.713,3.542c.482.493.859.452,1.33-.026a11.506,11.506,0,0,1,8.565-3.513c6.945.014,13.891,0,20.836,0,1.347,0,1.777.4,1.719,1.755-.029.679.171.85.823.8.87-.062,1.748-.018,2.623-.015,1.242,0,1.661.422,1.662,1.672Q-271.6-578.13-271.6-563.062Zm-47.086,19.088a18.886,18.886,0,0,1-2.549-4.645.608.608,0,0,0-.7-.452c-1.4.021-2.809.017-4.214.005a1.287,1.287,0,0,1-1.446-1.245c-.016-.779.55-1.284,1.476-1.294.9-.01,1.8,0,2.7,0,1.237,0,1.235,0,1.082-1.194a7.3,7.3,0,0,1-.064-.792c-.007-.42-.17-.586-.623-.57-1.033.037-2.067.02-3.1.009-.922-.01-1.491-.52-1.474-1.3a1.288,1.288,0,0,1,1.448-1.243c1.06-.012,2.12,0,3.181-.007.187,0,.461.11.506-.215a6,6,0,0,0,.2-2.184c-.1-.369-1-.078-1.53-.143-.026,0-.053,0-.079,0a1.277,1.277,0,0,1-1.184-1.265,1.252,1.252,0,0,1,1.182-1.261,4.992,4.992,0,0,1,1.19,0c.911.142,1.5-.109,1.7-1.091a7.2,7.2,0,0,1,.517-1.154c.265-.649,1.053-1.233.864-1.854-.183-.6-.942-1.031-1.451-1.533-.027-.026-.084-.023-.127-.032-.018.016-.052.031-.053.047-.006.53,0,1.06-.014,1.59a1.3,1.3,0,0,1-1.465,1.47q-2.346.018-4.692,0a1.3,1.3,0,0,1-1.476-1.456c-.01-.562,0-1.124,0-1.893-.623.649-1.066,1.143-1.544,1.6a1.261,1.261,0,0,1-2.014-.011q-1.818-1.78-3.6-3.6a1.258,1.258,0,0,1,.013-2.013c.464-.479.967-.921,1.614-1.532-.835,0-1.387.01-1.938,0a1.285,1.285,0,0,1-1.437-1.414q-.023-2.385,0-4.77c.008-.977.486-1.43,1.485-1.446.544-.009,1.088,0,1.861,0-.607-.582-1.069-1-1.506-1.449a1.32,1.32,0,0,1-.007-2.188q1.7-1.725,3.431-3.428a1.336,1.336,0,0,1,2.194-.009,9.518,9.518,0,0,0,1.447,1.337v-.883c0-.265,0-.53,0-.8.019-1,.468-1.479,1.444-1.487q2.386-.02,4.771,0a1.285,1.285,0,0,1,1.418,1.434c.012.566,0,1.132,0,1.7a9.753,9.753,0,0,0,1.528-1.365,1.257,1.257,0,0,1,2.013-.025q1.821,1.776,3.6,3.6a1.283,1.283,0,0,1-.032,2.074c-.449.464-.926.9-1.533,1.49.773,0,1.321-.008,1.868,0a1.3,1.3,0,0,1,1.463,1.47q.018,2.345,0,4.691a1.312,1.312,0,0,1-1.463,1.475,7.457,7.457,0,0,0-1.776.086c.528.512,1.006.935,1.434,1.4a.475.475,0,0,0,.734.078,14.291,14.291,0,0,1,3.043-1.521.746.746,0,0,0,.587-.845q-.027-8.03,0-16.06a1.568,1.568,0,0,0-.355-1.007,8.9,8.9,0,0,0-7.424-3.766c-7.342-.011-14.685.006-22.027-.02-.644,0-.76.189-.759.785q.024,24.686,0,49.372c0,.627.161.771.775.769,6.68-.023,13.359-.015,20.039-.015Zm30.635-22.9c4.578,7.054,5.061,14.144.9,21.428-.083.146-.321.325-.144.485.446.4.708,1.026,1.5,1.006,1.96-.049,3.923-.04,5.884,0,.566.011.688-.146.687-.7q-.024-24.769,0-49.538c0-.562-.141-.691-.694-.689-6.548.021-13.1-.005-19.644.022a8.829,8.829,0,0,0-7.429,3.906,1.156,1.156,0,0,0-.248.722q.01,7.793-.007,15.585c0,.49.191.507.558.435a16.736,16.736,0,0,1,3.239-.3q8.748,0,17.5,0c1.023,0,1.6.441,1.621,1.232.026.818-.575,1.31-1.623,1.311-2.386,0-4.772,0-7.158.009-.176,0-.414-.134-.553.132a18.1,18.1,0,0,1,2.883,2.122,1.138,1.138,0,0,0,.86.287c1.405-.01,2.81-.016,4.215,0a1.269,1.269,0,0,1,1.375,1.235,1.279,1.279,0,0,1-1.391,1.3C-286.481-566.864-287.242-566.877-288.048-566.877Zm-57.362,3.82q0,14.231-.01,28.463c0,.57.07.818.75.817q27.275-.032,54.551-.022c.224,0,.569.131.653-.107a6.562,6.562,0,0,1,.679-1.145c.023-.039-.035-.154-.085-.2-.552-.537-.982-1.114-1.953-1.111q-25.049.058-50.1.028c-1.623,0-1.942-.321-1.942-1.952q0-26.2,0-52.394c0-1.642,0-1.6-1.649-1.657-.716-.023-.915.164-.913.9Q-345.387-577.249-345.41-563.058Zm41.945-8.9a16.555,16.555,0,0,0-16.492,16.487,16.578,16.578,0,0,0,16.395,16.589,16.562,16.562,0,0,0,16.69-16.291A16.543,16.543,0,0,0-303.466-571.962ZM-329.1-570.4a8.428,8.428,0,0,1,1.635.58,1.46,1.46,0,0,1,1.155,1.653c-.028,1.29,0,1.291,1.265,1.291s1.29,0,1.261-1.295a1.473,1.473,0,0,1,1.156-1.655,4.951,4.951,0,0,0,.593-.225c1.283-.548,1.465-.515,2.436.455.916.915.916.915,1.817.014,1.1-1.1,1.122-1.123.005-2.2a1.54,1.54,0,0,1-.355-2.063,4.349,4.349,0,0,0,.246-.585c.456-1.227.635-1.351,1.984-1.352,1.035,0,1.035,0,1.035-1.053,0-1.45,0-1.461-1.471-1.487-.581-.01-1.137-.174-1.287-.732-.247-.923-1.2-1.729-.546-2.823a1.771,1.771,0,0,1,.15-.185c.389-.491,1.267-.851,1.168-1.388s-.837-.967-1.295-1.443a1.032,1.032,0,0,1-.112-.113c-.294-.42-.582-.387-.861.012a2.281,2.281,0,0,1-3.472.724.573.573,0,0,0-.146-.062,1.375,1.375,0,0,1-1.044-1.488c0-1.414-.02-1.414-1.463-1.414a.415.415,0,0,1-.079,0c-.84-.162-1.057.2-1.016,1.014.069,1.384-.082,1.529-1.389,2.021-.1.037-.195.083-.292.124-1.338.569-1.494.54-2.5-.467-.888-.887-.888-.887-1.761-.015-1.126,1.125-1.143,1.143-.005,2.259a1.519,1.519,0,0,1,.343,2,4.834,4.834,0,0,0-.252.583c-.473,1.26-.65,1.387-1.959,1.388-1.072,0-1.072,0-1.072,1.1,0,1.418,0,1.43,1.435,1.444.577.005,1.141.142,1.3.7.269.919,1.19,1.725.581,2.823a2.187,2.187,0,0,1-.2.25c-.377.489-1.246.814-1.13,1.394.1.522.817.923,1.261,1.378a1.673,1.673,0,0,1,.167.17c.28.387.526.317.81-.015s.592-.606.895-.9A1.268,1.268,0,0,1-329.1-570.4Zm54.764,35.973.193-.122V-590.6c0-1.732,0-1.682-1.722-1.749-.764-.029-.837.258-.835.9q.029,12.086.012,24.173,0,14.83,0,29.659c0,.33-.086.672.211.967C-275.745-535.923-275.047-535.169-274.337-534.427Zm.2,5.254a3.553,3.553,0,0,0-.988-2.51c-2.085-2.105-4.19-4.192-6.274-6.3-.291-.294-.467-.308-.759,0-.918.953-1.874,1.868-2.8,2.817-.437.45-1.217.825-1.21,1.38s.775.933,1.217,1.379c1.731,1.749,3.456,3.5,5.226,5.214a3.23,3.23,0,0,0,3.723.764A2.977,2.977,0,0,0-274.135-529.173Zm-38.829-9.711a19.545,19.545,0,0,1-2.87-2.08,1.7,1.7,0,0,0-1.271-.474q-10.65.022-21.3.01c-1.94,0-1.918,0-1.928,1.908,0,.524.143.65.656.648,4.928-.019,9.856-.012,14.783-.012Zm26.16,1.909c.093-.082.214-.179.323-.287.413-.408.8-.843,1.239-1.224.364-.317.281-.527-.028-.82-.708-.672-1.374-1.389-2.082-2.062-.53-.5-.976-1.429-1.6-1.4-.536.029-1.007.907-1.545,1.367-.358.306-.423.5-.044.866,1.107,1.057,2.173,2.157,3.259,3.237C-287.159-537.169-287.062-536.992-286.8-536.975Zm7.533-2.351c.1-2.125.1-2.126-1.724-2.1-.068,0-.134.032-.09.021Zm-3.055-2.044h-1.318C-283.2-540.463-282.783-540.9-282.326-541.371Z" transform="translate(0 0)" fill="#010101"/>
        <path id="Trazado_634994" data-name="Trazado 634994" d="M-302.392-538.553h-.837c-6.68,0-13.359-.009-20.039.015-.614,0-.776-.142-.775-.769q.028-24.687,0-49.372c0-.6.115-.788.759-.785,7.342.026,14.685.009,22.027.02a8.9,8.9,0,0,1,7.424,3.766,1.568,1.568,0,0,1,.355,1.007q-.023,8.03,0,16.06a.746.746,0,0,1-.587.845,14.285,14.285,0,0,0-3.043,1.521.475.475,0,0,1-.734-.078c-.428-.469-.905-.892-1.434-1.4a7.463,7.463,0,0,1,1.776-.086,1.312,1.312,0,0,0,1.463-1.475q.018-2.345,0-4.691a1.3,1.3,0,0,0-1.463-1.47c-.548-.01-1.1,0-1.868,0,.607-.588,1.084-1.026,1.533-1.49a1.283,1.283,0,0,0,.032-2.074q-1.78-1.818-3.6-3.6a1.257,1.257,0,0,0-2.013.025,9.741,9.741,0,0,1-1.528,1.365c0-.566.01-1.133,0-1.7a1.285,1.285,0,0,0-1.418-1.434q-2.385-.022-4.771,0c-.976.008-1.425.487-1.444,1.487,0,.265,0,.53,0,.8v.883a9.515,9.515,0,0,1-1.447-1.337,1.336,1.336,0,0,0-2.194.009q-1.725,1.7-3.431,3.428a1.32,1.32,0,0,0,.007,2.188c.438.445.9.866,1.506,1.449-.773,0-1.317-.007-1.861,0-1,.016-1.477.469-1.485,1.446q-.02,2.385,0,4.771a1.285,1.285,0,0,0,1.437,1.414c.551.012,1.1,0,1.938,0-.647.611-1.15,1.053-1.614,1.532a1.258,1.258,0,0,0-.013,2.013q1.778,1.82,3.6,3.6a1.261,1.261,0,0,0,2.014.011c.478-.457.92-.951,1.544-1.6,0,.77-.009,1.332,0,1.893a1.3,1.3,0,0,0,1.476,1.456q2.346.017,4.692,0a1.3,1.3,0,0,0,1.465-1.47c.011-.53.008-1.06.014-1.59,0-.016.034-.031.053-.047.043.01.1.006.127.032.509.5,1.268.93,1.451,1.533.189.621-.6,1.2-.864,1.854a7.192,7.192,0,0,0-.517,1.154c-.2.981-.792,1.232-1.7,1.091a5,5,0,0,0-1.19,0,1.252,1.252,0,0,0-1.182,1.261,1.277,1.277,0,0,0,1.184,1.265c.026,0,.053,0,.079,0,.534.065,1.433-.225,1.53.143a6.005,6.005,0,0,1-.2,2.184c-.045.325-.319.214-.506.215-1.06.009-2.121,0-3.181.007a1.288,1.288,0,0,0-1.448,1.243c-.017.777.552,1.288,1.474,1.3,1.034.011,2.068.028,3.1-.009.453-.016.615.151.623.571a7.33,7.33,0,0,0,.064.792c.152,1.194.155,1.194-1.082,1.194-.9,0-1.8-.008-2.7,0-.926.011-1.491.515-1.476,1.294a1.287,1.287,0,0,0,1.446,1.245c1.4.012,2.81.016,4.214-.005a.607.607,0,0,1,.7.452A18.886,18.886,0,0,0-302.392-538.553Zm-19.092-11.477c0,1.614-.006,3.229,0,4.843.005,1.085.459,1.537,1.547,1.542q2.263.011,4.527,0c1.092-.005,1.555-.456,1.558-1.533q.01-4.843,0-9.686c0-1.033-.472-1.494-1.508-1.5-1.509-.009-3.018-.006-4.526,0-1.148,0-1.592.44-1.6,1.572C-321.488-553.205-321.483-551.617-321.483-550.029Z" transform="translate(-16.292 -5.421)" fill="#e9edf0"/>
        <path id="Trazado_634995" data-name="Trazado 634995" d="M-201.02-561.449c.805,0,1.567.013,2.328,0a1.279,1.279,0,0,0,1.391-1.3,1.269,1.269,0,0,0-1.375-1.235c-1.4-.017-2.81-.011-4.215,0a1.137,1.137,0,0,1-.86-.287,18.109,18.109,0,0,0-2.883-2.122c.139-.266.376-.131.553-.132,2.386-.012,4.772-.005,7.158-.009,1.048,0,1.649-.493,1.623-1.311-.025-.791-.6-1.232-1.621-1.232q-8.748,0-17.5,0a16.732,16.732,0,0,0-3.239.3c-.367.072-.56.055-.558-.435q.029-7.793.007-15.585a1.156,1.156,0,0,1,.248-.722,8.829,8.829,0,0,1,7.429-3.906c6.548-.027,13.1,0,19.644-.022.553,0,.7.127.694.689q-.025,24.769,0,49.538c0,.551-.121.708-.687.7-1.961-.039-3.924-.048-5.884,0-.795.02-1.056-.6-1.5-1.006-.177-.16.061-.339.144-.485C-195.958-547.3-196.441-554.4-201.02-561.449Zm-1.368-10.179c1.217,0,2.435.011,3.652,0a1.281,1.281,0,0,0,1.435-1.413q.024-2.381,0-4.763a1.293,1.293,0,0,0-1.475-1.452q-3.612-.014-7.225,0a1.291,1.291,0,0,0-1.474,1.451q-.019,2.342,0,4.684c.007,1.028.475,1.486,1.514,1.494C-204.769-571.621-203.579-571.628-202.387-571.628Zm-.006-10.179c1.217,0,2.433.009,3.65,0a1.291,1.291,0,0,0,1.443-1.244c.017-.776-.551-1.292-1.471-1.3q-3.61-.013-7.22,0c-.926,0-1.49.507-1.482,1.283s.571,1.252,1.509,1.258C-204.774-581.8-203.584-581.807-202.394-581.807Zm-11.442,2.544c-.819,0-1.639-.015-2.458,0a1.266,1.266,0,0,0-1.36,1.243,1.252,1.252,0,0,0,1.311,1.29q2.5.033,5,0a1.255,1.255,0,0,0,1.322-1.281,1.266,1.266,0,0,0-1.351-1.253C-212.2-579.278-213.016-579.263-213.836-579.263Zm0,7.635c.793,0,1.586.011,2.379,0a1.289,1.289,0,0,0,1.434-1.253,1.272,1.272,0,0,0-1.4-1.286q-2.419-.022-4.837,0a1.269,1.269,0,0,0-1.393,1.289,1.287,1.287,0,0,0,1.436,1.25C-215.425-571.617-214.632-571.628-213.839-571.628Zm1.268-12.724c-.422,0-.846-.019-1.267,0a1.259,1.259,0,0,0-1.27,1.249,1.243,1.243,0,0,0,1.237,1.279c.87.034,1.743.035,2.613,0a1.245,1.245,0,0,0,1.232-1.285,1.263,1.263,0,0,0-1.278-1.243C-211.725-584.37-212.149-584.351-212.571-584.351Z" transform="translate(-87.028 -5.428)" fill="#e9edf0"/>
        <path id="Trazado_634996" data-name="Trazado 634996" d="M-340.006-552.2q0-14.191-.018-28.383c0-.737.2-.924.913-.9,1.648.052,1.649.015,1.649,1.657q0,26.2,0,52.394c0,1.631.319,1.952,1.942,1.952q25.049,0,50.1-.028c.971,0,1.4.574,1.953,1.111.05.049.108.164.085.2a6.557,6.557,0,0,0-.679,1.145c-.083.238-.429.107-.653.107q-27.275.008-54.551.022c-.68,0-.751-.246-.75-.817Q-339.994-537.969-340.006-552.2Z" transform="translate(-5.404 -10.857)" fill="#d85047"/>
        <path id="Trazado_634997" data-name="Trazado 634997" d="M-243.616-517.539a16.543,16.543,0,0,1,16.593,16.785,16.562,16.562,0,0,1-16.69,16.291,16.578,16.578,0,0,1-16.395-16.589A16.555,16.555,0,0,1-243.616-517.539Zm-13.945,16.516a14,14,0,0,0,14.076,14.013A14.011,14.011,0,0,0-229.566-501.1a14.025,14.025,0,0,0-13.96-13.9A14.008,14.008,0,0,0-257.561-501.023Z" transform="translate(-59.85 -54.423)" fill="#4e94de"/>
        <path id="Trazado_634998" data-name="Trazado 634998" d="M-301.9-548.707a1.268,1.268,0,0,0-1,.409c-.3.3-.62.582-.895.9s-.53.4-.81.015a1.679,1.679,0,0,0-.167-.17c-.444-.454-1.156-.855-1.261-1.378-.116-.58.753-.9,1.13-1.394a2.194,2.194,0,0,0,.2-.25c.609-1.1-.312-1.9-.581-2.823-.164-.559-.728-.7-1.3-.7-1.435-.014-1.435-.026-1.435-1.444,0-1.095,0-1.095,1.072-1.1,1.309,0,1.486-.128,1.959-1.388a4.833,4.833,0,0,1,.252-.583,1.519,1.519,0,0,0-.343-2c-1.138-1.116-1.121-1.134.005-2.259.873-.872.873-.872,1.761.015,1.008,1.007,1.165,1.036,2.5.467.1-.041.193-.087.292-.124,1.308-.491,1.458-.637,1.389-2.021-.041-.813.175-1.176,1.016-1.014a.415.415,0,0,0,.079,0c1.443,0,1.459,0,1.463,1.414a1.375,1.375,0,0,0,1.044,1.488.574.574,0,0,1,.146.062,2.281,2.281,0,0,0,3.472-.724c.279-.4.567-.432.861-.012a1.032,1.032,0,0,0,.112.113c.458.476,1.2.9,1.295,1.443s-.779.9-1.168,1.388a1.778,1.778,0,0,0-.15.185c-.652,1.094.3,1.9.546,2.823.149.558.705.722,1.287.732,1.471.026,1.471.037,1.471,1.487,0,1.052,0,1.052-1.035,1.053-1.349,0-1.528.124-1.984,1.352a4.349,4.349,0,0,1-.246.585,1.54,1.54,0,0,0,.355,2.063c1.117,1.079,1.1,1.1-.005,2.2-.9.9-.9.9-1.817-.014-.971-.97-1.153-1-2.436-.455a4.941,4.941,0,0,1-.593.225,1.473,1.473,0,0,0-1.156,1.655c.029,1.294,0,1.295-1.261,1.295s-1.293,0-1.265-1.291a1.461,1.461,0,0,0-1.155-1.653A8.43,8.43,0,0,0-301.9-548.707Zm-1.038-6.672a5.1,5.1,0,0,0,5.093,5.106,5.109,5.109,0,0,0,5.088-5.117,5.1,5.1,0,0,0-5.057-5.062A5.094,5.094,0,0,0-302.934-555.379Z" transform="translate(-27.204 -21.694)" fill="#4e95df"/>
        <path id="Trazado_634999" data-name="Trazado 634999" d="M-122.019-523.582c-.71-.742-1.409-1.5-2.136-2.221-.3-.3-.211-.637-.211-.967q-.007-14.83,0-29.659,0-12.087-.012-24.173c0-.641.071-.929.835-.9,1.72.066,1.722.017,1.722,1.749v56.05Z" transform="translate(-152.317 -10.845)" fill="#d85047"/>
        <path id="Trazado_635000" data-name="Trazado 635000" d="M-142.041-402.6a2.976,2.976,0,0,1-1.861,2.74,3.23,3.23,0,0,1-3.723-.764c-1.77-1.71-3.495-3.466-5.226-5.214-.442-.447-1.21-.829-1.217-1.379s.773-.93,1.21-1.38c.921-.949,1.878-1.864,2.8-2.817.293-.3.469-.29.759,0,2.083,2.108,4.188,4.194,6.274,6.3A3.553,3.553,0,0,1-142.041-402.6Z" transform="translate(-132.093 -126.575)" fill="#4e96e0"/>
        <path id="Trazado_635001" data-name="Trazado 635001" d="M-296.67-419.213H-308.6c-4.928,0-9.856-.008-14.783.012-.513,0-.659-.124-.656-.648.01-1.908-.011-1.908,1.928-1.908q10.65,0,21.3-.01a1.7,1.7,0,0,1,1.271.474A19.543,19.543,0,0,0-296.67-419.213Z" transform="translate(-16.294 -119.672)" fill="#d9dbdd"/>
        <path id="Trazado_635002" data-name="Trazado 635002" d="M-164.626-420.137c-.258-.016-.355-.193-.481-.319-1.086-1.079-2.152-2.179-3.259-3.237-.379-.362-.314-.56.044-.866.537-.459,1.009-1.337,1.545-1.367.629-.034,1.074.892,1.6,1.4.708.673,1.373,1.39,2.082,2.062.309.293.392.5.028.82-.437.381-.826.815-1.239,1.224C-164.412-420.316-164.532-420.219-164.626-420.137Z" transform="translate(-122.179 -116.838)" fill="#3d77b1"/>
        <path id="Trazado_635003" data-name="Trazado 635003" d="M-136.356-419.639l-1.814-2.079c-.045.011.022-.019.09-.021C-136.261-421.765-136.261-421.764-136.356-419.639Z" transform="translate(-142.915 -119.688)" fill="#d9dbdd"/>
        <path id="Trazado_635004" data-name="Trazado 635004" d="M-144.851-421.554c-.457.474-.872.908-1.318,0Z" transform="translate(-137.475 -119.817)" fill="#d9dbdd"/>
        <path id="Trazado_635005" data-name="Trazado 635005" d="M-316.015-479.285c0-1.588,0-3.176,0-4.764,0-1.132.448-1.568,1.6-1.572,1.509-.005,3.018-.008,4.526,0,1.036.006,1.506.468,1.508,1.5q.011,4.843,0,9.686c0,1.078-.466,1.528-1.558,1.533q-2.263.01-4.527,0c-1.088-.005-1.542-.457-1.547-1.542C-316.021-476.056-316.015-477.67-316.015-479.285Zm5.09.106v-1.983c0-1.973,0-1.957-1.985-1.927-.448.007-.576.128-.57.575.025,1.719.01,3.438.01,5.156,0,2.027,0,2.015,2.065,1.925.379-.017.5-.115.488-.494C-310.94-477.01-310.925-478.094-310.925-479.178Z" transform="translate(-21.759 -76.166)" fill="#010101"/>
        <path id="Trazado_635006" data-name="Trazado 635006" d="M-175.17-549.849c-1.191,0-2.382.007-3.573,0-1.039-.008-1.507-.467-1.514-1.494q-.015-2.342,0-4.684a1.291,1.291,0,0,1,1.474-1.451q3.612-.014,7.225,0a1.293,1.293,0,0,1,1.475,1.452q.019,2.381,0,4.763a1.281,1.281,0,0,1-1.435,1.413C-172.735-549.838-173.953-549.849-175.17-549.849Zm.065-5.089h-.634c-2.1,0-2.095,0-1.982,2.081.017.313.054.476.428.471,1.427-.019,2.854-.008,4.281-.009.183,0,.391.026.385-.256a6.233,6.233,0,0,0-.119-2.174c-.147-.35-1.021-.071-1.566-.11C-174.575-554.954-174.841-554.938-175.1-554.938Z" transform="translate(-114.246 -27.207)" fill="#010101"/>
        <path id="Trazado_635007" data-name="Trazado 635007" d="M-175.156-570.908c-1.19,0-2.38.007-3.57,0-.938-.007-1.5-.485-1.509-1.258s.556-1.28,1.482-1.283q3.61-.012,7.22,0c.92,0,1.487.519,1.471,1.3a1.29,1.29,0,0,1-1.443,1.244C-172.723-570.9-173.939-570.908-175.156-570.908Z" transform="translate(-114.266 -16.327)" fill="#010203"/>
        <path id="Trazado_635008" data-name="Trazado 635008" d="M-208.362-557.487c.819,0,1.639-.016,2.458,0a1.266,1.266,0,0,1,1.351,1.253,1.255,1.255,0,0,1-1.322,1.281q-2.5.032-5,0a1.252,1.252,0,0,1-1.311-1.29,1.266,1.266,0,0,1,1.36-1.243C-210-557.5-209.182-557.487-208.362-557.487Z" transform="translate(-92.502 -27.203)" fill="#030303"/>
        <path id="Trazado_635009" data-name="Trazado 635009" d="M-208.366-538.976c-.793,0-1.586.01-2.379,0a1.287,1.287,0,0,1-1.436-1.25,1.269,1.269,0,0,1,1.393-1.289q2.419-.022,4.837,0a1.272,1.272,0,0,1,1.4,1.286,1.289,1.289,0,0,1-1.434,1.253C-206.78-538.966-207.573-538.976-208.366-538.976Z" transform="translate(-92.502 -38.079)" fill="#030303"/>
        <path id="Trazado_635010" data-name="Trazado 635010" d="M-201.656-573.457c.422,0,.846-.019,1.267,0a1.263,1.263,0,0,1,1.278,1.243,1.245,1.245,0,0,1-1.232,1.285c-.87.035-1.743.035-2.613,0a1.243,1.243,0,0,1-1.237-1.279,1.259,1.259,0,0,1,1.27-1.249C-202.5-573.476-202.078-573.457-201.656-573.457Z" transform="translate(-97.944 -16.322)" fill="#030303"/>
        <path id="Trazado_635011" data-name="Trazado 635011" d="M-252.115-495.591a14.008,14.008,0,0,1,14.035-13.975,14.025,14.025,0,0,1,13.96,13.9,14.011,14.011,0,0,1-13.919,14.093A14,14,0,0,1-252.115-495.591Zm13.995,11.471a11.481,11.481,0,0,0,11.454-11.33,11.471,11.471,0,0,0-11.371-11.571,11.464,11.464,0,0,0-11.531,11.408A11.468,11.468,0,0,0-238.12-484.12Z" transform="translate(-65.295 -59.855)" fill="#020304"/>
        <path id="Trazado_635012" data-name="Trazado 635012" d="M-292.052-544.418a5.094,5.094,0,0,1,5.124-5.073,5.1,5.1,0,0,1,5.057,5.062,5.109,5.109,0,0,1-5.088,5.117A5.1,5.1,0,0,1-292.052-544.418Zm5.128-2.527a2.553,2.553,0,0,0-2.582,2.544,2.563,2.563,0,0,0,2.5,2.542,2.554,2.554,0,0,0,2.581-2.544A2.557,2.557,0,0,0-286.924-546.945Z" transform="translate(-38.087 -32.655)" fill="#010203"/>
        <path id="Trazado_635013" data-name="Trazado 635013" d="M-305.5-473.77c0,1.084-.015,2.169.008,3.252.008.379-.109.478-.488.494-2.065.09-2.065.1-2.065-1.925,0-1.719.015-3.438-.01-5.156-.006-.447.121-.568.57-.575,1.985-.03,1.985-.046,1.985,1.927Z" transform="translate(-27.184 -81.574)" fill="#c2c5c6"/>
        <path id="Trazado_635014" data-name="Trazado 635014" d="M-169.751-549.63c.264,0,.529-.016.792,0,.545.039,1.419-.24,1.566.11a6.232,6.232,0,0,1,.119,2.174c.006.282-.2.256-.385.256-1.427,0-2.854-.011-4.281.009-.374.005-.411-.158-.428-.471-.113-2.081-.12-2.081,1.982-2.081Z" transform="translate(-119.599 -32.516)" fill="#c2c5c6"/>
        <path id="Trazado_635015" data-name="Trazado 635015" d="M-232.678-478.678a11.468,11.468,0,0,1-11.449-11.492A11.464,11.464,0,0,1-232.6-501.579a11.471,11.471,0,0,1,11.371,11.571A11.481,11.481,0,0,1-232.678-478.678Z" transform="translate(-70.737 -65.297)" fill="#e8ecef"/>
        <path id="Trazado_635016" data-name="Trazado 635016" d="M-281.479-541.5a2.557,2.557,0,0,1,2.5,2.542,2.554,2.554,0,0,1-2.581,2.544,2.563,2.563,0,0,1-2.5-2.542A2.553,2.553,0,0,1-281.479-541.5Z" transform="translate(-43.531 -38.098)" fill="#e5e8eb"/>
      </g>
    </g>
  </g>
</svg>
