<svg xmlns="http://www.w3.org/2000/svg" width="102" height="102" viewBox="0 0 102 102">
  <g id="Grupo_964907" data-name="Grupo 964907" transform="translate(-750 -11599.627)">
    <circle id="Elipse_7776" data-name="Elipse 7776" cx="51" cy="51" r="51" transform="translate(750 11599.627)" fill="#449c6e"/>
    <g id="Grupo_964900" data-name="Grupo 964900" transform="translate(172.399 11113.38)">
      <path id="Trazado_636135" data-name="Trazado 636135" d="M632.737,516.846c0-1.682-.008-3.365,0-5.048a5.683,5.683,0,1,1,11.364-.168.681.681,0,0,0,.483.722,8.163,8.163,0,0,1,4.388,4.309q6.2,13.761,12.487,27.483a28.118,28.118,0,0,1,2.166,5.216,15.64,15.64,0,1,1-30.722,5.723,40.249,40.249,0,0,1-.154-5.892c0-.475-.138-.577-.59-.574q-4.551.03-9.1,0c-.482,0-.567.146-.573.591a40.593,40.593,0,0,1-.25,6.523,15.64,15.64,0,0,1-30.663.465,14.429,14.429,0,0,1,1.151-9.956c1.729-3.418,3.248-6.928,4.843-10.4q4.4-9.6,8.717-19.232a8.091,8.091,0,0,1,4.358-4.246.675.675,0,0,0,.488-.718,5.663,5.663,0,0,1,5.78-5.663,5.728,5.728,0,0,1,5.583,5.82q.03,5.3-.009,10.593c0,.522.109.666.65.66,3.01-.031,6.021-.025,9.032,0,.46,0,.591-.111.584-.579C632.721,520.59,632.737,518.718,632.737,516.846Zm-13.065,36.03a12.8,12.8,0,1,0-12.756,12.813A12.792,12.792,0,0,0,619.673,552.876Zm41.534.05A12.8,12.8,0,1,0,648.4,565.689,12.773,12.773,0,0,0,661.207,552.926Zm-5.242-13.748a2.018,2.018,0,0,0-.052-.3q-3.058-6.753-6.118-13.506a1.4,1.4,0,0,0-.438-.544,8.31,8.31,0,0,0-4.851-1.788,8.545,8.545,0,0,0-8.913,8.526c-.04,3.909-.011,7.819,0,11.728,0,.136-.11.33.12.419a15.746,15.746,0,0,1,20.257-4.539Zm-36.426,4.556c.215-.2.1-.451.105-.664q.013-5.544.006-11.089a11.243,11.243,0,0,0-.115-1.627,8.519,8.519,0,0,0-13.447-5.684,2.215,2.215,0,0,0-.751.912q-2.922,6.465-5.854,12.925c-.079.174-.264.347-.117.629a15.726,15.726,0,0,1,20.172,4.6Zm13.2-10.678c0-2.18-.012-4.36.01-6.54,0-.458-.058-.659-.6-.654-3.034.028-6.068.022-9.1,0-.423,0-.564.088-.562.542q.028,6.575,0,13.151c0,.454.138.545.562.543,3.034-.017,6.068-.024,9.1,0,.538,0,.6-.195.6-.653C632.724,537.321,632.737,535.189,632.737,533.056Zm2.826-9.039a11.59,11.59,0,0,1,12.11-3.294c-.26-.583-.469-1.1-.721-1.606a11.387,11.387,0,0,0-1.276-2.518,5.662,5.662,0,0,0-9.948,2.474A32.462,32.462,0,0,0,635.563,524.017ZM619.649,524c0-1.356,0-2.587,0-3.818a5.111,5.111,0,0,0-.3-1.741,5.493,5.493,0,0,0-4.568-3.868,5.313,5.313,0,0,0-5.268,2.112,24.527,24.527,0,0,0-1.971,4.05A11.564,11.564,0,0,1,619.649,524Zm7.931,21.785c1.564,0,3.128-.011,4.692.008.369,0,.491-.092.474-.47-.031-.662-.024-1.327,0-1.989.01-.312-.087-.4-.4-.4q-4.727.016-9.455,0c-.309,0-.412.08-.4.4a19.032,19.032,0,0,1,0,1.918c-.029.442.1.555.545.546C624.547,545.763,626.064,545.782,627.58,545.782Zm-7.937-31.966c0-.873.038-1.605-.008-2.332a2.839,2.839,0,0,0-5.627-.345c-.044.244-.16.514.292.532A8.671,8.671,0,0,1,619.643,513.816Zm15.943,0a8.674,8.674,0,0,1,5.338-2.15c.517-.022.334-.345.281-.592a2.844,2.844,0,0,0-3.013-2.258,2.875,2.875,0,0,0-2.6,2.731C635.559,512.256,635.587,512.966,635.587,513.82Z" fill="#020202"/>
      <path id="Trazado_636136" data-name="Trazado 636136" d="M626.965,638.5a12.8,12.8,0,1,1-12.787-12.781A12.794,12.794,0,0,1,626.965,638.5Zm-2.843-.131a8.076,8.076,0,0,0-.167-1.731,9.741,9.741,0,0,0-3.508-5.836,1.379,1.379,0,0,0-1.974.157,1.4,1.4,0,0,0,.122,1.978c.116.118.248.22.37.333a7.106,7.106,0,0,1-4.541,12.348c-1.031.044-1.684.608-1.673,1.444.011.871.708,1.423,1.772,1.4A9.99,9.99,0,0,0,624.122,638.367Zm-8.538-8.327a1.4,1.4,0,0,0-1.383-1.478,1.42,1.42,0,1,0-.046,2.84A1.4,1.4,0,0,0,615.584,630.04Z" transform="translate(-7.293 -85.622)" fill="#fdfdfd"/>
      <path id="Trazado_636137" data-name="Trazado 636137" d="M772.718,638.548a12.8,12.8,0,1,1-12.8-12.831A12.8,12.8,0,0,1,772.718,638.548Zm-2.842-.816a9.526,9.526,0,0,0-3.5-6.8,1.488,1.488,0,0,0-1.356-.443,1.38,1.38,0,0,0-1.11,1.072,1.634,1.634,0,0,0,.73,1.651,7,7,0,0,1,1.95,7.755,7.108,7.108,0,0,1-6.443,4.652c-1.014.044-1.674.632-1.645,1.467s.709,1.393,1.722,1.38C765.5,648.4,769.865,643.909,769.875,637.732Zm-8.54-7.737a1.4,1.4,0,0,0-1.428-1.432,1.42,1.42,0,1,0,.044,2.84A1.4,1.4,0,0,0,761.336,629.995Z" transform="translate(-111.511 -85.622)" fill="#fdfdfd"/>
      <path id="Trazado_636138" data-name="Trazado 636138" d="M767.361,582a15.746,15.746,0,0,0-20.257,4.539c-.23-.089-.119-.283-.12-.419-.006-3.909-.036-7.819,0-11.728a8.545,8.545,0,0,1,8.913-8.526,8.309,8.309,0,0,1,4.851,1.788,1.4,1.4,0,0,1,.438.544q3.057,6.754,6.118,13.506A2.013,2.013,0,0,1,767.361,582Z" transform="translate(-111.396 -42.821)" fill="#96c48f"/>
      <path id="Trazado_636139" data-name="Trazado 636139" d="M639.976,586.538a15.726,15.726,0,0,0-20.172-4.6c-.147-.282.039-.455.117-.629q2.92-6.466,5.854-12.925a2.215,2.215,0,0,1,.751-.912,8.519,8.519,0,0,1,13.447,5.684,11.252,11.252,0,0,1,.115,1.627q0,5.544-.006,11.089C640.081,586.088,640.191,586.336,639.976,586.538Z" transform="translate(-20.436 -42.804)" fill="#96c48f"/>
      <path id="Trazado_636140" data-name="Trazado 636140" d="M711.321,582.965c0,2.133-.012,4.265.01,6.4,0,.458-.058.658-.6.653-3.034-.028-6.068-.022-9.1,0-.424,0-.564-.089-.562-.543q.027-6.576,0-13.151c0-.454.139-.545.562-.542,3.034.017,6.068.024,9.1,0,.539,0,.6.2.6.654C711.309,578.605,711.321,580.785,711.321,582.965Z" transform="translate(-78.584 -49.909)" fill="#96c58f"/>
      <path id="Trazado_636141" data-name="Trazado 636141" d="M746.927,545.383a32.455,32.455,0,0,1,.166-4.944,5.662,5.662,0,0,1,9.948-2.474,11.388,11.388,0,0,1,1.276,2.518c.252.5.461,1.024.721,1.606A11.59,11.59,0,0,0,746.927,545.383Z" transform="translate(-111.364 -21.366)" fill="#fcfcfc"/>
      <path id="Trazado_636142" data-name="Trazado 636142" d="M660.737,545.388a11.564,11.564,0,0,0-12.106-3.265,24.527,24.527,0,0,1,1.971-4.05,5.313,5.313,0,0,1,5.268-2.112,5.493,5.493,0,0,1,4.568,3.868,5.112,5.112,0,0,1,.3,1.741C660.736,542.8,660.737,544.032,660.737,545.388Z" transform="translate(-41.088 -21.392)" fill="#fcfcfc"/>
      <path id="Trazado_636143" data-name="Trazado 636143" d="M706.156,638.523c-1.517,0-3.034-.018-4.549.011-.441.009-.573-.1-.545-.546a19.052,19.052,0,0,0,0-1.918c-.011-.316.092-.4.4-.4q4.727.015,9.455,0c.312,0,.409.087.4.4-.022.663-.029,1.327,0,1.989.018.377-.1.474-.474.47C709.284,638.512,707.72,638.523,706.156,638.523Z" transform="translate(-78.575 -92.742)" fill="#fefefe"/>
      <path id="Trazado_636144" data-name="Trazado 636144" d="M676.838,520.941a8.671,8.671,0,0,0-5.343-2.145c-.452-.018-.336-.289-.292-.532a2.839,2.839,0,0,1,5.627.345C676.877,519.336,676.838,520.068,676.838,520.941Z" transform="translate(-57.195 -7.125)" fill="#94c28d"/>
      <path id="Trazado_636145" data-name="Trazado 636145" d="M747.016,520.941c0-.854-.027-1.563.006-2.27a2.875,2.875,0,0,1,2.6-2.731,2.844,2.844,0,0,1,3.013,2.258c.053.247.236.571-.281.592A8.674,8.674,0,0,0,747.016,520.941Z" transform="translate(-111.43 -7.122)" fill="#94c28d"/>
      <path id="Trazado_636146" data-name="Trazado 636146" d="M652.685,650.262a9.99,9.99,0,0,1-9.6,10.1c-1.064.019-1.761-.533-1.772-1.4-.011-.836.642-1.4,1.673-1.444a7.106,7.106,0,0,0,4.541-12.348c-.122-.113-.253-.215-.37-.333a1.4,1.4,0,0,1-.122-1.978,1.378,1.378,0,0,1,1.974-.157,9.742,9.742,0,0,1,3.508,5.836A8.077,8.077,0,0,1,652.685,650.262Z" transform="translate(-35.856 -97.516)" fill="#040404"/>
      <path id="Trazado_636147" data-name="Trazado 636147" d="M644.141,637.178a1.4,1.4,0,0,1-1.429,1.362,1.42,1.42,0,1,1,.046-2.84A1.4,1.4,0,0,1,644.141,637.178Z" transform="translate(-35.85 -92.76)" fill="#070707"/>
      <path id="Trazado_636148" data-name="Trazado 636148" d="M798.438,649.619c-.011,6.177-4.376,10.667-9.65,10.732-1.014.013-1.694-.532-1.722-1.38s.631-1.423,1.645-1.467a7.108,7.108,0,0,0,6.443-4.652,7,7,0,0,0-1.95-7.755,1.634,1.634,0,0,1-.73-1.651,1.381,1.381,0,0,1,1.11-1.072,1.488,1.488,0,0,1,1.356.443A9.526,9.526,0,0,1,798.438,649.619Z" transform="translate(-140.073 -97.509)" fill="#040404"/>
      <path id="Trazado_636149" data-name="Trazado 636149" d="M789.9,637.135a1.4,1.4,0,0,1-1.384,1.408,1.42,1.42,0,1,1-.044-2.84A1.4,1.4,0,0,1,789.9,637.135Z" transform="translate(-140.071 -92.762)" fill="#070707"/>
    </g>
  </g>
</svg>
