<svg xmlns="http://www.w3.org/2000/svg" width="293.711" height="297.654" viewBox="0 0 293.711 297.654">
  <g id="Grupo_963659" data-name="Grupo 963659" transform="translate(-28.735 -26.28)">
    <g id="Background_Simple" data-name="Background Simple" transform="translate(28.735 26.281)">
      <g id="Grupo_963607" data-name="Grupo 963607">
        <path id="Trazado_635637" data-name="Trazado 635637" d="M311.261,170.9A172.268,172.268,0,0,0,271.933,86.34c-12.055-13.974-27.732-29.179-46.585-41.2-47.541-30.3-106.438-21.7-130.923,8.744S25.6,219.99,28.91,255.725s99.926,68.161,162.793,60.22S308.173,267.637,313.467,223.3C315.542,205.918,313.956,187.215,311.261,170.9Z" transform="translate(-28.735 -26.281)" fill="#faebcd"/>
        <path id="Trazado_635638" data-name="Trazado 635638" d="M311.261,170.9A172.268,172.268,0,0,0,271.933,86.34c-12.055-13.974-27.732-29.179-46.585-41.2-47.541-30.3-106.438-21.7-130.923,8.744S25.6,219.99,28.91,255.725s99.926,68.161,162.793,60.22S308.173,267.637,313.467,223.3C315.542,205.918,313.956,187.215,311.261,170.9Z" transform="translate(-28.735 -26.281)" fill="#faebcd" opacity="0.7"/>
      </g>
    </g>
    <g id="Floor" transform="translate(45.454 315.283)">
      <g id="Grupo_963608" data-name="Grupo 963608">
        <line id="Línea_827" data-name="Línea 827" x2="7.941" transform="translate(263.38)" fill="none" stroke="#263238" stroke-linecap="round" stroke-linejoin="round" stroke-width="1"/>
        <line id="Línea_828" data-name="Línea 828" x2="170.072" transform="translate(88.014)" fill="none" stroke="#263238" stroke-linecap="round" stroke-linejoin="round" stroke-width="1"/>
        <line id="Línea_829" data-name="Línea 829" x2="82.058" fill="none" stroke="#263238" stroke-linecap="round" stroke-linejoin="round" stroke-width="1"/>
      </g>
    </g>
    <g id="Plants" transform="translate(284.257 239.843)">
      <g id="Grupo_963609" data-name="Grupo 963609">
        <path id="Trazado_635639" data-name="Trazado 635639" d="M456.57,364.659c.023.015.478-1.746.494-1.86.184-1.323-.238-3.988-1.585-4.638a1.77,1.77,0,0,0-2.409,1.067,3.7,3.7,0,0,0,.639,3.047A12.68,12.68,0,0,0,456.57,364.659Z" transform="translate(-427.741 -352.042)" fill="#263238"/>
        <path id="Trazado_635640" data-name="Trazado 635640" d="M417.128,364.932a12.694,12.694,0,0,0,3.7.41c.027,0-.564-1.719-.614-1.823-.576-1.206-2.4-3.2-3.881-3a1.771,1.771,0,0,0-1.421,2.219A3.7,3.7,0,0,0,417.128,364.932Z" transform="translate(-414.861 -352.893)" fill="#263238"/>
        <path id="Trazado_635641" data-name="Trazado 635641" d="M451.641,352.1c-1.488-.16-3.255,1.879-3.8,3.1-.047.106-.592,1.84-.564,1.839h.032c-.281.32-.58.666-.9,1.05-.582.715-1.233,1.527-1.881,2.46a31.411,31.411,0,0,0-1.951,3.108,23.086,23.086,0,0,0-1.666,3.751c-.005.015-.009.032-.013.048.007-.439-.012-1.664-.025-1.758-.171-1.325-1.282-3.784-2.753-4.057a1.771,1.771,0,0,0-2.042,1.666,3.7,3.7,0,0,0,1.421,2.771,12.3,12.3,0,0,0,3.354,1.533,31.36,31.36,0,0,0-.985,4.065c-.142.8-.261,1.611-.371,2.425-.005-.379-.013-.718-.019-.766-.172-1.325-1.283-3.784-2.754-4.056a1.771,1.771,0,0,0-2.042,1.666,3.7,3.7,0,0,0,1.421,2.771,11.739,11.739,0,0,0,3.253,1.5c-.038.312-.081.625-.118.937-.179,1.5-.352,3-.566,4.466-.075.516-.168,1.022-.259,1.529-.005-.337-.013-.621-.018-.664-.172-1.325-1.282-3.784-2.754-4.056a1.771,1.771,0,0,0-2.042,1.666,3.7,3.7,0,0,0,1.421,2.771,11.305,11.305,0,0,0,3.159,1.47c-.109.516-.218,1.032-.347,1.527-.1.336-.165.666-.279,1s-.213.658-.318.983c-.225.618-.453,1.257-.687,1.854-.16.417-.32.811-.48,1.208.081-.513.218-1.521.22-1.606a6.874,6.874,0,0,0-.922-3.345,2.1,2.1,0,0,0-.024-.392,1.771,1.771,0,0,0-2.165-1.5c-1.446.385-2.363,2.922-2.431,4.256,0,.079.048.938.089,1.479-.073-.314-.14-.621-.218-.944-.152-.639-.322-1.273-.5-1.955q-.148-.489-.3-.989c-.093-.333-.233-.672-.349-1.012-.286-.782-.614-1.56-.962-2.337a11.642,11.642,0,0,0,3.335-1.249,3.7,3.7,0,0,0,1.623-2.657,1.77,1.77,0,0,0-1.912-1.813c-1.488.161-2.778,2.531-3.048,3.839-.017.082-.105,1.042-.143,1.571-.213-.465-.423-.931-.653-1.394-.664-1.339-1.379-2.673-2.086-4.008-.217-.409-.428-.819-.641-1.228a12.287,12.287,0,0,0,3.457-1.278,3.7,3.7,0,0,0,1.624-2.658,1.77,1.77,0,0,0-1.912-1.813c-1.488.161-2.778,2.531-3.048,3.84-.021.1-.146,1.481-.16,1.834-.468-.9-.926-1.8-1.343-2.713a31.163,31.163,0,0,1-1.46-3.771,12.5,12.5,0,0,0,3.478-1.283,3.7,3.7,0,0,0,1.623-2.658,1.77,1.77,0,0,0-1.912-1.813c-1.488.161-2.778,2.531-3.048,3.84-.018.086-.115,1.14-.148,1.641l-.085.009a22.814,22.814,0,0,1-.761-4c-.083-.742-.122-1.458-.143-2.154a11.928,11.928,0,0,0,3.513-.883,3.7,3.7,0,0,0,1.906-2.463,1.771,1.771,0,0,0-1.7-2.012c-1.5,0-3.039,2.21-3.452,3.482-.023.069-.172.8-.274,1.328,0-.314-.016-.639-.015-.94,0-1.131.073-2.167.144-3.084.045-.522.1-.991.147-1.431a11.851,11.851,0,0,0,2.7-2.392,3.7,3.7,0,0,0,.557-3.064,1.771,1.771,0,0,0-2.437-1c-1.329.687-1.679,3.362-1.459,4.68.019.114.521,1.861.544,1.846l.026-.018c-.059.422-.116.875-.169,1.371-.091.917-.186,1.954-.212,3.09a31.521,31.521,0,0,0,.087,3.668,23.091,23.091,0,0,0,.68,4.048c0,.016.011.032.015.047-.236-.37-.928-1.382-.99-1.453-.874-1.01-3.157-2.449-4.534-1.864a1.771,1.771,0,0,0-.784,2.515,3.7,3.7,0,0,0,2.714,1.527,12.346,12.346,0,0,0,3.644-.572,31.284,31.284,0,0,0,1.421,3.933c.322.746.67,1.488,1.028,2.227-.214-.313-.408-.591-.439-.627-.874-1.01-3.157-2.448-4.534-1.863a1.769,1.769,0,0,0-.785,2.515,3.7,3.7,0,0,0,2.714,1.527,11.717,11.717,0,0,0,3.542-.543c.14.283.277.566.419.847.679,1.351,1.362,2.7,1.991,4.037.222.473.424.945.627,1.418-.19-.278-.353-.51-.381-.543-.874-1.01-3.157-2.448-4.534-1.864a1.771,1.771,0,0,0-.785,2.515,3.7,3.7,0,0,0,2.714,1.527,11.3,11.3,0,0,0,3.446-.517c.193.49.388.981.553,1.465.106.333.23.646.318.987s.186.667.278,1c.153.639.315,1.3.449,1.925.1.435.18.852.266,1.273-.216-.473-.657-1.389-.7-1.462-.711-1.131-2.75-2.9-4.2-2.529a1.77,1.77,0,0,0-1.156,2.367,3.7,3.7,0,0,0,2.451,1.92,12.146,12.146,0,0,0,3.667-.011c.14.695.269,1.372.38,2.013.392,2.222.633,4.087.784,5.393.027.232.05.439.071.635h-4.5l1.374,26.807h8.213l1.374-26.807h-4.195l.093-.193c.576-1.2,1.374-2.923,2.236-5.031.274-.666.554-1.382.834-2.121a12.153,12.153,0,0,0,3.657.284,3.7,3.7,0,0,0,2.587-1.732,1.77,1.77,0,0,0-.977-2.447c-1.418-.476-3.583,1.134-4.376,2.209-.046.064-.477.808-.742,1.282.113-.3.226-.595.338-.907.226-.617.434-1.239.66-1.908q.146-.489.3-.99c.106-.328.176-.689.267-1.036.193-.809.349-1.64.487-2.48a11.629,11.629,0,0,0,3.472.8,3.7,3.7,0,0,0,2.82-1.32,1.77,1.77,0,0,0-.595-2.567c-1.329-.686-3.713.578-4.66,1.521-.06.059-.662.811-.986,1.231.079-.5.161-1.009.224-1.523.185-1.483.325-2.991.471-4.493.044-.461.095-.919.143-1.378a12.3,12.3,0,0,0,3.589.842,3.7,3.7,0,0,0,2.82-1.321,1.771,1.771,0,0,0-.595-2.567c-1.33-.686-3.714.578-4.661,1.521-.071.072-.938,1.155-1.145,1.442.107-1.01.223-2.017.377-3a31.179,31.179,0,0,1,.862-3.951,12.512,12.512,0,0,0,3.609.849,3.7,3.7,0,0,0,2.82-1.321,1.77,1.77,0,0,0-.595-2.567c-1.329-.686-3.713.578-4.66,1.521-.062.062-.723.887-1.028,1.287l-.076-.04a22.819,22.819,0,0,1,1.569-3.751c.34-.666.7-1.283,1.069-1.875a11.892,11.892,0,0,0,3.417,1.2,3.7,3.7,0,0,0,2.948-1,1.77,1.77,0,0,0-.309-2.617c-1.247-.828-3.755.167-4.8,1-.057.045-.584.569-.961.957.169-.265.339-.542.506-.792.626-.943,1.257-1.767,1.822-2.493.325-.41.626-.774.912-1.112a11.831,11.831,0,0,0,3.568-.508,3.7,3.7,0,0,0,2.154-2.249A1.771,1.771,0,0,0,451.641,352.1Zm-16.47,39.965c-.9,2.069-1.727,3.758-2.321,4.93-.12.236-.228.445-.328.639h-.1c-.029-.229-.062-.479-.1-.76-.181-1.318-.467-3.195-.911-5.43-.139-.706-.3-1.459-.475-2.229a19.186,19.186,0,0,0,2.046-.962,12.975,12.975,0,0,0,2.982,1.924C435.7,390.833,435.432,391.469,435.171,392.065Z" transform="translate(-414.974 -349)" fill="#263238"/>
        <path id="Trazado_635642" data-name="Trazado 635642" d="M417.128,364.932a12.694,12.694,0,0,0,3.7.41c.027,0-.564-1.719-.614-1.823-.576-1.206-2.4-3.2-3.881-3a1.771,1.771,0,0,0-1.421,2.219A3.7,3.7,0,0,0,417.128,364.932Z" transform="translate(-414.861 -352.893)" fill="#263238" opacity="0.3"/>
        <path id="Trazado_635643" data-name="Trazado 635643" d="M456.57,364.659c.023.015.478-1.746.494-1.86.184-1.323-.238-3.988-1.585-4.638a1.77,1.77,0,0,0-2.409,1.067,3.7,3.7,0,0,0,.639,3.047A12.68,12.68,0,0,0,456.57,364.659Z" transform="translate(-427.741 -352.042)" fill="#263238" opacity="0.3"/>
        <path id="Trazado_635644" data-name="Trazado 635644" d="M451.641,352.1c-1.488-.16-3.255,1.879-3.8,3.1-.047.106-.592,1.84-.564,1.839h.032c-.281.32-.58.666-.9,1.05-.582.715-1.233,1.527-1.881,2.46a31.411,31.411,0,0,0-1.951,3.108,23.086,23.086,0,0,0-1.666,3.751c-.005.015-.009.032-.013.048.007-.439-.012-1.664-.025-1.758-.171-1.325-1.282-3.784-2.753-4.057a1.771,1.771,0,0,0-2.042,1.666,3.7,3.7,0,0,0,1.421,2.771,12.3,12.3,0,0,0,3.354,1.533,31.36,31.36,0,0,0-.985,4.065c-.142.8-.261,1.611-.371,2.425-.005-.379-.013-.718-.019-.766-.172-1.325-1.283-3.784-2.754-4.056a1.771,1.771,0,0,0-2.042,1.666,3.7,3.7,0,0,0,1.421,2.771,11.739,11.739,0,0,0,3.253,1.5c-.038.312-.081.625-.118.937-.179,1.5-.352,3-.566,4.466-.075.516-.168,1.022-.259,1.529-.005-.337-.013-.621-.018-.664-.172-1.325-1.282-3.784-2.754-4.056a1.771,1.771,0,0,0-2.042,1.666,3.7,3.7,0,0,0,1.421,2.771,11.305,11.305,0,0,0,3.159,1.47c-.109.516-.218,1.032-.347,1.527-.1.336-.165.666-.279,1s-.213.658-.318.983c-.225.618-.453,1.257-.687,1.854-.16.417-.32.811-.48,1.208.081-.513.218-1.521.22-1.606a6.874,6.874,0,0,0-.922-3.345,2.1,2.1,0,0,0-.024-.392,1.771,1.771,0,0,0-2.165-1.5c-1.446.385-2.363,2.922-2.431,4.256,0,.079.048.938.089,1.479-.073-.314-.14-.621-.218-.944-.152-.639-.322-1.273-.5-1.955q-.148-.489-.3-.989c-.093-.333-.233-.672-.349-1.012-.286-.782-.614-1.56-.962-2.337a11.642,11.642,0,0,0,3.335-1.249,3.7,3.7,0,0,0,1.623-2.657,1.77,1.77,0,0,0-1.912-1.813c-1.488.161-2.778,2.531-3.048,3.839-.017.082-.105,1.042-.143,1.571-.213-.465-.423-.931-.653-1.394-.664-1.339-1.379-2.673-2.086-4.008-.217-.409-.428-.819-.641-1.228a12.287,12.287,0,0,0,3.457-1.278,3.7,3.7,0,0,0,1.624-2.658,1.77,1.77,0,0,0-1.912-1.813c-1.488.161-2.778,2.531-3.048,3.84-.021.1-.146,1.481-.16,1.834-.468-.9-.926-1.8-1.343-2.713a31.163,31.163,0,0,1-1.46-3.771,12.5,12.5,0,0,0,3.478-1.283,3.7,3.7,0,0,0,1.623-2.658,1.77,1.77,0,0,0-1.912-1.813c-1.488.161-2.778,2.531-3.048,3.84-.018.086-.115,1.14-.148,1.641l-.085.009a22.814,22.814,0,0,1-.761-4c-.083-.742-.122-1.458-.143-2.154a11.928,11.928,0,0,0,3.513-.883,3.7,3.7,0,0,0,1.906-2.463,1.771,1.771,0,0,0-1.7-2.012c-1.5,0-3.039,2.21-3.452,3.482-.023.069-.172.8-.274,1.328,0-.314-.016-.639-.015-.94,0-1.131.073-2.167.144-3.084.045-.522.1-.991.147-1.431a11.851,11.851,0,0,0,2.7-2.392,3.7,3.7,0,0,0,.557-3.064,1.771,1.771,0,0,0-2.437-1c-1.329.687-1.679,3.362-1.459,4.68.019.114.521,1.861.544,1.846l.026-.018c-.059.422-.116.875-.169,1.371-.091.917-.186,1.954-.212,3.09a31.521,31.521,0,0,0,.087,3.668,23.091,23.091,0,0,0,.68,4.048c0,.016.011.032.015.047-.236-.37-.928-1.382-.99-1.453-.874-1.01-3.157-2.449-4.534-1.864a1.771,1.771,0,0,0-.784,2.515,3.7,3.7,0,0,0,2.714,1.527,12.346,12.346,0,0,0,3.644-.572,31.284,31.284,0,0,0,1.421,3.933c.322.746.67,1.488,1.028,2.227-.214-.313-.408-.591-.439-.627-.874-1.01-3.157-2.448-4.534-1.863a1.769,1.769,0,0,0-.785,2.515,3.7,3.7,0,0,0,2.714,1.527,11.717,11.717,0,0,0,3.542-.543c.14.283.277.566.419.847.679,1.351,1.362,2.7,1.991,4.037.222.473.424.945.627,1.418-.19-.278-.353-.51-.381-.543-.874-1.01-3.157-2.448-4.534-1.864a1.771,1.771,0,0,0-.785,2.515,3.7,3.7,0,0,0,2.714,1.527,11.3,11.3,0,0,0,3.446-.517c.193.49.388.981.553,1.465.106.333.23.646.318.987s.186.667.278,1c.153.639.315,1.3.449,1.925.1.435.18.852.266,1.273-.216-.473-.657-1.389-.7-1.462-.711-1.131-2.75-2.9-4.2-2.529a1.77,1.77,0,0,0-1.156,2.367,3.7,3.7,0,0,0,2.451,1.92,12.146,12.146,0,0,0,3.667-.011c.14.695.269,1.372.38,2.013.392,2.222.633,4.087.784,5.393.027.232.05.439.071.635h-4.5l1.374,26.807h8.213l1.374-26.807h-4.195l.093-.193c.576-1.2,1.374-2.923,2.236-5.031.274-.666.554-1.382.834-2.121a12.153,12.153,0,0,0,3.657.284,3.7,3.7,0,0,0,2.587-1.732,1.77,1.77,0,0,0-.977-2.447c-1.418-.476-3.583,1.134-4.376,2.209-.046.064-.477.808-.742,1.282.113-.3.226-.595.338-.907.226-.617.434-1.239.66-1.908q.146-.489.3-.99c.106-.328.176-.689.267-1.036.193-.809.349-1.64.487-2.48a11.629,11.629,0,0,0,3.472.8,3.7,3.7,0,0,0,2.82-1.32,1.77,1.77,0,0,0-.595-2.567c-1.329-.686-3.713.578-4.66,1.521-.06.059-.662.811-.986,1.231.079-.5.161-1.009.224-1.523.185-1.483.325-2.991.471-4.493.044-.461.095-.919.143-1.378a12.3,12.3,0,0,0,3.589.842,3.7,3.7,0,0,0,2.82-1.321,1.771,1.771,0,0,0-.595-2.567c-1.33-.686-3.714.578-4.661,1.521-.071.072-.938,1.155-1.145,1.442.107-1.01.223-2.017.377-3a31.179,31.179,0,0,1,.862-3.951,12.512,12.512,0,0,0,3.609.849,3.7,3.7,0,0,0,2.82-1.321,1.77,1.77,0,0,0-.595-2.567c-1.329-.686-3.713.578-4.66,1.521-.062.062-.723.887-1.028,1.287l-.076-.04a22.819,22.819,0,0,1,1.569-3.751c.34-.666.7-1.283,1.069-1.875a11.892,11.892,0,0,0,3.417,1.2,3.7,3.7,0,0,0,2.948-1,1.77,1.77,0,0,0-.309-2.617c-1.247-.828-3.755.167-4.8,1-.057.045-.584.569-.961.957.169-.265.339-.542.506-.792.626-.943,1.257-1.767,1.822-2.493.325-.41.626-.774.912-1.112a11.831,11.831,0,0,0,3.568-.508,3.7,3.7,0,0,0,2.154-2.249A1.771,1.771,0,0,0,451.641,352.1Zm-16.47,39.965c-.9,2.069-1.727,3.758-2.321,4.93-.12.236-.228.445-.328.639h-.1c-.029-.229-.062-.479-.1-.76-.181-1.318-.467-3.195-.911-5.43-.139-.706-.3-1.459-.475-2.229a19.186,19.186,0,0,0,2.046-.962,12.975,12.975,0,0,0,2.982,1.924C435.7,390.833,435.432,391.469,435.171,392.065Z" transform="translate(-414.974 -349)" fill="#263238" opacity="0.3"/>
      </g>
    </g>
    <g id="Graphics" transform="translate(44.744 45.603)">
      <g id="Grupo_963611" data-name="Grupo 963611" transform="translate(47.442 165.448)">
        <g id="Grupo_963610" data-name="Grupo 963610">
          <path id="Trazado_635645" data-name="Trazado 635645" d="M162.591,311.122v56.153a5.632,5.632,0,0,1-5.632,5.632H130.25a5.632,5.632,0,0,1-5.632-5.632V311.122a5.632,5.632,0,0,1,5.632-5.63h11.168l.011.041c.331,1.188,1.091,1.961,1.934,1.961h.483c.844,0,1.6-.774,1.934-1.961l.013-.041h11.166A5.632,5.632,0,0,1,162.591,311.122Z" transform="translate(-124.618 -305.492)" fill="none" stroke="#263238" stroke-linecap="round" stroke-linejoin="round" stroke-width="1"/>
        </g>
        <rect id="Rectángulo_307173" data-name="Rectángulo 307173" width="30.441" height="2.647" transform="translate(2.9 8.939)" fill="none" stroke="#263238" stroke-linecap="round" stroke-linejoin="round" stroke-width="1"/>
        <rect id="Rectángulo_307174" data-name="Rectángulo 307174" width="30.441" height="2.647" transform="translate(2.9 16.218)" fill="none" stroke="#263238" stroke-linecap="round" stroke-linejoin="round" stroke-width="1"/>
        <rect id="Rectángulo_307175" data-name="Rectángulo 307175" width="30.441" height="2.647" transform="translate(2.9 23.498)" fill="none" stroke="#263238" stroke-linecap="round" stroke-linejoin="round" stroke-width="1"/>
        <rect id="Rectángulo_307176" data-name="Rectángulo 307176" width="30.441" height="2.647" transform="translate(2.9 38.056)" fill="none" stroke="#263238" stroke-linecap="round" stroke-linejoin="round" stroke-width="1"/>
        <rect id="Rectángulo_307177" data-name="Rectángulo 307177" width="30.441" height="2.647" transform="translate(2.9 45.336)" fill="none" stroke="#263238" stroke-linecap="round" stroke-linejoin="round" stroke-width="1"/>
        <rect id="Rectángulo_307178" data-name="Rectángulo 307178" width="30.441" height="2.647" transform="translate(2.9 52.615)" fill="none" stroke="#263238" stroke-linecap="round" stroke-linejoin="round" stroke-width="1"/>
      </g>
      <g id="Grupo_963618" data-name="Grupo 963618" transform="translate(203.617)">
        <g id="Grupo_963612" data-name="Grupo 963612" transform="translate(0)">
          <path id="Trazado_635646" data-name="Trazado 635646" d="M398.591,61.109v56.153a5.632,5.632,0,0,1-5.632,5.632H366.25a5.632,5.632,0,0,1-5.632-5.632V61.109a5.632,5.632,0,0,1,5.632-5.63h11.168l.011.04c.331,1.189,1.091,1.962,1.934,1.962h.483c.844,0,1.6-.774,1.934-1.962l.013-.04h11.166A5.632,5.632,0,0,1,398.591,61.109Z" transform="translate(-360.618 -55.479)" fill="none" stroke="#263238" stroke-linecap="round" stroke-linejoin="round" stroke-width="1"/>
        </g>
        <g id="Grupo_963613" data-name="Grupo 963613" transform="translate(3.715 40.357)">
          <rect id="Rectángulo_307179" data-name="Rectángulo 307179" width="30.773" height="20.869" fill="none" stroke="#263238" stroke-linecap="round" stroke-linejoin="round" stroke-width="1"/>
          <line id="Línea_830" data-name="Línea 830" y1="20.869" x2="30.773" fill="none" stroke="#263238" stroke-linecap="round" stroke-linejoin="round" stroke-width="1"/>
          <line id="Línea_831" data-name="Línea 831" x1="30.773" y1="20.869" fill="none" stroke="#263238" stroke-linecap="round" stroke-linejoin="round" stroke-width="1"/>
        </g>
        <g id="Grupo_963614" data-name="Grupo 963614" transform="translate(3.715 29.746)">
          <rect id="Rectángulo_307180" data-name="Rectángulo 307180" width="30.773" height="5.306" fill="none" stroke="#263238" stroke-linecap="round" stroke-linejoin="round" stroke-width="1"/>
          <line id="Línea_832" data-name="Línea 832" y1="5.306" x2="30.773" fill="none" stroke="#263238" stroke-linecap="round" stroke-linejoin="round" stroke-width="1"/>
          <line id="Línea_833" data-name="Línea 833" x1="30.773" y1="5.306" fill="none" stroke="#263238" stroke-linecap="round" stroke-linejoin="round" stroke-width="1"/>
        </g>
        <g id="Grupo_963615" data-name="Grupo 963615" transform="translate(3.715 19.665)">
          <rect id="Rectángulo_307181" data-name="Rectángulo 307181" width="30.773" height="5.306" fill="none" stroke="#263238" stroke-linecap="round" stroke-linejoin="round" stroke-width="1"/>
          <line id="Línea_834" data-name="Línea 834" y1="5.306" x2="30.773" fill="none" stroke="#263238" stroke-linecap="round" stroke-linejoin="round" stroke-width="1"/>
          <line id="Línea_835" data-name="Línea 835" x1="30.773" y1="5.306" fill="none" stroke="#263238" stroke-linecap="round" stroke-linejoin="round" stroke-width="1"/>
        </g>
        <g id="Grupo_963616" data-name="Grupo 963616" transform="translate(3.715 9.584)">
          <rect id="Rectángulo_307182" data-name="Rectángulo 307182" width="30.773" height="5.306" fill="none" stroke="#263238" stroke-linecap="round" stroke-linejoin="round" stroke-width="1"/>
          <line id="Línea_836" data-name="Línea 836" y1="5.306" x2="30.773" fill="none" stroke="#263238" stroke-linecap="round" stroke-linejoin="round" stroke-width="1"/>
          <line id="Línea_837" data-name="Línea 837" x1="30.773" y1="5.306" fill="none" stroke="#263238" stroke-linecap="round" stroke-linejoin="round" stroke-width="1"/>
        </g>
        <g id="Grupo_963617" data-name="Grupo 963617" transform="translate(40.809 35.007)">
          <circle id="Elipse_7783" data-name="Elipse 7783" cx="6.003" cy="6.003" r="6.003" transform="translate(0 1.253)" fill="none" stroke="#263238" stroke-linecap="round" stroke-linejoin="round" stroke-width="1"/>
          <path id="Trazado_635647" data-name="Trazado 635647" d="M426.69,114.007l3,3.377,7.128-9" transform="translate(-423.776 -108.379)" fill="none" stroke="#263238" stroke-linecap="round" stroke-linejoin="round" stroke-width="1"/>
        </g>
      </g>
      <g id="Grupo_963621" data-name="Grupo 963621" transform="translate(0 8.611)">
        <g id="Grupo_963619" data-name="Grupo 963619">
          <path id="Trazado_635648" data-name="Trazado 635648" d="M90.9,74.122v56.153a5.632,5.632,0,0,1-5.632,5.632H58.559a5.632,5.632,0,0,1-5.632-5.632V74.122a5.631,5.631,0,0,1,5.632-5.63H69.726l.011.041c.33,1.188,1.091,1.961,1.934,1.961h.484c.843,0,1.6-.774,1.934-1.961l.013-.041H85.268A5.632,5.632,0,0,1,90.9,74.122Z" transform="translate(-52.927 -68.492)" fill="none" stroke="#263238" stroke-linecap="round" stroke-linejoin="round" stroke-width="1"/>
        </g>
        <rect id="Rectángulo_307183" data-name="Rectángulo 307183" width="18.529" height="17.206" transform="translate(9.722 16.218)" fill="none" stroke="#263238" stroke-linecap="round" stroke-linejoin="round" stroke-width="1"/>
        <rect id="Rectángulo_307184" data-name="Rectángulo 307184" width="26.756" height="9.98" transform="translate(5.608 47.665)" fill="none" stroke="#263238" stroke-linecap="round" stroke-linejoin="round" stroke-width="1"/>
        <g id="Grupo_963620" data-name="Grupo 963620" transform="translate(13.422 38.173)">
          <path id="Trazado_635649" data-name="Trazado 635649" d="M75.828,127.486a1.309,1.309,0,1,1-1.309-1.309A1.309,1.309,0,0,1,75.828,127.486Z" transform="translate(-73.209 -126.177)" fill="none" stroke="#263238" stroke-linecap="round" stroke-linejoin="round" stroke-width="1"/>
          <path id="Trazado_635650" data-name="Trazado 635650" d="M82.258,127.486a1.309,1.309,0,1,1-1.309-1.309A1.309,1.309,0,0,1,82.258,127.486Z" transform="translate(-75.384 -126.177)" fill="none" stroke="#263238" stroke-linecap="round" stroke-linejoin="round" stroke-width="1"/>
          <circle id="Elipse_7784" data-name="Elipse 7784" cx="1.309" cy="1.309" r="1.309" transform="translate(8.51)" fill="none" stroke="#263238" stroke-linecap="round" stroke-linejoin="round" stroke-width="1"/>
        </g>
        <line id="Línea_838" data-name="Línea 838" x2="37.314" transform="translate(0.288 8.388)" fill="none" stroke="#263238" stroke-linecap="round" stroke-linejoin="round" stroke-width="1"/>
      </g>
      <g id="Grupo_963622" data-name="Grupo 963622" transform="translate(116.043 220.21)">
        <circle id="Elipse_7785" data-name="Elipse 7785" cx="10.877" cy="10.877" r="10.877" transform="translate(0 2.27)" fill="none" stroke="#263238" stroke-linecap="round" stroke-linejoin="round" stroke-width="1"/>
        <path id="Trazado_635651" data-name="Trazado 635651" d="M236.263,398.442l5.439,6.118,12.917-16.316" transform="translate(-230.982 -388.245)" fill="none" stroke="#263238" stroke-linecap="round" stroke-linejoin="round" stroke-width="1"/>
      </g>
    </g>
    <g id="Device" transform="translate(105.144 44.422)">
      <g id="Grupo_963646" data-name="Grupo 963646">
        <g id="Grupo_963636" data-name="Grupo 963636" transform="translate(5.608)">
          <g id="Grupo_963623" data-name="Grupo 963623" transform="translate(5.258 3.828)">
            <path id="Trazado_635652" data-name="Trazado 635652" d="M273.472,76.212V243.1a16.738,16.738,0,0,1-16.738,16.738H177.356A16.738,16.738,0,0,1,160.618,243.1V76.212a16.738,16.738,0,0,1,16.738-16.733h33.191l.033.12c.981,3.532,3.241,5.83,5.747,5.83h1.437c2.507,0,4.766-2.3,5.748-5.83l.038-.12h33.185A16.737,16.737,0,0,1,273.472,76.212Z" transform="translate(-160.618 -59.479)" fill="#fff"/>
          </g>
          <rect id="Rectángulo_307185" data-name="Rectángulo 307185" width="88.9" height="95.209" transform="translate(5.46 48.326)" fill="#263238" stroke="#263238" stroke-linecap="round" stroke-linejoin="round" stroke-width="1"/>
          <path id="Trazado_635653" data-name="Trazado 635653" d="M223.618,59.6c-.982,3.532-3.241,5.83-5.748,5.83h-1.437c-2.506,0-4.766-2.3-5.747-5.83l-.033-.12H177.462a16.742,16.742,0,0,0-16.53,14.1H273.371a16.742,16.742,0,0,0-16.53-14.1H223.656Z" transform="translate(-155.467 -55.651)" fill="#d4d4d4"/>
          <g id="Grupo_963635" data-name="Grupo 963635">
            <path id="Trazado_635654" data-name="Trazado 635654" d="M277.962,118.791V97.583h-1.918V70.432a16.736,16.736,0,0,0-16.737-16.737h-89.9a16.736,16.736,0,0,0-16.737,16.737V253.1a16.736,16.736,0,0,0,16.737,16.737h89.9A16.736,16.736,0,0,0,276.043,253.1V136.866h1.918V124.334h-1.918v-5.543ZM270.785,241.14a16.738,16.738,0,0,1-16.738,16.738H174.669a16.738,16.738,0,0,1-16.738-16.738V74.255a16.738,16.738,0,0,1,16.738-16.733h33.19l.033.12c.981,3.532,3.241,5.83,5.747,5.83h1.437c2.507,0,4.766-2.3,5.748-5.83l.038-.12h33.185a16.737,16.737,0,0,1,16.738,16.733Z" transform="translate(-152.673 -53.695)" fill="#707070" stroke="#263238" stroke-linejoin="round" stroke-width="1"/>
            <path id="Trazado_635655" data-name="Trazado 635655" d="M258.36,57.179H172.338A16.736,16.736,0,0,0,155.6,73.915V251.968A16.736,16.736,0,0,0,172.338,268.7H258.36A16.736,16.736,0,0,0,275.1,251.968V73.915A16.736,16.736,0,0,0,258.36,57.179Zm13.416,185.14a16.738,16.738,0,0,1-16.738,16.738H175.659a16.738,16.738,0,0,1-16.738-16.738V75.434A16.738,16.738,0,0,1,175.659,58.7h33.191l.033.12c.981,3.532,3.241,5.83,5.747,5.83h1.437c2.507,0,4.766-2.3,5.748-5.83l.038-.12h33.185a16.737,16.737,0,0,1,16.738,16.733Z" transform="translate(-153.663 -54.873)" fill="#263238" stroke="#263238" stroke-linejoin="round" stroke-width="1"/>
            <path id="Trazado_635656" data-name="Trazado 635656" d="M246.135,59.885a1.571,1.571,0,1,0-1.572,1.571A1.571,1.571,0,0,0,246.135,59.885Z" transform="translate(-183.223 -55.257)" fill="#fff"/>
            <g id="Grupo_963634" data-name="Grupo 963634" transform="translate(12.916 8.669)">
              <g id="Grupo_963624" data-name="Grupo 963624" transform="translate(0 0.645)">
                <path id="Trazado_635657" data-name="Trazado 635657" d="M174.563,69.1c0,1.59-1.785,2.163-1.793,3.375v.083H174.5V73.1h-2.312v-.452c0-1.7,1.785-2.034,1.785-3.518,0-.543-.181-.829-.618-.829s-.617.308-.617.776v.467h-.55v-.429c0-.806.369-1.341,1.182-1.341S174.563,68.3,174.563,69.1Z" transform="translate(-172.191 -67.771)" fill="#263238"/>
                <path id="Trazado_635658" data-name="Trazado 635658" d="M178.924,69.1v.136a1.047,1.047,0,0,1-.64,1.085,1.049,1.049,0,0,1,.64,1.093v.407c0,.806-.377,1.333-1.19,1.333s-1.183-.527-1.183-1.333v-.362h.55v.4c0,.475.2.761.617.761s.618-.279.618-.813v-.407c0-.519-.218-.768-.663-.784h-.316v-.527h.346a.633.633,0,0,0,.633-.723V69.12c0-.542-.189-.821-.618-.821s-.617.293-.617.768v.271h-.55V69.1c0-.806.377-1.326,1.183-1.326S178.924,68.291,178.924,69.1Z" transform="translate(-173.666 -67.771)" fill="#263238"/>
                <path id="Trazado_635659" data-name="Trazado 635659" d="M181.569,70.378v.731H181v-.731Zm0,2.871v.731H181v-.731Z" transform="translate(-175.172 -68.653)" fill="#263238"/>
                <path id="Trazado_635660" data-name="Trazado 635660" d="M183.345,70a.848.848,0,0,1,.784-.437c.678,0,.979.5.979,1.251v1.032c0,.806-.384,1.333-1.189,1.333s-1.183-.527-1.183-1.333V71.49h.55v.391c0,.475.2.761.617.761s.618-.286.618-.761V70.857c0-.474-.2-.761-.618-.761a.569.569,0,0,0-.595.565v.121h-.55l.144-2.931h2.079v.527h-1.552Z" transform="translate(-175.757 -67.798)" fill="#263238"/>
                <path id="Trazado_635661" data-name="Trazado 635661" d="M189.521,69.09v.1h-.55v-.136c0-.474-.2-.753-.625-.753-.445,0-.641.286-.641.851v1.183a.849.849,0,0,1,.851-.565c.678,0,.979.49.979,1.251v.8c0,.806-.4,1.333-1.206,1.333s-1.213-.527-1.213-1.333V69.128c0-.836.377-1.357,1.213-1.357C189.145,67.771,189.521,68.284,189.521,69.09Zm-1.815,1.974v.79c0,.475.2.761.625.761s.625-.286.625-.761v-.79c0-.475-.2-.761-.625-.761S187.706,70.589,187.706,71.064Z" transform="translate(-177.24 -67.771)" fill="#263238"/>
              </g>
              <g id="Grupo_963633" data-name="Grupo 963633" transform="translate(68.362)">
                <rect id="Rectángulo_307186" data-name="Rectángulo 307186" width="1.489" height="3.722" transform="translate(0 2.196)" fill="#263238"/>
                <rect id="Rectángulo_307187" data-name="Rectángulo 307187" width="1.489" height="4.468" transform="translate(1.985 1.45)" fill="#263238"/>
                <rect id="Rectángulo_307188" data-name="Rectángulo 307188" width="1.489" height="4.998" transform="translate(3.971 0.921)" fill="#263238"/>
                <rect id="Rectángulo_307189" data-name="Rectángulo 307189" width="1.489" height="5.918" transform="translate(5.956)" fill="#263238"/>
                <g id="Grupo_963628" data-name="Grupo 963628" transform="translate(16.937 0.357)">
                  <g id="Grupo_963625" data-name="Grupo 963625">
                    <path id="Trazado_635662" data-name="Trazado 635662" d="M310.023,72.795h-8.934v-5.46h8.934Zm-8.437-.5h7.941V67.831h-7.941Z" transform="translate(-301.089 -67.335)" fill="#263238"/>
                  </g>
                  <g id="Grupo_963626" data-name="Grupo 963626" transform="translate(1.241 1.036)">
                    <rect id="Rectángulo_307190" data-name="Rectángulo 307190" width="4.715" height="3.387" fill="#263238"/>
                  </g>
                  <g id="Grupo_963627" data-name="Grupo 963627" transform="translate(8.624 2.086)">
                    <rect id="Rectángulo_307191" data-name="Rectángulo 307191" width="1.124" height="1.286" fill="#263238"/>
                  </g>
                </g>
                <g id="Grupo_963629" data-name="Grupo 963629" transform="translate(9.868 3.411)">
                  <path id="Trazado_635663" data-name="Trazado 635663" d="M294.2,73.168a.334.334,0,0,1-.171-.047,2.6,2.6,0,0,0-3.07-.035.333.333,0,0,1-.439-.5,3.24,3.24,0,0,1,3.851-.037.334.334,0,0,1-.171.621Z" transform="translate(-290.407 -71.95)" fill="#263238"/>
                </g>
                <g id="Grupo_963630" data-name="Grupo 963630" transform="translate(9.196 2.088)">
                  <path id="Trazado_635664" data-name="Trazado 635664" d="M294.529,71.37a.327.327,0,0,1-.171-.047,3.767,3.767,0,0,0-4.413-.036.333.333,0,0,1-.441-.5,4.44,4.44,0,0,1,5.2-.036.334.334,0,0,1-.171.62Z" transform="translate(-289.391 -69.951)" fill="#263238"/>
                </g>
                <g id="Grupo_963631" data-name="Grupo 963631" transform="translate(8.585 0.598)">
                  <path id="Trazado_635665" data-name="Trazado 635665" d="M294.828,69.31a.334.334,0,0,1-.171-.047c-3.329-1.98-5.543-.116-5.636-.035a.334.334,0,0,1-.44-.5c.026-.023,2.656-2.272,6.417-.036a.334.334,0,0,1-.171.621Z" transform="translate(-288.468 -67.7)" fill="#263238"/>
                </g>
                <g id="Grupo_963632" data-name="Grupo 963632" transform="translate(10.983 4.351)">
                  <path id="Trazado_635666" data-name="Trazado 635666" d="M293.765,74.207a.837.837,0,1,1-.837-.837A.837.837,0,0,1,293.765,74.207Z" transform="translate(-292.091 -73.37)" fill="#263238"/>
                </g>
              </g>
            </g>
          </g>
        </g>
        <g id="Grupo_963645" data-name="Grupo 963645" transform="translate(0 29.399)">
          <g id="Grupo_963639" data-name="Grupo 963639" transform="translate(0 15.486)">
            <rect id="Rectángulo_307192" data-name="Rectángulo 307192" width="96.356" height="93.488" fill="#449c6e" stroke="#263238" stroke-linecap="round" stroke-linejoin="round" stroke-width="1"/>
            <g id="Grupo_963637" data-name="Grupo 963637" transform="translate(7.053 7.791)">
              <rect id="Rectángulo_307193" data-name="Rectángulo 307193" width="80.297" height="59.888" transform="translate(0.977)" fill="#fff" stroke="#263238" stroke-linecap="round" stroke-linejoin="round" stroke-width="1"/>
              <line id="Línea_839" data-name="Línea 839" x1="80.297" y2="59.888" fill="none" stroke="#263238" stroke-linecap="round" stroke-linejoin="round" stroke-width="1"/>
              <line id="Línea_840" data-name="Línea 840" x2="80.297" y2="59.888" transform="translate(0.977)" fill="none" stroke="#263238" stroke-linecap="round" stroke-linejoin="round" stroke-width="1"/>
            </g>
            <g id="Grupo_963638" data-name="Grupo 963638" transform="translate(34.413 73.988)">
              <circle id="Elipse_7786" data-name="Elipse 7786" cx="2.868" cy="2.868" r="2.868" fill="#fff" stroke="#263238" stroke-linecap="round" stroke-linejoin="round" stroke-width="1"/>
              <circle id="Elipse_7787" data-name="Elipse 7787" cx="2.868" cy="2.868" r="2.868" transform="translate(10.897)" fill="#fff" stroke="#263238" stroke-linecap="round" stroke-linejoin="round" stroke-width="1"/>
              <circle id="Elipse_7788" data-name="Elipse 7788" cx="2.868" cy="2.868" r="2.868" transform="translate(21.795)" fill="#fff" stroke="#263238" stroke-linecap="round" stroke-linejoin="round" stroke-width="1"/>
            </g>
          </g>
          <g id="Grupo_963641" data-name="Grupo 963641" transform="translate(20.074 117.577)">
            <rect id="Rectángulo_307194" data-name="Rectángulo 307194" width="45.481" height="50.472" fill="#449c6e" stroke="#263238" stroke-linecap="round" stroke-linejoin="round" stroke-width="1"/>
            <g id="Grupo_963640" data-name="Grupo 963640" transform="translate(3.612 17.78)">
              <rect id="Rectángulo_307195" data-name="Rectángulo 307195" width="36.912" height="27.53" transform="translate(0.449)" fill="#fff" stroke="#263238" stroke-linecap="round" stroke-linejoin="round" stroke-width="1"/>
              <line id="Línea_841" data-name="Línea 841" x1="36.912" y2="27.53" fill="none" stroke="#263238" stroke-linecap="round" stroke-linejoin="round" stroke-width="1"/>
              <line id="Línea_842" data-name="Línea 842" x2="36.912" y2="27.53" transform="translate(0.449)" fill="none" stroke="#263238" stroke-linecap="round" stroke-linejoin="round" stroke-width="1"/>
            </g>
            <rect id="Rectángulo_307196" data-name="Rectángulo 307196" width="28.104" height="5.735" transform="translate(8.2 5.162)" fill="#fff" stroke="#263238" stroke-linecap="round" stroke-linejoin="round" stroke-width="1"/>
          </g>
          <g id="Grupo_963643" data-name="Grupo 963643" transform="translate(70.717 117.577)">
            <rect id="Rectángulo_307197" data-name="Rectángulo 307197" width="45.713" height="50.472" fill="#449c6e" stroke="#263238" stroke-linecap="round" stroke-linejoin="round" stroke-width="1"/>
            <g id="Grupo_963642" data-name="Grupo 963642" transform="translate(4.015 17.78)">
              <rect id="Rectángulo_307198" data-name="Rectángulo 307198" width="36.912" height="27.53" transform="translate(0.449)" fill="#fff" stroke="#263238" stroke-linecap="round" stroke-linejoin="round" stroke-width="1"/>
              <line id="Línea_843" data-name="Línea 843" x1="36.912" y2="27.53" fill="none" stroke="#263238" stroke-linecap="round" stroke-linejoin="round" stroke-width="1"/>
              <line id="Línea_844" data-name="Línea 844" x2="36.912" y2="27.53" transform="translate(0.449)" fill="none" stroke="#263238" stroke-linecap="round" stroke-linejoin="round" stroke-width="1"/>
            </g>
            <rect id="Rectángulo_307199" data-name="Rectángulo 307199" width="28.104" height="5.735" transform="translate(8.603 5.162)" fill="#fff" stroke="#263238" stroke-linecap="round" stroke-linejoin="round" stroke-width="1"/>
          </g>
          <g id="Grupo_963644" data-name="Grupo 963644" transform="translate(20.818)">
            <line id="Línea_845" data-name="Línea 845" x2="12.618" fill="none" stroke="#263238" stroke-linecap="round" stroke-linejoin="round" stroke-width="1"/>
            <line id="Línea_846" data-name="Línea 846" x2="12.618" transform="translate(0 4.015)" fill="none" stroke="#263238" stroke-linecap="round" stroke-linejoin="round" stroke-width="1"/>
            <line id="Línea_847" data-name="Línea 847" x2="12.618" transform="translate(0 8.03)" fill="none" stroke="#263238" stroke-linecap="round" stroke-linejoin="round" stroke-width="1"/>
          </g>
          <rect id="Rectángulo_307200" data-name="Rectángulo 307200" width="55.634" height="8.603" transform="translate(43.186)" fill="#449c6e" stroke="#263238" stroke-linecap="round" stroke-linejoin="round" stroke-width="1"/>
        </g>
      </g>
    </g>
    <g id="Character_2" data-name="Character 2" transform="translate(231.822 129.797)">
      <g id="Grupo_963650" data-name="Grupo 963650">
        <g id="Grupo_963647" data-name="Grupo 963647" transform="translate(15.232 26.698)">
          <path id="Trazado_635667" data-name="Trazado 635667" d="M367.178,225.826s.163-2.775-.653-2.775-2.286,0-2.286.653-.163,1.959-.163,1.959-2.775.816-3.1,1.306-2.123.327-2.286,1.8a61.628,61.628,0,0,0,.163,6.2l9.306-2.939a5.927,5.927,0,0,0,.817-1.959c.163-.979.49-2.775.979-3.265s1.306-1.633,0-1.633A8.112,8.112,0,0,0,367.178,225.826Z" transform="translate(-358.643 -223.051)" fill="#fff" stroke="#263238" stroke-linecap="round" stroke-linejoin="round" stroke-width="1"/>
          <path id="Trazado_635668" data-name="Trazado 635668" d="M371.207,227.245a2.049,2.049,0,0,0-.653,1.633" transform="translate(-362.672 -224.47)" fill="none" stroke="#263238" stroke-linecap="round" stroke-linejoin="round" stroke-width="1"/>
        </g>
        <g id="Grupo_963648" data-name="Grupo 963648" transform="translate(22.461)">
          <path id="Trazado_635669" data-name="Trazado 635669" d="M376.914,188.834s-3.429,4.081-3.429,5.225v2.775s-3.918,3.592-3.918,4.408,1.143,2.122,1.143,2.122-.326,6.694.653,7.511,4.245.326,4.245.326l.816,2.939,12.409-2.939,3.265-3.755s2.939-1.47,4.245-7.184-.653-11.592-3.265-13.225-10.939-4.9-14.2-4.245S374.3,186.711,376.914,188.834Z" transform="translate(-369.567 -182.707)" fill="#fff" stroke="#263238" stroke-linecap="round" stroke-linejoin="round" stroke-width="1"/>
          <path id="Trazado_635670" data-name="Trazado 635670" d="M399.388,200.262c1.306-5.714-.653-11.592-3.265-13.225s-10.939-4.9-14.2-4.245-4.571,3.918-1.959,6.041l1.469,1.959s-2.775,2.775-2.449,3.592,1.959,1.306,1.959,1.306-.817,2.775.163,3.265a1.072,1.072,0,0,0,1.469-.49s.163,2.612.327,4.735.816,6.2,2.938,7.183c1.9.878,3.678.838,6.023.821l.018,0,3.265-3.755S398.082,205.977,399.388,200.262Z" transform="translate(-372.612 -182.707)" fill="#263238" stroke="#263238" stroke-linecap="round" stroke-linejoin="round" stroke-width="1"/>
          <path id="Trazado_635671" data-name="Trazado 635671" d="M381.163,208.519s1.143-3.265,2.286-2.122.817,5.388,0,6.367-2.286-.326-2.286-.326" transform="translate(-373.489 -190.638)" fill="#fff" stroke="#263238" stroke-linecap="round" stroke-linejoin="round" stroke-width="1"/>
        </g>
        <path id="Trazado_635672" data-name="Trazado 635672" d="M374.088,230.405l-.327-1.959s6.367-3.265,9.633-3.918,5.714-.653,6.857,0,2.613,4.735,2.613,4.735-5.878-1.959-9.959-.653-8.653,3.1-8.653,3.1Z" transform="translate(-348.524 -196.687)" fill="#fff" stroke="#263238" stroke-linecap="round" stroke-linejoin="round" stroke-width="1"/>
        <path id="Trazado_635673" data-name="Trazado 635673" d="M353.858,460.216a24.7,24.7,0,0,1-4.131,2.253c-2.253.939-3.38,1.5-3,2.816s3.38,1.878,6.947,2.816,8.637,2.441,10.7,2.066,2.441-1.5,2.441-2.629a38.327,38.327,0,0,0-1.5-5.633Z" transform="translate(-339.355 -276.572)" fill="none" stroke="#263238" stroke-linecap="round" stroke-linejoin="round" stroke-width="1"/>
        <path id="Trazado_635674" data-name="Trazado 635674" d="M403.781,460.487s-.938,6.2-.188,7.51,6.384,1.314,7.511.563a4.257,4.257,0,0,0,1.5-2.253l-.751-7.51-9.2,1.69" transform="translate(-358.297 -276.092)" fill="#fff" stroke="#263238" stroke-linecap="round" stroke-linejoin="round" stroke-width="1"/>
        <path id="Trazado_635675" data-name="Trazado 635675" d="M356.122,332.517s0,25.912.376,36.239a182.006,182.006,0,0,0,2.629,23.1c.188.751-.563,21.217-.563,21.217l-2.253,1.5-.188,2.629a15.932,15.932,0,0,0,6.009,5.07,9.572,9.572,0,0,0,7.135-.188s1.877-7.7,2.253-8.449,1.5-23.283,1.5-26.662V372.136l3.38-27.6.187-2.816s4.882,30.794,5.633,35.112,3.568,14.27,3.943,17.838,1.314,17.462,1.314,17.462l-.563,4.882,1.5,2.253a13.83,13.83,0,0,0,4.694.939,3.879,3.879,0,0,0,3.38-2.441v-5.633c0-1.689-.563-3.943-.563-4.506s1.127-21.03.751-27.977-2.441-41.308-2.441-41.308l.564-5.821s-14.27,3.568-24.034,1.5a122.458,122.458,0,0,1-14.457-3.755v1.5Z" transform="translate(-342.558 -232.617)" fill="#263238" stroke="#263238" stroke-linecap="round" stroke-linejoin="round" stroke-width="1"/>
        <g id="Grupo_963649" data-name="Grupo 963649" transform="translate(0 29.35)">
          <path id="Trazado_635676" data-name="Trazado 635676" d="M417.957,240.075s1.143,1.143,2.613,5.061,10.612,25.633,9.469,26.776S412.9,284.32,412.9,284.32l-1.633-4.734,7.347-9.8-5.388-10.613s-1.959-2.123-1.143-7.021S417.957,240.075,417.957,240.075Z" transform="translate(-361.209 -231.462)" fill="#449c6e" stroke="#263238" stroke-linecap="round" stroke-linejoin="round" stroke-width="1"/>
          <path id="Trazado_635677" data-name="Trazado 635677" d="M417.85,259.265l3.741,15.608,4.773,2.709-6.355-1.3-4.61-9.147Z" transform="translate(-362.608 -237.953)" fill="#263238" stroke="#263238" stroke-linecap="round" stroke-linejoin="round" stroke-width="1"/>
          <path id="Trazado_635678" data-name="Trazado 635678" d="M392.047,245.553l-6.857,22.694.326,4.9s.49,1.143,1.469,3.265,6.858,17.47,6.367,18.286-3.755,2.286-3.755,2.286l-.163,2.775a83.1,83.1,0,0,1-8.817,2.939c-3.918.979-12.735,1.306-19.1.653s-14.367-4.408-14.367-4.408a89.5,89.5,0,0,1,1.8-9.959c.979-3.429,4.082-18.286,4.082-18.286L350.9,257.961l-1.959,4.408s-4.408,7.184-5.551,8-4.572,1.469-6.531-.327-1.306-7.51,0-10.122,8.979-18.776,8.979-19.919,16.327-7.347,16.327-7.347,8-2.449,13.062-2.449,7.347,1.959,7.347,1.959,8.49,2.448,9.8,4.571.163,6.694.163,6.694" transform="translate(-335.625 -228.124)" fill="#449c6e" stroke="#263238" stroke-linecap="round" stroke-linejoin="round" stroke-width="1"/>
          <path id="Trazado_635679" data-name="Trazado 635679" d="M414.482,319.431l-3.737-18.452,5.606,19.152-1.345.79Z" transform="translate(-361.034 -252.062)" fill="#263238" stroke="#263238" stroke-linecap="round" stroke-linejoin="round" stroke-width="1"/>
          <line id="Línea_848" data-name="Línea 848" x1="0.542" y1="2.423" transform="translate(12.829 18.899)" fill="none" stroke="#263238" stroke-linecap="round" stroke-linejoin="round" stroke-width="1"/>
          <line id="Línea_849" data-name="Línea 849" x1="1.322" y1="5.904" transform="translate(13.956 23.934)" fill="none" stroke="#263238" stroke-linecap="round" stroke-linejoin="round" stroke-width="1"/>
          <line id="Línea_850" data-name="Línea 850" y1="2.776" x2="15.347" transform="translate(27.033 39.797)" fill="none" stroke="#263238" stroke-linecap="round" stroke-linejoin="round" stroke-width="1"/>
          <line id="Línea_851" data-name="Línea 851" y1="0.272" x2="2.995" transform="translate(39.712 42.41)" fill="none" stroke="#263238" stroke-linecap="round" stroke-linejoin="round" stroke-width="1"/>
          <line id="Línea_852" data-name="Línea 852" y1="0.768" x2="8.449" transform="translate(30.135 42.784)" fill="none" stroke="#263238" stroke-linecap="round" stroke-linejoin="round" stroke-width="1"/>
          <path id="Trazado_635680" data-name="Trazado 635680" d="M368.794,233.3s3.594-2.23,4.09-2.6a34.333,34.333,0,0,1,10.9-3.47c4.462-.372,5.577,0,5.577,0l1.859,3.1s-12.888.868-16.605,1.983a57.424,57.424,0,0,1-6.939,1.611Z" transform="translate(-346.467 -227.059)" fill="#449c6e" stroke="#263238" stroke-linecap="round" stroke-linejoin="round" stroke-width="1"/>
        </g>
      </g>
    </g>
    <g id="Character_1" data-name="Character 1" transform="translate(36.819 130.955)">
      <g id="Grupo_963658" data-name="Grupo 963658">
        <g id="Grupo_963651" data-name="Grupo 963651" transform="translate(23.285 171.138)">
          <path id="Trazado_635681" data-name="Trazado 635681" d="M77.5,443.067l1,6.739s-2.994,7.737-2.246,11.231,3.494,3.494,4.742,2.5a8.86,8.86,0,0,0,2.5-5.99c0-2.247-.249-7.488-.249-8.736a38.029,38.029,0,0,0-.749-4.742Z" transform="translate(-76.137 -443.067)" fill="#fff" stroke="#263238" stroke-linecap="round" stroke-linejoin="round" stroke-width="1"/>
          <path id="Trazado_635682" data-name="Trazado 635682" d="M79.356,468.026c-1.753-.21-2.608-2.031-3-3.32a10.468,10.468,0,0,0-.1,3.65c.749,3.494,3.494,3.494,4.742,2.5a8.718,8.718,0,0,0,2.439-5.119C82.551,466.828,81.06,468.231,79.356,468.026Z" transform="translate(-76.137 -450.386)" fill="#263238" stroke="#263238" stroke-linecap="round" stroke-linejoin="round" stroke-width="1"/>
        </g>
        <g id="Grupo_963652" data-name="Grupo 963652" transform="translate(62.393 169.352)">
          <path id="Trazado_635683" data-name="Trazado 635683" d="M140.392,441.136s4.939,10.536,5.817,11.963,5.378,6.475,5.049,6.8-1.536.988-4.061.549-4.39-2.3-5.6-3.512-3.951-1.646-5.158-2.3-.33-4.39.329-5.707a5.445,5.445,0,0,0,.659-2.2l-2.2-6.365Z" transform="translate(-135.234 -440.368)" fill="#fff" stroke="#263238" stroke-linecap="round" stroke-linejoin="round" stroke-width="1"/>
          <path id="Trazado_635684" data-name="Trazado 635684" d="M151.567,464.279c.189-.189-1.217-1.938-2.615-3.662a6.513,6.513,0,0,1-3.971.479c-2.3-.658-6.036-6.914-7.9-7.792-.658,1.317-1.536,5.049-.329,5.707s3.951,1.1,5.158,2.3,3.073,3.073,5.6,3.512S151.238,464.609,151.567,464.279Z" transform="translate(-135.544 -444.743)" fill="#263238" stroke="#263238" stroke-linecap="round" stroke-linejoin="round" stroke-width="1"/>
        </g>
        <path id="Trazado_635685" data-name="Trazado 635685" d="M62.733,309.607s-4.742,15.724-3.494,24.46,6.489,23.96,6.739,25.707-1.747,8.985.249,16.224,3.495,21.464,3.495,21.464l7.487-.5L81.2,334.317s12.23,27.954,13.478,29.7,11.73,30.45,11.73,30.45l8.736.5s-5.741-33.695-6.989-36.939-3.993-8.985-3.993-8.985-5.491-32.7-6.49-36.19-5.241-12.729-5.241-12.729l-23.711,1Z" transform="translate(-47.065 -223.58)" fill="#263238" stroke="#263238" stroke-linecap="round" stroke-linejoin="round" stroke-width="1"/>
        <path id="Trazado_635686" data-name="Trazado 635686" d="M81.7,286.848s8.437,1.158,14.89-.5c0,0-6.618-35.239-6.618-35.9s-16.213,2.316-16.213,2.316Z" transform="translate(-52.048 -206.746)" fill="#fff" stroke="#263238" stroke-linecap="round" stroke-linejoin="round" stroke-width="1"/>
        <g id="Grupo_963655" data-name="Grupo 963655" transform="translate(13.781)">
          <g id="Grupo_963653" data-name="Grupo 963653" transform="translate(9.723 25.145)">
            <path id="Trazado_635687" data-name="Trazado 635687" d="M90.807,228.7l-2.868,6.241,2.024,9.615a7.53,7.53,0,0,1-5.06,1.856,14.786,14.786,0,0,1-5.229-.844l-3.2-12.989,6.916-10.121A10.087,10.087,0,0,0,90.807,228.7Z" transform="translate(-76.469 -222.454)" fill="#fff" stroke="#263238" stroke-linecap="round" stroke-linejoin="round" stroke-width="1"/>
            <path id="Trazado_635688" data-name="Trazado 635688" d="M89.1,231.114l3.334,5.209,2.084-3.751Z" transform="translate(-80.742 -225.383)" fill="#263238" stroke="#263238" stroke-linecap="round" stroke-linejoin="round" stroke-width="1"/>
          </g>
          <g id="Grupo_963654" data-name="Grupo 963654" transform="translate(13.856 9.963)">
            <path id="Trazado_635689" data-name="Trazado 635689" d="M83.135,209.971a1.567,1.567,0,0,0,2.024-1.181c.506-1.687,1.181-3.374,2.867-3.88a8.788,8.788,0,0,0,4.049-2.53,27.7,27.7,0,0,1,3.374-2.868s3.037,4.892,3.037,5.9-.977,1.828-.337,2.7c1.175,1.6,3.2,3.669,3.036,4.217a8.568,8.568,0,0,1-2.193,2.868s.169,5.06-1.181,6.41-6.241.338-7.929,0-5.229-1.687-5.566-2.361-1.519-4.724-1.519-4.724S82.461,210.477,83.135,209.971Z" transform="translate(-82.714 -199.512)" fill="#fff" stroke="#263238" stroke-linecap="round" stroke-linejoin="round" stroke-width="1"/>
            <ellipse id="Elipse_7789" data-name="Elipse 7789" cx="0.675" cy="1.096" rx="0.675" ry="1.096" transform="translate(11.555 7.929)" fill="#263238"/>
            <path id="Trazado_635690" data-name="Trazado 635690" d="M98.391,209.175a2.42,2.42,0,0,1,3.2-1.349" transform="translate(-88.017 -202.259)" fill="none" stroke="#263238" stroke-linecap="round" stroke-linejoin="round" stroke-width="1"/>
            <path id="Trazado_635691" data-name="Trazado 635691" d="M104.314,224.486a2.63,2.63,0,0,1-3.374-1.012" transform="translate(-88.879 -207.617)" fill="none" stroke="#263238" stroke-linecap="round" stroke-linejoin="round" stroke-width="1"/>
          </g>
          <path id="Trazado_635692" data-name="Trazado 635692" d="M91.4,200.324a6.344,6.344,0,0,0,3.2-2.024c1.856-1.856,3.88-3.036-1.012-8.265s-16.7-6.579-20.917-4.892-10.121,9.615-10.8,14.338,2.024,7.759,2.193,9.446-4.217,3.037-.169,7.422,7.929,4.217,12.145,3.542,5.567-6.241,5.567-6.241-2.867-.169-3.711-1.349-3.036-4.049-2.867-6.073,2.867-.506,4.385-1.856,0-3.711,2.531-4.386,5.735-1.349,6.241-3.036l.506-1.687S91.4,198.974,91.4,200.324Z" transform="translate(-61.776 -184.456)" fill="#263238" stroke="#263238" stroke-linecap="round" stroke-linejoin="round" stroke-width="1"/>
          <path id="Trazado_635693" data-name="Trazado 635693" d="M82.615,220a3.881,3.881,0,0,1-4.049-1.519c-1.518-2.192-1.012-5.229,1.012-5.735s2.868,3.543,2.868,3.543" transform="translate(-67.156 -194.01)" fill="#fff" stroke="#263238" stroke-linecap="round" stroke-linejoin="round" stroke-width="1"/>
        </g>
        <path id="Trazado_635694" data-name="Trazado 635694" d="M79.1,303.37a42.636,42.636,0,0,1-10.628.165A75.651,75.651,0,0,1,56.158,300.5l9.112-21.587s-9.45-31.381-9.45-32.559c0-.788,6.055-4.341,10.105-6.624,2.032-1.151,3.56-1.979,3.56-1.979s7.081,17.881,7.253,21.084c.132,2.574.92,11,1.4,15.545.126,1.125.225,2.005.291,2.508C78.763,279.414,79.1,303.37,79.1,303.37Z" transform="translate(-45.98 -202.482)" fill="#449c6e" stroke="#263238" stroke-linecap="round" stroke-linejoin="round" stroke-width="1"/>
        <path id="Trazado_635695" data-name="Trazado 635695" d="M83.3,274.378c-1.879-4.513-4.46-10.906-5.7-14.764-1.727-5.36-5.327-16.312-6.505-19.886,2.032-1.151,3.56-1.979,3.56-1.979s7.081,17.881,7.253,21.084C82.035,261.408,82.823,269.832,83.3,274.378Z" transform="translate(-51.145 -202.482)" fill="#449c6e" stroke="#263238" stroke-linecap="round" stroke-linejoin="round" stroke-width="1"/>
        <path id="Trazado_635696" data-name="Trazado 635696" d="M152.176,213.072a63.393,63.393,0,0,0,2.124-6.138c0-.674.912-9.213.912-9.213s.31-1,.921-1,.611.349.611.96-.175,3.054-.175,3.054.7-3.4.873-4.8.436-2.269,1.047-1.92.7.785.7,1.658-.436,4.712-.436,4.712,2.007-5.847,2.182-6.632.785-.7,1.047.175-1.047,4.45-1.047,5.148a8.224,8.224,0,0,1-.349,1.832s1.658-2.182,2.269-2.967,1.134-1.222,1.222-.261a6,6,0,0,1-1.048,2.879c-.349.611-1.309,2.793-1.309,2.793l-.087,1.745,2.967-1.658s.96.349.611,1.134-3.4,2.967-3.4,2.967-1.4,1.222-1.658,1.571a8.451,8.451,0,0,1-1.832,1.047l-2.705,5.672Z" transform="translate(-78.571 -187.42)" fill="#fff" stroke="#263238" stroke-linecap="round" stroke-linejoin="round" stroke-width="1"/>
        <g id="Grupo_963656" data-name="Grupo 963656" transform="translate(34.974 24.468)">
          <path id="Trazado_635697" data-name="Trazado 635697" d="M137.661,224.467s-9.45,24.968-10.125,25.471-18.721-2.025-18.721-2.025l-2.025,15.353,7.087,31.209s-3.547,2.362-5.235,2.362h-5.228s-2.1-16.193-3.9-28.575c-1.039-7.147-1.972-13.023-2.343-13.765-1.012-2.025-3.375-19.906-3.375-19.906l1.185-1.86,1.807.152,12.024,1.032,12.315,4.553L132.1,221.43Z" transform="translate(-93.8 -221.43)" fill="#449c6e" stroke="#263238" stroke-linecap="round" stroke-linejoin="round" stroke-width="1"/>
          <path id="Trazado_635698" data-name="Trazado 635698" d="M99.518,274.04c-1.039-7.147-1.972-13.023-2.343-13.765C96.162,258.25,93.8,240.37,93.8,240.37l1.185-1.86,1.807.152c.821,2.839,3.382,11.958,3.9,17.874C101.245,262.8,99.848,271.988,99.518,274.04Z" transform="translate(-93.8 -227.207)" fill="#449c6e" stroke="#263238" stroke-linecap="round" stroke-linejoin="round" stroke-width="1"/>
          <path id="Trazado_635699" data-name="Trazado 635699" d="M116.489,257.8l1.464-7.159,1.875,7.5Z" transform="translate(-101.474 -231.309)" fill="#263238" stroke="#263238" stroke-linecap="round" stroke-linejoin="round" stroke-width="1"/>
        </g>
        <g id="Grupo_963657" data-name="Grupo 963657" transform="translate(0 43.87)">
          <path id="Trazado_635700" data-name="Trazado 635700" d="M51.351,250.749s-7.65,23.162-8.643,29.78,5.46,6.783,8.6,5.625,5.294-18.2,5.294-18.2Z" transform="translate(-41.51 -250.749)" fill="#449c6e" stroke="#263238" stroke-linecap="round" stroke-linejoin="round" stroke-width="1"/>
          <path id="Trazado_635701" data-name="Trazado 635701" d="M56.761,269.4,60.9,293.393l17.537-1.82-4.3-23.823Z" transform="translate(-46.298 -256.499)" fill="#263238" stroke="#263238" stroke-linecap="round" stroke-linejoin="round" stroke-width="1"/>
          <path id="Trazado_635702" data-name="Trazado 635702" d="M55.261,294l.165,11.912s2.812-6.948,2.482-9.1A3.834,3.834,0,0,0,55.261,294Z" transform="translate(-45.791 -265.378)" fill="#263238" stroke="#263238" stroke-linecap="round" stroke-linejoin="round" stroke-width="1"/>
          <path id="Trazado_635703" data-name="Trazado 635703" d="M42.479,293.912s-1.82,3.474-1.489,6.287,4.963,5.294,6.121,5.294a28.411,28.411,0,0,1,2.987.25l.029-11.935-3.843-.558" transform="translate(-40.95 -265.125)" fill="#449c6e" stroke="#263238" stroke-linecap="round" stroke-linejoin="round" stroke-width="1"/>
          <path id="Trazado_635704" data-name="Trazado 635704" d="M55.838,287.606s-.165-6.121-.165-6.948,4.136-3.474,5.129-4.136,1.654-.662,1.324.5-3.805,3.309-3.805,3.309l-.165,1.158s2.812-2.482,4.467-2.812,1.985-.827,1.985.165-2.482,2.151-3.143,2.647-2.978,2.647-2.978,2.647a18.711,18.711,0,0,1,4.963-2.151c1.985-.331,2.482-.331,2.482.331s-.662.993-1.654,1.489-3.805,1.654-3.805,1.654l-.993,1.324a49.214,49.214,0,0,0,5.294-1.324c.5-.331,1.324-.165.331.827s-4.963,2.482-4.963,2.482a11.764,11.764,0,0,1-.993,3.143,3.534,3.534,0,0,1-2.482,1.324l-1.654-.662.165-4.632Z" transform="translate(-45.706 -259.315)" fill="#fff" stroke="#263238" stroke-linecap="round" stroke-linejoin="round" stroke-width="1"/>
        </g>
      </g>
    </g>
  </g>
</svg>
