<svg xmlns="http://www.w3.org/2000/svg" width="73" height="73" viewBox="0 0 73 73">
  <g id="Grupo_957402" data-name="Grupo 957402" transform="translate(-202 -7053)">
    <rect id="Rectángulo_307000" data-name="Rectángulo 307000" width="73" height="73" transform="translate(202 7053)" fill="none"/>
    <g id="Grupo_957399" data-name="Grupo 957399" transform="translate(513.363 7037.271)">
      <path id="Trazado_632289" data-name="Trazado 632289" d="M-261.037,37.045c.955-.96,1.877-1.905,2.823-2.827a.805.805,0,0,0,.2-.673c0-2.5.016-5-.013-7.495-.006-.485.141-.574.583-.559.969.034,1.941,0,2.911.018.35.008.525-.037.5-.456-.035-.488-.174-1.152.076-1.429.3-.327.969-.085,1.478-.1.66-.019,1.322-.017,1.982,0,.3.008.444-.044.427-.4-.024-.51-.181-1.229.081-1.483.346-.334,1.052-.1,1.6-.1,1.28-.014,2.561,0,3.841-.011.306,0,.423.057.422.4q-.019,6.535,0,13.07c0,.474-.242.414-.532.413-3.8,0-7.6,0-11.4-.01a1.211,1.211,0,0,0-.965.406c-.844.878-1.711,1.734-2.583,2.584a.416.416,0,0,0-.074.617,17.291,17.291,0,0,1,2.554,7.854c.025.335.126.468.479.447.515-.03,1.032-.013,1.549-.007a2.966,2.966,0,0,1,3.027,3.074q.012,7.092-.007,14.185c0,.461.066.651.6.738a8.915,8.915,0,0,1,7.341,9.023,8.932,8.932,0,0,1-7.605,8.552A8.929,8.929,0,0,1-261.848,75.6a8.9,8.9,0,0,1,7.417-10.327c.327-.057.39-.182.389-.477-.007-4.811,0-9.622-.01-14.432a.984.984,0,0,0-1.087-1.07,4.174,4.174,0,0,0-1.714.045c-.562.262-.273,1.029-.36,1.562a17.755,17.755,0,0,1-8,12.4c-.084.056-.165.115-.276.193.143.115.269.216.393.319a2.941,2.941,0,0,1-.6,5.011c-.3.144-.436.238-.346.615a2.867,2.867,0,0,1-1.659,3.359c-.285.132-.41.221-.331.569a2.831,2.831,0,0,1-1.515,3.314.6.6,0,0,0-.359.673,5.354,5.354,0,0,1-1.011,3.674,4.954,4.954,0,0,1-5.418,1.73,4.951,4.951,0,0,1-3.478-4.563,2.342,2.342,0,0,1,0-.371,1.191,1.191,0,0,0-.692-1.358,2.755,2.755,0,0,1-1.2-3.066c.055-.248.1-.418-.22-.573a2.854,2.854,0,0,1-1.74-3.475c.046-.234.047-.373-.212-.469a2.958,2.958,0,0,1-.43-5.305c.014-.009.017-.036.048-.1a20.918,20.918,0,0,1-2.939-2.288,17.1,17.1,0,0,1-2.865-3.556.729.729,0,0,0-.729-.416c-1.549.021-3.1.006-4.647.01-.883,0-1.225.349-1.226,1.245,0,3.386.007,6.772-.012,10.159,0,.422.148.445.514.506a2.081,2.081,0,0,0,2.69-1.647,5.469,5.469,0,0,1,.6-1.213,2.174,2.174,0,0,1,2.426-1.06,2.215,2.215,0,0,1,1.705,2.1c0,.1,0,.206,0,.31a4.288,4.288,0,0,0,.028,1.292c.154.463.735.237,1.105.419a2.9,2.9,0,0,1,1.824,2.652c.042,2.7.033,5.409.006,8.114a2.917,2.917,0,0,1-2.893,2.885q-7,.031-14,0a2.926,2.926,0,0,1-2.916-2.927q-.031-4,0-7.99a2.948,2.948,0,0,1,2.962-2.947c1.136-.016,2.272-.027,3.407.008.455.014.58-.092.577-.565-.024-3.345-.014-6.69-.012-10.035a3,3,0,0,1,3.313-3.287l3.841,0a1.119,1.119,0,0,0,.17-.035,18.914,18.914,0,0,1-1.188-4.392c-.008-.061-.025-.122-.032-.183-.052-.429.044-1.078-.19-1.235-.333-.223-.908-.1-1.38-.1-1.957,0-3.133-.8-3.475-2.386a4.165,4.165,0,0,1-.064-.861c0-2.065-.013-4.13.006-6.194,0-.4-.083-.548-.517-.615a8.921,8.921,0,0,1-7.42-8.958,8.931,8.931,0,0,1,7.587-8.63,8.915,8.915,0,0,1,10.251,9.171,8.944,8.944,0,0,1-7.463,8.425c-.365.057-.474.164-.471.531.017,2.127,0,4.253.011,6.38a1.011,1.011,0,0,0,1.134,1.151c.578.009,1.274.2,1.7-.056.459-.271.233-1.048.327-1.6A17.671,17.671,0,0,1-278.2,30.8c6.568-1.221,12.175.768,16.7,5.716C-261.347,36.68-261.205,36.851-261.037,37.045Zm-13.841,30.082h1.734c2.044,0,4.088.006,6.132,0a.986.986,0,0,0,1.065-.968,1,1,0,0,0-.9-1c-.354-.052-.842.184-1.032-.132-.165-.274-.039-.723-.041-1.094a3.149,3.149,0,0,0-.005-.556c-.111-.6.155-.9.677-1.184A15.756,15.756,0,0,0-259.1,46.705a15.828,15.828,0,0,0-18.409-14.039,15.927,15.927,0,0,0-12.931,12.554,15.631,15.631,0,0,0,7.164,16.451,2.541,2.541,0,0,1,1.5,2.788c-.055.532-.125.773-.7.695a1.044,1.044,0,0,0-1.2.56c-.347.716.161,1.408,1.059,1.411C-280.039,67.132-277.459,67.128-274.878,67.128Zm-21.8-29.733a6.963,6.963,0,0,0,6.941-6.919,6.96,6.96,0,0,0-6.9-6.954,6.96,6.96,0,0,0-6.972,6.949A6.962,6.962,0,0,0-296.677,37.395Zm50.559,36.666a6.962,6.962,0,0,0-6.927-6.932,6.961,6.961,0,0,0-6.949,6.909A6.964,6.964,0,0,0-253.037,81,6.965,6.965,0,0,0-246.118,74.061ZM-295.693,81c2.251,0,4.5,0,6.752,0,.814,0,1.185-.362,1.187-1.162q.01-3.778,0-7.555c0-.835-.367-1.181-1.223-1.189-.413,0-.828-.025-1.238.006-.391.03-.536-.077-.522-.5.034-.948.016-1.9.006-2.848,0-.208.112-.513-.2-.573s-.325.265-.42.452c-.505.991-1.017,1.98-1.486,2.988a.739.739,0,0,1-.8.485c-2.891-.02-5.781-.012-8.672-.01-.976,0-1.3.325-1.306,1.292q0,3.654,0,7.307c0,.975.328,1.307,1.291,1.308Q-299.007,81.006-295.693,81Zm20.762-9.91c1.938,0,3.875,0,5.813,0,.733,0,1.176-.372,1.188-.969.013-.619-.444-1.009-1.21-1.009q-5.72,0-11.441,0c-.777,0-1.226.377-1.218,1s.456.978,1.24.979Q-277.745,71.1-274.932,71.092Zm.053,5.947c-.845,0-1.689-.005-2.534,0-.158,0-.356-.1-.43.2A3.146,3.146,0,0,0-275.007,81a3.119,3.119,0,0,0,3.123-3.722c-.055-.295-.229-.235-.4-.236C-273.148,77.036-274.013,77.039-274.878,77.039Zm26.78-48.62v3.523c0,1.513,0,1.5,1.49,1.5.42,0,.5-.133.5-.521-.016-2.637-.008-5.274-.008-7.911,0-1.539,0-1.526-1.552-1.5-.361.006-.44.121-.436.457C-248.089,25.452-248.1,26.936-248.1,28.419Zm-26.783,46.637c1.277,0,2.554.006,3.832,0,.708,0,1.156-.419,1.137-1.019a1.006,1.006,0,0,0-1.136-.958q-3.8-.009-7.6,0c-.726,0-1.167.385-1.167.988s.44.986,1.166.99C-277.395,75.061-276.138,75.056-274.881,75.056Zm22.818-45.612v2.533c0,1.47,0,1.449,1.462,1.466.451.005.534-.139.529-.555-.022-1.956-.01-3.913-.01-5.869,0-1.586,0-1.574-1.586-1.526-.339.01-.406.122-.4.429C-252.054,27.1-252.064,28.27-252.064,29.444Zm-3.965.966v1.543c0,1.5,0,1.484,1.5,1.49.433,0,.5-.154.491-.529-.02-1.317-.007-2.634-.007-3.951,0-1.5,0-1.484-1.5-1.49-.434,0-.5.153-.491.529C-256.012,28.8-256.029,29.607-256.029,30.41Z" fill="#020202"/>
      <path id="Trazado_632290" data-name="Trazado 632290" d="M-229.9,100.367c-2.581,0-5.161,0-7.742,0-.9,0-1.406-.7-1.059-1.411a1.044,1.044,0,0,1,1.2-.56c.578.078.649-.163.7-.695a2.541,2.541,0,0,0-1.5-2.788,15.631,15.631,0,0,1-7.164-16.451A15.927,15.927,0,0,1-232.53,65.906a15.829,15.829,0,0,1,18.409,14.039,15.756,15.756,0,0,1-8.157,15.478c-.522.286-.788.588-.677,1.184a3.151,3.151,0,0,1,.005.556c0,.371-.123.82.041,1.094.19.316.678.08,1.032.132a1,1,0,0,1,.9,1,.986.986,0,0,1-1.065.968c-2.044.011-4.088,0-6.132,0Zm-10.877-23.6c-.1.272-.179.489-.471.568-.377.1-.737.262-1.111.375a.49.49,0,0,0-.425.549c.019,2.188.015,4.377,0,6.566,0,.293.081.449.366.528.337.094.665.218.994.338.663.242.744.431.454,1.047a4.231,4.231,0,0,1-.353.719c-.331.453-.158.745.2,1.09,1.173,1.133,2.314,2.3,3.469,3.452.394.393.732.956,1.208,1.125.5.176.994-.368,1.5-.574.446-.181.7-.058.852.38a9.271,9.271,0,0,1,.345.991c.092.43.32.52.734.514,1.776-.025,3.552-.01,5.328-.01,1.456,0,1.456,0,1.964-1.382.021-.058.033-.12.058-.176a.542.542,0,0,1,.836-.315,9.278,9.278,0,0,1,.943.46c.4.261.641.135.942-.175,1.21-1.243,2.446-2.46,3.673-3.686,1.072-1.072,1.072-1.072.434-2.472-.017-.037-.029-.077-.046-.115-.192-.407-.049-.667.357-.81.369-.13.732-.281,1.109-.38.342-.09.428-.271.424-.614-.02-1.714-.006-3.427-.01-5.141,0-.577.168-1.266-.089-1.7-.214-.358-.938-.411-1.436-.6a.546.546,0,0,1-.333-.871c.158-.312.281-.645.464-.941.227-.369.135-.6-.166-.895-1.216-1.178-2.4-2.387-3.6-3.583-.38-.379-.707-.931-1.163-1.08-.5-.164-1,.365-1.5.577a.556.556,0,0,1-.854-.382c-.124-.349-.271-.693-.363-1.05s-.288-.458-.653-.454c-1.735.02-3.47.007-5.2.01-.536,0-1.168-.159-1.581.07s-.414.935-.607,1.428c-.169.432-.424.58-.856.369-.314-.154-.646-.278-.943-.459a.618.618,0,0,0-.9.134q-2.182,2.241-4.425,4.423a.652.652,0,0,0-.135.95C-241.122,75.954-240.959,76.378-240.779,76.764Z" transform="translate(-44.976 -33.24)" fill="#fae8ad"/>
      <path id="Trazado_632291" data-name="Trazado 632291" d="M-290.643,43.615a6.962,6.962,0,0,1-6.935-6.924,6.96,6.96,0,0,1,6.972-6.949,6.96,6.96,0,0,1,6.9,6.954A6.963,6.963,0,0,1-290.643,43.615Zm4.635-9.194a2.943,2.943,0,0,0-.188-.243c-.171-.179-.349-.352-.524-.527-.653-.653-.653-.653-1.284-.022-1.431,1.43-2.866,2.856-4.289,4.3-.23.233-.368.292-.64.03-.328-.316-.582-.944-1.032-.844-.394.088-.678.625-1.034.938-.26.228-.27.388-.009.636.7.669,1.4,1.35,2.056,2.06.281.3.427.23.678-.023q2.964-2.992,5.951-5.962C-286.221,34.659-286.128,34.551-286.007,34.422Z" transform="translate(-6.034 -6.221)" fill="#ed8773"/>
      <path id="Trazado_632292" data-name="Trazado 632292" d="M-108.009,212.322a6.965,6.965,0,0,1-6.919,6.941,6.964,6.964,0,0,1-6.957-6.964,6.961,6.961,0,0,1,6.949-6.909A6.962,6.962,0,0,1-108.009,212.322Zm-2.345-2.212c.008-.181-.113-.246-.194-.33-.215-.223-.461-.421-.65-.662-.323-.412-.55-.443-.951-.025-1.443,1.5-2.939,2.958-4.409,4.437-.22.221-.368.4-.684.072s-.577-.946-1.03-.842c-.395.091-.678.627-1.034.939-.264.231-.261.39,0,.636q1.053,1,2.059,2.058c.232.242.372.282.632.019,2-2.025,4.024-4.035,6.038-6.049C-110.5,210.275-110.419,210.181-110.354,210.11Z" transform="translate(-138.109 -138.261)" fill="#ed8773"/>
      <path id="Trazado_632293" data-name="Trazado 632293" d="M-289.664,219.4q-3.314,0-6.628,0c-.963,0-1.29-.334-1.291-1.308q0-3.654,0-7.307c0-.967.329-1.292,1.306-1.292,2.891,0,5.781-.01,8.672.01a.739.739,0,0,0,.8-.485c.47-1.008.981-2,1.486-2.988.1-.186.123-.508.42-.452s.2.365.2.573c.009.949.027,1.9-.006,2.848-.015.423.13.53.522.5.41-.031.825-.01,1.238-.006.856.008,1.221.354,1.223,1.189q.009,3.778,0,7.555c0,.8-.372,1.16-1.187,1.162C-285.163,219.4-287.414,219.4-289.664,219.4Zm.014-5.946h4.515c1.439,0,1.415,0,1.442-1.427.009-.479-.135-.568-.584-.566-3.278.02-6.556.011-9.835.011-1.515,0-1.5,0-1.5,1.489,0,.418.129.505.52.5C-293.279,213.438-291.464,213.449-289.65,213.449Zm-1.991,1.982h-2.472c-1.512,0-1.495,0-1.5,1.49,0,.418.13.5.52.5,1.978-.019,3.956-.009,5.933-.009,1.539,0,1.525,0,1.5-1.552-.006-.359-.118-.443-.456-.437C-289.291,215.443-290.466,215.432-291.64,215.432Zm5.952.95c0,1.032,0,1.032,1.012,1.032.971,0,.971,0,.971-.95,0-1.032,0-1.032-1.012-1.032C-285.688,215.432-285.688,215.432-285.688,216.382Z" transform="translate(-6.029 -138.393)" fill="#bbda89"/>
      <path id="Trazado_632294" data-name="Trazado 632294" d="M-202.85,215.35q-2.814,0-5.628,0c-.784,0-1.233-.362-1.24-.979s.442-1,1.218-1q5.72,0,11.441,0c.766,0,1.223.39,1.21,1.009-.013.6-.455.968-1.188.969C-198.975,215.353-200.913,215.35-202.85,215.35Z" transform="translate(-72.081 -144.258)" fill="#cbcfd6"/>
      <path id="Trazado_632295" data-name="Trazado 632295" d="M-191.059,245.278c.865,0,1.731,0,2.6,0,.17,0,.344-.059.4.236a3.119,3.119,0,0,1-3.123,3.722,3.146,3.146,0,0,1-2.836-3.757c.074-.3.273-.2.431-.2C-192.748,245.272-191.9,245.278-191.059,245.278Z" transform="translate(-83.819 -168.239)" fill="#a9b0ba"/>
      <path id="Trazado_632296" data-name="Trazado 632296" d="M-73.993,34.589c0-1.483.009-2.967-.007-4.45,0-.336.075-.451.436-.457,1.552-.027,1.552-.041,1.552,1.5,0,2.637-.008,5.274.008,7.911,0,.388-.08.522-.5.521-1.49-.005-1.49.013-1.49-1.5Q-73.993,36.35-73.993,34.589Z" transform="translate(-174.105 -6.169)" fill="#bbda89"/>
      <path id="Trazado_632297" data-name="Trazado 632297" d="M-196.8,231.314c-1.257,0-2.513,0-3.77,0-.725,0-1.167-.388-1.166-.99s.441-.986,1.167-.988q3.8-.008,7.6,0a1.006,1.006,0,0,1,1.136.958c.019.6-.429,1.014-1.137,1.019C-194.243,231.321-195.52,231.314-196.8,231.314Z" transform="translate(-78.084 -156.258)" fill="#cbcfd6"/>
      <path id="Trazado_632298" data-name="Trazado 632298" d="M-89.962,41.592c0-1.174.009-2.348-.006-3.521,0-.308.062-.419.4-.429,1.586-.048,1.586-.061,1.586,1.526,0,1.957-.012,3.913.01,5.869,0,.416-.079.56-.529.555-1.462-.017-1.462,0-1.462-1.466Q-89.963,42.859-89.962,41.592Z" transform="translate(-162.101 -12.148)" fill="#bbda89"/>
      <path id="Trazado_632299" data-name="Trazado 632299" d="M-105.942,48.595c0-.8.017-1.606-.007-2.408-.011-.376.057-.531.491-.529,1.5.006,1.5-.014,1.5,1.49,0,1.317-.012,2.635.007,3.951.006.375-.058.531-.491.529-1.5-.005-1.5.014-1.5-1.49Z" transform="translate(-150.087 -18.185)" fill="#bbda89"/>
      <path id="Trazado_632300" data-name="Trazado 632300" d="M-231.728,85.592c-.18-.385-.343-.81-.57-1.2a.652.652,0,0,1,.135-.95q2.244-2.179,4.425-4.423a.618.618,0,0,1,.9-.134c.3.181.629.3.943.459.432.212.687.064.855-.369.192-.492.187-1.2.607-1.428s1.045-.069,1.581-.07c1.735,0,3.47.01,5.2-.01.365,0,.56.092.653.454s.239.7.363,1.05a.556.556,0,0,0,.854.382c.5-.212,1-.741,1.5-.577.457.149.783.7,1.163,1.08,1.2,1.2,2.384,2.4,3.6,3.583.3.292.393.526.166.895-.182.3-.305.629-.464.941a.546.546,0,0,0,.333.871c.5.187,1.222.24,1.436.6.257.429.088,1.118.089,1.7,0,1.714-.009,3.428.01,5.141,0,.344-.082.525-.424.614-.377.1-.741.25-1.109.38-.406.143-.549.4-.357.81.018.037.029.077.046.115.638,1.4.638,1.4-.434,2.472-1.227,1.226-2.463,2.443-3.673,3.686-.3.31-.545.436-.942.175a9.273,9.273,0,0,0-.943-.46.542.542,0,0,0-.836.315c-.025.056-.037.118-.058.176-.508,1.382-.508,1.382-1.964,1.382-1.776,0-3.552-.014-5.328.01-.414.006-.643-.084-.734-.514a9.265,9.265,0,0,0-.345-.991c-.148-.439-.406-.562-.852-.38-.506.206-1,.75-1.5.574-.476-.168-.814-.731-1.208-1.125-1.155-1.152-2.3-2.319-3.469-3.452-.358-.346-.531-.637-.2-1.09a4.234,4.234,0,0,0,.353-.719c.29-.617.209-.806-.454-1.047-.329-.12-.657-.244-.994-.338-.285-.079-.368-.235-.366-.528.013-2.189.016-4.377,0-6.566a.49.49,0,0,1,.425-.549c.374-.113.734-.274,1.111-.375C-231.907,86.082-231.83,85.864-231.728,85.592Zm10.876,15.675c.64,0,1.28,0,1.921,0,.218,0,.422,0,.46-.282.119-.892.728-1.231,1.5-1.552a1.723,1.723,0,0,1,1.87.069.424.424,0,0,0,.636-.081c.873-.908,1.771-1.791,2.668-2.676.175-.173.321-.327.132-.571a1.862,1.862,0,0,1-.036-2.1c.29-.677.593-1.179,1.356-1.3a.43.43,0,0,0,.418-.494c-.021-1.28-.016-2.56,0-3.84,0-.276-.084-.432-.356-.473-.809-.121-1.125-.668-1.435-1.379a1.821,1.821,0,0,1,.057-2.038c.154-.2.089-.357-.086-.529q-1.391-1.368-2.761-2.758c-.147-.149-.278-.236-.475-.09a1.984,1.984,0,0,1-2.213.021c-.635-.285-1.105-.568-1.207-1.285-.054-.381-.287-.467-.654-.46-1.177.024-2.355.028-3.531,0-.4-.01-.6.106-.7.489-.084.312-.1.8-.376.876-.932.277-1.784,1.27-2.884.418-.247-.191-.452-.144-.684.1-.874.906-1.773,1.79-2.667,2.676-.158.156-.294.3-.12.521a1.946,1.946,0,0,1,.036,2.153,1.762,1.762,0,0,1-1.374,1.284.393.393,0,0,0-.387.448c.017,1.3.009,2.6.005,3.9,0,.2.018.376.268.406.931.112,1.253.777,1.583,1.554a1.59,1.59,0,0,1-.056,1.757c-.231.309-.134.53.132.782.7.668,1.379,1.365,2.065,2.052.782.783.788.8,1.813.321.567-.263.9.251,1.361.339a1.471,1.471,0,0,1,1.32,1.316c.05.35.261.45.61.431C-222.051,101.245-221.452,101.267-220.852,101.267Z" transform="translate(-54.027 -42.069)" fill="#030302"/>
      <path id="Trazado_632301" data-name="Trazado 632301" d="M-278.8,44.767c-.12.13-.214.237-.314.338q-2.977,2.979-5.951,5.962c-.251.253-.4.325-.678.023-.661-.71-1.354-1.391-2.056-2.06-.26-.248-.25-.407.009-.636.356-.313.64-.85,1.034-.938.45-.1.7.528,1.032.844.271.262.41.2.64-.03,1.422-1.439,2.858-2.865,4.289-4.3.631-.631.631-.631,1.284.022.175.175.353.348.524.527A2.937,2.937,0,0,1-278.8,44.767Z" transform="translate(-13.242 -16.566)" fill="#060403"/>
      <path id="Trazado_632302" data-name="Trazado 632302" d="M-103.147,220.416c-.064.071-.142.165-.228.251-2.014,2.015-4.034,4.024-6.038,6.049-.26.263-.4.223-.632-.019q-1.007-1.051-2.059-2.058c-.257-.245-.259-.4,0-.636.356-.312.639-.849,1.034-.939.453-.1.714.519,1.03.842s.465.149.684-.072c1.47-1.479,2.966-2.933,4.409-4.437.4-.418.628-.387.951.025.19.242.436.439.65.662C-103.26,220.17-103.139,220.235-103.147,220.416Z" transform="translate(-145.316 -148.567)" fill="#060403"/>
      <path id="Trazado_632303" data-name="Trazado 632303" d="M-283.679,231.287c-1.814,0-3.629-.011-5.443.009-.391,0-.521-.083-.52-.5.005-1.489-.012-1.489,1.5-1.489,3.278,0,6.556.009,9.835-.011.448,0,.593.087.584.566-.027,1.427,0,1.427-1.442,1.427Z" transform="translate(-12 -156.231)"/>
      <path id="Trazado_632304" data-name="Trazado 632304" d="M-285.67,245.284c1.174,0,2.349.011,3.523-.007.338-.005.45.078.456.437.027,1.552.04,1.552-1.5,1.552-1.978,0-3.956-.01-5.934.009-.39,0-.521-.083-.52-.5.005-1.49-.013-1.49,1.5-1.49Z" transform="translate(-12 -168.245)"/>
      <path id="Trazado_632305" data-name="Trazado 632305" d="M-249.666,246.256c0-.95,0-.95.971-.95,1.012,0,1.012,0,1.012,1.032,0,.95,0,.95-.971.95C-249.666,247.288-249.666,247.288-249.666,246.256Z" transform="translate(-42.051 -168.267)"/>
      <path id="Trazado_632306" data-name="Trazado 632306" d="M-214.839,107.4c-.6,0-1.2-.022-1.8.009-.349.018-.56-.081-.61-.431a1.471,1.471,0,0,0-1.32-1.316c-.458-.089-.795-.6-1.361-.339-1.025.476-1.031.462-1.813-.321-.686-.687-1.361-1.384-2.065-2.052-.265-.251-.363-.472-.132-.782a1.59,1.59,0,0,0,.056-1.757c-.33-.777-.652-1.442-1.583-1.554-.249-.03-.268-.2-.268-.406,0-1.3.011-2.6-.005-3.9a.393.393,0,0,1,.387-.448,1.762,1.762,0,0,0,1.374-1.284,1.946,1.946,0,0,0-.035-2.153c-.174-.226-.038-.365.12-.521.895-.887,1.793-1.77,2.667-2.676.232-.24.438-.287.684-.1,1.1.851,1.952-.142,2.884-.418.272-.081.291-.564.376-.876.1-.384.305-.5.7-.489,1.177.03,2.354.026,3.531,0,.366-.007.6.079.654.46.1.718.572,1,1.207,1.285a1.984,1.984,0,0,0,2.213-.021c.2-.146.327-.059.475.09q1.373,1.386,2.761,2.758c.175.172.241.325.086.529a1.821,1.821,0,0,0-.057,2.038c.309.711.625,1.258,1.434,1.379.273.041.359.2.356.473-.013,1.28-.018,2.56,0,3.84a.43.43,0,0,1-.418.494c-.763.121-1.065.623-1.356,1.3a1.862,1.862,0,0,0,.036,2.1c.189.245.043.4-.132.571-.9.885-1.795,1.768-2.668,2.676a.424.424,0,0,1-.636.081,1.723,1.723,0,0,0-1.87-.069c-.776.321-1.385.66-1.5,1.552-.038.284-.242.283-.46.282C-213.558,107.393-214.2,107.4-214.839,107.4Zm-7.916-10.943a7.953,7.953,0,0,0,7.859,7.97,7.95,7.95,0,0,0,8-7.888,7.95,7.95,0,0,0-7.859-7.969A7.95,7.95,0,0,0-222.755,96.453Z" transform="translate(-60.041 -48.197)" fill="#f4c54e"/>
      <path id="Trazado_632307" data-name="Trazado 632307" d="M-213.729,105.489a7.951,7.951,0,0,1,8-7.887,7.95,7.95,0,0,1,7.859,7.969,7.95,7.95,0,0,1-8,7.888A7.953,7.953,0,0,1-213.729,105.489Zm7.92-5.9a5.966,5.966,0,0,0-5.936,5.955,5.968,5.968,0,0,0,5.957,5.936,5.965,5.965,0,0,0,5.936-5.957A5.963,5.963,0,0,0-205.809,99.586Z" transform="translate(-69.066 -57.233)" fill="#040301"/>
      <path id="Trazado_632308" data-name="Trazado 632308" d="M-199.8,105.59a5.963,5.963,0,0,1,5.957,5.934,5.965,5.965,0,0,1-5.936,5.957,5.968,5.968,0,0,1-5.957-5.936A5.966,5.966,0,0,1-199.8,105.59Zm-.006,9.908a3.976,3.976,0,0,0,3.98-3.963,3.973,3.973,0,0,0-3.917-3.963,3.975,3.975,0,0,0-4.01,3.932A3.978,3.978,0,0,0-199.809,115.5Z" transform="translate(-75.073 -63.238)" fill="#f1d37d"/>
      <path id="Trazado_632309" data-name="Trazado 632309" d="M-193.8,121.5a3.978,3.978,0,0,1-3.947-4,3.975,3.975,0,0,1,4.01-3.932,3.973,3.973,0,0,1,3.917,3.963A3.976,3.976,0,0,1-193.8,121.5Zm0-5.945a1.991,1.991,0,0,0-1.96,1.971,2,2,0,0,0,2,1.992,2,2,0,0,0,1.961-1.972A2,2,0,0,0-193.81,115.554Z" transform="translate(-81.077 -69.238)" fill="#030302"/>
      <path id="Trazado_632310" data-name="Trazado 632310" d="M-187.807,121.556a2,2,0,0,1,2,1.991,2,2,0,0,1-1.961,1.972,2,2,0,0,1-2-1.992A1.991,1.991,0,0,1-187.807,121.556Z" transform="translate(-87.079 -75.24)" fill="#f6e5ab"/>
    </g>
  </g>
</svg>
