<svg xmlns="http://www.w3.org/2000/svg" width="60" height="60" viewBox="0 0 60 60">
  <g id="Grupo_963172" data-name="Grupo 963172" transform="translate(-410 -1150)">
    <rect id="Rectángulo_305522" data-name="Rectángulo 305522" width="60" height="60" transform="translate(410 1150)" fill="none"/>
    <g id="Grupo_963169" data-name="Grupo 963169" transform="translate(-393.736 1234.513)">
      <path id="Trazado_634672" data-name="Trazado 634672" d="M828.672-63.4a2.48,2.48,0,0,1-.512-2.188c.047-.17,0-.221-.18-.25a.838.838,0,0,1-.721-.839c-.467-3.567-.953-7.132-1.41-10.7-.058-.453-.195-.64-.672-.577a6.507,6.507,0,0,1-1.11.006.8.8,0,0,1-.834-.823.79.79,0,0,1,.819-.784c.791-.016,1.582-.014,2.373,0a.8.8,0,0,1,.845.762,10.654,10.654,0,0,1,.166,1.249c.012.368.168.417.493.416q6.009-.017,12.018-.007c.83,0,1.13.345,1.037,1.156q-.391,3.408-.772,6.817c-.076.673-.332.913-1.012.913-3.316,0-6.632,0-9.948.016-.167,0-.549-.272-.548.223,0,.4.118.589.608.585,3.568-.029,7.137-.012,10.705-.019a.869.869,0,0,1,.968.627.81.81,0,0,1-.646.978c-.12.036-.292-.013-.227.213a2.52,2.52,0,0,1-.5,2.226h.551c3.956,0,7.911.008,11.867-.009a1.1,1.1,0,0,1,1.156.754c.976,2.247,1.979,4.481,2.98,6.717a2.161,2.161,0,0,1,.2.923c-.01,1.33,0,2.659-.005,3.989a2.814,2.814,0,0,1-2.876,2.972c-.281.008-.363.071-.362.359q.013,8.129,0,16.258c0,.278.062.384.356.365.4-.025.808-.015,1.212,0a.805.805,0,0,1,.859.8.811.811,0,0,1-.846.814c-.134.007-.269,0-.4,0H809.915c-.841,0-1.212-.237-1.228-.786-.016-.566.376-.831,1.233-.831,1.347,0,2.693-.011,4.04.008.309,0,.39-.071.389-.386q-.016-8.1,0-16.208c0-.3-.065-.386-.382-.393a2.8,2.8,0,0,1-2.856-2.938c-.005-1.363,0-2.727,0-4.09a1.835,1.835,0,0,1,.167-.778c1.021-2.282,2.044-4.562,3.042-6.853a1.039,1.039,0,0,1,1.091-.691C819.8-63.394,824.192-63.4,828.672-63.4Zm12.741,32.322c3.2,0,6.4-.009,9.594.011.42,0,.519-.1.518-.518q-.024-8.129-.011-16.258c0-.084,0-.169,0-.252-.025-.443-.494-.44-.714-.7-.166-.193-.3.077-.4.167a4,4,0,0,1-4.273-.038c-.193-.184-.326-.212-.532-.011a3.921,3.921,0,0,1-4.344-.011c-.187-.184-.31-.177-.492,0a3.934,3.934,0,0,1-4.346.009c-.172-.167-.3-.218-.492-.02a3.914,3.914,0,0,1-4.384,0c-.164-.166-.283-.178-.452-.006a3.915,3.915,0,0,1-4.384.015c-.19-.19-.313-.167-.492.007a3.933,3.933,0,0,1-4.346,0c-.176-.172-.3-.206-.492-.014a3.937,3.937,0,0,1-4.388,0c-.067-.067-.128-.165-.247-.153a1.437,1.437,0,0,0-.783.96q0,5.731,0,11.461c0,1.633.015,3.265-.011,4.9-.006.392.109.483.475.458a9.166,9.166,0,0,1,1.463,0c.445.041.508-.13.506-.529-.015-4.308-.01-8.617-.009-12.925,0-.854.251-1.1,1.118-1.1h10.7c.858,0,1.107.25,1.107,1.112,0,4.325.006,8.65-.009,12.976,0,.378.09.468.467.466C834.984-31.085,838.2-31.078,841.413-31.078Zm-7.728-25.05h20.1c.264,0,.58.083.36-.4q-1.111-2.431-2.176-4.883a.556.556,0,0,0-.607-.379q-17.624.012-35.248,0a.589.589,0,0,0-.628.427c-.679,1.556-1.372,3.106-2.064,4.657-.26.583-.265.581.369.582ZM829.7-37.488c0-2.018-.01-4.037.009-6.055,0-.37-.078-.476-.464-.473q-4.39.027-8.78,0c-.372,0-.473.082-.472.465q.024,6,0,12.009c0,.369.078.476.464.473q4.39-.027,8.78,0c.372,0,.476-.082.472-.465C829.684-33.518,829.7-35.5,829.7-37.488Zm3.816-38.032c-1.8,0-3.6.007-5.4-.007-.31,0-.4.056-.351.386.233,1.648.444,3.3.65,4.95.036.288.174.333.432.333q4.72-.012,9.441,0c.28,0,.4-.042.432-.368.165-1.656.358-3.31.563-4.962.042-.341-.117-.337-.362-.336C837.113-75.517,835.312-75.52,833.511-75.52ZM815.957-52.526c0-.554-.008-1.108,0-1.661,0-.229-.057-.331-.308-.327q-1.309.017-2.618,0c-.245,0-.315.088-.313.322.009,1.107-.01,2.215.01,3.322a1.2,1.2,0,0,0,1.229,1.2c.251.011.5.01.755,0a1.215,1.215,0,0,0,1.238-1.25C815.968-51.452,815.956-51.989,815.957-52.526Zm1.617-.015c0,.538-.01,1.077,0,1.615a1.211,1.211,0,0,0,1.228,1.26c.269.011.539.013.807,0a1.192,1.192,0,0,0,1.186-1.2c.02-1.11,0-2.221.012-3.332,0-.23-.047-.325-.3-.321-.875.015-1.75.013-2.625,0-.239,0-.322.062-.315.309C817.585-53.652,817.574-53.1,817.574-52.541Zm4.849.01c0,.554-.016,1.108,0,1.661a1.205,1.205,0,0,0,1.18,1.2,7.447,7.447,0,0,0,.856,0,1.2,1.2,0,0,0,1.184-1.2c.022-1.107,0-2.215.011-3.322,0-.229-.056-.331-.308-.328q-1.309.017-2.618,0c-.244,0-.319.087-.314.322C822.431-53.639,822.423-53.085,822.424-52.531Zm4.847,0q0,.757,0,1.514c0,.034,0,.067,0,.1a1.219,1.219,0,0,0,1.244,1.248c.252.01.505.01.757,0a1.2,1.2,0,0,0,1.224-1.212c.02-1.11,0-2.221.012-3.332,0-.248-.08-.31-.316-.307-.858.012-1.717.018-2.575,0-.3-.007-.362.1-.352.375C827.284-53.605,827.271-53.067,827.271-52.528Zm4.849-.048q0,.805,0,1.611c0,.033,0,.067,0,.1a1.221,1.221,0,0,0,1.189,1.2c.268.015.537.013.805,0a1.209,1.209,0,0,0,1.232-1.255c.015-1.074,0-2.148.01-3.222,0-.28-.074-.381-.366-.375q-1.258.026-2.517,0c-.3-.006-.369.107-.36.38C832.132-53.617,832.12-53.1,832.12-52.576Zm4.849,0c0,.555-.012,1.111,0,1.666a1.21,1.21,0,0,0,1.247,1.242c.235.008.471.007.707,0a1.211,1.211,0,0,0,1.271-1.27c.013-1.077-.007-2.154.011-3.23.005-.3-.1-.357-.375-.352-.824.016-1.649.018-2.473,0-.3-.007-.419.052-.4.381C836.991-53.617,836.968-53.094,836.969-52.572Zm4.848,0v1.611c0,.033,0,.067,0,.1a1.221,1.221,0,0,0,1.189,1.2c.268.015.537.013.805,0a1.209,1.209,0,0,0,1.232-1.255c.015-1.074,0-2.148.01-3.222,0-.28-.074-.381-.366-.375q-1.258.026-2.517,0c-.3-.006-.369.107-.36.38C841.83-53.617,841.817-53.1,841.818-52.576Zm4.848.012c0,.5,0,1.01,0,1.514a1.247,1.247,0,0,0,1.409,1.388c.219,0,.438.01.656-.005a1.187,1.187,0,0,0,1.157-1.172c.023-1.127,0-2.254.013-3.382,0-.21-.048-.3-.278-.293q-1.338.018-2.676,0c-.219,0-.293.062-.287.285C846.675-53.676,846.666-53.12,846.666-52.565Zm4.849-.012h0c0,.571-.016,1.142,0,1.711a1.206,1.206,0,0,0,1.185,1.2c.268.015.537.013.805,0a1.209,1.209,0,0,0,1.232-1.255c.015-1.074,0-2.148.01-3.222,0-.28-.074-.381-.366-.375q-1.258.026-2.517,0c-.3-.006-.369.107-.36.38C851.527-53.617,851.515-53.1,851.515-52.576ZM832.344-63.423h3.6a2.5,2.5,0,0,1-.475-2.38h-2.665A2.549,2.549,0,0,1,832.344-63.423Zm-1.033-1.569a.812.812,0,0,0-.771-.831.813.813,0,0,0-.844.81.81.81,0,0,0,.8.806A.813.813,0,0,0,831.311-64.992Zm7.273-.025a.81.81,0,0,0-.8-.806.813.813,0,0,0-.819.835.812.812,0,0,0,.822.78A.812.812,0,0,0,838.584-65.017Z" fill="#010101"/>
      <path id="Trazado_634673" data-name="Trazado 634673" d="M1045.468,161.623c-.827,0-1.2-.247-1.208-.8s.377-.819,1.187-.819c.854,0,1.245.26,1.234.824C1046.67,161.376,1046.293,161.623,1045.468,161.623Z" transform="translate(-187.895 -191.083)" fill="#070707"/>
      <path id="Trazado_634674" data-name="Trazado 634674" d="M870.023,89.938c-3.215,0-6.43-.007-9.644.01-.377,0-.468-.088-.467-.466.015-4.325.01-8.65.009-12.976,0-.862-.249-1.112-1.107-1.112h-10.7c-.867,0-1.118.247-1.118,1.1,0,4.308-.006,8.617.009,12.925,0,.4-.061.571-.506.529a9.167,9.167,0,0,0-1.463,0c-.366.024-.482-.066-.475-.458.026-1.632.011-3.265.011-4.9q0-5.731,0-11.461a1.437,1.437,0,0,1,.783-.96c.119-.013.179.086.246.153a3.937,3.937,0,0,0,4.388,0c.192-.193.315-.158.492.014a3.932,3.932,0,0,0,4.346,0c.179-.174.3-.2.492-.007a3.915,3.915,0,0,0,4.384-.015c.169-.172.287-.16.452.006a3.914,3.914,0,0,0,4.384,0c.2-.2.32-.147.492.02a3.934,3.934,0,0,0,4.346-.009c.182-.179.305-.186.492,0a3.921,3.921,0,0,0,4.344.011c.206-.2.339-.172.532.011a4,4,0,0,0,4.273.038c.1-.09.231-.36.4-.167.22.255.689.252.714.7,0,.084,0,.168,0,.252q0,8.129.01,16.258c0,.419-.1.521-.518.518C876.419,89.929,873.221,89.938,870.023,89.938Zm-.42-4.04q3.507,0,7.015,0c.823,0,1.081-.26,1.082-1.087q0-4.163,0-8.326c0-.83-.257-1.091-1.076-1.091H862.644c-.859,0-1.106.249-1.106,1.111q0,4.138,0,8.276c0,.864.249,1.117,1.1,1.117Z" transform="translate(-28.61 -121.015)" fill="#d7d6d9"/>
      <path id="Trazado_634675" data-name="Trazado 634675" d="M851.689,13.917h-19.9c-.634,0-.629,0-.369-.582.692-1.55,1.386-3.1,2.064-4.657a.589.589,0,0,1,.628-.427q17.624.017,35.247,0a.556.556,0,0,1,.607.379q1.067,2.451,2.176,4.883c.221.483-.1.4-.36.4h-20.1Zm14.6-4.848c-.773,0-1.546-.006-2.319,0a.811.811,0,1,0-.026,1.612q2.344.012,4.689,0a.811.811,0,1,0-.025-1.612C867.832,9.063,867.059,9.069,866.286,9.069Zm-5.253,1.617c.118,0,.235,0,.353,0a.81.81,0,1,0-.025-1.616c-.117,0-.235,0-.353,0-.813,0-1.194.264-1.185.821S860.2,10.687,861.033,10.686Z" transform="translate(-18.004 -70.045)" fill="#9d3016"/>
      <path id="Trazado_634676" data-name="Trazado 634676" d="M874.234,102.612c0,1.985-.012,3.969.01,5.954,0,.383-.1.468-.472.465q-4.39-.024-8.78,0c-.386,0-.465-.1-.464-.473q.021-6,0-12.009c0-.383.1-.467.472-.465q4.39.025,8.78,0c.386,0,.467.1.464.473C874.224,98.575,874.234,100.594,874.234,102.612Zm-1.62-.854h0a7.128,7.128,0,0,0-.007-.9.8.8,0,0,0-1.591.007c-.031.585-.029,1.174,0,1.759a.781.781,0,0,0,.8.743.8.8,0,0,0,.8-.751C872.633,102.329,872.614,102.043,872.614,101.758Z" transform="translate(-44.539 -140.1)" fill="#68a3f7"/>
      <path id="Trazado_634677" data-name="Trazado 634677" d="M908.623-59.6c1.8,0,3.6,0,5.4,0,.245,0,.4-.006.362.336-.2,1.652-.4,3.305-.563,4.962-.033.326-.152.368-.432.368q-4.721-.012-9.441,0c-.258,0-.4-.045-.432-.333-.206-1.651-.417-3.3-.65-4.95-.047-.329.042-.388.351-.386C905.021-59.593,906.822-59.6,908.623-59.6Zm-3.816,2.83c0,.386-.01.772,0,1.157a.807.807,0,0,0,.8.858.8.8,0,0,0,.814-.839q.023-1.182,0-2.364a.8.8,0,0,0-.819-.832.808.808,0,0,0-.79.863C904.8-57.542,904.807-57.156,904.807-56.77Zm4.847,0h0c0-.419.019-.839-.005-1.257a.792.792,0,0,0-.782-.766.784.784,0,0,0-.818.779q-.032,1.232,0,2.465a.786.786,0,0,0,.807.792.8.8,0,0,0,.8-.8C909.669-55.961,909.654-56.365,909.654-56.767Zm1.618-.012c0,.4-.013.806,0,1.207a.8.8,0,0,0,.784.817.786.786,0,0,0,.819-.779q.033-1.232,0-2.465a.786.786,0,0,0-.807-.791.8.8,0,0,0-.8.8C911.258-57.585,911.273-57.182,911.273-56.779Z" transform="translate(-75.111 -15.919)" fill="#f7d860"/>
      <path id="Trazado_634678" data-name="Trazado 634678" d="M831.857,46.2c0,.537.012,1.074,0,1.611a1.215,1.215,0,0,1-1.238,1.25c-.251.01-.5.011-.755,0a1.2,1.2,0,0,1-1.229-1.2c-.021-1.107,0-2.215-.01-3.322,0-.235.069-.325.313-.322q1.309.016,2.618,0c.251,0,.313.1.308.327C831.85,45.092,831.857,45.646,831.857,46.2Z" transform="translate(-15.9 -98.725)" fill="#c52931"/>
      <path id="Trazado_634679" data-name="Trazado 634679" d="M852.574,46.178c0-.555.011-1.111-.006-1.666-.007-.247.076-.312.315-.309.875.013,1.75.014,2.625,0,.255,0,.3.09.3.321-.011,1.111.009,2.221-.012,3.332a1.192,1.192,0,0,1-1.186,1.2c-.269.015-.539.013-.808,0a1.211,1.211,0,0,1-1.228-1.26C852.564,47.255,852.574,46.716,852.574,46.178Z" transform="translate(-35 -98.719)" fill="#f7d960"/>
      <path id="Trazado_634680" data-name="Trazado 634680" d="M876.537,46.194c0-.554.008-1.108,0-1.661-.005-.235.07-.325.314-.322q1.309.016,2.618,0c.251,0,.31.1.308.328-.009,1.107.01,2.215-.011,3.322a1.2,1.2,0,0,1-1.184,1.2,7.448,7.448,0,0,1-.856,0,1.205,1.205,0,0,1-1.18-1.2C876.522,47.3,876.538,46.748,876.537,46.194Z" transform="translate(-54.114 -98.725)" fill="#c52931"/>
      <path id="Trazado_634681" data-name="Trazado 634681" d="M900.485,46.184c0-.539.013-1.077-.006-1.615-.01-.271.051-.382.352-.375.858.02,1.716.015,2.574,0,.236,0,.319.058.316.307-.013,1.111.007,2.221-.012,3.332a1.2,1.2,0,0,1-1.224,1.212c-.252.011-.505.01-.757,0a1.22,1.22,0,0,1-1.244-1.248c0-.034,0-.067,0-.1Q900.485,46.941,900.485,46.184Z" transform="translate(-73.214 -98.712)" fill="#f7d960"/>
      <path id="Trazado_634682" data-name="Trazado 634682" d="M924.445,46.14c0-.52.012-1.041-.005-1.56-.009-.273.061-.387.36-.38q1.258.027,2.517,0c.292-.006.369.095.365.375-.014,1.074.005,2.148-.01,3.222a1.209,1.209,0,0,1-1.232,1.255c-.268.011-.538.014-.805,0a1.221,1.221,0,0,1-1.189-1.2c0-.033,0-.067,0-.1Q924.445,46.945,924.445,46.14Z" transform="translate(-92.325 -98.716)" fill="#c52931"/>
      <path id="Trazado_634683" data-name="Trazado 634683" d="M948.385,46.14c0-.522.022-1.045-.009-1.564-.019-.329.1-.388.4-.381.824.019,1.649.017,2.473,0,.271-.005.38.05.375.352-.019,1.077,0,2.154-.011,3.23a1.21,1.21,0,0,1-1.271,1.27c-.235.007-.471.008-.707,0a1.21,1.21,0,0,1-1.247-1.242C948.374,47.251,948.385,46.7,948.385,46.14Z" transform="translate(-111.416 -98.712)" fill="#f7d960"/>
      <path id="Trazado_634684" data-name="Trazado 634684" d="M972.359,46.14c0-.52.012-1.041-.005-1.56-.009-.273.061-.387.36-.38q1.258.027,2.517,0c.292-.006.369.095.365.375-.014,1.074.005,2.148-.01,3.222a1.209,1.209,0,0,1-1.232,1.255c-.268.011-.538.014-.805,0a1.221,1.221,0,0,1-1.189-1.2c0-.033,0-.067,0-.1Q972.359,46.945,972.359,46.14Z" transform="translate(-130.542 -98.716)" fill="#c52931"/>
      <path id="Trazado_634685" data-name="Trazado 634685" d="M996.319,46.157c0-.555.01-1.111,0-1.666-.006-.223.068-.287.287-.285q1.338.016,2.676,0c.23,0,.28.083.278.293-.009,1.127.01,2.255-.013,3.382a1.187,1.187,0,0,1-1.157,1.172c-.218.015-.437.007-.656.005a1.247,1.247,0,0,1-1.409-1.388C996.316,47.167,996.319,46.662,996.319,46.157Z" transform="translate(-149.653 -98.722)" fill="#f7d960"/>
      <path id="Trazado_634686" data-name="Trazado 634686" d="M1020.273,46.14c0-.52.012-1.041-.005-1.56-.009-.273.061-.387.36-.38q1.258.027,2.517,0c.292-.006.369.095.366.375-.014,1.074.005,2.148-.01,3.222a1.209,1.209,0,0,1-1.232,1.255c-.268.011-.538.014-.805,0a1.206,1.206,0,0,1-1.185-1.2c-.02-.57,0-1.141,0-1.711Z" transform="translate(-168.758 -98.716)" fill="#c52931"/>
      <path id="Trazado_634687" data-name="Trazado 634687" d="M914.107-10.834a.813.813,0,0,1-.819.784.81.81,0,0,1-.8-.806.814.814,0,0,1,.844-.81A.812.812,0,0,1,914.107-10.834Z" transform="translate(-82.796 -54.158)" fill="#cdcccf"/>
      <path id="Trazado_634688" data-name="Trazado 634688" d="M950.04-10.856a.812.812,0,0,1-.793.81.812.812,0,0,1-.822-.78.813.813,0,0,1,.819-.835A.81.81,0,0,1,950.04-10.856Z" transform="translate(-111.456 -54.161)" fill="#cdcccf"/>
      <path id="Trazado_634689" data-name="Trazado 634689" d="M936.524,98.651h-6.964c-.852,0-1.1-.253-1.1-1.117q0-4.138,0-8.276c0-.862.247-1.111,1.106-1.111h13.979c.82,0,1.076.261,1.076,1.091q0,4.163,0,8.326c0,.827-.259,1.086-1.082,1.087Q940.031,98.653,936.524,98.651Zm.016-8.888c-2.018,0-4.036.007-6.055-.007-.326,0-.421.081-.419.414q.023,3.229,0,6.458c0,.331.089.416.417.415q6.055-.017,12.11,0c.326,0,.421-.08.419-.414q-.023-3.229,0-6.458c0-.331-.088-.418-.417-.416C940.577,89.77,938.558,89.763,936.54,89.763Z" transform="translate(-95.531 -133.769)"/>
      <path id="Trazado_634690" data-name="Trazado 634690" d="M991.592,12.282c.773,0,1.546-.006,2.319,0a.811.811,0,1,1,.025,1.612q-2.344.012-4.689,0a.811.811,0,1,1,.026-1.612C990.046,12.276,990.819,12.282,991.592,12.282Z" transform="translate(-143.31 -73.257)" fill="#020000"/>
      <path id="Trazado_634691" data-name="Trazado 634691" d="M973.6,13.9c-.831,0-1.2-.244-1.211-.8s.373-.821,1.185-.821c.118,0,.235,0,.353,0a.81.81,0,1,1,.025,1.616C973.832,13.9,973.715,13.9,973.6,13.9Z" transform="translate(-130.568 -73.257)" fill="#040100"/>
      <path id="Trazado_634692" data-name="Trazado 634692" d="M898.089,117.733c0,.285.019.571,0,.854a.8.8,0,0,1-.8.751.781.781,0,0,1-.8-.743c-.027-.585-.029-1.174,0-1.759a.8.8,0,0,1,1.591-.007,7.128,7.128,0,0,1,.007.9Z" transform="translate(-70.014 -156.075)" fill="#020305"/>
      <path id="Trazado_634693" data-name="Trazado 634693" d="M912.475-53.55c0-.386-.01-.772,0-1.157a.808.808,0,0,1,.79-.863.8.8,0,0,1,.819.832q.024,1.182,0,2.364a.8.8,0,0,1-.814.839.807.807,0,0,1-.8-.858C912.465-52.778,912.475-53.164,912.475-53.55Z" transform="translate(-82.779 -19.14)" fill="#040402"/>
      <path id="Trazado_634694" data-name="Trazado 634694" d="M930.045-53.547c0,.4.015.806,0,1.207a.8.8,0,0,1-.8.8.786.786,0,0,1-.807-.792q-.029-1.232,0-2.465a.784.784,0,0,1,.818-.779.792.792,0,0,1,.782.766c.024.418.005.838.005,1.257Z" transform="translate(-95.502 -19.14)" fill="#040402"/>
      <path id="Trazado_634695" data-name="Trazado 634695" d="M944.414-53.558c0-.4-.015-.805,0-1.207a.8.8,0,0,1,.8-.8.786.786,0,0,1,.807.791q.03,1.232,0,2.465a.786.786,0,0,1-.819.779.8.8,0,0,1-.784-.817C944.4-52.753,944.414-53.156,944.414-53.558Z" transform="translate(-108.253 -19.14)" fill="#040402"/>
      <path id="Trazado_634696" data-name="Trazado 634696" d="M942.88,96.1c2.018,0,4.037.007,6.055-.008.328,0,.419.084.417.416q-.022,3.229,0,6.458c0,.334-.093.415-.418.414q-6.055-.016-12.11,0c-.328,0-.419-.084-.417-.415q.023-3.229,0-6.458c0-.333.092-.416.419-.414C938.844,96.11,940.862,96.1,942.88,96.1Z" transform="translate(-101.87 -140.109)" fill="#68a3f7"/>
    </g>
  </g>
</svg>
