<svg xmlns="http://www.w3.org/2000/svg" width="60" height="60" viewBox="0 0 60 60">
  <g id="Grupo_956598" data-name="Grupo 956598" transform="translate(-410 -1150)">
    <rect id="Rectángulo_305522" data-name="Rectángulo 305522" width="60" height="60" transform="translate(410 1150)" fill="none"/>
    <g id="Grupo_963168" data-name="Grupo 963168" transform="translate(-493.952 -21883.398)">
      <g id="Grupo_962298" data-name="Grupo 962298" transform="translate(909 23038.564)">
        <path id="Trazado_634134" data-name="Trazado 634134" d="M614.975,342.543c.584.155.741.349.744.956,0,1.184.011,2.368-.006,3.553,0,.308.063.42.4.41.827-.026,1.655-.015,2.482-.006a1.673,1.673,0,0,1,1.752,1.7q.042,2.846,0,5.693a1.68,1.68,0,0,1-1.761,1.689c-.4.01-.935-.129-1.174.074-.281.24-.083.79-.093,1.2-.016.666,0,.666.658.666,1.054,0,2.109,0,3.163,0a1.784,1.784,0,0,1,1.943,1.934c.009,2.417.012,4.834-.006,7.251,0,.4.06.564.515.54.831-.044.833-.012.833-.841q0-3.869,0-7.738a1.956,1.956,0,0,1,2.188-2.193q4.453,0,8.906,0a2.293,2.293,0,0,1,1.354.3.279.279,0,0,0,.354,0,2.11,2.11,0,0,1,1.21-.293q4.575,0,9.15,0a1.908,1.908,0,0,1,2.07,2.1q.009,4.088-.006,8.176c0,.358.062.535.464.5a1.134,1.134,0,0,1,.511.134,2.178,2.178,0,0,1,1.01,2.638,1.749,1.749,0,0,1-1.8,1.4q-7.422,0-14.844,0H606.567c-1.472,0-2.122-.656-2.122-2.143,0-.762-.011-1.525.006-2.287.006-.267-.058-.383-.343-.352a3.845,3.845,0,0,1-.632,0,1.708,1.708,0,0,1-1.658-1.7c-.014-.665-.01-1.33,0-2a1.7,1.7,0,0,1,1.752-1.749c.877-.016.877-.016.877-.88,0-.324,0-.649,0-.973a1.779,1.779,0,0,1,1.814-1.821c.892-.016,1.785-.017,2.677,0,.322.007.473-.052.441-.415a7.846,7.846,0,0,1,0-1.167c.019-.31-.1-.4-.392-.375s-.584.01-.876,0a1.7,1.7,0,0,1-1.781-1.729q-.041-2.822,0-5.645a1.7,1.7,0,0,1,1.8-1.7c.827-.006,1.655-.011,2.482,0,.262,0,.361-.052.36-.34q-.014-6.083,0-12.166a.415.415,0,0,0-.3-.424,6.062,6.062,0,0,1,1.5-11.454,5.786,5.786,0,0,1,3.951.63,1.646,1.646,0,0,0,.828.2q8.517-.008,17.034,0a1.324,1.324,0,0,0,.8-.249,4.885,4.885,0,0,1,7.714,3.9c.032.972.027,1.947,0,2.919-.012.42.068.606.54.564a14.525,14.525,0,0,1,1.605-.009,2.333,2.333,0,0,1,2.4,2.358c.031,1.816.025,3.634,0,5.45a2.28,2.28,0,0,1-1.766,2.277c-.258.074-.287.19-.285.4.006.746.009,1.492,0,2.239-.007.581-.165.763-.736.908-.572-.141-.735-.327-.742-.9-.01-.811-.014-1.622,0-2.432a.757.757,0,0,0-.315-.7,2.23,2.23,0,0,1-.821-1.493c-.052-.34.176-.816-.139-.988-.289-.158-.728-.028-1.1-.049-.25-.014-.348.06-.334.323a11.4,11.4,0,0,1,0,1.167,1.362,1.362,0,0,1-1.418,1.415q-1.848.037-3.7,0a1.356,1.356,0,0,1-1.418-1.412c-.01-.162,0-.324,0-.486,0-1.044,0-1.032-1.058-1.011-.285.006-.367.1-.344.364a2.948,2.948,0,0,1-.3,1.6,3.1,3.1,0,0,1-.673.689c-.189.115-.181.282-.181.462q0,3.836,0,7.672c0,.724.225.909.953.82a.4.4,0,0,0,.094.023l10.115.009a.569.569,0,0,0,.624-.642c.011-.551,0-1.1.009-1.653.011-.575.169-.757.745-.9a.743.743,0,0,1,.728.765,18.8,18.8,0,0,1-.013,1.945,2.031,2.031,0,0,1-2.214,1.97c-2.612.008-5.224,0-7.836,0-.811,0-1.623.006-2.434,0a2.091,2.091,0,0,1-2.241-2.255q-.009-3.65,0-7.3c0-.314-.021-.5-.412-.6a2.227,2.227,0,0,1-1.636-2.171c-.018-1.849-.022-3.7,0-5.548a2.327,2.327,0,0,1,2.335-2.316c.616-.02,1.233-.018,1.849,0,.279.009.366-.082.354-.358a11.535,11.535,0,0,1,0-1.362c.03-.408-.133-.4-.448-.312-1.925.564-3.853,1.115-5.781,1.669q-4.151,1.192-8.3,2.376a1.834,1.834,0,0,0-.872.48,4.03,4.03,0,0,1-1.268.888.573.573,0,0,0-.368.636c.016,1.557.01,3.115.006,4.672,0,.605-.166.8-.751.946a.791.791,0,0,1-.722-.919c.012-1.265,0-2.53,0-3.8,0-.912,0-.912-.939-.822-.874-.075-.874-.075-.874.8v10.726c0,.836,0,.836.873.779a2.925,2.925,0,0,1,.339.022c.483.085.634-.09.615-.594-.043-1.134,0-2.271-.018-3.406A.792.792,0,0,1,614.975,342.543Zm-2.936,15.916c.761.005,1.523.026,2.283.011.494-.01,1.169.227,1.432-.107.247-.314.073-.96.085-1.459a.445.445,0,0,1,0-.049c.034-.26-.089-.332-.337-.328-1.15.015-2.3.015-3.449.021-.128-.007-.256-.022-.384-.02-.95.012-.8-.12-.807.819C610.853,358.5,610.859,358.5,612.039,358.459Zm1.17-24.838a4.577,4.577,0,1,0-.583-9.108,4.575,4.575,0,0,0,.583,9.108Zm-8.95,30.017c-.112,0-.224-.013-.336-.014-.635,0-.64,0-.641.645,0,.449.011.9,0,1.348-.012.364.131.547.507.523.16-.011.32-.015.48-.022q3.791.008,7.582.017c1.442,0,2.884-.008,4.326.006.379,0,.576-.086.551-.514-.029-.517-.021-1.037,0-1.555.012-.34-.125-.453-.457-.452Q610.261,363.638,604.258,363.638Zm34.583-39.172a3.364,3.364,0,0,0-4.6,2.858c-.047.987-.015,1.978-.018,2.968,0,.772,0,.772.8.709,1.924.008,3.848.014,5.772.029.232,0,.26-.108.258-.3-.007-1.116.025-2.233-.017-3.347A3.273,3.273,0,0,0,638.841,324.466Zm-8,8.073c-.714-.083-1.153.223-1.16.878q-.027,2.7,0,5.394c.008.732.576,1.059,1.276.787a.849.849,0,0,0,.461-.883c0-1.134,0-2.269,0-3.4,0-.866.216-1.078,1.1-1.078h10.26c.847,0,1.077.226,1.078,1.058,0,1.183-.007,2.366.005,3.549a.829.829,0,0,0,.8.873.852.852,0,0,0,.913-.809,3.692,3.692,0,0,0,.013-.437q0-2.358,0-4.716c0-.991-.254-1.249-1.229-1.249q-6.492,0-12.983,0C631.192,332.5,631.015,332.527,630.839,332.539Zm-21.914,22.5q4.761.009,9.522.022c.313,0,.434-.113.433-.425q-.011-2.648,0-5.3c0-.311-.118-.428-.432-.426q-4.761.018-9.523.019c-.129-.005-.258-.014-.386-.015-.745,0-.745,0-.745.745,0,1.437-.009,2.873,0,4.31C607.8,355.122,607.582,355.1,608.924,355.043Zm18.4,3.9a3.191,3.191,0,0,0-.818-.037c-.423-.017-.619.185-.619.614q.007,4.171,0,8.341c0,.242.056.356.323.34.37-.022.743-.014,1.114-.019,2.835,0,5.671,0,8.506.023.381,0,.481-.1.478-.478-.018-2.5-.009-4.99-.009-7.486,0-1.406.139-1.335-1.345-1.33-.918,0-.918,0-.919.895,0,.13,0,.26,0,.389a1.265,1.265,0,0,1-1.287,1.3c-1.134.023-2.269.021-3.4,0a1.278,1.278,0,0,1-1.318-1.276c-.016-.226-.005-.454-.005-.68C628.019,358.869,628.019,358.869,627.325,358.938Zm11.877,9.24q4.325.006,8.651.018c.258,0,.328-.083.328-.333q-.011-4.2,0-8.407c0-.4-.2-.551-.573-.547-.454,0-.908.012-1.361,0-.248-.009-.349.065-.335.326a9.173,9.173,0,0,1,0,1.02,1.221,1.221,0,0,1-1.149,1.226c-1.23.034-2.462.027-3.692,0a1.2,1.2,0,0,1-1.107-.938,3.333,3.333,0,0,1-.06-.917c0-.689,0-.689-.7-.667a1.4,1.4,0,0,0-.759-.061c-.546.007-.673.147-.674.709,0,2.733,0,5.465-.006,8.2,0,.282.06.418.374.394C638.49,368.17,638.847,368.183,639.2,368.178ZM607.563,370.9c.145.006.291.017.437.017h12.948c.637,0,.654-.016.654-.658q0-4.794,0-9.588c0-.717,0-.72-.747-.72q-4.527,0-9.054,0c-1.411,0-2.822.013-4.233.02-.321-.008-.641-.023-.962-.024-.652,0-.7.042-.694.671,0,.5-.173,1.2.08,1.435.349.323,1.032.1,1.572.093.178,0,.356.013.534.013q4.135,0,8.27,0a1.69,1.69,0,0,1,1.82,1.819c.006.535,0,1.07,0,1.605a1.761,1.761,0,0,1-2.019,2.023l-8.61.017c-.452-.006-.9,0-1.355-.021-.236-.01-.3.077-.3.305.011.856.006,1.711,0,2.567,0,.3.139.448.442.442C606.757,370.906,607.16,370.9,607.563,370.9Zm29.057-1.236q-6.5,0-12.995,0c-.156,0-.4-.08-.453.069a1.94,1.94,0,0,0-.027,1.053c.055.256.362.125.551.125q12.9.01,25.794.005c.13,0,.26,0,.389-.006a.313.313,0,0,0,.272-.177.691.691,0,0,0-.636-1.071Zm-3.356-44.25H618.14a5.467,5.467,0,0,1,.739,1.367c.105.357.311.413.641.412q6.37-.015,12.74-.006c.081,0,.162,0,.243,0,.171.011.263-.04.287-.234A5.313,5.313,0,0,1,633.264,325.41Zm-14.357,5.911,9.02-2.588c-.042-.044-.05-.06-.058-.06q-4.155-.012-8.309-.025c-.162,0-.234.044-.226.219A6.5,6.5,0,0,1,618.908,331.321Zm18.682,5.315c1.457,0,2.914-.011,4.371.008.346,0,.457-.1.429-.437-.023-.275.047-.518-.4-.515q-4.371.031-8.742,0c-.422,0-.362.224-.374.486-.013.293,0,.473.394.466C634.708,336.621,636.149,336.636,637.59,336.636Zm-.032,1.468c-.5,0-1,0-1.505,0-.117,0-.284-.053-.287.155-.005.372,0,.744,0,1.116,0,.164.13.157.245.157,1.02,0,2.039-.006,3.059,0,.268,0,.307-.146.268-.338-.073-.363.207-.788-.182-1.09-.051-.039-.158-.007-.239-.007Zm-6.488,21.927c.373,0,.747-.017,1.118.005.29.018.429-.059.381-.372a1.358,1.358,0,0,1,0-.388c.044-.31-.094-.384-.384-.376a21.412,21.412,0,0,1-2.187-.008c-.539-.042-.5.241-.516.606-.02.406.059.6.52.542A8.413,8.413,0,0,1,631.07,360.031Zm11.815,0c.421,0,.843-.011,1.264,0,.233.008.325-.069.3-.3a1.737,1.737,0,0,1,0-.437c.052-.342-.112-.4-.413-.395-.745.018-1.491.023-2.236,0-.343-.011-.476.1-.428.437a1.338,1.338,0,0,1,0,.34c-.031.267.059.379.346.362C642.106,360.014,642.5,360.031,642.885,360.031Z" transform="translate(-601.809 -322.714)" fill="#030303"/>
        <path id="Trazado_634135" data-name="Trazado 634135" d="M759.551,403.429a2.948,2.948,0,0,0,.3-1.6c-.023-.268.059-.359.344-.364,1.057-.021,1.057-.033,1.058,1.011,0,.162-.005.325,0,.487a1.356,1.356,0,0,0,1.418,1.412q1.848.036,3.7,0a1.362,1.362,0,0,0,1.418-1.415,11.416,11.416,0,0,0,0-1.167c-.013-.263.085-.337.334-.323.372.021.811-.109,1.1.049.315.172.086.648.138.988a2.23,2.23,0,0,0,.821,1.493.757.757,0,0,1,.315.7c-.017.811-.013,1.622,0,2.432.007.576.17.762.742.9q0,.94,0,1.879c-.576.143-.734.325-.745.9-.01.551,0,1.1-.009,1.653a.569.569,0,0,1-.624.642l-10.115-.009a.4.4,0,0,1-.094-.023,5.725,5.725,0,0,1-.1-1.395Q759.554,407.554,759.551,403.429Z" transform="translate(-728.78 -386.08)" fill="#f5cc7f"/>
        <path id="Trazado_634136" data-name="Trazado 634136" d="M662.426,393.629a.792.792,0,0,0-.731.913c.014,1.135-.026,2.272.018,3.406.019.5-.131.679-.615.594a2.916,2.916,0,0,0-.339-.022q0-6.151,0-12.3c.939-.09.939-.09.939.822,0,1.265.009,2.531,0,3.8a.791.791,0,0,0,.723.919Q662.422,392.691,662.426,393.629Z" transform="translate(-649.26 -373.799)" fill="#aeaeae"/>
        <path id="Trazado_634137" data-name="Trazado 634137" d="M631.3,513.6c1.411-.007,2.822-.018,4.233-.02q4.527,0,9.054,0c.743,0,.747,0,.747.72q0,4.794,0,9.589c0,.642-.017.658-.654.658H631.736c-.146,0-.291-.011-.437-.017q0-1.637,0-3.274l8.61-.017a1.761,1.761,0,0,0,2.018-2.023c0-.535,0-1.07,0-1.605a1.69,1.69,0,0,0-1.82-1.819q-4.135-.007-8.27,0c-.178,0-.356-.008-.534-.013Q631.3,514.69,631.3,513.6Z" transform="translate(-625.545 -476.349)" fill="#e7e7e7"/>
        <path id="Trazado_634138" data-name="Trazado 634138" d="M793.5,508.3c.7-.022.694-.022.7.668a3.331,3.331,0,0,0,.059.917,1.2,1.2,0,0,0,1.107.938c1.23.025,2.462.031,3.693,0a1.221,1.221,0,0,0,1.149-1.226,9.172,9.172,0,0,0,0-1.02c-.014-.261.087-.335.335-.326.453.016.907.009,1.361,0,.373,0,.573.149.573.547q-.007,4.2,0,8.407c0,.25-.07.334-.328.333q-4.326-.019-8.651-.018Q793.5,512.911,793.5,508.3Z" transform="translate(-756.109 -472.056)" fill="#e69861"/>
        <path id="Trazado_634139" data-name="Trazado 634139" d="M732.613,508.28c.694-.069.694-.069.694.6,0,.227-.011.454.005.68a1.277,1.277,0,0,0,1.318,1.276c1.134.018,2.269.02,3.4,0a1.265,1.265,0,0,0,1.287-1.3c.006-.129,0-.259,0-.389,0-.894,0-.892.919-.895,1.484-.005,1.345-.076,1.345,1.33,0,2.5-.008,4.991.009,7.486,0,.381-.1.48-.478.478-2.835-.021-5.671-.019-8.506-.023Q732.613,512.9,732.613,508.28Z" transform="translate(-707.097 -472.056)" fill="#f5cc7f"/>
        <path id="Trazado_634140" data-name="Trazado 634140" d="M638.286,457.066q4.761-.008,9.523-.019c.314,0,.433.115.432.426q-.01,2.648,0,5.3c0,.313-.12.426-.433.425q-4.761-.019-9.522-.022Q638.285,460.119,638.286,457.066Z" transform="translate(-631.17 -430.843)" fill="#e7e7e7"/>
        <path id="Trazado_634141" data-name="Trazado 634141" d="M749.7,372.932c.177-.012.353-.035.53-.035q6.492,0,12.983,0c.975,0,1.229.258,1.229,1.249q0,2.358,0,4.716a3.692,3.692,0,0,1-.013.437.852.852,0,0,1-.913.809.829.829,0,0,1-.8-.873c-.012-1.183,0-2.366-.005-3.549,0-.832-.232-1.058-1.078-1.058H751.38c-.884,0-1.1.212-1.1,1.078,0,1.134,0,2.269,0,3.4a.849.849,0,0,1-.461.883.444.444,0,0,1-.218-.359,9.446,9.446,0,0,1-.109-1.152C749.589,376.631,749.3,374.769,749.7,372.932Z" transform="translate(-720.675 -363.107)" fill="#e5e5e5"/>
        <path id="Trazado_634142" data-name="Trazado 634142" d="M724.426,563.3h12.9a.691.691,0,0,1,.636,1.071.313.313,0,0,1-.272.177c-.13.006-.259.006-.389.006q-12.9,0-25.794-.005c-.189,0-.5.131-.551-.125a1.94,1.94,0,0,1,.027-1.053c.054-.149.3-.069.453-.069Q717.928,563.3,724.426,563.3Z" transform="translate(-689.614 -516.356)" fill="#7d7d7d"/>
        <path id="Trazado_634143" data-name="Trazado 634143" d="M775.844,331.7a3.273,3.273,0,0,1,2.193,2.919c.043,1.114.01,2.231.017,3.347,0,.188-.027.3-.258.3-1.924-.015-3.848-.02-5.772-.029,0-.356.006-.712,0-1.068a8.053,8.053,0,0,1,.168-2.26A4.142,4.142,0,0,1,775.844,331.7Z" transform="translate(-738.812 -329.944)" fill="#e69861"/>
        <path id="Trazado_634144" data-name="Trazado 634144" d="M614.365,532.438q6-.007,12.006-.018c.333,0,.469.112.457.452-.018.518-.027,1.038,0,1.555.024.428-.172.517-.551.514-1.442-.015-2.884,0-4.326-.006q-3.791-.006-7.582-.017Q614.368,533.678,614.365,532.438Z" transform="translate(-611.916 -491.513)" fill="#7f7f7f"/>
        <path id="Trazado_634145" data-name="Trazado 634145" d="M649.258,331.736a4.361,4.361,0,0,1,4.419,1.939,4.576,4.576,0,0,1-3.836,7.169c0-.161-.145-.208-.248-.273a5.6,5.6,0,0,1-1.735-1.849,1.124,1.124,0,0,1-.25-.812c.1.106.2.213.3.316a2.793,2.793,0,1,0,2.855-4.617,2.839,2.839,0,0,0-3.423,1.488,2.109,2.109,0,0,1,.288-1.2A6.983,6.983,0,0,1,649.258,331.736Z" transform="translate(-638.442 -329.937)" fill="#e4e4e4"/>
        <path id="Trazado_634146" data-name="Trazado 634146" d="M700.656,336.535a5.317,5.317,0,0,0-.474,1.539c-.024.194-.116.246-.287.234-.081-.005-.162,0-.243,0q-6.37,0-12.74.006c-.33,0-.536-.055-.641-.412a5.465,5.465,0,0,0-.74-1.367Z" transform="translate(-669.2 -333.839)" fill="#aeaeae"/>
        <path id="Trazado_634147" data-name="Trazado 634147" d="M640.918,331.937a6.983,6.983,0,0,0-1.632,2.164,2.109,2.109,0,0,0-.288,1.2,2.989,2.989,0,0,0,.27,2.813,1.123,1.123,0,0,0,.25.812,5.6,5.6,0,0,0,1.735,1.849c.1.065.243.112.248.273a4.575,4.575,0,0,1-.583-9.108Z" transform="translate(-630.101 -330.138)" fill="#c9c9c9"/>
        <path id="Trazado_634148" data-name="Trazado 634148" d="M726.684,508.231q0,4.62,0,9.239c-.371.005-.744,0-1.114.019-.266.016-.323-.1-.323-.34q.01-4.171,0-8.341c0-.429.2-.631.619-.614A3.189,3.189,0,0,1,726.684,508.231Z" transform="translate(-701.168 -472.007)" fill="#e19660"/>
        <path id="Trazado_634149" data-name="Trazado 634149" d="M787.564,508.174q0,4.61,0,9.22c-.355,0-.712-.008-1.066.02-.314.024-.375-.112-.374-.394.008-2.732,0-5.465.006-8.2,0-.563.128-.7.674-.709A1.4,1.4,0,0,1,787.564,508.174Z" transform="translate(-750.171 -471.93)" fill="#c1573f"/>
        <path id="Trazado_634150" data-name="Trazado 634150" d="M657.156,386.25q0,6.151,0,12.3c-.873.057-.873.057-.873-.779V387.048C656.282,386.175,656.282,386.175,657.156,386.25Z" transform="translate(-645.656 -373.832)" fill="#949494"/>
        <path id="Trazado_634151" data-name="Trazado 634151" d="M765.765,390.189c-1.441,0-2.882-.015-4.323.01-.392.007-.407-.174-.394-.466.012-.262-.048-.489.374-.486q4.371.028,8.742,0c.448,0,.378.24.4.515.028.338-.084.441-.429.437C768.679,390.178,767.222,390.189,765.765,390.189Z" transform="translate(-729.984 -376.267)" fill="#e7e7e7"/>
        <path id="Trazado_634152" data-name="Trazado 634152" d="M756.026,411.653q0,4.124,0,8.249a5.734,5.734,0,0,0,.1,1.395c-.728.089-.952-.1-.953-.82q-.006-3.836,0-7.672c0-.181-.008-.348.181-.462A3.1,3.1,0,0,0,756.026,411.653Z" transform="translate(-725.256 -394.304)" fill="#e19660"/>
        <path id="Trazado_634153" data-name="Trazado 634153" d="M772.553,330.638a4.142,4.142,0,0,0-3.655,3.207,8.05,8.05,0,0,0-.168,2.26c.008.356,0,.712,0,1.068-.8.063-.8.063-.8-.709,0-.989-.029-1.98.018-2.968A3.364,3.364,0,0,1,772.553,330.638Z" transform="translate(-735.52 -328.886)" fill="#c1573f"/>
        <path id="Trazado_634154" data-name="Trazado 634154" d="M654.266,496.074c1.15-.006,2.3-.006,3.449-.021.247,0,.37.068.336.328a.445.445,0,0,0,0,.049c-.011.5.163,1.145-.085,1.459-.263.334-.938.1-1.432.107-.761.016-1.522-.005-2.283-.01Z" transform="translate(-644.022 -462.241)" fill="#7f7f7f"/>
        <path id="Trazado_634155" data-name="Trazado 634155" d="M633.595,457.083q0,3.053,0,6.106c-1.342.057-1.119.078-1.128-1.066-.012-1.437,0-2.873,0-4.31,0-.747,0-.748.745-.745C633.337,457.069,633.466,457.078,633.595,457.083Z" transform="translate(-626.479 -430.86)" fill="#c9c9c9"/>
        <path id="Trazado_634156" data-name="Trazado 634156" d="M745.784,373.028c-.407,1.837-.116,3.7-.211,5.547a9.434,9.434,0,0,0,.109,1.152.444.444,0,0,0,.218.36c-.7.272-1.268-.055-1.276-.787q-.03-2.7,0-5.394C744.63,373.251,745.07,372.945,745.784,373.028Z" transform="translate(-716.754 -363.203)" fill="#bebebe"/>
        <path id="Trazado_634157" data-name="Trazado 634157" d="M624.477,552.842q0,1.637,0,3.274c-.4.006-.806.01-1.209.019-.3.006-.443-.141-.442-.442,0-.856.008-1.711,0-2.567,0-.228.062-.316.3-.305C623.574,552.84,624.026,552.836,624.477,552.842Z" transform="translate(-618.725 -507.934)" fill="#c9c9c9"/>
        <path id="Trazado_634158" data-name="Trazado 634158" d="M777.666,401.558h1.359c.081,0,.188-.033.239.007.389.3.11.727.182,1.09.038.192,0,.341-.268.338-1.02-.011-2.039,0-3.059,0-.115,0-.242.007-.245-.157-.005-.372-.006-.744,0-1.116,0-.207.171-.154.287-.155C776.663,401.556,777.165,401.558,777.666,401.558Z" transform="translate(-741.917 -386.168)" fill="#e4e4e4"/>
        <path id="Trazado_634159" data-name="Trazado 634159" d="M624.262,513.592q0,1.088,0,2.176c-.54,0-1.224.23-1.572-.093-.253-.235-.076-.94-.08-1.435,0-.63.043-.673.694-.671C623.62,513.569,623.941,513.583,624.262,513.592Z" transform="translate(-618.503 -476.339)" fill="#bebebe"/>
        <path id="Trazado_634160" data-name="Trazado 634160" d="M745.25,509.3a8.407,8.407,0,0,0-1.069.009c-.46.059-.54-.136-.52-.542.018-.366-.023-.648.516-.606a21.422,21.422,0,0,0,2.188.008c.29-.007.428.066.384.376a1.36,1.36,0,0,0,0,.388c.047.313-.092.39-.381.372C746,509.284,745.623,509.3,745.25,509.3Z" transform="translate(-715.988 -471.984)" fill="#e4e4e4"/>
        <path id="Trazado_634161" data-name="Trazado 634161" d="M806.1,509.341c-.389,0-.779-.017-1.167.006-.287.017-.377-.1-.346-.362a1.339,1.339,0,0,0,0-.34c-.048-.338.085-.448.428-.437.745.024,1.491.02,2.236,0,.3-.007.465.053.413.395a1.735,1.735,0,0,0,0,.437c.025.234-.067.312-.3.3C806.947,509.33,806.525,509.341,806.1,509.341Z" transform="translate(-765.028 -472.024)" fill="#e4e4e4"/>
        <path id="Trazado_634162" data-name="Trazado 634162" d="M610.317,532.452q0,1.24.006,2.48c-.16.007-.32.011-.48.022-.376.025-.518-.159-.507-.523.015-.449,0-.9,0-1.348,0-.644.005-.648.641-.645C610.093,532.439,610.2,532.447,610.317,532.452Z" transform="translate(-607.867 -491.528)" fill="#535353"/>
        <path id="Trazado_634163" data-name="Trazado 634163" d="M649.39,496.075q-.007.956-.014,1.911c-1.179.038-1.186.038-1.177-1.113.007-.939-.142-.807.807-.819C649.134,496.053,649.262,496.068,649.39,496.075Z" transform="translate(-639.146 -462.241)" fill="#535353"/>
        <path id="Trazado_634164" data-name="Trazado 634164" d="M646.728,345.231a2.989,2.989,0,0,1-.27-2.813,2.838,2.838,0,0,1,3.423-1.488,2.8,2.8,0,1,1-2.855,4.617C646.925,345.444,646.828,345.336,646.728,345.231Zm2.247-2.945a1.321,1.321,0,0,0-1.278,1.35,1.216,1.216,0,0,0,1.177,1.212,1.231,1.231,0,0,0,1.454-1.11A1.3,1.3,0,0,0,648.975,342.286Z" transform="translate(-637.562 -337.258)" fill="#030303"/>
        <path id="Trazado_634165" data-name="Trazado 634165" d="M658.614,348.489a1.3,1.3,0,0,1,1.352,1.452,1.231,1.231,0,0,1-1.454,1.11A2.453,2.453,0,0,1,658.614,348.489Z" transform="translate(-647.201 -343.461)" fill="#7d7d7d"/>
        <path id="Trazado_634166" data-name="Trazado 634166" d="M655.04,348.489a2.453,2.453,0,0,0-.1,2.563,1.217,1.217,0,0,1-1.176-1.212A1.321,1.321,0,0,1,655.04,348.489Z" transform="translate(-643.627 -343.461)" fill="#535353"/>
      </g>
    </g>
  </g>
</svg>
