<svg xmlns="http://www.w3.org/2000/svg" width="85" height="85" viewBox="0 0 85 85">
  <g id="Grupo_956670" data-name="Grupo 956670" transform="translate(-180 -6099)">
    <rect id="Rectángulo_34178" data-name="Rectángulo 34178" width="85" height="85" transform="translate(180 6099)" fill="none"/>
    <g id="Grupo_957416" data-name="Grupo 957416" transform="translate(608.598 5680.626)">
      <path id="Trazado_632544" data-name="Trazado 632544" d="M-190.238,607.059l-.1-.144Z" transform="translate(-169.815 -133.714)" fill="#9febad"/>
      <g id="Grupo_957416-2" data-name="Grupo 957416" transform="translate(-415.943 429.275)">
        <path id="Trazado_632545" data-name="Trazado 632545" d="M-411.982,489.561v-2.426c.714-.168.884-.652.883-1.334q-.017-23.5-.009-46.995c0-1.489.545-2.031,2.043-2.031h26.829c.205,0,.41.013.615.019,0,2.981-.042,5.962.015,8.942a5.415,5.415,0,0,0,3.091,5.008c.475.248,1.048.223,1.462.595-.225.009-.451.027-.676.027h-20.725c-.206,0-.412-.009-.616,0a1.958,1.958,0,0,0-1.918,2c-.01.514,0,1.028,0,1.542a2.017,2.017,0,0,0,2.293,2.314q13.6,0,27.2.007a2.121,2.121,0,0,0,2.242-1.458c.128.136.1.306.1.468q0,2,0,4.007c0,.161.031.333-.111.461a1.984,1.984,0,0,0-1.876-1.354q-13.943-.007-27.885,0a1.92,1.92,0,0,0-1.96,1.949c-.014.514,0,1.028,0,1.542,0,1.62.707,2.336,2.315,2.336q13.572,0,27.145.013a2.237,2.237,0,0,0,2.245-1.281c.157.117.13.288.13.449q0,2.393,0,4.787c0,.161.026.332-.131.449a2.144,2.144,0,0,0-2.246-1.27c-.737.047-1.48.009-2.22.009q-12.522,0-25.044,0a1.96,1.96,0,0,0-2.193,2.205c0,.432,0,.863,0,1.3,0,1.61.717,2.326,2.329,2.326h25.8c-3.995,2.725-6.17,6.343-6.159,11.081.011,4.716,2.2,8.315,6.12,10.988-.168.01-.229.017-.29.017q-18.074,0-36.147,0a1.607,1.607,0,0,1-1.774-1.8c-.006-1.254-.014-2.509,0-3.763A.992.992,0,0,0-411.982,489.561Zm11.378-44.794c2.117,0,4.235.011,6.352,0a1.969,1.969,0,0,0,2.113-2.125c.007-.555.01-1.11,0-1.665a1.948,1.948,0,0,0-2.043-2.066q-6.383-.019-12.766,0a1.924,1.924,0,0,0-2.012,1.966c-.022.554-.008,1.11,0,1.665a2,2,0,0,0,2.256,2.228C-404.674,444.771-402.639,444.767-400.6,444.767Zm.984,34.667q-3.976,0-7.952,0a3.486,3.486,0,0,0-.675.037.826.826,0,0,0-.7.823.825.825,0,0,0,.586.908,2.4,2.4,0,0,0,.728.082q8.014.006,16.027,0a2.5,2.5,0,0,0,.669-.065.837.837,0,0,0,.649-.925.848.848,0,0,0-.766-.835,4.139,4.139,0,0,0-.615-.026Q-395.643,479.433-399.619,479.434Zm7.886,3.988h-7.707c-.247,0-.495-.013-.739.008a.893.893,0,0,0-.872.931.9.9,0,0,0,.84.9,2.884,2.884,0,0,0,.431.008h16.031a2.181,2.181,0,0,0,.492-.015.881.881,0,0,0,.774-.957.866.866,0,0,0-.8-.865,3.358,3.358,0,0,0-.554-.013Zm-8.732,5.829c2.486,0,4.971,0,7.457,0a.913.913,0,0,0,1.022-.9.945.945,0,0,0-1-.945c-.143-.009-.288,0-.431,0q-7.056,0-14.113,0a3.345,3.345,0,0,0-.674.035.888.888,0,0,0-.728,1.044c.105.6.515.778,1.074.777C-405.4,489.248-402.93,489.251-400.465,489.251Zm-2.648-34.953a2.957,2.957,0,0,0-2.959-2.925,2.94,2.94,0,0,0-2.887,2.928,2.945,2.945,0,0,0,2.891,2.927A2.963,2.963,0,0,0-403.113,454.3Zm-2.924,10.888a2.919,2.919,0,0,0,2.924-2.88,2.945,2.945,0,0,0-2.93-2.946,2.925,2.925,0,0,0-2.916,2.951A2.906,2.906,0,0,0-406.037,465.186Zm.022,3.162a2.906,2.906,0,0,0-2.945,2.914,2.924,2.924,0,0,0,2.9,2.909,2.94,2.94,0,0,0,2.952-2.921A2.918,2.918,0,0,0-406.015,468.348Zm8.961-21.453c-1.294,0-2.589-.006-3.883,0a.936.936,0,0,0-1.041.894.942.942,0,0,0,1.051.951q3.852.012,7.7,0a.957.957,0,0,0,1.079-.931c0-.547-.427-.912-1.089-.915C-394.507,446.89-395.781,446.895-397.054,446.895Zm11.744,32.543c-.616,0-1.233-.015-1.849,0a.931.931,0,0,0-.985.89.942.942,0,0,0,1,.95q1.848.03,3.7,0a.9.9,0,0,0,.972-.96.9.9,0,0,0-.983-.879C-384.077,479.423-384.693,479.438-385.31,479.438Zm-20.81,5.836c.615,0,1.23.01,1.844,0a.954.954,0,0,0,1.035-.907.931.931,0,0,0-1-.937q-1.875-.02-3.75,0a.9.9,0,0,0-.964.9.923.923,0,0,0,.99.942C-407.349,485.286-406.734,485.274-406.12,485.274Zm-.348-38.379c-.514,0-1.028-.014-1.542,0a.911.911,0,0,0-.947.924.9.9,0,0,0,.9.912q1.51.038,3.021,0a.919.919,0,0,0,.922-.956.922.922,0,0,0-.934-.881C-405.521,446.88-405.995,446.9-406.467,446.9Z" transform="translate(412.961 -434.92)" fill="#ecf4fc"/>
        <path id="Trazado_632546" data-name="Trazado 632546" d="M-414.963,544.837a.992.992,0,0,1,.88,1.133c-.018,1.254-.01,2.508,0,3.763a1.607,1.607,0,0,0,1.774,1.8q18.074,0,36.147,0c.061,0,.123-.007.29-.017-3.917-2.673-6.109-6.273-6.12-10.989-.011-4.738,2.164-8.356,6.159-11.081h-25.8c-1.612,0-2.328-.717-2.329-2.326,0-.432,0-.864,0-1.3a1.96,1.96,0,0,1,2.193-2.205q12.522,0,25.044,0c.74,0,1.483.038,2.22-.009a2.144,2.144,0,0,1,2.246,1.27,23.341,23.341,0,0,1,.069,3.057,12.61,12.61,0,0,1,1.54-.225c.519-.014.624-.224.623-.707-.017-5.176,0-10.352-.02-15.528a1.111,1.111,0,0,1,.882-1.272c.888.306.98.438.98,1.424,0,5.14.008,10.28-.013,15.419,0,.485.154.611.6.658a12.867,12.867,0,0,1,11.283,11.363,12.889,12.889,0,0,1-10.776,14.159,13.148,13.148,0,0,1-2.211.162q-21.465-.007-42.929,0a3.444,3.444,0,0,1-3.7-3.686q0-1.85,0-3.7C-415.935,545.25-415.708,544.987-414.963,544.837Zm54.909-10.571-.1-.144a10.488,10.488,0,0,0-8.543-4.647,10.989,10.989,0,0,0-11.2,13.369,10.375,10.375,0,0,0,4.791,6.875,10.284,10.284,0,0,0,7.978,1.622,10.933,10.933,0,0,0,9.022-10.161,10.2,10.2,0,0,0-1.938-6.9Zm-21.221-6.667h5.792c1.466,0,1.442,0,1.47-1.489.01-.523-.152-.646-.657-.644-4.066.02-8.133.011-12.2.011-1.56,0-1.544,0-1.548,1.581,0,.432.119.554.551.55C-385.67,527.587-383.473,527.6-381.275,527.6Zm-14.931-2.122h-4.435c-1.478,0-1.454,0-1.488,1.451-.012.526.1.692.665.687,3.224-.032,6.448-.015,9.672-.015,1.552,0,1.528,0,1.547-1.572.006-.494-.17-.565-.6-.559C-392.633,525.489-394.419,525.476-396.206,525.476Z" transform="translate(415.943 -490.196)" fill="#020202"/>
        <path id="Trazado_632547" data-name="Trazado 632547" d="M-384.595,431.15c-.2-.007-.41-.019-.615-.019h-26.829c-1.5,0-2.043.542-2.043,2.031q0,23.5.009,46.995c0,.682-.17,1.166-.883,1.334-.8-.22-.977-.439-.977-1.247q0-23.691,0-47.382a3.415,3.415,0,0,1,3.56-3.58q14.807-.007,29.615,0a3.587,3.587,0,0,1,2.652,1.1q5.4,5.415,10.819,10.82a3.589,3.589,0,0,1,1.1,2.654c0,.6,0,1.193,0,1.789,0,.809-.191,1.046-.973,1.246a1.031,1.031,0,0,1-.884-1.2c.027-.451-.035-.909.015-1.356.064-.572-.089-.757-.71-.747-2.693.041-5.387.019-8.08.017a3.422,3.422,0,0,1-3.686-3.69c0-2.755-.008-5.51.007-8.265,0-.384-.07-.553-.5-.519C-383.524,431.164-384.06,431.143-384.595,431.15Zm13.057,10.594-9.1-9.093c.014-.03-.016,0-.016.037,0,2.507-.013,5.014.006,7.521a1.516,1.516,0,0,0,1.591,1.53c1.007.017,2.014,0,3.021,0Z" transform="translate(415.936 -429.275)" fill="#020202"/>
        <path id="Trazado_632548" data-name="Trazado 632548" d="M-289.239,436.754c.534-.007,1.07.015,1.6-.029.426-.035.5.135.5.519-.015,2.755-.011,5.51-.007,8.265a3.422,3.422,0,0,0,3.686,3.69c2.694,0,5.387.024,8.08-.017.622-.009.774.175.71.747-.05.447.012.9-.015,1.356a1.031,1.031,0,0,0,.884,1.2q0,1.2-.007,2.407a1.111,1.111,0,0,0-.882,1.272c.017,5.176,0,10.352.02,15.528,0,.483-.1.693-.623.707a12.622,12.622,0,0,0-1.54.225,23.34,23.34,0,0,0-.069-3.057c.157-.116.131-.288.131-.449q0-2.393,0-4.787c0-.161.027-.332-.13-.449a16.308,16.308,0,0,0,.019-3.206c.142-.128.111-.3.111-.461q0-2,0-4.007c0-.162.03-.332-.1-.468.016-.694.044-1.389.046-2.084a2.024,2.024,0,0,0-2.323-2.329q-2.762-.012-5.523-.029c-.414-.372-.987-.347-1.462-.595a5.415,5.415,0,0,1-3.091-5.008C-289.281,442.717-289.239,439.735-289.239,436.754Z" transform="translate(320.581 -434.88)" fill="#dde9f8"/>
        <path id="Trazado_632549" data-name="Trazado 632549" d="M-343.6,495.675q2.761.015,5.523.029a2.024,2.024,0,0,1,2.323,2.329c0,.695-.03,1.389-.046,2.084a2.121,2.121,0,0,1-2.242,1.458q-13.6-.018-27.2-.007a2.017,2.017,0,0,1-2.293-2.314c0-.514-.008-1.028,0-1.542a1.958,1.958,0,0,1,1.918-2c.2-.013.411,0,.616,0h20.725C-344.048,495.7-343.823,495.684-343.6,495.675Zm-14.194,1.878h-6.35c-1.548,0-1.516,0-1.558,1.52-.016.586.2.658.706.656,4.459-.018,8.919-.01,13.378-.01,1.577,0,1.561,0,1.564-1.582,0-.454-.12-.6-.589-.595C-353.024,497.565-355.407,497.553-357.791,497.553Zm14.861,2.168h3.825c1.537,0,1.515,0,1.528-1.567,0-.51-.175-.615-.643-.612-2.8.019-5.593.009-8.39.009-1.645,0-1.629,0-1.608,1.66.005.421.148.521.537.516C-346.1,499.711-344.513,499.72-342.93,499.721Z" transform="translate(379.507 -479.256)" fill="#050505"/>
        <path id="Trazado_632550" data-name="Trazado 632550" d="M-335.811,529.466a16.308,16.308,0,0,1-.019,3.206,2.237,2.237,0,0,1-2.245,1.281q-13.572-.033-27.145-.013c-1.608,0-2.314-.716-2.315-2.336,0-.514-.011-1.029,0-1.542a1.92,1.92,0,0,1,1.96-1.949q13.943-.01,27.885,0A1.984,1.984,0,0,1-335.811,529.466Zm-18.309,2.62h10.048c1.474,0,1.439,0,1.488-1.454.02-.6-.2-.683-.724-.682q-10.479.024-20.958.01c-1.417,0-1.387,0-1.43,1.387-.018.578.112.76.728.755C-361.353,532.07-357.736,532.087-354.12,532.087Zm14.854,0c.39,0,.783-.029,1.169.007.433.041.533-.154.509-.536a8.494,8.494,0,0,1,0-1.108c.025-.368-.1-.511-.483-.5a19.011,19.011,0,0,1-2.093,0c-.517-.037-.6.167-.6.626C-340.74,532.085-340.756,532.085-339.266,532.085Z" transform="translate(379.508 -503.669)" fill="#020202"/>
        <path id="Trazado_632551" data-name="Trazado 632551" d="M-391.443,451.23c-2.035,0-4.07,0-6.106,0A2,2,0,0,1-399.8,449c0-.555-.018-1.111,0-1.665a1.924,1.924,0,0,1,2.012-1.966q6.383-.02,12.766,0a1.948,1.948,0,0,1,2.043,2.066c.011.555.008,1.11,0,1.665a1.969,1.969,0,0,1-2.113,2.125C-387.208,451.241-389.325,451.23-391.443,451.23Zm.022-1.85h5.055c1.549,0,1.526,0,1.551-1.533.009-.526-.162-.646-.663-.644-3.637.02-7.275.011-10.912.011-1.607,0-1.591,0-1.58,1.624,0,.44.145.554.568.55C-395.408,449.369-393.414,449.38-391.421,449.38Z" transform="translate(403.801 -441.383)" fill="#050505"/>
        <path id="Trazado_632552" data-name="Trazado 632552" d="M-390.384,609.293q3.976,0,7.952,0a4.143,4.143,0,0,1,.615.026.848.848,0,0,1,.766.835.837.837,0,0,1-.649.925,2.5,2.5,0,0,1-.669.065q-8.014.005-16.027,0a2.4,2.4,0,0,1-.728-.082.825.825,0,0,1-.586-.908.826.826,0,0,1,.7-.823,3.486,3.486,0,0,1,.675-.037Q-394.36,609.291-390.384,609.293Z" transform="translate(403.726 -564.778)" fill="#050505"/>
        <path id="Trazado_632553" data-name="Trazado 632553" d="M-358.465,625.407h7.892a3.361,3.361,0,0,1,.554.013.866.866,0,0,1,.8.865.881.881,0,0,1-.774.957,2.181,2.181,0,0,1-.492.015h-16.031a2.884,2.884,0,0,1-.431-.008.9.9,0,0,1-.84-.9.893.893,0,0,1,.872-.931c.245-.021.493-.008.739-.008Z" transform="translate(379.693 -576.904)" fill="#020202"/>
        <path id="Trazado_632554" data-name="Trazado 632554" d="M-391.232,643.342c-2.465,0-4.93,0-7.4,0-.559,0-.969-.179-1.074-.777a.888.888,0,0,1,.728-1.044,3.34,3.34,0,0,1,.674-.035q7.056,0,14.113,0c.144,0,.288-.007.431,0a.945.945,0,0,1,1,.945.913.913,0,0,1-1.022.9C-386.261,643.347-388.747,643.342-391.232,643.342Z" transform="translate(403.729 -589.011)" fill="#050505"/>
        <path id="Trazado_632555" data-name="Trazado 632555" d="M-393.913,498.737a2.963,2.963,0,0,1-2.956,2.93,2.945,2.945,0,0,1-2.891-2.927,2.94,2.94,0,0,1,2.887-2.928A2.957,2.957,0,0,1-393.913,498.737Zm-1.858.026a1.1,1.1,0,0,0-1.029-1.092,1.072,1.072,0,0,0-1.1,1.013,1.075,1.075,0,0,0,1.049,1.123A1.1,1.1,0,0,0-395.771,498.763Z" transform="translate(403.762 -479.359)" fill="#050505"/>
        <path id="Trazado_632556" data-name="Trazado 632556" d="M-396.835,533.938a2.906,2.906,0,0,1-2.922-2.874,2.925,2.925,0,0,1,2.916-2.951,2.945,2.945,0,0,1,2.93,2.946A2.919,2.919,0,0,1-396.835,533.938Zm1.07-2.935a1.1,1.1,0,0,0-1.083-1.038,1.052,1.052,0,0,0-1.044,1.121,1.032,1.032,0,0,0,1.1,1A1.077,1.077,0,0,0-395.765,531Z" transform="translate(403.759 -503.672)" fill="#030403"/>
        <path id="Trazado_632557" data-name="Trazado 632557" d="M-396.815,564.46a2.918,2.918,0,0,1,2.9,2.9,2.94,2.94,0,0,1-2.952,2.921,2.924,2.924,0,0,1-2.9-2.909A2.906,2.906,0,0,1-396.815,564.46Zm1.062,2.9a1.086,1.086,0,0,0-1.06-1.063,1.065,1.065,0,0,0-1.106,1.071,1.076,1.076,0,0,0,1.052,1.069A1.1,1.1,0,0,0-395.753,567.364Z" transform="translate(403.762 -531.032)" fill="#030403"/>
        <path id="Trazado_632558" data-name="Trazado 632558" d="M-366.6,477.7c1.273,0,2.547,0,3.821,0,.662,0,1.086.369,1.089.915a.957.957,0,0,1-1.079.931q-3.852.01-7.7,0a.942.942,0,0,1-1.051-.951.936.936,0,0,1,1.041-.894C-369.191,477.689-367.9,477.7-366.6,477.7Z" transform="translate(382.509 -465.721)" fill="#020202"/>
        <path id="Trazado_632559" data-name="Trazado 632559" d="M-312.745,609.29c.616,0,1.233-.015,1.849,0a.9.9,0,0,1,.983.879.9.9,0,0,1-.972.96q-1.848.034-3.7,0a.942.942,0,0,1-1-.95.931.931,0,0,1,.985-.89C-313.978,609.274-313.362,609.29-312.745,609.29Z" transform="translate(340.397 -564.772)" fill="#050505"/>
        <path id="Trazado_632560" data-name="Trazado 632560" d="M-396.9,627.256c-.615,0-1.23.012-1.844,0a.923.923,0,0,1-.99-.942.9.9,0,0,1,.964-.9q1.875-.023,3.75,0a.93.93,0,0,1,1,.937.954.954,0,0,1-1.035.907C-395.672,627.266-396.287,627.256-396.9,627.256Z" transform="translate(403.743 -576.902)" fill="#030403"/>
        <path id="Trazado_632561" data-name="Trazado 632561" d="M-397.255,477.686c.473,0,.946-.015,1.418,0a.922.922,0,0,1,.934.881.919.919,0,0,1-.922.956q-1.51.037-3.021,0a.9.9,0,0,1-.9-.912.911.911,0,0,1,.947-.924C-398.283,477.672-397.769,477.686-397.255,477.686Z" transform="translate(403.749 -465.711)" fill="#030403"/>
        <path id="Trazado_632562" data-name="Trazado 632562" d="M-266.166,608.342a10.375,10.375,0,0,1-4.791-6.875,10.989,10.989,0,0,1,11.2-13.369,10.488,10.488,0,0,1,8.543,4.647l.1.144.006.012a4.346,4.346,0,0,0,.075.483,12.982,12.982,0,0,1,.311,5.224,11.479,11.479,0,0,1-4.36,7.52,11.786,11.786,0,0,1-10,2.341C-265.428,608.4-265.776,608.1-266.166,608.342Zm12.356-9.534a3.124,3.124,0,0,0-.612-2.264c.714-.551.779-.935.282-1.657a7.35,7.35,0,0,0-8.345-2.772,7.385,7.385,0,0,0-5,8.109,7.385,7.385,0,0,0,7.171,6.263,7.3,7.3,0,0,0,7.4-6.187C-252.745,599.35-252.905,599.085-253.809,598.807Z" transform="translate(306.999 -548.819)" fill="#b2efc5"/>
        <path id="Trazado_632563" data-name="Trazado 632563" d="M-250.811,622.984c.389-.238.738.061,1.084.126a11.786,11.786,0,0,0,10-2.341,11.479,11.479,0,0,0,4.36-7.52,12.982,12.982,0,0,0-.311-5.224,4.346,4.346,0,0,1-.075-.483,10.2,10.2,0,0,1,1.938,6.9,10.933,10.933,0,0,1-9.022,10.161A10.284,10.284,0,0,1-250.811,622.984Z" transform="translate(291.644 -563.461)" fill="#9febad"/>
        <path id="Trazado_632564" data-name="Trazado 632564" d="M-297.491,574.043c-2.2,0-4.4-.011-6.593.009-.431,0-.552-.118-.551-.55,0-1.581-.012-1.581,1.548-1.581,4.066,0,8.133.009,12.2-.011.5,0,.666.12.657.644-.028,1.488,0,1.489-1.47,1.489Z" transform="translate(332.158 -536.64)" fill="#4a72c2"/>
        <path id="Trazado_632565" data-name="Trazado 632565" d="M-354.162,571.922c1.787,0,3.573.013,5.359-.009.431-.005.606.066.6.559-.018,1.572.005,1.572-1.547,1.572-3.224,0-6.448-.016-9.672.015-.565.005-.678-.161-.665-.687.034-1.45.01-1.451,1.488-1.451Z" transform="translate(373.898 -536.642)" fill="#da9752"/>
        <path id="Trazado_632566" data-name="Trazado 632566" d="M-264.143,451.985h-4.494c-1.007,0-2.014.013-3.021,0a1.516,1.516,0,0,1-1.591-1.53c-.019-2.507-.008-5.014-.006-7.521,0-.034.03-.067.016-.037Z" transform="translate(308.542 -439.516)" fill="#c1d6f7"/>
        <path id="Trazado_632567" data-name="Trazado 632567" d="M-352.2,503.236c2.384,0,4.768.012,7.151-.01.468,0,.59.141.589.595,0,1.582.013,1.582-1.564,1.582-4.459,0-8.919-.007-13.378.01-.5,0-.723-.07-.706-.656.042-1.519.01-1.52,1.558-1.52Z" transform="translate(373.913 -484.939)" fill="#d1914e"/>
        <path id="Trazado_632568" data-name="Trazado 632568" d="M-284.13,505.4c-1.583,0-3.167-.01-4.75.007-.389,0-.532-.1-.537-.516-.021-1.66-.037-1.66,1.608-1.66,2.8,0,5.593.009,8.39-.009.468,0,.647.1.643.612-.013,1.567.009,1.567-1.528,1.567Z" transform="translate(320.707 -484.938)" fill="#486ebb"/>
        <path id="Trazado_632569" data-name="Trazado 632569" d="M-348.517,537.695c-3.616,0-7.233-.017-10.849.016-.616.005-.746-.176-.728-.755.043-1.386.013-1.387,1.43-1.387q10.479,0,20.958-.01c.525,0,.744.079.724.682-.048,1.453-.014,1.454-1.488,1.454Z" transform="translate(373.905 -509.277)" fill="#da9752"/>
        <path id="Trazado_632570" data-name="Trazado 632570" d="M-257.748,537.675c-1.49,0-1.474,0-1.493-1.51-.006-.459.08-.662.6-.626a19,19,0,0,0,2.093,0c.388-.016.508.127.483.5a8.493,8.493,0,0,0,0,1.108c.024.382-.076.576-.509.536C-256.965,537.646-257.358,537.675-257.748,537.675Z" transform="translate(297.99 -509.259)" fill="#4a72c2"/>
        <path id="Trazado_632571" data-name="Trazado 632571" d="M-385.817,454.992c-1.994,0-3.987-.011-5.98.009-.424,0-.566-.11-.568-.55-.01-1.624-.026-1.624,1.58-1.624,3.637,0,7.275.009,10.912-.011.5,0,.671.117.663.644-.025,1.532,0,1.533-1.551,1.533Z" transform="translate(398.197 -446.995)" fill="#c9759b"/>
        <path id="Trazado_632572" data-name="Trazado 632572" d="M-390.1,504.421a1.1,1.1,0,0,1-1.078,1.044,1.075,1.075,0,0,1-1.049-1.123,1.072,1.072,0,0,1,1.1-1.013A1.1,1.1,0,0,1-390.1,504.421Z" transform="translate(398.095 -485.016)" fill="#b2efc5"/>
        <path id="Trazado_632573" data-name="Trazado 632573" d="M-390.091,536.643a1.077,1.077,0,0,1-1.031,1.081,1.032,1.032,0,0,1-1.1-1,1.052,1.052,0,0,1,1.044-1.121A1.1,1.1,0,0,1-390.091,536.643Z" transform="translate(398.085 -509.312)" fill="#c9759b"/>
        <path id="Trazado_632574" data-name="Trazado 632574" d="M-390.148,572.969a1.1,1.1,0,0,1-1.114,1.078,1.076,1.076,0,0,1-1.052-1.069,1.065,1.065,0,0,1,1.106-1.071A1.086,1.086,0,0,1-390.148,572.969Z" transform="translate(398.157 -536.636)" fill="#da9752"/>
        <path id="Trazado_632575" data-name="Trazado 632575" d="M-237.692,613.3a3.124,3.124,0,0,1,.612,2.264c-.832.18-.853.871-.988,1.517a5.489,5.489,0,0,1-6.532,4.192,5.49,5.49,0,0,1-4.242-6.556,5.254,5.254,0,0,1,4.3-4.234,5.256,5.256,0,0,1,5.573,2.178A1.225,1.225,0,0,0-237.692,613.3Zm-3.091,1.387a.864.864,0,0,0-.5-.788.87.87,0,0,0-1.029.129,14.673,14.673,0,0,0-1.134,1.125c-.366.423-.639.652-1.115.082a.844.844,0,0,0-1.3.01.92.92,0,0,0,.059,1.32c.321.344.66.673,1,1a.966.966,0,0,0,1.548.011c.719-.7,1.422-1.418,2.131-2.13A1,1,0,0,0-240.783,614.686Z" transform="translate(290.27 -565.574)" fill="#8acb95"/>
        <path id="Trazado_632576" data-name="Trazado 632576" d="M-243.346,607.646a1.225,1.225,0,0,1-1.278-.64,5.255,5.255,0,0,0-5.573-2.178,5.254,5.254,0,0,0-4.3,4.234,5.49,5.49,0,0,0,4.242,6.556,5.489,5.489,0,0,0,6.532-4.192c.135-.645.157-1.337.988-1.517.9.278,1.064.543.9,1.492a7.3,7.3,0,0,1-7.4,6.187,7.385,7.385,0,0,1-7.171-6.263,7.386,7.386,0,0,1,5-8.109,7.351,7.351,0,0,1,8.345,2.772C-242.566,606.711-242.631,607.1-243.346,607.646Z" transform="translate(295.924 -559.922)" fill="#030403"/>
        <path id="Trazado_632577" data-name="Trazado 632577" d="M-232.053,625.149a1,1,0,0,1-.346.76c-.708.712-1.411,1.429-2.131,2.13a.966.966,0,0,1-1.548-.011c-.339-.328-.678-.656-1-1a.92.92,0,0,1-.059-1.32.844.844,0,0,1,1.3-.01c.476.57.749.341,1.115-.082a14.657,14.657,0,0,1,1.134-1.125.869.869,0,0,1,1.029-.129A.864.864,0,0,1-232.053,625.149Z" transform="translate(281.54 -576.038)" fill="#030403"/>
      </g>
    </g>
  </g>
</svg>
