<svg xmlns="http://www.w3.org/2000/svg" width="95" height="95" viewBox="0 0 95 95">
  <g id="Grupo_956645" data-name="Grupo 956645" transform="translate(-580 -17151.51)">
    <g id="Grupo_956612" data-name="Grupo 956612" transform="translate(580 17151.51)">
      <path id="Trazado_626457" data-name="Trazado 626457" d="M47.5,0A47.5,47.5,0,1,1,0,47.5,47.5,47.5,0,0,1,47.5,0Z" fill="#449c6e"/>
      <g id="Grupo_962204" data-name="Grupo 962204" transform="translate(-909.287 4.549)">
        <path id="Trazado_633626" data-name="Trazado 633626" d="M930.136,82.729c-.32,1.555-.668,3.024-.915,4.51a10.959,10.959,0,0,1-1.092,3.165c-2.284,4.527-4.544,9.067-6.817,13.6-.734,1.463-1.452,1.677-2.842.848q-3.475-2.073-6.941-4.162c-1.175-.709-1.349-1.286-.784-2.568,1.19-2.7,2.275-5.454,3.611-8.081a39.265,39.265,0,0,0,3.6-11.618c.088-.538.2-1.075.325-1.605.408-1.679.81-3.258-.655-4.788a5.084,5.084,0,0,1-1.006-3.551c-.008-4.826-.1-9.654.026-14.477.12-4.683,2.449-8.139,6.517-10.566a10.793,10.793,0,0,1-4.981-9.622,10.263,10.263,0,0,1,3.354-7.346,10.794,10.794,0,0,1,15.327.427,10.923,10.923,0,0,1-2.034,16.56,12.419,12.419,0,0,1,6.485,11.659c-.02.725.242.811.871.812a29.423,29.423,0,0,1,5.01.1,7.565,7.565,0,0,1,6.42,6.744c.091.823.4.877,1.046.868,2.091-.029,4.183-.013,6.275-.01,1.368,0,1.74.3,2.074,1.63.07.28.143.56.2.843.082.413.225.725.746.621a3,3,0,0,1,.578-.006q16.942,0,33.884.019c.9,0,1.489-.117,1.473-1.162a2.435,2.435,0,0,1,.118-.465c.091-.467-.2-1.156.143-1.361.407-.244,1.049-.1,1.589-.119.289-.009.58.013.868-.005.344-.022.551.051.518.463a11.473,11.473,0,0,1-.135,1.819q-2.968,12.558-5.9,25.125c-.4,1.713-.71,1.944-2.521,1.944-8.173,0-16.347.012-24.52-.019-.771,0-.971.208-.93.949.063,1.155,0,2.316.02,3.474.016,1.192.59,1.712,1.79,1.783a2.073,2.073,0,0,0,2.215-1.093,4.479,4.479,0,0,1,7.729.419,1.1,1.1,0,0,0,1.177.677c1.7-.035,3.411-.029,5.116,0a1.024,1.024,0,0,0,1.105-.633,4.48,4.48,0,0,1,5.209-2.3,4.615,4.615,0,0,1,.02,8.93,4.493,4.493,0,0,1-5.222-2.275,1.03,1.03,0,0,0-1.093-.653q-2.654.046-5.309,0a.9.9,0,0,0-.947.575,4.556,4.556,0,0,1-8.152-.022.89.89,0,0,0-.963-.552,8.21,8.21,0,0,1-2.113-.1,4.4,4.4,0,0,1-3.619-4.5c.462-5.581-1.194-10.809-2.408-16.115-1.06-4.631-2.185-9.247-3.244-13.878-.163-.711-.416-.949-1.187-.945-7.142.038-14.286.022-21.43.022-.123.349.125.564.243.8.951,1.929,1.826,3.9,2.9,5.759a24.138,24.138,0,0,1,2.692,8.363c1.2,7.159,2.494,14.3,3.759,21.451.261,1.477-.323,2.231-1.807,2.236q-4.248.013-8.5,0c-1.294,0-1.72-.335-1.992-1.6q-2.121-9.839-4.238-19.678C930.776,83.589,930.859,82.986,930.136,82.729Zm11.707-19.1c2.671,0,5.342-.024,8.013.016.7.01.795-.224.669-.836A4.66,4.66,0,0,0,945.942,59c-1.9-.023-3.8,0-5.7-.006-1.506,0-1.994-.513-2.013-2.04a21.326,21.326,0,0,0-.245-4.71,9.259,9.259,0,0,0-18.276,1.965c-.049,4.6,0,9.2-.019,13.8a4.926,4.926,0,0,0,2.029,4.156c3.616,2.789,7.2,5.615,10.825,8.4a2.894,2.894,0,0,1,1.145,1.807c1.35,6.378,2.744,12.747,4.084,19.127.13.619.364.765.943.75,1.479-.036,2.962-.058,4.44.006.808.035.949-.21.812-.968-1.1-6.069-2.142-12.148-3.243-18.216-.326-1.8-.326-3.708-1.086-5.366-1.62-3.532-3.448-6.967-5.171-10.452a.888.888,0,0,0-.886-.554,4.6,4.6,0,0,1-4.616-4.887c-.008-2.252,0-4.5,0-6.757,0-2.289,0-2.261,2.323-2.262.664,0,.787.225.78.825-.029,2.67-.016,5.341-.011,8.011,0,1.458.525,1.988,1.965,1.992C936.63,63.633,939.237,63.629,941.843,63.629ZM928.927,42a7.721,7.721,0,1,0-7.682-7.786A7.752,7.752,0,0,0,928.927,42Zm35.181,27.837c.29,1.257.613,2.461.832,3.683.133.745.453.938,1.206.936q15.339-.045,30.678-.02c.161,0,.322-.008.482,0,.327.019.526-.067.607-.443.3-1.374.632-2.741.963-4.158ZM927.381,80.815c.094-.264-.135-.433-.375-.619-1.6-1.239-3.2-2.475-4.788-3.735-.505-.4-.685-.286-.792.313-.236,1.326-.475,2.653-.786,3.963-.467,1.96-.568,4.008-1.4,5.881-1.656,3.726-3.3,7.459-4.971,11.178-.242.54-.22.844.342,1.156q1.9,1.051,3.719,2.23c.6.388.85.227,1.14-.363,1.658-3.373,3.222-6.8,5.071-10.069C926.289,87.658,926.517,84.212,927.381,80.815Zm54.073-3.284c-4.89,0-9.78.014-14.669-.015-.723,0-.887.187-.7.867.283,1.02.513,2.056.734,3.092.1.465.255.7.808.7q13.85-.027,27.7,0a.708.708,0,0,0,.829-.677c.2-.975.4-1.954.676-2.908.231-.79.172-1.1-.806-1.084C991.17,77.561,986.312,77.531,981.454,77.531Zm.094,7.723h-4.823q-4.148,0-8.3,0c-.332,0-.759-.116-.6.51.309,1.212.615,2.427.87,3.651.091.436.323.475.674.472,1-.01,1.994,0,2.99,0,6.977,0,13.954-.011,20.932.017.67,0,.969-.168,1.086-.838a22.416,22.416,0,0,1,.694-3c.253-.789-.065-.825-.7-.822C990.1,85.263,985.824,85.254,981.548,85.254ZM978.4,100.7a1.542,1.542,0,1,0-1.525,1.535A1.552,1.552,0,0,0,978.4,100.7Zm15.448-.024a1.541,1.541,0,1,0-1.5,1.558A1.552,1.552,0,0,0,993.845,100.681Z" transform="translate(0 -17.186)" fill="#171727"/>
        <path id="Trazado_633627" data-name="Trazado 633627" d="M1067.871,85c-5.63,0-11.26-.012-16.889.017-.672,0-.856-.155-.846-.838.031-2.267,0-2.255,2.294-2.275.761-.007,1.8.339,2.208-.145.387-.458.14-1.462.147-2.226.012-1.19-.009-2.38.006-3.57a1.571,1.571,0,0,1,1.787-1.771c1.737-.014,3.476-.033,5.211.012.61.016.744-.165.737-.75-.032-2.7-.018-5.4-.013-8.105,0-1.448.525-1.968,1.977-1.971q3.475-.008,6.949,0c1.325.005,1.87.553,1.885,1.871.008.675.042,1.354-.01,2.026-.047.588.124.767.734.75,1.7-.046,3.41-.022,5.115-.014,1.326.007,1.881.552,1.884,1.87.008,3.731.02,7.463-.013,11.194-.006.661.134.893.831.852,1.09-.065,2.187,0,3.281-.026.417-.01.527.116.552.539.147,2.56.16,2.559-2.384,2.559Zm2.365-10.773c0-2.316-.016-4.631.012-6.947.007-.585-.086-.871-.771-.831-1.058.061-2.123.044-3.183,0-.548-.021-.706.15-.7.7q.031,7.043,0,14.086c0,.573.2.7.722.68,1.061-.034,2.124-.044,3.183,0,.6.027.764-.152.755-.75C1070.215,78.859,1070.236,76.543,1070.236,74.227Zm7.724,2.276c0-1.543-.033-3.088.016-4.63.021-.653-.2-.814-.815-.787-1.059.046-2.123.035-3.183,0-.493-.015-.666.121-.663.642q.034,4.775,0,9.55c0,.524.176.653.665.639,1.06-.031,2.124-.043,3.183,0,.617.027.832-.141.812-.79C1077.928,79.591,1077.96,78.047,1077.96,76.5Zm-17.741,5.407c2.293,0,2.293,0,2.293-2.269v-.1c0-2.269,0-2.269-2.293-2.269-2.341,0-2.341,0-2.341,2.316S1057.878,81.911,1060.219,81.911Z" transform="translate(-85.657 -41.646)" fill="#161525"/>
        <path id="Trazado_633628" data-name="Trazado 633628" d="M1005.088,6.624q0-4.584,0-9.168c0-1.447.525-1.964,1.98-1.968,1.705-.005,3.411.018,5.116-.013.513-.01.63.15.641.646.056,2.456.072,2.456-2.392,2.456-2.256,0-2.256,0-2.256,2.289,0,5.244-.011,10.487.012,15.731a2.505,2.505,0,0,1-.8,1.967c-1.231,1.18-2.4,2.422-3.633,3.6a1.234,1.234,0,0,0-.415,1.479,4.478,4.478,0,0,1-1.876,5.052,4.637,4.637,0,0,1-6.921-5.417A4.677,4.677,0,0,1,999,20.2a1.341,1.341,0,0,1,.572.051c1.163.63,1.855-.041,2.576-.831.932-1.02,2.307-1.822,2.8-3s.133-2.72.137-4.1C1005.092,10.42,1005.088,8.522,1005.088,6.624ZM1000.45,24.83a1.541,1.541,0,1,0-1.515,1.544A1.548,1.548,0,0,0,1000.45,24.83Z" transform="translate(-51.405 -0.014)" fill="#181726"/>
        <path id="Trazado_633629" data-name="Trazado 633629" d="M1060.19,43.395c3.088,0,6.175.017,9.262-.014.62-.007.8.146.8.785-.013,2.318.014,2.318-2.338,2.318-5.628,0-11.256-.014-16.884.018-.711,0-.912-.152-.9-.885.044-2.221.008-2.222,2.245-2.222Z" transform="translate(-85.654 -29.388)" fill="#161525"/>
        <path id="Trazado_633630" data-name="Trazado 633630" d="M1111.285,14.539c-2.83,0-5.66-.02-8.49.015-.6.007-.74-.158-.74-.747,0-2.358-.025-2.358,2.3-2.358,5.146,0,10.291.014,15.436-.017.683,0,.847.173.838.845-.029,2.261,0,2.261-2.3,2.261Z" transform="translate(-117.491 -9.799)" fill="#161525"/>
        <path id="Trazado_633631" data-name="Trazado 633631" d="M1075.3,30.508c-2.8,0-5.6-.02-8.393.015-.628.008-.8-.158-.794-.79.012-2.315-.013-2.315,2.341-2.315,5.113,0,10.227.016,15.34-.018.719-.005.908.164.893.889-.043,2.217-.008,2.218-2.247,2.218Z" transform="translate(-95.454 -19.59)" fill="#161525"/>
        <path id="Trazado_633632" data-name="Trazado 633632" d="M1058.609,14.541c-2.573,0-5.146-.019-7.718.014-.583.007-.752-.125-.752-.735,0-2.368-.026-2.368,2.384-2.368,4.6,0,9.2.015,13.8-.017.666,0,.859.145.85.834-.032,2.271,0,2.272-2.289,2.272Z" transform="translate(-85.659 -9.8)" fill="#161525"/>
        <path id="Trazado_633633" data-name="Trazado 633633" d="M1081.767-1.438c-2.283,0-4.566-.016-6.849.011-.575.007-.831-.068-.827-.756.016-2.344-.017-2.344,2.315-2.344,4.084,0,8.168.025,12.251-.021.792-.009.933.242.92.96-.041,2.15-.012,2.151-2.118,2.151Z" transform="translate(-100.345)" fill="#161525"/>
        <path id="Trazado_633634" data-name="Trazado 633634" d="M1127.382-1.425c-1.575,0-3.151-.017-4.725.01-.483.008-.65-.095-.664-.624-.064-2.475-.084-2.475,2.371-2.475,2.572,0,5.144.017,7.715-.013.566-.007.762.1.762.723,0,2.378.031,2.378-2.373,2.378Z" transform="translate(-129.706 -0.013)" fill="#161525"/>
        <path id="Trazado_633635" data-name="Trazado 633635" d="M1127.54,27.427c1.543,0,3.086.023,4.629-.012.543-.012.688.144.7.689.032,2.412.051,2.412-2.336,2.412-2.572,0-5.143-.021-7.714.015-.627.009-.8-.156-.794-.789.012-2.315-.014-2.315,2.338-2.315Z" transform="translate(-129.733 -19.598)" fill="#161525"/>
        <path id="Trazado_633636" data-name="Trazado 633636" d="M1053.117-1.415h-.771c-2.563,0-2.553,0-2.333-2.6.031-.366.118-.5.5-.493q2.6.024,5.2,0c.37,0,.543.107.491.488a.508.508,0,0,0,0,.1c.132,2.511.132,2.511-2.316,2.511Z" transform="translate(-85.527 -0.024)" fill="#161525"/>
        <path id="Trazado_633637" data-name="Trazado 633637" d="M1050.185,28.929c0-1.481,0-1.481,1.512-1.481,1.578,0,1.578,0,1.578,1.608,0,1.481,0,1.481-1.512,1.481C1050.185,30.537,1050.185,30.537,1050.185,28.929Z" transform="translate(-85.687 -19.619)" fill="#161525"/>
        <path id="Trazado_633638" data-name="Trazado 633638" d="M1113.172,45.027c0,1.48,0,1.48-1.512,1.48-1.578,0-1.578,0-1.578-1.608,0-1.481,0-1.481,1.512-1.481C1113.172,43.418,1113.172,43.418,1113.172,45.027Z" transform="translate(-122.413 -29.411)" fill="#161525"/>
        <path id="Trazado_633639" data-name="Trazado 633639" d="M1129.145,44.9c0,1.608,0,1.608-1.577,1.608-1.512,0-1.512,0-1.512-1.48,0-1.609,0-1.609,1.577-1.609C1129.145,43.418,1129.145,43.418,1129.145,44.9Z" transform="translate(-132.207 -29.411)" fill="#161525"/>
        <path id="Trazado_633640" data-name="Trazado 633640" d="M1142.029,44.869c0-1.451,0-1.451,1.445-1.451,1.644,0,1.644,0,1.644,1.638,0,1.451,0,1.451-1.445,1.451C1142.029,46.507,1142.029,46.507,1142.029,44.869Z" transform="translate(-142.001 -29.411)" fill="#161525"/>
        <path id="Trazado_633641" data-name="Trazado 633641" d="M956.511,97.856c-2.607,0-5.213,0-7.819,0-1.44,0-1.962-.534-1.965-1.992-.005-2.67-.018-5.341.011-8.011.007-.6-.116-.826-.78-.825-2.323,0-2.323-.027-2.323,2.262,0,2.252-.006,4.5,0,6.757a4.6,4.6,0,0,0,4.616,4.887.888.888,0,0,1,.886.554c1.723,3.484,3.551,6.92,5.171,10.452.761,1.658.761,3.568,1.086,5.366,1.1,6.069,2.145,12.147,3.243,18.216.137.758,0,1-.812.968-1.477-.063-2.96-.042-4.44-.006-.579.014-.814-.132-.943-.751-1.34-6.38-2.733-12.749-4.084-19.127a2.894,2.894,0,0,0-1.145-1.807c-3.62-2.785-7.208-5.611-10.825-8.4a4.926,4.926,0,0,1-2.029-4.156c.017-4.6-.03-9.2.019-13.8a9.259,9.259,0,0,1,18.276-1.965,21.33,21.33,0,0,1,.245,4.71c.019,1.527.507,2.036,2.013,2.04,1.9,0,3.8-.017,5.7.006a4.66,4.66,0,0,1,4.583,3.807c.126.612.035.846-.669.836C961.854,97.833,959.183,97.856,956.511,97.856Z" transform="translate(-14.668 -51.414)" fill="#69bbdf"/>
        <path id="Trazado_633642" data-name="Trazado 633642" d="M946.06,46.886a7.721,7.721,0,1,1,7.762-7.706A7.752,7.752,0,0,1,946.06,46.886Z" transform="translate(-17.133 -22.069)" fill="#69badf"/>
        <path id="Trazado_633643" data-name="Trazado 633643" d="M1049.177,143.32h34.769c-.332,1.417-.666,2.783-.963,4.158-.081.376-.28.462-.607.443-.161-.009-.322,0-.482,0q-15.339,0-30.678.02c-.753,0-1.073-.191-1.206-.936C1049.79,145.781,1049.467,144.577,1049.177,143.32Z" transform="translate(-85.069 -90.665)" fill="#f0a44a"/>
        <path id="Trazado_633644" data-name="Trazado 633644" d="M933.223,164.413c-.864,3.4-1.092,6.843-2.841,9.934-1.849,3.267-3.412,6.7-5.071,10.069-.29.591-.54.751-1.141.363q-1.821-1.176-3.719-2.23c-.562-.312-.585-.616-.342-1.156,1.672-3.719,3.315-7.452,4.971-11.178.833-1.874.934-3.921,1.4-5.881.311-1.309.55-2.637.786-3.963.107-.6.286-.715.792-.313,1.584,1.26,3.187,2.5,4.788,3.735C933.088,163.98,933.316,164.149,933.223,164.413Z" transform="translate(-5.842 -100.784)" fill="#4b7daa"/>
        <path id="Trazado_633645" data-name="Trazado 633645" d="M1069.544,163.158c4.858,0,9.716.03,14.573-.025.978-.011,1.037.295.806,1.084-.279.954-.48,1.932-.676,2.908a.707.707,0,0,1-.829.677q-13.85-.026-27.7,0c-.553,0-.71-.238-.809-.7-.221-1.036-.451-2.072-.734-3.092-.189-.68-.025-.871.7-.867C1059.765,163.173,1064.654,163.158,1069.544,163.158Z" transform="translate(-88.09 -102.814)" fill="#f0a44a"/>
        <path id="Trazado_633646" data-name="Trazado 633646" d="M1072.462,183.145c4.276,0,8.552.009,12.829-.01.635,0,.954.033.7.822a22.415,22.415,0,0,0-.694,3c-.117.67-.416.841-1.086.838-6.977-.028-13.955-.017-20.932-.017-1,0-1.993-.007-2.99,0-.351,0-.583-.036-.674-.472-.255-1.224-.561-2.439-.87-3.651-.16-.626.267-.509.6-.51q4.148-.005,8.3,0Z" transform="translate(-90.914 -115.078)" fill="#f0a44a"/>
        <path id="Trazado_633647" data-name="Trazado 633647" d="M1081.227,220.648a1.542,1.542,0,1,1-1.511-1.548A1.553,1.553,0,0,1,1081.227,220.648Z" transform="translate(-102.83 -137.129)" fill="#e69e47"/>
        <path id="Trazado_633648" data-name="Trazado 633648" d="M1121.161,220.625a1.541,1.541,0,1,1-1.534-1.525A1.554,1.554,0,0,1,1121.161,220.625Z" transform="translate(-127.316 -137.13)" fill="#e69e47"/>
        <path id="Trazado_633649" data-name="Trazado 633649" d="M1094.732,79.1c0,2.315-.021,4.631.014,6.946.009.6-.159.777-.755.75-1.059-.048-2.123-.037-3.183,0-.521.017-.725-.108-.722-.68q.033-7.043,0-14.086c0-.55.156-.721.7-.7,1.06.04,2.125.056,3.183,0,.685-.039.777.247.771.831C1094.716,74.466,1094.732,76.782,1094.732,79.1Z" transform="translate(-110.152 -46.516)" fill="#6abbe0"/>
        <path id="Trazado_633650" data-name="Trazado 633650" d="M1114.7,88.725c0,1.544-.033,3.088.015,4.63.02.649-.195.818-.812.79-1.059-.047-2.123-.035-3.183,0-.49.015-.669-.115-.665-.639q.034-4.775,0-9.55c0-.521.169-.656.663-.642,1.061.032,2.124.043,3.183,0,.613-.027.835.134.815.787C1114.667,85.637,1114.7,87.182,1114.7,88.725Z" transform="translate(-122.396 -53.867)" fill="#f0a44a"/>
        <path id="Trazado_633651" data-name="Trazado 633651" d="M1072.492,103.948c-2.341,0-2.341,0-2.341-2.317s0-2.316,2.341-2.316c2.293,0,2.293,0,2.293,2.268v.1C1074.785,103.948,1074.785,103.948,1072.492,103.948Z" transform="translate(-97.929 -63.684)" fill="#e4444c"/>
        <path id="Trazado_633652" data-name="Trazado 633652" d="M1005.355,68.92a1.541,1.541,0,1,1-1.52-1.538A1.549,1.549,0,0,1,1005.355,68.92Z" transform="translate(-56.31 -44.104)" fill="#da414a"/>
      </g>
    </g>
  </g>
</svg>
