<svg xmlns="http://www.w3.org/2000/svg" width="95" height="95" viewBox="0 0 95 95">
  <g id="Grupo_962206" data-name="Grupo 962206" transform="translate(-232.5 -18476.296)">
    <g id="Grupo_956616" data-name="Grupo 956616" transform="translate(-347.5 1324.787)">
      <g id="Grupo_956612" data-name="Grupo 956612" transform="translate(580 17151.51)">
        <path id="Trazado_626457" data-name="Trazado 626457" d="M47.5,0A47.5,47.5,0,1,1,0,47.5,47.5,47.5,0,0,1,47.5,0Z" fill="#449c6e"/>
      </g>
    </g>
    <g id="Grupo_962205" data-name="Grupo 962205" transform="translate(-352.938 18439.943)">
      <path id="Trazado_633653" data-name="Trazado 633653" d="M679.012,52.007c1.175.263,1.422.561,1.422,1.767q0,30.177,0,60.354c0,5.35-3.892,9.111-9.432,9.128-7.234.023-14.469.006-21.7.006q-30.793,0-61.587,0a8.077,8.077,0,0,1-1.2-.063,1.191,1.191,0,0,1-1.049-1.127,6.232,6.232,0,0,1-.015-.833q0-29.343,0-58.685c0-1.667.314-1.976,2.015-1.976,4.359,0,8.719-.014,13.078.014.661,0,.87-.114.873-.842a15.306,15.306,0,0,1,30.371-2.623A9.621,9.621,0,0,1,632,59.8c-.07.688.21.792.826.791q14.469-.028,28.938,0c.669,0,.882-.127.876-.847-.039-4.481-.02-8.962-.019-13.443,0-1.49.363-1.855,1.854-1.857,2.257,0,4.514-.01,6.771,0,1.08.006,1.372.28,1.6,1.386a1.509,1.509,0,0,1-1.7,1.24h-4.728c-1.2,0-1.2,0-1.2,1.18q0,27.661,0,55.322c0,1.838,0,1.837,1.843,1.838,1.514,0,3.029-.023,4.542.017a9.484,9.484,0,0,1,6.227,2.577v-1.269q0-26.41-.01-52.82C677.824,52.99,678,52.263,679.012,52.007Zm-55.688,62.555c-.194,1.1-.974,1.3-1.926,1.3q-13.311-.01-26.622-.007c-1.539,0-1.911-.392-1.911-1.927q0-22.021,0-44.042c0-1.552.33-1.874,1.922-1.875,2.69,0,5.38-.011,8.07.007.638,0,.968-.039.508-.772a10.928,10.928,0,0,1-1.381-3.321c-.147-.624-.456-.747-1.034-.744-3.958.021-7.916.038-11.873-.01-.864-.011-1.054.242-1.053,1.074q.036,27.676,0,55.353c0,.916.25,1.1,1.125,1.1q40.722-.036,81.444-.024a16.723,16.723,0,0,0,1.85-.106,6.3,6.3,0,0,0,5.372-5.573,6.384,6.384,0,0,0-4.127-6.564c-.584-.2-.684-.041-.677.5.022,1.7.01,3.4.007,5.1,0,1.4-.4,1.819-1.832,1.821-7.483.009-14.965,0-22.448.01a1.614,1.614,0,0,1-1.844-1.3,1.5,1.5,0,0,1,1.8-1.322c.524.033,1.051.006,1.577.006,6.431,0,12.863-.01,19.295.015.673,0,.917-.133.876-.853-.067-1.171-.051-2.349,0-3.522.024-.613-.1-.865-.789-.843-1.7.054-3.4.022-5.1.016-1.548-.006-1.915-.376-1.915-1.912q0-10.292,0-20.584c0-.3.111-.638-.089-.9a2.653,2.653,0,0,0-3.828-.521c1,.988,1.989,1.958,2.963,2.946.84.852.828,1.43-.013,2.3a9.042,9.042,0,0,1-1.121,1.106,3.63,3.63,0,0,0-1.571,3.831,3.065,3.065,0,0,1-1.311,3.223,1.949,1.949,0,0,0-.779,1.934,2.274,2.274,0,0,1-.557,2.053c-1.41,1.343-2.756,2.752-4.145,4.117a1.352,1.352,0,0,1-2.234-.033c-1.035-1.02-2.042-2.068-3.089-3.076a1.874,1.874,0,0,1-.61-1.479c.021-1.514,0-3.029.013-4.543a1.331,1.331,0,0,0-.4-1.076c-1.111-1.075-2.2-2.171-3.281-3.277a.944.944,0,0,0-.9-.344c-2.685.543-4.636-.6-6.188-2.673a.651.651,0,0,0-.131-.131,3.449,3.449,0,0,1-1.177-2.737,7.3,7.3,0,0,1,2.8-6.845,16.565,16.565,0,0,1,5.734-3.716,2.1,2.1,0,0,1,2.624.6c.389.463.778,1.18,1.347,1.2a17.548,17.548,0,0,0,5.163-.113,39.269,39.269,0,0,0,3.822-1.389.651.651,0,0,0,.522-.643c.084-1.3.048-2.519-1.211-3.335a3.35,3.35,0,0,1-.786-.783,1.9,1.9,0,0,0-1.7-.694c-7.607.021-15.213.043-22.819-.014a4.118,4.118,0,0,0-3.556,1.258,3.085,3.085,0,0,1-.894.654,1.743,1.743,0,0,0-.855,1.133,52.706,52.706,0,0,1-2.381,6.212c-.343.766-.721,1.516-1.126,2.364,1.026-.146,1.912-.261,2.794-.4a1.556,1.556,0,0,1,1.6.671q1.659,2.173,3.368,4.308A2.027,2.027,0,0,1,629.1,88.1c-.03,2.163-.028,4.327-.053,6.49-.011.983-.368,1.393-1.359,1.52-1.992.255-3.985.505-5.983.7a2.238,2.238,0,0,0-1.859.977,30.134,30.134,0,0,1-1.938,2.483,2.755,2.755,0,0,0-.622,1.4c-.311,2.013-.67,4.018-1.006,6.027a1.281,1.281,0,0,1-1.4,1.189c-.8,0-1.608.014-2.411,0-1.021-.017-1.437-.4-1.586-1.422-.044-.305-.089-.611-.12-.918-.367-3.726-1.537-7.4-.647-11.2a2.265,2.265,0,0,0-.586-1.988c-1.48-2.148-3.644-4.225-2.395-7.318a3,3,0,0,0,.064-.457.451.451,0,0,0-.248-.537c-2.374-1.365-4.448-3.572-7.617-2.708a1.456,1.456,0,0,1-.277.011,1.4,1.4,0,0,1-1.547-1.049c-.37-1.046-.749-2.089-1.112-3.137a1.588,1.588,0,0,0-.933-1.075V78q0,17.107-.022,34.214c0,.868.246,1.043,1.065,1.04,8.318-.03,16.636-.019,24.953-.017C622.766,113.243,623,113.418,623.325,114.563Zm-6.643-30.212c.154-.248.268-.42.37-.6a57.7,57.7,0,0,0,4.909-11.266,3.521,3.521,0,0,1,1.566-2.045,12.174,12.174,0,0,0,5.854-10.083,12.7,12.7,0,1,0-19.532,10.062,3.456,3.456,0,0,1,1.6,2.126A59.694,59.694,0,0,0,616.681,84.351Zm40.851-13.733-.225.2c1.835,1.007,1.435,2.673,1.451,4.215.005.494-.018.989,0,1.482a1.376,1.376,0,0,1-1.006,1.481c-.348.127-.7.253-1.035.4a18.953,18.953,0,0,1-9.138,1.829c-1.438-.1-2.661-.236-3.545-1.481-.161-.227-.376-.585-.744-.415a8.49,8.49,0,0,0-2.657,1.247c-1.15,1.121-2.272,2.271-3.416,3.4a1.226,1.226,0,0,0-.408.881c-.134,2.935-.137,2.929,1.984,4.959a1.063,1.063,0,0,0,.973.4c2.684-.541,4.633.6,6.183,2.674a1.182,1.182,0,0,0,.262.261,5.98,5.98,0,0,1,2.63,6.392,3.857,3.857,0,0,0,1.657,3.993c.445.341.673.5,1.106.016.7-.779,1.461-1.51,2.226-2.229a1.206,1.206,0,0,0,.442-1.143A3.275,3.275,0,0,1,655.7,95.82a1.411,1.411,0,0,0,.656-1.426,5.351,5.351,0,0,1,2.3-5.7c.52-.36.344-.634-.033-1-1.091-1.048-2.16-2.122-3.215-3.208-.944-.973-.7-1.983.576-2.4,1.2-.395,2.427-.714,3.626-1.115,1.048-.35,2.068-.708,3.014.614,0-3.675,0-7.064.006-10.452,0-.413-.181-.527-.559-.524C660.556,70.625,659.044,70.618,657.532,70.618Zm-56.711,0c-1.545,0-3.09-.006-4.635.006-.249,0-.56-.121-.705.254a3.788,3.788,0,0,0,.632,3,9.235,9.235,0,0,1,3.347,5.17c.132.668.54.7,1.087.608a5.481,5.481,0,0,1,4.429,1.062c1.206.9,2.548,1.627,3.83,2.431,1.2.752,1.416,1.061,1.029,2.431a5.1,5.1,0,0,0,.929,5.063c.285.335.459.631.987.66.967.052,1.407.65,1.312,1.633-.065.675-.21,1.342-.269,2.016a20.851,20.851,0,0,0-.41,4.409c.263,2.111.586,4.215.887,6.321.033.227-.051.559.3.581.4.025.377-.343.42-.6.205-1.216.361-2.441.6-3.65a5.579,5.579,0,0,1,.771-2.721c1.108-1.367,2.185-2.76,3.265-4.149a1.824,1.824,0,0,1,1.327-.736c1.411-.148,2.817-.344,4.227-.506.73-.084,1.676.094,2.12-.377s.049-1.423.165-2.146a6.749,6.749,0,0,0-1.9-5.693,2.872,2.872,0,0,0-2.863-1.069,3.92,3.92,0,0,0-3.632,2.516c-.762,1.588-1.9,1.552-2.777.026-.908-1.577-1.76-3.187-2.638-4.781-.158-.287-.261-.709-.719-.532a2.015,2.015,0,0,1-1.965-.492,24.093,24.093,0,0,0-2.725-1.749,4.324,4.324,0,0,1-2.092-2.9,1.25,1.25,0,0,1,1.067-1.771c.818-.15,1.649-.235,2.474-.35.234-.033.58,0,.481-.375a2.49,2.49,0,0,0-.707-1.556c-2.613-2.028-2.609-2.033-5.986-2.033ZM646.2,68.009c5.162,0,10.325-.018,15.487.019.794.006,1-.233.953-.986a27.78,27.78,0,0,1,0-3.057c.03-.63-.139-.844-.808-.842q-14.745.031-29.49,0c-.516,0-.772.135-.9.669a11.077,11.077,0,0,1-1.36,3.329c-.483.778-.239.879.539.875C635.814,68,641.007,68.009,646.2,68.009ZM610.864,78.844c-.44-1.934-.44-1.934-2.32-1.546Z" fill="#242223"/>
      <path id="Trazado_633654" data-name="Trazado 633654" d="M813.919,54.365c-1.012.256-1.188.983-1.187,1.911q.021,26.41.01,52.82v1.269a9.484,9.484,0,0,0-6.227-2.577c-1.513-.04-3.028-.015-4.542-.017-1.843,0-1.843,0-1.843-1.838q0-27.661,0-55.322c0-1.179,0-1.18,1.2-1.18h4.728a1.509,1.509,0,0,0,1.7-1.24A7.578,7.578,0,0,1,813.919,54.365Z" transform="translate(-134.906 -2.357)" fill="#5269ca"/>
      <path id="Trazado_633655" data-name="Trazado 633655" d="M640.24,158.711c-.323-1.145-.559-1.32-1.865-1.321-8.318,0-16.636-.013-24.953.017-.819,0-1.067-.172-1.065-1.04q.05-17.107.022-34.214v-.913a1.588,1.588,0,0,1,.933,1.075c.363,1.048.742,2.091,1.112,3.137a1.4,1.4,0,0,0,1.547,1.049,1.455,1.455,0,0,0,.277-.011c3.169-.864,5.243,1.344,7.617,2.708a.451.451,0,0,1,.248.537,3,3,0,0,1-.064.457c-1.249,3.093.915,5.17,2.395,7.318a2.265,2.265,0,0,1,.586,1.988c-.891,3.8.279,7.479.647,11.2.03.307.075.613.12.918.148,1.023.565,1.4,1.586,1.422.8.013,1.608,0,2.411,0a1.281,1.281,0,0,0,1.4-1.189c.336-2.009.7-4.014,1.006-6.027a2.755,2.755,0,0,1,.622-1.4,30.133,30.133,0,0,0,1.938-2.483,2.238,2.238,0,0,1,1.859-.977c2-.2,3.991-.449,5.983-.7.992-.127,1.348-.537,1.359-1.52.025-2.163.023-4.327.053-6.49a2.027,2.027,0,0,0-.477-1.356q-1.7-2.14-3.368-4.308a1.556,1.556,0,0,0-1.6-.671c-.882.14-1.768.255-2.794.4.405-.848.782-1.6,1.126-2.364a52.707,52.707,0,0,0,2.381-6.212,1.743,1.743,0,0,1,.855-1.133,3.085,3.085,0,0,0,.894-.654,4.118,4.118,0,0,1,3.556-1.258c7.606.057,15.213.035,22.819.014a1.9,1.9,0,0,1,1.7.694,3.35,3.35,0,0,0,.786.783c1.259.815,1.295,2.034,1.211,3.335a.651.651,0,0,1-.522.643,39.271,39.271,0,0,1-3.822,1.389,17.547,17.547,0,0,1-5.163.113c-.569-.025-.958-.742-1.347-1.2a2.1,2.1,0,0,0-2.624-.6,16.565,16.565,0,0,0-5.734,3.716,7.3,7.3,0,0,0-2.8,6.845,3.449,3.449,0,0,0,1.177,2.737.651.651,0,0,1,.131.131c1.553,2.071,3.5,3.216,6.188,2.673a.944.944,0,0,1,.9.344c1.08,1.106,2.17,2.2,3.281,3.277a1.331,1.331,0,0,1,.4,1.076c-.015,1.514.009,3.029-.013,4.543a1.874,1.874,0,0,0,.61,1.479c1.046,1.008,2.054,2.056,3.089,3.076a1.352,1.352,0,0,0,2.234.033c1.389-1.365,2.735-2.774,4.145-4.117a2.274,2.274,0,0,0,.557-2.053,1.949,1.949,0,0,1,.779-1.934,3.065,3.065,0,0,0,1.311-3.223,3.63,3.63,0,0,1,1.571-3.831,9.044,9.044,0,0,0,1.121-1.106c.842-.869.853-1.447.013-2.3-.974-.989-1.968-1.958-2.963-2.946a2.653,2.653,0,0,1,3.828.521c.2.261.089.6.089.9q.008,10.292,0,20.584c0,1.536.367,1.906,1.915,1.912,1.7.006,3.4.038,5.1-.016.691-.022.812.23.789.843-.046,1.173-.062,2.351,0,3.522.041.72-.2.855-.876.853-6.431-.026-12.863-.015-19.295-.015-.526,0-1.053.027-1.577-.006a1.5,1.5,0,0,0-1.8,1.323l-8.473.055c-.233-1.11-.5-1.351-1.609-1.364s-2.226.019-3.338-.009a1.424,1.424,0,0,0-1.677,1.325Z" transform="translate(-16.916 -44.148)" fill="#dfe9f6"/>
      <path id="Trazado_633656" data-name="Trazado 633656" d="M627.691,146.232h8.466a1.466,1.466,0,0,0,1.635,1.293c1.139,0,2.278.007,3.417,0a1.412,1.412,0,0,0,1.572-1.241l8.473-.055a1.614,1.614,0,0,0,1.844,1.3c7.483-.011,14.965,0,22.448-.01,1.429,0,1.829-.422,1.832-1.821,0-1.7.015-3.4-.007-5.1-.007-.544.093-.7.677-.5a6.384,6.384,0,0,1,4.127,6.564,6.3,6.3,0,0,1-5.372,5.573,16.723,16.723,0,0,1-1.85.106q-40.722.007-81.444.024c-.875,0-1.126-.182-1.125-1.1q.045-27.677,0-55.353c0-.832.19-1.085,1.053-1.074,3.957.049,7.915.032,11.873.01.578,0,.887.121,1.034.744a10.928,10.928,0,0,0,1.381,3.321c.461.733.131.776-.508.772-2.69-.018-5.38-.009-8.07-.007-1.592,0-1.922.323-1.922,1.875q0,22.021,0,44.042c0,1.536.372,1.926,1.911,1.927q13.311.008,26.622.007C626.717,147.529,627.5,147.329,627.691,146.232Z" transform="translate(-4.366 -31.669)" fill="#4da5f4"/>
      <path id="Trazado_633657" data-name="Trazado 633657" d="M648.051,88.815a59.69,59.69,0,0,1-5.237-11.806,3.456,3.456,0,0,0-1.6-2.126A12.682,12.682,0,1,1,660.75,64.821,12.174,12.174,0,0,1,654.9,74.9a3.521,3.521,0,0,0-1.566,2.045,57.7,57.7,0,0,1-4.909,11.266C648.319,88.4,648.205,88.567,648.051,88.815Zm7.211-24.51a7.183,7.183,0,0,0-7.124-7.328,7.228,7.228,0,0,0-.186,14.455A7.147,7.147,0,0,0,655.262,64.306Z" transform="translate(-31.37 -4.464)" fill="#5168c9"/>
      <path id="Trazado_633658" data-name="Trazado 633658" d="M744.32,114.878c1.512,0,3.024.006,4.536,0,.378,0,.56.111.559.524-.01,3.389-.006,6.777-.006,10.452-.947-1.322-1.966-.964-3.014-.614-1.2.4-2.425.72-3.626,1.115-1.28.421-1.52,1.431-.576,2.4,1.055,1.086,2.123,2.159,3.215,3.208.377.362.553.635.033,1a5.351,5.351,0,0,0-2.3,5.7,1.411,1.411,0,0,1-.656,1.426,3.275,3.275,0,0,0-1.421,3.366,1.206,1.206,0,0,1-.442,1.143c-.765.719-1.524,1.45-2.226,2.229-.433.481-.662.324-1.106-.016a3.857,3.857,0,0,1-1.657-3.993,5.98,5.98,0,0,0-2.63-6.392,1.179,1.179,0,0,1-.262-.261c-1.55-2.074-3.5-3.215-6.184-2.674a1.063,1.063,0,0,1-.973-.4c-2.121-2.03-2.118-2.025-1.984-4.959a1.226,1.226,0,0,1,.408-.881c1.143-1.129,2.265-2.279,3.416-3.4a8.489,8.489,0,0,1,2.657-1.247c.368-.17.583.188.744.415.884,1.244,2.107,1.38,3.545,1.481a18.953,18.953,0,0,0,9.138-1.829c.338-.149.687-.276,1.035-.4a1.376,1.376,0,0,0,1.006-1.481c-.022-.494,0-.989,0-1.482-.016-1.542.384-3.207-1.451-4.215Z" transform="translate(-86.788 -44.26)" fill="#74c492"/>
      <path id="Trazado_633659" data-name="Trazado 633659" d="M617.644,114.862h1.669c3.377,0,3.373.005,5.986,2.033a2.49,2.49,0,0,1,.707,1.556c.1.374-.247.343-.481.375-.825.116-1.655.2-2.474.35a1.25,1.25,0,0,0-1.067,1.771,4.324,4.324,0,0,0,2.092,2.9A24.094,24.094,0,0,1,626.8,125.6a2.015,2.015,0,0,0,1.965.492c.458-.177.561.245.719.532.879,1.594,1.73,3.2,2.638,4.781.879,1.526,2.015,1.562,2.777-.026a3.92,3.92,0,0,1,3.632-2.516,2.872,2.872,0,0,1,2.863,1.069,6.749,6.749,0,0,1,1.9,5.693c-.116.723.29,1.664-.165,2.146s-1.39.294-2.12.377c-1.41.162-2.815.357-4.227.506a1.824,1.824,0,0,0-1.327.736c-1.08,1.39-2.157,2.782-3.265,4.149a5.579,5.579,0,0,0-.771,2.721c-.24,1.209-.4,2.434-.6,3.65-.043.255-.017.622-.42.6-.353-.022-.269-.354-.3-.581-.3-2.106-.624-4.209-.887-6.321a20.851,20.851,0,0,1,.41-4.409c.059-.675.2-1.342.269-2.016.1-.983-.345-1.581-1.312-1.633-.528-.029-.7-.325-.987-.66a5.1,5.1,0,0,1-.929-5.063c.387-1.37.17-1.679-1.029-2.431-1.282-.8-2.624-1.526-3.83-2.431a5.481,5.481,0,0,0-4.429-1.062c-.548.094-.955.06-1.087-.608a9.235,9.235,0,0,0-3.347-5.17,3.788,3.788,0,0,1-.632-3c.145-.375.456-.252.705-.254C614.554,114.855,616.1,114.862,617.644,114.862Z" transform="translate(-16.823 -44.245)" fill="#74c492"/>
      <path id="Trazado_633660" data-name="Trazado 633660" d="M721.268,99.636c-5.193,0-10.387-.01-15.58.012-.778,0-1.022-.1-.539-.875a11.077,11.077,0,0,0,1.361-3.329c.125-.535.38-.67.9-.669q14.745.02,29.49,0c.669,0,.838.212.808.842a27.781,27.781,0,0,0,0,3.057c.047.753-.158.992-.952.986C731.593,99.618,726.431,99.636,721.268,99.636Z" transform="translate(-75.068 -31.627)" fill="#4da4f2"/>
      <path id="Trazado_633661" data-name="Trazado 633661" d="M649.933,134.062l-2.32-1.546C649.494,132.128,649.494,132.128,649.933,134.062Z" transform="translate(-39.07 -55.218)" fill="#d0d9e5"/>
      <path id="Trazado_633662" data-name="Trazado 633662" d="M716.794,230.942a1.412,1.412,0,0,1-1.572,1.241c-1.139.01-2.278,0-3.417,0a1.466,1.466,0,0,1-1.635-1.293,1.425,1.425,0,0,1,1.677-1.326c1.112.028,2.225,0,3.338.009S716.561,229.832,716.794,230.942Z" transform="translate(-78.378 -116.33)" fill="#242327"/>
      <path id="Trazado_633663" data-name="Trazado 633663" d="M664.516,73.495a7.147,7.147,0,0,1-7.31,7.127,7.228,7.228,0,0,1,.186-14.455A7.183,7.183,0,0,1,664.516,73.495Zm-2.59-.069a4.61,4.61,0,1,0-4.676,4.6A4.615,4.615,0,0,0,661.926,73.426Z" transform="translate(-40.624 -13.654)" fill="#242122"/>
      <path id="Trazado_633664" data-name="Trazado 633664" d="M666.357,77.824a4.61,4.61,0,1,1-4.626-4.658A4.589,4.589,0,0,1,666.357,77.824Z" transform="translate(-45.054 -18.052)" fill="#f7e170"/>
    </g>
  </g>
</svg>
