<svg xmlns="http://www.w3.org/2000/svg" width="60" height="60" viewBox="0 0 60 60">
  <g id="Grupo_963171" data-name="Grupo 963171" transform="translate(-410 -1150)">
    <rect id="Rectángulo_305522" data-name="Rectángulo 305522" width="60" height="60" transform="translate(410 1150)" fill="none"/>
    <g id="Grupo_963170" data-name="Grupo 963170" transform="translate(-384.462 930.196)">
      <path id="Trazado_634697" data-name="Trazado 634697" d="M824.433,271.576h-20.8c-.779,0-.952-.171-.952-.941V241.98c0-.771.17-.939.951-.939,2.807,0,5.613-.006,8.42.007.314,0,.4-.069.4-.393q-.022-3.869,0-7.738c0-.3-.088-.374-.38-.374-1.244,0-1.255-.018-1.255-1.259,0-.822,0-1.644,0-2.466,0-.574.223-.786.8-.786q12.843,0,25.686,0c.572,0,.788.218.791.8q.008,1.467,0,2.934c0,.581-.213.779-.8.784-.827.007-.827.007-.827.849,0,2.409.006,4.819-.008,7.228,0,.328.074.424.415.422,2.807-.015,5.613-.009,8.42-.008.756,0,.935.175.935.912q0,14.349,0,28.7c0,.743-.182.925-.926.925Zm15.682-27.31c1.531.005,3.061.007,4.592.02.207,0,.266-.062.26-.264q-.02-.722,0-1.445c.006-.2-.053-.266-.26-.264-1.531.013-3.061.014-4.592.019-1.118,0-2.235,0-3.353-.019-.219,0-.3.059-.291.285.016.466.016.934,0,1.4-.007.226.071.29.29.287C837.88,244.272,839,244.271,840.115,244.266Zm-32.579,0c1.542.006,3.085.008,4.627.021.22,0,.3-.061.29-.287q-.023-.7,0-1.4c.008-.226-.07-.288-.289-.286-1.542.013-3.085.015-4.627.02-1.115-.005-2.229-.006-3.344-.02-.192,0-.238.067-.234.245q.015.74,0,1.481c0,.178.042.248.234.246C805.307,244.272,806.422,244.271,807.536,244.265Zm14.714,16.256c.735.007,1.469.018,2.2.019,1.838,0,3.677-.007,5.515.008.3,0,.384-.083.368-.376-.028-.507-.016-1.017-.021-1.525.012-.055-.009-.077-.065-.064h-8c-1.133,0-2.267,0-3.4-.018-.209,0-.265.068-.26.267q.018.722,0,1.445c0,.2.051.271.26.269C819.984,260.529,821.117,260.527,822.25,260.521ZM815.7,231.256c.169.006.339.017.508.017h13.114c.6,0,.747.11.915.664-.106.491-.428.62-.9.619-5.043-.011-10.086,0-15.129-.015-.376,0-.492.078-.49.477q.022,8.328.009,16.655a2.521,2.521,0,0,1-.022.465.592.592,0,0,1-.536.522c-.43.056-.713-.224-.715-.73-.006-1.289-.018-2.578.008-3.866.008-.394-.068-.523-.5-.518-2.323.025-4.646.012-6.97.012-1.073,0-1.073,0-1.017,1.1,0,.1-.013.2-.013.3q0,11.481,0,22.962a.854.854,0,0,1,0,.128c-.031.2.052.262.256.261q3.572-.017,7.144-.018a4.436,4.436,0,0,1,.594.018c.414.066.505-.093.5-.5q-.023-8.29-.01-16.581c0-.156-.005-.312.009-.467a.579.579,0,0,1,.54-.562.572.572,0,0,1,.678.443,2.057,2.057,0,0,1,.048.546q0,8.29,0,16.581a2.777,2.777,0,0,1,0,.3c-.02.182.048.247.236.242.552-.015,1.1-.013,1.657-.018.964,0,1.928-.006,2.891.022.343.01.447-.063.443-.428-.019-2.4-.01-4.79-.01-7.186,0-.858,0-.858-.838-.877-.572-.013-.782-.227-.784-.81q0-1.445,0-2.891c0-.6.219-.824.816-.824q6.337,0,12.674,0c.57,0,.794.229.8.8,0,.808,0,1.616,0,2.424,0,1.268-.015,1.291-1.272,1.295-.272,0-.359.063-.357.35q.017,3.912,0,7.823c0,.272.078.324.332.322,1.474-.012,2.949-.022,4.423,0,.393.007.476-.1.476-.483q-.016-17.859-.01-35.717c0-.155-.012-.311-.019-.466.007-.267,0-.536.024-.8s-.09-.3-.318-.3c-.776.012-1.553-.013-2.329.011a.74.74,0,0,1-.862-.618c.162-.542.316-.663.873-.664,1.3,0,2.607-.009,3.911.005.274,0,.372-.066.354-.35a7.63,7.63,0,0,1,0-1.146c.033-.38-.081-.486-.475-.486q-10.117.021-20.233.011c-.141,0-.283.009-.424.013-1.115,0-2.231,0-3.346-.018-.209,0-.266.065-.261.266q.019.72,0,1.44c0,.2.053.271.261.268C813.471,231.263,814.586,231.262,815.7,231.256Zm6.464,39.031c.113,0,.226.014.339.012.424-.005,1,.15,1.234-.064.273-.246.077-.828.084-1.263.013-.822-.01-1.644.011-2.465a.625.625,0,0,1,.948-.581.71.71,0,0,1,.318.695c0,1.1.011,2.21-.008,3.315-.005.3.089.376.381.37.977-.018,1.955-.014,2.933,0,.242,0,.309-.066.308-.308q-.013-3.931,0-7.863c0-.228-.046-.327-.3-.323q-1.509.02-3.018,0c-.264,0-.3.111-.3.33q.016.722,0,1.445c-.009.459-.263.748-.636.747s-.623-.289-.632-.751c-.009-.5-.007-.992,0-1.487,0-.187-.042-.29-.259-.282-.467.017-.934.016-1.4.023-.565-.007-1.131-.007-1.7-.023-.214-.007-.258.087-.258.279q.007,3.969,0,7.938c0,.239.093.279.3.274C821.062,270.289,821.614,270.292,822.165,270.287Zm22.784-23.629a5.516,5.516,0,0,1,.019-.678c.053-.367-.1-.433-.44-.431q-3.8.023-7.605,0c-.39,0-.457.11-.456.471q.016,11.618.008,23.236c0,1.089,0,1.089,1.088,1.033,2.31,0,4.621,0,6.931.023.387,0,.478-.1.478-.479q-.018-11.374-.01-22.749C844.962,246.941,844.954,246.8,844.95,246.658Z" transform="translate(0)" fill="#020202"/>
      <path id="Trazado_634698" data-name="Trazado 634698" d="M898.067,260.927c.007.155.019.31.019.466q0,17.858.01,35.717c0,.379-.082.49-.476.483-1.474-.026-2.949-.017-4.423,0-.254,0-.333-.05-.332-.322q.018-3.912,0-7.823c0-.287.085-.349.357-.35,1.257,0,1.272-.027,1.272-1.295,0-.808,0-1.616,0-2.424,0-.572-.227-.8-.8-.8q-6.337,0-12.674,0c-.6,0-.814.222-.815.824q0,1.446,0,2.891c0,.583.212.8.784.81.838.019.838.019.838.877,0,2.4-.009,4.791.01,7.186,0,.366-.1.439-.444.428-.963-.029-1.927-.018-2.891-.022q0-7.55,0-15.1c0-.15-.048-.313.069-.448a.715.715,0,0,0,.8.591c2.069-.005,4.137,0,6.206,0,.542,0,.77-.232.771-.782q.007-3.1,0-6.2c0-.585-.212-.8-.794-.8-2.054,0-4.109,0-6.164,0a.728.728,0,0,0-.824.57c-.118-.134-.07-.3-.07-.448,0-4.5,0-9.009-.012-13.513,0-.426.14-.505.532-.5Q888.546,260.935,898.067,260.927ZM887.352,272.84c.482,0,.964,0,1.445,0,.605,0,.817-.209.822-.816.006-.708.012-1.417,0-2.125-.005-.242.066-.311.306-.305.722.015,1.445.009,2.168,0,.541,0,.778-.238.781-.777q.009-1.488,0-2.975c0-.545-.228-.767-.78-.772-.708-.007-1.418-.016-2.125.005-.292.009-.357-.091-.35-.363.017-.694.01-1.388,0-2.082-.005-.606-.216-.816-.827-.819q-1.446-.009-2.891,0c-.608,0-.816.216-.821.826-.005.708-.01,1.417,0,2.125,0,.242-.07.316-.313.312-.737-.015-1.474-.012-2.211,0a.645.645,0,0,0-.73.734q-.011,1.509,0,3.018c0,.537.241.767.786.771.708.005,1.418.016,2.125-.006.289-.009.35.087.344.356-.018.722-.016,1.445,0,2.167.009.5.241.719.739.724S886.842,272.84,887.352,272.84Zm8.763,5.9c0-1.034,0-2.068,0-3.1,0-.588-.209-.814-.779-.816q-3.1-.008-6.206,0c-.565,0-.784.214-.785.765q-.008,3.123,0,6.247c0,.548.229.774.777.775q3.1.006,6.206,0c.566,0,.786-.232.787-.809C896.117,280.777,896.115,279.757,896.115,278.737Z" transform="translate(-62.887 -27.281)" fill="#eaf4fc"/>
      <path id="Trazado_634699" data-name="Trazado 634699" d="M841.366,252.659q-9.521,0-19.041-.009c-.392,0-.534.078-.532.5.016,4.5.009,9.009.012,13.513,0,.151-.049.314.07.448q0,3.317,0,6.635c-.117.135-.069.3-.069.448q0,7.55,0,15.1c-.553,0-1.105,0-1.657.018-.188.005-.255-.06-.236-.242a2.777,2.777,0,0,0,0-.3q0-8.29,0-16.581a2.062,2.062,0,0,0-.048-.546.572.572,0,0,0-.678-.443.579.579,0,0,0-.54.562c-.014.155-.009.311-.009.467q0,8.29.01,16.581c0,.408-.09.567-.5.5a4.432,4.432,0,0,0-.594-.018q0-11.578.008-23.156c0-.364-.082-.486-.468-.483-2.309.019-4.618.01-6.927.01-.056-1.1-.056-1.1,1.017-1.1,2.323,0,4.647.013,6.97-.012.429,0,.5.124.5.518-.026,1.288-.013,2.577-.008,3.866,0,.506.285.786.715.73a.592.592,0,0,0,.536-.522,2.516,2.516,0,0,0,.022-.465q0-8.328-.009-16.655c0-.4.114-.478.49-.477,5.043.013,10.086,0,15.129.015.475,0,.8-.128.9-.619h1.457a.74.74,0,0,0,.862.618c.776-.024,1.553,0,2.329-.011.228,0,.341.042.318.3S841.373,252.392,841.366,252.659Z" transform="translate(-6.187 -19.014)" fill="#d9e8f9"/>
      <path id="Trazado_634700" data-name="Trazado 634700" d="M810.153,337.266c2.309,0,4.618.009,6.927-.01.386,0,.468.119.468.483q-.015,11.578-.008,23.156-3.572.007-7.144.018c-.2,0-.288-.057-.256-.261a.87.87,0,0,0,0-.127q0-11.481,0-22.962C810.14,337.464,810.148,337.365,810.153,337.266Zm6.49,14.5c0-1.006,0-2.011,0-3.017,0-.638-.211-.848-.833-.849q-1.424,0-2.848,0c-.63,0-.852.215-.852.835q0,3.06,0,6.119c0,.6.219.825.817.829.949.007,1.9,0,2.848,0,.669,0,.866-.2.869-.858C816.646,353.806,816.643,352.786,816.643,351.766Zm0-9.724c0-1.034.005-2.068,0-3.1,0-.581-.218-.791-.8-.795q-1.466-.008-2.933,0c-.57,0-.794.232-.8.809q-.005,3.081,0,6.162c0,.59.233.815.831.817q1.424.006,2.848,0c.645,0,.852-.214.854-.875C816.645,344.053,816.643,343.047,816.643,342.042Z" transform="translate(-6.178 -90.608)" fill="#eaf4fb"/>
      <path id="Trazado_634701" data-name="Trazado 634701" d="M1014.664,337.264c0,.141.013.283.013.424q0,11.374.01,22.749c0,.384-.091.483-.478.479-2.31-.024-4.621-.019-6.931-.023q0-11.579-.009-23.157c0-.365.083-.486.468-.482C1010.046,337.272,1012.355,337.264,1014.664,337.264Zm-1.956,14.5c0-1.02,0-2.04,0-3.059,0-.572-.232-.8-.8-.805-.963,0-1.927,0-2.89,0-.63,0-.844.208-.845.836q-.005,3.059,0,6.119c0,.632.2.826.854.829q1.4.006,2.805,0c.675,0,.873-.21.874-.9Q1012.711,353.272,1012.709,351.763Zm-4.534-9.694c0,1.02,0,2.04,0,3.06,0,.576.227.8.8.8q1.466.008,2.933,0c.565,0,.8-.237.8-.8q.006-3.081,0-6.162c0-.6-.226-.819-.825-.823q-1.445-.007-2.89,0c-.608,0-.814.211-.817.824C1008.171,340,1008.174,341.035,1008.175,342.069Z" transform="translate(-169.715 -90.606)" fill="#eaf4fb"/>
      <path id="Trazado_634702" data-name="Trazado 634702" d="M916.983,426.249c.467-.006.934-.005,1.4-.023.217-.008.262.094.259.282-.007.5-.009.992,0,1.487.009.462.26.75.632.751s.627-.288.636-.747q.014-.722,0-1.445c0-.219.034-.334.3-.33q1.509.021,3.018,0c.255,0,.3.1.3.324q-.01,3.931,0,7.862c0,.242-.066.312-.308.308-.977-.013-1.956-.017-2.933,0-.292.005-.386-.066-.381-.37.019-1.1.006-2.21.008-3.315a.71.71,0,0,0-.318-.695.625.625,0,0,0-.947.581c-.021.821,0,1.643-.011,2.465-.007.435.189,1.016-.084,1.263-.237.214-.81.059-1.234.064-.113,0-.226-.008-.339-.012Q916.981,430.474,916.983,426.249Z" transform="translate(-94.815 -164.412)" fill="#95c5f5"/>
      <path id="Trazado_634703" data-name="Trazado 634703" d="M895.046,238.1h-1.457c-.168-.554-.316-.664-.915-.664H879.56c-.169,0-.339-.011-.508-.017q0-.967,0-1.934c.141,0,.283-.013.424-.013q10.117,0,20.233-.011c.395,0,.509.105.475.486a7.638,7.638,0,0,0,0,1.146c.018.283-.08.353-.354.35-1.3-.014-2.607-.008-3.911-.005C895.362,237.441,895.209,237.562,895.046,238.1Z" transform="translate(-63.351 -6.165)" fill="#f8daab"/>
      <path id="Trazado_634704" data-name="Trazado 634704" d="M1009.373,331.908c-2.309,0-4.618.008-6.927-.011-.385,0-.469.118-.468.482q.016,11.578.009,23.157c-1.088.057-1.088.057-1.088-1.033q0-11.618-.008-23.236c0-.361.066-.474.456-.471q3.8.031,7.606,0c.343,0,.493.064.44.431A5.468,5.468,0,0,0,1009.373,331.908Z" transform="translate(-164.423 -85.25)" fill="#d6e5f6"/>
      <path id="Trazado_634705" data-name="Trazado 634705" d="M907.474,426.258q0,4.225,0,8.45c-.552,0-1.1,0-1.655.017-.206.005-.3-.035-.3-.274q.012-3.969,0-7.938c0-.192.044-.285.258-.279C906.342,426.251,906.908,426.251,907.474,426.258Z" transform="translate(-85.306 -164.421)" fill="#73b3f5"/>
      <path id="Trazado_634706" data-name="Trazado 634706" d="M925.539,407.34c0,.509-.007,1.018.021,1.525.016.293-.065.379-.368.376-1.838-.015-3.676-.006-5.515-.008-.735,0-1.469-.012-2.2-.019q0-.969,0-1.939h8Z" transform="translate(-95.225 -148.693)" fill="#f8daab"/>
      <path id="Trazado_634707" data-name="Trazado 634707" d="M831.147,311.845c1.542-.005,3.085-.007,4.627-.02.22,0,.3.059.289.286q-.024.7,0,1.4c.008.226-.07.288-.29.286-1.542-.013-3.085-.016-4.627-.021Q831.147,312.811,831.147,311.845Z" transform="translate(-23.611 -69.512)" fill="#f8daab"/>
      <path id="Trazado_634708" data-name="Trazado 634708" d="M1022.294,311.843c1.531,0,3.061-.006,4.592-.019.207,0,.266.062.26.264q-.02.722,0,1.445c.005.2-.054.266-.26.264-1.531-.013-3.061-.015-4.592-.02Q1022.294,312.81,1022.294,311.843Z" transform="translate(-182.179 -69.511)" fill="#f8daab"/>
      <path id="Trazado_634709" data-name="Trazado 634709" d="M1004.561,311.844q0,.967,0,1.934c-1.118.005-2.235.006-3.353.02-.219,0-.3-.061-.29-.287.015-.466.016-.934,0-1.4-.008-.227.072-.288.29-.285C1002.325,311.839,1003.443,311.839,1004.561,311.844Z" transform="translate(-164.446 -69.512)" fill="#f6ce8e"/>
      <path id="Trazado_634710" data-name="Trazado 634710" d="M899.668,407.186q0,.97,0,1.939c-1.133.006-2.266.009-3.4.024-.209,0-.265-.07-.26-.269q.018-.722,0-1.445c0-.2.051-.27.26-.267C897.4,407.181,898.535,407.181,899.668,407.186Z" transform="translate(-77.417 -148.604)" fill="#f6ce8e"/>
      <path id="Trazado_634711" data-name="Trazado 634711" d="M861.5,235.514q0,.967,0,1.934c-1.115.006-2.23.007-3.345.021-.208,0-.266-.07-.261-.268.011-.48.012-.96,0-1.44-.005-.2.052-.268.261-.266C859.267,235.51,860.382,235.509,861.5,235.514Z" transform="translate(-45.796 -6.192)" fill="#f6ce8e"/>
      <path id="Trazado_634712" data-name="Trazado 634712" d="M813.734,311.846q0,.966,0,1.932c-1.114.006-2.229.007-3.343.021-.192,0-.238-.068-.234-.246q.015-.741,0-1.481c0-.178.042-.247.234-.245C811.5,311.84,812.619,311.841,813.734,311.846Z" transform="translate(-6.198 -69.513)" fill="#f6ce8e"/>
      <path id="Trazado_634713" data-name="Trazado 634713" d="M964.478,407.323l-.065-.064C964.469,407.246,964.49,407.268,964.478,407.323Z" transform="translate(-134.163 -148.677)" fill="#f6ce8e"/>
      <path id="Trazado_634714" data-name="Trazado 634714" d="M903.567,277.18c-.51,0-1.02,0-1.531,0s-.73-.223-.739-.724c-.013-.722-.015-1.445,0-2.167.006-.269-.055-.365-.344-.356-.708.022-1.417.011-2.125.006-.545,0-.783-.234-.786-.771q-.009-1.509,0-3.018a.645.645,0,0,1,.73-.734c.737-.01,1.474-.012,2.211,0,.243,0,.318-.07.313-.312-.014-.708-.009-1.417,0-2.125,0-.61.213-.822.821-.826q1.446-.009,2.891,0c.612,0,.822.213.827.819.006.694.013,1.389,0,2.082-.007.271.058.371.35.363.708-.022,1.417-.012,2.125-.005.552.005.777.227.78.772q.008,1.488,0,2.975c0,.54-.24.773-.781.777-.723.005-1.446.011-2.168,0-.24-.005-.312.063-.306.305.016.708.01,1.417,0,2.125,0,.607-.217.813-.822.816C904.531,277.182,904.049,277.18,903.567,277.18Zm-1-2.728c0,.382.014.766-.005,1.147-.012.25.083.316.319.308.453-.015.908-.021,1.36,0,.283.014.326-.107.321-.349-.013-.708-.009-1.417,0-2.125,0-.556.219-.768.772-.772.723,0,1.445-.01,2.168,0,.239,0,.323-.064.314-.309-.018-.453-.017-.907,0-1.36.009-.243-.073-.318-.313-.313-.722.013-1.445.01-2.168,0-.55-.005-.767-.226-.772-.78-.006-.722-.01-1.445,0-2.167,0-.242-.078-.325-.318-.318-.439.014-.879.018-1.317,0-.274-.012-.374.073-.366.358.019.665.007,1.331.006,2,0,.725-.185.911-.9.913-.68,0-1.361.009-2.04,0-.237,0-.326.064-.316.31.017.438.021.879,0,1.317-.014.278.073.364.354.356.722-.019,1.445-.011,2.168,0,.5,0,.72.224.732.726C902.575,273.744,902.568,274.1,902.569,274.453Z" transform="translate(-79.102 -31.621)" fill="#040405"/>
      <path id="Trazado_634715" data-name="Trazado 634715" d="M878.965,349.653q0-3.317,0-6.635a.728.728,0,0,1,.824-.57c2.055.006,4.109,0,6.164,0,.581,0,.792.216.794.8q.006,3.1,0,6.2c0,.55-.229.78-.771.782-2.069,0-4.137,0-6.206,0A.714.714,0,0,1,878.965,349.653Zm3.166-5.893c-.549-.079-1.1-.012-1.651-.036-.2-.009-.23.1-.229.264q0,2.357,0,4.715c0,.2.067.272.269.266.537-.016,1.075-.015,1.613-.021,1.02.005,2.039.008,3.058.019.19,0,.282-.043.281-.257q-.009-2.358,0-4.716c0-.211-.09-.264-.282-.262C884.169,343.747,883.15,343.752,882.131,343.76Z" transform="translate(-63.279 -94.916)" fill="#030304"/>
      <path id="Trazado_634716" data-name="Trazado 634716" d="M944.049,346.375c0,1.02,0,2.04,0,3.06,0,.577-.221.808-.787.809q-3.1.006-6.206,0c-.547,0-.775-.227-.777-.775q-.007-3.123,0-6.247c0-.551.221-.764.785-.765q3.1-.007,6.206,0c.57,0,.777.229.779.816C944.051,344.307,944.049,345.341,944.049,346.375Zm-4.59-2.617c-.55-.01-1.1-.015-1.65-.032-.219-.007-.254.108-.253.29q.005,2.332,0,4.664c0,.218.067.3.291.293.536-.017,1.073-.015,1.61-.02l3.231,0c.056.015.079-.006.07-.063.005-1.629.009-3.258.019-4.887,0-.191-.043-.283-.258-.279C941.5,343.745,940.478,343.75,939.458,343.759Z" transform="translate(-110.821 -94.92)" fill="#030304"/>
      <path id="Trazado_634717" data-name="Trazado 634717" d="M826.257,403.563c0,1.02,0,2.04,0,3.06,0,.662-.2.856-.869.858-.949,0-1.9.006-2.848,0-.6,0-.816-.228-.817-.829q0-3.059,0-6.119c0-.62.222-.834.852-.835q1.424,0,2.848,0c.622,0,.83.212.833.849C826.26,401.551,826.257,402.557,826.257,403.563Zm-1.283.045c0-.778,0-1.556,0-2.333,0-.2-.031-.315-.274-.307-.48.016-.962.012-1.442,0-.206,0-.266.072-.265.271q.009,2.333,0,4.667c0,.222.076.3.295.294.452-.011.906-.017,1.358,0,.269.011.336-.1.331-.346C824.966,405.107,824.974,404.357,824.974,403.608Z" transform="translate(-15.791 -142.405)" fill="#040405"/>
      <path id="Trazado_634718" data-name="Trazado 634718" d="M826.256,346.348c0,1.006,0,2.012,0,3.017,0,.661-.209.873-.854.875q-1.424,0-2.848,0c-.6,0-.83-.228-.831-.817q-.005-3.081,0-6.162c0-.576.225-.8.8-.809q1.466-.01,2.933,0c.585,0,.8.214.8.795C826.261,344.28,826.256,345.314,826.256,346.348Zm-1.283.03c0-.779-.007-1.558,0-2.337,0-.237-.071-.328-.315-.32-.453.015-.907.015-1.36,0-.249-.008-.31.091-.309.325q.012,2.316,0,4.632c0,.223.069.3.292.291.453-.014.907-.019,1.36,0,.267.012.338-.086.333-.34C824.964,347.88,824.973,347.129,824.973,346.378Z" transform="translate(-15.79 -94.915)" fill="#040405"/>
      <path id="Trazado_634719" data-name="Trazado 634719" d="M1017.109,403.559q0,1.509,0,3.017c0,.692-.2.9-.874.9q-1.4.005-2.805,0c-.649,0-.853-.2-.854-.829q-.006-3.059,0-6.119c0-.628.215-.835.845-.836.963,0,1.927,0,2.89,0,.564,0,.794.234.8.806C1017.113,401.52,1017.109,402.54,1017.109,403.559Zm-1.277.009c0-.764-.008-1.527,0-2.291,0-.24-.069-.321-.312-.312-.452.017-.906.016-1.358,0-.238-.008-.317.066-.316.309q.014,2.291,0,4.582c0,.252.065.356.333.344.438-.019.877-.018,1.315,0,.261.01.342-.083.337-.341C1015.823,405.1,1015.833,404.332,1015.833,403.568Z" transform="translate(-174.115 -142.403)" fill="#040405"/>
      <path id="Trazado_634720" data-name="Trazado 634720" d="M1012.574,346.38c0-1.034,0-2.068,0-3.1,0-.613.209-.821.817-.824q1.445-.007,2.89,0c.6,0,.824.226.825.823q0,3.081,0,6.162c0,.567-.237.8-.8.8q-1.466.008-2.933,0c-.57,0-.793-.226-.8-.8C1012.57,348.42,1012.574,347.4,1012.574,346.38Zm3.258-.012c0-.765-.008-1.53,0-2.295,0-.246-.052-.362-.326-.351-.453.019-.907.013-1.36,0-.219-.005-.3.071-.3.294q.01,2.337,0,4.674c0,.236.1.283.306.278.439-.011.879-.019,1.317,0,.275.013.369-.067.362-.352C1015.82,347.87,1015.832,347.119,1015.832,346.368Z" transform="translate(-174.115 -94.918)" fill="#040405"/>
      <path id="Trazado_634721" data-name="Trazado 634721" d="M908.763,280.637c0-.354.006-.709,0-1.062-.012-.5-.231-.721-.732-.726-.723-.007-1.446-.014-2.168,0-.281.007-.368-.078-.354-.356.022-.438.018-.879,0-1.317-.01-.246.08-.315.316-.31.68.013,1.36.006,2.04,0,.713,0,.9-.188.9-.913,0-.666.013-1.332-.006-2-.008-.285.091-.37.366-.358.438.019.879.015,1.317,0,.239-.008.322.076.318.318-.012.722-.009,1.445,0,2.167,0,.554.222.774.772.78.723.007,1.445.01,2.168,0,.241,0,.322.07.313.313-.017.453-.018.907,0,1.36.01.245-.075.314-.314.309-.722-.014-1.445-.008-2.168,0-.553,0-.767.215-.772.772-.006.708-.01,1.417,0,2.125,0,.242-.039.364-.321.349-.452-.023-.907-.017-1.36,0-.236.008-.331-.058-.319-.308C908.777,281.4,908.763,281.019,908.763,280.637Z" transform="translate(-85.296 -37.806)" fill="#db7680"/>
      <path id="Trazado_634722" data-name="Trazado 634722" d="M897.54,350.011c1.019-.008,2.038-.013,3.057-.027.192,0,.283.051.282.262q-.008,2.358,0,4.716c0,.214-.091.259-.281.257-1.019-.011-2.039-.014-3.058-.019Q897.54,352.606,897.54,350.011Z" transform="translate(-78.688 -101.167)" fill="#6a98d1"/>
      <path id="Trazado_634723" data-name="Trazado 634723" d="M888.382,349.948q0,2.594,0,5.188c-.538.006-1.076.005-1.613.021-.2.006-.27-.063-.269-.266q.009-2.357,0-4.715c0-.166.03-.273.229-.264C887.281,349.936,887.833,349.869,888.382,349.948Z" transform="translate(-69.53 -101.104)" fill="#4d84c5"/>
      <path id="Trazado_634724" data-name="Trazado 634724" d="M958.162,355.157l-3.231,0,0-5.194c1.019-.009,2.038-.014,3.057-.032.215,0,.259.088.258.279-.01,1.629-.013,3.258-.019,4.887Z" transform="translate(-126.297 -101.121)" fill="#6a98d1"/>
      <path id="Trazado_634725" data-name="Trazado 634725" d="M945.682,349.955l0,5.194c-.537.005-1.074,0-1.61.02-.224.007-.292-.075-.291-.293q.01-2.332,0-4.664c0-.182.035-.3.253-.29C944.581,349.94,945.132,349.945,945.682,349.955Z" transform="translate(-117.044 -101.116)" fill="#4d84c5"/>
      <path id="Trazado_634726" data-name="Trazado 634726" d="M973.889,380.3l.07-.063C973.968,380.294,973.945,380.315,973.889,380.3Z" transform="translate(-142.024 -126.264)" fill="#4d84c5"/>
      <path id="Trazado_634727" data-name="Trazado 634727" d="M831.176,409.8c0,.749-.008,1.5,0,2.248,0,.25-.062.357-.331.346-.452-.019-.905-.013-1.358,0-.219.005-.3-.073-.295-.294q.01-2.333,0-4.667c0-.2.06-.276.265-.271.481.011.962.015,1.443,0,.243-.008.276.107.274.307C831.172,408.247,831.176,409.025,831.176,409.8Z" transform="translate(-21.993 -148.599)" fill="#6996cd"/>
      <path id="Trazado_634728" data-name="Trazado 634728" d="M831.173,352.574c0,.751-.009,1.5,0,2.252,0,.254-.066.352-.333.34-.453-.02-.907-.015-1.36,0-.222.007-.293-.068-.292-.291q.012-2.316,0-4.632c0-.233.06-.333.309-.325.453.015.907.015,1.36,0,.244-.008.319.083.315.32C831.166,351.015,831.173,351.795,831.173,352.574Z" transform="translate(-21.99 -101.111)" fill="#6996cd"/>
      <path id="Trazado_634729" data-name="Trazado 634729" d="M1022.06,409.763c0,.764-.009,1.527,0,2.291,0,.258-.076.351-.337.341-.438-.017-.877-.019-1.315,0-.268.012-.335-.092-.333-.344q.014-2.291,0-4.582c0-.243.078-.317.315-.309.452.016.906.017,1.358,0,.242-.009.316.072.312.312C1022.051,408.236,1022.06,409,1022.06,409.763Z" transform="translate(-180.342 -148.597)" fill="#6996cd"/>
      <path id="Trazado_634730" data-name="Trazado 634730" d="M1022.064,352.556c0,.751-.012,1.5.006,2.252.007.285-.087.366-.362.352-.438-.021-.878-.013-1.317,0-.207.005-.307-.042-.306-.278q.012-2.337,0-4.674c0-.222.078-.3.3-.294.453.011.907.017,1.36,0,.274-.011.33.1.326.351C1022.056,351.026,1022.064,351.791,1022.064,352.556Z" transform="translate(-180.347 -101.105)" fill="#6996cd"/>
    </g>
  </g>
</svg>
