<svg xmlns="http://www.w3.org/2000/svg" width="92" height="92" viewBox="0 0 92 92">
  <g id="Grupo_963287" data-name="Grupo 963287" transform="translate(3859.719 10740.444)">
    <g id="Grupo_963197" data-name="Grupo 963197" transform="translate(-4294.719 -15081.444)">
      <circle id="Elipse_7706" data-name="Elipse 7706" cx="46" cy="46" r="46" transform="translate(435 4341)" fill="#583cb6"/>
    </g>
    <g id="Grupo_963284" data-name="Grupo 963284" transform="translate(-3473.448 -10840.648)">
      <path id="Trazado_635044" data-name="Trazado 635044" d="M-311.076,128.467a5.325,5.325,0,0,1,7,5.253,5.347,5.347,0,0,1-1.65,3.624c-1.893,1.891-3.775,3.793-5.685,5.666a.667.667,0,0,0-.143.968,34.559,34.559,0,0,1,4.014,15.353,46.649,46.649,0,0,0,.883,5.828c.5,3.043,1.007,6.085,1.554,9.12.119.658-.182.629-.642.628q-22.073-.011-44.146-.023c-.706,0-.916.129-.908.884a5.8,5.8,0,0,1-6.115,6.138q-6.713.007-13.426,0a5.844,5.844,0,0,1-6.127-6.146q0-18.424,0-36.848a12.778,12.778,0,0,1,11.189-12.919c.419-.061.5-.227.493-.605-.1-3.916.09-3.6,2.616-6.138,2.8-2.811,5.616-5.6,8.4-8.419a4.214,4.214,0,0,1,3.18-1.334q17.8.028,35.609.011a3.536,3.536,0,0,1,3.9,3.87q0,7.114,0,14.228Zm-21.371-16.621c-5.862,0-11.723.009-17.585-.014-.581,0-.776.1-.764.732.044,2.431.025,4.864.015,7.3a3.5,3.5,0,0,1-3.674,3.661c-2.286.008-4.573,0-6.859,0-1.142,0-1.142,0-1.142,1.125,0,1.2,0,1.2,1.128,1.421a12.839,12.839,0,0,1,10.547,12.837q.009,16.417-.018,32.834c0,.731.2.844.877.842q12.806-.037,25.611-.016c1.558,0,1.514,0,1.577-1.585.028-.69-.215-.764-.809-.762-8.051.019-16.1.006-24.152.026-.575,0-.768-.089-.767-.728q.037-14.483,0-28.967c0-.6.192-.693.727-.691,5.2.019,10.41.008,15.615.018a1.39,1.39,0,0,0,1.088-.418,6.282,6.282,0,0,1,3.582-1.8,49.036,49.036,0,0,1,5.9-.115,1.4,1.4,0,0,0,1.082-.434q3.3-3.353,6.653-6.658a1.284,1.284,0,0,0,.41-1.017q-.02-7.99-.009-15.979c0-1.247-.36-1.61-1.6-1.611Zm-20.668,26.891a10.531,10.531,0,0,0-10.439-10.543,10.526,10.526,0,0,0-10.579,10.473A10.532,10.532,0,0,0-363.7,149.211,10.533,10.533,0,0,0-353.116,138.737Zm0,7.361a13.262,13.262,0,0,1-1.934,2.142,1.066,1.066,0,0,0-.408.939c.016,2.286.013,4.572.006,6.859a2.333,2.333,0,0,1-2.5,2.514q-5.655.011-11.31,0A2.341,2.341,0,0,1-371.8,156c-.005-2.262,0-4.524-.006-6.786,0-.255.095-.539-.158-.75a15.22,15.22,0,0,1-2.173-2.36v.865q0,14.375,0,28.749a3.533,3.533,0,0,0,3.851,3.855q6.6,0,13.208,0c2.573,0,3.959-1.389,3.959-3.968q0-14.3,0-28.6Zm26.859,4.135c0,1.629-.008,3.258,0,4.887a5.786,5.786,0,0,0,2.209,4.636c.77.633,1.565,1.233,2.328,1.875a.882.882,0,0,0,.921.178c3.107-.865,6.222-1.7,9.335-2.548,1.523-.414,1.523-.413,1.424-2.022-.006-.1-.007-.194-.016-.291a31.14,31.14,0,0,0-3.266-11.33c-.189-.373-.305-.392-.6-.092q-3.672,3.7-7.373,7.378a.928.928,0,0,0-.3.7c-.032,1.448-.042,1.448-1.47,1.448a.938.938,0,0,0-.146,0c-.54.086-.738-.083-.728-.684.039-2.455.022-4.911.014-7.367a2.369,2.369,0,0,0-1.758-2.39c-.429-.12-.6-.063-.586.444C-326.238,146.781-326.257,148.507-326.257,150.233Zm4.671-.356c4.875-4.871,9.635-9.6,14.364-14.369a2.886,2.886,0,0,0-.08-4.133,2.9,2.9,0,0,0-4.135.015c-3.85,3.821-7.674,7.668-11.517,11.495-.281.279-.325.428-.01.736a4.557,4.557,0,0,1,1.381,3.487C-321.6,147.976-321.586,148.844-321.586,149.878Zm7.448,22.688c1.895,0,3.79-.031,5.684.018.627.016.654-.213.569-.706-.579-3.37-1.153-6.742-1.7-10.118-.07-.432-.137-.572-.611-.44q-4.867,1.358-9.75,2.66a.549.549,0,0,0-.484.643c.02,2.453.024,4.907,0,7.36-.005.488.143.6.609.594C-317.927,172.551-316.033,172.566-314.138,172.566Zm-18.983-25.72a9.539,9.539,0,0,1,.143-4.2c.143-.484-.131-.442-.439-.442-4.059,0-8.119.008-12.178-.007-.412,0-.532.111-.523.523.027,1.19.034,2.383,0,3.572-.015.484.132.6.6.594,3.986-.019,7.973-.01,11.959-.012C-333.416,146.875-333.273,146.856-333.121,146.846Zm-36.343,3.3c0,1.966.008,3.828-.007,5.69,0,.352.16.382.441.382,3.593-.006,7.187-.011,10.78.005.406,0,.475-.145.47-.5-.018-1.408-.007-2.816-.007-4.225V150.15A12.951,12.951,0,0,1-369.463,150.15Zm36.91-.937c-4.495,0-8.77.006-13.046-.009-.417,0-.528.119-.519.526q.039,1.821,0,3.643c-.01.419.121.521.527.518,2.648-.017,5.3-.01,7.944-.007a.743.743,0,0,0,.593-.192C-335.6,152.237-334.143,150.792-332.553,149.212Zm3.96,7.3c0-2.234.006-4.469-.008-6.7,0-.241.172-.595-.127-.714-.282-.112-.543.114-.758.329q-3.22,3.228-6.452,6.445c-.27.268-.282.425,0,.7q1.775,1.733,3.508,3.508c.28.287.44.246.7-.018,1-1.028,2.022-2.037,3.036-3.052C-328.564,156.866-328.41,156.739-328.593,156.511Zm-5.839,7.752c-.914.36-1.742.693-2.576,1.012a3.047,3.047,0,0,1-4.163-1.666.54.54,0,0,0-.579-.394c-1.287.023-2.576.029-3.863,0-.441-.011-.511.155-.5.542.022,1.214.02,2.43,0,3.644-.006.357.058.506.467.5q5.395-.025,10.789,0c.368,0,.441-.129.435-.462C-334.444,166.422-334.432,165.4-334.432,164.263Zm7.006-5.041a2.168,2.168,0,0,0-.787.609c-1.274,1.1-2.216,2.57-3.726,3.416-.227.128-.153.336-.154.516-.007,1.213.017,2.426-.014,3.638-.012.443.16.508.543.5,1.212-.022,2.426-.027,3.638,0,.432.011.512-.143.508-.536-.018-2.037-.008-4.075-.008-6.112Zm-33.216-38.035c2.074,0,4.113.006,6.151,0,.944,0,1.367-.436,1.372-1.39.008-1.626,0-3.252,0-4.879v-1.255Zm21.446,35.031c-2.244,0-4.381.007-6.517-.007-.329,0-.406.11-.4.418.015,1.287.017,2.574,0,3.861,0,.329.108.407.418.4q2.149-.021,4.3,0a.434.434,0,0,0,.473-.331C-340.371,159.148-339.8,157.737-339.2,156.218Zm15.848-16.189-.065-.176a23.366,23.366,0,0,0-4.034.175,5,5,0,0,0-3.446,5.944,1.1,1.1,0,0,0,1.175.89,1.092,1.092,0,0,0,1.107-1.048c.052-.456,0-.922.024-1.382a2.164,2.164,0,0,1,1.974-2.162,2.619,2.619,0,0,0,2.059-1.08C-324.168,140.788-323.75,140.416-323.347,140.03Zm-14.158,18.256c-.543,1.363-1.021,2.576-1.512,3.785a.755.755,0,0,0,.137.874.776.776,0,0,0,.927.195q1.682-.683,3.373-1.345c.258-.1.388-.187.133-.44C-335.442,160.366-336.428,159.369-337.505,158.286Zm12.416,3.707v4.139c0,1.806,0,1.806,1.81,1.763a2.166,2.166,0,0,1,.218,0c.206.016.311-.055.309-.282a13.958,13.958,0,0,0-.115-3.755c-.22-.731-1.323-1.2-2.032-1.779A1.686,1.686,0,0,0-325.089,161.993Z" transform="translate(0)" fill="#010101"/>
      <path id="Trazado_635045" data-name="Trazado 635045" d="M-298.468,117.5h17.439c1.236,0,1.6.364,1.6,1.611q0,7.99.009,15.979a1.284,1.284,0,0,1-.41,1.017q-3.348,3.308-6.653,6.658a1.4,1.4,0,0,1-1.082.434,49.036,49.036,0,0,0-5.9.115,6.282,6.282,0,0,0-3.582,1.8,1.39,1.39,0,0,1-1.088.418c-5.2-.011-10.41,0-15.615-.018-.536,0-.729.088-.727.691q.034,14.484,0,28.967c0,.639.192.729.767.728,8.051-.02,16.1-.007,24.152-.026.593,0,.837.072.809.762-.063,1.583-.019,1.585-1.577,1.585q-12.806,0-25.611.016c-.673,0-.879-.111-.877-.842q.042-16.417.018-32.834a12.839,12.839,0,0,0-10.547-12.837c-1.128-.225-1.128-.225-1.128-1.421,0-1.125,0-1.125,1.142-1.125,2.286,0,4.573.006,6.859,0a3.5,3.5,0,0,0,3.674-3.661c.01-2.432.028-4.865-.015-7.3-.011-.635.183-.734.764-.732C-310.191,117.512-304.33,117.5-298.468,117.5Zm.312,9.341c5.254,0,10.507-.008,15.761.012.5,0,.65-.109.641-.63-.034-1.945-.029-3.891,0-5.837.006-.448-.1-.563-.559-.562q-15.8.021-31.594,0c-.441,0-.574.093-.567.555.029,1.921.035,3.843,0,5.764-.011.567.134.715.708.712C-308.566,126.834-303.361,126.844-298.156,126.844Zm.042,4.671h14.739c1.61,0,1.577,0,1.624-1.607.018-.617-.154-.744-.753-.743q-15.14.031-30.28.015c-1.689,0-1.662,0-1.7,1.68-.011.556.143.67.679.668C-308.572,131.506-303.343,131.515-298.114,131.515Zm.048,2.336h-14.812c-1.587,0-1.556,0-1.6,1.555-.018.615.107.8.773.8q15.14-.039,30.28-.018c1.663,0,1.64,0,1.672-1.628.011-.547-.1-.726-.7-.722C-287.657,133.862-292.862,133.85-298.066,133.85Zm-7.054,7.006h7.66c1.689,0,1.661,0,1.7-1.68.011-.555-.141-.67-.678-.668-5.423.022-10.845.013-16.268.013-1.775,0-1.756,0-1.766,1.753,0,.484.135.6.6.593C-310.956,140.846-308.038,140.856-305.12,140.856Z" transform="translate(-33.98 -5.657)" fill="#e5e8eb"/>
      <path id="Trazado_635046" data-name="Trazado 635046" d="M-347.447,184.062a10.533,10.533,0,0,1-10.581,10.475,10.532,10.532,0,0,1-10.438-10.544,10.526,10.526,0,0,1,10.579-10.473A10.531,10.531,0,0,1-347.447,184.062Zm-9.341-6.77c0-1.438,0-1.438-1.33-1.438a2.366,2.366,0,0,1-.364,0c-.487-.077-.708.072-.652.612.05.481,0,.972.016,1.457a.549.549,0,0,1-.381.6,3.168,3.168,0,0,0-1.948,3,3.269,3.269,0,0,0,1.982,3.064c.693.35,1.4.682,2.079,1.047a.935.935,0,0,1,.507,1.277,1.112,1.112,0,0,1-1.343.611.953.953,0,0,1-.889-.91,10.157,10.157,0,0,1-.013-1.02c0-.194.033-.4-.274-.394-.608.01-1.216,0-1.824,0-.138,0-.2.065-.239.205a3.683,3.683,0,0,0,1.739,4,.966.966,0,0,1,.609,1.056c-.029,1.77-.01,1.757,1.759,1.751.424,0,.62-.07.576-.549-.046-.506,0-1.021-.016-1.53a.549.549,0,0,1,.383-.6,3.162,3.162,0,0,0,1.946-3,3.231,3.231,0,0,0-1.92-3.026c-.691-.354-1.389-.692-2.079-1.047a.961.961,0,0,1-.569-1.314c.244-.607.78-.682,1.342-.609a.951.951,0,0,1,.89.909c.035.337.011.68.013,1.02,0,.193-.036.4.273.395.608-.01,1.215,0,1.823,0,.138,0,.2-.063.24-.2a3.679,3.679,0,0,0-1.493-3.843C-356.7,178.4-356.927,177.925-356.788,177.291Z" transform="translate(-5.669 -45.325)" fill="#f4d57e"/>
      <path id="Trazado_635047" data-name="Trazado 635047" d="M-347.447,234.832v.9q0,14.3,0,28.6c0,2.579-1.386,3.968-3.959,3.969q-6.6,0-13.208,0a3.533,3.533,0,0,1-3.851-3.855q0-14.374,0-28.749v-.865a15.22,15.22,0,0,0,2.173,2.36c.253.211.157.5.158.75.007,2.262,0,4.524.006,6.786a2.341,2.341,0,0,0,2.534,2.554q5.655.009,11.31,0a2.333,2.333,0,0,0,2.5-2.514c.008-2.286.01-4.572-.006-6.859a1.066,1.066,0,0,1,.408-.939A13.262,13.262,0,0,0-347.447,234.832Zm-2.335,22.964c0-1.9.008-3.794,0-5.692a2.323,2.323,0,0,0-2.461-2.479q-5.692-.014-11.384,0a2.34,2.34,0,0,0-2.5,2.515q-.009,5.655,0,11.311a2.33,2.33,0,0,0,2.5,2.517q5.655.011,11.311,0a2.342,2.342,0,0,0,2.536-2.553C-349.778,261.542-349.782,259.669-349.782,257.8Z" transform="translate(-5.668 -88.734)" fill="#969ea8"/>
      <path id="Trazado_635048" data-name="Trazado 635048" d="M-204.541,235.232c0-1.726.019-3.453-.012-5.179-.009-.508.157-.564.586-.444a2.369,2.369,0,0,1,1.758,2.39c.008,2.456.025,4.912-.014,7.367-.01.6.188.771.728.684a.936.936,0,0,1,.146,0c1.429,0,1.438,0,1.47-1.448a.928.928,0,0,1,.3-.7q3.7-3.679,7.373-7.378c.3-.3.413-.281.6.092a31.14,31.14,0,0,1,3.266,11.33c.009.1.01.194.016.291.1,1.608.1,1.608-1.424,2.022-3.113.845-6.228,1.683-9.335,2.548a.882.882,0,0,1-.921-.178c-.762-.641-1.558-1.242-2.328-1.875a5.786,5.786,0,0,1-2.209-4.636C-204.549,238.49-204.541,236.861-204.541,235.232Z" transform="translate(-121.716 -84.999)" fill="#e9cfb5"/>
      <path id="Trazado_635049" data-name="Trazado 635049" d="M-192.39,200.838c0-1.033-.013-1.9,0-2.769a4.557,4.557,0,0,0-1.381-3.487c-.315-.308-.271-.457.01-.736,3.844-3.827,7.667-7.674,11.517-11.495a2.9,2.9,0,0,1,4.135-.015,2.886,2.886,0,0,1,.08,4.133C-182.755,191.233-187.515,195.967-192.39,200.838Z" transform="translate(-129.196 -50.961)" fill="#ed8773"/>
      <path id="Trazado_635050" data-name="Trazado 635050" d="M-178.266,298.087c-1.895,0-3.789-.015-5.684.01-.465.006-.614-.106-.609-.594.026-2.453.022-4.907,0-7.36a.549.549,0,0,1,.484-.643q4.88-1.311,9.75-2.66c.474-.132.541.008.611.44.546,3.376,1.12,6.747,1.7,10.118.084.492.058.722-.569.706C-174.476,298.056-176.371,298.087-178.266,298.087Z" transform="translate(-135.872 -125.521)" fill="#bbd989"/>
      <path id="Trazado_635051" data-name="Trazado 635051" d="M-259.536,226.121c-.152.011-.3.029-.439.029-3.987,0-7.973-.007-11.959.012-.47,0-.617-.11-.6-.594.036-1.19.029-2.382,0-3.572-.009-.413.111-.525.523-.523,4.059.015,8.118.01,12.178.007.308,0,.582-.042.439.442A9.539,9.539,0,0,0-259.536,226.121Z" transform="translate(-73.585 -79.276)" fill="#fbe9ae"/>
      <path id="Trazado_635052" data-name="Trazado 635052" d="M-352.487,248.706a12.951,12.951,0,0,0,11.677,0v1.349c0,1.408-.01,2.816.007,4.225,0,.359-.064.506-.47.5-3.594-.016-7.187-.011-10.78-.005-.281,0-.444-.029-.441-.382C-352.479,252.534-352.487,250.672-352.487,248.706Z" transform="translate(-16.976 -98.556)" fill="#83d2ee"/>
      <path id="Trazado_635053" data-name="Trazado 635053" d="M-258.962,245.474c-1.59,1.58-3.05,3.025-4.5,4.48a.743.743,0,0,1-.593.192c-2.648,0-5.3-.01-7.944.007-.406,0-.537-.1-.527-.518q.042-1.821,0-3.643c-.009-.407.1-.528.519-.526C-267.732,245.48-263.457,245.474-258.962,245.474Z" transform="translate(-73.591 -96.262)" fill="#fbe9ae"/>
      <path id="Trazado_635054" data-name="Trazado 635054" d="M-230.825,252.436c.183.228.029.355-.109.493-1.014,1.015-2.036,2.023-3.036,3.052-.257.264-.417.3-.7.018q-1.731-1.777-3.508-3.508c-.278-.271-.266-.428,0-.7q3.239-3.21,6.452-6.445c.215-.216.476-.441.758-.329.3.119.126.473.127.714C-230.819,247.967-230.825,250.2-230.825,252.436Z" transform="translate(-97.768 -95.925)" fill="#ed8773"/>
      <path id="Trazado_635055" data-name="Trazado 635055" d="M-260.837,294.492c0,1.139-.012,2.159.007,3.178.006.332-.066.463-.435.462q-5.395-.02-10.789,0c-.409,0-.473-.147-.467-.5.019-1.214.021-2.43,0-3.644-.007-.387.063-.553.5-.542,1.287.03,2.576.024,3.863,0a.54.54,0,0,1,.579.394,3.047,3.047,0,0,0,4.163,1.666C-262.579,295.185-261.751,294.852-260.837,294.492Z" transform="translate(-73.595 -130.229)" fill="#fae8ae"/>
      <path id="Trazado_635056" data-name="Trazado 635056" d="M-219.863,279.775v2.035c0,2.037-.01,4.074.008,6.112,0,.392-.076.547-.508.536-1.212-.03-2.425-.024-3.638,0-.384.007-.555-.058-.543-.5.032-1.212.008-2.425.014-3.638,0-.18-.074-.388.154-.516,1.509-.846,2.452-2.312,3.726-3.416A2.168,2.168,0,0,1-219.863,279.775Z" transform="translate(-107.562 -120.553)" fill="#fbe9ae"/>
      <path id="Trazado_635057" data-name="Trazado 635057" d="M-322.26,131.276l7.526-7.526V125c0,1.627.006,3.253,0,4.879-.005.955-.428,1.386-1.372,1.39C-318.147,131.283-320.186,131.276-322.26,131.276Z" transform="translate(-38.381 -10.089)" fill="#bbd989"/>
      <path id="Trazado_635058" data-name="Trazado 635058" d="M-265.6,269.471c-.607,1.518-1.176,2.929-1.731,4.345a.434.434,0,0,1-.473.331q-2.149-.018-4.3,0c-.309,0-.422-.075-.418-.4.018-1.287.015-2.574,0-3.861,0-.308.074-.421.4-.418C-269.977,269.478-267.841,269.471-265.6,269.471Z" transform="translate(-73.598 -113.253)" fill="#fae8ae"/>
      <path id="Trazado_635059" data-name="Trazado 635059" d="M-213.2,213.621c-.4.386-.82.758-1.207,1.16a2.619,2.619,0,0,1-2.059,1.08,2.164,2.164,0,0,0-1.974,2.162c-.023.46.028.927-.024,1.382a1.092,1.092,0,0,1-1.107,1.048,1.094,1.094,0,0,1-1.175-.89,5,5,0,0,1,3.446-5.944,23.364,23.364,0,0,1,4.034-.175Z" transform="translate(-110.152 -73.591)" fill="#e9cfb5"/>
      <path id="Trazado_635060" data-name="Trazado 635060" d="M-246.888,276.569c1.077,1.082,2.063,2.079,3.057,3.068.255.254.125.34-.133.44q-1.691.661-3.373,1.345a.776.776,0,0,1-.927-.195.755.755,0,0,1-.137-.874C-247.91,279.145-247.432,277.932-246.888,276.569Z" transform="translate(-90.617 -118.283)" fill="#a7aeb8"/>
      <path id="Trazado_635061" data-name="Trazado 635061" d="M-200.513,289.262a1.691,1.691,0,0,1,.19.086c.708.583,1.812,1.048,2.032,1.779a13.956,13.956,0,0,1,.115,3.755c0,.227-.1.3-.309.282a2.167,2.167,0,0,0-.218,0c-1.81.043-1.81.043-1.81-1.763Z" transform="translate(-124.576 -127.269)" fill="#fae8ae"/>
      <path id="Trazado_635062" data-name="Trazado 635062" d="M-264.219,132.513c-5.2,0-10.41-.01-15.615.014-.574,0-.719-.145-.708-.712.037-1.921.031-3.843,0-5.764-.007-.462.126-.555.567-.555q15.8.019,31.594,0c.455,0,.565.114.559.562-.026,1.945-.032,3.892,0,5.837.009.521-.138.632-.641.63C-253.712,132.505-258.965,132.513-264.219,132.513Zm.044-2.335h12.394c1.62,0,1.585,0,1.632-1.609.018-.63-.179-.741-.766-.74q-12.795.03-25.589.014c-1.7,0-1.672,0-1.7,1.682-.011.569.168.668.692.665C-273.069,130.169-268.622,130.178-264.174,130.178Z" transform="translate(-67.917 -11.326)"/>
      <path id="Trazado_635063" data-name="Trazado 635063" d="M-264.18,159.823c-5.229,0-10.458-.009-15.687.013-.536,0-.69-.113-.679-.668.034-1.68.007-1.68,1.7-1.68q15.14,0,30.28-.015c.6,0,.772.126.753.743-.047,1.606-.014,1.607-1.624,1.607Z" transform="translate(-67.914 -33.965)"/>
      <path id="Trazado_635064" data-name="Trazado 635064" d="M-264.134,173.48c5.2,0,10.41.011,15.614-.015.594,0,.708.175.7.722-.032,1.628-.009,1.628-1.672,1.628q-15.14,0-30.28.018c-.666,0-.79-.183-.773-.8.045-1.554.014-1.555,1.6-1.555Z" transform="translate(-67.912 -45.287)"/>
      <path id="Trazado_635065" data-name="Trazado 635065" d="M-271.179,191.816c-2.918,0-5.836-.011-8.754.011-.468,0-.606-.109-.6-.593.01-1.753-.01-1.753,1.766-1.753,5.423,0,10.845.008,16.268-.013.537,0,.69.113.678.668-.034,1.68-.006,1.68-1.7,1.68Z" transform="translate(-67.921 -56.617)"/>
      <path id="Trazado_635066" data-name="Trazado 635066" d="M-340.078,182.9c-.139.634.086,1.111.842,1.52a3.679,3.679,0,0,1,1.493,3.843c-.044.14-.1.2-.24.2-.608,0-1.216-.006-1.823,0-.309,0-.272-.2-.273-.395,0-.34.023-.683-.013-1.02a.951.951,0,0,0-.89-.909c-.562-.072-1.1,0-1.342.609a.961.961,0,0,0,.569,1.314c.69.355,1.388.693,2.079,1.047a3.231,3.231,0,0,1,1.92,3.026,3.162,3.162,0,0,1-1.946,3,.549.549,0,0,0-.383.6c.02.51-.03,1.024.016,1.53.044.479-.152.548-.576.549-1.769.006-1.787.019-1.759-1.751a.966.966,0,0,0-.609-1.056,3.683,3.683,0,0,1-1.739-4c.043-.14.1-.205.239-.205.608,0,1.216.006,1.824,0,.307,0,.273.2.274.394a10.157,10.157,0,0,0,.013,1.02.953.953,0,0,0,.889.91,1.112,1.112,0,0,0,1.343-.611.935.935,0,0,0-.507-1.277c-.684-.365-1.387-.7-2.079-1.047a3.269,3.269,0,0,1-1.982-3.064,3.168,3.168,0,0,1,1.948-3,.549.549,0,0,0,.381-.6c-.02-.485.034-.976-.016-1.457-.056-.54.166-.689.652-.612a2.366,2.366,0,0,0,.364,0C-340.078,181.462-340.078,181.462-340.078,182.9Z" transform="translate(-22.379 -50.933)" fill="#030201"/>
      <path id="Trazado_635067" data-name="Trazado 635067" d="M-344.127,293.648c0,1.873,0,3.746,0,5.619a2.342,2.342,0,0,1-2.536,2.553q-5.655.009-11.311,0a2.33,2.33,0,0,1-2.5-2.517q-.009-5.655,0-11.311a2.34,2.34,0,0,1,2.5-2.515q5.692-.011,11.384,0a2.323,2.323,0,0,1,2.461,2.479C-344.119,289.854-344.127,291.751-344.127,293.648Zm-2.335,2.393v-1.818c0-1.775,0-1.753-1.765-1.757-.509,0-.586.18-.58.624.023,1.551.009,3.1.009,4.654,0,1.775,0,1.752,1.764,1.757.509,0,.594-.18.58-.624C-346.482,297.933-346.462,296.987-346.462,296.042Zm-9.342-7.054c0-1.177,0-1.177-.8-1.178-1.54,0-1.54,0-1.54.868,0,1.468,0,1.468.94,1.468C-355.8,290.146-355.8,290.146-355.8,288.988Zm4.671.048c0-1.226,0-1.226-1.182-1.226-1.153,0-1.153,0-1.153,1.182,0,1.153,0,1.153,1.182,1.153C-351.133,290.145-351.133,290.145-351.133,289.036Zm4.671-.02c0-1.206,0-1.206-1.2-1.206-1.134,0-1.134,0-1.134,1.129,0,1.206,0,1.206,1.2,1.206C-346.463,290.145-346.463,290.145-346.463,289.016Zm-10.439,3.465c-1.238,0-1.238,0-1.238,1.242,0,1.093,0,1.093,1.1,1.093,1.238,0,1.238,0,1.238-1.242C-355.8,292.481-355.8,292.481-356.9,292.481Zm5.768,1.178c0-1.177,0-1.177-.8-1.178-1.54,0-1.54,0-1.54.868,0,1.468,0,1.468.94,1.468C-351.133,294.816-351.133,294.816-351.133,293.659Zm-5.815,3.493c-1.192,0-1.192,0-1.192,1.216,0,1.119,0,1.119,1.144,1.119,1.192,0,1.192,0,1.192-1.216C-355.8,297.152-355.8,297.152-356.948,297.152Zm4.671,0c-1.191,0-1.191,0-1.191,1.216,0,1.119,0,1.119,1.144,1.119,1.192,0,1.192,0,1.192-1.216C-351.133,297.152-351.133,297.152-352.277,297.152Z" transform="translate(-11.324 -124.586)"/>
      <path id="Trazado_635068" data-name="Trazado 635068" d="M-258.516,135.833c-4.447,0-8.894-.009-13.341.012-.524,0-.7-.1-.692-.665.032-1.682,0-1.682,1.7-1.682q12.795,0,25.589-.014c.587,0,.784.11.766.74-.047,1.608-.012,1.609-1.632,1.609Z" transform="translate(-73.576 -16.981)" fill="#ee8774"/>
      <path id="Trazado_635069" data-name="Trazado 635069" d="M-318.167,313c0,.945-.02,1.891.009,2.836.014.444-.071.625-.58.624-1.764,0-1.764.018-1.764-1.757,0-1.551.014-3.1-.009-4.654-.006-.443.071-.625.58-.624,1.765,0,1.765-.018,1.765,1.757Z" transform="translate(-39.619 -141.545)" fill="#ee8774"/>
      <path id="Trazado_635070" data-name="Trazado 635070" d="M-350.136,294.658c0,1.158,0,1.158-1.4,1.157-.941,0-.941,0-.94-1.468,0-.869,0-.869,1.54-.868C-350.136,293.481-350.136,293.481-350.136,294.658Z" transform="translate(-16.993 -130.255)" fill="#ee8774"/>
      <path id="Trazado_635071" data-name="Trazado 635071" d="M-334.14,294.706c0,1.109,0,1.109-1.153,1.109-1.182,0-1.182,0-1.182-1.153,0-1.182,0-1.182,1.153-1.182C-334.14,293.48-334.14,293.48-334.14,294.706Z" transform="translate(-28.317 -130.256)" fill="#ee8774"/>
      <path id="Trazado_635072" data-name="Trazado 635072" d="M-318.145,294.686c0,1.129,0,1.129-1.134,1.129-1.2,0-1.2,0-1.2-1.206,0-1.129,0-1.129,1.134-1.129C-318.145,293.48-318.145,293.48-318.145,294.686Z" transform="translate(-39.642 -130.256)" fill="#ee8774"/>
      <path id="Trazado_635073" data-name="Trazado 635073" d="M-351.233,309.475c1.1,0,1.1,0,1.1,1.093,0,1.242,0,1.242-1.238,1.242-1.1,0-1.1,0-1.1-1.093C-352.471,309.475-352.471,309.475-351.233,309.475Z" transform="translate(-16.993 -141.58)" fill="#ee8774"/>
      <path id="Trazado_635074" data-name="Trazado 635074" d="M-334.14,310.653c0,1.158,0,1.158-1.4,1.157-.941,0-.941,0-.94-1.468,0-.869,0-.869,1.54-.868C-334.14,309.476-334.14,309.476-334.14,310.653Z" transform="translate(-28.317 -141.579)" fill="#ee8774"/>
      <path id="Trazado_635075" data-name="Trazado 635075" d="M-351.279,325.47c1.144,0,1.144,0,1.144,1.119,0,1.216,0,1.216-1.192,1.216-1.144,0-1.144,0-1.144-1.119C-352.471,325.47-352.471,325.47-351.279,325.47Z" transform="translate(-16.993 -152.904)" fill="#ee8774"/>
      <path id="Trazado_635076" data-name="Trazado 635076" d="M-335.284,325.47c1.144,0,1.144,0,1.144,1.119,0,1.216,0,1.216-1.192,1.216-1.144,0-1.144,0-1.144-1.119C-336.475,325.47-336.475,325.47-335.284,325.47Z" transform="translate(-28.317 -152.904)" fill="#ee8774"/>
    </g>
  </g>
</svg>
