<svg id="Grupo_962211" data-name="Grupo 962211" xmlns="http://www.w3.org/2000/svg" width="95.739" height="95.717" viewBox="0 0 95.739 95.717">
  <ellipse id="Elipse_7707" data-name="Elipse 7707" cx="47.858" cy="47.859" rx="47.858" ry="47.859" transform="translate(0.022 0)" fill="#ef8b53"/>
  <g id="Grupo_962210" data-name="Grupo 962210" transform="translate(0 0.001)">
    <path id="Trazado_633738" data-name="Trazado 633738" d="M1145.068,55.6c-6.577,0-13.153.01-19.729-.016-.674,0-.892.121-.876.847.053,2.46.032,4.923.01,7.384a.9.9,0,0,0,.588.983,5.509,5.509,0,0,1,2.946,6.491,5.594,5.594,0,0,1-10.96-.9,5.5,5.5,0,0,1,3.105-5.582.9.9,0,0,0,.6-.974c-.026-2.461-.041-4.923.006-7.384.014-.7-.16-.863-.86-.862q-19.5.036-38.991.023a5.685,5.685,0,0,1-5.445-2.931,5.5,5.5,0,0,1,2.342-7.653,1.04,1.04,0,0,0,.684-1.11q-.024-22.528,0-45.056a1.038,1.038,0,0,0-.688-1.11,5.505,5.505,0,0,1-2.953-6,5.6,5.6,0,0,1,5.032-4.536c.4-.037.81-.033,1.214-.033q15.616,0,31.23.018c.78,0,1-.178.951-.958a5.729,5.729,0,0,1,3.073-5.911,5.846,5.846,0,0,1,2.795-.629c2.276,0,4.551-.008,6.826,0a5.653,5.653,0,0,1,5.991,5.964c.011,1.512.011,1.512,1.483,1.512q15.522,0,31.043,0a5.6,5.6,0,0,1,5.648,3.756,5.5,5.5,0,0,1-2.788,6.859.91.91,0,0,0-.615.965q.023,22.621.006,45.243a.862.862,0,0,0,.5.949,5.5,5.5,0,0,1,3.078,6.342,5.573,5.573,0,0,1-5.613,4.3C1158.158,55.618,1151.613,55.6,1145.068,55.6Zm-22.454-11.217q19.728,0,39.457.019c.778,0,.958-.181.956-.957q-.039-22.059,0-44.118c0-.78-.184-.955-.958-.954q-39.457.034-78.914,0c-.778,0-.957.181-.956.956q.04,22.059,0,44.119c0,.779.184.956.958.954Q1102.885,44.365,1122.613,44.386Zm-.028-49.73h41.5c1.674,0,2.621-.661,2.644-1.842.023-1.207-.951-1.9-2.684-1.9h-82.911c-1.675,0-2.622.661-2.644,1.842-.023,1.207.951,1.9,2.684,1.9Zm-.073,57.208q20.751,0,41.5,0a6.23,6.23,0,0,0,1.026-.033,1.838,1.838,0,0,0,1.572-1.283c.448-1.36-.548-2.42-2.3-2.42q-41.689,0-83.378,0a3.425,3.425,0,0,0-1.107.124,1.818,1.818,0,0,0-.014,3.487,4.119,4.119,0,0,0,1.387.127Q1101.854,51.865,1122.512,51.864Zm.043-64.686h4.2c1.5,0,1.5,0,1.468-1.542-.032-1.342-.682-2.154-1.914-2.177-2.457-.048-4.915-.043-7.372,0a1.875,1.875,0,0,0-1.929,1.973c-.02.341.026.688-.013,1.025-.065.557.11.755.708.739C1119.319-12.851,1120.938-12.822,1122.555-12.822Zm.031,80.777a1.857,1.857,0,1,0,1.883,1.808A1.924,1.924,0,0,0,1122.587,67.955Z" transform="translate(-1074.745 20.304)"/>
    <path id="Trazado_633739" data-name="Trazado 633739" d="M1135.054,75.565q-19.729,0-39.457.019c-.774,0-.959-.175-.958-.954q.04-22.059,0-44.119c0-.776.178-.957.956-.956q39.457.035,78.914,0c.774,0,.959.175.958.954q-.04,22.059,0,44.118c0,.776-.178.958-.956.957Q1154.783,75.544,1135.054,75.565ZM1156.6,41.383a3.259,3.259,0,0,1-.222.3q-8.559,8.56-17.109,17.13c-.472.475-.679.254-1.021-.089q-4.451-4.472-8.924-8.923c-1.3-1.291-2.2-1.289-3.5,0-2.12,2.11-4.247,4.214-6.343,6.348a1.3,1.3,0,0,1-1.584.419A5.493,5.493,0,0,0,1111.587,59a5.586,5.586,0,0,0,7.759,7.643,5.494,5.494,0,0,0,2.325-6.342,1.177,1.177,0,0,1,.366-1.432c1.676-1.629,3.334-3.277,4.957-4.957.458-.474.707-.454,1.161.006,2.888,2.928,5.808,5.825,8.718,8.732,1.518,1.517,2.32,1.519,3.831.009q8.927-8.92,17.854-17.84c.228-.227.473-.438.805-.745,0,.373-.008.587,0,.8a1.88,1.88,0,1,0,3.736-.008q.032-2.57,0-5.141c-.012-1.131-.552-1.951-1.533-2.031a41.229,41.229,0,0,0-6.253-.008,1.777,1.777,0,0,0-1.551,1.827,1.88,1.88,0,0,0,1.6,1.8A11.851,11.851,0,0,0,1156.6,41.383Zm-57.636,7.351q0,4.387,0,8.773a6.031,6.031,0,0,0,.026.838,1.851,1.851,0,0,0,3.691-.04,7.574,7.574,0,0,0,.022-.932q0-8.353,0-16.706c0-.374.017-.748-.007-1.12a1.866,1.866,0,1,0-3.729.04c-.013.217,0,.435,0,.653Zm18.148-11.909a1.845,1.845,0,0,0-2.744-1.6,5.21,5.21,0,0,0-1.314,1.178c-.337.383-.56.345-.889-.012a7.359,7.359,0,0,0-1.244-1.115,1.817,1.817,0,0,0-2.5,2.523,7.2,7.2,0,0,0,1.118,1.242c.377.342.344.562-.014.889a7.4,7.4,0,0,0-1.116,1.244,1.818,1.818,0,0,0,2.524,2.5,7.183,7.183,0,0,0,1.242-1.118c.342-.378.562-.344.889.013a7.367,7.367,0,0,0,1.245,1.116,1.819,1.819,0,0,0,2.5-2.525,4.519,4.519,0,0,0-.924-1.04c-.6-.472-.53-.821.013-1.29A2.66,2.66,0,0,0,1117.107,36.824Zm48.628,26.1a1.789,1.789,0,0,0-.92-1.5,1.744,1.744,0,0,0-1.936.041c-1.4.879-1.887.876-3.286,0a1.829,1.829,0,0,0-2.54,2.535c.852,1.364.852,1.927,0,3.287a1.819,1.819,0,0,0,.226,2.309,1.773,1.773,0,0,0,2.3.219,8.13,8.13,0,0,0,1.24-1.121c.307-.326.512-.329.823,0a8.222,8.222,0,0,0,1.315,1.177,1.822,1.822,0,0,0,2.5-2.5,4.889,4.889,0,0,0-.983-1.111c-.548-.447-.543-.766,0-1.227A2.792,2.792,0,0,0,1165.735,62.928Zm-63.044,2.758a1.862,1.862,0,1,0-1.867,1.831A1.922,1.922,0,0,0,1102.691,65.686Z" transform="translate(-1087.186 -10.875)" fill="#f1f1fa"/>
    <path id="Trazado_633740" data-name="Trazado 633740" d="M1128.841,13.385h-41.409c-1.733,0-2.706-.689-2.684-1.9.022-1.181.97-1.842,2.644-1.842H1170.3c1.732,0,2.707.69,2.684,1.9-.023,1.181-.97,1.841-2.643,1.842Z" transform="translate(-1081 1.575)" fill="#4d5d72"/>
    <path id="Trazado_633741" data-name="Trazado 633741" d="M1128.8,166.082q-20.658,0-41.315,0a4.119,4.119,0,0,1-1.387-.127,1.818,1.818,0,0,1,.013-3.487,3.427,3.427,0,0,1,1.108-.124q41.689,0,83.378,0c1.755,0,2.751,1.06,2.3,2.42a1.838,1.838,0,0,1-1.572,1.283,6.226,6.226,0,0,1-1.025.033Q1149.554,166.083,1128.8,166.082Z" transform="translate(-1081.036 -93.914)" fill="#4d5d72"/>
    <path id="Trazado_633742" data-name="Trazado 633742" d="M1193.056-6.6c-1.617,0-3.236-.029-4.853.015-.6.016-.772-.181-.708-.739.039-.338-.007-.684.012-1.025a1.875,1.875,0,0,1,1.929-1.973c2.457-.041,4.915-.045,7.372,0,1.231.024,1.882.836,1.914,2.177.037,1.542.037,1.542-1.467,1.542Z" transform="translate(-1145.246 14.082)" fill="#ed7166"/>
    <path id="Trazado_633743" data-name="Trazado 633743" d="M1199.383,215.271a1.857,1.857,0,1,1-1.832,1.86A1.919,1.919,0,0,1,1199.383,215.271Z" transform="translate(-1151.542 -127.012)" fill="#e97065"/>
    <path id="Trazado_633744" data-name="Trazado 633744" d="M1183.508,54.756a11.856,11.856,0,0,1-1.231-.074,1.881,1.881,0,0,1-1.6-1.8,1.777,1.777,0,0,1,1.551-1.827,41.233,41.233,0,0,1,6.253.008c.981.08,1.52.9,1.532,2.031q.029,2.57,0,5.141a1.88,1.88,0,1,1-3.736.008c-.009-.213,0-.426,0-.8-.333.307-.578.517-.806.745q-8.928,8.919-17.853,17.84c-1.511,1.51-2.312,1.508-3.831-.009-2.91-2.907-5.83-5.8-8.718-8.732-.454-.46-.7-.48-1.161-.006-1.623,1.68-3.282,3.328-4.957,4.957a1.177,1.177,0,0,0-.366,1.432,5.5,5.5,0,0,1-2.325,6.342,5.586,5.586,0,0,1-7.76-7.643,5.493,5.493,0,0,1,6.308-2.424,1.3,1.3,0,0,0,1.584-.419c2.1-2.134,4.222-4.238,6.343-6.348,1.3-1.291,2.2-1.293,3.5,0q4.469,4.455,8.924,8.923c.342.343.548.564,1.021.089q8.533-8.586,17.109-17.13A3.271,3.271,0,0,0,1183.508,54.756Zm-38.389,20.491a1.856,1.856,0,1,0-1.813,1.9A1.916,1.916,0,0,0,1145.119,75.247Z" transform="translate(-1114.098 -24.249)" fill="#050405"/>
    <path id="Trazado_633745" data-name="Trazado 633745" d="M1106.166,62.2V53.711c0-.218-.009-.436,0-.653a1.866,1.866,0,1,1,3.729-.04c.024.372.007.746.007,1.12q0,8.353,0,16.706a7.575,7.575,0,0,1-.022.932,1.851,1.851,0,0,1-3.691.04,6.031,6.031,0,0,1-.026-.838Q1106.165,66.59,1106.166,62.2Z" transform="translate(-1094.393 -24.345)" fill="#010101"/>
    <path id="Trazado_633746" data-name="Trazado 633746" d="M1139.588,45.884a2.661,2.661,0,0,1-1.21,2.007c-.543.469-.61.817-.013,1.29a4.522,4.522,0,0,1,.924,1.04,1.819,1.819,0,0,1-2.5,2.525,7.367,7.367,0,0,1-1.245-1.116c-.328-.357-.548-.391-.889-.013a7.188,7.188,0,0,1-1.242,1.118,1.817,1.817,0,0,1-2.524-2.5A7.389,7.389,0,0,1,1132,48.992c.357-.328.391-.548.013-.889a7.2,7.2,0,0,1-1.118-1.242,1.818,1.818,0,0,1,2.5-2.523,7.364,7.364,0,0,1,1.244,1.115c.328.357.551.395.889.012a5.213,5.213,0,0,1,1.314-1.178A1.846,1.846,0,0,1,1139.588,45.884Z" transform="translate(-1109.667 -19.934)" fill="#050505"/>
    <path id="Trazado_633747" data-name="Trazado 633747" d="M1269.4,115.68a2.792,2.792,0,0,1-1.256,2.116c-.541.46-.546.78,0,1.227a4.892,4.892,0,0,1,.983,1.111,1.822,1.822,0,0,1-2.5,2.5,8.232,8.232,0,0,1-1.315-1.177c-.311-.326-.516-.324-.823,0a8.135,8.135,0,0,1-1.24,1.121,1.773,1.773,0,0,1-2.3-.219,1.819,1.819,0,0,1-.225-2.309c.85-1.36.85-1.922,0-3.287a1.829,1.829,0,0,1,2.54-2.535c1.4.872,1.886.876,3.286,0a1.745,1.745,0,0,1,1.936-.041A1.788,1.788,0,0,1,1269.4,115.68Z" transform="translate(-1190.848 -63.627)" fill="#050505"/>
    <path id="Trazado_633748" data-name="Trazado 633748" d="M1109.915,122.838a1.862,1.862,0,1,1-1.808-1.89A1.922,1.922,0,0,1,1109.915,122.838Z" transform="translate(-1094.41 -68.028)" fill="#070707"/>
    <path id="Trazado_633749" data-name="Trazado 633749" d="M1151.352,112.795a1.856,1.856,0,1,1-1.9-1.811A1.92,1.92,0,0,1,1151.352,112.795Z" transform="translate(-1120.33 -61.796)" fill="#e96f65"/>
  </g>
</svg>
