<svg xmlns="http://www.w3.org/2000/svg" width="82" height="82" viewBox="0 0 82 82">
  <g id="Grupo_968855" data-name="Grupo 968855" transform="translate(-193 -19655)">
    <rect id="Rectángulo_307292" data-name="Rectángulo 307292" width="82" height="82" transform="translate(193 19655)" fill="none"/>
    <g id="Grupo_968856" data-name="Grupo 968856" transform="translate(-599.048 19321.705)">
      <path id="Trazado_633778" data-name="Trazado 633778" d="M830.709,369.892c-.535-1.072-1.035-2.046-1.506-3.033-.128-.267-.314-.28-.554-.28q-4.685.005-9.371,0a1.54,1.54,0,0,0-.71.215q-6.051,3.023-12.1,6.043c-.164.082-.33.159-.494.24a1.021,1.021,0,0,1-1.212-.173,1.051,1.051,0,0,1-.3-1.191q.749-2.248,1.492-4.5c.064-.192.119-.387.183-.6-.946-.1-1.864.045-2.775-.135a5.461,5.461,0,0,1-4.47-5.287q-.042-7.819,0-15.639a5.43,5.43,0,0,1,5.394-5.413q17.742-.034,35.485,0a5.444,5.444,0,0,1,5.4,5.406c.035,2.594.02,5.19,0,7.785a.641.641,0,0,0,.516.715,34.985,34.985,0,0,1,4.5,2.034,8.844,8.844,0,0,1,4,11c-.357.913-.76,1.808-1.185,2.811.388,0,.717-.007,1.045,0a3.306,3.306,0,0,1,.048,6.61c-.457.016-1.034-.134-1.336.089s-.292.82-.442,1.246a10.9,10.9,0,0,1-4.453,5.686.85.85,0,0,0-.484.869,11.854,11.854,0,0,1,0,1.721c-.033.448.123.617.558.736q7.452,2.041,14.893,4.126a5.543,5.543,0,0,1,4.4,5.784q0,5.132,0,10.265c0,1.08-.366,1.446-1.443,1.446q-23.909,0-47.818,0c-1.084,0-1.449-.363-1.45-1.438q0-5.2,0-10.4a5.544,5.544,0,0,1,4.26-5.621c4.986-1.385,9.97-2.777,14.963-4.135.5-.135.6-.329.641-.818a3.188,3.188,0,0,0-1.51-3.345,9.376,9.376,0,0,1-3.679-5.722c-.1-.391-.241-.511-.633-.493a5.257,5.257,0,0,1-1.709-.117,3.3,3.3,0,0,1,.7-6.48C829.9,369.877,830.241,369.892,830.709,369.892Zm-23.138-.13a5.407,5.407,0,0,0,.506-.193q4.887-2.44,9.767-4.89a2.809,2.809,0,0,1,1.317-.309c2.824.014,5.649-.007,8.473.019.558,0,.808-.055.743-.72a6.027,6.027,0,0,1,.676-3.191c.072-.152.247-.281.15-.51h-4.539c-1.539,0-1.517,0-1.544-1.573-.009-.5.091-.657.626-.647,2.066.036,4.135-.049,6.2.033s3.618-.948,5.317-2.222H824.7c-1.568,0-1.546,0-1.577-1.54-.011-.522.107-.685.662-.68,3.4.029,6.8,0,10.195.019,2.869.015,5.74-.1,8.607.075.48.029.393-.225.393-.486,0-2.434.015-4.867,0-7.3a3.27,3.27,0,0,0-3.329-3.31q-17.6-.013-35.2,0a3.273,3.273,0,0,0-3.355,3.355q-.017,7.68,0,15.359a3.284,3.284,0,0,0,3.318,3.324c1.01.015,2.021,0,3.031,0,1.121.008,1.567.635,1.218,1.715-.387,1.2-.784,2.392-1.176,3.588-.039.062-.064.125.014.172A.682.682,0,0,0,807.571,369.762Zm25.354,36.5c1.607,0,3.213-.01,4.82.006.476.005.6-.133.468-.61a19.468,19.468,0,0,1-.448-2.076,4.077,4.077,0,0,1-.013-2.74c.485-.956.773-2.011,1.241-2.978a2.279,2.279,0,0,0-.226-2.6c-1.73-2.518-1.58-1.486-.624-4.453.147-.458.263-.86-.193-1.238-.473-.393-.764-.9-1.609-.63-2.2.711-4.44,1.271-6.665,1.892-2.886.806-5.778,1.588-8.654,2.429a3.2,3.2,0,0,0-2.3,3.092c-.012,3.1.006,6.2-.014,9.294,0,.489.156.625.63.618,1.79-.023,3.581-.031,5.37,0,.553.01.638-.208.632-.688-.023-1.836-.009-3.672-.009-5.507,0-1.556,0-1.535,1.555-1.545.512,0,.67.141.663.659-.028,2.019-.015,4.039-.01,6.058,0,1.126-.128,1,.975,1.009C829.987,406.267,831.456,406.263,832.925,406.263Zm17.907,0c1.561,0,3.122-.02,4.682.011.532.011.714-.128.7-.687-.035-1.835-.013-3.672-.013-5.507,0-1.556,0-1.534,1.555-1.545.512,0,.669.141.662.659-.027,2.134,0,4.268-.021,6.4-.005.491.1.689.641.679,1.789-.033,3.58-.027,5.37,0,.485.007.625-.148.622-.626-.018-3.1,0-6.2-.014-9.294a3.242,3.242,0,0,0-2.237-3.067c-.935-.3-1.889-.549-2.836-.814-4.251-1.188-8.508-2.356-12.75-3.576-.77-.221-.982.37-1.4.7a.8.8,0,0,0-.252,1.035c.235.62.4,1.265.632,1.889a1.313,1.313,0,0,1-.178,1.3c-.511.733-.987,1.49-1.5,2.224a.792.792,0,0,0-.1.871c.583,1.393,1.1,2.815,1.675,4.212a2.173,2.173,0,0,1,.112,1.4c-.241,1.045-.369,2.117-.632,3.156-.148.582.088.6.528.6C847.664,406.255,849.248,406.263,850.832,406.263Zm-17.778-33.612c0,.574,0,1.147,0,1.72a8.817,8.817,0,0,0,17.271,2.434,18.085,18.085,0,0,0,.387-4.019,8.065,8.065,0,0,0-1.2-5.025c-.272-.439-.381-.6-.862-.22a10.709,10.709,0,0,1-6.407,2.334,11.091,11.091,0,0,1-7.23-2.365c-.213-.161-.4-.485-.667.012-.809,1.523-1.614,3.035-1.3,4.854A1.718,1.718,0,0,1,833.054,372.651Zm-1.09-5.265c.239-.477.414-.824.588-1.171s.34-.7.52-1.047a1.136,1.136,0,0,1,1.914-.438c.631.458,1.235.957,1.883,1.388a8.721,8.721,0,0,0,7.487,1.2A12.167,12.167,0,0,0,848.385,365c1.288-.976,1.757-.865,2.472.559.265.528.536,1.052.821,1.611A6.5,6.5,0,0,0,850,358.627a15.8,15.8,0,0,0-7.444-3.01,8.517,8.517,0,0,0-5.341,1.313,7.908,7.908,0,0,1,4.06,2.9c.36.489.359.758-.2,1.038-.387.194-.716.639-1.1.673-.485.044-.586-.6-.888-.918a4.942,4.942,0,0,0-5.048-1.592,4.465,4.465,0,0,0-3.4,3.6C830.247,364.393,831.1,365.821,831.965,367.386Zm9.858,38.878a6.07,6.07,0,0,1,.687,0c.482.055.722-.064.8-.623.144-1.04.413-2.062.609-3.1a1.33,1.33,0,0,0,.031-.806q-.818-2-1.6-4.012a.4.4,0,0,0-.461-.291c-.209.011-.376,0-.477.265-.849,2.224-2.259,4.348-1.18,6.9a2.089,2.089,0,0,1,.1.4C840.583,406.264,840.582,406.264,841.823,406.264Zm3.357-21.446a11.261,11.261,0,0,1-6.614,0c0,.713.011,1.35-.006,1.987a.675.675,0,0,0,.268.523c.91.906,1.825,1.806,2.717,2.729.25.258.4.268.653,0,.892-.923,1.808-1.822,2.718-2.728a.677.677,0,0,0,.269-.523C845.17,386.17,845.18,385.532,845.18,384.818Zm-4.874,6.965-.221.1c.013.418-.467.753-.151,1.223.421.626.826,1.264,1.26,1.88a.931.931,0,0,0,1.355,0c.435-.616.842-1.252,1.26-1.88a.888.888,0,0,0-.214-1.118c-.186-.205-.388.251-.6.39a2.269,2.269,0,0,0-.246.238,1.105,1.105,0,0,1-1.745.007A9.551,9.551,0,0,1,840.306,391.783ZM830.872,373.2c-.2-.376.438-1.2-.68-1.12-1.027.072-1.552.39-1.545,1.13.007.719.524,1.021,1.5,1.111C831.222,374.416,830.737,373.657,830.872,373.2Zm22-.007c.2.383-.435,1.2.681,1.124,1.018-.073,1.553-.4,1.542-1.133-.01-.718-.527-1.018-1.5-1.107C852.519,371.975,853.014,372.739,852.875,373.19Z" transform="translate(0 0)" fill="#010101"/>
      <path id="Trazado_633779" data-name="Trazado 633779" d="M813.276,375.471c.393-1.2.789-2.39,1.177-3.588.349-1.079-.1-1.707-1.218-1.715-1.01-.007-2.021.01-3.031,0a3.284,3.284,0,0,1-3.318-3.324q-.02-7.679,0-15.359a3.273,3.273,0,0,1,3.355-3.355q17.6-.011,35.2,0a3.27,3.27,0,0,1,3.329,3.31c.02,2.433.006,4.867,0,7.3,0,.261.088.515-.393.486-2.867-.171-5.737-.059-8.607-.075-3.4-.019-6.8.01-10.195-.019-.555,0-.673.158-.662.68.031,1.539.009,1.54,1.577,1.54h10.565c-1.7,1.274-3.243,2.3-5.317,2.222s-4.133,0-6.2-.033c-.535-.01-.635.15-.626.647.027,1.572.006,1.573,1.544,1.573H835c.1.229-.078.358-.15.51a6.028,6.028,0,0,0-.676,3.191c.065.665-.185.725-.743.72-2.824-.026-5.649-.005-8.473-.019a2.81,2.81,0,0,0-1.317.309q-4.878,2.456-9.767,4.89c-.161.08-.337.129-.506.193A.647.647,0,0,0,813.276,375.471Zm-.9-19.634c-.62,0-1.241.015-1.86,0a1.163,1.163,0,0,0-.894,2.111c1.094,1.081,2.169,2.183,3.272,3.254a.726.726,0,0,1,.2.947c-.567,1.325-1.077,2.675-1.625,4.008a1.161,1.161,0,0,0,1.758,1.5c1.389-.847,2.8-1.665,4.177-2.525a.81.81,0,0,1,.99-.007c1.381.86,2.785,1.683,4.174,2.53a1.161,1.161,0,0,0,1.757-1.5c-.548-1.334-1.056-2.684-1.623-4.009a.726.726,0,0,1,.2-.947c1.137-1.1,2.247-2.234,3.369-3.353a1.118,1.118,0,0,0,.357-1.3,1.151,1.151,0,0,0-1.214-.711c-1.355.012-2.71-.011-4.064.014a.613.613,0,0,1-.7-.462c-.528-1.39-1.1-2.764-1.643-4.149a1.14,1.14,0,0,0-2.231,0c-.532,1.365-1.107,2.713-1.618,4.086a.677.677,0,0,1-.8.522C813.71,355.809,813.043,355.836,812.377,355.836Zm25.367,1.1q3.716,0,7.432,0c1,0,1.386-.38,1.39-1.358q.009-1.961,0-3.922c-.005-.937-.4-1.33-1.347-1.331q-7.467-.005-14.934,0c-.978,0-1.352.39-1.355,1.391q-.006,1.892,0,3.784c0,1.073.367,1.435,1.451,1.436Q834.062,356.942,837.744,356.939Z" transform="translate(-5.798 -5.79)" fill="#e5e3dd"/>
      <path id="Trazado_633780" data-name="Trazado 633780" d="M884.953,534.065c-1.469,0-2.938,0-4.407,0-1.1,0-.972.117-.975-1.009-.005-2.019-.018-4.039.01-6.058.007-.518-.151-.663-.663-.659-1.555.011-1.555-.011-1.555,1.545,0,1.836-.014,3.672.009,5.507.006.48-.079.7-.632.688-1.789-.034-3.58-.027-5.37,0-.474.006-.633-.129-.63-.618.02-3.1,0-6.2.014-9.294a3.2,3.2,0,0,1,2.3-3.092c2.875-.841,5.768-1.623,8.654-2.429,2.225-.621,4.47-1.181,6.665-1.892.845-.274,1.136.237,1.609.63.456.378.34.78.193,1.238-.956,2.967-1.107,1.936.624,4.453a2.279,2.279,0,0,1,.226,2.6c-.467.967-.756,2.022-1.241,2.978a4.078,4.078,0,0,0,.013,2.74,19.465,19.465,0,0,0,.448,2.076c.134.477.008.615-.468.61C888.167,534.055,886.56,534.065,884.953,534.065Z" transform="translate(-52.029 -127.803)" fill="#273241"/>
      <path id="Trazado_633781" data-name="Trazado 633781" d="M969.978,534.01c-1.584,0-3.167-.008-4.751.005-.44,0-.676-.015-.528-.6.263-1.039.391-2.111.632-3.156a2.174,2.174,0,0,0-.112-1.4c-.576-1.4-1.092-2.818-1.675-4.212a.792.792,0,0,1,.1-.871c.51-.733.987-1.491,1.5-2.224a1.314,1.314,0,0,0,.178-1.3c-.228-.624-.4-1.269-.632-1.889a.8.8,0,0,1,.252-1.035c.417-.326.629-.917,1.4-.7,4.242,1.22,8.5,2.388,12.75,3.576.947.265,1.9.51,2.836.814a3.242,3.242,0,0,1,2.237,3.067c.013,3.1,0,6.2.014,9.294,0,.479-.137.633-.622.626-1.79-.025-3.581-.03-5.37,0-.541.01-.646-.188-.641-.679.023-2.134-.006-4.268.021-6.4.007-.518-.15-.663-.662-.659-1.555.011-1.555-.011-1.555,1.545,0,1.836-.022,3.672.013,5.507.01.559-.172.7-.7.687C973.1,533.99,971.538,534.01,969.978,534.01Z" transform="translate(-119.146 -127.747)" fill="#273241"/>
      <path id="Trazado_633782" data-name="Trazado 633782" d="M922.495,443.793a1.676,1.676,0,0,0,0-.275c-.312-1.82.492-3.332,1.3-4.854.264-.5.454-.173.667-.012a11.091,11.091,0,0,0,7.23,2.365,10.709,10.709,0,0,0,6.407-2.334c.481-.378.59-.219.862.22a8.065,8.065,0,0,1,1.2,5.025,18.082,18.082,0,0,1-.387,4.019,8.817,8.817,0,0,1-17.271-2.434C922.49,444.94,922.495,444.367,922.495,443.793Z" transform="translate(-89.441 -71.142)" fill="#f4ddb6"/>
      <path id="Trazado_633783" data-name="Trazado 633783" d="M915.005,407.914c-.86-1.566-1.718-2.994-1.325-4.756a4.465,4.465,0,0,1,3.4-3.6,4.942,4.942,0,0,1,5.048,1.592c.3.316.4.962.888.918.382-.034.711-.479,1.1-.673.558-.279.559-.549.2-1.038a7.909,7.909,0,0,0-4.06-2.9,8.516,8.516,0,0,1,5.341-1.313,15.8,15.8,0,0,1,7.444,3.01,6.5,6.5,0,0,1,1.677,8.546c-.285-.559-.556-1.083-.821-1.611-.715-1.424-1.184-1.535-2.472-.559a12.168,12.168,0,0,1-4.028,2.314,8.721,8.721,0,0,1-7.487-1.2c-.649-.432-1.252-.93-1.883-1.388a1.136,1.136,0,0,0-1.914.438c-.181.345-.347.7-.521,1.047S915.245,407.437,915.005,407.914Z" transform="translate(-83.041 -40.528)" fill="#b88d60"/>
      <path id="Trazado_633784" data-name="Trazado 633784" d="M949.24,556.535c-1.241,0-1.24,0-1.495-1.256a2.093,2.093,0,0,0-.1-.4c-1.079-2.555.331-4.678,1.18-6.9.1-.264.268-.254.477-.265a.4.4,0,0,1,.461.291q.781,2.014,1.6,4.012a1.33,1.33,0,0,1-.031.806c-.2,1.034-.465,2.056-.609,3.1-.077.559-.318.678-.8.623A6.07,6.07,0,0,0,949.24,556.535Z" transform="translate(-107.417 -150.271)" fill="#bec4cc"/>
      <path id="Trazado_633785" data-name="Trazado 633785" d="M949.242,501.992c0,.714-.01,1.352.005,1.99a.677.677,0,0,1-.269.523c-.91.906-1.826,1.806-2.718,2.728-.255.264-.4.254-.653,0-.892-.923-1.807-1.823-2.717-2.729a.675.675,0,0,1-.268-.523c.016-.637.006-1.274.006-1.987A11.261,11.261,0,0,0,949.242,501.992Z" transform="translate(-104.062 -117.174)" fill="#f4ddb5"/>
      <path id="Trazado_633786" data-name="Trazado 633786" d="M947.686,527.223a9.559,9.559,0,0,0,.7.84,1.105,1.105,0,0,0,1.745-.007,2.27,2.27,0,0,1,.246-.238c.21-.14.412-.6.6-.391a.888.888,0,0,1,.214,1.118c-.418.628-.825,1.264-1.26,1.88a.931.931,0,0,1-1.355,0c-.435-.616-.839-1.254-1.26-1.88-.316-.47.163-.805.151-1.223Z" transform="translate(-107.38 -135.44)" fill="#757e8c"/>
      <path id="Trazado_633787" data-name="Trazado 633787" d="M908.945,456.959c-.135.46.35,1.22-.726,1.12-.974-.09-1.491-.392-1.5-1.111-.007-.74.517-1.058,1.545-1.13C909.383,455.761,908.742,456.583,908.945,456.959Z" transform="translate(-78.074 -83.762)" fill="#f0dab3"/>
      <path id="Trazado_633788" data-name="Trazado 633788" d="M994.457,456.935c.139-.451-.356-1.215.722-1.117.975.089,1.492.389,1.5,1.107.01.735-.524,1.061-1.542,1.133C994.022,458.139,994.658,457.319,994.457,456.935Z" transform="translate(-141.583 -83.745)" fill="#f0dab3"/>
      <path id="Trazado_633789" data-name="Trazado 633789" d="M830.052,447.258a.689.689,0,0,1-.078.091c-.078-.048-.053-.111-.014-.173A.665.665,0,0,1,830.052,447.258Z" transform="translate(-22.481 -77.496)" fill="#e5e3dd"/>
      <path id="Trazado_633790" data-name="Trazado 633790" d="M818.161,361.634c.666,0,1.333-.027,2,.01a.677.677,0,0,0,.8-.522c.511-1.372,1.086-2.721,1.618-4.086a1.14,1.14,0,0,1,2.231,0c.542,1.385,1.115,2.759,1.643,4.149a.613.613,0,0,0,.7.462c1.354-.025,2.71,0,4.064-.014a1.151,1.151,0,0,1,1.214.711,1.118,1.118,0,0,1-.357,1.3c-1.122,1.119-2.232,2.249-3.369,3.353a.726.726,0,0,0-.2.947c.567,1.325,1.075,2.675,1.623,4.009a1.161,1.161,0,0,1-1.757,1.5c-1.389-.848-2.793-1.671-4.174-2.53a.81.81,0,0,0-.99.007c-1.381.86-2.788,1.678-4.177,2.525a1.161,1.161,0,0,1-1.758-1.5c.548-1.333,1.058-2.683,1.625-4.008a.726.726,0,0,0-.2-.947c-1.1-1.071-2.178-2.173-3.273-3.254a1.163,1.163,0,0,1,.894-2.111C816.92,361.649,817.541,361.634,818.161,361.634Zm8.518,8.172.147.063-.017-.173a18.139,18.139,0,0,0-.678-1.722,1.45,1.45,0,0,1,.408-1.948c.731-.664,1.406-1.39,2.18-2.163h-1.455c-.137-.007-.274-.021-.411-.022-1.712-.014-1.71-.014-2.34-1.583-.255-.636-.52-1.268-.835-2.034-.414,1.038-.764,1.906-1.107,2.776a1.213,1.213,0,0,1-1.268.845c-.837-.018-1.674,0-2.667,0a19.234,19.234,0,0,0,1.656,1.625c1.158.888,1.513,1.888.681,3.177a.867.867,0,0,0-.067.264,2.637,2.637,0,0,0-.383,1.062c.843-.506,1.619-.945,2.366-1.429a1.351,1.351,0,0,1,1.6-.008C825.206,368.976,825.947,369.382,826.679,369.806Z" transform="translate(-11.582 -11.588)" fill="#030303"/>
      <path id="Trazado_633791" data-name="Trazado 633791" d="M895.555,362.72q-3.682,0-7.364,0c-1.083,0-1.448-.363-1.45-1.436q0-1.892,0-3.784c0-1,.377-1.39,1.355-1.391q7.467,0,14.934,0c.947,0,1.342.393,1.347,1.331q.011,1.961,0,3.922c0,.978-.392,1.357-1.39,1.358Q899.271,362.725,895.555,362.72ZM899,360.487c.938.009,1.877.013,2.815.032.258.005.34-.077.366-.346.185-1.875.193-1.874-1.666-1.861-.091,0-.182.011-.273.017q-4.818-.009-9.636-.017c-1.76,0-1.749,0-1.671,1.79.014.331.1.423.43.421C892.578,360.5,895.789,360.5,899,360.487Z" transform="translate(-63.609 -11.571)"/>
      <path id="Trazado_633792" data-name="Trazado 633792" d="M830.794,379.64a.866.866,0,0,1,.067-.264c.831-1.289.476-2.289-.681-3.177a19.2,19.2,0,0,1-1.656-1.625c.993,0,1.83-.013,2.666,0a1.213,1.213,0,0,0,1.268-.845c.343-.87.692-1.738,1.107-2.776.315.766.58,1.4.835,2.034.63,1.569.628,1.569,2.34,1.583.137,0,.274.014.411.022a15.516,15.516,0,0,1-5.706,4.956C831.258,379.65,831.052,379.941,830.794,379.64Z" transform="translate(-21.469 -22.322)" fill="#efd68b"/>
      <path id="Trazado_633793" data-name="Trazado 633793" d="M835.741,389.181c.258.3.464.01.651-.088a15.515,15.515,0,0,0,5.706-4.956h1.455c-.774.773-1.448,1.5-2.18,2.163a1.45,1.45,0,0,0-.408,1.948,18.141,18.141,0,0,1,.678,1.722l-.13.11c-.731-.424-1.473-.83-2.19-1.275a1.351,1.351,0,0,0-1.6.008c-.747.485-1.524.923-2.366,1.429A2.635,2.635,0,0,1,835.741,389.181Z" transform="translate(-26.416 -31.863)" fill="#e7c064"/>
      <path id="Trazado_633794" data-name="Trazado 633794" d="M857.777,405.264l.017.173-.147-.063Z" transform="translate(-42.55 -47.156)" fill="#e7c064"/>
      <path id="Trazado_633795" data-name="Trazado 633795" d="M904.695,366.27c-3.212.01-6.423.015-9.635.035-.326,0-.416-.09-.43-.421-.078-1.79-.089-1.792,1.671-1.79q4.818.007,9.636.017c.054.286-.158.463-.276.678A9.988,9.988,0,0,0,904.695,366.27Z" transform="translate(-69.303 -17.354)" fill="#c1c7cf"/>
      <path id="Trazado_633796" data-name="Trazado 633796" d="M931.149,366.266a9.988,9.988,0,0,1,.966-1.479c.117-.216.33-.393.276-.678.091-.006.182-.017.273-.017,1.859-.013,1.852-.014,1.666,1.861-.026.269-.108.351-.366.346C933.026,366.279,932.087,366.275,931.149,366.266Z" transform="translate(-95.757 -17.35)" fill="#a8afba"/>
    </g>
  </g>
</svg>
