<svg id="Grupo_956619" data-name="Grupo 956619" xmlns="http://www.w3.org/2000/svg" width="95.779" height="95.721" viewBox="0 0 95.779 95.721">
  <ellipse id="Elipse_7652" data-name="Elipse 7652" cx="47.858" cy="47.859" rx="47.858" ry="47.859" transform="translate(0 0.002)" fill="#ef8b53"/>
  <g id="Grupo_962209" data-name="Grupo 962209" transform="translate(0 0)">
    <path id="Trazado_633722" data-name="Trazado 633722" d="M1027.408,350q11.639,0,23.277,0c3.474,0,5.387,1.9,5.391,5.347,0,3.863-.1,7.729.033,11.587a5.065,5.065,0,0,1-5.468,5.421c-6.886-.088-13.773-.007-20.66-.048-.885-.005-1.08.26-1.045,1.084.065,1.523.052,3.053,0,4.578-.02.635.192.77.787.765,3.209-.027,6.419-.014,9.628-.012,2.846,0,3.978,1.123,3.979,3.936,0,1.059.052,2.122-.018,3.176-.048.721.188.858.872.856,7.136-.027,14.272-.018,21.408-.016,1.682,0,3.371-.077,5.046.042a4.508,4.508,0,0,1,4.538,4.539c.139,4.387.151,8.785,0,13.171-.1,2.914-2.153,4.6-5.165,4.605-4.83.014-9.661.031-14.49-.021-.9-.01-1.065.276-1.032,1.083.061,1.493.063,2.992,0,4.484-.032.737.223.857.891.85,3.272-.035,6.544-.019,9.816-.015q3.618.006,3.655,3.6c.014,1.153.048,2.308-.014,3.457-.04.744.2.934.932.93,6.388-.029,12.776-.018,19.164-.016a5.723,5.723,0,0,1,2.894.566,4.549,4.549,0,0,1,2.534,4.077c.054,4.329.065,8.66,0,12.989a4.718,4.718,0,0,1-4.914,4.691c-3.022.028-6.045.006-9.068.006q-19.117,0-38.235,0a4.788,4.788,0,0,1-5.053-3.693,6.749,6.749,0,0,1-.133-1.573q-.016-5.888,0-11.775c.005-3.35,1.905-5.277,5.261-5.284q11.217-.022,22.435.017c.833,0,1.076-.2,1.015-1.026a24.235,24.235,0,0,1,0-3.082c.032-.6-.179-.711-.734-.707-3.272.026-6.543.014-9.816.012-2.625,0-3.8-1.183-3.8-3.831,0-1.557-.044-3.117.018-4.672.032-.817-.154-1.087-1.043-1.083-9.036.037-18.073.016-27.11.028a5,5,0,0,1-4.863-2.669,5.664,5.664,0,0,1-.532-2.717q-.007-5.794,0-11.588c.008-3.44,1.953-5.386,5.384-5.39,5.36-.006,10.72-.017,16.079.016.732,0,.964-.178.915-.917a23.866,23.866,0,0,1,0-2.989c.04-.676-.123-.9-.852-.888-3.209.045-6.419.021-9.629.019-2.736,0-3.912-1.186-3.913-3.933,0-1.62-.034-3.241.016-4.859.021-.661-.176-.813-.823-.811-6.949.025-13.9.014-20.847.016a5.628,5.628,0,0,1-3.141-.694,4.623,4.623,0,0,1-2.309-4.031c-.036-4.3-.057-8.6,0-12.9.04-2.794,2.16-4.7,5.089-4.707Q1015.582,349.993,1027.408,350Zm41.163,55.8c.309.018.617.051.926.052,2.143.008,2.574-.421,2.574-2.551,0-3.415-.037-6.83.012-10.244.037-2.571-.064-3.477-3.512-3.151a2.063,2.063,0,0,0-.277-.036q-16.913,0-33.826-.023c-.734,0-.705.36-.7.86.007,4.733.024,9.466-.015,14.2-.006.8.251.955,1,.953q16.492-.037,32.984-.019C1068.013,405.846,1068.292,405.82,1068.572,405.806Zm19.073,36.688c.34.012.681.034,1.022.035,2.084,0,2.537-.441,2.537-2.488,0-3.475-.065-6.952.02-10.424.073-2.993-.747-3.19-3.389-2.949-.309-.024-.619-.07-.928-.07q-16.549-.006-33.1-.018c-.729,0-.943.186-.937.929q.052,7.01,0,14.019c-.008.831.207,1.024,1.027,1.021q16.456-.044,32.91-.021C1087.084,442.527,1087.364,442.505,1087.644,442.493Zm-38.16-89.246a5.382,5.382,0,0,0-.556-.056q-16.78,0-33.559-.019c-.712,0-.8.278-.8.878.019,4.672.036,9.345-.012,14.017-.009.893.275,1.069,1.1,1.067q16.405-.038,32.811-.02c.34,0,.681-.045,1.022-.07.372.018.744.051,1.116.052,1.821,0,2.268-.439,2.268-2.24,0-3.547-.094-7.1.028-10.641.11-3.2-1.12-3.124-3.335-2.99A.511.511,0,0,0,1049.484,353.248ZM1030.577,397.9c0-2.4-.018-4.792.012-7.187.008-.617-.115-.877-.809-.863-2.24.044-4.482.005-6.722.02-1.5.01-2.072.589-2.077,2.111q-.018,5.88,0,11.761c.005,1.517.583,2.094,2.084,2.1,2.241.015,4.482-.024,6.722.021.7.014.808-.265.8-.871C1030.56,402.632,1030.577,400.267,1030.577,397.9Zm19.122,36.672c0-2.4-.018-4.794.012-7.191.008-.613-.184-.8-.795-.79-2.3.032-4.609,0-6.913.018-1.3.01-1.846.578-1.849,1.909q-.012,6.024,0,12.047a1.7,1.7,0,0,0,1.94,1.956c2.242.019,4.484-.021,6.726.021.686.013.909-.158.9-.874C1049.67,439.307,1049.7,436.94,1049.7,434.574Zm-38.318-73.4q0-3.6,0-7.191c0-.409.064-.812-.58-.806-2.429.022-4.858-.02-7.286.027a1.562,1.562,0,0,0-1.663,1.663q-.053,6.256,0,12.514c.011,1.181.657,1.706,1.868,1.712,2.273.01,4.547-.016,6.819.016.642.009.867-.173.857-.838C1011.359,365.909,1011.38,363.543,1011.38,361.177Z" transform="translate(-998.629 -350.003)" fill="#020202"/>
    <path id="Trazado_633723" data-name="Trazado 633723" d="M1076.1,374.339c-.34.024-.681.07-1.022.07q-16.406.005-32.811.02c-.829,0-1.113-.175-1.1-1.067.048-4.672.031-9.345.012-14.017,0-.6.085-.879.8-.878q16.78.034,33.559.019a5.364,5.364,0,0,1,.556.056,6.344,6.344,0,0,1,.2,1.185C1076.191,364.6,1076.542,369.474,1076.1,374.339Zm-15.824-9.488h2.616c3.333,0,6.665-.006,10,0a1.6,1.6,0,0,0,1.665-.959,1.52,1.52,0,0,0-.265-1.664,2.135,2.135,0,0,0-1.713-.57q-12.194.008-24.389,0a2.9,2.9,0,0,0-1.192.172,1.467,1.467,0,0,0-.97,1.547,1.49,1.49,0,0,0,1.263,1.425,5.121,5.121,0,0,0,1.024.043Q1054.293,364.854,1060.273,364.852Zm-6.321,6.377c2.024,0,4.05.01,6.074,0,1.234-.008,1.889-.574,1.887-1.579a1.613,1.613,0,0,0-1.81-1.6q-6.121-.036-12.242,0a1.657,1.657,0,0,0-1.852,1.663c.03.939.7,1.5,1.868,1.513C1049.9,371.238,1051.928,371.228,1053.953,371.228Z" transform="translate(-1025.23 -355.296)" fill="#409186"/>
    <path id="Trazado_633724" data-name="Trazado 633724" d="M1178.208,570.357c-.28.012-.56.034-.839.034q-16.455,0-32.91.021c-.821,0-1.035-.191-1.028-1.021q.067-7.009,0-14.019c-.005-.743.209-.93.938-.929q16.548.033,33.1.018c.31,0,.619.045.929.07a17.309,17.309,0,0,1,.195,3.7c0,3.226-.013,6.452.011,9.678A6.15,6.15,0,0,1,1178.208,570.357Zm-15.483-12.712q-6.216,0-12.431,0c-1.318,0-2,.541-2.008,1.556s.7,1.6,1.969,1.632c.125,0,.249,0,.374,0q12.01,0,24.02,0a3.267,3.267,0,0,0,1.289-.162,1.47,1.47,0,0,0,.986-1.62,1.434,1.434,0,0,0-1.212-1.355,4.876,4.876,0,0,0-1.023-.055Q1168.706,557.642,1162.725,557.645Zm-6.516,6.379c-2.024,0-4.049-.009-6.074,0-1.164.008-1.822.569-1.849,1.526-.029.987.666,1.645,1.844,1.65q6.074.025,12.147,0c1.178,0,1.908-.646,1.914-1.6s-.72-1.57-1.908-1.576C1160.258,564.016,1158.233,564.024,1156.209,564.024Z" transform="translate(-1089.193 -477.866)" fill="#d33863"/>
    <path id="Trazado_633725" data-name="Trazado 633725" d="M1127.212,472.346c-.279.014-.558.04-.837.04q-16.492,0-32.985.019c-.75,0-1.007-.15-1-.953.039-4.732.022-9.465.015-14.2,0-.5-.03-.862.7-.86q16.913.039,33.826.023a2.07,2.07,0,0,1,.277.036,12.545,12.545,0,0,1,.4,3.481q-.047,4.465,0,8.93A12.568,12.568,0,0,1,1127.212,472.346Zm-15.684-9.534q5.975,0,11.95,0a5.933,5.933,0,0,0,1.205-.094,1.543,1.543,0,0,0,.07-2.989,5.359,5.359,0,0,0-1.293-.123q-11.9-.01-23.807,0c-.249,0-.5-.012-.747.01a1.659,1.659,0,0,0-1.711,1.609c0,.892.659,1.5,1.728,1.582.278.022.56.012.84.012Zm-6.369,6.389c2.026,0,4.051.021,6.076-.008,1.183-.017,1.9-.674,1.886-1.626-.013-.922-.7-1.509-1.839-1.576-.155-.009-.312,0-.468,0q-5.656,0-11.311,0a5.015,5.015,0,0,0-1.113.095,1.538,1.538,0,0,0-1.022,2.2,1.806,1.806,0,0,0,1.808.911Q1102.168,469.207,1105.159,469.2Z" transform="translate(-1057.27 -416.543)" fill="#f2bf43"/>
    <path id="Trazado_633726" data-name="Trazado 633726" d="M1067.883,464.44c0,2.364-.017,4.729.012,7.094.008.606-.1.885-.8.871-2.24-.045-4.481-.006-6.722-.021-1.5-.009-2.079-.586-2.084-2.1q-.019-5.88,0-11.761c0-1.522.579-2.1,2.077-2.111,2.241-.015,4.482.024,6.722-.02.694-.013.817.246.809.863C1067.865,459.648,1067.883,462.044,1067.883,464.44Z" transform="translate(-1035.935 -416.54)" fill="#eeb03d"/>
    <path id="Trazado_633727" data-name="Trazado 633727" d="M1119.026,562.463c0,2.366-.028,4.732.018,7.1.014.715-.209.887-.9.874-2.241-.042-4.484,0-6.726-.021a1.7,1.7,0,0,1-1.94-1.956q-.012-6.024,0-12.047c0-1.331.547-1.9,1.849-1.909,2.3-.017,4.609.014,6.913-.018.611-.008.8.177.795.79C1119.008,557.669,1119.026,560.066,1119.026,562.463Z" transform="translate(-1067.957 -477.891)" fill="#9e2957"/>
    <path id="Trazado_633728" data-name="Trazado 633728" d="M1016.713,366.483c0,2.366-.021,4.732.014,7.1.01.665-.215.847-.857.838-2.273-.032-4.546-.006-6.819-.016-1.212-.006-1.858-.531-1.868-1.712q-.056-6.257,0-12.514a1.562,1.562,0,0,1,1.663-1.663c2.428-.047,4.858,0,7.286-.027.644-.006.58.4.58.806Q1016.712,362.887,1016.713,366.483Z" transform="translate(-1003.962 -355.308)" fill="#2b665b"/>
    <path id="Trazado_633729" data-name="Trazado 633729" d="M1185.357,472.339a12.582,12.582,0,0,0,.4-3.481q-.047-4.465,0-8.93a12.55,12.55,0,0,0-.4-3.481c3.449-.326,3.549.579,3.512,3.151-.049,3.414-.012,6.829-.012,10.244,0,2.13-.431,2.558-2.574,2.551C1185.974,472.39,1185.666,472.357,1185.357,472.339Z" transform="translate(-1115.415 -416.536)" fill="#dda639"/>
    <path id="Trazado_633730" data-name="Trazado 633730" d="M1236.277,570.381a6.154,6.154,0,0,0,.4-2.451c-.024-3.226-.007-6.452-.011-9.678a17.294,17.294,0,0,0-.195-3.7c2.642-.241,3.462-.043,3.389,2.949-.085,3.473-.02,6.949-.02,10.424,0,2.047-.453,2.492-2.537,2.488C1236.958,570.416,1236.617,570.393,1236.277,570.381Z" transform="translate(-1147.262 -477.89)" fill="#9e2956"/>
    <path id="Trazado_633731" data-name="Trazado 633731" d="M1134.412,374.346c.445-4.866.093-9.742.187-14.613a6.334,6.334,0,0,0-.2-1.185.514.514,0,0,1,.091-.022c2.215-.134,3.446-.21,3.335,2.99-.122,3.543-.027,7.094-.028,10.641,0,1.8-.447,2.244-2.268,2.24C1135.156,374.4,1134.784,374.364,1134.412,374.346Z" transform="translate(-1083.544 -355.304)" fill="#2b665c"/>
    <path id="Trazado_633732" data-name="Trazado 633732" d="M1068.386,370.186q-5.98,0-11.961,0a5.123,5.123,0,0,1-1.024-.043,1.49,1.49,0,0,1-1.263-1.425,1.467,1.467,0,0,1,.97-1.547A2.9,2.9,0,0,1,1056.3,367q12.194.005,24.388,0a2.136,2.136,0,0,1,1.713.57,1.52,1.52,0,0,1,.264,1.664,1.6,1.6,0,0,1-1.665.959c-3.333-.009-6.665,0-10,0Z" transform="translate(-1033.342 -360.631)" fill="#000101"/>
    <path id="Trazado_633733" data-name="Trazado 633733" d="M1062.05,387.2c-2.025,0-4.05.01-6.074,0-1.164-.008-1.838-.574-1.868-1.513a1.657,1.657,0,0,1,1.852-1.663q6.12-.031,12.242,0a1.613,1.613,0,0,1,1.809,1.6c0,1-.653,1.57-1.887,1.579C1066.1,387.208,1064.074,387.2,1062.05,387.2Z" transform="translate(-1033.327 -371.266)" fill="#010303"/>
    <path id="Trazado_633734" data-name="Trazado 633734" d="M1170.831,562.988q5.981,0,11.963,0a4.871,4.871,0,0,1,1.023.055,1.435,1.435,0,0,1,1.212,1.354,1.47,1.47,0,0,1-.987,1.62,3.266,3.266,0,0,1-1.288.162q-12.01-.005-24.02,0c-.125,0-.249,0-.374,0-1.274-.035-1.982-.622-1.969-1.632s.69-1.553,2.009-1.555Q1164.615,562.981,1170.831,562.988Z" transform="translate(-1097.299 -483.21)" fill="#040102"/>
    <path id="Trazado_633735" data-name="Trazado 633735" d="M1164.315,580.016c2.025,0,4.049-.008,6.074,0,1.188.006,1.914.62,1.908,1.576s-.736,1.6-1.914,1.6q-6.074.02-12.147,0c-1.177,0-1.872-.663-1.844-1.65.028-.957.685-1.518,1.849-1.526C1160.267,580.006,1162.291,580.016,1164.315,580.016Z" transform="translate(-1097.299 -493.858)" fill="#020101"/>
    <path id="Trazado_633736" data-name="Trazado 633736" d="M1119.554,468.156h-11.763c-.28,0-.562.01-.84-.012-1.069-.083-1.726-.69-1.728-1.582a1.659,1.659,0,0,1,1.711-1.609c.247-.023.5-.01.747-.01q11.9,0,23.807,0a5.361,5.361,0,0,1,1.293.123,1.543,1.543,0,0,1-.07,2.989,5.934,5.934,0,0,1-1.205.094Q1125.529,468.162,1119.554,468.156Z" transform="translate(-1065.297 -421.888)" fill="#060501"/>
    <path id="Trazado_633737" data-name="Trazado 633737" d="M1113.187,485.219c-1.994,0-3.988,0-5.983,0a1.806,1.806,0,0,1-1.808-.911,1.538,1.538,0,0,1,1.022-2.2,5.016,5.016,0,0,1,1.113-.095q5.656-.009,11.311,0c.156,0,.312,0,.467,0,1.142.066,1.827.654,1.84,1.575.013.951-.7,1.608-1.886,1.626C1117.239,485.24,1115.213,485.219,1113.187,485.219Z" transform="translate(-1065.298 -432.561)" fill="#060501"/>
  </g>
</svg>
