<svg xmlns="http://www.w3.org/2000/svg" width="82" height="82" viewBox="0 0 82 82">
  <g id="Grupo_968853" data-name="Grupo 968853" transform="translate(-193 -19655)">
    <rect id="Rectángulo_307292" data-name="Rectángulo 307292" width="82" height="82" transform="translate(193 19655)" fill="none"/>
    <g id="Grupo_968854" data-name="Grupo 968854" transform="translate(202.75 19665.793)">
      <path id="Trazado_633858" data-name="Trazado 633858" d="M529.645,823.767H502.173a5.23,5.23,0,0,1-5.61-5.6q0-24.6,0-49.2a5.227,5.227,0,0,1,5.6-5.607q12.109,0,24.217,0a5.229,5.229,0,0,1,5.6,5.606c0,5.554.01,11.108-.014,16.661,0,.552.139.7.673.659a16.4,16.4,0,0,1,2.017,0c.382.018.454-.119.459-.474a27.369,27.369,0,0,1,.112-3.961,7.289,7.289,0,0,1,14.341-.014,24.148,24.148,0,0,1,.109,3.9c0,.472.14.563.58.555,1.453-.029,2.908-.014,4.361-.01.924,0,1.257.313,1.336,1.209q.956,10.756,1.916,21.511.59,6.641,1.173,13.283c.1,1.092-.279,1.492-1.408,1.492Zm.255-30.208q0-11.651.014-23.3c0-.543-.129-.666-.668-.665q-14.975.027-29.95,0c-.545,0-.664.132-.664.669q.024,23.3,0,46.606c0,.543.129.666.668.665q14.975-.027,29.95,0c.545,0,.666-.132.664-.669Q529.885,805.211,529.9,793.559Zm1.031,28.124h25.156c.824,0,.819,0,.747-.8q-.629-6.962-1.253-13.924-.8-9.068-1.58-18.138c-.031-.362-.14-.479-.5-.472-1.106.02-2.214.028-3.32,0-.429-.012-.5.153-.49.527.021,1.149.013,2.3.005,3.449,0,.769-.4,1.233-1.033,1.238s-1.042-.459-1.047-1.223c-.008-1.15-.021-2.3.008-3.449.011-.428-.118-.543-.543-.541q-4.686.026-9.374,0c-.461,0-.526.171-.519.564.022,1.106.01,2.213.006,3.319,0,.859-.4,1.351-1.071,1.331-.647-.019-1.009-.488-1.012-1.324,0-1.128-.02-2.257.009-3.384.01-.411-.12-.522-.515-.5a14.452,14.452,0,0,1-1.886,0c-.586-.048-.75.129-.748.733.021,9.436.005,18.873.024,28.309A6.589,6.589,0,0,1,530.931,821.683Zm11.421-35.413c1.583,0,3.166-.01,4.749.007.363,0,.541-.035.522-.476-.041-.952.007-1.908-.022-2.861a5.2,5.2,0,0,0-10.3-.806,28.9,28.9,0,0,0-.122,3.632c-.03.463.158.517.55.512C539.273,786.258,540.813,786.27,542.352,786.27Zm-28.084-18.749h8.007c2.3,0,4.6-.012,6.9.009.536.005.542-.153.3-.539a3.119,3.119,0,0,0-2.761-1.549c-2.3-.01-4.6,0-6.9,0q-8.918,0-17.836,0a3.165,3.165,0,0,0-2.818,1.443c-.114.17-.341.358-.211.57.1.169.36.069.545.069Q506.88,767.525,514.268,767.522Zm0,52.079q-7.421,0-14.841,0c-.165,0-.389-.087-.485.065-.122.192.077.36.177.517a3.107,3.107,0,0,0,2.786,1.5q4.882,0,9.764,0,7.453,0,14.906,0a3.152,3.152,0,0,0,2.814-1.449c.113-.171.341-.361.2-.57-.1-.159-.362-.063-.549-.063Q521.659,819.6,514.271,819.6Z" transform="translate(-496.562 -763.355)" fill="#010101"/>
      <path id="Trazado_633859" data-name="Trazado 633859" d="M535.766,811.226q0,11.652.014,23.3c0,.537-.119.67-.664.669q-14.975-.028-29.95,0c-.539,0-.668-.121-.668-.665q.025-23.3,0-46.606c0-.537.119-.67.664-.669q14.975.028,29.95,0c.539,0,.669.121.668.665Q535.75,799.574,535.766,811.226Zm-16.829,12.5h8.983c1.1,0,1.612-.345,1.591-1.071-.021-.7-.5-1.022-1.584-1.006-.441.007-.752.018-.54-.6a1.766,1.766,0,0,0-.05-1.154c-.119-.33-.012-.465.308-.621a3.093,3.093,0,0,0,.335-5.518c-.257-.17-.356-.31-.292-.615.827-3.985,1.543-7.992,2.48-11.955.067-.283.176-.4.476-.386.629.022,1.258.017,1.887,0a1.049,1.049,0,0,0,1.147-1.057,1.037,1.037,0,0,0-1.117-1.019c-1-.015-2-.007-2.994,0a1.03,1.03,0,0,0-1.076.852c-.145.566-.27,1.137-.4,1.707-.363,1.606-.363,1.591-2.027,1.614-.493.007-.822-.01-.758-.659a3.328,3.328,0,0,0-.184-1.082,7.276,7.276,0,0,0-14.334,1.244c-.027.391-.111.515-.514.5-.823-.035-1.649-.019-2.473-.008a1.065,1.065,0,0,0-1.162,1.389q.994,4.967,2,9.932c.2.98.454,1.175,1.457,1.175h15.754c.2,0,.392-.011.585.007a1.035,1.035,0,0,1,.04,2.066,5.081,5.081,0,0,1-.585.009q-7.909,0-15.819,0a4.728,4.728,0,0,0-.97.066,3.118,3.118,0,0,0,.655,6.177C512.818,823.735,515.877,823.726,518.937,823.727Zm14.745-1.054a1.041,1.041,0,1,0-1.014,1.052A1.047,1.047,0,0,0,533.682,822.673Z" transform="translate(-502.427 -781.022)" fill="#e9edf0"/>
      <path id="Trazado_633860" data-name="Trazado 633860" d="M628.292,892.445a6.589,6.589,0,0,0,1.063-4.3c-.019-9.436,0-18.873-.024-28.309,0-.6.162-.781.748-.733a14.452,14.452,0,0,0,1.886,0c.395-.019.525.092.515.5-.029,1.127-.013,2.256-.009,3.384,0,.836.365,1.306,1.012,1.324.669.02,1.068-.472,1.071-1.331,0-1.106.015-2.213-.006-3.319-.008-.393.058-.567.519-.564q4.687.032,9.374,0c.424,0,.553.113.543.541-.029,1.149-.015,2.3-.008,3.449.005.764.412,1.228,1.047,1.223s1.028-.468,1.033-1.238c.007-1.15.015-2.3-.005-3.449-.007-.374.061-.539.49-.527,1.106.032,2.213.024,3.32,0,.363-.007.472.11.5.472q.775,9.071,1.58,18.138.616,6.963,1.253,13.924c.073.8.077.8-.747.8H628.292Zm6.26-24.972a1.041,1.041,0,1,0-1.049,1.015A1.047,1.047,0,0,0,634.552,867.473Zm12.5-.023a1.04,1.04,0,1,0-1.026,1.038A1.045,1.045,0,0,0,647.054,867.449Z" transform="translate(-593.923 -834.117)" fill="#4584c5"/>
      <path id="Trazado_633861" data-name="Trazado 633861" d="M520.911,773.418q-7.388,0-14.777,0c-.186,0-.442.1-.545-.069-.13-.212.1-.4.211-.57a3.165,3.165,0,0,1,2.818-1.443q8.918.008,17.836,0c2.3,0,4.6-.007,6.9,0a3.119,3.119,0,0,1,2.761,1.549c.246.386.24.544-.3.539-2.3-.021-4.6-.009-6.9-.009Z" transform="translate(-503.205 -769.251)" fill="#9aa2a6"/>
      <path id="Trazado_633862" data-name="Trazado 633862" d="M520.914,978.858q7.388,0,14.776,0c.188,0,.445-.1.549.063.137.209-.092.4-.2.57a3.152,3.152,0,0,1-2.814,1.449q-7.453-.007-14.906,0-4.882,0-9.764,0a3.107,3.107,0,0,1-2.786-1.5c-.1-.157-.3-.325-.177-.517.1-.151.32-.064.485-.065Q513.493,978.856,520.914,978.858Z" transform="translate(-503.204 -922.613)" fill="#9aa2a6"/>
      <path id="Trazado_633863" data-name="Trazado 633863" d="M524.865,847.347c-3.06,0-6.119.009-9.179,0a3.118,3.118,0,0,1-.655-6.177,4.728,4.728,0,0,1,.97-.066q7.909-.005,15.819,0a5.08,5.08,0,0,0,.585-.009,1.035,1.035,0,0,0-.04-2.066c-.194-.018-.39-.007-.586-.007H516.026c-1,0-1.258-.2-1.457-1.175q-1.009-4.964-2-9.932a1.065,1.065,0,0,1,1.162-1.389c.824-.011,1.65-.027,2.473.008.4.017.488-.107.514-.5a7.276,7.276,0,0,1,14.334-1.244,3.33,3.33,0,0,1,.184,1.082c-.064.649.265.665.758.659,1.664-.022,1.664-.008,2.027-1.614.129-.57.254-1.141.4-1.707a1.03,1.03,0,0,1,1.076-.852c1,0,2-.013,2.994,0a1.037,1.037,0,0,1,1.117,1.019,1.049,1.049,0,0,1-1.147,1.057c-.629.013-1.259.018-1.887,0-.3-.01-.409.1-.476.386-.936,3.962-1.652,7.97-2.48,11.955-.063.3.035.445.292.615a3.093,3.093,0,0,1-.335,5.518c-.32.156-.428.292-.308.621a1.766,1.766,0,0,1,.05,1.154c-.211.613.1.6.54.6,1.083-.016,1.563.3,1.584,1.006.021.726-.491,1.071-1.591,1.071Zm-.838-26.039a5.208,5.208,0,1,0,5.165,5.249A5.217,5.217,0,0,0,524.026,821.308Zm-5.409,23.931h8.646a3.491,3.491,0,0,1,0-2.033h-8.646A3.406,3.406,0,0,1,518.618,845.239Zm-1.887-13.515a8.7,8.7,0,0,1,.907.006c.414.044.5-.114.481-.512-.032-.539-.49-.882-.582-1.348-.266-1.345-1.193-1.377-2.256-1.283-.344.03-.461.1-.369.45.124.48.208.97.309,1.456C515.477,831.724,515.477,831.724,516.73,831.724Zm14.426,0a5.513,5.513,0,0,1,.778.007c.473.068.632-.13.7-.587.1-.725.279-1.439.436-2.156.059-.268.015-.4-.3-.393-.5.017-.994,0-1.491,0-.154,0-.314,0-.369.187a15.558,15.558,0,0,1-.951,1.978c-.33.729-.148.959.619.96Zm-13.961,2.082c-.259,0-.52.02-.777,0-.437-.042-.562.085-.443.54.19.729.306,1.476.454,2.216.028.143.009.345.208.353a4.149,4.149,0,0,0,1.906-.074c.312-.15-.011-.789-.02-1.21a7.094,7.094,0,0,0-.05-.71C518.337,833.805,518.335,833.806,517.195,833.806Zm5.746,1.548c0-.346-.023-.695.006-1.039.033-.386-.078-.55-.5-.518a7.765,7.765,0,0,1-1.427,0c-.559-.06-.593.208-.529.642a14.683,14.683,0,0,1,.2,1.869c.008.511.182.644.682.636C522.941,836.918,522.941,836.94,522.941,835.354Zm2.084.018c0,1.571,0,1.571,1.583,1.559.087,0,.174-.005.26,0,.23.015.353-.056.375-.317.068-.8.155-1.593.247-2.388.034-.294-.03-.46-.368-.423a4.786,4.786,0,0,1-.519,0C525.025,833.806,525.025,833.806,525.025,835.372Zm5.824-1.565c-.3,0-.6.007-.907,0-.236-.008-.344.074-.365.327-.068.795-.155,1.588-.247,2.381-.033.291.033.409.367.429,1.769.107,1.769.118,2.1-1.638.016-.085.024-.171.042-.255C532.092,833.806,532.092,833.806,530.849,833.806Zm-14.161,10.4a1.041,1.041,0,1,0-1.006,1.06A1.043,1.043,0,0,0,516.689,844.2Zm14.586-.014a1.041,1.041,0,1,0-.992,1.074A1.043,1.043,0,0,0,531.274,844.188Z" transform="translate(-508.355 -804.642)" fill="#020101"/>
      <path id="Trazado_633864" data-name="Trazado 633864" d="M610.453,920.08a1.041,1.041,0,1,1-1.036-1.029A1.049,1.049,0,0,1,610.453,920.08Z" transform="translate(-579.199 -878.429)" fill="#0b0b0b"/>
      <path id="Trazado_633865" data-name="Trazado 633865" d="M646.392,888.181a1.041,1.041,0,1,1-1-1.065A1.046,1.046,0,0,1,646.392,888.181Z" transform="translate(-605.762 -854.825)" fill="#030609"/>
      <path id="Trazado_633866" data-name="Trazado 633866" d="M694.31,888.159a1.04,1.04,0,1,1-1.022-1.042A1.046,1.046,0,0,1,694.31,888.159Z" transform="translate(-641.179 -854.827)" fill="#030609"/>
      <path id="Trazado_633867" data-name="Trazado 633867" d="M541.748,827.232a5.208,5.208,0,1,1-5.252,5.162A5.217,5.217,0,0,1,541.748,827.232Zm3.079,4.088a1.015,1.015,0,0,0-.613-.861.993.993,0,0,0-1.189.23c-.668.647-1.33,1.3-1.97,1.975-.271.286-.441.349-.772.043a.966.966,0,0,0-1.4.046,1.016,1.016,0,0,0,0,1.458c.3.339.629.655.96.966a1.037,1.037,0,0,0,1.648-.011c.99-.967,1.96-1.954,2.94-2.932A1.184,1.184,0,0,0,544.827,831.32Z" transform="translate(-526.077 -810.566)" fill="#f2b64f"/>
      <path id="Trazado_633868" data-name="Trazado 633868" d="M535.885,913.193a3.407,3.407,0,0,0,0-2.034h8.646a3.491,3.491,0,0,0,0,2.034Z" transform="translate(-525.623 -872.596)" fill="#e9edf0"/>
      <path id="Trazado_633869" data-name="Trazado 633869" d="M523.424,858.177c-1.253,0-1.253,0-1.51-1.231-.1-.486-.186-.976-.309-1.456-.091-.355.026-.42.369-.45,1.063-.094,1.99-.062,2.256,1.283.092.467.55.809.582,1.348.024.4-.067.556-.481.512A8.693,8.693,0,0,0,523.424,858.177Z" transform="translate(-515.049 -831.095)" fill="#d54e46"/>
      <path id="Trazado_633870" data-name="Trazado 633870" d="M580.1,858.287h-.584c-.768,0-.949-.231-.619-.96a15.558,15.558,0,0,0,.951-1.978c.055-.187.214-.187.369-.187.5,0,.995.013,1.491,0,.316-.011.359.125.3.393-.157.716-.336,1.431-.436,2.156-.063.457-.222.654-.7.587A5.513,5.513,0,0,0,580.1,858.287Z" transform="translate(-557.299 -831.205)" fill="#d54e46"/>
      <path id="Trazado_633871" data-name="Trazado 633871" d="M526.866,875.1c1.14,0,1.142,0,1.279,1.11a7.094,7.094,0,0,1,.05.71c.009.42.331,1.06.02,1.21a4.149,4.149,0,0,1-1.906.074c-.2-.008-.18-.21-.208-.353-.148-.739-.264-1.487-.454-2.216-.119-.455.006-.582.443-.54C526.345,875.12,526.607,875.1,526.866,875.1Z" transform="translate(-518.026 -845.936)" fill="#d54e46"/>
      <path id="Trazado_633872" data-name="Trazado 633872" d="M545.468,876.631c0,1.586,0,1.564-1.565,1.589-.5.008-.674-.125-.682-.636a14.683,14.683,0,0,0-.2-1.869c-.063-.434-.03-.7.529-.642a7.765,7.765,0,0,0,1.427,0c.419-.033.529.131.5.518C545.445,875.937,545.468,876.285,545.468,876.631Z" transform="translate(-530.882 -845.919)" fill="#d74f46"/>
      <path id="Trazado_633873" data-name="Trazado 633873" d="M560.453,876.679c0-1.565,0-1.565,1.577-1.565a4.786,4.786,0,0,0,.519,0c.338-.037.4.13.368.423-.092.795-.179,1.591-.247,2.388-.022.261-.146.333-.375.317-.086-.006-.173,0-.26,0C560.453,878.25,560.453,878.25,560.453,876.679Z" transform="translate(-543.783 -845.949)" fill="#d74f46"/>
      <path id="Trazado_633874" data-name="Trazado 633874" d="M578.454,875.129c1.243,0,1.243,0,.985,1.241-.017.085-.026.171-.042.255-.326,1.755-.326,1.744-2.1,1.638-.333-.02-.4-.138-.367-.429.091-.793.178-1.586.247-2.381.022-.253.13-.334.365-.327C577.849,875.136,578.151,875.129,578.454,875.129Z" transform="translate(-555.959 -845.964)" fill="#d54e46"/>
      <path id="Trazado_633875" data-name="Trazado 633875" d="M522.605,912.088a1.041,1.041,0,1,1-1.044-1.021A1.046,1.046,0,0,1,522.605,912.088Z" transform="translate(-514.272 -872.528)" fill="#666b6d"/>
      <path id="Trazado_633876" data-name="Trazado 633876" d="M578.509,912.073a1.041,1.041,0,1,1-1.058-1.007A1.048,1.048,0,0,1,578.509,912.073Z" transform="translate(-555.59 -872.528)" fill="#666b6d"/>
      <path id="Trazado_633877" data-name="Trazado 633877" d="M550.722,840.158a1.183,1.183,0,0,1-.4.913c-.979.978-1.95,1.965-2.94,2.932a1.037,1.037,0,0,1-1.648.011c-.331-.31-.659-.627-.96-.966a1.016,1.016,0,0,1,0-1.458.966.966,0,0,1,1.4-.046c.331.306.5.243.772-.043.64-.674,1.3-1.328,1.97-1.975a.993.993,0,0,1,1.189-.23A1.015,1.015,0,0,1,550.722,840.158Z" transform="translate(-531.971 -819.404)" fill="#060502"/>
    </g>
  </g>
</svg>
