<svg xmlns="http://www.w3.org/2000/svg" width="82" height="82" viewBox="0 0 82 82">
  <g id="Grupo_956676" data-name="Grupo 956676" transform="translate(-303 -3929)">
    <g id="Grupo_951854" data-name="Grupo 951854" transform="translate(303 3929)">
      <path id="Trazado_621807" data-name="Trazado 621807" d="M41,0A41,41,0,1,1,0,41,41,41,0,0,1,41,0Z" fill="#ef8b53"/>
    </g>
    <g id="Grupo_962305" data-name="Grupo 962305" transform="translate(878.875 3452.173)">
      <path id="Trazado_634264" data-name="Trazado 634264" d="M-516.142,499.9c-.163-1.067.167-1.5,1.247-1.692a15.807,15.807,0,0,1,3-.108c.448.006.64-.071.615-.58-.046-.924-.024-1.852-.011-2.777a2.747,2.747,0,0,0-.868-2.067q-3.554-3.54-7.09-7.1a.774.774,0,0,0-.937-.2,3.584,3.584,0,0,1-4.536-2.368,3.645,3.645,0,0,1,2.405-4.536,3.606,3.606,0,0,1,4.54,2.492,2.872,2.872,0,0,1,0,1.894,1.049,1.049,0,0,0,.362,1.31c2.221,2.181,4.391,4.414,6.623,6.583a5.5,5.5,0,0,1,1.83,4.395c-.038.821.011,1.646-.014,2.469-.011.372.112.466.479.484,2.16.107,2.159.118,2.16-2.033,0-.9-.015-1.8,0-2.7s.467-1.44,1.163-1.442,1.142.534,1.152,1.441c.015,1.389.02,2.779-.005,4.167-.008.431.1.6.553.565.663-.046,1.523.206,1.942-.123.441-.347.141-1.245.142-1.9q.018-7.987.007-15.974c0-1.2.351-1.754,1.123-1.782.8-.029,1.2.56,1.2,1.784,0,5.736.012,11.473-.016,17.209,0,.643.151.866.8.79.582-.068,1.362.174,1.713-.123.414-.351.116-1.154.133-1.759.027-.977-.008-1.955.013-2.932.018-.844.478-1.365,1.152-1.362s1.143.515,1.158,1.366q.038,2.121,0,4.244c-.007.427.1.6.549.563.663-.049,1.523.2,1.943-.127.441-.346.137-1.244.142-1.9.017-2.521,0-5.042.015-7.562a.838.838,0,0,0-.518-.89,3.574,3.574,0,0,1-1.86-4.092,3.678,3.678,0,0,1,3.5-2.743,3.683,3.683,0,0,1,3.529,2.7,3.566,3.566,0,0,1-1.813,4.111.842.842,0,0,0-.533.878q.028,4.514,0,9.029c0,.479.123.612.6.595a11.633,11.633,0,0,1,3.376.2,6.149,6.149,0,0,1,4.7,6.177c.011.617.018,1.235,0,1.852-.013.34.107.441.44.434,1.054-.021,2.11-.011,3.164-.02a2.485,2.485,0,0,0,1.772-.815q3.574-3.574,7.153-7.144a.717.717,0,0,0,.2-.866,3.6,3.6,0,0,1,2.376-4.6,3.624,3.624,0,0,1,4.537,2.507,3.594,3.594,0,0,1-2.6,4.472,2.931,2.931,0,0,1-1.894-.057.887.887,0,0,0-1.118.3c-2.223,2.251-4.492,4.458-6.7,6.725a5.5,5.5,0,0,1-4.4,1.814c-.8-.038-1.6.008-2.393-.013-.375-.01-.526.069-.542.5-.08,2.138-.1,2.138,2.058,2.138.849,0,1.7-.007,2.547,0,1.02.011,1.59.446,1.575,1.187-.015.72-.554,1.126-1.539,1.132-1.338.009-2.676.017-4.014-.006-.436-.008-.677.054-.622.574.07.659-.268,1.522.125,1.936s1.262.125,1.921.127q7.95.016,15.9.006c1.26,0,1.826.354,1.839,1.145s-.563,1.178-1.806,1.178c-5.737,0-11.475.008-17.213-.011-.569,0-.852.095-.767.737.08.606-.249,1.4.125,1.786s1.168.1,1.777.116c.977.021,1.956-.01,2.933.012.833.019,1.359.5,1.341,1.172a1.194,1.194,0,0,1-1.311,1.133c-1.415.03-2.83.025-4.245,0-.433-.007-.675.049-.62.57.07.66-.267,1.525.127,1.938s1.262.122,1.921.126c2.5.014,4.991,0,7.487.014a.887.887,0,0,0,.96-.536,3.555,3.555,0,0,1,4.1-1.834,3.666,3.666,0,0,1,2.724,3.513,3.686,3.686,0,0,1-2.726,3.513A3.568,3.568,0,0,1-470,529.4a.838.838,0,0,0-.889-.513c-2.959.015-5.918.031-8.876-.011-.652-.009-.746.222-.729.781a13.513,13.513,0,0,1-.118,2.924c-.189,1.007-.657,1.339-1.681,1.162a1.353,1.353,0,0,1-.637-1.453,12.4,12.4,0,0,0,.123-1.534q.011-12.964,0-25.928c0-2.908-1.513-4.42-4.423-4.42-6.715,0-13.43-.016-20.145.008a69.783,69.783,0,0,0-7.477.127A1.287,1.287,0,0,1-516.142,499.9Zm-5.122-16.655a1.313,1.313,0,0,0,1.3-1.259,1.321,1.321,0,0,0-1.284-1.353,1.367,1.367,0,0,0-1.32,1.34A1.357,1.357,0,0,0-521.264,483.249Zm56.954,14.837a1.323,1.323,0,0,0,1.29-1.27,1.365,1.365,0,0,0-1.323-1.338,1.371,1.371,0,0,0-1.289,1.294A1.312,1.312,0,0,0-464.31,498.086Zm-24.71-13.637a1.333,1.333,0,0,0-1.306-1.336,1.311,1.311,0,0,0-1.277,1.278,1.292,1.292,0,0,0,1.219,1.327A1.314,1.314,0,0,0-489.02,484.449Zm22.245,44.576a1.338,1.338,0,0,0,1.281-1.287,1.3,1.3,0,0,0-1.335-1.3,1.29,1.29,0,0,0-1.272,1.274A1.313,1.313,0,0,0-466.775,529.025Z" transform="translate(-33.173)" fill="#060606"/>
      <path id="Trazado_634265" data-name="Trazado 634265" d="M-517.466,588.333c.162,1.071-.164,1.5-1.247,1.691a15.812,15.812,0,0,1-3,.109c-.446-.006-.641.069-.616.579.046.924.024,1.852.011,2.778a2.745,2.745,0,0,0,.868,2.067c2.369,2.36,4.744,4.716,7.085,7.1.355.362.627.273,1.013.161a3.61,3.61,0,0,1,4.488,2.471,3.63,3.63,0,0,1-2.5,4.481,3.592,3.592,0,0,1-4.467-2.5,2.873,2.873,0,0,1,.023-1.967c.235-.542.024-.829-.33-1.18-2.213-2.189-4.381-4.424-6.622-6.584a5.639,5.639,0,0,1-1.887-4.6c.044-.769-.01-1.543.014-2.314.011-.366-.1-.469-.475-.488-2.164-.112-2.164-.123-2.164,2.029,0,.9.014,1.8,0,2.7s-.462,1.442-1.157,1.447-1.148-.532-1.157-1.435c-.015-1.389-.019-2.778,0-4.167.007-.42-.087-.617-.545-.57-.684.07-1.573-.283-2,.154-.326.336-.1,1.22-.1,1.86q0,7.987,0,15.974c0,1.229-.393,1.814-1.194,1.79-.774-.024-1.129-.579-1.129-1.777,0-5.736-.011-11.473.015-17.209,0-.632-.13-.878-.79-.8-.581.07-1.358-.176-1.715.12-.422.349-.119,1.152-.137,1.756-.029.977.007,1.955-.013,2.932-.017.848-.471,1.367-1.145,1.369s-1.149-.513-1.165-1.359c-.026-1.414-.022-2.83,0-4.244.007-.419-.081-.615-.542-.568-.685.07-1.576-.281-2,.153-.327.333-.094,1.223-.1,1.865,0,2.521.006,5.042-.008,7.563a.836.836,0,0,0,.512.894,3.575,3.575,0,0,1,1.869,4.088,3.68,3.68,0,0,1-3.5,2.749,3.683,3.683,0,0,1-3.534-2.7,3.587,3.587,0,0,1,1.87-4.156.728.728,0,0,0,.473-.755q-.021-4.553,0-9.106c0-.467-.1-.617-.591-.6a11.4,11.4,0,0,1-3.448-.219,6.125,6.125,0,0,1-4.635-6.146c-.011-.617-.017-1.235,0-1.852.012-.332-.09-.449-.433-.441-1.08.024-2.161.014-3.241.027a2.328,2.328,0,0,0-1.641.75c-2.423,2.415-4.836,4.841-7.265,7.251a.666.666,0,0,0-.151.809,3.6,3.6,0,0,1-2.371,4.6,3.626,3.626,0,0,1-4.543-2.5,3.594,3.594,0,0,1,2.6-4.477,2.946,2.946,0,0,1,1.894.052.891.891,0,0,0,1.121-.293c2.24-2.271,4.524-4.5,6.755-6.779a5.425,5.425,0,0,1,4.267-1.766c.822.031,1.647-.007,2.47.011.365.008.533-.05.55-.492.083-2.145.1-2.144-2.052-2.144-.9,0-1.8.016-2.7,0s-1.436-.481-1.427-1.177.54-1.128,1.456-1.137c1.363-.013,2.727-.017,4.091,0,.425.007.68-.036.63-.567-.061-.66.2-1.529-.135-1.935-.348-.425-1.249-.132-1.907-.134q-7.989-.015-15.978-.006c-1.191,0-1.75-.363-1.768-1.138-.018-.8.56-1.184,1.8-1.184,5.712,0,11.424-.01,17.135.013.626,0,.888-.076.864-.809-.062-1.836-.018-1.838-1.831-1.838-.952,0-1.9.008-2.856,0s-1.516-.452-1.5-1.17.558-1.14,1.536-1.148c1.338-.011,2.676-.016,4.013,0,.423.007.678-.032.628-.563-.063-.661.2-1.53-.137-1.938-.349-.426-1.25-.128-1.907-.132-2.5-.015-4.991,0-7.487-.013a.884.884,0,0,0-.963.53,3.558,3.558,0,0,1-4.1,1.843,3.674,3.674,0,0,1-2.729-3.51,3.687,3.687,0,0,1,2.72-3.518,3.569,3.569,0,0,1,4.1,1.83.84.84,0,0,0,.886.519c2.985-.016,5.969-.025,8.953.006.568.006.673-.177.659-.694a14.332,14.332,0,0,1,.106-2.925c.194-1.08.624-1.409,1.692-1.247a1.358,1.358,0,0,1,.637,1.454,12.392,12.392,0,0,0-.124,1.534q-.011,12.964,0,25.928c0,2.908,1.513,4.42,4.422,4.421,6.715,0,13.43.017,20.145-.008a69.791,69.791,0,0,0,7.477-.126A1.288,1.288,0,0,1-517.466,588.333Zm-50.512,3.108a1.307,1.307,0,0,0-1.346-1.288,1.319,1.319,0,0,0-1.267,1.294,1.363,1.363,0,0,0,1.349,1.31A1.359,1.359,0,0,0-567.978,591.441Zm56.94,14.889a1.354,1.354,0,0,0-1.238-1.338,1.312,1.312,0,0,0-1.367,1.264,1.322,1.322,0,0,0,1.216,1.342A1.362,1.362,0,0,0-511.037,606.329Zm-55.745-47.116a1.334,1.334,0,0,0-1.33,1.312,1.315,1.315,0,0,0,1.283,1.273,1.294,1.294,0,0,0,1.322-1.225A1.314,1.314,0,0,0-566.783,559.213Zm23.5,45.912a1.313,1.313,0,0,0,1.281-1.274,1.291,1.291,0,0,0-1.291-1.333,1.313,1.313,0,0,0-1.291,1.267A1.33,1.33,0,0,0-543.286,605.125Z" transform="translate(0 -52.581)" fill="#060606"/>
      <path id="Trazado_634266" data-name="Trazado 634266" d="M-469.258,583.95a1.288,1.288,0,0,0-1.3-.643,69.807,69.807,0,0,1-7.477.126c-6.715.025-13.43.009-20.145.008-2.909,0-4.422-1.513-4.422-4.421q0-12.964,0-25.928a12.392,12.392,0,0,1,.124-1.534,1.358,1.358,0,0,0-.637-1.454,4,4,0,0,1,2-2,1.287,1.287,0,0,0,1.3.643,69.8,69.8,0,0,1,7.477-.126c6.715-.024,13.43-.009,20.145-.008,2.909,0,4.422,1.513,4.423,4.42q0,12.964,0,25.928a12.4,12.4,0,0,1-.123,1.534,1.353,1.353,0,0,0,.637,1.453A3.984,3.984,0,0,1-469.258,583.95Zm-1.1-17.928q0-6.557,0-13.115c0-1.343-.351-1.7-1.671-1.7h-26.237c-1.4,0-1.741.335-1.741,1.71q0,13.115,0,26.231c0,1.343.351,1.7,1.671,1.7h26.314c1.294,0,1.663-.362,1.663-1.633Q-470.358,572.618-470.359,566.022Z" transform="translate(-48.207 -48.198)" fill="#72d0c5"/>
      <path id="Trazado_634267" data-name="Trazado 634267" d="M-516.116,488.423a1.357,1.357,0,0,1-1.307-1.273,1.367,1.367,0,0,1,1.32-1.34,1.321,1.321,0,0,1,1.284,1.353A1.313,1.313,0,0,1-516.116,488.423Z" transform="translate(-38.322 -5.174)" fill="#a4dfd7"/>
      <path id="Trazado_634268" data-name="Trazado 634268" d="M-332.02,536.4a1.312,1.312,0,0,1-1.322-1.315,1.371,1.371,0,0,1,1.289-1.294,1.365,1.365,0,0,1,1.323,1.338A1.323,1.323,0,0,1-332.02,536.4Z" transform="translate(-165.464 -38.312)" fill="#a4dfd7"/>
      <path id="Trazado_634269" data-name="Trazado 634269" d="M-414.722,495.153a1.314,1.314,0,0,1-1.364,1.27A1.292,1.292,0,0,1-417.3,495.1a1.311,1.311,0,0,1,1.277-1.278A1.333,1.333,0,0,1-414.722,495.153Z" transform="translate(-107.472 -10.704)" fill="#70cdc1"/>
      <path id="Trazado_634270" data-name="Trazado 634270" d="M-340,636.478a1.313,1.313,0,0,1-1.326-1.309,1.29,1.29,0,0,1,1.272-1.274,1.3,1.3,0,0,1,1.335,1.3A1.338,1.338,0,0,1-340,636.478Z" transform="translate(-159.95 -107.453)" fill="#70cdc1"/>
      <path id="Trazado_634271" data-name="Trazado 634271" d="M-562.8,671.167a1.359,1.359,0,0,1-1.263,1.316,1.363,1.363,0,0,1-1.349-1.31,1.319,1.319,0,0,1,1.267-1.294A1.307,1.307,0,0,1-562.8,671.167Z" transform="translate(-5.174 -132.307)" fill="#a4dfd7"/>
      <path id="Trazado_634272" data-name="Trazado 634272" d="M-378.7,719.183a1.362,1.362,0,0,1-1.389,1.267,1.322,1.322,0,0,1-1.216-1.342,1.312,1.312,0,0,1,1.368-1.264A1.354,1.354,0,0,1-378.7,719.183Z" transform="translate(-132.333 -165.435)" fill="#a4dfd7"/>
      <path id="Trazado_634273" data-name="Trazado 634273" d="M-556.078,569.853a1.314,1.314,0,0,1,1.275,1.359,1.294,1.294,0,0,1-1.322,1.225,1.315,1.315,0,0,1-1.283-1.273A1.334,1.334,0,0,1-556.078,569.853Z" transform="translate(-10.705 -63.221)" fill="#70cdc1"/>
      <path id="Trazado_634274" data-name="Trazado 634274" d="M-480.051,712.461a1.33,1.33,0,0,1-1.3-1.34,1.313,1.313,0,0,1,1.291-1.267,1.291,1.291,0,0,1,1.291,1.333A1.313,1.313,0,0,1-480.051,712.461Z" transform="translate(-63.235 -159.917)" fill="#70cdc1"/>
      <path id="Trazado_634275" data-name="Trazado 634275" d="M-463.432,572.948q0,6.6,0,13.193c0,1.27-.37,1.632-1.663,1.633h-26.314c-1.32,0-1.671-.358-1.671-1.7q0-13.116,0-26.231c0-1.375.342-1.71,1.741-1.71H-465.1c1.32,0,1.671.358,1.671,1.7Q-463.431,566.391-463.432,572.948Zm-27.123,3.725a5.131,5.131,0,0,0,1.245,3.471,5.643,5.643,0,0,1,1.952,3.3.823.823,0,0,0,.14.271,5.576,5.576,0,0,0,8.442,1.413c.226-.2.4-.66.846-.2a5.512,5.512,0,0,0,3.6,1.536,5.273,5.273,0,0,0,5.464-3.923,1.385,1.385,0,0,1,.621-.978,5.07,5.07,0,0,0,1.03-7.553c-.294-.367-.277-.59.03-.9a4,4,0,0,0,.862-1.442,5.273,5.273,0,0,0-3.305-6.83c-.465-.177-.655-.345-.563-.865a3.262,3.262,0,0,0-.425-2.148,4.82,4.82,0,0,0-7.131-1.376c-.287.225-.49.463-.9.109a4.7,4.7,0,0,0-3.959-1.042,4.266,4.266,0,0,0-3.718,4.378c.067.586-.114.773-.624.974a5.207,5.207,0,0,0-2.62,7.94c.247.337.118.539-.062.806A5.744,5.744,0,0,0-490.555,576.673Z" transform="translate(-55.135 -55.124)" fill="#a8e5dd"/>
      <path id="Trazado_634276" data-name="Trazado 634276" d="M-484.913,579.574a5.743,5.743,0,0,1,.924-3.063c.18-.267.309-.469.062-.806a5.207,5.207,0,0,1,2.62-7.94c.51-.2.691-.389.624-.974a4.266,4.266,0,0,1,3.718-4.378,4.7,4.7,0,0,1,3.959,1.042c.406.354.609.116.9-.109a4.82,4.82,0,0,1,7.131,1.376,3.263,3.263,0,0,1,.425,2.148c-.092.52.1.688.563.865a5.273,5.273,0,0,1,3.305,6.83,4,4,0,0,1-.862,1.442c-.307.313-.324.537-.03.9a5.07,5.07,0,0,1-1.03,7.554,1.385,1.385,0,0,0-.62.978,5.273,5.273,0,0,1-5.464,3.923,5.512,5.512,0,0,1-3.6-1.536c-.448-.457-.62,0-.846.2a5.576,5.576,0,0,1-8.442-1.413.824.824,0,0,1-.139-.271,5.643,5.643,0,0,0-1.952-3.3A5.131,5.131,0,0,1-484.913,579.574Zm13.527-6.647c.275.049.45-.141.656-.228a5.288,5.288,0,0,1,2.324-.45,1.046,1.046,0,0,1,1.092,1.07,1.039,1.039,0,0,1-.9,1.161c-.2.042-.4.076-.608.1a2.7,2.7,0,0,0-2.635,2.993c-.006,2.16.046,4.321-.015,6.479a2.829,2.829,0,0,0,2.98,3.009A2.678,2.678,0,0,0-465.519,584c-.229-1.045-1.053-1.507-1.931-1.93a1.131,1.131,0,0,1-.641-1.525,1.172,1.172,0,0,1,1.56-.561,4.788,4.788,0,0,1,2.542,1.9c.306.475.478.366.753,0,1.053-1.391.675-3.1-.951-4.231-1.128-.783-1.155-1.59-.041-2.337a2.927,2.927,0,0,0,1.5-3.183,3.44,3.44,0,0,0-2.855-2.474,5.519,5.519,0,0,0-2.5.261,1.137,1.137,0,0,1-1.432-.711,1.139,1.139,0,0,1,.7-1.445,6.219,6.219,0,0,1,1.025-.325c1.01-.245,1.3-.954.664-1.81a2.38,2.38,0,0,0-2.523-.93,2.011,2.011,0,0,0-1.775,1.76c-.13.7-.395,1.242-1.209,1.228-.77-.012-1.075-.525-1.143-1.2a1.978,1.978,0,0,0-1.326-1.65,2.626,2.626,0,0,0-2.843.58c-.569.63-.57,1.289,0,2.321a1.133,1.133,0,0,1-.937,1.827,5.49,5.49,0,0,0-2.062.566,2.951,2.951,0,0,0-1.392,3.745c.21.474.416.7.956.348a3.693,3.693,0,0,1,1.738-.571,1.02,1.02,0,0,1,1.156.806,1.066,1.066,0,0,1-.618,1.343c-.442.2-.928.311-1.359.531a3.5,3.5,0,0,0-1.511,5.131c.307.457.551.757,1.012.086a1.171,1.171,0,0,1,1.777-.4c.554.449.566,1.109-.008,1.828a2.285,2.285,0,0,0-.539,2,2.945,2.945,0,0,0,3.064,2.076,2.774,2.774,0,0,0,2.848-2.309c.07-.688.018-1.387.054-2.079A2.771,2.771,0,0,0-475.6,579.7c-.847-.357-1.122-.977-.838-1.634.272-.628.955-.814,1.784-.485a1.472,1.472,0,0,1,.281.125c.548.369.611.091.606-.409-.015-1.851-.021-3.7,0-5.554a1.167,1.167,0,0,1,1.137-1.291c.655-.006,1.1.482,1.17,1.267A4.425,4.425,0,0,0-471.386,572.927Z" transform="translate(-60.776 -58.025)" fill="#040505"/>
      <path id="Trazado_634277" data-name="Trazado 634277" d="M-466.176,578.1a4.425,4.425,0,0,1-.071-1.2c-.068-.786-.515-1.274-1.17-1.267a1.167,1.167,0,0,0-1.137,1.291c-.026,1.851-.02,3.7,0,5.554,0,.5-.058.777-.606.409a1.472,1.472,0,0,0-.281-.125c-.829-.329-1.513-.142-1.784.485-.284.656-.009,1.277.838,1.634a2.771,2.771,0,0,1,1.831,2.973c-.036.692.016,1.392-.054,2.079a2.774,2.774,0,0,1-2.848,2.309,2.945,2.945,0,0,1-3.064-2.076,2.285,2.285,0,0,1,.539-2c.574-.719.562-1.378.008-1.828a1.171,1.171,0,0,0-1.777.4c-.462.671-.705.371-1.012-.086a3.5,3.5,0,0,1,1.511-5.131c.431-.22.917-.33,1.359-.531a1.066,1.066,0,0,0,.618-1.343,1.02,1.02,0,0,0-1.156-.806,3.693,3.693,0,0,0-1.738.571c-.54.35-.746.127-.956-.348a2.951,2.951,0,0,1,1.392-3.745,5.489,5.489,0,0,1,2.062-.566,1.133,1.133,0,0,0,.937-1.827c-.568-1.032-.567-1.691,0-2.32a2.626,2.626,0,0,1,2.843-.58,1.978,1.978,0,0,1,1.326,1.65c.068.677.373,1.19,1.143,1.2.815.013,1.079-.531,1.209-1.228a2.011,2.011,0,0,1,1.775-1.76,2.38,2.38,0,0,1,2.523.93c.634.856.346,1.565-.664,1.81a6.219,6.219,0,0,0-1.025.324,1.14,1.14,0,0,0-.7,1.445,1.137,1.137,0,0,0,1.432.711,5.52,5.52,0,0,1,2.5-.261,3.44,3.44,0,0,1,2.855,2.474,2.927,2.927,0,0,1-1.5,3.183c-1.114.747-1.087,1.554.041,2.337,1.626,1.128,2,2.84.951,4.231-.276.364-.447.473-.753,0a4.789,4.789,0,0,0-2.542-1.9,1.172,1.172,0,0,0-1.56.561,1.131,1.131,0,0,0,.641,1.525c.878.423,1.7.885,1.931,1.93a2.678,2.678,0,0,1-2.969,3.058,2.829,2.829,0,0,1-2.98-3.009c.062-2.158.009-4.319.015-6.479a2.7,2.7,0,0,1,2.635-2.993c.2-.027.407-.06.608-.1a1.039,1.039,0,0,0,.9-1.161,1.046,1.046,0,0,0-1.092-1.07,5.288,5.288,0,0,0-2.324.45C-465.726,577.959-465.9,578.149-466.176,578.1Z" transform="translate(-65.986 -63.198)" fill="#d0f0ec"/>
    </g>
  </g>
</svg>
