<svg xmlns="http://www.w3.org/2000/svg" width="73" height="73" viewBox="0 0 73 73">
  <g id="Grupo_962294" data-name="Grupo 962294" transform="translate(-616 -21244.999)">
    <circle id="Elipse_7762" data-name="Elipse 7762" cx="36.5" cy="36.5" r="36.5" transform="translate(616 21245)" fill="#f0bd51"/>
    <g id="Grupo_962295" data-name="Grupo 962295" transform="translate(4.574 20904.416)">
      <path id="Trazado_629927" data-name="Trazado 629927" d="M623.356,403.033a1.213,1.213,0,0,1-1.4,1.052c-2.454-.022-4.909,0-7.364-.012a1.784,1.784,0,0,1-2-2.046q0-26.464,0-52.927a2.472,2.472,0,0,1,2.644-2.691q16.446-.011,32.893,0a2.461,2.461,0,0,1,2.617,2.646q.007,9.709,0,19.418c0,.424-.01.649.568.607,7.793-.567,13.859,2.461,18.211,8.9a18.551,18.551,0,0,1,2.961,8.506c.03.274-.163.714.21.789a1.2,1.2,0,0,0,1.331-.319c.678-.833,1.445-1.592,2.142-2.409a2.286,2.286,0,0,1,1.911-.83c1.426.024,2.852,0,4.278.008,1.76.008,2.646,1.377,1.675,2.814a2.824,2.824,0,0,0-.013,3.615c.979,1.454.123,2.811-1.637,2.823-1.473.01-2.946-.013-4.418.008a2.164,2.164,0,0,1-1.781-.8c-.7-.814-1.466-1.576-2.14-2.41-.393-.486-.868-.353-1.335-.347-.28,0-.2.269-.21.436a19.126,19.126,0,0,1-5.825,12.388,19.351,19.351,0,0,1-24.34,2.191,2.057,2.057,0,0,0-1.23-.383q-6.768.02-13.536.007c-.985,0-1.189-.151-1.471-1.043.275-.886.5-1.059,1.462-1.061q5.434-.006,10.868,0h.755c-.049-.152-.05-.2-.076-.229a18.97,18.97,0,0,1-4.24-6.924c-.126-.369-.362-.35-.646-.349q-2.524.005-5.049,0c-.873,0-1.378-.383-1.391-1.04s.484-1.06,1.354-1.062c1.449,0,2.9-.024,4.347.011.519.012.7-.079.573-.64a11.422,11.422,0,0,1-.287-3.13c.026-.562-.194-.645-.685-.634-1.332.031-2.664.007-4,.012a1.2,1.2,0,0,1-1.148-.528,1.039,1.039,0,0,1,1.007-1.57q2.208-.037,4.417,0c.409.007.563-.1.618-.519a15.1,15.1,0,0,1,.825-3.317c.179-.477.1-.6-.41-.587-1.8.026-3.6,0-5.4.013a1.051,1.051,0,0,1-1.146-.72c-.252-.741.266-1.372,1.184-1.382,1.636-.019,3.282-.117,4.9.028,1.451.129,2.459-.222,2.962-1.649a1.254,1.254,0,0,1,.155-.232A30.127,30.127,0,0,1,639.032,375h-3.467c-2.2,0-4.394,0-6.591,0a1.066,1.066,0,0,1-1.115-.668.983.983,0,0,1,.216-1.1,1.34,1.34,0,0,1,1.1-.342c3.9,0,7.806,0,11.709.007a1.533,1.533,0,0,0,.969-.292,18.317,18.317,0,0,1,6.282-2.969c.359-.092.521-.216.519-.643q-.033-6.378,0-12.755c0-.456-.148-.532-.555-.524-1.238.025-2.477.014-3.716.007-.955-.005-1.182-.177-1.463-1.063.293-.893.5-1.043,1.472-1.047,1.237,0,2.475-.019,3.711.008.43.009.559-.118.548-.55-.028-1.213-.009-2.426-.01-3.64,0-.917,0-.918-.948-.919H620.1c-.21,0-.419.016-.628.024-1.4-.01-2.8-.018-4.195-.033-.406,0-.593.165-.589.586q.017,2.063,0,4.125c0,.288.078.428.391.419,1.466-.039,2.935.066,4.4-.058.278.015.557.042.835.042q9.2,0,18.408,0c.991,0,1.178.139,1.472,1.036-.288.9-.508,1.063-1.533,1.064q-9.216,0-18.432,0c-.255,0-.51.027-.765.041-1.33-.014-2.661.005-3.989-.057-.634-.03-.794.148-.793.788q.03,22.349.016,44.7a4.014,4.014,0,0,1,0,.42c-.029.276.085.362.359.358,1.47-.024,2.94-.033,4.411-.047.813.014,1.627.031,2.44.043C622.852,401.984,623.081,402.149,623.356,403.033Zm18.415-23.552c.155-.171.313-.34.464-.515a14.4,14.4,0,0,1,18.536-2.8c.786.5.891.8.577,1.685a1.24,1.24,0,0,1-1.708.1,12.286,12.286,0,0,0-18.668,12.19,12.308,12.308,0,0,0,20.172,7.537,12.042,12.042,0,0,0,4.174-7.484c.1-.6-.031-.852-.691-.777a9.663,9.663,0,0,1-1.611.005c-.4-.022-.564.1-.635.522a9.378,9.378,0,0,1-18.537-2.853,9.4,9.4,0,0,1,18.264-1.55c.192.584.021,1.443.549,1.708a4.736,4.736,0,0,0,1.933.075c.842,0,.853-.013.705-.871a11.941,11.941,0,0,0-1.983-4.961,1.252,1.252,0,0,1,.01-1.712c.9-.348,1.207-.245,1.757.557a15.028,15.028,0,0,1,2.183,5.112c.146.618-.111,1.5.423,1.8.5.283,1.281.014,1.926.09.74.086.845-.216.751-.855-.989-6.771-4.594-11.557-10.912-14.2a15.663,15.663,0,0,0-9.269-.916,1.809,1.809,0,0,0-.347.015c-7.239,1.714-12,6.119-13.565,13.39-1.529,7.1.873,13.016,6.6,17.493a17.638,17.638,0,0,0,13.842,3.025,17.384,17.384,0,0,0,13.654-15.1c.057-.562,0-.87-.685-.779a8.049,8.049,0,0,1-1.61.005c-.441-.031-.593.1-.639.562a14.4,14.4,0,0,1-18.618,12.117,15,15,0,0,1-7.175-5.009,3.186,3.186,0,0,0-.169-.3A14.208,14.208,0,0,1,638.942,386,14.973,14.973,0,0,1,641.771,379.481Zm18.522,9.941c-.7,0-1.4.033-2.095-.01a.888.888,0,0,0-1.05.679,4.292,4.292,0,0,1-4.778,2.581,4.374,4.374,0,0,1-.589-8.47,4.083,4.083,0,0,1,5.013,1.854,1.983,1.983,0,0,0,2.4,1.266,2.112,2.112,0,0,1,.56,0c.566.09.6-.183.494-.634a7.3,7.3,0,1,0-5.408,8.763A7.19,7.19,0,0,0,660.294,389.422Zm16.24,0c.422.475.748.832,1.062,1.2a.659.659,0,0,0,.542.259q1.717-.011,3.435,0c.355,0,.4-.141.242-.424-.242-.426-.459-.867-.722-1.28a1.389,1.389,0,0,1,.007-1.632c.331-.524.605-1.084.957-1.722h-3.179a2.143,2.143,0,0,0-2.185,1.5c.475,0,.943-.013,1.409,0a1.049,1.049,0,1,1,0,2.094C677.636,389.437,677.169,389.421,676.534,389.421Zm-21.394-2.1a2.264,2.264,0,0,0-2.785-1.1,2.3,2.3,0,0,0-1.469,2.506,2.332,2.332,0,0,0,2.1,1.928,1.994,1.994,0,0,0,2.037-1.234c-.614,0-1.22.019-1.825-.005a1.047,1.047,0,1,1,.036-2.09C653.835,387.309,654.433,387.321,655.14,387.321Z" transform="translate(0 0)" fill="#040303"/>
      <path id="Trazado_629928" data-name="Trazado 629928" d="M640.908,424.157c-.276-.883-.5-1.048-1.456-1.062-.813-.012-1.627-.028-2.44-.043,0-2.227,0-4.453.006-6.68,0-.264-.108-.565.162-.778.287.271.575.54.86.814.669.643,1.152.656,1.812.012q1.179-1.151,2.329-2.331a1.038,1.038,0,0,0,.078-1.6,1.078,1.078,0,0,0-1.56.11,13.336,13.336,0,0,0-1.134,1.145c-.418.506-.766.654-1.2.022a1.292,1.292,0,0,0-1.35-.548q.009-2.127.017-4.254c.37.353.734.712,1.111,1.057a1.026,1.026,0,0,0,1.6.013q1.259-1.212,2.474-2.471a1.018,1.018,0,0,0,.058-1.547,1.046,1.046,0,0,0-1.553.08c-.473.449-.948.9-1.381,1.386-.284.318-.475.353-.761.008a1.738,1.738,0,0,0-1.328-.8c-.312-.175-.234-.479-.235-.748-.006-1.162,0-2.324,0-3.486.385.367.764.741,1.158,1.1a1.029,1.029,0,0,0,1.55.013q1.284-1.233,2.519-2.516a1.046,1.046,0,1,0-1.484-1.469c-.491.462-.984.928-1.428,1.434-.3.344-.485.293-.758-.02-.4-.456-.816-.925-1.535-.737-.007-1.141-.02-2.283-.017-3.424,0-.244-.093-.519.145-.721.335.319.665.645,1.008.957a1.038,1.038,0,0,0,1.555.009q1.288-1.232,2.523-2.519a1.015,1.015,0,0,0,.043-1.5,1.046,1.046,0,0,0-1.55.046,14.05,14.05,0,0,0-1.231,1.24c-.394.473-.706.549-1.1.011a1.335,1.335,0,0,0-1.391-.6c0-1.154-.007-2.308,0-3.462,0-.222-.069-.471.166-.635.287.271.575.54.86.813a1.1,1.1,0,0,0,1.812.008q1.18-1.148,2.326-2.331a1.036,1.036,0,0,0,.081-1.6,1.082,1.082,0,0,0-1.56.1,18.658,18.658,0,0,0-1.331,1.343c-.335.391-.558.348-.856-.024a1.484,1.484,0,0,0-1.5-.693q.009-2.126.018-4.253c.371.353.735.713,1.113,1.058a1.026,1.026,0,0,0,1.6,0q1.261-1.213,2.477-2.475a1.016,1.016,0,0,0,.038-1.548,1.031,1.031,0,0,0-1.5.056,14.174,14.174,0,0,0-1.331,1.341c-.379.462-.642.367-.961-.029a1.4,1.4,0,0,0-1.453-.624q0-1.956,0-3.911c.255-.014.51-.041.765-.041q9.216,0,18.432,0c1.025,0,1.245-.159,1.533-1.064h2.725c.282.886.508,1.058,1.463,1.063,1.239.007,2.478.018,3.716-.007.407-.008.557.068.555.524q-.029,6.378,0,12.755c0,.427-.16.552-.519.643a18.317,18.317,0,0,0-6.282,2.969,1.533,1.533,0,0,1-.969.292c-3.9-.008-7.806,0-11.709-.007a1.34,1.34,0,0,0-1.1.342.982.982,0,0,0-.216,1.1,1.066,1.066,0,0,0,1.115.668c2.2-.007,4.394,0,6.591,0h3.467a30.141,30.141,0,0,0-1.983,2.527,1.251,1.251,0,0,0-.155.232c-.5,1.427-1.511,1.778-2.962,1.649-1.623-.144-3.269-.047-4.905-.028-.918.011-1.436.642-1.184,1.382a1.051,1.051,0,0,0,1.146.719c1.8-.008,3.6.013,5.4-.013.515-.008.59.111.41.587a15.089,15.089,0,0,0-.825,3.317c-.056.416-.209.526-.618.519q-2.208-.038-4.417,0a1.039,1.039,0,0,0-1.007,1.57,1.2,1.2,0,0,0,1.149.528c1.332-.005,2.665.019,4-.012.491-.011.711.072.685.634a11.424,11.424,0,0,0,.287,3.13c.131.56-.055.652-.573.64-1.448-.035-2.9-.015-4.347-.011-.87,0-1.368.4-1.354,1.062s.518,1.038,1.391,1.04q2.524,0,5.049,0c.284,0,.52-.019.646.349a18.968,18.968,0,0,0,4.24,6.924c.026.027.027.078.076.23h-.755q-5.434,0-10.868,0c-.96,0-1.187.175-1.462,1.061Zm12.829-43.093H648.97c-.841,0-1.683-.013-2.523.006a1.056,1.056,0,0,0-1.122,1.008,1.091,1.091,0,0,0,1.065,1.083,5.239,5.239,0,0,0,.56.011h13.53c.163,0,.328.008.49,0,.717-.052,1.151-.458,1.149-1.068a1.036,1.036,0,0,0-1.162-1.032C658.551,381.057,656.144,381.065,653.737,381.064Zm.04,6.488c-2.407,0-4.814.006-7.221,0a1.082,1.082,0,0,0-1.134.639c-.335.771.222,1.465,1.2,1.466q7.081.01,14.162,0c.855,0,1.351-.422,1.329-1.1-.021-.646-.488-1-1.33-1Q657.283,387.549,653.777,387.552Z" transform="translate(-17.552 -21.124)" fill="#fdfdfd"/>
      <path id="Trazado_629929" data-name="Trazado 629929" d="M624.83,411.643q-.008,2.127-.017,4.253c-.9.672-.941,1.206-.145,2.019.111.113.208.24.312.36-.271.213-.161.514-.162.778-.009,2.227-.006,4.453-.006,6.68-1.47.014-2.94.023-4.411.047-.273,0-.388-.081-.358-.358a4.049,4.049,0,0,0,0-.42q0-22.349-.015-44.7c0-.64.159-.818.793-.788,1.328.062,2.659.043,3.989.057q0,1.956,0,3.911c-.846.592-.933,1.144-.293,1.857.106.118.207.24.31.36q-.009,2.126-.018,4.253c-.906.669-.943,1.205-.144,2.021.111.114.208.24.312.36-.235.164-.165.414-.166.635,0,1.154,0,2.308,0,3.462-.9.642-.942,1.205-.164,2,.11.112.206.239.308.359-.238.2-.145.476-.145.721,0,1.141.01,2.283.017,3.424-.8.508-.945,1.1-.422,1.736.129.157.267.307.4.46,0,1.162,0,2.324,0,3.486,0,.269-.076.572.235.748-1.082.43-1.24,1.156-.438,2.01C624.69,411.462,624.758,411.554,624.83,411.643Z" transform="translate(-5.351 -23.807)" fill="#f1eff2"/>
      <path id="Trazado_629930" data-name="Trazado 629930" d="M735.573,455.737a1.251,1.251,0,0,0-.012,1.713,11.941,11.941,0,0,1,1.983,4.961c.148.858.137.873-.705.871a4.735,4.735,0,0,1-1.933-.075c-.529-.265-.357-1.124-.55-1.708a9.451,9.451,0,1,0,.273,4.4c.072-.42.235-.543.635-.522a9.67,9.67,0,0,0,1.611-.005c.66-.075.794.175.69.777a12.041,12.041,0,0,1-4.174,7.484A12.308,12.308,0,0,1,713.22,466.1a12.286,12.286,0,0,1,18.668-12.19,1.24,1.24,0,0,0,1.708-.1A10.085,10.085,0,0,1,735.573,455.737Z" transform="translate(-72.249 -75.965)" fill="#e75f54"/>
      <path id="Trazado_629931" data-name="Trazado 629931" d="M660.529,360.05H657.8c-.294-.9-.482-1.036-1.472-1.036q-9.2,0-18.408,0c-.278,0-.557-.028-.835-.042q0-2.52-.007-5.04c.209-.008.419-.024.628-.024H665.3c.946,0,.947,0,.948.919,0,1.213-.018,2.427.01,3.64.01.432-.118.559-.548.55-1.236-.027-2.474-.013-3.711-.008C661.026,359.008,660.822,359.157,660.529,360.05Z" transform="translate(-17.613 -5.392)" fill="#4fa5f5"/>
      <path id="Trazado_629932" data-name="Trazado 629932" d="M745.4,478.13a7.19,7.19,0,0,1-5.453,6.031,7.291,7.291,0,1,1,5.408-8.763c.1.451.073.724-.494.634a2.112,2.112,0,0,0-.56,0,1.983,1.983,0,0,1-2.4-1.266,4.083,4.083,0,0,0-5.013-1.854,4.374,4.374,0,0,0,.589,8.47,4.292,4.292,0,0,0,4.778-2.581.888.888,0,0,1,1.05-.679C744,478.163,744.7,478.13,745.4,478.13Z" transform="translate(-85.108 -88.709)" fill="#e8f2fa"/>
      <path id="Trazado_629933" data-name="Trazado 629933" d="M710.064,469.3a15.2,15.2,0,0,1-7.729-3.171c-5.729-4.477-8.131-10.395-6.6-17.493,1.566-7.271,6.326-11.676,13.565-13.39a1.807,1.807,0,0,1,.347-.015c-.07.377-.429.4-.683.529a18.885,18.885,0,0,0-7.492,6.741c-.157.238-.46.485-.236.85a14.974,14.974,0,0,0-2.83,6.52,14.209,14.209,0,0,0,2.532,10.782,3.179,3.179,0,0,1,.169.3.916.916,0,0,0,.15.668,19.129,19.129,0,0,0,5.136,5.554A37.149,37.149,0,0,0,710.064,469.3Z" transform="translate(-59.462 -63.869)" fill="#d8e8f8"/>
      <path id="Trazado_629934" data-name="Trazado 629934" d="M716.261,442.532c-.224-.365.079-.613.236-.85a18.886,18.886,0,0,1,7.492-6.741c.254-.125.613-.152.683-.529a15.663,15.663,0,0,1,9.269.916c6.318,2.644,9.923,7.43,10.912,14.2.093.64-.011.941-.752.855-.646-.075-1.43.193-1.926-.09-.534-.3-.276-1.184-.423-1.8a15.028,15.028,0,0,0-2.183-5.111c-.55-.8-.859-.9-1.756-.557a10.05,10.05,0,0,0-1.976-1.924c.314-.884.209-1.19-.577-1.685a14.4,14.4,0,0,0-18.536,2.8C716.574,442.192,716.416,442.361,716.261,442.532Z" transform="translate(-74.489 -63.051)" fill="#e8f2fa"/>
      <path id="Trazado_629935" data-name="Trazado 629935" d="M724.931,515.451a37.14,37.14,0,0,1-3.674-2.123,19.129,19.129,0,0,1-5.136-5.554.917.917,0,0,1-.15-.668,15,15,0,0,0,7.175,5.009A14.4,14.4,0,0,0,741.763,500c.046-.459.2-.593.639-.562a8.045,8.045,0,0,0,1.61-.005c.689-.091.743.216.685.779a17.384,17.384,0,0,1-13.654,15.1A15.2,15.2,0,0,1,724.931,515.451Z" transform="translate(-74.329 -110.023)" fill="#e8f2fa"/>
      <path id="Trazado_629936" data-name="Trazado 629936" d="M624.837,353.908q0,2.52.007,5.04c-1.465.123-2.934.018-4.4.058-.314.009-.393-.131-.391-.419q.014-2.062,0-4.125c0-.421.184-.59.589-.586C622.041,353.89,623.439,353.9,624.837,353.908Z" transform="translate(-5.368 -5.372)" fill="#3a89e0"/>
      <path id="Trazado_629937" data-name="Trazado 629937" d="M840.2,490.3c.635,0,1.1.017,1.568,0a1.049,1.049,0,1,0,0-2.094c-.466-.016-.934,0-1.409,0a2.143,2.143,0,0,1,2.185-1.5h3.18c-.351.638-.625,1.2-.957,1.722a1.389,1.389,0,0,0-.007,1.632c.263.412.48.854.722,1.28.161.283.113.426-.242.424q-1.717-.009-3.435,0a.659.659,0,0,1-.542-.259C840.947,491.13,840.621,490.773,840.2,490.3Z" transform="translate(-163.665 -100.877)" fill="#e45d53"/>
      <path id="Trazado_629938" data-name="Trazado 629938" d="M753.1,488.851c-.707,0-1.305-.012-1.9,0a1.047,1.047,0,1,0-.036,2.09c.6.024,1.21.005,1.825.005a1.994,1.994,0,0,1-2.036,1.234,2.332,2.332,0,0,1-2.1-1.928,2.3,2.3,0,0,1,1.469-2.506A2.264,2.264,0,0,1,753.1,488.851Z" transform="translate(-97.962 -101.53)" fill="#e25c52"/>
      <path id="Trazado_629939" data-name="Trazado 629939" d="M675.048,394.571c2.407,0,4.814-.007,7.221,0a1.037,1.037,0,0,1,1.162,1.032c0,.609-.432,1.015-1.149,1.068-.163.012-.327,0-.491,0H668.26a5.24,5.24,0,0,1-.56-.011,1.091,1.091,0,0,1-1.065-1.083,1.056,1.056,0,0,1,1.122-1.008c.841-.019,1.682-.006,2.523-.006Z" transform="translate(-38.863 -34.632)" fill="#070707"/>
      <path id="Trazado_629940" data-name="Trazado 629940" d="M675.092,417.664q3.505,0,7.011,0c.842,0,1.309.359,1.33,1,.022.674-.475,1.1-1.329,1.1q-7.081.006-14.162,0c-.982,0-1.539-.7-1.2-1.466a1.082,1.082,0,0,1,1.134-.639C670.278,417.67,672.685,417.664,675.092,417.664Z" transform="translate(-38.867 -51.237)" fill="#030303"/>
      <path id="Trazado_629941" data-name="Trazado 629941" d="M635.4,416.466c-.1-.12-.2-.247-.312-.36-.8-.816-.761-1.352.144-2.021a1.484,1.484,0,0,1,1.5.693c.3.373.521.416.856.024a18.631,18.631,0,0,1,1.331-1.343,1.082,1.082,0,0,1,1.56-.1,1.036,1.036,0,0,1-.081,1.6q-1.146,1.182-2.326,2.331a1.1,1.1,0,0,1-1.812-.008C635.976,417.007,635.688,416.737,635.4,416.466Z" transform="translate(-15.771 -47.936)" fill="#070707"/>
      <path id="Trazado_629942" data-name="Trazado 629942" d="M635.4,508.8c-.1-.121-.2-.247-.312-.36-.8-.813-.759-1.347.145-2.019a1.292,1.292,0,0,1,1.35.548c.436.632.784.484,1.2-.022a13.345,13.345,0,0,1,1.134-1.145,1.078,1.078,0,0,1,1.56-.11,1.038,1.038,0,0,1-.078,1.6q-1.147,1.182-2.329,2.331c-.66.644-1.143.631-1.812-.012C635.976,509.342,635.688,509.073,635.4,508.8Z" transform="translate(-15.772 -114.333)" fill="#070707"/>
      <path id="Trazado_629943" data-name="Trazado 629943" d="M635.395,439.506c-.1-.12-.2-.246-.308-.358-.778-.8-.734-1.36.164-2a1.336,1.336,0,0,1,1.392.6c.394.538.706.462,1.1-.011a14.034,14.034,0,0,1,1.231-1.24,1.046,1.046,0,0,1,1.55-.046,1.015,1.015,0,0,1-.043,1.5q-1.235,1.286-2.523,2.519a1.038,1.038,0,0,1-1.555-.009C636.06,440.151,635.73,439.825,635.395,439.506Z" transform="translate(-15.784 -64.518)" fill="#040404"/>
      <path id="Trazado_629944" data-name="Trazado 629944" d="M635.253,393.2c-.1-.12-.2-.242-.31-.36-.64-.713-.553-1.266.293-1.857a1.4,1.4,0,0,1,1.453.624c.319.4.582.492.961.029a14.146,14.146,0,0,1,1.331-1.341,1.031,1.031,0,0,1,1.5-.056,1.016,1.016,0,0,1-.038,1.548q-1.217,1.259-2.477,2.475a1.026,1.026,0,0,1-1.6,0C635.988,393.912,635.623,393.552,635.253,393.2Z" transform="translate(-15.773 -31.303)" fill="#060606"/>
      <path id="Trazado_629945" data-name="Trazado 629945" d="M635.268,485.543c-.073-.088-.14-.181-.218-.264-.8-.854-.644-1.581.438-2.01a1.737,1.737,0,0,1,1.328.8c.286.345.476.311.761-.008.434-.486.908-.937,1.381-1.386a1.046,1.046,0,0,1,1.553-.08,1.018,1.018,0,0,1-.058,1.547q-1.217,1.255-2.474,2.471a1.026,1.026,0,0,1-1.6-.013C636,486.255,635.638,485.9,635.268,485.543Z" transform="translate(-15.789 -97.707)" fill="#060606"/>
      <path id="Trazado_629946" data-name="Trazado 629946" d="M635.243,462.417c-.134-.153-.272-.3-.4-.46-.523-.636-.378-1.228.422-1.736.719-.188,1.137.281,1.535.737.273.312.456.363.758.02.444-.506.937-.971,1.428-1.434a1.046,1.046,0,1,1,1.484,1.469q-1.235,1.282-2.519,2.516a1.029,1.029,0,0,1-1.55-.013C636.008,463.158,635.629,462.785,635.243,462.417Z" transform="translate(-15.781 -81.089)" fill="#040404"/>
    </g>
  </g>
</svg>
