<svg xmlns="http://www.w3.org/2000/svg" width="73" height="73" viewBox="0 0 73 73">
  <g id="Grupo_962290" data-name="Grupo 962290" transform="translate(-616 -21244.999)">
    <circle id="Elipse_7762" data-name="Elipse 7762" cx="36.5" cy="36.5" r="36.5" transform="translate(616 21245)" fill="#f0bd51"/>
    <g id="Grupo_962291" data-name="Grupo 962291" transform="translate(-9.651 20748.475)">
      <path id="Trazado_634031" data-name="Trazado 634031" d="M629.238,530.563c-.216.8-.638,1.163-1.251,1.087s-.964-.544-.966-1.352c0-2.127-.013-4.254,0-6.381a5.494,5.494,0,0,1,5.419-5.43c.846-.009,1.693.019,2.538-.013.272-.01.73.222.793-.2s.216-.9-.368-1.247a7.837,7.837,0,0,1-2.56-2.537,8.661,8.661,0,0,1-1.434-4.853c0-.5-.011-1.007,0-1.509.01-.352.022-.625-.45-.732a.913.913,0,0,1-.655-.938A9.417,9.417,0,0,1,635.5,497.5a9.289,9.289,0,0,1,10.2,1.273,9.061,9.061,0,0,1,3.269,7.106,34.919,34.919,0,0,1-.1,5.07,8.41,8.41,0,0,1-3.846,6.047c-.574.38-.4.835-.43,1.3-.013.2.157.185.291.186,1.99,0,3.98,0,5.97.011.379,0,.318-.223.318-.446v-2.813q0-8.577,0-17.153c0-1.225.321-1.551,1.53-1.551h43.021c1.227,0,1.558.323,1.558,1.525q0,16.055,0,32.11c0,1.158-.344,1.495-1.52,1.495h-43.09c-1.162,0-1.5-.341-1.5-1.515,0-1.509-.01-3.019.007-4.528,0-.374-.024-.557-.495-.558-1.707,0-1.707-.026-1.707,1.672,0,1.189,0,2.379,0,3.568,0,.806-.343,1.274-.967,1.352s-1.037-.292-1.249-1.087q.011-3.222.023-6.445c0-.866.379-1.238,1.252-1.241,1.874-.006,3.75.036,5.623-.019a6.579,6.579,0,0,0,6.292-6.376,1.127,1.127,0,0,0-1.033-1.286,1.112,1.112,0,0,0-1.157,1.166,4.4,4.4,0,0,1-4.624,4.318c-2.857,0-5.715.007-8.572-.014a1.3,1.3,0,0,0-1.069.451c-.754.823-1.07.918-2,.319a2.022,2.022,0,0,0-2.6.015.4.4,0,0,1-.059.035c-.892.473-1.2.42-1.909-.309-.248-.256-.454-.524-.9-.509-1.21.04-2.423-.009-3.634.022a3.247,3.247,0,0,0-3.171,3.155C629.2,526.083,629.231,528.323,629.238,530.563Zm14.253-15.228a2.576,2.576,0,0,0,.959-.627,6.967,6.967,0,0,0,2.36-5.583,2.773,2.773,0,0,0-1.127-2.576,2.031,2.031,0,0,0-2.342-.633c-.434.139-.859.3-1.282.474a18.348,18.348,0,0,1-6.383,1.409c-.685.018-1.632-.351-1.987.157-.333.476-.1,1.369-.067,2.076A6.542,6.542,0,0,0,643.491,515.335Zm30.771-16.61q-10.12,0-20.24,0c-.308,0-.667-.153-.665.451q.031,9.434,0,18.867c0,.455.165.475.525.38a2.254,2.254,0,0,0,1.679-2.23,3.295,3.295,0,0,1,6.588.125,8.793,8.793,0,0,1-8.245,8.728c-.458.03-.558.163-.547.59.029,1.051.035,2.1,0,3.155-.018.509.087.685.653.685q20.206-.028,40.411,0c.518,0,.679-.1.678-.658q-.028-14.717,0-29.433c0-.532-.125-.673-.666-.671C687.709,498.732,680.985,498.725,674.261,498.725ZM634.975,505.6a14.1,14.1,0,0,0,3.8-.426,11.985,11.985,0,0,0,3.825-1.424c.828-.558.986-1.853,1.525-2.775.23-.393.12-.589-.215-.825a6.9,6.9,0,0,0-7.072-.827,6.984,6.984,0,0,0-4.29,5.7c-.053.337.055.416.372.466A15.809,15.809,0,0,0,634.975,505.6Zm11.66-1.158a6.43,6.43,0,0,0-.747-1.986c-.7,1.126-.7,1.126.365,1.761ZM638,518.216c0,.2,0,.333,0,.467.009.7.066.738.69.424a3.486,3.486,0,0,0,1.037-.609Zm2.568.292c.436.23.768.411,1.106.583.654.331.725.276.731-.44,0-.353-.041-.49-.448-.365A10.388,10.388,0,0,1,640.563,518.508Z" transform="translate(0 0)" fill="#010101"/>
      <path id="Trazado_634032" data-name="Trazado 634032" d="M813.915,668.323h-9.533c-1.179,0-1.494-.3-1.466-1.5a20.6,20.6,0,0,1,.113-3.828,4.334,4.334,0,0,1,4.281-3.45c.594,0,1.19-.021,1.783.007.343.016.453-.111.406-.429a.525.525,0,0,1,0-.137,2.509,2.509,0,0,0-1.151-2.6,8.1,8.1,0,0,1-3.238-6.722c-.018-1.806-.008-3.612,0-5.418a7.7,7.7,0,0,1,7.735-7.753c1.76-.007,3.521,0,5.281,0,.872,0,1.246.376,1.256,1.239a1.925,1.925,0,0,1,0,.206c-.111,1.156-.063,2.054,1.32,2.658a3.689,3.689,0,0,1,1.971,3.594c.015,1.783.012,3.566,0,5.349a8.6,8.6,0,0,1-3.827,7.34,1.191,1.191,0,0,0-.574,1.161c.031,1.5.012,1.547,1.525,1.494a4.637,4.637,0,0,1,4.253,1.86,4.216,4.216,0,0,1,.819,2.5q.011,1.611,0,3.223a1.062,1.062,0,0,1-1.212,1.214Q818.784,668.328,813.915,668.323Zm4.57-14.225-1.021.463a10.73,10.73,0,0,1-8.172-.466c-.058-.007-.152-.039-.168-.016-.05.072.015.107.08.127a2.123,2.123,0,0,0,.676.655,6.334,6.334,0,0,0,7.3.43,3.439,3.439,0,0,0,1.39-1.084c.065-.021.127-.059.076-.128C818.634,654.058,818.542,654.091,818.485,654.1Zm.908-3.448a2.584,2.584,0,0,0,1.1-2.34c-.083-1.272-.019-2.553-.02-3.83a2.226,2.226,0,0,0-2.271-2.506,1.042,1.042,0,0,1-1.018-1.07c-.018-.455,0-.912,0-1.368,0-.871,0-.872-.9-.851-.068,0-.136.012-.2.019-1.073-.007-2.146-.026-3.218-.02a5.5,5.5,0,0,0-5.558,5.563c-.009,1.552.006,3.105-.008,4.658a1.371,1.371,0,0,0,.29.881,7.46,7.46,0,0,0,5.954,3.151A7.193,7.193,0,0,0,819.393,650.65Zm-5.519,15.477c2.217,0,4.435.01,6.652-.006.7,0,1.709.3,2.017-.141.355-.512.143-1.448.106-2.2a2.14,2.14,0,0,0-2.109-2.037q-6.652-.03-13.3,0a2.145,2.145,0,0,0-2.122,2.093c-.024.547.038,1.1-.019,1.644-.06.575.183.66.688.655C808.479,666.115,811.176,666.127,813.874,666.127Zm-2.188-7.977a9.084,9.084,0,0,1-.006.919c-.043.407.137.489.506.483,1.139-.021,2.28-.023,3.419,0,.389.008.538-.112.49-.5a2.963,2.963,0,0,1,0-.547c.016-.264-.053-.365-.349-.293A8.55,8.55,0,0,1,811.685,658.149Z" transform="translate(-127.584 -101.534)" fill="#010101"/>
      <path id="Trazado_634033" data-name="Trazado 634033" d="M725.946,665.508h-9.6c-1.005,0-1.35-.346-1.352-1.349q0-1.475,0-2.95a4.389,4.389,0,0,1,4.453-4.484,13.035,13.035,0,0,1,1.439.01c.562.061.743-.106.719-.692-.017-.413-.174-.421-.479-.42-1.6.008-3.2.005-4.8,0-.968,0-1.33-.353-1.33-1.3,0-3.635-.02-7.271,0-10.906a10.973,10.973,0,0,1,21.844-1.323,27.894,27.894,0,0,1,.1,3.56c.015,2.881.006,5.762,0,8.643,0,.964-.357,1.327-1.305,1.328-1.6,0-3.2.011-4.8-.007-.361,0-.549.049-.487.469.046.312-.119.665.47.653a10.709,10.709,0,0,1,2.732.1,4.387,4.387,0,0,1,3.39,4.2c.012,1.075.006,2.149,0,3.224,0,.859-.386,1.235-1.26,1.235Q730.816,665.512,725.946,665.508Zm7.705-12.1c.205.007.413,0,.615.026.393.054.495-.107.493-.491-.016-3.247.075-6.5-.04-9.74a8.759,8.759,0,0,0-17.5-.038c-.132,3.261-.029,6.531-.041,9.8,0,.334.054.478.44.477Q725.635,653.41,733.651,653.409Zm-7.725,9.9V663.3c2.763,0,5.526-.008,8.29.009.415,0,.569-.094.537-.529-.039-.522,0-1.05-.011-1.575a2.252,2.252,0,0,0-2.287-2.3,12.437,12.437,0,0,0-5.933.991,1.312,1.312,0,0,1-1.121-.006,12.43,12.43,0,0,0-6-.982,2.229,2.229,0,0,0-2.21,2.229c-.012.525.031,1.053-.012,1.575-.039.478.109.612.6.607C720.491,663.3,723.209,663.312,725.926,663.312Zm.083-7.684c-.572,0-1.144-.017-1.714.01-.18.008-.555-.179-.51.21.049.42-.31,1.029.227,1.237,1.019.395,2.03.872,3.208.289.942-.466.973-.364.956-1.374-.005-.314-.1-.385-.384-.377C727.2,655.64,726.6,655.628,726.009,655.628Z" transform="translate(-63.817 -98.72)" fill="#010101"/>
      <path id="Trazado_634034" data-name="Trazado 634034" d="M638,668.331h-9.6c-1.018,0-1.367-.34-1.369-1.333,0-1.029-.007-2.058,0-3.086a4.389,4.389,0,0,1,4.365-4.363c.594,0,1.19-.026,1.783.008.38.021.421-.131.45-.465a2.7,2.7,0,0,0-1.189-2.728,7.966,7.966,0,0,1-3.2-6.666,40.19,40.19,0,0,1,.113-5.821,8.759,8.759,0,0,1,17.3.013,29.221,29.221,0,0,1,.012,7.043,8.188,8.188,0,0,1-3.728,5.965,1.129,1.129,0,0,0-.545,1.107c.021,1.542.008,1.542,1.555,1.542,2.528,0,4.159,1.026,4.816,3.033a4.2,4.2,0,0,1,.226,1.344c-.008,1.052,0,2.1,0,3.155,0,.869-.379,1.249-1.246,1.249Q642.866,668.334,638,668.331Zm-4.59-14.227c-.058-.007-.152-.038-.168-.016-.05.072.015.107.08.127a5.4,5.4,0,0,0,2.22,1.537,6.384,6.384,0,0,0,7.135-1.552c.065-.009.128-.029.081-.108-.008-.014-.1.024-.156.038A10.593,10.593,0,0,1,633.407,654.1Zm12.279,12.008c1.1.057,1.1.057,1.1-1.054,0-.407.014-.815-.006-1.221a2.068,2.068,0,0,0-1.638-1.97.611.611,0,0,0-.451-.121c-4.457,0-8.915-.013-13.372.007a2.135,2.135,0,0,0-2.088,2.053c-.032.638.011,1.28-.016,1.919-.014.338.105.416.426.415Q637.663,666.116,645.686,666.112ZM641.3,639.644c-3.674-2.426-8.986-.031-9.749,4.41a37.6,37.6,0,0,0-.133,5.128.879.879,0,0,0,.245.549,7.389,7.389,0,0,0,5.785,3.2,7.229,7.229,0,0,0,6.061-2.279c.472-.4,1.041-.838,1.05-1.448a24.622,24.622,0,0,0-.125-5.247A6.022,6.022,0,0,0,641.3,639.644Zm-1.139,18.529a8.786,8.786,0,0,1-4.352-.009,5.055,5.055,0,0,1-.007.767c-.085.528.134.648.632.623.84-.043,1.684-.012,2.527-.012C640.251,659.542,640.251,659.542,640.162,658.173Z" transform="translate(-0.005 -101.542)" fill="#020202"/>
      <path id="Trazado_634035" data-name="Trazado 634035" d="M635.051,579.9c-.006-2.24-.041-4.48-.009-6.719a3.247,3.247,0,0,1,3.171-3.155c1.211-.031,2.424.019,3.634-.022.448-.015.655.253.9.509.7.729,1.017.782,1.909.309a.407.407,0,0,0,.059-.035,2.022,2.022,0,0,1,2.6-.015c.927.6,1.242.5,2-.319a1.3,1.3,0,0,1,1.069-.451c2.857.021,5.714.014,8.572.014a4.4,4.4,0,0,0,4.624-4.318,1.112,1.112,0,0,1,1.157-1.166,1.127,1.127,0,0,1,1.033,1.286,6.579,6.579,0,0,1-6.292,6.376c-1.873.055-3.748.013-5.623.019-.873,0-1.249.375-1.252,1.241q-.015,3.222-.023,6.445H639.443q-.011-2.6-.022-5.194c0-.877-.383-1.369-1.064-1.391-.707-.023-1.127.491-1.131,1.391q-.013,2.6-.022,5.194Z" transform="translate(-5.814 -49.333)" fill="#e4e7ea"/>
      <path id="Trazado_634036" data-name="Trazado 634036" d="M642.951,603.1q.011-2.6.022-5.194c0-.9.424-1.414,1.131-1.391.681.022,1.06.514,1.064,1.391q.013,2.6.022,5.194c-.11.654-.451,1.1-1.154,1.082C643.37,604.169,643.05,603.728,642.951,603.1Z" transform="translate(-11.561 -72.541)" fill="#020202"/>
      <path id="Trazado_634037" data-name="Trazado 634037" d="M743.868,504.5c6.724,0,13.448.007,20.172-.013.541,0,.667.14.666.671q-.026,14.716,0,29.433c0,.554-.16.659-.678.658q-20.206-.022-40.411,0c-.565,0-.671-.176-.653-.685.037-1.051.031-2.1,0-3.155-.012-.426.089-.559.547-.59a8.793,8.793,0,0,0,8.245-8.728,3.295,3.295,0,0,0-6.588-.125,2.254,2.254,0,0,1-1.679,2.23c-.36.1-.526.075-.525-.38q.02-9.434,0-18.867c0-.6.358-.45.665-.451Q733.748,504.5,743.868,504.5Zm7.737,26.347c1.372,0,2.745,0,4.117,0,.914,0,1.285-.371,1.286-1.281,0-1.9.021-3.8-.012-5.694-.01-.539.077-.757.686-.725,1.118.058,2.24.018,3.361.016,1.088,0,1.452-.357,1.455-1.423q.005-1.852,0-3.7c0-1.111-.356-1.458-1.487-1.459q-4.974,0-9.949,0c-1.474,0-1.731.228-1.725,1.688,0,.444-.146.485-.54.523a5.853,5.853,0,0,1-4.476-1.217,2.946,2.946,0,0,0-.879-.526,2.546,2.546,0,0,1-1.8-3.259.2.2,0,0,0,0-.068c-.067-.384.129-.455.467-.441.548.024,1.1.009,1.646.006a3.293,3.293,0,1,0,.015-6.585q-3.225-.01-6.449,0a3.294,3.294,0,1,0,0,6.587c.682.006,1.6-.239,1.985.107.439.4.083,1.332.146,2.03a.754.754,0,0,1-.446.81c-1.441.837-2.864,1.7-4.29,2.566-1.013.613-1.026,1.519-.026,2.134a24.536,24.536,0,0,0,3.006,1.772,2.554,2.554,0,0,1,1.753,3.167.62.62,0,0,0,0,.205c.042.3-.082.4-.383.388-.594-.021-1.189-.01-1.784-.005a3.292,3.292,0,1,0,.012,6.584q3.225.013,6.449,0a3.193,3.193,0,0,0,3-1.8.641.641,0,0,1,.678-.4C748.814,530.857,750.209,530.846,751.6,530.846Z" transform="translate(-69.606 -5.774)" fill="#ccd0d7"/>
      <path id="Trazado_634038" data-name="Trazado 634038" d="M660.66,539.8a6.542,6.542,0,0,1-9.87-5.3c-.029-.707-.266-1.6.067-2.076.355-.508,1.3-.14,1.987-.157a18.349,18.349,0,0,0,6.383-1.409c.423-.169.849-.335,1.282-.474a2.031,2.031,0,0,1,2.342.633c0,1.094.018,2.188,0,3.281a7.193,7.193,0,0,1-1.78,4.741A1.3,1.3,0,0,0,660.66,539.8Z" transform="translate(-17.17 -24.465)" fill="#e2c5bb"/>
      <path id="Trazado_634039" data-name="Trazado 634039" d="M649.569,511.348a15.818,15.818,0,0,1-2.052-.116c-.317-.05-.425-.129-.372-.466a6.984,6.984,0,0,1,4.29-5.7,6.9,6.9,0,0,1,7.072.827c.335.236.445.432.215.825-.539.921-.7,2.217-1.525,2.775a11.986,11.986,0,0,1-3.825,1.424A14.1,14.1,0,0,1,649.569,511.348Z" transform="translate(-14.594 -5.75)" fill="#f7cd68"/>
      <path id="Trazado_634040" data-name="Trazado 634040" d="M687.028,541.822a1.3,1.3,0,0,1,.41-.764,7.193,7.193,0,0,0,1.78-4.741c.019-1.093,0-2.187,0-3.281a2.774,2.774,0,0,1,1.127,2.576,6.967,6.967,0,0,1-2.36,5.583A2.579,2.579,0,0,1,687.028,541.822Z" transform="translate(-43.537 -26.487)" fill="#caaea7"/>
      <path id="Trazado_634041" data-name="Trazado 634041" d="M695.212,520.106l-.382-.225c-1.07-.635-1.07-.636-.365-1.761A6.431,6.431,0,0,1,695.212,520.106Z" transform="translate(-48.577 -15.666)" fill="#eaba59"/>
      <path id="Trazado_634042" data-name="Trazado 634042" d="M667.008,575.532l1.728.282a3.488,3.488,0,0,1-1.038.609c-.624.314-.681.274-.69-.424C667.007,575.866,667.008,575.732,667.008,575.532Z" transform="translate(-29.013 -57.316)" fill="#e4e7ea"/>
      <path id="Trazado_634043" data-name="Trazado 634043" d="M676.364,575.889a10.389,10.389,0,0,0,1.39-.223c.407-.124.452.013.448.365-.007.717-.077.771-.731.44C677.132,576.3,676.8,576.119,676.364,575.889Z" transform="translate(-35.801 -57.381)" fill="#e4e7ea"/>
      <path id="Trazado_634044" data-name="Trazado 634044" d="M831.059,656.465a7.194,7.194,0,0,1-5.854,2.287,7.459,7.459,0,0,1-5.954-3.151,1.371,1.371,0,0,1-.29-.881c.014-1.552,0-3.1.008-4.657a5.5,5.5,0,0,1,5.558-5.563c1.073-.006,2.146.012,3.218.019,0,.732-.007,1.464.006,2.195a2.166,2.166,0,0,0,2.042,2.173c.943.077,1.245.4,1.249,1.336Q831.054,653.344,831.059,656.465Z" transform="translate(-139.25 -107.349)" fill="#8c5554"/>
      <path id="Trazado_634045" data-name="Trazado 634045" d="M819.7,732.844c-2.7,0-5.395-.012-8.092.01-.505,0-.747-.08-.688-.655.057-.543-.006-1.1.019-1.644a2.145,2.145,0,0,1,2.122-2.093q6.652-.026,13.3,0a2.14,2.14,0,0,1,2.11,2.037c.037.748.25,1.684-.106,2.2-.308.444-1.318.136-2.017.141C824.133,732.854,821.916,732.844,819.7,732.844Z" transform="translate(-133.409 -168.252)" fill="#699be5"/>
      <path id="Trazado_634046" data-name="Trazado 634046" d="M854.268,656.456q-.008-3.121-.016-6.242c0-.939-.306-1.259-1.249-1.336a2.166,2.166,0,0,1-2.042-2.173c-.013-.731,0-1.463-.006-2.195.068-.007.136-.017.2-.019.9-.021.9-.02.9.851,0,.456-.014.913,0,1.368a1.042,1.042,0,0,0,1.018,1.07,2.225,2.225,0,0,1,2.271,2.506c0,1.277-.063,2.558.02,3.83A2.584,2.584,0,0,1,854.268,656.456Z" transform="translate(-162.46 -107.341)" fill="#7b4948"/>
      <path id="Trazado_634047" data-name="Trazado 634047" d="M833.892,701.833a6.333,6.333,0,0,1-7.3-.43,2.121,2.121,0,0,1-.676-.655l.088-.112a10.728,10.728,0,0,0,8.172.466Z" transform="translate(-144.292 -148.075)" fill="#e2c5bb"/>
      <path id="Trazado_634048" data-name="Trazado 634048" d="M834.919,715.4a8.549,8.549,0,0,0,4.058.065c.3-.072.365.029.349.293a2.983,2.983,0,0,0,0,.547c.048.386-.1.506-.49.5-1.139-.024-2.28-.022-3.419,0-.369.007-.55-.076-.506-.483A9.047,9.047,0,0,0,834.919,715.4Z" transform="translate(-150.818 -158.787)" fill="#699be5"/>
      <path id="Trazado_634049" data-name="Trazado 634049" d="M854.982,701.84l.279-.731,1.022-.463.09.11A3.438,3.438,0,0,1,854.982,701.84Z" transform="translate(-165.382 -148.082)" fill="#caaea7"/>
      <path id="Trazado_634050" data-name="Trazado 634050" d="M825.652,700.685c-.066-.02-.13-.055-.08-.127.016-.023.11.009.168.015Z" transform="translate(-144.033 -148.013)" fill="#e2c5bb"/>
      <path id="Trazado_634051" data-name="Trazado 634051" d="M859.72,700.578c.057-.007.149-.04.166-.018.051.069-.011.107-.076.128Z" transform="translate(-168.819 -148.015)" fill="#caaea7"/>
      <path id="Trazado_634052" data-name="Trazado 634052" d="M739.388,659.145q-8.016.011-16.032.031c-.385,0-.441-.143-.44-.477.013-3.266-.091-6.536.041-9.8a8.739,8.739,0,0,1,13.435-6.942c-.054.3.182.445.346.628a9.881,9.881,0,0,1,2.65,6.76C739.4,652.613,739.389,655.879,739.388,659.145Z" transform="translate(-69.554 -104.455)" fill="#f7cd68"/>
      <path id="Trazado_634053" data-name="Trazado 634053" d="M731.709,732.741c-2.718,0-5.435-.013-8.153.012-.488,0-.635-.13-.6-.607.042-.522,0-1.05.012-1.575a2.229,2.229,0,0,1,2.21-2.229,12.432,12.432,0,0,1,6,.982,1.312,1.312,0,0,0,1.121.006,12.436,12.436,0,0,1,5.933-.991,2.252,2.252,0,0,1,2.287,2.3c.009.525-.028,1.053.011,1.575.032.434-.122.531-.537.529-2.763-.018-5.526-.009-8.29-.009Z" transform="translate(-69.6 -168.149)" fill="#6fcbae"/>
      <path id="Trazado_634054" data-name="Trazado 634054" d="M775.048,662.98c0-3.266.009-6.532,0-9.8a9.881,9.881,0,0,0-2.65-6.76c-.164-.183-.4-.325-.346-.628a8.25,8.25,0,0,1,4.064,6.98c.114,3.243.023,6.493.039,9.74,0,.384-.1.545-.493.491C775.461,662.978,775.253,662.987,775.048,662.98Z" transform="translate(-105.214 -108.29)" fill="#eaba59"/>
      <path id="Trazado_634055" data-name="Trazado 634055" d="M749.078,716.4c.594,0,1.189.012,1.783-.005.288-.009.378.063.384.377.018,1.01-.014.908-.956,1.374-1.179.583-2.189.106-3.208-.289-.537-.208-.178-.817-.227-1.237-.045-.389.33-.2.51-.21C747.935,716.38,748.507,716.4,749.078,716.4Z" transform="translate(-86.886 -159.488)" fill="#e2c5bb"/>
      <path id="Trazado_634056" data-name="Trazado 634056" d="M655.064,656.431A7.229,7.229,0,0,1,649,658.71a7.389,7.389,0,0,1-5.785-3.2.879.879,0,0,1-.245-.549,37.587,37.587,0,0,1,.133-5.127c.763-4.441,6.075-6.836,9.749-4.41a1.356,1.356,0,0,0,.425.761,7.441,7.441,0,0,1,1.766,4.9C655.061,652.866,655.059,654.648,655.064,656.431Z" transform="translate(-11.56 -107.316)" fill="#656c76"/>
      <path id="Trazado_634057" data-name="Trazado 634057" d="M651.476,732.83q-8.023.011-16.046.029c-.321,0-.44-.077-.426-.415.027-.639-.016-1.281.016-1.919a2.135,2.135,0,0,1,2.088-2.053c4.457-.019,8.915-.008,13.372-.007a.611.611,0,0,1,.451.121A8.9,8.9,0,0,1,651.476,732.83Z" transform="translate(-5.795 -168.26)" fill="#e4e7ea"/>
      <path id="Trazado_634058" data-name="Trazado 634058" d="M681.24,658.982c-.005-1.782,0-3.565-.018-5.347a7.441,7.441,0,0,0-1.766-4.9,1.356,1.356,0,0,1-.425-.761,6.022,6.022,0,0,1,3.134,4.317,24.626,24.626,0,0,1,.125,5.247C682.281,658.144,681.712,658.583,681.24,658.982Z" transform="translate(-37.736 -109.868)" fill="#545b63"/>
      <path id="Trazado_634059" data-name="Trazado 634059" d="M659.314,700.732a6.384,6.384,0,0,1-7.135,1.552,5.4,5.4,0,0,1-2.22-1.537l.088-.112a10.593,10.593,0,0,0,9.192.027C659.262,700.687,659.287,700.71,659.314,700.732Z" transform="translate(-16.645 -148.075)" fill="#e2c5bb"/>
      <path id="Trazado_634060" data-name="Trazado 634060" d="M663.318,715.437c.09,1.369.09,1.369-1.2,1.369-.843,0-1.686-.032-2.527.012-.5.026-.717-.094-.632-.623a5.053,5.053,0,0,0,.007-.767A8.786,8.786,0,0,0,663.318,715.437Z" transform="translate(-23.161 -158.806)" fill="#f7f9fa"/>
      <path id="Trazado_634061" data-name="Trazado 634061" d="M693.569,733.162a8.9,8.9,0,0,0-.544-4.244,2.068,2.068,0,0,1,1.638,1.969c.02.406.006.814.006,1.221C694.669,733.22,694.669,733.22,693.569,733.162Z" transform="translate(-47.888 -168.593)" fill="#ccd0d7"/>
      <path id="Trazado_634062" data-name="Trazado 634062" d="M649.7,700.685c-.065-.02-.13-.055-.08-.127.016-.023.11.009.168.016Z" transform="translate(-16.387 -148.013)" fill="#e2c5bb"/>
      <path id="Trazado_634063" data-name="Trazado 634063" d="M683.76,700.626c.054-.014.148-.052.156-.038.047.079-.016.1-.081.108Q683.8,700.662,683.76,700.626Z" transform="translate(-41.166 -148.037)" fill="#e2c5bb"/>
      <path id="Trazado_634064" data-name="Trazado 634064" d="M780.619,536.676c-1.4,0-2.79.011-4.185-.008a.641.641,0,0,0-.678.4,3.193,3.193,0,0,1-3,1.8q-3.224.01-6.449,0a3.292,3.292,0,1,1-.012-6.584c.595,0,1.19-.015,1.784.005.3.01.425-.088.383-.388a.619.619,0,0,1,0-.205,2.555,2.555,0,0,0-1.753-3.167,24.512,24.512,0,0,1-3.006-1.772c-1-.614-.987-1.521.026-2.134,1.426-.863,2.849-1.729,4.29-2.566a.754.754,0,0,0,.446-.81c-.063-.7.294-1.634-.146-2.03-.383-.345-1.3-.1-1.985-.106a3.294,3.294,0,1,1,0-6.587q3.225-.009,6.449,0a3.293,3.293,0,1,1-.015,6.585c-.549,0-1.1.018-1.646-.006-.338-.015-.534.057-.467.441a.2.2,0,0,1,0,.068,2.545,2.545,0,0,0,1.8,3.259,2.945,2.945,0,0,1,.879.526,5.854,5.854,0,0,0,4.476,1.217c.394-.039.542-.08.54-.524-.006-1.46.251-1.688,1.725-1.688q4.974,0,9.949,0c1.132,0,1.485.348,1.487,1.459q0,1.852,0,3.7c0,1.066-.367,1.421-1.455,1.423-1.121,0-2.244.042-3.361-.016-.608-.031-.7.186-.686.725.034,1.9.015,3.8.012,5.694,0,.91-.373,1.278-1.286,1.281C783.363,536.678,781.991,536.676,780.619,536.676Zm-.767-2.2c1.143,0,2.288-.024,3.43.012.466.015.562-.14.554-.574-.026-1.463-.032-2.928,0-4.391.012-.481-.164-.553-.583-.545-1.234.024-2.47.019-3.7,0a1.1,1.1,0,0,1-1.212-1.179,3.593,3.593,0,0,1,0-.549c.038-.34-.063-.451-.438-.478a5.852,5.852,0,0,0-4.434,1.126,3.451,3.451,0,0,1-1.053.634c-1.625.554-2.029,1.718-1.78,3.286.052.331.082.486.458.464.547-.032,1.1-.009,1.646-.008a3.179,3.179,0,0,1,3.008,1.789.686.686,0,0,0,.741.413C777.61,534.469,778.73,534.48,779.851,534.48Zm5.14-9.88H782.18c-1.669,0-1.65,0-1.659,1.648,0,.454.125.562.567.558,2.193-.023,4.387-.01,6.581-.01,1.694,0,1.68,0,1.658-1.717,0-.391-.114-.494-.5-.487C787.55,524.614,786.27,524.6,784.991,524.6Zm-15.448-7.685c1.049,0,2.1.008,3.147,0a1.117,1.117,0,0,0,1.249-1.07c.016-.663-.482-1.117-1.268-1.12q-3.112-.011-6.225,0c-.8,0-1.285.435-1.28,1.1s.49,1.081,1.3,1.087C767.491,516.921,768.517,516.915,769.543,516.915Zm.026,17.565c-1.049,0-2.1-.007-3.147,0-.762.007-1.234.416-1.255,1.058a1.109,1.109,0,0,0,1.253,1.131q3.113.013,6.225,0c.8,0,1.292-.433,1.293-1.1s-.49-1.089-1.291-1.1C771.621,534.475,770.595,534.48,769.569,534.48ZM772.9,525.7l-3.125-1.882a.406.406,0,0,0-.452.006l-3.114,1.875,3.128,1.883a.4.4,0,0,0,.451-.009Z" transform="translate(-98.62 -11.604)" fill="#010101"/>
      <path id="Trazado_634065" data-name="Trazado 634065" d="M799.966,572.081c-1.121,0-2.242-.011-3.362.006a.687.687,0,0,1-.741-.413,3.179,3.179,0,0,0-3.008-1.789c-.549,0-1.1-.024-1.646.008-.376.022-.406-.133-.458-.464-.249-1.568.155-2.732,1.78-3.286a3.452,3.452,0,0,0,1.053-.634,5.852,5.852,0,0,1,4.434-1.126c.375.027.476.138.438.478a3.592,3.592,0,0,0,0,.549,1.1,1.1,0,0,0,1.212,1.179c1.235.014,2.471.02,3.7,0,.419-.008.594.064.583.545-.035,1.463-.029,2.927,0,4.391.008.433-.089.588-.554.574C802.254,572.056,801.11,572.081,799.966,572.081Z" transform="translate(-118.736 -49.205)" fill="#ccd0d7"/>
      <path id="Trazado_634066" data-name="Trazado 634066" d="M831.406,556.5c1.28,0,2.56.014,3.839-.008.383-.007.491.1.5.487.022,1.717.036,1.717-1.658,1.717-2.194,0-4.388-.012-6.581.011-.441,0-.57-.1-.567-.558.01-1.648-.009-1.648,1.659-1.648Z" transform="translate(-145.035 -43.501)" fill="#e4e7ea"/>
      <path id="Trazado_634067" data-name="Trazado 634067" d="M775.384,522.719c-1.026,0-2.052.006-3.078,0-.809-.006-1.292-.419-1.3-1.087s.481-1.1,1.28-1.1q3.112-.01,6.225,0c.785,0,1.284.457,1.268,1.12a1.118,1.118,0,0,1-1.249,1.07C777.482,522.727,776.432,522.719,775.384,522.719Z" transform="translate(-104.461 -17.408)" fill="#e4e7ea"/>
      <path id="Trazado_634068" data-name="Trazado 634068" d="M775.409,592.5c1.026,0,2.052-.005,3.078,0,.8.006,1.291.431,1.291,1.1s-.494,1.093-1.293,1.1q-3.112.01-6.225,0a1.109,1.109,0,0,1-1.253-1.131c.021-.643.494-1.052,1.255-1.058C773.311,592.5,774.359,592.5,775.409,592.5Z" transform="translate(-104.46 -69.626)" fill="#e4e7ea"/>
      <path id="Trazado_634069" data-name="Trazado 634069" d="M781.49,555.375l-3.112,1.874a.4.4,0,0,1-.451.009l-3.128-1.883,3.114-1.875a.406.406,0,0,1,.452-.006Z" transform="translate(-107.213 -41.28)" fill="#6fcbae"/>
    </g>
  </g>
</svg>
