<svg xmlns="http://www.w3.org/2000/svg" width="73" height="73.002" viewBox="0 0 73 73.002">
  <g id="Grupo_962292" data-name="Grupo 962292" transform="translate(-616 -21244.999)">
    <circle id="Elipse_7762" data-name="Elipse 7762" cx="36.5" cy="36.5" r="36.5" transform="translate(616 21245)" fill="#f0bd51"/>
    <g id="Grupo_962293" data-name="Grupo 962293" transform="translate(-16.202 21064.502)">
      <path id="Trazado_634070" data-name="Trazado 634070" d="M651.806,181.5a1.167,1.167,0,0,1,1.332-1c2.28.016,4.561,0,6.841.008a2.174,2.174,0,0,1,2.337,2.3q.019,7.625,0,15.249a2.2,2.2,0,0,1-2.364,2.358c-.76.017-1.521.023-2.28-.005-.389-.014-.538.076-.528.5.028,1.235.022,2.47,0,3.705-.005.347.093.426.439.417a4.772,4.772,0,0,1,2.97.447c.124.083.224.007.327-.04a4.806,4.806,0,0,1,4.18,0,.442.442,0,0,0,.462-.023,4.793,4.793,0,0,1,3.125-.352,2.624,2.624,0,0,1,2.3,2.729c.013,2.09.037,4.181-.011,6.271a7.932,7.932,0,0,0,.684,2.734,8.575,8.575,0,0,1,.569,3.129c-.046.994-.342,1.282-1.349,1.348a1.243,1.243,0,0,1-.789-1.228,5.509,5.509,0,0,0-.451-2.5,10.575,10.575,0,0,1-.806-4.709c.08-1.491.017-2.989.017-4.484,0-1.187-.065-1.247-1.261-1.178-1.134-.061-1.2,0-1.2,1.087q0,2.815,0,5.63a10.847,10.847,0,0,1-.037,1.28.962.962,0,0,1-1.02.9.986.986,0,0,1-1.06-.94,4.914,4.914,0,0,1-.024-.64q0-2.886,0-5.772c0-1.631-.02-1.639-1.677-1.577-.569.021-.805.256-.8.832.022,1.377.008,2.755.007,4.133,0,.974.015,1.948-.012,2.921a1.011,1.011,0,0,1-1.028,1.05,1.046,1.046,0,0,1-1.077-.942,3.56,3.56,0,0,1-.023-.639q0-3.243,0-6.485c0-.252.088-.567-.2-.709a2.781,2.781,0,0,0-1.874-.08c-.53.118-.363.65-.364,1.032-.009,2.185,0,4.371-.007,6.556,0,.779-.4,1.258-1.039,1.275-.659.018-1.083-.481-1.1-1.294,0-.166,0-.333,0-.5q0-8.017,0-16.034a2.367,2.367,0,0,0-.114-.981,1.153,1.153,0,0,0-2.222.013,2.379,2.379,0,0,0-.1.983q0,8.2,0,16.391c0,1.255-.732,1.71-1.861,1.166-1.366-.658-2.751-1.282-4.082-2a1.189,1.189,0,0,0-1.781,1.155,1.832,1.832,0,0,0,.583,1.25c1.89,2.037,3.766,4.088,5.659,6.122a5.406,5.406,0,0,1,1.482,3.815c0,1.235.04,2.472-.016,3.7-.028.62.175.74.75.722,1.4-.043,2.8-.01,4.2-.015q3.811-.014,7.621-.037c1.385.125,1.416.125,1.377-1.241a6.687,6.687,0,0,1,1.034-4.2c.325-.466.6-.966.906-1.445.472-.736.81-.844,1.674-.555a1.185,1.185,0,0,1,.13,1.718c-.216.311-.371.67-.611.958-1.106,1.325-1.021,2.9-.989,4.471.005.243.088.346.332.331a4.275,4.275,0,0,1,.5,0,2.02,2.02,0,0,1,2.148,2.154q.03,9.3,0,18.594a2.005,2.005,0,0,1-2.206,2.151q-9.8.009-19.592,0a2.024,2.024,0,0,1-2.226-2.2q-.011-9.226,0-18.452a2.013,2.013,0,0,1,2.2-2.228c.575,0,.655-.2.641-.692-.032-1.234-.015-2.469-.009-3.7a3.414,3.414,0,0,0-.959-2.447c-1.945-2.082-3.885-4.17-5.8-6.283a3.626,3.626,0,0,1-.008-4.97,3.084,3.084,0,0,1,3.649-.7c1.009.463,2,.961,3,1.444.2-.165.1-.367.1-.536.007-3.871-.007-7.742.019-11.613,0-.565-.148-.713-.7-.7-1.59.038-3.182.019-4.773.012a2.256,2.256,0,0,1-2.528-2.551q0-7.409,0-14.818a2.24,2.24,0,0,1,2.526-2.541c1.092,0,2.186.028,3.277-.01a1.252,1.252,0,0,1,1.464,1.027c-.248.93-.486,1.118-1.436,1.121-1.068,0-2.136.013-3.2-.006-.354-.007-.5.068-.5.463q.019,7.333,0,14.665c0,.414.138.522.532.517,1.542-.019,3.085-.032,4.627.005.552.013.707-.137.728-.7a3.328,3.328,0,0,1,6.652-.111c.039.718.268.909.905.8.139-.024.279-.036.419-.054a8.029,8.029,0,0,1,.917.053c.715.12.844-.2.839-.859-.03-4.385-.015-8.77-.015-13.156,0-1.687,0-1.687-1.75-1.591q-2.621-.013-5.243-.026C652.256,182.644,651.97,182.4,651.806,181.5Zm15.742,69.832a11.331,11.331,0,0,1,1.207.034c.635.082.793-.159.79-.786-.025-5.385-.014-10.769-.014-16.153,0-1.921,0-1.921-1.995-1.666-.236-.015-.472-.044-.708-.044-5.438,0-10.877.01-16.316-.017-.637,0-.786.173-.784.794.025,5.462.015,10.924.015,16.386,0,1.476,0,1.478,1.49,1.476Z" transform="translate(0)" fill="#040303"/>
      <path id="Trazado_634071" data-name="Trazado 634071" d="M663.784,200.736c-.14.018-.28.03-.419.054-.638.11-.867-.08-.905-.8a3.328,3.328,0,0,0-6.652.111c-.021.563-.176.713-.728.7-1.542-.037-3.085-.024-4.627-.005-.394,0-.533-.1-.532-.517q.019-7.333,0-14.665c0-.395.142-.47.5-.463,1.067.019,2.136.009,3.2.006.95,0,1.188-.192,1.436-1.121l2.1-.028c.165.9.45,1.144,1.38,1.15q2.622.015,5.243.026Q663.78,192.96,663.784,200.736Zm-.893-10.378a1.09,1.09,0,0,0-.6-.956,1.048,1.048,0,0,0-1.293.258c-1.328,1.324-2.665,2.639-3.97,3.985-.334.345-.537.413-.883.022-.5-.568-1.059-1.088-1.6-1.617-.578-.561-1.154-.61-1.629-.158-.49.467-.449,1.09.136,1.684q1.3,1.319,2.618,2.618a1.1,1.1,0,0,0,1.788.029c1.671-1.652,3.326-3.321,4.99-4.98A1.442,1.442,0,0,0,662.892,190.358Z" transform="translate(-5.347 -2.508)" fill="#bbdfa4"/>
      <path id="Trazado_634072" data-name="Trazado 634072" d="M775.7,191.514a1.249,1.249,0,0,1,1.039,1.451c-.035,1.709,0,3.42-.014,5.13a2.178,2.178,0,0,1-2.3,2.343q-7.624.03-15.248,0a2.188,2.188,0,0,1-2.325-2.393q-.012-7.553,0-15.106a2.2,2.2,0,0,1,2.448-2.4q7.482,0,14.963,0A2.219,2.219,0,0,1,776.729,183c.006,1.71-.01,3.42.007,5.13a1.123,1.123,0,0,1-1.022,1.3c-.847-.172-1.117-.485-1.123-1.348-.008-1.207,0-2.413,0-3.62,0-1.848,0-1.848-1.876-1.758-4.341-.007-8.682,0-13.023-.034-.562,0-.709.149-.706.707q.033,7.117,0,14.233c0,.55.133.725.706.722,4.151-.025,8.3-.013,12.455-.015.188,0,.376-.029.564-.045.377.017.757.009,1.13.056.576.073.781-.116.763-.729-.044-1.537-.018-3.077-.013-4.616C774.593,192.05,774.793,191.794,775.7,191.514Z" transform="translate(-81.78 -0.025)" fill="#040303"/>
      <path id="Trazado_634073" data-name="Trazado 634073" d="M726.967,289.95c-.864-.29-1.2-.181-1.674.555-.307.479-.581.979-.906,1.445a6.686,6.686,0,0,0-1.034,4.2c.039,1.366.008,1.367-1.377,1.241,0-.807.032-1.615-.009-2.419a3.741,3.741,0,0,1,.6-2.082c.53-.921,1.093-1.827,1.7-2.7a6.151,6.151,0,0,0,.887-5.534,17.882,17.882,0,0,1-.765-6.081c.068-1.515.012-3.036.011-4.554,1.2-.07,1.261-.009,1.261,1.178,0,1.495.063,2.993-.017,4.484a10.578,10.578,0,0,0,.806,4.709,5.5,5.5,0,0,1,.451,2.5,1.243,1.243,0,0,0,.789,1.228C727.7,288.826,727.217,289.343,726.967,289.95Z" transform="translate(-56.844 -66.836)" fill="#f1c8bb"/>
      <path id="Trazado_634074" data-name="Trazado 634074" d="M812.469,188.04c1.876-.091,1.875-.091,1.876,1.758,0,1.207-.006,2.413,0,3.62.006.863.276,1.176,1.123,1.348q-.006,1.046-.012,2.092c-.909.28-1.109.535-1.112,1.462,0,1.539-.031,3.079.013,4.616.018.612-.188.8-.763.729-.373-.047-.753-.039-1.13-.056Q812.467,195.824,812.469,188.04Z" transform="translate(-121.536 -5.369)" fill="#c45357"/>
      <path id="Trazado_634075" data-name="Trazado 634075" d="M673.589,247.16c0,1.518.057,3.039-.011,4.554a17.879,17.879,0,0,0,.765,6.081,6.151,6.151,0,0,1-.887,5.534c-.606.873-1.169,1.779-1.7,2.7a3.741,3.741,0,0,0-.6,2.082c.041.8.009,1.612.009,2.419q-3.811.019-7.621.037c-1.4.005-2.8-.028-4.2.015-.574.018-.777-.1-.749-.722.056-1.233.018-2.47.016-3.7a5.407,5.407,0,0,0-1.482-3.815c-1.893-2.034-3.769-4.085-5.659-6.122a1.832,1.832,0,0,1-.584-1.25,1.189,1.189,0,0,1,1.781-1.155c1.331.722,2.716,1.346,4.082,2,1.129.544,1.86.089,1.861-1.166q.006-8.2,0-16.391a2.38,2.38,0,0,1,.1-.983,1.153,1.153,0,0,1,2.222-.013,2.366,2.366,0,0,1,.114.981q0,8.017,0,16.034c0,.166,0,.333,0,.5.015.813.439,1.312,1.1,1.294.635-.017,1.037-.5,1.039-1.275.006-2.185,0-4.371.007-6.556,0-.382-.165-.914.365-1.032a2.781,2.781,0,0,1,1.874.08c.288.143.2.457.2.709q.007,3.243,0,6.485a3.565,3.565,0,0,0,.023.639,1.046,1.046,0,0,0,1.077.942,1.011,1.011,0,0,0,1.028-1.05c.027-.973.011-1.948.012-2.921,0-1.378.015-2.756-.007-4.133-.009-.576.227-.811.8-.832,1.657-.062,1.677-.054,1.677,1.577q0,2.886,0,5.772a4.925,4.925,0,0,0,.024.64.986.986,0,0,0,1.06.94.962.962,0,0,0,1.02-.9,10.821,10.821,0,0,0,.037-1.28q0-2.815,0-5.63C672.386,247.159,672.454,247.1,673.589,247.16Z" transform="translate(-6.034 -39.977)" fill="#f8dcce"/>
      <path id="Trazado_634076" data-name="Trazado 634076" d="M685.813,382.169l-16.315.023c-1.49,0-1.49,0-1.49-1.476,0-5.462.011-10.924-.015-16.386,0-.621.146-.8.784-.794,5.438.027,10.877.015,16.316.017.236,0,.472.029.708.044Q685.808,372.883,685.813,382.169ZM672.72,370.026h.01q0-.427,0-.855a.98.98,0,0,0-.887-1.037.95.95,0,0,0-1.146.733,4.6,4.6,0,0,0,.021,2.389,1.036,1.036,0,0,0,2-.232C672.745,370.693,672.72,370.358,672.72,370.026Z" transform="translate(-18.266 -130.838)" fill="#3f5d79"/>
      <path id="Trazado_634077" data-name="Trazado 634077" d="M730.449,382.028q-.006-9.286-.012-18.572c1.995-.254,1.995-.254,1.995,1.667,0,5.384-.011,10.769.014,16.154,0,.626-.156.868-.79.786A11.328,11.328,0,0,0,730.449,382.028Z" transform="translate(-62.901 -130.696)" fill="#2f495f"/>
      <path id="Trazado_634078" data-name="Trazado 634078" d="M698.511,203.6q0-7.777-.008-15.553c1.75-.1,1.75-.1,1.75,1.591,0,4.385-.015,8.771.015,13.156,0,.661-.124.979-.839.859A8.033,8.033,0,0,0,698.511,203.6Z" transform="translate(-40.074 -5.37)" fill="#a1d1a6"/>
      <path id="Trazado_634079" data-name="Trazado 634079" d="M669.533,203.57a1.442,1.442,0,0,1-.451.885c-1.664,1.659-3.318,3.328-4.99,4.98a1.1,1.1,0,0,1-1.788-.029q-1.32-1.3-2.618-2.618c-.585-.594-.627-1.217-.136-1.684.475-.452,1.052-.4,1.629.158.545.529,1.1,1.05,1.6,1.617.346.39.548.323.883-.022,1.305-1.346,2.642-2.662,3.97-3.985a1.048,1.048,0,0,1,1.293-.258A1.09,1.09,0,0,1,669.533,203.57Z" transform="translate(-11.988 -15.721)" fill="#030403"/>
      <path id="Trazado_634080" data-name="Trazado 634080" d="M778.065,188.03q0,7.784,0,15.568c-.188.016-.376.044-.564.045-4.151,0-8.3-.009-12.455.015-.573,0-.708-.172-.706-.722q.03-7.117,0-14.233c0-.558.144-.711.706-.707C769.383,188.027,773.724,188.024,778.065,188.03Zm-1.659,4.64a1,1,0,0,0-.611-1.03,1.029,1.029,0,0,0-1.186.21c-.7.68-1.4,1.351-2.062,2.068-.331.36-.518.306-.821-.019-.614-.66-1.262-1.29-1.91-1.918a1.11,1.11,0,0,0-1.637-.132,1.062,1.062,0,0,0,.12,1.628c.63.646,1.26,1.293,1.918,1.91.328.307.38.512.015.843-.649.59-1.253,1.231-1.87,1.857s-.673,1.194-.2,1.683c.487.506,1.085.444,1.731-.194s1.288-1.265,1.91-1.918c.254-.266.424-.277.684,0,.638.671,1.3,1.321,1.96,1.969.609.6,1.2.641,1.677.144a1.118,1.118,0,0,0-.156-1.64c-.6-.612-1.187-1.232-1.819-1.807-.394-.359-.467-.6-.023-1,.657-.58,1.248-1.235,1.874-1.852A1.119,1.119,0,0,0,776.406,192.671Z" transform="translate(-87.132 -5.36)" fill="#cc696f"/>
      <path id="Trazado_634081" data-name="Trazado 634081" d="M679.123,381.507c0,.333.025.667-.006,1a1.036,1.036,0,0,1-2,.232,4.6,4.6,0,0,1-.021-2.389.95.95,0,0,1,1.146-.733.98.98,0,0,1,.887,1.037q0,.427,0,.855Z" transform="translate(-24.669 -142.319)" fill="#020304"/>
      <path id="Trazado_634082" data-name="Trazado 634082" d="M785.217,201.552a1.119,1.119,0,0,1-.408.8c-.625.617-1.217,1.272-1.874,1.852-.443.392-.371.636.023,1,.631.575,1.222,1.195,1.819,1.807a1.118,1.118,0,0,1,.156,1.64c-.479.5-1.068.453-1.677-.144-.662-.648-1.322-1.3-1.96-1.969-.26-.273-.429-.263-.684,0-.622.653-1.268,1.284-1.91,1.918s-1.244.7-1.731.194c-.47-.489-.4-1.066.2-1.683s1.221-1.266,1.87-1.857c.364-.331.313-.536-.015-.843-.658-.617-1.288-1.264-1.918-1.91a1.062,1.062,0,0,1-.12-1.628,1.11,1.11,0,0,1,1.637.132c.647.628,1.3,1.258,1.91,1.918.3.325.49.378.82.019.658-.716,1.365-1.388,2.062-2.068a1.029,1.029,0,0,1,1.186-.21A1,1,0,0,1,785.217,201.552Z" transform="translate(-95.943 -14.241)" fill="#030101"/>
    </g>
  </g>
</svg>
