<svg xmlns="http://www.w3.org/2000/svg" width="85.664" height="85.664" viewBox="0 0 85.664 85.664">
  <g id="Grupo_956633" data-name="Grupo 956633" transform="translate(-1222 -2168)">
    <g id="Grupo_951896" data-name="Grupo 951896" transform="translate(1222 2168)">
      <path id="Trazado_621807" data-name="Trazado 621807" d="M42.832,0A42.832,42.832,0,1,1,0,42.832,42.832,42.832,0,0,1,42.832,0Z" fill="#ef8b53"/>
      <g id="Grupo_957423" data-name="Grupo 957423" transform="translate(411.195 -157.086)">
        <path id="Trazado_632618" data-name="Trazado 632618" d="M-330.464,225.324c1.545,1.536,2.934,2.906,4.309,4.288a1.372,1.372,0,0,1,.009,2.294q-1.732,1.755-3.49,3.487c-.878.867-1.482.87-2.353,0q-4.8-4.782-9.576-9.579a1.383,1.383,0,0,0-1.066-.505q-15.805.026-31.611.014c-.106,0-.211.014-.441.031.244.259.416.456.6.638,2.639,2.561,5.158,5.247,7.915,7.687a1.238,1.238,0,0,1,.388,1.435,1.291,1.291,0,0,1-1.189.9c-.222.018-.446.008-.669.008h-30.942c-1.526,0-1.907-.387-1.907-1.934,0-2.675-.026-5.35.018-8.025.011-.651-.184-.769-.785-.757-1.923.04-3.846.024-5.77.013a4,4,0,0,1-4.165-4.152q-.009-22.486-.012-44.971a2.041,2.041,0,0,1,.637-1.558q5.128-5.1,10.23-10.226a2.044,2.044,0,0,1,1.564-.625q34.5.015,68.991.01a3.99,3.99,0,0,1,4.22,4.178q.009,26.582,0,53.163a4,4,0,0,1-4.138,4.181C-329.878,225.327-330.064,225.324-330.464,225.324Zm-14.463-2.675.094-.169c-.2-.176-.415-.34-.6-.529q-3.759-3.748-7.515-7.5a4.294,4.294,0,0,1-.848-1.126q-1.8-3.619-3.615-7.23a1.4,1.4,0,0,1,.123-1.768,1.41,1.41,0,0,1,1.834-.142q3.457,1.751,6.933,3.463a5.744,5.744,0,0,1,1.539,1.124c3.914,3.928,7.915,7.773,11.723,11.8a5.638,5.638,0,0,0,5.117,2.109c1.519-.177,1.922-.418,1.922-1.951q0-26.159,0-52.318c0-1.575-.374-1.939-1.985-1.939h-25.167q-20.777,0-41.555-.02c-.751,0-.912.191-.891.908.055,1.865.026,3.733.016,5.6A4.011,4.011,0,0,1-402,177.173c-1.923.01-3.846.021-5.769-.01-.542-.009-.758.068-.757.7q.03,21.562.017,43.125c0,1.2.471,1.66,1.673,1.664,1.867.006,3.735-.029,5.6.018.633.016.773-.155.768-.774-.03-4.29-.016-8.58-.016-12.87q0-3.176,0-6.352a1.314,1.314,0,0,1,.846-1.312,1.3,1.3,0,0,1,1.46.307c.146.129.275.276.412.415q9.9,10.017,19.8,20.042a1.658,1.658,0,0,0,1.306.539q15.468-.022,30.936-.011Zm-52.744-16.66c-.206.186-.131.363-.131.516,0,8.721,0,17.442-.02,26.163,0,.646.243.693.77.692q12.962-.021,25.923-.015c.174,0,.387.1.548-.133C-379.732,224.258-388.678,215.1-397.671,205.989Zm49.144,5.158c-.094.086-.2.174-.295.27-.4.393-.763.819-1.19,1.173-.449.372-.434.612-.012,1.032q9.36,9.313,18.677,18.669c.394.4.649.51,1.038.025a7.56,7.56,0,0,1,1.06-1.064c.424-.352.4-.592.005-.977-1.461-1.414-2.884-2.867-4.323-4.3q-7.181-7.178-14.365-14.354C-348.1,211.445-348.232,211.212-348.527,211.147Zm-51.955-42.414-5.758,5.766c1.34,0,2.837.017,4.332-.006a1.327,1.327,0,0,0,1.421-1.483C-400.47,171.538-400.482,170.068-400.482,168.733Zm48.516,42.257c.392-.47.674-.809.957-1.147.122-.146.315-.287,0-.434a15.857,15.857,0,0,0-2.278-1.054Z" transform="translate(0 0)" fill="#010101"/>
        <path id="Trazado_632619" data-name="Trazado 632619" d="M-339.63,227.936h-.8q-15.468,0-30.936.011a1.658,1.658,0,0,1-1.306-.539q-9.884-10.034-19.8-20.042c-.137-.138-.266-.286-.412-.415a1.3,1.3,0,0,0-1.46-.307,1.314,1.314,0,0,0-.846,1.312q0,3.176,0,6.352c0,4.29-.014,8.58.016,12.87,0,.619-.136.791-.768.774-1.866-.048-3.734-.013-5.6-.018-1.2,0-1.672-.469-1.673-1.664q0-21.562-.017-43.125c0-.629.215-.706.757-.7,1.923.031,3.846.02,5.769.01a4.011,4.011,0,0,0,4.192-4.211c.009-1.867.038-3.734-.016-5.6-.021-.717.14-.909.891-.908q20.777.041,41.555.02h25.167c1.611,0,1.985.364,1.985,1.939q0,26.159,0,52.318c0,1.533-.4,1.774-1.922,1.951a5.638,5.638,0,0,1-5.117-2.108c-3.809-4.027-7.809-7.873-11.723-11.8a5.744,5.744,0,0,0-1.539-1.124q-3.474-1.717-6.933-3.463a1.411,1.411,0,0,0-1.834.142,1.4,1.4,0,0,0-.123,1.768q1.821,3.608,3.615,7.23a4.3,4.3,0,0,0,.848,1.126q3.763,3.744,7.515,7.5c.189.189.4.353.6.529Zm-2.043-21.4c2.174,0,4.348.009,6.522,0a1.343,1.343,0,0,0,1.513-1.485q.022-3.845,0-7.689c-.005-1.026-.514-1.508-1.563-1.519-1.031-.011-2.062,0-3.094,0-2.076,0-2.05,0-2.047-2.071,0-.56.2-.622.672-.614,1.5.026,3.01.02,4.515.006a1.345,1.345,0,0,0,1.515-1.483q.022-3.844,0-7.689a1.34,1.34,0,0,0-1.476-1.52q-6.564-.017-13.127,0a1.327,1.327,0,0,0-1.446,1.464c-.016.668-.033,1.339.007,2.005.027.457-.143.553-.565.546-1.421-.023-2.843-.029-4.264,0-.463.01-.56-.154-.541-.57.029-.667.023-1.337,0-2.005a1.331,1.331,0,0,0-1.469-1.443q-6.564-.016-13.127,0a1.327,1.327,0,0,0-1.453,1.457c-.017.7-.023,1.394,0,2.089.014.371-.109.472-.472.468q-2.215-.028-4.431,0c-.376.005-.478-.118-.464-.476.025-.64.013-1.281.006-1.922-.013-1.142-.484-1.619-1.632-1.62q-6.4-.008-12.793,0c-1.148,0-1.625.478-1.628,1.622q-.011,3.719,0,7.438c0,1.15.477,1.629,1.616,1.636,1.449.009,2.9.031,4.347-.012.57-.016.751.11.741.716-.04,2.312-.018,4.624-.015,6.937,0,1.309.425,1.723,1.761,1.724q5.309,0,10.619,0c.748,0,1.752-.262,2.178.116.493.438.107,1.463.16,2.231,0,.055,0,.112,0,.167a1.36,1.36,0,0,0,1.508,1.493c1.059.016,2.118,0,3.177,0,2.063,0,2.045,0,2.018,2.1-.006.483-.148.6-.609.589-1.532-.027-3.066-.022-4.6-.006a1.34,1.34,0,0,0-1.492,1.5q-.019,3.844,0,7.689a1.338,1.338,0,0,0,1.5,1.5q6.522.016,13.044,0a1.341,1.341,0,0,0,1.507-1.491q.021-3.844,0-7.689c-.005-1.023-.517-1.5-1.569-1.514-1.031-.01-2.063,0-3.094,0-2.073,0-2.046,0-2.042-2.077,0-.57.218-.614.678-.606,1.5.023,3.01.019,4.515,0a1.354,1.354,0,0,0,1.511-1.488c.015-.641.031-1.283-.006-1.922-.026-.459.1-.635.587-.609.806.042,1.617-.01,2.424.017.769.025,1.794-.338,2.232.154.378.424.108,1.428.118,2.176.015,1.2.469,1.672,1.664,1.675C-345.909,206.54-343.791,206.536-341.673,206.536Zm1.283-29.425h7.524c1.921,0,1.885,0,1.929-1.94.015-.665-.208-.751-.794-.749-5.322.022-10.644.013-15.966.013-2.022,0-2,0-2.01,2.024,0,.582.2.666.707.662C-346.13,177.1-343.26,177.111-340.39,177.111Zm14.785-1.3c0-1.378,0-1.378-1.381-1.378-1.295,0-1.295,0-1.295,1.3,0,1.378,0,1.378,1.381,1.378C-325.6,177.111-325.6,177.111-325.6,175.813Z" transform="translate(-5.298 -5.286)" fill="#e8ecf3"/>
        <path id="Trazado_632620" data-name="Trazado 632620" d="M-371.132,289.735c8.993,9.113,17.939,18.269,27.09,27.222-.16.236-.374.133-.548.133q-12.962.009-25.923.015c-.527,0-.772-.046-.77-.692.024-8.721.016-17.442.02-26.163C-371.263,290.1-371.338,289.921-371.132,289.735Zm2.541,15.983q0,3.465,0,6.93c0,1.323.436,1.77,1.733,1.771,4.65,0,9.3,0,13.949.007a1.488,1.488,0,0,0,1.587-.817c.331-.746-.049-1.265-.551-1.766q-7.094-7.079-14.176-14.169a1.454,1.454,0,0,0-1.7-.534,1.456,1.456,0,0,0-.85,1.564C-368.581,301.043-368.591,303.381-368.591,305.718Z" transform="translate(-26.539 -83.746)" fill="#f3c15e"/>
        <path id="Trazado_632621" data-name="Trazado 632621" d="M-227.762,305.129c.295.065.426.3.6.469q7.186,7.173,14.365,14.354c1.438,1.437,2.861,2.891,4.323,4.3.4.385.418.625-.005.977a7.559,7.559,0,0,0-1.06,1.064c-.389.485-.645.37-1.038-.025q-9.319-9.353-18.677-18.669c-.422-.419-.437-.66.012-1.032.427-.354.794-.78,1.19-1.173C-227.961,305.3-227.856,305.215-227.762,305.129Z" transform="translate(-120.765 -93.982)" fill="#e78080"/>
        <path id="Trazado_632622" data-name="Trazado 632622" d="M-390.647,178.54c0,1.335.012,2.806,0,4.276a1.327,1.327,0,0,1-1.421,1.483c-1.5.023-2.992.006-4.332.006Z" transform="translate(-9.835 -9.807)" fill="#aeb2c4"/>
        <path id="Trazado_632623" data-name="Trazado 632623" d="M-237.045,299.432l-1.321-2.635a15.857,15.857,0,0,1,2.278,1.054c.315.147.123.288,0,.434C-236.371,298.623-236.653,298.962-237.045,299.432Z" transform="translate(-114.922 -88.442)" fill="#ceac96"/>
        <path id="Trazado_632624" data-name="Trazado 632624" d="M-320.4,227.8c-2.118,0-4.236,0-6.355,0-1.194,0-1.649-.472-1.664-1.675-.009-.748.26-1.752-.118-2.176-.438-.492-1.463-.128-2.232-.154-.807-.027-1.618.024-2.424-.017-.491-.025-.613.151-.587.609.037.639.021,1.281.006,1.922a1.354,1.354,0,0,1-1.511,1.488c-1.5.015-3.01.019-4.515,0-.46-.007-.677.037-.678.606,0,2.077-.032,2.077,2.041,2.077,1.031,0,2.062-.008,3.094,0,1.052.011,1.563.491,1.569,1.514q.019,3.844,0,7.689a1.341,1.341,0,0,1-1.507,1.491q-6.522.015-13.044,0a1.338,1.338,0,0,1-1.5-1.5q-.02-3.845,0-7.689a1.34,1.34,0,0,1,1.492-1.5c1.533-.016,3.066-.021,4.6.006.461.008.6-.106.609-.589.027-2.1.045-2.1-2.018-2.1-1.059,0-2.119.012-3.177,0a1.36,1.36,0,0,1-1.508-1.493c0-.056,0-.112,0-.167-.053-.768.334-1.793-.16-2.231-.425-.377-1.429-.115-2.178-.116q-5.309-.007-10.619,0c-1.336,0-1.76-.415-1.761-1.724,0-2.313-.024-4.625.015-6.937.01-.605-.172-.732-.741-.716-1.448.043-2.9.021-4.347.012-1.139-.007-1.613-.486-1.616-1.636q-.01-3.719,0-7.438c0-1.144.48-1.62,1.628-1.622q6.4-.008,12.793,0c1.148,0,1.62.478,1.632,1.62.007.641.019,1.282-.006,1.922-.014.358.088.482.464.476q2.215-.031,4.431,0c.363,0,.487-.1.472-.468-.027-.7-.021-1.393,0-2.089a1.327,1.327,0,0,1,1.453-1.458q6.563-.018,13.127,0a1.331,1.331,0,0,1,1.469,1.443c.019.668.026,1.338,0,2.005-.018.416.079.581.541.57,1.421-.032,2.843-.026,4.264,0,.422.007.593-.089.565-.546-.04-.666-.023-1.337-.007-2.005a1.327,1.327,0,0,1,1.446-1.464q6.564-.019,13.127,0a1.34,1.34,0,0,1,1.476,1.52q.017,3.844,0,7.689a1.345,1.345,0,0,1-1.515,1.483c-1.5.014-3.01.02-4.515-.006-.471-.008-.671.054-.672.614,0,2.071-.029,2.071,2.047,2.071,1.031,0,2.063-.009,3.094,0,1.049.011,1.558.494,1.563,1.519q.019,3.844,0,7.689a1.343,1.343,0,0,1-1.513,1.485C-316.056,227.813-318.23,227.8-320.4,227.8Zm-21.4,10.672c1.613.009,3.226.007,4.839.035.4.007.525-.11.519-.513q-.033-2.169,0-4.338c.006-.4-.122-.52-.519-.513-1.613.028-3.226.026-4.839.036-1.613-.009-3.227-.008-4.84-.035-.394-.007-.529.107-.523.513q.032,2.169,0,4.339c-.006.406.129.519.523.513C-345.027,238.483-343.413,238.485-341.8,238.476Zm21.41-18.67c-1.612-.009-3.225-.008-4.837-.034-.391-.006-.532.107-.527.514q.031,2.168,0,4.336c-.006.406.135.52.527.514,1.612-.026,3.224-.025,4.837-.035,1.612.009,3.224.008,4.836.035.4.007.527-.111.521-.514q-.032-2.168,0-4.336c.006-.4-.124-.521-.521-.514C-317.166,219.8-318.778,219.8-320.39,219.806Zm-21.411,0c-1.614-.009-3.227-.008-4.841-.035-.4-.007-.527.107-.521.512q.033,2.17,0,4.34c-.006.405.126.519.521.513,1.613-.028,3.227-.026,4.841-.035,1.614.009,3.227.007,4.841.035.4.007.525-.109.519-.513q-.033-2.169,0-4.339c.006-.4-.122-.52-.519-.513C-338.574,219.8-340.187,219.8-341.8,219.806Zm21.411-8.081c1.612.009,3.224.008,4.836.035.4.007.527-.111.521-.514q-.032-2.168,0-4.336c.006-.4-.124-.521-.521-.514-1.612.027-3.224.026-4.836.035-1.612-.009-3.225-.008-4.837-.035-.391-.006-.532.108-.527.514q.031,2.167,0,4.335c-.006.406.135.52.527.514C-323.615,211.734-322,211.735-320.39,211.726Zm-21.41-5.294c-1.613-.009-3.227-.008-4.84-.035-.394-.007-.529.107-.523.513q.032,2.169,0,4.339c-.006.406.129.519.523.513,1.613-.027,3.227-.026,4.84-.035,1.613.009,3.226.007,4.839.036.4.007.525-.11.519-.513q-.033-2.169,0-4.339c.006-.4-.122-.52-.519-.513C-338.574,206.424-340.187,206.422-341.8,206.431Zm-21.41,0c-1.614-.009-3.228-.007-4.841-.035-.4-.007-.527.107-.521.512q.033,2.17,0,4.34c-.006.405.126.519.521.512,1.613-.028,3.227-.026,4.841-.035,1.613.009,3.227.007,4.84.036.4.007.525-.109.519-.513q-.033-2.169,0-4.339c.006-.4-.122-.52-.519-.513C-359.983,206.424-361.6,206.422-363.21,206.431Zm7.364,14.684c1.2,0,2.4.005,3.595,0,.776,0,1.789.264,2.262-.121.5-.4.1-1.458.157-2.226,0-.055,0-.112,0-.167a1.357,1.357,0,0,1,1.506-1.493c1.059-.015,2.118,0,3.177,0,2.064,0,2.047,0,2.02-2.093-.006-.479-.141-.6-.606-.592-1.532.028-3.065.022-4.6.006a1.35,1.35,0,0,1-1.5-1.5c-.014-.668-.026-1.338.006-2,.019-.406-.115-.525-.515-.511-.807.029-1.616,0-2.424.01-.776.006-1.788-.265-2.263.12-.5.4-.1,1.458-.158,2.225,0,.028,0,.056,0,.084-.021,1.085-.5,1.572-1.592,1.579-1.5.01-3.01.022-4.514-.009-.479-.01-.6.135-.6.6q.039,2.757,0,5.515c-.008.482.141.6.605.592C-359.468,221.1-357.657,221.116-355.846,221.116Zm18.237-4.012c.78,0,1.561-.013,2.341,0a1.355,1.355,0,0,1,1.491,1.508c.014.668.027,1.338-.006,2-.02.414.129.517.521.5.863-.027,1.728,0,2.591-.01.72-.006,1.688.248,2.094-.116.474-.425.1-1.411.154-2.151.006-.083,0-.167,0-.251a1.357,1.357,0,0,1,1.51-1.489c1.059-.015,2.118,0,3.177,0,2.062,0,2.044,0,2.017-2.1-.006-.484-.151-.6-.61-.588-1.532.027-3.065.022-4.6.006a1.35,1.35,0,0,1-1.493-1.5c-.013-.668-.026-1.338.006-2,.02-.412-.125-.52-.519-.507-.807.028-1.616,0-2.424.01-.776.007-1.79-.263-2.261.123-.494.4-.128,1.458-.151,2.227-.035,1.191-.483,1.655-1.685,1.66-1.477.006-2.954,0-4.431.007-.238,0-.6-.149-.582.338.024.747-.194,1.618.124,2.2.224.409,1.184.091,1.814.128C-338.223,217.118-337.915,217.1-337.608,217.1Z" transform="translate(-26.566 -26.554)" fill="#000001"/>
        <path id="Trazado_632625" data-name="Trazado 632625" d="M-234.173,182.432c-2.87,0-5.74-.011-8.61.01-.51,0-.711-.08-.707-.662.014-2.023-.012-2.024,2.01-2.024,5.322,0,10.644.009,15.966-.013.586,0,.809.083.794.749-.044,1.939-.008,1.94-1.929,1.94Z" transform="translate(-111.515 -10.608)" fill="#000001"/>
        <path id="Trazado_632626" data-name="Trazado 632626" d="M-176.866,181.161c0,1.3,0,1.3-1.295,1.3-1.381,0-1.381,0-1.381-1.378,0-1.3,0-1.3,1.295-1.3C-176.866,179.783-176.866,179.783-176.866,181.161Z" transform="translate(-154.037 -10.634)" fill="#000001"/>
        <path id="Trazado_632627" data-name="Trazado 632627" d="M-363.259,320.2c0-2.338.01-4.676-.006-7.013a1.456,1.456,0,0,1,.85-1.564,1.453,1.453,0,0,1,1.7.534q7.082,7.09,14.176,14.169c.5.5.882,1.02.551,1.766a1.488,1.488,0,0,1-1.587.816c-4.65-.011-9.3,0-13.949-.007-1.3,0-1.731-.448-1.733-1.771Q-363.263,323.663-363.259,320.2Zm12.893,6.026c-.9-.872-1.64-1.571-2.352-2.3a1.189,1.189,0,0,0-.948-.385c-1.641.021-3.282.009-4.923.009-2.051,0-2.032,0-2.006,2.1.006.485.152.588.609.585C-356.873,326.215-353.759,326.224-350.367,326.224ZM-360.582,316.2c0,1.473,0,2.877,0,4.28,0,.265.052.4.361.4,1.424-.012,2.848-.005,4.338-.005Z" transform="translate(-31.871 -98.225)" fill="#020201"/>
        <path id="Trazado_632628" data-name="Trazado 632628" d="M-337.274,234.225c-1.811,0-3.623-.015-5.434.01-.464.007-.613-.11-.605-.592q.042-2.757,0-5.515c-.007-.467.116-.612.6-.6,1.5.03,3.009.019,4.514.009,1.091-.007,1.57-.494,1.592-1.579,0-.028,0-.056,0-.084.054-.768-.339-1.822.159-2.225.475-.385,1.487-.114,2.263-.12.808-.007,1.617.019,2.424-.01.4-.014.534.1.515.511-.032.667-.02,1.337-.006,2a1.35,1.35,0,0,0,1.5,1.5c1.533.016,3.066.022,4.6-.006.465-.008.6.113.606.592.026,2.093.044,2.093-2.02,2.093-1.059,0-2.118-.012-3.177,0a1.357,1.357,0,0,0-1.506,1.493c0,.056,0,.112,0,.167-.053.768.338,1.822-.157,2.226-.473.386-1.486.117-2.262.121C-334.877,234.23-336.075,234.225-337.274,234.225Z" transform="translate(-45.138 -39.664)" fill="#e8ecf3"/>
        <path id="Trazado_632629" data-name="Trazado 632629" d="M-276.629,230.216c-.307,0-.614.015-.919,0-.63-.037-1.59.281-1.814-.128-.318-.581-.1-1.452-.124-2.2-.016-.488.344-.337.582-.338,1.477-.01,2.954,0,4.431-.007,1.2,0,1.65-.469,1.685-1.66.022-.769-.343-1.823.151-2.227.472-.386,1.486-.116,2.261-.123.808-.007,1.617.018,2.424-.01.394-.013.539.095.519.507-.033.667-.02,1.337-.006,2a1.35,1.35,0,0,0,1.493,1.5c1.533.016,3.066.021,4.6-.006.459-.008.6.1.61.588.027,2.1.045,2.1-2.017,2.1-1.059,0-2.118-.011-3.177,0a1.357,1.357,0,0,0-1.51,1.489c0,.083,0,.168,0,.251-.05.741.32,1.727-.154,2.151-.406.365-1.374.11-2.094.116-.864.007-1.728-.017-2.591.01-.392.012-.541-.091-.521-.5.034-.667.02-1.337.006-2a1.355,1.355,0,0,0-1.491-1.508C-275.069,230.2-275.849,230.216-276.629,230.216Z" transform="translate(-87.545 -39.666)" fill="#e8ecf3"/>
        <path id="Trazado_632630" data-name="Trazado 632630" d="M-357.909,217.026c-1.614.009-3.228.007-4.841.035-.4.007-.527-.107-.521-.512q.033-2.17,0-4.34c-.006-.405.126-.519.521-.512,1.613.028,3.227.026,4.841.035Z" transform="translate(-31.867 -31.854)" fill="#67b6f0"/>
        <path id="Trazado_632631" data-name="Trazado 632631" d="M-347.268,217.025v-5.294c1.614-.009,3.227-.007,4.84-.036.4-.007.525.109.519.513q-.033,2.169,0,4.339c.006.4-.122.52-.519.513C-344.041,217.033-345.655,217.034-347.268,217.025Z" transform="translate(-42.508 -31.854)" fill="#5eccf6"/>
        <path id="Trazado_632632" data-name="Trazado 632632" d="M-294.011,217.026c-1.613.009-3.227.008-4.84.035-.394.006-.529-.107-.523-.513q.032-2.169,0-4.339c-.006-.406.129-.519.523-.513,1.613.027,3.226.026,4.84.035Z" transform="translate(-74.355 -31.855)" fill="#f2a646"/>
        <path id="Trazado_632633" data-name="Trazado 632633" d="M-283.368,217.025v-5.294c1.613-.009,3.226-.007,4.839-.035.4-.007.525.11.519.513q-.033,2.169,0,4.339c.006.4-.122.52-.519.513C-280.142,217.033-281.755,217.034-283.368,217.025Z" transform="translate(-84.998 -31.854)" fill="#f5c25f"/>
        <path id="Trazado_632634" data-name="Trazado 632634" d="M-230.112,217.027c-1.612.009-3.225.008-4.837.035-.391.006-.532-.108-.527-.514q.031-2.167,0-4.335c-.006-.406.135-.52.527-.514,1.612.026,3.224.025,4.837.035Z" transform="translate(-116.844 -31.856)" fill="#eb565f"/>
        <path id="Trazado_632635" data-name="Trazado 632635" d="M-219.468,217.026v-5.294c1.612-.009,3.224-.008,4.836-.035.4-.007.527.111.521.514q-.032,2.168,0,4.336c.006.4-.124.521-.521.514C-216.244,217.034-217.856,217.035-219.468,217.026Z" transform="translate(-127.488 -31.854)" fill="#ee8383"/>
        <path id="Trazado_632636" data-name="Trazado 632636" d="M-294.012,256.945c-1.614.009-3.227.007-4.841.035-.4.007-.527-.107-.521-.513q.033-2.169,0-4.34c-.006-.405.126-.519.521-.512,1.613.027,3.227.026,4.841.035Z" transform="translate(-74.354 -58.398)" fill="#67b6f0"/>
        <path id="Trazado_632637" data-name="Trazado 632637" d="M-283.371,256.944V251.65c1.614-.009,3.227-.007,4.841-.035.4-.007.525.109.519.513q-.033,2.169,0,4.339c.006.4-.122.52-.519.513C-280.144,256.951-281.757,256.953-283.371,256.944Z" transform="translate(-84.996 -58.398)" fill="#5eccf6"/>
        <path id="Trazado_632638" data-name="Trazado 632638" d="M-230.112,256.946c-1.612.009-3.225.008-4.837.035-.391.006-.532-.108-.527-.514q.031-2.167,0-4.336c-.006-.406.135-.52.527-.514,1.612.026,3.224.025,4.837.034Z" transform="translate(-116.844 -58.4)" fill="#eb565f"/>
        <path id="Trazado_632639" data-name="Trazado 632639" d="M-219.468,256.945V251.65c1.612-.009,3.224-.007,4.836-.035.4-.007.527.111.521.514q-.032,2.168,0,4.336c.006.4-.124.521-.521.514C-216.244,256.953-217.856,256.954-219.468,256.945Z" transform="translate(-127.488 -58.398)" fill="#ee8383"/>
        <path id="Trazado_632640" data-name="Trazado 632640" d="M-294.011,296.864c-1.613.009-3.227.008-4.84.035-.394.007-.529-.107-.523-.513q.032-2.169,0-4.339c-.006-.406.129-.519.523-.513,1.613.027,3.226.026,4.84.035Z" transform="translate(-74.355 -84.942)" fill="#f2a646"/>
        <path id="Trazado_632641" data-name="Trazado 632641" d="M-283.368,296.863v-5.294c1.613-.009,3.226-.007,4.839-.035.4-.007.525.11.519.513q-.033,2.169,0,4.338c.006.4-.122.52-.519.513C-280.142,296.87-281.755,296.872-283.368,296.863Z" transform="translate(-84.998 -84.941)" fill="#f5c25f"/>
        <path id="Trazado_632642" data-name="Trazado 632642" d="M-355.265,325.5l4.7,4.675c-1.49,0-2.914-.007-4.338.005-.309,0-.362-.136-.361-.4C-355.261,328.379-355.265,326.975-355.265,325.5Z" transform="translate(-37.188 -107.529)" fill="#e8ecf3"/>
      </g>
    </g>
  </g>
</svg>
