<svg xmlns="http://www.w3.org/2000/svg" width="73.31" height="73.002" viewBox="0 0 73.31 73.002">
  <g id="Grupo_962289" data-name="Grupo 962289" transform="translate(-615.69 -21244.999)">
    <circle id="Elipse_7762" data-name="Elipse 7762" cx="36.5" cy="36.5" r="36.5" transform="translate(616 21245)" fill="#f0bd51"/>
    <g id="Grupo_962288" data-name="Grupo 962288" transform="translate(-11.883 21370.961)">
      <path id="Trazado_634083" data-name="Trazado 634083" d="M659.125-110.414a5.776,5.776,0,0,0,3.746-5.385c.022-1.961,0-3.924.008-5.885a4.129,4.129,0,0,1,4.1-4.276,4.124,4.124,0,0,1,4.134,4.246c.011,2.526.018,5.052,0,7.577a13.023,13.023,0,0,1-10,12.585c-.5.119-.6.313-.6.776q.036,2.759,0,5.517a1.281,1.281,0,0,0,.429,1.019c2.318,2.294,4.6,4.627,6.931,6.906a6.455,6.455,0,0,1,2.077,4.988c-.044,1.912,0,3.825-.015,5.738,0,.353.026.585.456.669a12.989,12.989,0,0,1,4.183,1.607,1.27,1.27,0,0,0,.071-.709c0-4.61.043-9.221-.016-13.83a4.566,4.566,0,0,1,2.049-3.99,10.9,10.9,0,0,1,2.942-1.467c.791-.271.79-.273.3-1-1.725-2.587-3.466-5.163-5.17-7.764a15.068,15.068,0,0,1,.7-17.638,14.1,14.1,0,0,1,14.879-4.666,14.1,14.1,0,0,1,10.09,11.8,15.287,15.287,0,0,1-2.611,10.948c-1.679,2.41-3.268,4.883-4.9,7.328-.487.731-.485.725.312,1a10.2,10.2,0,0,1,3.289,1.74,4.376,4.376,0,0,1,1.69,3.574q-.04,14.75.008,29.5a4.655,4.655,0,0,1-2.2,4.134A14.062,14.062,0,0,1,689.7-53.2a22.026,22.026,0,0,1-10.438-.942,9.383,9.383,0,0,1-3.1-1.773c-.156-.138-.271-.361-.535-.122a12.7,12.7,0,0,1-7.114,2.837,22.308,22.308,0,0,1-9.816-.72,9.688,9.688,0,0,1-3.776-2.048c-.153-.141-.27-.263-.484-.069a12.635,12.635,0,0,1-7.114,2.836,22,22,0,0,1-10.509-.959,10.469,10.469,0,0,1-1.976-.959,4.758,4.758,0,0,1-2.584-4.588c.109-1.931.057-3.874.012-5.81a4.235,4.235,0,0,1,1.712-3.561,11.409,11.409,0,0,1,4.855-2.143.978.978,0,0,0,.865-.8c1.374-4.9,2.785-9.782,4.189-14.669a4.361,4.361,0,0,0,.166-1.229q-.012-5.591-.005-11.182v-.713a3.442,3.442,0,0,0-1.681,1.454c-2.322,3.484-4.66,6.957-6.965,10.452A4.192,4.192,0,0,1,630.885-86a3.915,3.915,0,0,1-2.712-5.984c1.808-3.081,3.635-6.152,5.526-9.182a17.418,17.418,0,0,1,10.864-7.823c.638-.164,1.295-.254,1.948-.379.033-.241-.183-.326-.3-.46a8.171,8.171,0,0,1-1.15-9.487,8.251,8.251,0,0,1,8.826-4.141,8.263,8.263,0,0,1,6.528,6.823,8.428,8.428,0,0,1-1.406,6.07c-.033.046-.1.115-.093.135C658.968-110.325,659.05-110.373,659.125-110.414ZM677-85.7v.8c0,8.358.032,16.716-.031,25.074a2.84,2.84,0,0,0,1.671,2.812,9.558,9.558,0,0,0,1.057.506,19.556,19.556,0,0,0,10.7.8,10.6,10.6,0,0,0,4.473-1.751,2.2,2.2,0,0,0,.976-1.93q-.035-12.831-.014-25.663v-.636A21.745,21.745,0,0,1,677-85.7Zm-9.419,7.153c0-1.373-.007-2.746,0-4.119a3.638,3.638,0,0,0-1.106-2.709q-3.644-3.639-7.279-7.285a.991.991,0,0,0-.759-.35q-5.774.019-11.549,0c-.433,0-.527.148-.523.548.016,1.52-.005,3.04,0,4.56a6.564,6.564,0,0,1-.236,1.882c-1.428,4.936-2.828,9.879-4.246,14.817a5.616,5.616,0,0,0-.206,1.668,2.3,2.3,0,0,0,1.917,2.413,2.263,2.263,0,0,0,2.483-1.725q3.034-9.586,6.052-19.177c.456-1.446.453-1.454,2.006-1.442.47,0,.929-.09,1.354.336,2.147,2.152,4.328,4.271,6.508,6.39a2.739,2.739,0,0,1,.88,2.1c-.02,2.035-.007,4.07-.006,6.105,0,1.631.929,2.713,2.334,2.724,1.433.011,2.372-1.079,2.373-2.76Q667.587-76.559,667.585-78.545Zm7.065-32.874a12.168,12.168,0,0,0,2.194,7.237c2.832,4.2,5.628,8.433,8.441,12.65.776,1.164,1.5,1.16,2.282-.013,2.731-4.095,5.414-8.222,8.2-12.276a13.612,13.612,0,0,0,2.422-8.589A11.861,11.861,0,0,0,686.78-123.6,11.8,11.8,0,0,0,674.65-111.419ZM655.815-66.862c0,2.346.071,4.72-.028,7.086a2.665,2.665,0,0,0,1.587,2.709,11.285,11.285,0,0,0,1.187.572,19.2,19.2,0,0,0,9.759.938,11.8,11.8,0,0,0,5.285-1.845,2.221,2.221,0,0,0,1.059-2.035c-.055-1.787-.016-3.577-.016-5.366V-66.86A21.749,21.749,0,0,1,655.815-66.862Zm-.759-28.493c1.015,0,1.789-.03,2.559.011.465.025.569-.125.564-.572-.024-2.231.036-4.464-.036-6.693-.025-.777.273-.918.924-.981a10.7,10.7,0,0,0,9.693-10.641c.013-2.427.005-4.855,0-7.283,0-1.276-.691-2.087-1.762-2.089s-1.764.81-1.767,2.082c-.005,1.961.024,3.924-.013,5.885a8.179,8.179,0,0,1-5.493,7.528,17.666,17.666,0,0,1-4.052.648c-.474.053-.6.167-.566.649.243,3.2.452,6.406.678,9.609C655.833-96.546,655.954-95.881,655.056-95.355Zm-5.8,0a1.8,1.8,0,0,1-.5-1.654c.233-3.175.425-6.354.672-9.528.041-.521-.111-.6-.573-.6a15.485,15.485,0,0,0-10.569,4.073,22.958,22.958,0,0,0-4.131,5.673c-1.316,2.206-2.659,4.4-3.957,6.611a1.586,1.586,0,0,0,1.385,2.49,1.972,1.972,0,0,0,1.9-.99c2.263-3.432,4.58-6.828,6.827-10.27a5.924,5.924,0,0,1,5.494-2.886c.48.014.609.132.6.61-.03,1.96,0,3.92-.034,5.88-.008.493.142.621.613.6C647.742-95.382,648.5-95.355,649.256-95.355Zm3.08-25.9A5.9,5.9,0,0,0,646.4-115.4a5.9,5.9,0,0,0,5.792,5.919,5.9,5.9,0,0,0,5.975-5.812A5.9,5.9,0,0,0,652.336-121.25Zm1.162,51.7c-.348-2.765,1.2-4.207,3.3-5.281a12.018,12.018,0,0,1,3.108-1.079c.474-.1.646-.253.63-.751-.038-1.224-.03-2.451,0-3.677a1.173,1.173,0,0,0-.413-.949c-1.8-1.738-3.578-3.494-5.368-5.239-.134-.13-.232-.323-.459-.339-.029.035-.069.063-.081.1q-2.383,7.55-4.773,15.1c-.112.351-.066.476.278.557A13.041,13.041,0,0,1,653.5-69.547Zm-18.873,7.392a21.566,21.566,0,0,1-.017,2.418,2.485,2.485,0,0,0,1.481,2.618,9.96,9.96,0,0,0,1.249.613,19.306,19.306,0,0,0,9.83.944,12.529,12.529,0,0,0,4.788-1.538c.636-.379,1.366-.794,1.444-1.569a34.186,34.186,0,0,0,.031-3.468A21.73,21.73,0,0,1,634.625-62.155Zm51.79-23.78a18.575,18.575,0,0,0,3.73-.323,10.739,10.739,0,0,0,4.867-1.918c1.089-.863,1.083-1.712,0-2.587a9.917,9.917,0,0,0-3.579-1.635c-.363-.107-.533.075-.706.342-.479.739-.958,1.48-1.464,2.2a3.355,3.355,0,0,1-5.679.006c-.505-.722-.973-1.47-1.47-2.2-.128-.188-.215-.463-.551-.373a8.615,8.615,0,0,0-4.048,1.951,1.239,1.239,0,0,0,.035,2.037,6.344,6.344,0,0,0,2.177,1.331A18.2,18.2,0,0,0,686.415-85.935Zm-42.4,23.544a18.961,18.961,0,0,0,3.731-.319,11.173,11.173,0,0,0,4.7-1.773c1.341-.976,1.328-1.919-.015-2.909a9.281,9.281,0,0,0-2.852-1.312c-.954-.293-.958-.282-1.28.684A4.518,4.518,0,0,1,642.81-64.9a4.423,4.423,0,0,1-3.343-3.447c-.055-.22.044-.631-.416-.508A8.378,8.378,0,0,0,635.193-67a1.292,1.292,0,0,0,.014,2.15,5.282,5.282,0,0,0,1.453.984A17.262,17.262,0,0,0,644.013-62.392ZM665.25-67.1a18.626,18.626,0,0,0,3.728-.326,11.066,11.066,0,0,0,4.687-1.791c1.3-.959,1.287-1.907-.014-2.87a10.2,10.2,0,0,0-3.339-1.465c-.367-.106-.441.063-.521.382a4.668,4.668,0,0,1-4.507,3.713,4.676,4.676,0,0,1-4.624-3.75c-.061-.227-.08-.453-.4-.363a8.42,8.42,0,0,0-3.911,1.9,1.271,1.271,0,0,0,.036,2.1,6.241,6.241,0,0,0,2.114,1.294A18.154,18.154,0,0,0,665.25-67.1Zm-14.089-30.28a2.818,2.818,0,0,0,1.078,1.449c.286.041,1.2-1.062,1.172-1.435q-.309-4.579-.629-9.157c-.02-.276.1-.623-.452-.627-.516,0-.529.244-.553.611Q651.477-101.959,651.161-97.381Z" fill="#030302"/>
      <path id="Trazado_634084" data-name="Trazado 634084" d="M795.417,10.809a21.744,21.744,0,0,0,18.833.006v.636q0,12.832.014,25.663a2.2,2.2,0,0,1-.976,1.93,10.594,10.594,0,0,1-4.473,1.751,19.556,19.556,0,0,1-10.7-.8,9.56,9.56,0,0,1-1.057-.506,2.84,2.84,0,0,1-1.671-2.812c.063-8.358.031-16.716.031-25.074Zm4.708,17.408V21.681c0-1.708,0-1.678-1.7-1.711-.582-.011-.667.185-.664.7.019,4.675.011,9.351.011,14.026,0,1.8,0,1.777,1.775,1.782.51,0,.592-.176.589-.627C800.115,33.309,800.125,30.763,800.125,28.217Zm0-11.756c0-1.183,0-1.183-1.171-1.183s-1.183,0-1.183,1.171,0,1.183,1.171,1.183S800.125,17.633,800.125,16.461Z" transform="translate(-118.412 -96.507)" fill="#aad075"/>
      <path id="Trazado_634085" data-name="Trazado 634085" d="M701.41.439q0,1.986,0,3.972c0,1.681-.94,2.771-2.373,2.76-1.4-.011-2.332-1.093-2.333-2.724,0-2.035-.014-4.07.006-6.105a2.739,2.739,0,0,0-.88-2.1c-2.18-2.12-4.361-4.238-6.508-6.39-.425-.426-.884-.333-1.355-.336-1.552-.012-1.55,0-2.006,1.442Q682.938.55,679.909,10.137a2.263,2.263,0,0,1-2.483,1.725,2.3,2.3,0,0,1-1.917-2.413,5.614,5.614,0,0,1,.206-1.668c1.417-4.938,2.818-9.881,4.246-14.817a6.566,6.566,0,0,0,.236-1.882c-.006-1.52.016-3.04,0-4.56,0-.4.089-.55.523-.548q5.774.024,11.549,0a.992.992,0,0,1,.759.35q3.635,3.647,7.279,7.285a3.637,3.637,0,0,1,1.106,2.709C701.4-2.307,701.41-.934,701.41.439Z" transform="translate(-33.824 -78.984)" fill="#c69e7b"/>
      <path id="Trazado_634086" data-name="Trazado 634086" d="M787.483-105.77a11.8,11.8,0,0,1,12.13-12.183,11.861,11.861,0,0,1,11.415,11.192,13.614,13.614,0,0,1-2.422,8.589c-2.791,4.054-5.474,8.181-8.205,12.276-.782,1.173-1.506,1.177-2.282.013-2.813-4.217-5.609-8.446-8.441-12.65A12.169,12.169,0,0,1,787.483-105.77Zm2.354-.456a9.444,9.444,0,0,0,9.36,9.457,9.439,9.439,0,0,0,9.475-9.415,9.439,9.439,0,0,0-9.4-9.419A9.444,9.444,0,0,0,789.837-106.226Z" transform="translate(-112.833 -5.648)" fill="#ec8673"/>
      <path id="Trazado_634087" data-name="Trazado 634087" d="M723.436,74.794a21.749,21.749,0,0,0,18.834,0v2.057c0,1.789-.039,3.579.016,5.366a2.222,2.222,0,0,1-1.059,2.035,11.8,11.8,0,0,1-5.285,1.845,19.2,19.2,0,0,1-9.759-.938,11.259,11.259,0,0,1-1.187-.572,2.665,2.665,0,0,1-1.587-2.709C723.507,79.513,723.436,77.14,723.436,74.794Z" transform="translate(-67.621 -141.656)" fill="#aacf75"/>
      <path id="Trazado_634088" data-name="Trazado 634088" d="M720.933-89.7c.9-.526.777-1.191.731-1.845-.226-3.2-.435-6.407-.678-9.609-.036-.482.092-.6.566-.649a17.665,17.665,0,0,0,4.052-.648,8.178,8.178,0,0,0,5.493-7.528c.038-1.961.008-3.923.013-5.885,0-1.272.7-2.085,1.767-2.082s1.76.813,1.762,2.089c0,2.428.011,4.855,0,7.283a10.7,10.7,0,0,1-9.693,10.641c-.652.062-.949.2-.924.981.072,2.229.013,4.462.036,6.693,0,.447-.1.6-.564.572C722.722-89.733,721.948-89.7,720.933-89.7Z" transform="translate(-65.877 -5.652)" fill="#f3d57e"/>
      <path id="Trazado_634089" data-name="Trazado 634089" d="M654.9-50.231c-.757,0-1.515-.027-2.269.01-.471.023-.621-.105-.613-.6.033-1.959,0-3.92.034-5.88.007-.477-.121-.6-.6-.61a5.924,5.924,0,0,0-5.494,2.886c-2.247,3.442-4.564,6.839-6.827,10.27a1.972,1.972,0,0,1-1.9.99,1.586,1.586,0,0,1-1.385-2.49c1.3-2.216,2.641-4.405,3.957-6.611a22.958,22.958,0,0,1,4.131-5.673A15.486,15.486,0,0,1,654.5-62.01c.462,0,.614.077.573.6-.247,3.174-.439,6.353-.672,9.528A1.8,1.8,0,0,0,654.9-50.231Z" transform="translate(-5.641 -45.124)" fill="#f3d47d"/>
      <path id="Trazado_634090" data-name="Trazado 634090" d="M697.462-109.96a5.9,5.9,0,0,1,5.83,5.955,5.9,5.9,0,0,1-5.975,5.812,5.9,5.9,0,0,1-5.792-5.919A5.9,5.9,0,0,1,697.462-109.96Z" transform="translate(-45.126 -11.29)" fill="#e9cfb5"/>
      <path id="Trazado_634091" data-name="Trazado 634091" d="M651.439,90.783a21.73,21.73,0,0,0,18.807.018,34.2,34.2,0,0,1-.031,3.468c-.078.775-.809,1.191-1.444,1.569a12.528,12.528,0,0,1-4.788,1.538,19.3,19.3,0,0,1-9.83-.944,9.964,9.964,0,0,1-1.249-.613,2.485,2.485,0,0,1-1.481-2.618A21.565,21.565,0,0,0,651.439,90.783Z" transform="translate(-16.814 -152.938)" fill="#a9ce75"/>
      <path id="Trazado_634092" data-name="Trazado 634092" d="M804.89-5.582A18.2,18.2,0,0,1,798.2-6.747a6.344,6.344,0,0,1-2.177-1.331,1.239,1.239,0,0,1-.035-2.037,8.615,8.615,0,0,1,4.048-1.951c.337-.09.423.186.551.373.5.727.965,1.475,1.47,2.2a3.355,3.355,0,0,0,5.68-.006c.506-.721.985-1.462,1.464-2.2.173-.267.343-.449.706-.342a9.917,9.917,0,0,1,3.579,1.635c1.081.875,1.087,1.724,0,2.587A10.739,10.739,0,0,1,808.62-5.9,18.577,18.577,0,0,1,804.89-5.582Z" transform="translate(-118.475 -80.354)" fill="#f8e6ac"/>
      <path id="Trazado_634093" data-name="Trazado 634093" d="M660.915,74.434a17.262,17.262,0,0,1-7.353-1.475,5.284,5.284,0,0,1-1.453-.984,1.292,1.292,0,0,1-.014-2.15,8.378,8.378,0,0,1,3.858-1.853c.459-.123.361.288.416.508a4.423,4.423,0,0,0,3.343,3.447,4.518,4.518,0,0,0,5.485-3.121c.322-.966.325-.977,1.28-.684a9.28,9.28,0,0,1,2.852,1.312c1.343.99,1.356,1.934.015,2.909a11.174,11.174,0,0,1-4.7,1.773A18.961,18.961,0,0,1,660.915,74.434Z" transform="translate(-16.902 -136.826)" fill="#f8e6ac"/>
      <path id="Trazado_634094" data-name="Trazado 634094" d="M732.937,58.424a18.154,18.154,0,0,1-6.755-1.18,6.241,6.241,0,0,1-2.114-1.294,1.271,1.271,0,0,1-.036-2.1,8.421,8.421,0,0,1,3.911-1.9c.324-.09.343.136.4.363a4.659,4.659,0,0,0,9.131.037c.08-.319.154-.488.521-.382a10.2,10.2,0,0,1,3.339,1.465c1.3.963,1.31,1.911.014,2.87a11.066,11.066,0,0,1-4.687,1.791A18.625,18.625,0,0,1,732.937,58.424Z" transform="translate(-67.687 -125.525)" fill="#f8e6ac"/>
      <path id="Trazado_634095" data-name="Trazado 634095" d="M707.7-52.3q.31-4.579.615-9.158c.024-.368.037-.616.553-.611.549,0,.432.35.452.627q.325,4.578.63,9.157c.025.373-.886,1.476-1.172,1.435A2.817,2.817,0,0,1,707.7-52.3Z" transform="translate(-56.541 -45.085)" fill="#e0e3e6"/>
      <path id="Trazado_634096" data-name="Trazado 634096" d="M734.237-73.5c-.074.041-.157.089-.214-.009-.012-.02.06-.089.093-.135Z" transform="translate(-75.113 -36.919)" fill="#f7f9fa"/>
      <path id="Trazado_634097" data-name="Trazado 634097" d="M805.814,50.176c0,2.546-.01,5.092.009,7.637,0,.452-.079.629-.589.627-1.775,0-1.775.019-1.775-1.782,0-4.675.008-9.351-.011-14.026,0-.519.082-.714.664-.7,1.7.033,1.7,0,1.7,1.711Z" transform="translate(-124.102 -118.466)"/>
      <path id="Trazado_634098" data-name="Trazado 634098" d="M805.842,27.175c0,1.171,0,1.171-1.183,1.171s-1.171,0-1.171-1.183,0-1.171,1.183-1.171S805.842,25.992,805.842,27.175Z" transform="translate(-124.129 -107.22)"/>
      <path id="Trazado_634099" data-name="Trazado 634099" d="M795.489-100.59a9.444,9.444,0,0,1,9.438-9.378,9.439,9.439,0,0,1,9.4,9.419,9.439,9.439,0,0,1-9.475,9.415A9.444,9.444,0,0,1,795.489-100.59Zm16.478.05a7.08,7.08,0,0,0-7.049-7.071,7.083,7.083,0,0,0-7.072,7.049A7.086,7.086,0,0,0,804.9-93.49,7.082,7.082,0,0,0,811.967-100.54Z" transform="translate(-118.485 -11.284)" fill="#040302"/>
      <path id="Trazado_634100" data-name="Trazado 634100" d="M817.616-94.891a7.081,7.081,0,0,1-7.072,7.05,7.086,7.086,0,0,1-7.049-7.073,7.083,7.083,0,0,1,7.072-7.049A7.08,7.08,0,0,1,817.616-94.891Z" transform="translate(-124.134 -16.933)" fill="#fae8ad"/>
    </g>
  </g>
</svg>
