<svg xmlns="http://www.w3.org/2000/svg" width="82" height="82" viewBox="0 0 82 82">
  <g id="Grupo_956678" data-name="Grupo 956678" transform="translate(-303 -3929)">
    <g id="Grupo_951854" data-name="Grupo 951854" transform="translate(303 3929)">
      <path id="Trazado_621807" data-name="Trazado 621807" d="M41,0A41,41,0,1,1,0,41,41,41,0,0,1,41,0Z" fill="#ef8b53"/>
    </g>
    <g id="Grupo_962304" data-name="Grupo 962304" transform="translate(399.683 3338.908)">
      <path id="Trazado_634233" data-name="Trazado 634233" d="M-19.2,625.889q0,10.406,0,20.813c0,3.946-2.469,6.407-6.423,6.409-1.185,0-2.373.04-3.555-.017-.615-.029-.729.189-.7.738.043.862.018,1.728.01,2.592-.009,1-.439,1.479-1.454,1.408-.8-.056-.951.214-.934.96.052,2.369.015,4.74.02,7.11a3.565,3.565,0,0,0,3.793,3.8c2.84.006,5.68.025,8.519-.017.645-.01.757.186.742.776-.041,1.612-.013,1.613-1.663,1.613-2.543,0-5.087.007-7.63,0a5.925,5.925,0,0,1-6.131-6.1c-.009-2.518-.014-5.037.009-7.555,0-.446-.091-.579-.561-.577-1.571.009-1.821-.27-1.821-1.864,0-.79-.017-1.581.007-2.37.012-.37-.073-.507-.48-.5q-3.667.03-7.334,0c-.372,0-.5.077-.5.482q.028,4.259,0,8.518c0,.374.079.52.483.5a5.036,5.036,0,0,1,1.544.1,3.531,3.531,0,0,1,2.714,3.371c.027,1.555.017,3.111,0,4.666-.007.9-.46,1.33-1.395,1.336-1.432.009-2.864,0-4.3,0H-69.717c-1.274,0-1.642-.361-1.643-1.61,0-1.383-.007-2.765,0-4.148a3.559,3.559,0,0,1,3.722-3.724c1.018-.008,1.018-.008,1.018-1.058,0-2.543-.02-5.086.015-7.629.008-.612-.091-.818-.778-.815-6.321.033-12.643.021-18.964.019a5.949,5.949,0,0,1-6.352-6.33q0-20.924,0-41.848a5.941,5.941,0,0,1,6.336-6.344q30.409,0,60.819,0a5.943,5.943,0,0,1,6.342,6.339Q-19.2,615.408-19.2,625.889Zm-16.6,15.346c.615.008,1.232-.006,1.845.031.417.025.55-.11.543-.534-.024-1.452.008-2.906-.017-4.358-.012-.727.33-1.752-.15-2.1-.5-.364-1.461-.093-2.221-.1-.615-.008-1.232.009-1.844-.031-.427-.028-.534.126-.527.536.023,1.452-.007,2.9.015,4.357.011.728-.327,1.757.14,2.1C-37.531,641.5-36.564,641.228-35.805,641.234Zm-16.6,0c.615.008,1.232-.006,1.845.031.417.025.55-.11.543-.534-.024-1.452.008-2.906-.017-4.358-.012-.727.33-1.752-.15-2.1-.5-.364-1.461-.093-2.221-.1-.615-.008-1.232.009-1.844-.031-.427-.028-.534.126-.527.536.023,1.452-.007,2.9.015,4.357.011.728-.327,1.757.14,2.1C-54.127,641.5-53.16,641.228-52.4,641.234Zm18.973-11.8c-1.775-.008-3.551-.02-5.326-.024-1.889,0-1.878,0-1.794,1.925.015.356.112.455.462.452,2.22-.022,4.439-.023,6.659-.031.665.008,1.33.007,1.994.029.284.009.361-.091.387-.375.186-2.006.193-2.006-1.791-2C-33.035,629.407-33.232,629.421-33.428,629.43Zm-16.6,2.321c.665.008,1.33.007,1.994.029.284.009.361-.091.387-.375.186-2.006.193-2.006-1.791-2-.2,0-.393.015-.59.023-1.775-.008-3.551-.02-5.326-.024-1.889,0-1.878,0-1.794,1.925.015.356.112.455.463.452C-54.463,631.76-52.244,631.759-50.024,631.751ZM-45.442,665a1.531,1.531,0,0,0-.219-.031q-11.029-.005-22.059,0a1.171,1.171,0,0,0-1.265,1.313c-.015.913.031,1.827-.017,2.738-.029.555.136.7.693.7,3.01-.029,6.021-.011,9.031-.014q6.995-.008,13.99-.022c.76.013,1.72.321,2.221-.106.483-.412.1-1.394.158-2.122,0-.049,0-.1,0-.148C-42.768,664.933-43.4,664.847-45.442,665Zm-4.585-2.435c.591.008,1.184-.012,1.772.033.486.038.62-.127.614-.611-.025-2.217,0-4.435-.018-6.651-.007-.728.329-1.754-.147-2.105-.5-.365-1.461-.092-2.221-.1q-6.883-.012-13.766-.031c-.35,0-.463.1-.462.455q.02,4.292,0,8.585c0,.359.112.456.462.455Q-56.91,662.572-50.027,662.568ZM-25.288,650.7a3.509,3.509,0,0,0,3.544-2.429,7.11,7.11,0,0,0,.162-2.411c-.012-.725.336-1.7-.153-2.109s-1.458-.116-2.215-.1c-.222-.008-.444-.022-.665-.022H-89.51a2.037,2.037,0,0,1-.3,0c-.438-.064-.542.143-.53.548.026.839.007,1.679.008,2.518,0,2.658,1.4,4.047,4.074,4.047q30,0,60,0C-25.929,650.738-25.609,650.713-25.288,650.7Zm1.345-9.466c.591.008,1.185-.013,1.774.034.484.039.61-.118.609-.6q-.021-18.019-.015-36.039a3.519,3.519,0,0,0-3.847-3.641c-.148-.008-.3-.024-.443-.024q-30.369,0-60.738,0a3.544,3.544,0,0,0-3.722,3.721q-.011,6.147,0,12.294c0,7.826.011,15.652-.018,23.477,0,.7.2.85.85.819,1.109-.052,2.221-.014,3.332-.014q14.148,0,28.3.016c.635,0,.762-.173.748-.772-.042-1.8-.052-3.6,0-5.405.023-.734-.113-1.032-.926-.972-1.02.075-1.455-.4-1.46-1.4q-.012-2.148,0-4.3c.006-.962.439-1.392,1.412-1.393q5.7-.009,11.407,0c.965,0,1.395.437,1.4,1.4.009,1.259,0,2.518,0,3.777,0,1.647-.228,1.9-1.848,1.916-.416,0-.537.11-.532.531q.032,3.037,0,6.073c0,.423.119.533.534.529q3.037-.031,6.074,0c.43,0,.528-.132.523-.539-.02-1.9-.055-3.8.013-5.7.028-.775-.208-.941-.927-.9-.964.058-1.449-.389-1.46-1.252q-.029-2.3,0-4.592a1.152,1.152,0,0,1,1.256-1.245q5.851-.017,11.7,0a1.155,1.155,0,0,1,1.252,1.25q.029,2.3,0,4.591a1.176,1.176,0,0,1-1.245,1.261,4.262,4.262,0,0,1-.666,0c-.351-.038-.463.084-.461.447q.025,3.11,0,6.221c0,.355.1.46.455.456C-28.387,641.242-26.165,641.241-23.944,641.233Zm-9.433,14.248c1.136,0,1.136,0,1.136-1.161,0-1.21,0-1.21-1.235-1.21-1.136,0-1.136,0-1.136,1.161C-34.612,655.481-34.612,655.481-33.377,655.481Z" transform="translate(0 0)"/>
      <path id="Trazado_634234" data-name="Trazado 634234" d="M-18.371,646.848c-2.222.008-4.443.009-6.664.032-.357,0-.457-.1-.455-.456q.023-3.11,0-6.221c0-.363.11-.485.461-.447a4.255,4.255,0,0,0,.666,0,1.176,1.176,0,0,0,1.245-1.261q.028-2.3,0-4.592a1.155,1.155,0,0,0-1.252-1.25q-5.852-.018-11.7,0A1.152,1.152,0,0,0-37.33,633.9q-.029,2.3,0,4.591c.011.864.5,1.31,1.46,1.252.719-.043.955.123.927.9-.068,1.9-.034,3.8-.013,5.7,0,.408-.093.544-.523.539q-3.036-.034-6.074,0c-.415,0-.539-.106-.534-.528q.033-3.036,0-6.073c0-.42.116-.527.532-.531,1.62-.015,1.848-.269,1.848-1.916,0-1.259.007-2.518,0-3.777-.007-.968-.437-1.4-1.4-1.4q-5.7-.009-11.407,0c-.973,0-1.406.431-1.412,1.393q-.014,2.147,0,4.3c.006,1,.441,1.475,1.46,1.4.813-.06.949.238.926.972-.055,1.8-.045,3.6,0,5.405.014.6-.113.773-.748.772q-14.147-.036-28.3-.016c-1.111,0-2.224-.038-3.332.014-.647.031-.853-.12-.85-.819.029-7.826.018-15.651.018-23.477q0-6.147,0-12.294a3.544,3.544,0,0,1,3.722-3.721q30.369-.005,60.738,0c.148,0,.3.015.443.024a6.215,6.215,0,0,1,1.414,5.458,1.432,1.432,0,0,0-1.408-.749q-18.66.015-37.32.008c-1.111,0-1.51.4-1.51,1.519q0,6.774,0,13.549c0,1.119.4,1.524,1.506,1.525q18.66,0,37.32.008a1.423,1.423,0,0,0,1.409-.746c.023.319.066.638.067.957Q-18.367,637.486-18.371,646.848ZM-77.62,630.28a4.29,4.29,0,0,0,2-.469.627.627,0,0,1,.837.115q3.828,3.436,7.689,6.835a.679.679,0,0,1,.269.867,2.84,2.84,0,0,0-.083,1.606,3.547,3.547,0,0,0,4.259,2.8A3.532,3.532,0,0,0-60,637.63a3.537,3.537,0,0,0-4.54-2.424c-.325.1-.561.178-.863-.093q-3.884-3.485-7.8-6.934a.484.484,0,0,1-.143-.682,4.454,4.454,0,0,0,0-3.928.6.6,0,0,1,.163-.818c1.181-1.157,2.36-2.317,3.506-3.508.653-.678,1.238-1.424,2.327-.835a.2.2,0,0,0,.073.007,3.561,3.561,0,0,0,3.59-2.207,3.514,3.514,0,0,0-1.028-4.08,3.507,3.507,0,0,0-4.136-.266,3.413,3.413,0,0,0-1.53,3.9,1.019,1.019,0,0,1-.35,1.2q-1.991,1.934-3.926,3.925a.917.917,0,0,1-1.241.27,4.611,4.611,0,0,0-5.113,1.05,4.75,4.75,0,0,0-1.018,5.134A4.79,4.79,0,0,0-77.62,630.28Z" transform="translate(-5.573 -5.615)" fill="#bde0f5"/>
      <path id="Trazado_634235" data-name="Trazado 634235" d="M-19.692,757.331c-.32.014-.64.039-.961.039q-30,0-60,0c-2.676,0-4.073-1.389-4.074-4.047,0-.84.018-1.68-.008-2.518-.012-.4.092-.612.53-.548a2.045,2.045,0,0,0,.3,0H-19.02c.222,0,.444.014.665.022,0,1.205-.007,2.411.011,3.616A6.675,6.675,0,0,1-19.692,757.331Zm-9.323-3.534c0-1.165,0-1.165-.855-1.166-1.516,0-1.516,0-1.516.947,0,1.424,0,1.424.965,1.424C-29.016,755-29.016,755-29.016,753.8Zm4.742.069c0-1.235,0-1.235-1.228-1.235-1.143,0-1.143,0-1.143,1.172,0,1.2,0,1.2,1.191,1.2S-24.274,755-24.274,753.866Zm3.525-1.235c-1.154,0-1.154,0-1.154,1.088,0,1.283,0,1.283,1.254,1.283,1.117,0,1.117,0,1.117-1.125C-19.532,752.631-19.532,752.631-20.749,752.631Z" transform="translate(-5.596 -106.632)" fill="#77808e"/>
      <path id="Trazado_634236" data-name="Trazado 634236" d="M17.334,791.673q-6.883.012-13.766.031c-.35,0-.463-.1-.462-.455q.02-4.293,0-8.585c0-.359.112-.456.462-.455q6.883.027,13.766.031Z" transform="translate(-67.361 -129.105)" fill="#acb2ba"/>
      <path id="Trazado_634237" data-name="Trazado 634237" d="M10.822,826.877q-7,.011-13.99.022c-3.01,0-6.021-.015-9.031.014-.557.005-.722-.142-.693-.7.048-.91,0-1.825.017-2.738a1.171,1.171,0,0,1,1.265-1.313q11.029-.011,22.059,0a1.514,1.514,0,0,1,.219.031A28.142,28.142,0,0,1,10.822,826.877Z" transform="translate(-56.111 -157.196)" fill="#77808e"/>
      <path id="Trazado_634238" data-name="Trazado 634238" d="M135.314,612.1a6.215,6.215,0,0,0-1.414-5.458,3.519,3.519,0,0,1,3.847,3.641q.011,18.02.015,36.039c0,.485-.126.642-.609.6-.588-.047-1.182-.026-1.774-.034q0-9.362,0-18.723c0-.319-.043-.638-.066-.957.023-.244.066-.487.066-.731q.006-6.824,0-13.649C135.377,612.593,135.336,612.348,135.314,612.1Z" transform="translate(-159.322 -5.664)" fill="#acd9f3"/>
      <path id="Trazado_634239" data-name="Trazado 634239" d="M51.028,791.528v-9.433c.76.006,1.725-.266,2.221.1.476.351.141,1.377.147,2.105.02,2.217-.007,4.434.018,6.651.005.484-.128.649-.614.611C52.212,791.515,51.619,791.536,51.028,791.528Z" transform="translate(-101.055 -128.959)" fill="#9199a4"/>
      <path id="Trazado_634240" data-name="Trazado 634240" d="M34.108,704.733c-2.219.008-4.439.009-6.658.031-.35,0-.447-.1-.463-.452-.083-1.926-.095-1.929,1.794-1.925,1.775,0,3.551.015,5.326.024Z" transform="translate(-84.133 -72.982)" fill="#c7ccd2"/>
      <path id="Trazado_634241" data-name="Trazado 634241" d="M90.007,704.733c-2.22.008-4.439.009-6.659.031-.35,0-.447-.1-.462-.452-.083-1.926-.095-1.929,1.794-1.925,1.775,0,3.551.015,5.326.024Z" transform="translate(-123.435 -72.982)" fill="#c7ccd2"/>
      <path id="Trazado_634242" data-name="Trazado 634242" d="M37.2,725.416c-.759-.006-1.726.267-2.216-.1-.467-.348-.129-1.376-.14-2.1-.022-1.452.008-2.9-.015-4.357-.007-.41.1-.564.527-.536.613.04,1.229.024,1.844.031Z" transform="translate(-89.597 -84.182)" fill="#b9bfc7"/>
      <path id="Trazado_634243" data-name="Trazado 634243" d="M43.03,725.282v-7.065c.76.006,1.723-.265,2.221.1.481.352.138,1.376.15,2.1.025,1.452-.008,2.906.017,4.358.007.424-.125.559-.543.534C44.262,725.276,43.645,725.29,43.03,725.282Z" transform="translate(-95.431 -84.048)" fill="#8b8f95"/>
      <path id="Trazado_634244" data-name="Trazado 634244" d="M93.094,725.416c-.759-.006-1.726.267-2.216-.1-.466-.348-.129-1.376-.14-2.1-.022-1.452.007-2.9-.015-4.357-.007-.41.1-.564.527-.536.613.04,1.229.024,1.844.031Z" transform="translate(-128.899 -84.182)" fill="#b9bfc7"/>
      <path id="Trazado_634245" data-name="Trazado 634245" d="M98.929,725.282v-7.065c.76.006,1.723-.265,2.221.1.481.352.138,1.376.15,2.1.025,1.452-.008,2.906.017,4.358.007.424-.125.559-.543.534C100.161,725.276,99.544,725.29,98.929,725.282Z" transform="translate(-134.734 -84.048)" fill="#8b8f95"/>
      <path id="Trazado_634246" data-name="Trazado 634246" d="M134.351,757.134A6.675,6.675,0,0,0,135.7,753.7c-.018-1.205-.009-2.411-.011-3.616.757-.017,1.711-.316,2.215.1s.142,1.384.153,2.109a7.109,7.109,0,0,1-.162,2.411A3.509,3.509,0,0,1,134.351,757.134Z" transform="translate(-159.639 -106.435)" fill="#59606a"/>
      <path id="Trazado_634247" data-name="Trazado 634247" d="M66.624,826.849a28.143,28.143,0,0,0-.153-4.678c2.043-.156,2.674-.07,2.533,2.3,0,.049,0,.1,0,.148-.057.728.325,1.71-.158,2.122C68.344,827.17,67.384,826.862,66.624,826.849Z" transform="translate(-111.913 -157.168)" fill="#59606a"/>
      <path id="Trazado_634248" data-name="Trazado 634248" d="M51.036,704.732v-2.321c.2-.008.393-.023.59-.023,1.985-.008,1.977-.008,1.791,2-.026.285-.1.385-.387.375C52.366,704.739,51.7,704.74,51.036,704.732Z" transform="translate(-101.06 -72.982)" fill="#b9bfc7"/>
      <path id="Trazado_634249" data-name="Trazado 634249" d="M104.184,784.6c-1.235,0-1.235,0-1.235-1.21,0-1.161,0-1.161,1.136-1.161,1.235,0,1.235,0,1.235,1.21C105.32,784.6,105.32,784.6,104.184,784.6Z" transform="translate(-137.561 -129.12)" fill="#acb2ba"/>
      <path id="Trazado_634250" data-name="Trazado 634250" d="M106.935,704.732v-2.321c.2-.008.393-.023.59-.023,1.985-.008,1.977-.008,1.791,2-.026.285-.1.385-.387.375C108.265,704.739,107.6,704.74,106.935,704.732Z" transform="translate(-140.363 -72.982)" fill="#b9bfc7"/>
      <path id="Trazado_634251" data-name="Trazado 634251" d="M43.367,623.266c.022.244.062.488.062.732q.006,6.825,0,13.649c0,.244-.043.487-.067.731a1.423,1.423,0,0,1-1.409.746q-18.66-.013-37.32-.008c-1.107,0-1.505-.405-1.506-1.525q0-6.774,0-13.549c0-1.116.4-1.518,1.51-1.519q18.66,0,37.32-.008A1.432,1.432,0,0,1,43.367,623.266Zm-4.681,13.457c.592.008,1.186-.013,1.775.033.483.038.615-.117.611-.6-.023-3.011,0-6.022-.019-9.033,0-.729.329-1.761-.143-2.108-.495-.365-1.463-.088-2.225-.092-.1-.008-.2-.023-.295-.023q-16.149,0-32.3-.012c-.481,0-.61.119-.607.6.022,3.506.029,7.012,0,10.518-.006.618.146.758.76.757q15.075-.032,30.15-.016C37.157,636.746,37.922,636.731,38.686,636.723Z" transform="translate(-67.375 -16.825)"/>
      <path id="Trazado_634252" data-name="Trazado 634252" d="M-71.962,641.5a4.787,4.787,0,0,1-4.41-2.94,4.75,4.75,0,0,1,1.018-5.134,4.611,4.611,0,0,1,5.113-1.05A.917.917,0,0,0-69,632.11q1.935-1.991,3.926-3.925a1.019,1.019,0,0,0,.35-1.2,3.413,3.413,0,0,1,1.53-3.9,3.507,3.507,0,0,1,4.136.266,3.514,3.514,0,0,1,1.028,4.08,3.561,3.561,0,0,1-3.59,2.208.2.2,0,0,1-.073-.007c-1.089-.589-1.675.156-2.327.835-1.146,1.191-2.325,2.351-3.506,3.508a.6.6,0,0,0-.163.818,4.454,4.454,0,0,1,0,3.928.484.484,0,0,0,.143.682q3.913,3.452,7.8,6.934c.3.271.538.195.863.093a3.538,3.538,0,0,1,4.54,2.424,3.532,3.532,0,0,1-2.655,4.408,3.547,3.547,0,0,1-4.259-2.8,2.84,2.84,0,0,1,.083-1.606.679.679,0,0,0-.269-.867q-3.863-3.4-7.689-6.835a.627.627,0,0,0-.837-.115A4.275,4.275,0,0,1-71.962,641.5Zm-.474-7.009a2.254,2.254,0,0,0-1.918,2.267,2.265,2.265,0,0,0,1.918,2.265,2.207,2.207,0,0,0,2.417-.948,2.344,2.344,0,0,0,0-2.633A2.211,2.211,0,0,0-72.436,634.5Zm14.687,16.488a1.2,1.2,0,0,0,1.173-1.175,1.193,1.193,0,0,0-1.156-1.191,1.191,1.191,0,0,0-1.21,1.211A1.193,1.193,0,0,0-57.749,650.984Zm-2.383-24.915a1.194,1.194,0,0,0-1.191-1.157,1.192,1.192,0,0,0-1.175,1.173,1.192,1.192,0,0,0,1.227,1.194A1.2,1.2,0,0,0-60.132,626.068Z" transform="translate(-11.231 -16.84)" fill="#020303"/>
      <path id="Trazado_634253" data-name="Trazado 634253" d="M97.334,759.442c0,1.205,0,1.205-1.406,1.2-.966,0-.966,0-.965-1.424,0-.948,0-.948,1.516-.947C97.334,758.277,97.334,758.277,97.334,759.442Z" transform="translate(-131.946 -112.277)"/>
      <path id="Trazado_634254" data-name="Trazado 634254" d="M113.305,759.511c0,1.136,0,1.136-1.18,1.136s-1.191,0-1.191-1.2c0-1.172,0-1.172,1.143-1.172C113.305,758.276,113.305,758.276,113.305,759.511Z" transform="translate(-143.175 -112.277)"/>
      <path id="Trazado_634255" data-name="Trazado 634255" d="M128.059,758.276c1.217,0,1.217,0,1.217,1.246,0,1.125,0,1.125-1.117,1.125-1.254,0-1.254,0-1.254-1.283C126.9,758.276,126.9,758.276,128.059,758.276Z" transform="translate(-154.404 -112.277)"/>
      <path id="Trazado_634256" data-name="Trazado 634256" d="M44.264,642.329c-.765.008-1.53.023-2.295.023q-15.075,0-30.15.016c-.614,0-.766-.139-.76-.757.034-3.506.026-7.012,0-10.518,0-.485.126-.6.607-.6q16.149.021,32.3.012c.1,0,.2.015.295.023q0,1.18,0,2.36l-29.038-.014c-1.829,0-1.815,0-1.792,1.852.005.419.117.528.533.528q15.149-.024,30.3-.022v2.4l-29.038-.014c-1.829,0-1.815,0-1.792,1.852.005.419.117.528.533.528q15.149-.024,30.3-.023Z" transform="translate(-72.953 -22.431)" fill="#f1f1f1"/>
      <path id="Trazado_634257" data-name="Trazado 634257" d="M122.9,637.479v-4.741q0-1.18,0-2.359c.762,0,1.73-.273,2.225.092.472.348.139,1.379.143,2.108.017,3.011,0,6.022.019,9.033,0,.487-.128.642-.611.6-.589-.047-1.183-.025-1.775-.033q0-1.18,0-2.359Z" transform="translate(-151.587 -22.285)" fill="#c7ccd2"/>
      <path id="Trazado_634258" data-name="Trazado 634258" d="M-62.278,662.655a2.211,2.211,0,0,1,2.418.951,2.344,2.344,0,0,1,0,2.633,2.207,2.207,0,0,1-2.417.948A5.953,5.953,0,0,0-62.278,662.655Z" transform="translate(-21.389 -45)" fill="#9a595d"/>
      <path id="Trazado_634259" data-name="Trazado 634259" d="M-66.819,662.812a5.953,5.953,0,0,1,0,4.532,2.265,2.265,0,0,1-1.918-2.265A2.254,2.254,0,0,1-66.819,662.812Z" transform="translate(-16.848 -45.157)" fill="#cd777b"/>
      <path id="Trazado_634260" data-name="Trazado 634260" d="M-15.635,712.743a1.193,1.193,0,0,1-1.193-1.155,1.191,1.191,0,0,1,1.21-1.211,1.193,1.193,0,0,1,1.156,1.191A1.2,1.2,0,0,1-15.635,712.743Z" transform="translate(-53.345 -78.599)" fill="#e6cd86"/>
      <path id="Trazado_634261" data-name="Trazado 634261" d="M-26.439,631.689a1.2,1.2,0,0,1-1.139,1.21,1.192,1.192,0,0,1-1.227-1.194,1.192,1.192,0,0,1,1.175-1.173A1.194,1.194,0,0,1-26.439,631.689Z" transform="translate(-44.924 -22.46)" fill="#e6cd86"/>
      <path id="Trazado_634262" data-name="Trazado 634262" d="M49.881,638.524v2.344q-15.149.007-30.3.022c-.416,0-.528-.108-.533-.528-.022-1.852-.037-1.853,1.792-1.852Z" transform="translate(-78.569 -28.07)"/>
      <path id="Trazado_634263" data-name="Trazado 634263" d="M49.881,654.493v2.343q-15.149.007-30.3.023c-.416,0-.528-.108-.533-.528-.022-1.852-.037-1.853,1.792-1.852Z" transform="translate(-78.569 -39.298)"/>
    </g>
  </g>
</svg>
