<svg xmlns="http://www.w3.org/2000/svg" width="82" height="82.018" viewBox="0 0 82 82.018">
  <g id="Grupo_962301" data-name="Grupo 962301" transform="translate(-498 -23223.229)">
    <g id="Grupo_956685" data-name="Grupo 956685" transform="translate(195 19294.23)">
      <g id="Grupo_951854" data-name="Grupo 951854" transform="translate(303 3929)">
        <path id="Trazado_621807" data-name="Trazado 621807" d="M41,0A41,41,0,1,1,0,41,41,41,0,0,1,41,0Z" fill="#ef8b53"/>
      </g>
      <g id="Grupo_962300" data-name="Grupo 962300" transform="translate(44.649 3393.709)">
        <path id="Trazado_634167" data-name="Trazado 634167" d="M317.437,596.134c.353-1.018.634-1.237,1.66-1.237q9.84,0,19.68,0c.933,0,1.455.359,1.558,1.042s-.318,1.169-1.211,1.4c-1.917-.014-3.834-.005-5.75-.054-.637-.016-.783.142-.6.763a2.506,2.506,0,0,1-.026,1.423c-.12.393-.022.533.388.528,2-.023,3.993-.032,5.99-.046.876.229,1.271.659,1.214,1.324-.06.7-.589,1.114-1.491,1.115-5.017,0-10.034.022-15.051-.018-.763-.006-.94.226-.892.929.059.85.02,1.707.012,2.561-.01,1.084-.421,1.554-1.5,1.481-.824-.056-1.014.2-.98.994.068,1.594.02,1.6,1.637,1.6,1.468,0,2.935-.007,4.4,0,.984.006,1.4.423,1.412,1.413q.019,2.282,0,4.564c-.009.979-.437,1.392-1.437,1.393q-9.687.007-19.374,0c-1.033,0-1.469-.429-1.477-1.447q-.016-2.242,0-4.484c.007-1.019.439-1.436,1.479-1.44,1.735-.007,3.47-.039,5.2.016.7.022.909-.207.8-.848a1.568,1.568,0,0,1,0-.24c-.007-.453.139-1-.062-1.333-.236-.392-.831-.109-1.265-.167a1.247,1.247,0,0,1-1.178-1.357c-.019-1.041-.02-2.082,0-3.122.008-.375-.092-.5-.485-.5-4.67.013-9.34.019-14.01,0-.626,0-.516.357-.516.717q0,6.165,0,12.33c0,1.588-.289,1.882-1.843,1.882H260.1c-1.408,0-1.752-.34-1.752-1.733q0-19.456,0-38.913a6.1,6.1,0,0,1,4.534-6.29c.411-.136.45-.353.439-.7a7.546,7.546,0,0,1,.291-2.688,5.956,5.956,0,0,1,4.022-4.006.79.79,0,0,0,.668-.925q-.034-8.887-.012-17.775a8.659,8.659,0,0,1,6.605-8.711,8.55,8.55,0,0,1,9.563,4.106,1.021,1.021,0,0,0,1.043.612c3.149-.029,6.3-.017,9.447-.013,1,0,1.3.249,1.55,1.236a1.337,1.337,0,0,1-1.535,1.174c-2.533-.023-5.066-.008-7.6-.008-1.774,0-1.738,0-1.778,1.759-.016.7.223.823.862.821q11.079-.032,22.158-.014c1.85,0,1.823,0,1.842-1.822.006-.6-.161-.764-.761-.758-2.959.031-5.919,0-8.879.022a1.333,1.333,0,0,1-1.523-1.185c.242-.97.555-1.224,1.557-1.225,2.962,0,5.924-.023,8.885.016.622.008.761-.171.728-.753-.051-.9-.022-1.814-.011-2.721.014-1.088.431-1.509,1.5-1.512,2.4-.006,4.8-.023,7.2,0a8.647,8.647,0,0,1,4.235,16.176.908.908,0,0,0-.583.99,5.733,5.733,0,0,1,0,.96c-.052,1.085-.1,2.039,1.177,2.676a2.908,2.908,0,0,1,1.309,2.763c0,1.868.014,3.736-.008,5.6-.006.476.055.761.628.673a2.069,2.069,0,0,1,2.041.956q2.77,3.47,5.636,6.864c2.677,3.159,1.468,7.9-1.949,8.973-.314.1-.434.371-.581.624-1.106,1.913-2.193,3.837-3.325,5.734a3.812,3.812,0,0,1-4.063,1.753,3.679,3.679,0,0,1-2.8-3.221,3.635,3.635,0,0,1,.536-2.292c.987-1.705,1.949-3.424,2.959-5.115a1.277,1.277,0,0,0,.13-1.256q-1-2.523-1.908-5.079a.713.713,0,0,0-.8-.568c-1.787.025-3.575.022-5.363,0a.668.668,0,0,0-.76.509q-.889,2.478-1.85,4.93a1.014,1.014,0,0,0,.136.968c1.06,1.816,2.124,3.631,3.159,5.462a3.611,3.611,0,0,1-.438,4.629,3.677,3.677,0,0,1-5.815-.74c-1.085-1.8-2.121-3.632-3.159-5.461a1.664,1.664,0,0,0-.981-.833,5.505,5.505,0,0,1-2.52-8.439c2.078-2.641,4.268-5.193,6.39-7.8a1.679,1.679,0,0,1,1.642-.594c.625.079.748-.163.736-.747-.039-1.814-.011-3.629-.015-5.444a3.513,3.513,0,0,1,2.012-3.366.717.717,0,0,0,.47-.714c.073-2.265.083-2.264-2.178-2.264-.427,0-.854,0-1.281,0-1.127-.012-1.517-.405-1.528-1.559-.008-.881-.043-1.764.013-2.641.04-.63-.156-.789-.785-.787-7.525.023-15.05.015-22.574.015-1.487,0-1.487,0-1.487,1.5,0,1.521-.043,3.044.016,4.563.036.925-.237,1.541-1.171,1.774-1.015-.309-1.249-.607-1.254-1.64-.006-1.23,0-2.46,0-3.839a11.534,11.534,0,0,1-2.185,1.607,9.036,9.036,0,0,1-6.652.662,10.1,10.1,0,0,1-3.537-2.184c-.085.092-.116.11-.116.127-.008,3.976-.008,7.951-.027,11.927,0,.434.169.548.568.538,1.04-.026,2.08-.024,3.12-.033l8.639.006c.1.015.158-.021.161-.127.01-.9.017-1.8.029-2.7.014-1.015.291-1.35,1.29-1.568a1.274,1.274,0,0,1,1.126,1.481c-.026.827,0,1.655-.011,2.482a.558.558,0,0,0,.468.668,6.032,6.032,0,0,1,4.491,6.231,1.232,1.232,0,0,0,1.012,1.431,6.02,6.02,0,0,1,3.987,6.037c.014,4.965,0,9.93,0,14.894,0,.908.038,1.817-.014,2.722-.032.575.162.7.709.694,5.578-.02,11.156-.013,16.734-.012,1.139,0,1.38.177,1.737,1.245a1.418,1.418,0,0,1-1.64,1.166c-1.518-.041-3.039.012-4.557-.022-.6-.013-.861.125-.643.759a1.828,1.828,0,0,1,.031,1.183c-.254.73.1.777.687.776q8.2-.021,16.39.006c.624,0,.758-.142.625-.745a2.665,2.665,0,0,1,.024-1.344c.224-.683-.152-.626-.581-.625-1.972,0-3.945-.031-5.916.016A1.486,1.486,0,0,1,317.437,596.134Zm-.789,6.283c-.585-.007-1.171-.02-1.756-.021-1.989,0-1.977,0-1.926,1.968.011.432.107.623.579.607,1.037-.035,2.076-.023,3.114-.03.64.007,1.279.02,1.919.021,2.091,0,2.078,0,1.952-2.092-.024-.4-.162-.49-.523-.483C318.887,602.41,317.768,602.409,316.648,602.417Zm2.585-44.783c-.877-.013-1.755-.062-2.63-.029a1.144,1.144,0,0,0-1.235,1.192c-.023,1.943,0,3.885-.015,5.828,0,.379.132.52.51.509,1.009-.029,2.02-.033,3.03-.048,1.172.018,2.345.023,3.516.06.4.013.492-.143.489-.512-.014-1.921.006-3.843-.013-5.764a1.179,1.179,0,0,0-1.254-1.265C320.833,557.578,320.032,557.622,319.233,557.634Zm-5.944,54.723c-1.114-.006-2.228-.017-3.341-.018-2.029,0-2.013,0-1.954,2,.014.465.167.58.6.573,1.565-.026,3.129-.02,4.694-.026q5.152.009,10.3.018c2,0,1.984,0,1.909-2.042-.015-.426-.145-.534-.553-.531C321.063,612.349,317.176,612.35,313.289,612.357ZM269.4,570.094l14.876.026c1.12,0,2.24,0,3.36,0,.221,0,.458.068.548-.292a3.924,3.924,0,0,0-3.491-4.731c-.985-.042-1.973-.015-2.959-.012q-5.438.018-10.876.04c-.264-.014-.529-.018-.792-.045a3.9,3.9,0,0,0-4.352,4.506c.024.306-.01.6.435.578C267.234,570.118,268.32,570.242,269.4,570.094Zm-4.8,44.789c.24.007.479.02.72.02,8.965,0,17.93-.011,26.895.021.792,0,.953-.222.951-.976-.024-12.382-.053-24.763.011-37.145a4.039,4.039,0,0,0-4.319-4.31c-7.284.057-14.568.019-21.852.023-.317,0-.634.047-.951.072-3.44-.592-5.374,1.5-5.338,4.323.1,7.846.034,15.694.034,23.542,0,4.564.01,9.129-.012,13.693,0,.576.114.809.741.773C262.52,614.86,263.562,614.89,264.6,614.883Zm54.526-47.339q-3.161,0-6.323,0a.934.934,0,0,0-.844.318c-1.968,2.422-3.957,4.826-5.932,7.242a2.777,2.777,0,0,0-.654,2.081,3.309,3.309,0,0,0,2.691,2.8,2.726,2.726,0,0,0,3.131-1.909c.893-2.251,1.737-4.522,2.557-6.8a1.552,1.552,0,0,1,1.674-1.159q3.681.042,7.363,0a1.59,1.59,0,0,1,1.712,1.222c.765,2.157,1.6,4.291,2.393,6.437a2.819,2.819,0,0,0,2.494,2.059,2.915,2.915,0,0,0,3.039-1.5,3.092,3.092,0,0,0-.511-3.578c-1.81-2.274-3.691-4.492-5.525-6.748a1.167,1.167,0,0,0-1.023-.468C323.291,567.555,321.21,567.545,319.129,567.545Zm-6.282-23.577c0,1.841.018,3.682-.011,5.523-.008.529.094.751.689.739,1.893-.039,3.789.011,5.682-.024a6.248,6.248,0,0,0-.025-12.5c-1.894-.027-3.789.015-5.682-.02-.541-.01-.671.163-.664.676C312.863,540.233,312.847,542.1,312.847,543.968Zm-29.642.067a6.255,6.255,0,1,0-6.4,6.173A6.236,6.236,0,0,0,283.205,544.035Zm32.187,42.69a1.481,1.481,0,0,0-.172-.77q-1.387-2.424-2.775-4.846c-.12-.21-.246-.354-.477-.131-.525.506-1.567.626-1.731,1.143-.19.6.606,1.264.937,1.92.108.213.235.417.355.623.51.873,1,1.757,1.54,2.611a1.251,1.251,0,0,0,1.514.584A1.055,1.055,0,0,0,315.392,586.726Zm9.2.976a1.188,1.188,0,0,0,1.105-.655c.863-1.5,1.723-2.995,2.6-4.485.17-.29.2-.447-.195-.55a3.76,3.76,0,0,1-1.414-.715c-.343-.278-.525-.21-.732.156-.837,1.481-1.718,2.937-2.537,4.427A1.19,1.19,0,0,0,324.594,587.7Zm-23.708,9.685c-.075-.034-.122-.074-.169-.074q-1.6-.013-3.2-.016c-2.116,0-2.116,0-1.977,2.1a.666.666,0,0,1,0,.08c-.016.367.151.523.526.52,1.438-.011,2.877-.008,4.315,0,.3,0,.492-.1.4-.419A4.2,4.2,0,0,1,300.886,597.386Zm19.546-43.559c-.265-.333.538-1.214-.566-1.23-2.052-.029-2.06-.021-2.05,1.136.014,1.655-.2,1.437,1.068,1.449C320.431,555.2,320.431,555.186,320.431,553.827Zm-3.642,53.538c-1.463.022-1.283-.179-1.293.993-.013,1.575,0,1.575,1.03,1.576,1.537,0,1.537,0,1.537-1.072C318.064,607.365,318.064,607.365,316.79,607.365ZM304.3,599.924a1.236,1.236,0,1,0-1.221-1.221A1.268,1.268,0,0,0,304.3,599.924Zm26.127-1.215a1.225,1.225,0,0,0-2.449-.078,1.226,1.226,0,1,0,2.449.078Z" transform="translate(0 0)" fill="#020202"/>
        <path id="Trazado_634168" data-name="Trazado 634168" d="M318.381,589.406c-1,.218-1.276.553-1.29,1.568-.012.9-.02,1.8-.029,2.7l-.161.127-8.639-.005q0-5.187-.009-10.375a9.036,9.036,0,0,0,6.652-.662,11.54,11.54,0,0,0,2.185-1.607c0,1.379,0,2.609,0,3.839.005,1.033.239,1.331,1.254,1.64A21.386,21.386,0,0,0,318.381,589.406Z" transform="translate(-33.888 -31.14)" fill="#5c66a7"/>
        <path id="Trazado_634169" data-name="Trazado 634169" d="M356.925,554.629a1.333,1.333,0,0,0,1.523,1.185c2.96-.021,5.919.009,8.879-.022.6-.006.767.158.761.758-.019,1.822.008,1.822-1.842,1.822q-11.079,0-22.158.014c-.639,0-.878-.124-.862-.821.04-1.758,0-1.759,1.778-1.759,2.533,0,5.066-.015,7.6.008a1.337,1.337,0,0,0,1.535-1.174Z" transform="translate(-57.637 -13.132)" fill="#5b66a6"/>
        <path id="Trazado_634170" data-name="Trazado 634170" d="M422.116,724.878a1.486,1.486,0,0,0,1.72,1.176c1.971-.047,3.944-.012,5.916-.016.429,0,.8-.058.581.625a2.665,2.665,0,0,0-.024,1.344c.134.6,0,.748-.625.745q-8.2-.037-16.39-.006c-.583,0-.942-.045-.687-.776a1.828,1.828,0,0,0-.031-1.183c-.218-.634.043-.772.643-.759,1.518.034,3.039-.018,4.557.023a1.418,1.418,0,0,0,1.64-1.166Z" transform="translate(-104.679 -128.744)" fill="#45538c"/>
        <path id="Trazado_634171" data-name="Trazado 634171" d="M496.455,731.125c-2,.014-3.994.023-5.99.046-.41,0-.508-.135-.388-.528a2.506,2.506,0,0,0,.026-1.423c-.185-.621-.039-.779.6-.763,1.916.048,3.833.04,5.75.054Z" transform="translate(-157.327 -131.174)" fill="#45538c"/>
        <path id="Trazado_634172" data-name="Trazado 634172" d="M279.171,651.308c.317-.025.634-.072.951-.073,7.284,0,14.568.033,21.852-.023a4.039,4.039,0,0,1,4.319,4.31c-.064,12.381-.035,24.763-.011,37.145,0,.754-.159.978-.951.976-8.965-.031-17.93-.02-26.895-.021-.24,0-.48-.013-.72-.02l0-2.525q4.964-.011,9.927-.021,7.246-.005,14.492,0c1.065,0,1.546-.375,1.551-1.283.016-3.283.008-6.566,0-9.849a1.153,1.153,0,0,0-1.158-1.266,9.434,9.434,0,0,0-.959-.035q-11.929-.012-23.859-.019l0-2.437,14.152-.023c1.607,0,1.887-.285,1.888-1.919q0-6.757,0-13.515c0-1.666-.227-1.893-1.883-1.9l-14.152-.028c0-1.008.069-2.023-.025-3.022A5.705,5.705,0,0,1,279.171,651.308ZM303.7,667.444c0-2.4.005-4.8,0-7.2,0-.948-.379-1.4-1.14-1.418-.782-.021-1.256.481-1.258,1.415q-.014,7.2,0,14.395c0,.911.5,1.487,1.216,1.494s1.18-.564,1.183-1.491C303.7,672.242,303.695,669.843,303.7,667.444Zm-4.973-.013c0-2.4.005-4.8,0-7.2,0-.928-.4-1.392-1.158-1.406-.776-.015-1.238.492-1.24,1.433q-.012,7.2,0,14.391c0,.9.507,1.481,1.23,1.478s1.166-.57,1.168-1.505C298.726,672.228,298.722,669.829,298.722,667.431Z" transform="translate(-13.114 -78.72)" fill="#5b66a6"/>
        <path id="Trazado_634173" data-name="Trazado 634173" d="M418.608,635.776c2.081,0,4.162.011,6.242-.009a1.167,1.167,0,0,1,1.023.468c1.834,2.256,3.715,4.474,5.525,6.748a3.092,3.092,0,0,1,.511,3.578,2.915,2.915,0,0,1-3.039,1.5A2.819,2.819,0,0,1,426.377,646c-.8-2.146-1.628-4.28-2.393-6.437a1.59,1.59,0,0,0-1.711-1.222q-3.681.049-7.363,0a1.552,1.552,0,0,0-1.674,1.159c-.821,2.279-1.664,4.55-2.557,6.8a2.726,2.726,0,0,1-3.131,1.909,3.309,3.309,0,0,1-2.691-2.8,2.777,2.777,0,0,1,.654-2.081c1.975-2.416,3.964-4.821,5.932-7.242a.934.934,0,0,1,.844-.318Q415.447,635.781,418.608,635.776Z" transform="translate(-99.479 -68.231)" fill="#77bdc1"/>
        <path id="Trazado_634174" data-name="Trazado 634174" d="M271.066,651.3a5.7,5.7,0,0,0-1.48,4.454c.094,1,.022,2.015.025,3.023-1,.219-1.28.554-1.28,1.586q-.005,7.1,0,14.2c0,1.047.217,1.307,1.276,1.6q0,1.218,0,2.437c-1.047.308-1.276.606-1.277,1.694q0,4.594,0,9.189c0,1.047.26,1.36,1.278,1.591l0,2.525c-1.04.007-2.083-.023-3.121.036-.627.036-.744-.2-.741-.773.022-4.564.012-9.129.012-13.693,0-7.847.065-15.7-.034-23.542C265.692,652.8,267.626,650.705,271.066,651.3Z" transform="translate(-5.009 -78.709)" fill="#45528a"/>
        <path id="Trazado_634175" data-name="Trazado 634175" d="M428.137,549.043c0-1.867.016-3.735-.011-5.6-.007-.513.123-.686.664-.676,1.893.035,3.788-.007,5.682.02a6.248,6.248,0,0,1,.025,12.5c-1.893.035-3.788-.015-5.682.024-.6.012-.7-.21-.689-.739C428.155,552.725,428.137,550.884,428.137,549.043Zm9.946-.04a3.68,3.68,0,0,0-3.747-3.654,3.684,3.684,0,1,0,.149,7.367A3.659,3.659,0,0,0,438.083,549Z" transform="translate(-115.29 -5.075)" fill="#77bdc1"/>
        <path id="Trazado_634176" data-name="Trazado 634176" d="M294.2,628.135q5.438-.021,10.876-.04c.986,0,1.975-.03,2.959.013a3.924,3.924,0,0,1,3.491,4.731c-.091.36-.327.29-.548.292-1.12.007-2.24.005-3.36,0l-14.876-.026a7.993,7.993,0,0,1,.31-3.2C293.327,629.233,293.9,628.774,294.2,628.135Z" transform="translate(-23.344 -63.014)" fill="#78bfc3"/>
        <path id="Trazado_634177" data-name="Trazado 634177" d="M309.329,549.145A6.255,6.255,0,0,1,296.82,549a6.255,6.255,0,1,1,12.509.147Zm-2.572-.1a3.674,3.674,0,0,0-3.663-3.658,3.684,3.684,0,1,0,.063,7.367A3.656,3.656,0,0,0,306.757,549.041Z" transform="translate(-26.123 -5.11)" fill="#77bdc1"/>
        <path id="Trazado_634178" data-name="Trazado 634178" d="M300.469,583.6q0,5.188.009,10.375c-1.04.009-2.08.006-3.12.033-.4.01-.57-.1-.568-.538.018-3.976.019-7.951.027-11.927,0-.017.03-.035.116-.127A10.1,10.1,0,0,0,300.469,583.6Z" transform="translate(-26.103 -31.32)" fill="#47548d"/>
        <path id="Trazado_634179" data-name="Trazado 634179" d="M429.538,775.372c3.887-.007,7.774-.008,11.661-.027.408,0,.538.105.553.532.074,2.043.089,2.045-1.91,2.042q-5.152-.007-10.3-.018Q429.539,776.636,429.538,775.372Z" transform="translate(-116.249 -163.015)" fill="#78bfc3"/>
        <path id="Trazado_634180" data-name="Trazado 634180" d="M447.34,604.833c.8-.012,1.6-.056,2.4-.029a1.179,1.179,0,0,1,1.254,1.265c.02,1.921,0,3.842.013,5.764,0,.369-.093.525-.489.512-1.172-.037-2.344-.042-3.516-.06,0-1.863.017-3.726,0-5.589A4.9,4.9,0,0,1,447.34,604.833Z" transform="translate(-128.107 -47.199)" fill="#78bfc3"/>
        <path id="Trazado_634181" data-name="Trazado 634181" d="M439.85,604.828a4.9,4.9,0,0,0-.339,1.864c.015,1.863,0,3.726,0,5.589-1.01.014-2.02.019-3.03.048-.378.011-.512-.13-.51-.509.013-1.943-.008-3.886.015-5.828a1.144,1.144,0,0,1,1.235-1.192C438.095,604.766,438.973,604.815,439.85,604.828Z" transform="translate(-120.617 -47.194)" fill="#458b8d"/>
        <path id="Trazado_634182" data-name="Trazado 634182" d="M425.125,683.164a1.056,1.056,0,0,1-.809,1.134,1.252,1.252,0,0,1-1.514-.584c-.539-.854-1.03-1.739-1.54-2.611-.121-.206-.248-.41-.355-.624-.332-.656-1.128-1.32-.937-1.92.164-.517,1.206-.637,1.731-1.143.232-.223.357-.08.477.131q1.384,2.425,2.775,4.847A1.491,1.491,0,0,1,425.125,683.164Z" transform="translate(-109.732 -96.438)" fill="#5a65a4"/>
        <path id="Trazado_634183" data-name="Trazado 634183" d="M286.406,628.1c-.306.639-.875,1.1-1.148,1.775a7.993,7.993,0,0,0-.31,3.2c-1.081.148-2.168.025-3.251.067-.444.017-.411-.272-.435-.578a3.9,3.9,0,0,1,4.352-4.506C285.877,628.08,286.142,628.084,286.406,628.1Z" transform="translate(-15.547 -62.977)" fill="#438485"/>
        <path id="Trazado_634184" data-name="Trazado 634184" d="M461.882,684.688a1.19,1.19,0,0,1-1.176-1.823c.819-1.49,1.7-2.946,2.537-4.427.207-.366.389-.434.732-.156a3.761,3.761,0,0,0,1.414.715c.4.1.365.26.195.55-.873,1.491-1.733,2.989-2.6,4.485A1.19,1.19,0,0,1,461.882,684.688Z" transform="translate(-137.288 -96.986)" fill="#5a65a4"/>
        <path id="Trazado_634185" data-name="Trazado 634185" d="M379.481,728.589a4.2,4.2,0,0,0-.1,2.189c.1.315-.1.42-.4.419-1.438,0-2.876-.008-4.315,0-.376,0-.542-.152-.526-.52a.666.666,0,0,0,0-.08c-.139-2.1-.139-2.1,1.977-2.1q1.6,0,3.2.016C379.358,728.514,379.405,728.554,379.481,728.589Z" transform="translate(-78.595 -131.202)" fill="#45528a"/>
        <path id="Trazado_634186" data-name="Trazado 634186" d="M418.3,775.391q0,1.264,0,2.529c-1.565.006-3.13,0-4.694.026-.435.007-.589-.108-.6-.573-.058-2-.075-2,1.954-2C416.07,775.374,417.184,775.384,418.3,775.391Z" transform="translate(-105.009 -163.034)" fill="#458b8d"/>
        <path id="Trazado_634187" data-name="Trazado 634187" d="M440.006,744.39c1.119-.008,2.239-.007,3.358-.031.361-.008.5.085.523.483.126,2.094.139,2.1-1.952,2.092-.64,0-1.279-.014-1.919-.021Q440.011,745.652,440.006,744.39Z" transform="translate(-123.358 -141.973)" fill="#77bdc1"/>
        <path id="Trazado_634188" data-name="Trazado 634188" d="M432.185,744.413q.005,1.262.011,2.523c-1.038.007-2.077-.005-3.114.03-.472.016-.568-.174-.579-.607-.051-1.969-.064-1.97,1.926-1.968C431.015,744.393,431.6,744.405,432.185,744.413Z" transform="translate(-115.537 -141.995)" fill="#458b8d"/>
        <path id="Trazado_634189" data-name="Trazado 634189" d="M446.247,590.434c0,1.359,0,1.369-1.548,1.355-1.265-.012-1.054.206-1.068-1.449-.01-1.157,0-1.165,2.05-1.136C446.785,589.22,445.982,590.1,446.247,590.434Z" transform="translate(-125.816 -36.606)" fill="#5a65a4"/>
        <path id="Trazado_634190" data-name="Trazado 634190" d="M437.707,759.874c1.274,0,1.274,0,1.274,1.5,0,1.073,0,1.073-1.537,1.072-1.034,0-1.043,0-1.03-1.576C436.424,759.7,436.243,759.9,437.707,759.874Z" transform="translate(-120.917 -152.508)" fill="#5a65a4"/>
        <path id="Trazado_634191" data-name="Trazado 634191" d="M398.941,731.455a1.236,1.236,0,1,1,1.274-1.249A1.261,1.261,0,0,1,398.941,731.455Z" transform="translate(-94.642 -131.532)" fill="#f6de89"/>
        <path id="Trazado_634192" data-name="Trazado 634192" d="M477.752,730.237a1.225,1.225,0,1,1-1.188-1.258A1.231,1.231,0,0,1,477.752,730.237Z" transform="translate(-147.326 -131.529)" fill="#f6de89"/>
        <path id="Trazado_634193" data-name="Trazado 634193" d="M335.2,620.293l.161-.127C335.358,620.272,335.3,620.308,335.2,620.293Z" transform="translate(-52.187 -57.637)" fill="#47548d"/>
        <path id="Trazado_634194" data-name="Trazado 634194" d="M275.117,749.037c-1.018-.232-1.277-.544-1.278-1.591q-.006-4.594,0-9.189c0-1.088.23-1.386,1.277-1.694q11.93.009,23.859.019a9.452,9.452,0,0,1,.959.035,1.153,1.153,0,0,1,1.158,1.266c0,3.283.012,6.566,0,9.849,0,.907-.486,1.282-1.551,1.283q-7.246,0-14.492,0Q280.081,749.02,275.117,749.037Zm12.293-2.424c3.523,0,7.046-.017,10.568.016.612.006.752-.163.741-.753-.038-2.055-.032-4.11,0-6.165.008-.546-.129-.727-.7-.725q-10.528.029-21.056,0c-.629,0-.74.2-.731.77q.051,3.082,0,6.165c-.009.553.125.714.7.71C280.418,746.6,283.914,746.613,287.41,746.613Z" transform="translate(-10.516 -136.679)" fill="#010101"/>
        <path id="Trazado_634195" data-name="Trazado 634195" d="M275.11,692.189c-1.059-.291-1.275-.551-1.276-1.6q0-7.1,0-14.2c0-1.031.28-1.367,1.28-1.586l14.152.028c1.656,0,1.883.23,1.883,1.9q0,6.757,0,13.515c0,1.634-.28,1.917-1.888,1.919Zm7.45-14.965c-1.893,0-3.787.01-5.68-.008-.435,0-.661.029-.657.582q.041,5.681,0,11.362c0,.519.17.608.64.606q5.64-.026,11.281,0c.51,0,.616-.158.614-.634-.018-3.761-.023-7.522,0-11.282,0-.56-.193-.644-.683-.638C286.241,677.239,284.4,677.224,282.56,677.224Z" transform="translate(-10.513 -94.743)" fill="#030304"/>
        <path id="Trazado_634196" data-name="Trazado 634196" d="M353.685,683.561c0,2.4,0,4.8,0,7.2,0,.927-.466,1.5-1.183,1.491s-1.215-.583-1.216-1.494q-.012-7.2,0-14.395c0-.933.477-1.435,1.258-1.415.761.02,1.137.469,1.14,1.417C353.691,678.762,353.685,681.161,353.685,683.561Z" transform="translate(-63.104 -94.836)" fill="#030304"/>
        <path id="Trazado_634197" data-name="Trazado 634197" d="M338.193,683.549c0,2.4,0,4.8,0,7.2,0,.935-.452,1.5-1.168,1.505s-1.229-.575-1.23-1.478q-.013-7.2,0-14.391c0-.941.464-1.448,1.24-1.433.758.014,1.154.478,1.158,1.406C338.2,678.752,338.193,681.15,338.193,683.549Z" transform="translate(-52.585 -94.837)" fill="#020202"/>
        <path id="Trazado_634198" data-name="Trazado 634198" d="M443.579,554.472a3.68,3.68,0,0,1-7.36.07,3.72,3.72,0,0,1,3.613-3.724A3.68,3.68,0,0,1,443.579,554.472Zm-2.42.066a1.266,1.266,0,0,0-1.221-1.316,1.319,1.319,0,0,0-1.314,1.249,1.3,1.3,0,0,0,1.246,1.306A1.241,1.241,0,0,0,441.159,554.538Z" transform="translate(-120.786 -10.543)" fill="#020202"/>
        <path id="Trazado_634199" data-name="Trazado 634199" d="M312.2,554.474a3.656,3.656,0,0,1-3.6,3.71,3.684,3.684,0,1,1,3.6-3.71Zm-3.669-1.252a1.339,1.339,0,0,0-1.291,1.262,1.292,1.292,0,0,0,1.325,1.294,1.278,1.278,0,0,0-.034-2.555Z" transform="translate(-31.563 -10.544)" fill="#020202"/>
        <path id="Trazado_634200" data-name="Trazado 634200" d="M292.464,751.734c-3.5,0-6.992-.014-10.488.014-.572,0-.706-.157-.7-.71q.051-3.082,0-6.165c-.01-.573.1-.772.731-.77q10.528.037,21.056,0c.575,0,.711.179.7.725-.03,2.055-.035,4.111,0,6.165.011.59-.128.759-.741.753C299.51,751.717,295.987,751.734,292.464,751.734Z" transform="translate(-15.57 -141.799)" fill="#f6de89"/>
        <path id="Trazado_634201" data-name="Trazado 634201" d="M287.619,682.315c1.84,0,3.681.015,5.52-.01.489-.007.687.078.683.638-.027,3.761-.022,7.521,0,11.282,0,.476-.1.638-.614.634q-5.64-.034-11.281,0c-.47,0-.643-.087-.64-.606q.035-5.681,0-11.362c0-.553.221-.586.657-.582C283.832,682.326,285.726,682.315,287.619,682.315Z" transform="translate(-15.572 -99.834)" fill="#f1f9fc"/>
        <path id="Trazado_634202" data-name="Trazado 634202" d="M446.249,559.626a1.241,1.241,0,0,1-1.289,1.239,1.3,1.3,0,0,1-1.246-1.306,1.319,1.319,0,0,1,1.314-1.249A1.266,1.266,0,0,1,446.249,559.626Z" transform="translate(-125.876 -15.632)" fill="#5a65a4"/>
        <path id="Trazado_634203" data-name="Trazado 634203" d="M313.618,558.314a1.278,1.278,0,0,1,.034,2.555,1.292,1.292,0,0,1-1.325-1.294A1.339,1.339,0,0,1,313.618,558.314Z" transform="translate(-36.654 -15.635)" fill="#5a65a4"/>
      </g>
    </g>
  </g>
</svg>
