<svg xmlns="http://www.w3.org/2000/svg" width="82" height="82.002" viewBox="0 0 82 82.002">
  <g id="Grupo_962297" data-name="Grupo 962297" transform="translate(-498 -22866.386)">
    <g id="Grupo_956681" data-name="Grupo 956681" transform="translate(195 18937.387)">
      <g id="Grupo_951854" data-name="Grupo 951854" transform="translate(303 3929)">
        <path id="Trazado_621807" data-name="Trazado 621807" d="M41,0A41,41,0,1,1,0,41,41,41,0,0,1,41,0Z" fill="#ef8b53"/>
      </g>
    </g>
    <g id="Grupo_962296" data-name="Grupo 962296" transform="translate(-52.346 22843.207)">
      <path id="Trazado_634101" data-name="Trazado 634101" d="M593.993,89.1h35.145c2.242,0,3.207.968,3.207,3.215q0,24.574,0,49.148c0,2.2-.977,3.183-3.158,3.183q-24.217,0-48.434-.013a1.666,1.666,0,0,0-1.385.583c-.531.6-1.16,1.108-1.681,1.713-.42.487-.745.578-1.3.163a2.963,2.963,0,0,0-3.244-.3,3.04,3.04,0,0,0-1.722,2.444c-.079.557-.291.726-.866.714-1.947-.043-3.9-.051-5.843,0-.685.019-.947-.181-1.076-.856a3.037,3.037,0,0,0-2.813-2.624,3.248,3.248,0,0,0-2.3.738c-.367.273-.6.25-.93-.093q-2.173-2.241-4.414-4.415c-.346-.336-.364-.569-.087-.928a3.154,3.154,0,0,0-2.127-5.179c-.492-.038-.621-.29-.614-.776.03-2.054.021-4.109.006-6.163,0-.417.028-.67.551-.743a3.168,3.168,0,0,0,2.174-5.217c-.263-.326-.3-.6.069-.854a.9.9,0,0,0,.113-.113c.784-.8,1.881-1.468,2.267-2.426.4-.989.117-2.257.118-3.4q0-12.327,0-24.654c0-2.138,1-3.141,3.122-3.141Zm-17.2,28.987c.791-.065,1.005.682,1.448,1.078.4.358.562.374.881-.075,1.462-2.058,2.96-4.09,4.445-6.132.768-1.056.766-1.054-.258-1.8a4.058,4.058,0,0,1-.619-.5c-.309-.334-.5-.32-.778.07-1.728,2.423-3.483,4.827-5.229,7.237l-.173.2C576.638,118.244,576.736,118.23,576.8,118.089ZM594,91.776q-17.453,0-34.907-.012c-.6,0-.828.107-.809.77.051,1.786.017,3.575.017,5.363q0,9.766,0,19.532c0,.332-.084.677.293.924a3.173,3.173,0,0,0,3.468.28,3.037,3.037,0,0,0,1.6-2.355c.081-.552.3-.791.923-.762,1.278.06,2.561.008,3.842.024a1.052,1.052,0,0,0,.9-.375q4.882-5.566,9.792-11.108a1.353,1.353,0,0,0,.366-.852,9.21,9.21,0,0,1,14.194-7.339,1.724,1.724,0,0,0,.813.27q5.749.394,11.5.809a2.6,2.6,0,0,1,2.487,2.2c.071.394.174.539.586.533,1.521-.022,3.042-.02,4.563,0a.642.642,0,0,0,.651-.44,3.846,3.846,0,0,1,3.623-2.19c1.681,0,3.363-.013,5.044,0a3.939,3.939,0,0,1,4.109,4.142q.015,4.4,0,8.806a2.607,2.607,0,0,1-2.163,2.84c-.392.106-.506.266-.493.65.025.719.033,1.442-.009,2.16a2.593,2.593,0,0,1-2.5,2.538,26.55,26.55,0,0,1-2.881,0,2.615,2.615,0,0,1-2.528-2.675c-.013-.667-.031-1.336.008-2,.024-.423-.108-.581-.528-.682a2.6,2.6,0,0,1-2.142-2.7c-.018-.666-.021-1.335,0-2,.013-.373-.1-.514-.49-.509-1.441.02-2.882.013-4.323,0-.314,0-.446.08-.519.426a2.661,2.661,0,0,1-2.718,2.325c-2.529.167-5.059.324-7.584.539-2.068.176-4.213-.014-6.062,1.3a2.433,2.433,0,0,0-.879.84c-2.573,4.933-5.145,9.868-7.753,14.783-.339.639-.343.966.438,1,.758.032.85.46.837,1.105-.037,1.814-.059,3.631.008,5.442.03.8-.16,1.127-1.005,1.3a3.067,3.067,0,0,0-2.073,4.6,1.224,1.224,0,0,0,1.257.716q22.937-.029,45.875,0c.7,0,.88-.167.879-.876q-.033-24.255,0-48.511c0-.725-.2-.863-.883-.862Q611.415,91.794,594,91.776Zm-26.513,55.5a5.278,5.278,0,0,1,.72.005,1.379,1.379,0,0,0,1.513-.81,4.926,4.926,0,0,1,5.207-2.55,3.231,3.231,0,0,0,3.452-1.435.912.912,0,0,1,.17-.169c.412-.279.428-.613.307-1.09-.583-2.295-.113-4.45,1.813-5.8a3.086,3.086,0,0,0,1.416-3.3,1.461,1.461,0,0,1,0-.4c.082-.492-.143-.738-.567-.99-2.011-1.2-3.2-3.036-2.783-5.318a3.244,3.244,0,0,0-1.4-3.461.57.57,0,0,1-.112-.114,1.031,1.031,0,0,0-1.291-.384,5.134,5.134,0,0,1-5.775-1.907,2.807,2.807,0,0,0-3.011-1.341,2.783,2.783,0,0,1-.639,0,.86.86,0,0,0-.939.523,5.159,5.159,0,0,1-5.535,2.824,2.816,2.816,0,0,0-3.065,1.195,2.8,2.8,0,0,1-.454.45.854.854,0,0,0-.268,1.036,5.2,5.2,0,0,1-1.856,5.87,2.9,2.9,0,0,0-1.383,3.081,2.454,2.454,0,0,1,0,.639.8.8,0,0,0,.5.876c2.046,1.2,3.3,3.055,2.853,5.357-.349,1.787.458,2.629,1.522,3.583a.386.386,0,0,1,.057.055.928.928,0,0,0,1.159.335,5.453,5.453,0,0,1,6.113,2.212,1.909,1.909,0,0,0,2.116,1.031A1.325,1.325,0,0,1,567.489,147.275Zm21.18-50.211a6.593,6.593,0,1,0,6.659,6.554A6.619,6.619,0,0,0,588.668,97.063Zm8.088,11.2a1.342,1.342,0,0,0,.29.064c2.766-.187,5.532-.388,8.3-.558.523-.032.574-.286.57-.719-.017-2.24-.033-4.48.009-6.72.011-.606-.194-.77-.753-.8-2.368-.145-4.734-.33-7.1-.49-.412-.028-.828,0-1.329,0A9.409,9.409,0,0,1,596.756,108.261Zm23.644-3.3c1.145,0,2.291-.011,3.437.006.384.006.585-.061.573-.516-.029-1.118.009-2.238-.019-3.356A1.288,1.288,0,0,0,623,99.689q-2.557-.039-5.115,0a1.3,1.3,0,0,0-1.391,1.412c-.02,1.092.026,2.185-.019,3.275-.022.539.2.6.652.592C618.215,104.944,619.307,104.961,620.4,104.961ZM581.337,126.29l6.971-13.3a1.371,1.371,0,0,0-1.911.535c-1.51,2.2-3.115,4.326-4.68,6.484-.344.474-.922.946-.945,1.44-.026.559.713.913,1.14,1.329.333.325.382.561.1.942A3.191,3.191,0,0,0,581.337,126.29Zm-1.311-19.225c-.19.2-.375.39-.55.588q-3.625,4.106-7.247,8.214c-.8.911-.775,1.3.055,2.189.443.473.709.511,1.127-.075q3.247-4.556,6.582-9.047C580.477,108.286,580.641,107.754,580.026,107.065Zm40.471,3.188h2c1.952,0,1.931,0,1.92-1.966,0-.535-.173-.667-.681-.659-1.758.027-3.517.011-5.275.011-2.044,0-2.029,0-1.986,2.047.009.455.14.588.588.577C618.205,110.234,619.351,110.252,620.5,110.252Zm-9.289-7.9h-.72c-2.061,0-2.047,0-1.968,2.079.016.424.146.548.555.537.932-.024,1.866-.007,2.8-.007,1.991,0,1.991,0,1.945-2a1.062,1.062,0,0,1,0-.16c.043-.345-.1-.468-.452-.458C612.648,102.368,611.928,102.353,611.208,102.353ZM621.769,114.3c0-1.369,0-1.369-1.353-1.369h-.08c-1.224,0-1.224,0-1.224,1.2,0,1.411,0,1.411,1.41,1.411C621.769,115.537,621.769,115.537,621.769,114.3Z" transform="translate(0 -44.772)" fill="#040404"/>
      <path id="Trazado_634102" data-name="Trazado 634102" d="M585.845,23.185q14.447,0,28.895-.005a3.29,3.29,0,0,1,1.314.254q6.986,2.928,13.983,5.833a3.291,3.291,0,0,1,2.319,3.206,3.338,3.338,0,0,1-2.3,3.147q-7.071,2.935-14.138,5.88a2.74,2.74,0,0,1-1.085.209Q586.1,41.7,557.362,41.7a6.63,6.63,0,0,1-6.982-6.976c0-1.574-.007-3.148,0-4.722a6.6,6.6,0,0,1,6.81-6.818Q571.518,23.173,585.845,23.185Zm6.73,2.658h-1.841c-6.191,0-12.381.014-18.572-.018-.758,0-.949.222-.913.94a34.38,34.38,0,0,1,0,3.44c-.036.719.158.941.914.939q14.409-.041,28.818-.018c3.976,0,7.952-.025,11.927.021.8.009.989-.235.946-.985a28.914,28.914,0,0,1,0-3.36c.045-.756-.151-.982-.947-.978C606.13,25.859,599.352,25.844,592.575,25.844Zm.084,7.916c-6.856,0-13.712.01-20.568-.016-.673,0-.858.179-.828.84.055,1.2.061,2.4,0,3.6-.037.7.166.877.872.875,8.83-.027,17.661-.018,26.491-.018,4.829,0,9.658-.012,14.486.015.612,0,.764-.165.741-.755-.047-1.225-.057-2.456,0-3.68.034-.695-.148-.883-.866-.88C606.212,33.773,599.435,33.76,592.659,33.76Zm-29.047-1.273q0-3,0-6c0-.316.069-.653-.447-.647-2.241.027-4.486-.041-6.721.074a3.678,3.678,0,0,0-3.356,3.416,46.8,46.8,0,0,0,0,6.238,3.826,3.826,0,0,0,3.76,3.468c2.054.031,4.11-.01,6.164.021.519.008.614-.174.609-.644C563.6,36.436,563.612,34.461,563.612,32.487Zm52.915,5.89c1.927-.8,3.766-1.558,5.6-2.336.752-.32,1.808-.4,2.168-1.041a5.453,5.453,0,0,0,.128-2.426c0-.9.269-1.973-.121-2.665-.415-.733-1.6-.815-2.446-1.181-1.748-.756-3.514-1.467-5.325-2.218Zm-47.9-5.917V27.5c0-1.673,0-1.635-1.636-1.68-.669-.018-.77.221-.766.812.025,3.546.013,7.091.013,10.637,0,1.832,0,1.812,1.842,1.785.478-.007.559-.172.555-.6C568.62,36.459,568.631,34.459,568.631,32.46Zm58.479-1.544v3.047c.761-.316,1.48-.575,2.163-.91a.637.637,0,0,0,.062-1.187C628.638,31.509,627.894,31.244,627.111,30.916Z" transform="translate(-0.021 0)" fill="#040303"/>
      <path id="Trazado_634103" data-name="Trazado 634103" d="M610.806,97.4q17.413,0,34.827-.016c.684,0,.884.137.883.862q-.036,24.256,0,48.511c0,.708-.175.877-.879.876q-22.938-.033-45.875,0a1.224,1.224,0,0,1-1.257-.716,3.067,3.067,0,0,1,2.073-4.6c.845-.172,1.035-.495,1.005-1.3-.067-1.812-.045-3.629-.008-5.442.013-.645-.079-1.073-.837-1.105-.781-.033-.777-.36-.438-1,2.608-4.915,5.179-9.85,7.753-14.783a2.432,2.432,0,0,1,.879-.84c1.849-1.312,3.994-1.122,6.062-1.3,2.525-.215,5.055-.372,7.584-.539a2.662,2.662,0,0,0,2.718-2.325c.073-.346.2-.428.519-.426,1.441.01,2.882.016,4.323,0,.395-.005.5.136.49.509-.023.666-.021,1.334,0,2a2.6,2.6,0,0,0,2.142,2.7c.421.1.553.259.529.682-.039.665-.021,1.334-.008,2a2.616,2.616,0,0,0,2.528,2.675,26.552,26.552,0,0,0,2.881,0,2.593,2.593,0,0,0,2.5-2.538c.042-.718.035-1.441.009-2.16-.013-.385.1-.545.492-.65a2.607,2.607,0,0,0,2.163-2.84q.008-4.4,0-8.806a3.939,3.939,0,0,0-4.109-4.142c-1.681-.018-3.362,0-5.044,0a3.847,3.847,0,0,0-3.623,2.19.642.642,0,0,1-.651.44c-1.521-.019-3.043-.021-4.563,0-.412.006-.516-.139-.586-.533a2.6,2.6,0,0,0-2.487-2.2q-5.747-.416-11.5-.809a1.724,1.724,0,0,1-.813-.27,9.21,9.21,0,0,0-14.194,7.339,1.352,1.352,0,0,1-.366.852q-4.9,5.547-9.792,11.108a1.052,1.052,0,0,1-.9.375c-1.281-.016-2.564.036-3.842-.024-.62-.029-.843.21-.923.762a3.037,3.037,0,0,1-1.6,2.355,3.173,3.173,0,0,1-3.468-.28c-.377-.247-.292-.592-.293-.924q-.005-9.766,0-19.532c0-1.788.034-3.577-.017-5.363-.019-.663.212-.771.809-.77Q593.352,97.415,610.806,97.4Zm13.171,47.585c5.5,0,10.994-.009,16.49.013.577,0,.774-.109.766-.732-.028-1.927,0-1.949-1.956-1.933-.546,0-.721-.12-.714-.694.032-2.641.014-5.282.014-7.924,0-2.007,0-1.982-1.978-1.99-.585,0-.7.2-.7.734.024,2.641.011,5.282.011,7.924,0,1.984,0,1.965-2.016,1.95-.5,0-.624-.142-.616-.629.029-1.787.012-3.575.012-5.363,0-1.967,0-1.948-2.006-1.947-.517,0-.686.125-.676.662.033,1.787.012,3.575.012,5.363,0,1.915,0,1.886-1.891,1.917-.608.01-.744-.16-.741-.751.027-4.4.014-8.8.014-13.206,0-1.95,0-1.921-1.95-1.944-.633-.008-.738.21-.735.78.022,4.375.013,8.751.013,13.126,0,2.05,0,2.033-2.051,1.991-.46-.009-.578-.147-.573-.59.022-1.787.009-3.575.009-5.363,0-2.022,0-2.006-2.053-1.983-.48.005-.642.116-.634.621.031,1.814.012,3.628.012,5.442,0,1.869,0,1.838-1.849,1.877-.643.013-.783-.182-.779-.8.026-4.429.014-8.858.014-13.287,0-1.809,0-1.766-1.836-1.824-.752-.024-.858.241-.854.906.029,4.348.015,8.7.015,13.046,0,1.961,0,1.936-1.93,1.952-.577.005-.7-.171-.695-.717.028-2.668.013-5.336.013-8,0-1.891,0-1.866-1.929-1.888-.59-.006-.77.137-.763.75.033,3.014-.009,6.03.033,9.044.01.69-.2.831-.844.817-1.8-.042-1.766-.011-1.809,1.831-.015.654.136.84.818.836C613.09,144.974,618.533,144.988,623.976,144.988Zm-36.967-44.974h-2c-2.031,0-2.007,0-2,2.043,0,.564.209.649.7.643,1.761-.024,3.523-.009,5.284-.009,2.049,0,2.033,0,2.009-2.05-.005-.481-.118-.655-.624-.638C589.252,100.039,588.13,100.014,587.009,100.014Zm.014,5.287h-1.994c-2.037,0-2.011,0-2.023,2.009,0,.6.211.689.735.68,1.754-.03,3.509-.011,5.264-.011,2.032,0,2.017,0,1.99-2.052-.006-.477-.12-.652-.623-.636C589.257,105.326,588.14,105.3,587.023,105.3Zm-.017,7.966H589c2.035,0,2.013,0,2-2.047,0-.561-.213-.648-.7-.641-1.755.024-3.51.01-5.264.01-2.073,0-2.051,0-2.027,2.086.006.523.189.614.649.6C584.772,113.248,585.89,113.267,587.006,113.267Zm-7.911-2.679c-1.36,0-1.36,0-1.36,1.386,0,1.293,0,1.293,1.294,1.293,1.374,0,1.374,0,1.374-1.387C580.4,110.588,580.4,110.588,579.1,110.588Zm-.028-5.287c-1.333,0-1.333,0-1.333,1.331s0,1.346,1.322,1.346c1.347,0,1.347,0,1.347-1.336S580.4,105.3,579.067,105.3Zm-.015-5.287c-1.317,0-1.317,0-1.317,1.345s0,1.332,1.337,1.332,1.331,0,1.331-1.352C580.4,100.014,580.4,100.014,579.052,100.014Z" transform="translate(-16.804 -50.398)" fill="#ead0b6"/>
      <path id="Trazado_634104" data-name="Trazado 634104" d="M573.033,208.8a1.324,1.324,0,0,0-.16,0,1.909,1.909,0,0,1-2.116-1.031,5.453,5.453,0,0,0-6.113-2.212.928.928,0,0,1-1.159-.335.393.393,0,0,0-.057-.056c-1.063-.953-1.871-1.8-1.522-3.582.45-2.3-.807-4.16-2.853-5.357a.8.8,0,0,1-.5-.876,2.446,2.446,0,0,0,0-.639,2.9,2.9,0,0,1,1.383-3.081,5.2,5.2,0,0,0,1.856-5.87.854.854,0,0,1,.269-1.036,2.8,2.8,0,0,0,.454-.45,2.817,2.817,0,0,1,3.065-1.195,5.159,5.159,0,0,0,5.535-2.824.86.86,0,0,1,.939-.523,2.783,2.783,0,0,0,.639,0,2.807,2.807,0,0,1,3.011,1.341,5.134,5.134,0,0,0,5.775,1.907,1.031,1.031,0,0,1,1.291.384.571.571,0,0,0,.112.114,3.244,3.244,0,0,1,1.4,3.461c-.417,2.282.772,4.123,2.783,5.318.424.252.649.5.567.99a1.462,1.462,0,0,0,0,.4,3.086,3.086,0,0,1-1.416,3.3c-1.926,1.35-2.4,3.506-1.813,5.8.121.477.1.81-.307,1.09a.912.912,0,0,0-.17.169,3.231,3.231,0,0,1-3.452,1.435,4.926,4.926,0,0,0-5.207,2.55,1.379,1.379,0,0,1-1.513.81A5.276,5.276,0,0,0,573.033,208.8Zm-9.18-14.538a9.243,9.243,0,1,0,9.268-9.234A9.248,9.248,0,0,0,563.853,194.266Z" transform="translate(-5.544 -106.301)" fill="#f4c54e"/>
      <path id="Trazado_634105" data-name="Trazado 634105" d="M655.86,113.915a6.593,6.593,0,1,1-6.58,6.631A6.622,6.622,0,0,1,655.86,113.915Zm-3.908,6.578a3.948,3.948,0,1,0,3.961-3.96A3.967,3.967,0,0,0,651.952,120.493Z" transform="translate(-67.192 -61.623)" fill="#f1d37c"/>
      <path id="Trazado_634106" data-name="Trazado 634106" d="M694.967,129.259a9.409,9.409,0,0,0-.014-9.23c.5,0,.916-.024,1.329,0,2.367.16,4.733.344,7.1.49.559.034.764.2.753.8-.042,2.239-.026,4.48-.009,6.72,0,.432-.047.687-.57.719-2.767.17-5.533.371-8.3.558A1.342,1.342,0,0,1,694.967,129.259Z" transform="translate(-98.211 -65.769)" fill="#a9afb9"/>
      <path id="Trazado_634107" data-name="Trazado 634107" d="M760.371,127.329c-1.092,0-2.185-.017-3.276.008-.448.011-.674-.053-.652-.592.045-1.09,0-2.184.019-3.275a1.3,1.3,0,0,1,1.391-1.412q2.557-.04,5.115,0a1.288,1.288,0,0,1,1.394,1.407c.028,1.118-.011,2.238.019,3.356.012.455-.189.522-.573.516C762.662,127.318,761.516,127.329,760.371,127.329Z" transform="translate(-139.971 -67.14)" fill="#a9afb9"/>
      <path id="Trazado_634108" data-name="Trazado 634108" d="M645.742,176.477a3.192,3.192,0,0,1,.678-2.572c.279-.38.23-.617-.1-.942-.427-.415-1.166-.77-1.14-1.329.023-.494.6-.966.945-1.44,1.565-2.158,3.17-4.288,4.68-6.484a1.371,1.371,0,0,1,1.911-.535Z" transform="translate(-64.404 -94.959)" fill="#a6adb7"/>
      <path id="Trazado_634109" data-name="Trazado 634109" d="M632.446,163.109c1.746-2.41,3.5-4.814,5.229-7.237.279-.39.469-.4.778-.07a4.061,4.061,0,0,0,.619.5c1.024.741,1.026.739.258,1.8-1.485,2.042-2.983,4.074-4.445,6.132-.319.449-.481.433-.881.075-.442-.4-.657-1.143-1.448-1.078Z" transform="translate(-55.759 -89.91)" fill="#e6ccb3"/>
      <path id="Trazado_634110" data-name="Trazado 634110" d="M625.108,145.087c.615.69.451,1.221-.033,1.87q-3.345,4.483-6.582,9.047c-.418.586-.684.548-1.127.075-.829-.887-.858-1.278-.055-2.189q3.622-4.108,7.247-8.214C624.733,145.477,624.919,145.289,625.108,145.087Z" transform="translate(-45.082 -82.794)" fill="#a6adb7"/>
      <path id="Trazado_634111" data-name="Trazado 634111" d="M760.451,149.464c-1.146,0-2.292-.019-3.437.009-.447.011-.578-.123-.588-.577-.043-2.048-.058-2.047,1.986-2.047,1.758,0,3.517.017,5.275-.011.509-.008.678.124.681.659.012,1.967.033,1.966-1.92,1.966Z" transform="translate(-139.954 -83.984)" fill="#a9afb9"/>
      <path id="Trazado_634112" data-name="Trazado 634112" d="M734.3,130.388c.72,0,1.44.014,2.159-.006.349-.01.495.113.452.458a1.062,1.062,0,0,0,0,.16c.046,2,.046,2-1.945,2-.933,0-1.867-.017-2.8.007-.409.011-.539-.113-.555-.537-.079-2.079-.093-2.079,1.968-2.079Z" transform="translate(-123.091 -72.807)" fill="#cbcfd5"/>
      <path id="Trazado_634113" data-name="Trazado 634113" d="M767.336,164.733c0,1.239,0,1.239-1.246,1.239-1.41,0-1.41,0-1.41-1.411,0-1.2,0-1.2,1.224-1.2h.08C767.336,163.364,767.336,163.364,767.336,164.733Z" transform="translate(-145.567 -95.207)" fill="#cbcfd5"/>
      <path id="Trazado_634114" data-name="Trazado 634114" d="M632.191,179.2c-.061.141-.159.155-.283.084l.173-.2Z" transform="translate(-55.394 -105.881)" fill="#e6ccb3"/>
      <path id="Trazado_634115" data-name="Trazado 634115" d="M636.75,31.439c6.777,0,13.555.015,20.333-.02.8,0,.992.223.947.978a28.914,28.914,0,0,0,0,3.36c.043.751-.142.995-.946.985-3.976-.046-7.951-.021-11.927-.021q-14.409,0-28.818.018c-.756,0-.95-.219-.914-.939a34.38,34.38,0,0,0,0-3.44c-.036-.718.155-.944.913-.94,6.19.033,12.381.018,18.572.018Z" transform="translate(-44.196 -5.595)" fill="#ea8572"/>
      <path id="Trazado_634116" data-name="Trazado 634116" d="M636.861,56.117c6.776,0,13.553.013,20.328-.019.718,0,.9.185.866.88-.059,1.224-.049,2.454,0,3.68.022.591-.13.759-.741.755-4.828-.028-9.657-.015-14.486-.015-8.83,0-17.661-.009-26.491.018-.706,0-.909-.17-.872-.875.062-1.2.057-2.4,0-3.6-.03-.661.155-.843.828-.84C623.149,56.127,630,56.117,636.861,56.117Z" transform="translate(-44.222 -22.357)" fill="#bbd989"/>
      <path id="Trazado_634117" data-name="Trazado 634117" d="M569.132,38.11c0,1.974-.014,3.949.01,5.923.005.469-.09.652-.609.644-2.054-.031-4.11.01-6.164-.021a3.826,3.826,0,0,1-3.76-3.468,46.8,46.8,0,0,1,0-6.238,3.678,3.678,0,0,1,3.356-3.416c2.236-.116,4.481-.047,6.721-.074.516-.006.447.331.447.647Q569.132,35.109,569.132,38.11Z" transform="translate(-5.54 -5.623)" fill="#cbcfd5"/>
      <path id="Trazado_634118" data-name="Trazado 634118" d="M756.556,45.427V33.56c1.81.751,3.577,1.462,5.325,2.218.847.366,2.032.448,2.446,1.181.39.691.123,1.761.121,2.665a5.451,5.451,0,0,1-.128,2.426c-.36.64-1.416.721-2.168,1.041C760.322,43.868,758.483,44.624,756.556,45.427Z" transform="translate(-140.049 -7.05)" fill="#cbcfd5"/>
      <path id="Trazado_634119" data-name="Trazado 634119" d="M602.19,38.05c0,2-.011,4,.009,6,0,.425-.077.591-.555.6-1.843.027-1.842.047-1.842-1.785,0-3.546.013-7.091-.013-10.637,0-.591.1-.83.766-.812,1.635.045,1.636.007,1.636,1.68Z" transform="translate(-33.579 -5.59)" fill="#f9e7ad"/>
      <path id="Trazado_634120" data-name="Trazado 634120" d="M789.542,47.291c.783.329,1.527.593,2.225.949a.637.637,0,0,1-.062,1.187c-.683.335-1.4.594-2.163.91Z" transform="translate(-162.452 -16.375)" fill="#cbcfd5"/>
      <path id="Trazado_634121" data-name="Trazado 634121" d="M691.16,206.47c-5.443,0-10.887-.014-16.33.018-.682,0-.834-.183-.818-.836.043-1.842.013-1.873,1.809-1.831.647.015.853-.126.844-.817-.042-3.014,0-6.03-.033-9.044-.007-.613.173-.756.763-.75,1.929.021,1.929,0,1.929,1.888,0,2.668.015,5.336-.013,8-.006.546.118.723.695.717,1.93-.017,1.93.009,1.93-1.952,0-4.349.014-8.7-.015-13.046,0-.665.1-.929.854-.906,1.835.058,1.836.015,1.836,1.824,0,4.429.012,8.858-.014,13.287,0,.614.136.809.779.8,1.848-.038,1.849-.007,1.849-1.877,0-1.814.019-3.629-.012-5.442-.009-.505.153-.616.634-.621,2.053-.022,2.053-.038,2.053,1.983,0,1.787.013,3.575-.009,5.363-.005.443.113.58.573.59,2.052.042,2.051.058,2.051-1.991,0-4.375.01-8.751-.013-13.126,0-.57.1-.787.735-.78,1.95.023,1.95-.006,1.95,1.944,0,4.4.012,8.8-.014,13.206,0,.591.133.761.741.751,1.89-.03,1.891,0,1.891-1.917,0-1.787.021-3.575-.012-5.363-.01-.536.159-.662.676-.662,2.006,0,2.006-.02,2.006,1.947,0,1.788.018,3.575-.012,5.363-.008.487.117.625.616.629,2.016.015,2.016.034,2.016-1.95,0-2.641.013-5.283-.011-7.924,0-.538.114-.736.7-.734,1.978.009,1.978-.016,1.978,1.99,0,2.641.018,5.283-.014,7.924-.007.574.168.7.714.694,1.957-.015,1.928.006,1.956,1.933.009.623-.188.734-.766.732C702.154,206.461,696.657,206.47,691.16,206.47Z" transform="translate(-83.988 -111.88)" fill="#060505"/>
      <path id="Trazado_634122" data-name="Trazado 634122" d="M603.767,105.547c1.121,0,2.243.026,3.362-.012.507-.017.619.157.624.638.024,2.051.04,2.05-2.009,2.05-1.761,0-3.523-.014-5.284.009-.487.006-.695-.079-.7-.643-.006-2.043-.03-2.043,2-2.043Z" transform="translate(-33.562 -55.932)" fill="#090807"/>
      <path id="Trazado_634123" data-name="Trazado 634123" d="M603.782,122.028c1.117,0,2.234.025,3.35-.011.5-.016.617.159.623.636.026,2.053.042,2.052-1.991,2.052-1.755,0-3.51-.018-5.264.011-.524.009-.739-.083-.735-.68.012-2.008-.014-2.009,2.023-2.009Z" transform="translate(-33.563 -67.125)" fill="#090807"/>
      <path id="Trazado_634124" data-name="Trazado 634124" d="M603.757,141.191c-1.117,0-2.234-.019-3.35.009-.46.012-.643-.079-.649-.6-.025-2.086-.046-2.086,2.027-2.086,1.755,0,3.51.015,5.264-.01.488-.007.7.08.7.641.014,2.047.037,2.047-2,2.047Z" transform="translate(-33.555 -78.322)" fill="#090807"/>
      <path id="Trazado_634125" data-name="Trazado 634125" d="M584.7,138.533c1.308,0,1.308,0,1.308,1.292,0,1.387,0,1.387-1.375,1.387-1.294,0-1.294,0-1.294-1.293C583.336,138.533,583.336,138.533,584.7,138.533Z" transform="translate(-22.405 -78.343)" fill="#090807"/>
      <path id="Trazado_634126" data-name="Trazado 634126" d="M584.668,122.053c1.336,0,1.336,0,1.336,1.342s0,1.336-1.347,1.336c-1.322,0-1.322,0-1.322-1.346S583.336,122.053,584.668,122.053Z" transform="translate(-22.405 -67.151)" fill="#090807"/>
      <path id="Trazado_634127" data-name="Trazado 634127" d="M584.653,105.574c1.351,0,1.351,0,1.351,1.324,0,1.352,0,1.352-1.331,1.352s-1.337,0-1.337-1.332S583.336,105.574,584.653,105.574Z" transform="translate(-22.405 -55.959)" fill="#090807"/>
      <path id="Trazado_634128" data-name="Trazado 634128" d="M575.164,205.555a9.243,9.243,0,1,1,9.258,9.254A9.232,9.232,0,0,1,575.164,205.555Zm9.2,6.621a6.616,6.616,0,1,0-6.577-6.65A6.656,6.656,0,0,0,584.369,212.175Z" transform="translate(-16.855 -117.59)" fill="#030301"/>
      <path id="Trazado_634129" data-name="Trazado 634129" d="M657.608,126.033a3.948,3.948,0,1,1,3.933,3.991A3.965,3.965,0,0,1,657.608,126.033Zm5.273.008a1.326,1.326,0,1,0-1.32,1.311A1.315,1.315,0,0,0,662.881,126.041Z" transform="translate(-72.848 -67.164)" fill="#030301"/>
      <path id="Trazado_634130" data-name="Trazado 634130" d="M589.931,217.725a6.616,6.616,0,1,1,6.656-6.578A6.648,6.648,0,0,1,589.931,217.725Zm.031-10.569a3.952,3.952,0,1,0,3.96,3.947A3.933,3.933,0,0,0,589.962,207.156Z" transform="translate(-22.418 -123.14)" fill="#f1d37c"/>
      <path id="Trazado_634131" data-name="Trazado 634131" d="M668.428,131.7a1.326,1.326,0,1,1-1.333-1.3A1.324,1.324,0,0,1,668.428,131.7Z" transform="translate(-78.395 -72.823)" fill="#e6ccb3"/>
      <path id="Trazado_634132" data-name="Trazado 634132" d="M595.6,212.795a3.952,3.952,0,1,1-3.944,3.96A3.942,3.942,0,0,1,595.6,212.795Zm1.325,3.964a1.322,1.322,0,1,0-1.33,1.314A1.351,1.351,0,0,0,596.928,216.759Z" transform="translate(-28.058 -128.779)" fill="#030301"/>
      <path id="Trazado_634133" data-name="Trazado 634133" d="M602.486,222.333a1.322,1.322,0,1,1-1.312-1.33A1.352,1.352,0,0,1,602.486,222.333Z" transform="translate(-33.616 -134.353)" fill="#f7f9fa"/>
    </g>
  </g>
</svg>
