<svg xmlns="http://www.w3.org/2000/svg" width="82.39" height="82" viewBox="0 0 82.39 82">
  <g id="Grupo_956684" data-name="Grupo 956684" transform="translate(-302.61 -3929)">
    <g id="Grupo_962299" data-name="Grupo 962299">
      <g id="Grupo_951854" data-name="Grupo 951854" transform="translate(303 3929)">
        <path id="Trazado_621807" data-name="Trazado 621807" d="M41,0A41,41,0,1,1,0,41,41,41,0,0,1,41,0Z" fill="#ef8b53"/>
      </g>
      <g id="Grupo_962298" data-name="Grupo 962298" transform="translate(-606.391 -19109.564)">
        <g id="Grupo_962298-2" data-name="Grupo 962298" transform="translate(909 23038.564)">
          <path id="Trazado_634134" data-name="Trazado 634134" d="M623.545,355.452c.964.256,1.224.576,1.228,1.578.007,1.955.019,3.91-.009,5.865-.007.509.1.693.652.676,1.365-.042,2.732-.025,4.1-.011a2.763,2.763,0,0,1,2.893,2.8q.069,4.7,0,9.4a2.773,2.773,0,0,1-2.907,2.788c-.665.017-1.544-.214-1.938.123-.464.4-.136,1.3-.153,1.989-.027,1.1-.007,1.1,1.086,1.1,1.741,0,3.482-.006,5.223,0a2.945,2.945,0,0,1,3.208,3.194c.015,3.99.02,7.981-.01,11.971-.005.665.1.931.851.891,1.372-.072,1.375-.019,1.375-1.389q0-6.388,0-12.775c0-2.373,1.243-3.619,3.612-3.62q7.352,0,14.7,0a3.786,3.786,0,0,1,2.235.492.461.461,0,0,0,.584-.007,3.484,3.484,0,0,1,2-.483q7.553,0,15.106,0a3.151,3.151,0,0,1,3.417,3.469q.015,6.749-.009,13.5c0,.592.1.883.766.823a1.872,1.872,0,0,1,.843.221c1.46.63,2.106,2.334,1.668,4.355a2.888,2.888,0,0,1-2.967,2.311q-12.254.008-24.507,0H609.665c-2.431,0-3.5-1.083-3.5-3.537,0-1.259-.018-2.518.01-3.776.01-.441-.1-.633-.567-.581a6.346,6.346,0,0,1-1.044,0,2.821,2.821,0,0,1-2.737-2.807c-.023-1.1-.017-2.2,0-3.294a2.8,2.8,0,0,1,2.892-2.888c1.447-.027,1.447-.027,1.447-1.453,0-.536-.008-1.071,0-1.607a2.937,2.937,0,0,1,2.994-3.007c1.473-.027,2.946-.028,4.419.005.531.012.781-.085.729-.686a12.944,12.944,0,0,1,0-1.926c.032-.511-.168-.655-.647-.619s-.964.016-1.446.005a2.813,2.813,0,0,1-2.941-2.854q-.068-4.659,0-9.319a2.8,2.8,0,0,1,2.976-2.812c1.366-.01,2.732-.018,4.1.007.433.008.6-.085.595-.562q-.024-10.043,0-20.086a.685.685,0,0,0-.487-.7,10.009,10.009,0,0,1,2.483-18.91,9.553,9.553,0,0,1,6.524,1.04,2.718,2.718,0,0,0,1.367.329q14.061-.014,28.123,0a2.186,2.186,0,0,0,1.32-.411,8.065,8.065,0,0,1,12.736,6.438c.053,1.605.045,3.214,0,4.82-.02.694.112,1,.891.93a23.992,23.992,0,0,1,2.65-.014,3.851,3.851,0,0,1,3.956,3.892c.052,3,.041,6,0,9a3.764,3.764,0,0,1-2.916,3.76c-.427.121-.473.314-.471.667.011,1.232.015,2.464,0,3.7-.012.958-.272,1.26-1.214,1.5-.944-.233-1.214-.539-1.225-1.49-.016-1.338-.022-2.678.005-4.016a1.251,1.251,0,0,0-.52-1.153,3.682,3.682,0,0,1-1.355-2.465c-.086-.561.291-1.348-.229-1.632-.477-.26-1.2-.046-1.816-.081-.412-.023-.574.1-.552.534a18.857,18.857,0,0,1,0,1.927,2.248,2.248,0,0,1-2.341,2.336q-3.051.062-6.1,0a2.239,2.239,0,0,1-2.34-2.331c-.016-.267-.007-.536-.007-.8,0-1.724,0-1.7-1.746-1.669-.471.009-.606.159-.567.6a4.867,4.867,0,0,1-.5,2.644,5.117,5.117,0,0,1-1.111,1.137c-.312.189-.3.465-.3.764q0,6.333,0,12.666c0,1.2.372,1.5,1.574,1.355a.667.667,0,0,0,.156.038q8.349.009,16.7.014a.94.94,0,0,0,1.031-1.06c.018-.909,0-1.82.014-2.729.018-.95.279-1.25,1.23-1.487a1.227,1.227,0,0,1,1.2,1.264,31.068,31.068,0,0,1-.021,3.212,3.354,3.354,0,0,1-3.655,3.253c-4.313.013-8.625,0-12.938,0-1.339,0-2.679.011-4.018,0a3.453,3.453,0,0,1-3.7-3.723q-.014-6.026,0-12.053c0-.519-.034-.822-.68-.994a3.677,3.677,0,0,1-2.7-3.585c-.03-3.053-.036-6.107,0-9.16a3.842,3.842,0,0,1,3.856-3.824c1.017-.033,2.036-.029,3.053,0,.461.014.605-.135.585-.591a19.045,19.045,0,0,1,0-2.249c.049-.673-.22-.667-.739-.515-3.178.931-6.361,1.841-9.544,2.755q-6.853,1.968-13.71,3.923a3.027,3.027,0,0,0-1.44.793,6.655,6.655,0,0,1-2.093,1.466.947.947,0,0,0-.608,1.051c.027,2.571.017,5.142.01,7.714,0,1-.275,1.326-1.24,1.562a1.306,1.306,0,0,1-1.193-1.517c.02-2.088.006-4.178.006-6.266,0-1.506,0-1.506-1.55-1.357-1.443-.124-1.443-.124-1.443,1.318v17.708c0,1.381,0,1.381,1.442,1.286a4.822,4.822,0,0,1,.559.036c.8.14,1.047-.148,1.015-.981-.071-1.872-.006-3.749-.029-5.623A1.308,1.308,0,0,1,623.545,355.452ZM618.7,381.728c1.257.009,2.514.043,3.769.017.816-.017,1.931.375,2.364-.177.408-.518.121-1.584.14-2.409a.732.732,0,0,1,0-.08c.056-.429-.147-.547-.556-.542-1.9.025-3.8.025-5.695.034-.211-.012-.423-.036-.634-.034-1.568.019-1.321-.2-1.333,1.352C616.741,381.791,616.751,381.791,618.7,381.728Zm1.931-41.006a7.557,7.557,0,1,0-.963-15.037,7.554,7.554,0,0,0,.963,15.037Zm-14.776,49.557c-.185-.008-.37-.022-.555-.023-1.049-.006-1.056,0-1.058,1.064,0,.742.018,1.485-.006,2.226-.019.6.216.9.836.863.264-.017.529-.024.793-.036q6.259.014,12.518.027c2.381,0,4.762-.014,7.142.01.626.006.95-.142.91-.848-.048-.853-.034-1.712,0-2.567.02-.562-.206-.748-.755-.746Q615.763,390.278,605.852,390.279Zm57.1-64.672a5.554,5.554,0,0,0-7.6,4.719c-.077,1.63-.025,3.266-.029,4.9,0,1.275,0,1.275,1.322,1.171,3.176.013,6.353.023,9.529.047.382,0,.429-.179.426-.49-.012-1.842.042-3.686-.028-5.526A5.4,5.4,0,0,0,662.948,325.607Zm-13.212,13.329c-1.178-.137-1.9.368-1.915,1.449q-.045,4.452,0,8.906c.014,1.208.951,1.749,2.107,1.3a1.4,1.4,0,0,0,.761-1.457c-.007-1.873,0-3.746,0-5.619,0-1.43.356-1.779,1.817-1.779h16.939c1.4,0,1.778.374,1.78,1.747,0,1.953-.011,3.907.009,5.86a1.369,1.369,0,0,0,1.315,1.441,1.407,1.407,0,0,0,1.508-1.336,6.116,6.116,0,0,0,.022-.721q0-3.893,0-7.786c0-1.637-.419-2.062-2.03-2.063q-10.717,0-21.435,0C650.32,338.878,650.028,338.915,649.736,338.935Zm-36.18,37.153q7.861.015,15.721.036c.517,0,.717-.186.715-.7q-.017-4.371,0-8.743c0-.514-.194-.706-.713-.7q-7.861.03-15.721.032c-.213-.009-.425-.023-.638-.024-1.23-.006-1.23,0-1.23,1.23,0,2.372-.014,4.744,0,7.116C611.708,376.218,611.341,376.183,613.556,376.089Zm30.38,6.431a5.268,5.268,0,0,0-1.35-.061c-.7-.028-1.023.305-1.021,1.013q.012,6.886,0,13.771c0,.4.093.588.533.561.611-.037,1.226-.023,1.839-.032,4.681.008,9.363,0,14.044.038.63,0,.794-.159.79-.788-.029-4.119-.014-8.239-.015-12.359,0-2.322.229-2.2-2.221-2.2-1.516.005-1.516,0-1.517,1.478,0,.214.006.429,0,.642a2.089,2.089,0,0,1-2.125,2.149c-1.872.037-3.745.035-5.617,0a2.109,2.109,0,0,1-2.176-2.106c-.026-.373-.008-.749-.009-1.123C645.081,382.4,645.082,382.4,643.936,382.519Zm19.608,15.255q7.141.011,14.282.03c.426,0,.542-.137.541-.549q-.018-6.94,0-13.88c0-.657-.329-.909-.945-.9-.749.008-1.5.019-2.246-.006-.409-.014-.577.108-.553.539a15.152,15.152,0,0,1,0,1.684,2.016,2.016,0,0,1-1.9,2.025c-2.031.055-4.065.045-6.1,0a1.977,1.977,0,0,1-1.827-1.548,5.5,5.5,0,0,1-.1-1.515c-.008-1.138,0-1.138-1.154-1.1a2.307,2.307,0,0,0-1.253-.1c-.9.012-1.111.243-1.112,1.171-.005,4.512,0,9.023-.011,13.534,0,.466.1.691.617.651C662.369,397.761,662.958,397.782,663.544,397.774ZM611.31,402.26c.24.01.48.028.721.028q10.688,0,21.377,0c1.052,0,1.079-.026,1.079-1.086q0-7.915,0-15.83c0-1.183-.006-1.189-1.233-1.189q-7.474,0-14.948,0c-2.33,0-4.659.021-6.989.033-.529-.014-1.059-.038-1.589-.04-1.076,0-1.154.069-1.146,1.108.006.818-.286,1.982.131,2.37.576.533,1.7.158,2.6.154.294.007.588.021.882.021q6.827,0,13.654,0a2.791,2.791,0,0,1,3.005,3c.009.883,0,1.767,0,2.65,0,2.285-1.053,3.336-3.333,3.34l-14.214.027c-.746-.009-1.492,0-2.236-.035-.39-.017-.5.128-.492.5.019,1.413.011,2.825.006,4.237,0,.5.229.739.73.729C609.978,402.277,610.644,402.27,611.31,402.26Zm47.972-2.04q-10.727,0-21.454,0c-.258,0-.658-.132-.747.114a3.2,3.2,0,0,0-.044,1.738c.091.423.6.206.91.206q21.293.016,42.586.009c.214,0,.429,0,.642-.01a.517.517,0,0,0,.449-.293,1.141,1.141,0,0,0-1.05-1.768Zm-5.541-73.055H628.772a9.028,9.028,0,0,1,1.221,2.258c.174.59.513.681,1.058.68q10.516-.024,21.033-.011c.134,0,.268-.008.4,0,.282.019.435-.067.474-.387A8.775,8.775,0,0,1,653.741,327.165Zm-23.7,9.759,14.891-4.272c-.069-.072-.082-.1-.1-.1q-6.859-.02-13.718-.041c-.267,0-.386.072-.373.361A10.741,10.741,0,0,1,630.038,336.924Zm30.844,8.775c2.406,0,4.811-.018,7.217.013.571.007.755-.163.709-.721-.037-.454.078-.856-.662-.85q-7.216.051-14.433,0c-.7,0-.6.37-.618.8-.021.483,0,.781.651.77C656.124,345.674,658.5,345.7,660.882,345.7Zm-.052,2.424c-.828,0-1.657,0-2.485,0-.193,0-.469-.087-.474.255-.009.614-.007,1.229,0,1.843,0,.271.215.259.4.259,1.683,0,3.367-.01,5.05.008.442,0,.506-.241.443-.557-.12-.6.341-1.3-.3-1.8-.084-.065-.26-.011-.394-.011Zm-10.712,36.2c.616,0,1.233-.029,1.847.009.478.029.708-.1.629-.614a2.246,2.246,0,0,1,0-.641c.073-.512-.155-.633-.634-.622a35.358,35.358,0,0,1-3.611-.013c-.89-.069-.822.4-.852,1-.034.67.1.992.858.894A13.88,13.88,0,0,1,650.118,384.323Zm19.506,0c.7,0,1.392-.018,2.087.007.385.014.537-.115.5-.5a2.862,2.862,0,0,1,0-.721c.086-.564-.185-.663-.682-.651-1.23.029-2.462.037-3.692,0-.566-.019-.785.162-.707.721a2.207,2.207,0,0,1,0,.561c-.052.44.1.626.571.6C668.338,384.294,668.982,384.323,669.624,384.323Z" transform="translate(-601.809 -322.714)" fill="#030303"/>
          <path id="Trazado_634135" data-name="Trazado 634135" d="M759.551,404.727a4.867,4.867,0,0,0,.5-2.644c-.039-.443.1-.592.567-.6,1.745-.035,1.745-.054,1.746,1.67,0,.268-.009.536.007.8a2.239,2.239,0,0,0,2.34,2.331q3.051.059,6.1,0a2.248,2.248,0,0,0,2.341-2.336,18.856,18.856,0,0,0,0-1.927c-.022-.434.14-.557.552-.534.613.034,1.339-.18,1.816.081.52.284.143,1.07.229,1.631a3.682,3.682,0,0,0,1.355,2.465,1.251,1.251,0,0,1,.52,1.153c-.028,1.338-.021,2.678-.005,4.016.012.951.281,1.258,1.225,1.49q0,1.551,0,3.1c-.951.236-1.211.537-1.23,1.487-.017.909,0,1.82-.014,2.729a.94.94,0,0,1-1.031,1.06q-8.349-.007-16.7-.014a.667.667,0,0,1-.156-.038,9.453,9.453,0,0,1-.167-2.3Q759.557,411.536,759.551,404.727Z" transform="translate(-708.75 -376.084)" fill="#f5cc7f"/>
          <path id="Trazado_634136" data-name="Trazado 634136" d="M663.511,398.478a1.308,1.308,0,0,0-1.207,1.507c.023,1.874-.042,3.751.029,5.623.032.833-.217,1.121-1.015.981a4.813,4.813,0,0,0-.559-.036q0-10.156,0-20.311c1.55-.149,1.55-.149,1.55,1.357,0,2.089.014,4.178-.006,6.266a1.306,1.306,0,0,0,1.193,1.517Q663.5,396.931,663.511,398.478Z" transform="translate(-641.774 -365.741)" fill="#aeaeae"/>
          <path id="Trazado_634137" data-name="Trazado 634137" d="M631.309,513.616c2.33-.011,4.659-.03,6.989-.033q7.474-.008,14.948,0c1.227,0,1.234.006,1.234,1.189q0,7.915,0,15.83c0,1.059-.027,1.086-1.08,1.086q-10.689,0-21.377,0c-.24,0-.48-.018-.721-.028q0-2.7,0-5.4l14.214-.027c2.279,0,3.329-1.055,3.333-3.34,0-.884.008-1.767,0-2.65a2.791,2.791,0,0,0-3.005-3q-6.827-.011-13.654,0c-.294,0-.588-.014-.882-.021Q631.3,515.413,631.309,513.616Z" transform="translate(-621.8 -452.113)" fill="#e7e7e7"/>
          <path id="Trazado_634138" data-name="Trazado 634138" d="M793.5,508.335c1.151-.036,1.146-.036,1.154,1.1a5.5,5.5,0,0,0,.1,1.515,1.977,1.977,0,0,0,1.827,1.548c2.031.042,4.065.052,6.1,0a2.016,2.016,0,0,0,1.9-2.025,15.121,15.121,0,0,0,0-1.684c-.024-.431.144-.553.553-.539.748.026,1.5.014,2.246.006.616-.006.946.245.945.9q-.011,6.94,0,13.88c0,.412-.115.551-.541.549q-7.141-.031-14.282-.03Q793.5,515.946,793.5,508.335Z" transform="translate(-731.768 -448.497)" fill="#e69861"/>
          <path id="Trazado_634139" data-name="Trazado 634139" d="M732.614,508.3c1.146-.115,1.146-.115,1.146.993,0,.375-.017.75.009,1.123a2.109,2.109,0,0,0,2.176,2.106c1.872.03,3.746.033,5.618,0a2.089,2.089,0,0,0,2.125-2.149c.01-.214,0-.428,0-.642,0-1.477,0-1.472,1.517-1.478,2.451-.009,2.221-.126,2.221,2.2,0,4.12-.014,8.239.015,12.359,0,.629-.16.793-.79.788-4.681-.035-9.362-.031-14.044-.038Q732.614,515.929,732.614,508.3Z" transform="translate(-690.487 -448.497)" fill="#f5cc7f"/>
          <path id="Trazado_634140" data-name="Trazado 634140" d="M638.286,457.079q7.861-.012,15.721-.032c.519,0,.716.19.713.7q-.017,4.372,0,8.743c0,.516-.2.7-.715.7q-7.86-.032-15.721-.036Q638.285,462.12,638.286,457.079Z" transform="translate(-626.538 -413.785)" fill="#e7e7e7"/>
          <path id="Trazado_634141" data-name="Trazado 634141" d="M749.85,372.956c.292-.02.583-.057.876-.058q10.717,0,21.435,0c1.61,0,2.029.426,2.03,2.063q0,3.893,0,7.786a6.1,6.1,0,0,1-.022.721,1.407,1.407,0,0,1-1.508,1.336,1.369,1.369,0,0,1-1.315-1.441c-.02-1.953-.006-3.907-.009-5.86,0-1.373-.382-1.747-1.78-1.747H752.617c-1.46,0-1.816.349-1.817,1.779,0,1.873,0,3.746,0,5.619a1.4,1.4,0,0,1-.761,1.457.733.733,0,0,1-.359-.594,15.591,15.591,0,0,1-.18-1.9C749.66,379.063,749.178,375.988,749.85,372.956Z" transform="translate(-701.923 -356.735)" fill="#e5e5e5"/>
          <path id="Trazado_634142" data-name="Trazado 634142" d="M733.235,563.314h21.293a1.141,1.141,0,0,1,1.049,1.768.517.517,0,0,1-.449.293c-.214.009-.428.01-.642.01q-21.293,0-42.586-.009c-.313,0-.82.216-.91-.206a3.2,3.2,0,0,1,.044-1.738c.089-.246.49-.113.747-.114Q722.508,563.31,733.235,563.314Z" transform="translate(-675.762 -485.808)" fill="#7d7d7d"/>
          <path id="Trazado_634143" data-name="Trazado 634143" d="M778.338,331.7a5.4,5.4,0,0,1,3.62,4.82c.07,1.84.017,3.684.028,5.526,0,.311-.044.493-.426.49-3.176-.025-6.352-.034-9.529-.047,0-.588.009-1.176,0-1.763a13.289,13.289,0,0,1,.278-3.731A6.839,6.839,0,0,1,778.338,331.7Z" transform="translate(-717.199 -328.803)" fill="#e69861"/>
          <path id="Trazado_634144" data-name="Trazado 634144" d="M614.365,532.45q9.911-.011,19.821-.03c.549,0,.775.185.755.746-.03.855-.044,1.714,0,2.567.04.706-.284.854-.91.848-2.381-.024-4.762-.006-7.142-.01q-6.259-.011-12.518-.027Q614.37,534.5,614.365,532.45Z" transform="translate(-610.321 -464.885)" fill="#7f7f7f"/>
          <path id="Trazado_634145" data-name="Trazado 634145" d="M650.52,331.768a7.2,7.2,0,0,1,7.3,3.2,7.555,7.555,0,0,1-6.334,11.836c-.007-.266-.24-.343-.409-.451a9.252,9.252,0,0,1-2.865-3.053,1.854,1.854,0,0,1-.413-1.341c.164.174.324.352.492.522A4.611,4.611,0,1,0,653,334.859c-2.2-.719-4.267.18-5.651,2.457a3.48,3.48,0,0,1,.476-1.975A11.529,11.529,0,0,1,650.52,331.768Z" transform="translate(-632.663 -328.798)" fill="#e4e4e4"/>
          <path id="Trazado_634146" data-name="Trazado 634146" d="M710.5,336.535a8.776,8.776,0,0,0-.783,2.541c-.039.32-.192.405-.474.387-.133-.009-.267,0-.4,0q-10.517,0-21.033.011c-.545,0-.885-.09-1.058-.68a9.028,9.028,0,0,0-1.221-2.258Z" transform="translate(-658.569 -332.084)" fill="#aeaeae"/>
          <path id="Trazado_634147" data-name="Trazado 634147" d="M643.5,331.937a11.531,11.531,0,0,0-2.695,3.573,3.481,3.481,0,0,0-.476,1.975,4.935,4.935,0,0,0,.446,4.644,1.854,1.854,0,0,0,.413,1.341,9.252,9.252,0,0,0,2.865,3.053c.169.107.4.184.409.451a7.554,7.554,0,0,1-.963-15.037Z" transform="translate(-625.638 -328.967)" fill="#c9c9c9"/>
          <path id="Trazado_634148" data-name="Trazado 634148" d="M727.62,508.26q0,7.627,0,15.254c-.613.008-1.228-.005-1.839.032-.44.027-.534-.162-.533-.561q.016-6.886,0-13.771c0-.708.324-1.042,1.021-1.013A5.268,5.268,0,0,1,727.62,508.26Z" transform="translate(-685.493 -448.455)" fill="#e19660"/>
          <path id="Trazado_634149" data-name="Trazado 634149" d="M788.5,508.229q0,7.611,0,15.222c-.587.008-1.176-.013-1.76.032-.518.04-.619-.184-.617-.651.014-4.511.005-9.022.011-13.534,0-.929.212-1.159,1.112-1.171A2.307,2.307,0,0,1,788.5,508.229Z" transform="translate(-726.766 -448.391)" fill="#c1573f"/>
          <path id="Trazado_634150" data-name="Trazado 634150" d="M657.725,386.269q0,10.156,0,20.311c-1.442.095-1.442.095-1.442-1.286V387.587C656.282,386.146,656.282,386.146,657.725,386.269Z" transform="translate(-638.739 -365.768)" fill="#949494"/>
          <path id="Trazado_634151" data-name="Trazado 634151" d="M768.837,390.8c-2.379,0-4.758-.024-7.136.016-.647.011-.672-.287-.651-.77.019-.433-.08-.807.618-.8q7.216.045,14.433,0c.739-.005.624.4.662.851.046.558-.138.728-.709.721C773.649,390.785,771.243,390.8,768.837,390.8Z" transform="translate(-709.764 -367.819)" fill="#e7e7e7"/>
          <path id="Trazado_634152" data-name="Trazado 634152" d="M756.582,411.653q0,6.809,0,13.619a9.459,9.459,0,0,0,.167,2.3c-1.2.147-1.572-.159-1.574-1.355q-.01-6.333,0-12.666c0-.3-.013-.575.3-.764A5.115,5.115,0,0,0,756.582,411.653Z" transform="translate(-705.782 -383.01)" fill="#e19660"/>
          <path id="Trazado_634153" data-name="Trazado 634153" d="M775.566,330.805a6.839,6.839,0,0,0-6.034,5.294,13.289,13.289,0,0,0-.278,3.731c.014.587,0,1.175,0,1.763-1.322.1-1.325.1-1.322-1.171,0-1.633-.048-3.269.029-4.9A5.554,5.554,0,0,1,775.566,330.805Z" transform="translate(-714.427 -327.912)" fill="#c1573f"/>
          <path id="Trazado_634154" data-name="Trazado 634154" d="M654.275,496.088c1.9-.009,3.8-.01,5.695-.034.408-.005.611.113.556.542a.717.717,0,0,0,0,.08c-.019.825.269,1.89-.14,2.409-.434.551-1.549.159-2.364.176-1.256.026-2.513-.008-3.769-.017Z" transform="translate(-637.363 -440.23)" fill="#7f7f7f"/>
          <path id="Trazado_634155" data-name="Trazado 634155" d="M634.335,457.093q0,5.041,0,10.081c-2.215.095-1.848.129-1.862-1.76-.019-2.372,0-4.744,0-7.116,0-1.234,0-1.235,1.23-1.23C633.91,457.069,634.122,457.084,634.335,457.093Z" transform="translate(-622.587 -413.799)" fill="#c9c9c9"/>
          <path id="Trazado_634156" data-name="Trazado 634156" d="M746.548,373.037c-.672,3.032-.191,6.107-.348,9.158a15.567,15.567,0,0,0,.18,1.9.732.732,0,0,0,.359.594c-1.155.449-2.093-.091-2.107-1.3q-.05-4.452,0-8.906C744.644,373.4,745.37,372.9,746.548,373.037Z" transform="translate(-698.621 -356.815)" fill="#bebebe"/>
          <path id="Trazado_634157" data-name="Trazado 634157" d="M625.553,552.856q0,2.7,0,5.4c-.666.01-1.331.017-2,.031-.5.01-.731-.232-.73-.729,0-1.412.013-2.825-.006-4.237-.005-.376.1-.521.492-.5C624.061,552.854,624.807,552.847,625.553,552.856Z" transform="translate(-616.056 -478.715)" fill="#c9c9c9"/>
          <path id="Trazado_634158" data-name="Trazado 634158" d="M778.836,401.566h2.244c.134,0,.31-.054.394.011.642.5.181,1.2.3,1.8.063.316,0,.562-.443.557-1.683-.018-3.367-.007-5.05-.008-.189,0-.4.012-.4-.259-.008-.614-.01-1.229,0-1.843.005-.342.281-.253.474-.255C777.179,401.562,778.007,401.567,778.836,401.566Z" transform="translate(-719.814 -376.158)" fill="#e4e4e4"/>
          <path id="Trazado_634159" data-name="Trazado 634159" d="M625.377,513.607q0,1.8-.008,3.592c-.892,0-2.02.38-2.6-.154-.418-.387-.126-1.552-.131-2.37-.007-1.039.07-1.112,1.146-1.108C624.318,513.569,624.848,513.594,625.377,513.607Z" transform="translate(-615.869 -452.104)" fill="#bebebe"/>
          <path id="Trazado_634160" data-name="Trazado 634160" d="M746.286,510.045a13.887,13.887,0,0,0-1.765.015c-.76.1-.891-.224-.858-.894.03-.6-.037-1.07.852-1a35.359,35.359,0,0,0,3.612.013c.479-.012.707.11.634.622a2.248,2.248,0,0,0,0,.641c.079.516-.151.643-.629.614C747.519,510.016,746.9,510.045,746.286,510.045Z" transform="translate(-697.976 -448.436)" fill="#e4e4e4"/>
          <path id="Trazado_634161" data-name="Trazado 634161" d="M807.095,510.079c-.642,0-1.286-.028-1.926.01-.474.028-.622-.157-.571-.6a2.213,2.213,0,0,0,0-.561c-.079-.559.14-.739.707-.721,1.229.04,2.462.032,3.692,0,.5-.012.768.088.682.651a2.859,2.859,0,0,0,0,.721c.041.387-.11.515-.5.5C808.487,510.061,807.79,510.079,807.095,510.079Z" transform="translate(-739.279 -448.47)" fill="#e4e4e4"/>
          <path id="Trazado_634162" data-name="Trazado 634162" d="M610.955,532.462q.005,2.047.01,4.094c-.264.012-.529.019-.793.036-.621.041-.856-.262-.836-.863.024-.741,0-1.484.006-2.226,0-1.063.009-1.07,1.058-1.064C610.585,532.44,610.77,532.454,610.955,532.462Z" transform="translate(-606.911 -464.897)" fill="#535353"/>
          <path id="Trazado_634163" data-name="Trazado 634163" d="M650.168,496.089q-.012,1.578-.023,3.156c-1.947.063-1.957.063-1.943-1.838.012-1.55-.235-1.332,1.333-1.352C649.745,496.053,649.957,496.077,650.168,496.089Z" transform="translate(-633.256 -440.23)" fill="#535353"/>
          <path id="Trazado_634164" data-name="Trazado 634164" d="M647.055,348.126a4.935,4.935,0,0,1-.446-4.644c1.384-2.277,3.453-3.176,5.651-2.457a4.615,4.615,0,1,1-4.713,7.623C647.379,348.478,647.219,348.3,647.055,348.126Zm3.709-4.862a2.181,2.181,0,0,0-2.11,2.229,2.008,2.008,0,0,0,1.942,2,2.032,2.032,0,0,0,2.4-1.832A2.137,2.137,0,0,0,650.764,343.265Z" transform="translate(-631.922 -334.964)" fill="#030303"/>
          <path id="Trazado_634165" data-name="Trazado 634165" d="M658.882,348.489a2.137,2.137,0,0,1,2.232,2.4,2.033,2.033,0,0,1-2.4,1.833C658.128,351.284,657.876,349.862,658.882,348.489Z" transform="translate(-640.04 -340.188)" fill="#7d7d7d"/>
          <path id="Trazado_634166" data-name="Trazado 634166" d="M655.872,348.489c-1.006,1.373-.754,2.8-.168,4.231a2.009,2.009,0,0,1-1.942-2A2.181,2.181,0,0,1,655.872,348.489Z" transform="translate(-637.03 -340.188)" fill="#535353"/>
        </g>
      </g>
    </g>
  </g>
</svg>
